<?xml version="1.0" standalone="no"?>
<!DOCTYPE svg PUBLIC "-//W3C//DTD SVG 20010904//EN"
 "http://www.w3.org/TR/2001/REC-SVG-20010904/DTD/svg10.dtd">
<svg version="1.0" xmlns="http://www.w3.org/2000/svg"
 width="952.000000pt" height="952.000000pt" viewBox="0 0 952.000000 952.000000"
 preserveAspectRatio="xMidYMid meet">
<metadata>
Created by potrace 1.11, written by Peter Selinger 2001-2013
</metadata>
<g transform="translate(0.000000,952.000000) scale(0.100000,-0.100000)"
fill="#000000" stroke="none">
<path d="M2717 7700 c-92 -29 -149 -73 -216 -170 -13 -19 -30 -42 -38 -50 -14
-15 -111 -143 -148 -194 -11 -16 -25 -33 -31 -40 -5 -6 -59 -76 -119 -156 -60
-80 -112 -147 -115 -150 -6 -6 -37 -46 -195 -255 -71 -93 -131 -172 -135 -175
-3 -3 -23 -30 -45 -60 -22 -30 -42 -57 -45 -60 -3 -3 -19 -23 -35 -45 -17 -22
-32 -42 -35 -45 -3 -3 -17 -21 -30 -40 -14 -19 -30 -42 -37 -50 -7 -8 -68 -87
-135 -175 -67 -88 -125 -161 -130 -163 -4 -2 -8 -8 -8 -14 0 -6 -17 -31 -38
-57 -21 -25 -74 -93 -118 -151 -44 -58 -87 -114 -96 -125 -9 -11 -45 -58 -80
-105 -34 -47 -67 -90 -73 -97 -5 -6 -18 -22 -28 -35 -9 -13 -32 -42 -50 -65
-17 -23 -54 -71 -80 -107 -27 -36 -60 -78 -73 -93 -48 -54 -86 -148 -89 -218
-3 -81 10 -157 36 -208 19 -36 86 -136 99 -147 4 -3 49 -61 100 -130 52 -69
98 -129 102 -135 5 -5 58 -75 119 -155 60 -80 115 -152 122 -160 10 -13 119
-157 139 -185 5 -5 28 -36 53 -67 25 -31 45 -60 45 -64 0 -4 6 -12 14 -18 7
-6 69 -85 137 -176 68 -91 126 -167 129 -170 3 -3 23 -30 45 -60 22 -30 42
-57 45 -60 4 -3 36 -45 73 -95 37 -49 73 -97 80 -105 8 -8 34 -42 58 -75 24
-33 52 -69 61 -79 10 -11 30 -38 45 -60 15 -23 30 -43 33 -46 5 -4 139 -179
172 -225 4 -5 18 -23 31 -40 13 -16 63 -82 110 -145 48 -63 95 -125 104 -138
10 -12 26 -32 35 -45 103 -132 153 -177 225 -202 75 -26 180 1 248 63 28 25
115 131 175 212 14 18 43 57 65 85 22 29 51 67 65 85 52 69 80 105 88 115 4 6
31 42 60 80 62 83 83 111 97 128 6 6 53 68 105 137 52 69 97 127 100 130 3 3
52 68 110 145 57 77 110 147 118 155 12 13 558 731 600 789 9 13 22 28 27 35
6 6 30 38 55 71 24 33 50 66 57 73 7 7 13 17 13 20 0 4 10 18 23 32 17 19 136
175 179 235 4 6 20 26 36 45 16 19 49 62 73 95 24 34 54 72 67 85 12 13 22 28
22 33 0 5 8 6 18 2 16 -6 188 -53 222 -60 8 -2 15 -4 15 -5 0 -2 20 -6 65 -14
19 -4 43 -9 52 -12 28 -8 190 -40 251 -49 68 -10 104 -16 122 -19 25 -5 105
-15 168 -21 26 -3 68 -7 95 -10 197 -23 708 -23 917 0 183 19 184 19 280 35
39 6 84 13 100 16 17 2 55 9 85 15 30 7 62 13 70 14 8 2 15 4 15 5 0 1 12 3
26 5 14 2 56 11 93 20 37 9 72 18 79 19 7 1 17 4 22 8 8 5 29 10 90 24 37 8
292 98 303 106 6 6 12 8 12 4 0 -4 14 1 31 10 l32 16 -24 -32 c-13 -18 -28
-39 -34 -48 -12 -18 -36 -50 -50 -66 -6 -6 -47 -58 -90 -116 -44 -58 -83 -109
-88 -115 -7 -9 -81 -107 -147 -195 -31 -42 -177 -232 -188 -245 -4 -5 -28 -37
-52 -70 -25 -33 -49 -65 -55 -72 -19 -23 -30 -38 -90 -118 -32 -44 -62 -82
-65 -85 -3 -3 -17 -21 -30 -40 -13 -19 -27 -37 -30 -40 -3 -3 -39 -50 -81
-105 -137 -181 -151 -200 -160 -203 -5 -2 -9 -8 -9 -13 0 -11 -4 -16 -50 -69
-16 -19 -30 -38 -30 -43 0 -4 -10 -19 -22 -32 -13 -13 -45 -54 -73 -92 -27
-37 -60 -79 -72 -93 -13 -14 -23 -28 -23 -31 0 -3 -11 -19 -25 -35 -14 -16
-25 -32 -25 -36 0 -23 -25 2 -91 90 -65 87 -175 230 -197 257 -4 6 -35 46 -67
90 -33 44 -70 91 -82 105 -13 14 -23 28 -23 32 0 3 -6 13 -13 20 -7 7 -42 51
-77 98 -35 47 -66 87 -69 90 -3 3 -75 97 -160 210 -85 113 -158 207 -161 210
-3 3 -17 21 -30 40 -13 19 -27 37 -30 40 -3 3 -17 21 -30 40 -14 19 -35 46
-47 60 -13 14 -23 28 -23 31 0 4 -16 24 -35 45 -19 22 -35 42 -35 45 0 3 -8
15 -17 26 -10 12 -51 64 -91 117 l-73 96 -83 -107 c-45 -60 -115 -153 -156
-208 -41 -55 -77 -102 -80 -105 -4 -3 -26 -32 -50 -65 -24 -33 -50 -66 -57
-73 -15 -15 -23 -2 104 -169 43 -56 85 -111 93 -123 8 -13 20 -28 25 -34 6 -6
24 -29 40 -51 17 -22 40 -51 53 -65 12 -14 22 -28 22 -31 0 -3 8 -15 18 -27
10 -11 27 -33 38 -48 10 -15 27 -35 37 -46 9 -10 17 -21 17 -24 0 -4 14 -23
30 -43 17 -20 34 -40 38 -46 4 -5 64 -83 132 -173 69 -90 130 -171 135 -179 6
-9 17 -24 25 -34 22 -26 33 -40 60 -79 13 -19 30 -39 37 -43 7 -4 13 -14 13
-22 0 -7 3 -15 8 -17 7 -3 44 -47 75 -91 10 -14 53 -70 95 -125 189 -246 318
-415 327 -430 6 -9 15 -21 20 -27 6 -7 21 -27 35 -45 56 -75 123 -139 168
-160 66 -31 181 -32 237 -3 71 38 105 78 365 423 63 84 120 158 125 164 6 6
44 56 85 111 41 55 79 105 85 111 5 7 19 24 30 40 25 35 105 139 139 180 14
18 26 36 26 42 0 6 4 12 9 14 4 1 38 42 73 89 36 48 70 93 77 100 6 8 43 57
83 109 39 52 76 97 80 98 4 2 8 8 8 13 0 8 51 80 70 99 3 3 32 41 66 85 33 44
96 127 140 185 45 58 113 148 152 200 39 52 75 100 79 105 5 6 22 28 38 50 17
22 32 42 36 45 3 3 39 50 80 105 40 55 84 111 96 125 13 14 23 28 23 32 0 4
11 18 25 32 14 14 25 28 25 31 0 3 23 36 51 73 79 104 112 183 114 267 1 39
-4 84 -11 100 -6 17 -20 50 -30 75 -22 52 -84 150 -119 188 -14 15 -25 30 -25
34 0 3 -6 13 -13 20 -7 7 -33 40 -57 73 -25 33 -48 62 -52 63 -5 2 -8 10 -8
18 0 8 -4 14 -8 14 -4 0 -25 25 -47 56 -22 31 -45 61 -50 67 -6 7 -33 41 -60
77 -27 36 -53 70 -58 75 -4 6 -57 75 -117 155 -60 80 -119 156 -130 169 -11
13 -25 31 -30 41 -6 10 -16 25 -24 33 -8 8 -25 30 -38 49 -13 18 -29 40 -36
48 -13 16 -157 204 -189 247 -10 13 -45 60 -78 102 -33 43 -125 165 -205 271
-80 105 -153 202 -163 214 -9 11 -60 77 -112 146 -52 69 -98 130 -102 135 -5
6 -24 30 -43 55 -19 25 -38 47 -42 48 -5 2 -8 10 -8 17 0 7 -3 15 -7 17 -5 2
-42 48 -83 103 -41 55 -80 105 -86 111 -6 7 -22 25 -35 40 -81 93 -245 126
-383 76 -47 -16 -134 -89 -167 -139 -18 -27 -191 -256 -198 -263 -4 -3 -19
-23 -36 -45 -16 -22 -31 -42 -34 -45 -4 -3 -18 -23 -33 -45 -15 -22 -38 -52
-50 -67 -13 -14 -30 -36 -38 -48 -8 -12 -23 -32 -32 -43 -10 -12 -21 -26 -26
-32 -4 -5 -19 -26 -32 -45 -14 -19 -30 -42 -37 -50 -6 -8 -31 -40 -55 -70 -23
-30 -63 -82 -88 -115 -25 -33 -47 -62 -50 -65 -3 -3 -24 -30 -45 -60 -22 -30
-45 -62 -52 -70 -7 -8 -32 -42 -57 -75 -25 -33 -49 -64 -54 -70 -4 -5 -21 -28
-37 -50 -32 -43 -54 -71 -70 -89 -5 -6 -50 -65 -100 -131 -49 -66 -95 -127
-102 -135 -19 -24 -96 -126 -118 -156 -11 -16 -32 -42 -46 -59 -14 -16 -36
-46 -49 -65 -13 -19 -27 -37 -30 -40 -3 -3 -32 -41 -65 -85 -33 -44 -62 -82
-65 -85 -3 -3 -17 -21 -30 -40 -13 -19 -27 -37 -30 -40 -3 -3 -55 -70 -115
-150 -60 -80 -117 -154 -127 -164 -10 -11 -18 -23 -18 -27 0 -4 -16 -24 -35
-45 -19 -22 -35 -42 -35 -46 0 -4 -11 -18 -23 -32 -25 -27 -44 -28 -122 -7
-22 6 -58 13 -80 16 -22 4 -60 11 -85 17 -25 5 -63 12 -85 14 -22 3 -51 7 -65
10 -27 6 -49 9 -125 19 -27 3 -61 8 -75 10 -14 2 -61 7 -105 11 -44 3 -88 8
-97 10 -29 5 -363 17 -478 17 -103 0 -416 -12 -475 -17 -16 -2 -68 -7 -115
-11 -47 -4 -98 -9 -115 -11 -16 -2 -52 -6 -80 -10 -27 -3 -61 -8 -75 -10 -14
-3 -45 -7 -70 -9 -25 -3 -56 -7 -70 -10 -14 -3 -43 -7 -65 -11 -74 -10 -88
-13 -290 -55 -167 -34 -180 -37 -180 -39 0 -2 -6 -3 -55 -13 -14 -3 -68 -17
-120 -31 -52 -14 -95 -24 -96 -23 -2 2 111 153 180 242 13 17 47 62 76 100 29
39 56 72 61 73 5 2 9 10 9 17 0 7 3 15 8 17 4 2 36 42 72 90 36 49 68 88 73
88 4 0 7 6 7 14 0 8 3 16 8 18 4 2 63 77 132 168 68 91 128 167 132 168 4 2 8
9 8 14 0 6 7 18 15 27 21 22 53 64 118 151 31 41 60 80 65 85 4 6 28 37 52 70
25 33 51 66 57 75 7 8 61 78 120 155 58 77 111 143 117 147 6 4 8 8 4 8 -4 0
0 9 10 21 9 11 24 29 32 39 8 10 47 61 85 113 39 53 75 96 80 96 6 0 39 -39
75 -87 85 -114 82 -111 103 -133 9 -10 17 -23 17 -28 0 -5 3 -11 8 -13 4 -1
41 -48 82 -103 41 -55 77 -102 80 -105 3 -3 27 -34 53 -70 27 -36 54 -72 61
-80 6 -9 32 -42 56 -75 25 -33 51 -66 57 -75 7 -8 69 -89 138 -180 69 -91 131
-172 138 -180 6 -9 25 -33 42 -55 16 -22 35 -46 42 -53 7 -7 13 -17 13 -21 0
-4 10 -18 23 -31 12 -13 44 -54 70 -90 27 -36 58 -78 70 -94 12 -16 41 -54 64
-85 24 -31 49 -63 56 -71 8 -8 24 -29 37 -47 l23 -32 31 42 c17 23 35 47 41
54 5 6 33 41 60 78 28 36 68 90 90 118 23 29 77 99 120 157 44 58 84 108 88
111 11 8 11 20 0 28 -4 3 -35 42 -68 86 -33 44 -91 121 -130 170 -38 50 -79
104 -90 120 -11 15 -28 35 -37 44 -10 8 -18 19 -18 24 0 5 -14 26 -30 46 -17
20 -34 41 -38 46 -156 204 -259 340 -267 353 -5 9 -12 19 -15 22 -7 6 -101
128 -235 305 -55 72 -103 132 -107 133 -4 2 -8 10 -8 17 0 7 -3 15 -7 17 -7 3
-37 40 -152 193 -25 33 -49 62 -53 63 -5 2 -8 8 -8 13 0 8 -17 31 -45 63 -6 6
-22 27 -35 46 -13 19 -27 37 -30 40 -3 3 -25 32 -50 65 -25 33 -51 66 -57 73
-7 7 -16 18 -20 25 -5 7 -25 26 -45 44 -65 55 -174 73 -271 43z"/>
</g>
</svg>
