<svg xmlns="http://www.w3.org/2000/svg" viewBox="0 0 391.86 387.88"><title>adrian</title><g id="Layer_2" data-name="Layer 2"><g id="Layer_1-2" data-name="Layer 1"><path d="M111.46,177.06c.3-.38.29-.39-.09-.09a1.41,1.41,0,0,0-.41.42C111,177.58,111.15,177.46,111.46,177.06Z"/><path d="M118.59,169.19c1.18-1.3,2.55-2.76,4.21-4.5a100.29,100.29,0,0,0,9.37-10.89c-.08,1.21-.55,2.15-1.94,4-1.7,2.31-3.52,4.12-8.86,8.84C120.48,167.48,119.52,168.34,118.59,169.19Z"/><path d="M254.39,222.8c-.08-.19-.13-.13-.14.15s0,.39.12.31A.48.48,0,0,0,254.39,222.8Z"/><path d="M117.34,167.57c1.18-1.43,2.57-3,4.5-5.16,7.13-7.89,8.3-9.38,10.51-13.32l.13-.23c-.43,3.16-2.24,5.49-10.18,13.58C120.61,164.16,118.84,166,117.34,167.57Z"/><path d="M197.47,49.47A25.5,25.5,0,0,0,196.24,47l-.48-.85a11.84,11.84,0,0,1,2.74.48,3.27,3.27,0,0,1-.32.9A19.92,19.92,0,0,0,197.47,49.47Z"/><path d="M255.42,223.28a19.41,19.41,0,0,1-.37-2.5,6.84,6.84,0,0,1,.1-2.26v0A43.71,43.71,0,0,0,255.42,223.28Z"/><path d="M132,101.78c-6.38,6.79-13.4,20.64-13.75,27.1l-.1,1.91.48-2.26c1.55-7.26,5.9-16.2,11.69-24C133.12,100.69,133.33,100.34,132,101.78Z"/><path d="M252.84,222.73l0,1.07c0,2.1,1.84,5.64,4.24,8a16.58,16.58,0,0,0,1.64,1.52,11.38,11.38,0,0,0-1.34-1.56,22,22,0,0,1-4.17-7.75Z"/><path d="M118.24,191.75c-2,4.73-3.24,8.4-3.37,10l-.1,1.36.34-1c.18-.52.62-1.92,1-3.1a84,84,0,0,1,6-14.39c.35-.56.54-1,.42-1C122.1,183.69,119.81,188.06,118.24,191.75Z"/><path d="M106.27,197.1c-.59-1.1-.25-2.9,1.13-5.95a23.13,23.13,0,0,0-1,4.79A11.59,11.59,0,0,1,106.27,197.1Z"/><path d="M254.16,221.83a5.74,5.74,0,0,0,0-1.31c-.06-.36-.1-.07-.1.65S254.1,222.19,254.16,221.83Z"/><path d="M287.71,356.28a4.78,4.78,0,0,0,1.53-3.53c.07-1.35,0-1.26-.41.88a4.16,4.16,0,0,1-.95,2,4.07,4.07,0,0,0-.7.87C287.18,356.57,287.42,356.47,287.71,356.28Z"/><path d="M117,199.76a41.5,41.5,0,0,1,1.13-4.45,61.67,61.67,0,0,1,3.31-7.08,9.62,9.62,0,0,1-.52,1.19c-.9,1.8-.89,2-.88,2.12l0,.32a.9.9,0,0,0-.44.39,2,2,0,0,0-.31.87v.11a1.57,1.57,0,0,0-.17.21,2,2,0,0,0-.31.87v.5l.54.07a.77.77,0,0,0,.61-.41l0-.07h.07l.14,0c-.33.83-.66,1.7-.93,2.43-.19.53-.47,1.3-.73,1.93.07-.38,0-.54-.08-.69l-.15-.19h-.26c-.32,0-.55.11-1,1.69Zm2-4.79c-.34,0-.52.26-.77.81a3.72,3.72,0,0,0-.36,1.29v.49l.52.07c.4,0,.58-.39.76-.87a5.55,5.55,0,0,0,.36-1.25V195Z"/><path d="M110.94,180.33c2.84-4,6.76-8.09,13.22-13.84a45.14,45.14,0,0,0,7.47-8c.22-.32.42-.61.59-.84,0,.08,0,.16,0,.26.21,2.38-1,3.87-8.36,10A145.28,145.28,0,0,0,110.94,180.33Z"/><path d="M189.79,315.47a2.43,2.43,0,0,1-.4-.33,4.93,4.93,0,0,1,0-3.57c.22-.46.26-.56,2.74-1.32,1.49-.46,4.09-1.39,5.79-2.08.62-.26,1.66-.67,2.29-.87l-.26.3c-.47.48-.75.77-.74,1.16a1.06,1.06,0,0,0,.43.72,15.28,15.28,0,0,0,3.51,1.14l1.52.36a.68.68,0,0,0-.4.19.66.66,0,0,0-.19.44,22.41,22.41,0,0,1-2.22-.34,3.42,3.42,0,0,0-.61-.07c-.55,0-.68.32-.72.46-.1.44,0,.75,2.87,2.17-.85-.35-1.65-.65-2.2-.83a20.62,20.62,0,0,0-5.12-1,1.9,1.9,0,0,0-.66.09c-.59.23-.64.62-.64.78s.11.57.7.8c-.09.21-.1.37.69,1.25a2.61,2.61,0,0,0-1.49-.78.77.77,0,0,0-.27,0,2.15,2.15,0,0,1-.88-.32l-1.26-.74-.81,1.25A2.64,2.64,0,0,1,189.79,315.47Z"/><path d="M123.87,230.7a4.12,4.12,0,0,1-1.29-.41,10.42,10.42,0,0,1-3.34-3,31.17,31.17,0,0,1-3.85-10,19.5,19.5,0,0,1,.44-8.09l0,.21c.33,2,1.49,6.48,2,7.13a1,1,0,0,0,.82.5c.68,0,1.12-.69,1.95-3.09a49.56,49.56,0,0,1,5.68-11.16s1.65-2.3,2-3a6.08,6.08,0,0,1,.47.89,37,37,0,0,1,2.67,13c.26,6.77-1.06,11.42-4.15,14.65a7.36,7.36,0,0,1-3.36,2.26Z"/><path d="M288.27,364.21c.06,0-1.51-2.84-2.22-4-.19-.31-.39-.52-.44-.46a19.29,19.29,0,0,0,2.21,4A2.66,2.66,0,0,0,288.27,364.21Z"/><path d="M119.55,369.58a5.47,5.47,0,0,1-1.19-.27c-1.82-.64-3.59-2.83-3.4-3.57a.23.23,0,0,1,0-.09,5.08,5.08,0,0,1,1.08,1,13.8,13.8,0,0,0,2.45,2.18C119,369.15,119.3,369.39,119.55,369.58Z"/><path d="M129.23,378.52c-4.66-1.67-9.21-3.49-13.54-5.43q-2.28-1-4.51-2.07a196.7,196.7,0,0,1-21.29-11.83c-4.25-2.71-8.52-5.69-12.69-8.85-.63-.47-1.25-1-1.87-1.44l0,0a5.77,5.77,0,0,1,.66-.88c.56-.59.84-.92.67-1.3l-.07-.17h0c.63-.25,1.06-.4,1.19-.44a35.32,35.32,0,0,0,4.84-2.47c1.11-.79,2.14-3,2.3-5a9.3,9.3,0,0,0,0-2,1.35,1.35,0,0,0,.62.14,2.7,2.7,0,0,0,.74-.12v0l.69-.28.18-.09,1.33,1.82a18.9,18.9,0,0,0,4.06,4.4c1.1.91,1.61,1.22,2,1.22.13,0,.74,0,.74-.9a10.64,10.64,0,0,1,2.72-3.46l-.31.33A8.77,8.77,0,0,0,95.44,344c-.78,2.81-.66,5,.48,9.34a16.5,16.5,0,0,0,4,5.77,20.2,20.2,0,0,0,3.5,2.27c2,1,2.43,1.14,3.91,1.14a10.94,10.94,0,0,0,2.58-.28,2.25,2.25,0,0,1,.61-.09,10,10,0,0,1,2.25.45,17.85,17.85,0,0,0,4.52.62,15.12,15.12,0,0,0,3.67-.46,12.71,12.71,0,0,0,5.42-2.68c.48-.43.68-.61.81-.61a3.05,3.05,0,0,1,.58.15,4.77,4.77,0,0,0,1.48.2c2.44,0,7.31-1.31,7.31-3,0-1.06-.86-1.39-2.49-1.94-4.88-1.63-7.59-4.43-8.29-8.54-.19-1.12-.29-1.71-.78-1.76a13.29,13.29,0,0,0-.26-4c-.48-3.43-1.15-5-3.1-7.25a16.62,16.62,0,0,1-2.17-3.16,8.44,8.44,0,0,0-1.24-2,1.54,1.54,0,0,0,.73-1.09,1.89,1.89,0,0,0-.25-1.76c-.25-.39-.54-.83-1-.83s-.85.44-1.54,1.34a3.12,3.12,0,0,1-1.15.72l-.95.33.08.52-1.28,0a6.1,6.1,0,0,1-3.21-.73c-.49-.21-.9-.36-1.28-.49h0l-.78-1.72a3.58,3.58,0,0,1-.15-3,7.16,7.16,0,0,1,1.37-1.16,23.25,23.25,0,0,0,2.21-1.75c.68-.61.88-.71,1.13-.71l.3,0a2.75,2.75,0,0,0,.52,0,5.33,5.33,0,0,0,2.76-.73,1,1,0,0,0,.39-1.07,1.76,1.76,0,0,0-1.59-1,1.73,1.73,0,0,1-1.35-.73c-.37-.6-.31-1.64.16-3,.79-2.25.68-3.21-.57-4.9-.61-.83-1-1.31-1.51-1.38a15.81,15.81,0,0,1,1.59-.5c1-.24,2.18-1.18,2.18-2.19,0-.7-.54-1.14-1.54-1.71a5.19,5.19,0,0,1-1.23-.9c-.11-.28-.48-1.25,1.36-2.21a3,3,0,0,1,1.31-.27,6.1,6.1,0,0,1,4.13,1.75c1,1.11,2.75,2.31,3.68,2.31s1.13-.59,1.25-1.25c.17-.87.6-1.38,2.35-1.38a10.35,10.35,0,0,1,2.49.33,4.45,4.45,0,0,0,1.25.23,1.66,1.66,0,0,0,.75-.17c1-.54.59-1.57.14-2.67a.82.82,0,0,1-.06-.67.58.58,0,0,1,.48-.15,1.3,1.3,0,0,0,1.2-.6,1.36,1.36,0,0,0,.15-.87c.37.44.82.93,1.38,1.5,1.84,1.88,2,1.88,2.23,1.88h.28l.16-.25a.53.53,0,0,0,.07-.42,5.86,5.86,0,0,1,.59,1.31,1.9,1.9,0,0,0,.62,1.24,3.12,3.12,0,0,1,.61.93c.3.71.67.86.94.86.12,0,.74,0,.74-1a5.25,5.25,0,0,1,.32-.9,8.9,8.9,0,0,0-.23,2.2,69.48,69.48,0,0,0,.7,10.72,15.85,15.85,0,0,0,4.32,7.24,9.84,9.84,0,0,0,3.18,2.57,4.34,4.34,0,0,0,1.35.33,2.15,2.15,0,0,0,1.51-.87,11.56,11.56,0,0,0,1.39-1.76,5.46,5.46,0,0,1,1.74-1.52,5.71,5.71,0,0,0,3-4.26,2.31,2.31,0,0,0-.58-2.32,2.28,2.28,0,0,1-.5-1,2.11,2.11,0,0,0,0-.33c.15.19.32.42.48.66,2.1,3.09,6.08,5.53,11.22,6.88a8.33,8.33,0,0,0,1.89.34,2,2,0,0,0,.43,0,16.39,16.39,0,0,0-1.11,3.77A51,51,0,0,0,168,331.7c-.25,3.59-.13,19.46.18,23.59,0,.13,0,.28,0,.43l-4.13-.33c-1.62-.13-2.68-.18-3.53-.18a8.8,8.8,0,0,0-4.31.93,7.33,7.33,0,0,0-3.65,3.83c-.64,1.31-.78,1.43-1.55,1.72-1.58.6-2.09,1.25-2.17,2.75l0,.71-1.67.38,0-.07c0-.14-.14-.44-1.63-1.11a4.91,4.91,0,0,0-2.28-.61,10.25,10.25,0,0,0-1.12.07,18,18,0,0,0-6.09,1.57l-1.49.71c-5.63-5.65-6.17-6.07-6.69-6.07a.6.6,0,0,0-.59.43c-.29.89-3,3-5,3.67a12.55,12.55,0,0,1-4,.62,17.08,17.08,0,0,1-5.4-.9,8.64,8.64,0,0,0-2.06-.57.74.74,0,0,0-.6.26c-.25.3-.18.67-.09,1.14a14.63,14.63,0,0,0,4.31,7c1.91,1.5,4.77,2.6,8.52,3.27A9.89,9.89,0,0,1,129.23,378.52Zm8.41-9.28a1.26,1.26,0,0,0,.45-.39,4.84,4.84,0,0,1,1.25-.86,3.06,3.06,0,0,1,1.59-.4c.23,0,.49,0,.79,0s.69,0,.93,0a3.3,3.3,0,0,0,.58,0,6.8,6.8,0,0,0-.93,2.92c-.16,1.48-.1,1.76.78,3.36l.76,1.38-.06.15Zm25.25-7.07.37-.12-.36.2S162.89,362.2,162.89,362.17Zm-56.24-12.51c-.28-.21-.39-.24-.48-.24l0,0a.61.61,0,0,0,.07-.24Zm-1.32-1.59A.51.51,0,0,0,105,348h-.09a17.27,17.27,0,0,1-2.11-4.36A18.86,18.86,0,0,0,105.33,348.07ZM71.5,345.85c-2.82-2.3-5.52-4.62-8-6.89l-1.2-1.11c-.84-.78-1.68-1.57-2.51-2.37s-1.85-1.79-2.76-2.7c.33,0,.71-.16.71-.59a27.77,27.77,0,0,0-1-3.19c-1.12-3.42-1.55-6.46-1.9-13.53-.27-5.41-.18-6.68.7-10.39a42.26,42.26,0,0,0,.74-5.21c.26-3.22.42-3.52,1.55-4.37.27-.2.39-.22.43-.22s.43.22,1,2.18a1,1,0,0,0,.16.33.68.68,0,0,0-.09.33v.5h.27s0,.06,0,.09a.68.68,0,0,0,.19.55l.15.15h.11a2.06,2.06,0,0,0-.18.69,1.34,1.34,0,0,1-.51.91,1.25,1.25,0,0,0-.56,1.68c.1.3.35,1,1,1a1,1,0,0,0,.78-.46l.12.19.36,0a2.21,2.21,0,0,0,.61-.13,2.52,2.52,0,0,1,.67-.09c1.21,0,2.75.87,5,2.81a25.55,25.55,0,0,1,4.51,6.3c1.68,3,2.12,4,2.12,4.94,0,.59,0,.68-1.22,1a5.16,5.16,0,0,1-1.25.24c-.52,0-.93-.24-2-1.16-1.5-1.33-1.9-1.53-4.32-2.15a4.2,4.2,0,0,1-1.11-.43c0-.11-.47-1.45-1-3.39,0,0-.9-3.4-1.13-3.82a.67.67,0,0,0-.59-.38c-.31,0-.89,0-1.2,3.07-.26,2.52.19,3.76,2.1,5.78,1.75,1.85,1.92,2.42,1.65,3.08-.45,1.09,0,1.72,1.29,2.79.51.43.59.65.59,1.07a2.11,2.11,0,0,1,0,.37H65.7c-.87.12-1,.77-1,1.47s0,1.3.55,1.62h0s.12.15.12.88c0,1.5.88,2.71,2,2.71a1.22,1.22,0,0,1,.35.4c.24.45.39.73.75.73h0c.54,0,.55-.59.55-.81a6.46,6.46,0,0,0-.37-1.7c-.07-.19-.18-.5-.24-.72l.26,0a4.22,4.22,0,0,0,.62.06,1,1,0,0,0,.25,0A7.48,7.48,0,0,0,69,331.5c0,2.61,0,2.68,1.45,6.27a39.05,39.05,0,0,0,1.92,4.33,7.24,7.24,0,0,1,.56,1.43,1.37,1.37,0,0,0-.61.51A6,6,0,0,0,71.5,345.85ZM102,340.63a.5.5,0,0,0-.09-.12l0,0,.1-.35A3,3,0,0,0,102,340.63Zm-.51-1.67c.44-.16.67-.72.67-1.68s-.35-1.34-1.35-2.29a4.9,4.9,0,0,1-1.31-1.8,2.87,2.87,0,0,0-1.39-1.76,16.8,16.8,0,0,1-2-1.59l-1.56-1.45a2.56,2.56,0,0,0,0-.27,4.69,4.69,0,0,1,4.07-3.94c.37,0,.69-.05,1-.05,1,0,1.1.27,1.13.38a5.13,5.13,0,0,0,.91,1.54l.74.89a11.32,11.32,0,0,0-1.52,1.92c-1.17,1.74-1.39,2.2-1.15,3.05a13,13,0,0,0,2.36,4c.58.7.6,1,.6,1-.09.2-.33,1.11-.51,1.82-.06.25-.1.46-.14.66Zm-22.29-7.14a.93.93,0,0,1-.15-.2c-.22-.33-.24-.36.07-1.43a3.57,3.57,0,0,0,.1-.35,1.19,1.19,0,0,0,.64.71A3,3,0,0,0,79.18,331.82Zm13.09-4.66A.51.51,0,0,0,92,327a10.34,10.34,0,0,1-.88-1c-1.84-2.4-3.65-3.21-7.76-3.44-2.87-.16-4-.88-4.76-3l-1.25-3.53a43.48,43.48,0,0,0-4-8.34,20.41,20.41,0,0,0-9.31-7.58l-.68-.23a14,14,0,0,1,2-1.42c2.07-1.17,2.07-1.39,2.07-1.65,0-1.07-6.62-3.33-7.06-3.33-.74,0-1.54-.22-1.54-2.64a10.07,10.07,0,0,1,.21-2.15l.54-1.89-1.72.89-.24.12a41.51,41.51,0,0,1,.49-5.28,5.58,5.58,0,0,1,.71-2.18,28.6,28.6,0,0,0,1.51-2.48,34.85,34.85,0,0,1,4.19-6.18,15,15,0,0,1,3.59-2.35,51.58,51.58,0,0,0,8.55-5.86l.66-.53,1.37.35a23.91,23.91,0,0,0,3.42.55c.43,0,.73.07.94.11a15.09,15.09,0,0,1-1.65.41,4.59,4.59,0,0,0-2.89,1.54,12.75,12.75,0,0,1-2.11,1.66,4.34,4.34,0,0,0-2,2.25,8.2,8.2,0,0,1-.71,1.3.74.74,0,0,0-.52-.17,2.69,2.69,0,0,0-1.85,1.13c-.4.52-.68.92-.53,1.35s.66.58,1.07.69.52.13.93,1.29a4.82,4.82,0,0,0,1.21,2c.16.11.29.24.29.82a2.93,2.93,0,0,0,2.08,2.84,60.81,60.81,0,0,0,6.77.34l3.05,0c2.48,0,3.14-.08,3.69-.45a6.71,6.71,0,0,1,1.23-.61,1.44,1.44,0,0,1,.46-.08,5.44,5.44,0,0,1,2.62,1.18l1.31.89,2.26-1.8.12.16a17.3,17.3,0,0,1-2.5,2l-.36.18a1.4,1.4,0,0,0-1.12-.65,1,1,0,0,0-.29,0,.64.64,0,0,0,0-.2c0-.52-.54-.81-1.21-1.12a2.71,2.71,0,0,0-1.07-.32c-.56,0-1,.33-2.06,1.21-.35.28-.43.3-.55.3a3.14,3.14,0,0,1-.71-.14,3.68,3.68,0,0,0-1-.18,1.26,1.26,0,0,0-1,.64,2.67,2.67,0,0,0-.54,1.14,2.05,2.05,0,0,1-1.45.51H84l-.4,0c-.28,0-1.14,0-1.39.61s.32,1.16.5,1.34a3.71,3.71,0,0,0,1.44.89.68.68,0,0,1,.34.16c.06.11.07.44-.22,1.35-.6,1.91-.15,2.76,1.52,4.34,1,.95,1,1,.94,1.43-.21,1.37.51,2.28,2.3,3.93a8.79,8.79,0,0,0,4.32,2.53c.81.24.87.27,1.61,1.74a4.39,4.39,0,0,0,2.61,2.68c2,1,3.72,1.3,7.32,1.3h.18a17.86,17.86,0,0,0,2.31-.1l1.18,1.26a5.89,5.89,0,0,1,1.11,4.31,10.51,10.51,0,0,1-3,5.51,6.63,6.63,0,0,1-3.06,2,28.3,28.3,0,0,1-6.14,1.46c-2.21.24-3.1,1-4.13,3.41C93,325.17,92.52,326.36,92.27,327.16Zm65.21-20.41-.42-.11a.66.66,0,0,0,.05-.46c-.1-.38-.49-.54-.87-.67l-.26-.1,0,0a.89.89,0,0,0,.31-.71.7.7,0,0,0-.35-.53,2,2,0,0,1-.39-.54,1.13,1.13,0,0,0-1.07-.74,3,3,0,0,0-.53.06,1.67,1.67,0,0,1-.29,0c-.24,0-.51,0-1-1.44a3.92,3.92,0,0,0-.36-.84,1.59,1.59,0,0,1,.67.58,1.4,1.4,0,0,0,1.41.88,4,4,0,0,1,2.48,1.35,3.51,3.51,0,0,0,2.41,1.06c1.56.24,1.69.55,1.69.55s0,0-.24,0-.62,0-1.14-.08-1-.09-1.27-.09a.77.77,0,0,0-.76.36.66.66,0,0,0,.14.71.75.75,0,0,0-.25.71h0Zm4.37-13.68a.56.56,0,0,0,0-.29.53.53,0,0,0-.17-.34,3.11,3.11,0,0,1,.84.35l-.15.06Zm-23.16-4.3a9,9,0,0,1-3.58-.82l-2.46-1a4.61,4.61,0,0,0-.3-.9,9.38,9.38,0,0,1,.17-4.28,2.93,2.93,0,0,0,0-2.45,2.05,2.05,0,0,0-1.3-1.37,9.63,9.63,0,0,0,1.52.11h.21a12.09,12.09,0,0,0,3-.43,3.44,3.44,0,0,1,1.17-.22,10.92,10.92,0,0,1,3.7,1.06,31.38,31.38,0,0,0,3.53,1.23c1.16.29,1.16.37,1.16.93a1.62,1.62,0,0,1-1.67,1.41,3,3,0,0,0-1.68.91,2.48,2.48,0,0,0-.93,2.33,16.93,16.93,0,0,0,.46,3.28,1,1,0,0,0-.32,0,7.12,7.12,0,0,0-1,.1A11.79,11.79,0,0,1,138.69,288.77Zm-32.94-1.71a8.56,8.56,0,0,1-1-.81c-.59-.58-1-.94-1.46-.94a1.13,1.13,0,0,0-.56.16.7.7,0,0,1-.36.1c-.47,0-1.15-.46-2.22-1.48l-1.72-1.65c.18-.23.36-.44.54-.65l3.46,3.45.86-1.09a1.12,1.12,0,0,1,.36-.32.82.82,0,0,1,.19.43c.19.76,1,2.55,1.86,2.55h.08l.11,0a.82.82,0,0,0,.2-.12A1,1,0,0,1,105.75,287.06Zm-10.5-1.17a.49.49,0,0,1-.4-.2,1.82,1.82,0,0,0-1.17-.52,1,1,0,0,0,.63-.45.6.6,0,0,1,.18.27c.08.22.32.85.9.89Zm-2.09-.75a.45.45,0,0,1-.42-.25A1.12,1.12,0,0,0,93.16,285.14Zm13.5-2.87a1.16,1.16,0,0,0-.73-.23h0c.19-.08.46-.33.82-1.08,0,.12,0,.24,0,.36A4.64,4.64,0,0,0,106.66,282.27ZM105,280.89a1.2,1.2,0,0,0-.39-.2l.38-.57C105,280.38,105,280.65,105,280.89Zm-10.6-1.42c-.14,0-.31-.11-.33-.25s.11-.53.54-.89.81-.78.67-1.17l-.12-.33-.44,0a3.61,3.61,0,0,1-.73-.62c-1-1-1.42-1.77-1.37-2.2,0-.11.06-.27.36-.47a1,1,0,0,1,.6-.19,7.77,7.77,0,0,1,1.62.3,2.08,2.08,0,0,0,.53.09.66.66,0,0,0,.51-.22c.22-.27.16-.58.05-1.15a1.41,1.41,0,0,1,.18-1.16,1,1,0,0,1,.78-.31c.48,0,.75.11,2,1.29a15.88,15.88,0,0,0,2.84,2.1,6.87,6.87,0,0,1,1.19.72.81.81,0,0,0,.66.34c-.09.15-.28.48-.3.53h-1.36a6.81,6.81,0,0,1-1.94-.62l-1.74-.82-.76.77a2,2,0,0,0-.58,1.72,1.17,1.17,0,0,1-.73,1.33c-.21.12-.55.31-.53.7s.42.59,1,.84a1.74,1.74,0,0,1,.75.53.85.85,0,0,0,.06.17Zm9.47,1a1.69,1.69,0,0,1-.58-.58l0-.06.2.21Z"/><path d="M334.18,284.32a13.39,13.39,0,0,1-1.75-1.45c-.22-.3-.45.24-1.18,2.76a20.53,20.53,0,0,1-1.12,3.26.46.46,0,0,0-.21.35c0,.44.47.21,2.08-1a18.06,18.06,0,0,1,2.63-1.69c.56-.24,1-.6,1-.79S335,284.92,334.18,284.32Zm.06,1.61a11.15,11.15,0,0,0-1.9,1.23l-1.35,1,.54-2.14c.3-1.18.57-2.17.6-2.2a11,11,0,0,1,1.36.92C334.71,285.67,334.75,285.74,334.24,285.93Z"/><path d="M168.67,384.08a9.65,9.65,0,0,0-2.48-.56,41,41,0,0,1-8.77-2.59,44.1,44.1,0,0,1-7-3.47c-1.54-1-2-1.23-2.17-1.31a7.56,7.56,0,0,0,1.09-3.9c.12-1.86.1-2.71-.25-3.22h1.59a4.53,4.53,0,0,1,1.91.19,21.06,21.06,0,0,1-1.72,1.42c-1,.81-1.16,1-.79,2.15a6.22,6.22,0,0,0,1.33,2,4.37,4.37,0,0,0,3.16,1.37,4.48,4.48,0,0,0,3.38-1.6c.54-.63.71-.74.91-.74a3.11,3.11,0,0,1,1,.3,6,6,0,0,0,2.17.33,10.35,10.35,0,0,0,4.46-.93,5,5,0,0,0,1.58-1.28c.05.53.08,1.36.11,2.48,0,1.93.18,4.48.31,5.71C168.55,381.26,168.63,382.68,168.67,384.08Z"/><path d="M315,332.76c1-3.93,1.26-5,1.22-5.37a8.8,8.8,0,0,0,1.17-2.72c.48-1.42,1.21-3.4,1.59-4.33s1.08-2.8,1.54-4.17l.16-.47c.86-2.53.7-2.73-1.69-4.54l-.47-.36a45,45,0,0,0-7.6-4.67l-1-.52.29-.05a19.71,19.71,0,0,1,3.37-.33,15.35,15.35,0,0,1,4,.58c3.17.82,4.53,1.65,4.74,2.11s.05,2.22-1.35,7.08c-.91,3.14-.9,3.15-.64,3.4l.15.14-.68.42-1.09,3c-.75,2-2.91,8.18-2.91,8.64s.3.67,2.09.75h.23l-1.23.82-.27.17a7.17,7.17,0,0,0-1.91,1.53Z"/><path d="M160.24,386.84a8.13,8.13,0,0,0-2.21-.4l-1-.19c.26,0,.54,0,.85,0a7.48,7.48,0,0,1,2.39.56Z"/><path d="M331,336.52a1.1,1.1,0,0,0-.17-.36.39.39,0,0,1,.26-.11h.19l-.26.46Z"/><path d="M238.8,383.17a97.64,97.64,0,0,0-14.73-7.25,77.38,77.38,0,0,0-12.53-4c-1.09-.17-6.89-1.41-8.53-1.8a15.37,15.37,0,0,1,2.79-3.62c.45-.34,1.72-1.16,2.78-1.79,2.52-1.5,4.26-3.28,4.91-5l.39-1c.24-.07.7-.18,1.34-.31a7.56,7.56,0,0,0,5.8-4.2,6.12,6.12,0,0,0,.6-3.46c0-2.6-.35-3.7-2.53-8.42a36.47,36.47,0,0,1-1.69-4.15c-.38-1.51-.6-2.12-2.16-2.12-.31,0-.69,0-1.17,0-2.9.16-4.81.92-6.39,2.54q-.33.33-.57.54c0-.16,0-.36,0-.59,0-.85-.09-1.4-.39-1.6-.19-1.54-2.62-4.63-4.14-5.52a15,15,0,0,0-3.17-1.17,9.52,9.52,0,0,0-2.25-.39,4.3,4.3,0,0,0-1.06.14,4.45,4.45,0,0,1-.74.12c-.1,0-.14,0-.34-.19a.51.51,0,0,1-.14-.17h0a6.63,6.63,0,0,1,1.55-.66,18,18,0,0,0,3-1.41l1-.65.41.49c1.47,1.74,2,2.27,2.91,2.68a2.35,2.35,0,0,0,1,.29.82.82,0,0,0,.67-.31c.31-.39.25-1,.05-1.88-.28-1.19,0-1.6,0-1.7a.32.32,0,0,1,.29-.12,1,1,0,0,1,.46.12c.21.2.51.33,3,.33l2.4,0c5.6-.12,6.18-.27,8.85-2.25,1.34-1,1.74-1.16,2.41-1.18a2.53,2.53,0,0,0,2.68-2.25c0-1.35-.87-2.36-2.59-3-.29-.11-.51-.2-.68-.28l1.38-.28a7.05,7.05,0,0,1,1.18-.14h.07c-.16.33,0,.78.55,2.74.71,2.36,1.5,3.54,3.05,4.5l.95.59v.06l.27.11.23.14v-.05l1.14.45c.34.14.58.24.78.3a14.43,14.43,0,0,0-2.33,3.91l-1,2.42V336c0,3.27,0,3.37.92,5.23a31.15,31.15,0,0,0,1.94,3.41c.26.37,6.05,7.62,6.87,7.62h0a6.32,6.32,0,0,0,1.67-.54l1.72-.66-.21-1.32c-.21-1.29.27-2.14,3.39-4.33,1.14-.8,1.49-1.65,2.24-4.6a12.06,12.06,0,0,0,.68-3.69l.09.11c.28.35,1,1.29,1.63,2.1a10.49,10.49,0,0,0,4.81,3.61,9.72,9.72,0,0,0,3.76.79,23,23,0,0,0,2.89-.24,22,22,0,0,1,2.65-.22,7.78,7.78,0,0,1,4.38,1.44c1.74,1,4.73,2.23,5.75,2.23h.17a1.08,1.08,0,0,0,.85-.86,2.59,2.59,0,0,0-.6-1.59c-.71-.94-1-1.91-1.09-4.11s-.56-3.32-1.41-4a1,1,0,0,0-.68-.26,1.91,1.91,0,0,0-.7.17c.21-.13.43-.26.63-.4,1.54-1,2.5-3.42,2.65-6.53a17.07,17.07,0,0,0,0-2.72l.17,0a.57.57,0,0,0,.55-.63,6,6,0,0,1,.84-.23,32.06,32.06,0,0,0,5.15-2.24c2.44-1.26,3.67-1.82,4.55-1.82a2.54,2.54,0,0,1,1,.21,2.69,2.69,0,0,0,.92.21.8.8,0,0,0,.78-.45c.23-.5.1-1.36-2.4-4.27-.49-.56-1.09-1.2-1.61-1.68h.16a9.47,9.47,0,0,0,2.25-.36v0a.58.58,0,0,0,.33.59c1.49.84,10.58,2.34,17,3,2.19.22,6.52.45,9.64.51l4.07.08-.1.07a9.55,9.55,0,0,0-2.25,2.08,23.41,23.41,0,0,1-2.41,2.62c-3.58,3.4-5.59,4.68-7.67,4.9-1.26.12-1.73.17-1.73.7,0,.19,0,.24,1.29,2a8.83,8.83,0,0,1,2.28,6c.2,3,.58,3.83,2.9,3.83,1.47,0,1.55.17,1.83.71.43.82.42,3.77-.15,5.43s-.38,1.89-.3,2c.21.33.65.4,1.25.4a22.49,22.49,0,0,0,3.38-.37c-3.12,2.38-6.26,4.64-9.36,6.72-3.31,2.23-6.82,4.43-10.42,6.54-.05-.12-.1-.24-.15-.34a3.59,3.59,0,0,0-1.94-2.19,15.08,15.08,0,0,0-4.08-.74c-.47,0-.7.14-.79.31a5.21,5.21,0,0,0-1.79-1.67l.46-.12a6.24,6.24,0,0,0,4.24-4.14,5,5,0,0,0,.12-3.51c-.28-1-1.78-2.87-2.74-2.87a.85.85,0,0,0-.78.69,1.41,1.41,0,0,0,.42,1.54,3.39,3.39,0,0,1-.34,1.69,6.53,6.53,0,0,1-2.2,2.53,6.06,6.06,0,0,0-1.15,1.17c0-.35,0-.72,0-.9.11-2.17.13-2.39-.72-3.24a4.09,4.09,0,0,0-1.6-1,3.2,3.2,0,0,0-.73-.08,8.86,8.86,0,0,0-4.29,1.37c-.74.48-1.82,1.14-2.43,1.48-1.09.63-1.49,1.1-1.36,1.6.06.25.29.55,1,.55a3.84,3.84,0,0,0,.55,0h.2a20.24,20.24,0,0,1,5.88,1.58l-.74.3a8.52,8.52,0,0,0-2.95,2.11,7.27,7.27,0,0,0-2.33,3.68c-.36,1.08-.8,2.69-1,3.59a10.78,10.78,0,0,1-1.31,3.19c-1.21,2-1.89,3-2.43,3a2.24,2.24,0,0,1-1-.39,25.13,25.13,0,0,0-2.9-1.26,7.58,7.58,0,0,0-2.84-.68c-.29,0-.61,0-1,.06-1.83.17-2.81.59-3,1.29-.08.32,0,.81.75,1.31a14.57,14.57,0,0,0,2.41,1,12.15,12.15,0,0,1,4.61,2.59c-2.62,1-5.19,2-7.66,2.81q-2.26.76-4.55,1.49c-2.19.69-4.45,1.36-6.73,2a3.85,3.85,0,0,0-1.56-.41,3.14,3.14,0,0,0-2.29,1.44c-1,.26-2.09.52-3.13.76Zm36.8-9.84a18.56,18.56,0,0,1,7.37-7.25l2.32-1.31A12.46,12.46,0,0,0,286.4,366a4.18,4.18,0,0,0,2.16,1c-1.19.65-2.32,1.24-3.43,1.8l-1.41.7-2.26,1.11-1.94.92-.42.19C278,372.27,276.81,372.8,275.6,373.33Zm15.66-7.78c-.06-.17-.14-.35-.23-.55a6,6,0,0,0-.65-1.16.88.88,0,0,1-.08-.14,2.31,2.31,0,0,0,.49.05.78.78,0,0,1,.24,0l.08.14.15.2.33,0h.14l.08,0a3.75,3.75,0,0,1,.51.83Zm-13-.39a5,5,0,0,1,.63-2.09,9.39,9.39,0,0,1,3.66-2.82h0a1.26,1.26,0,0,1,1.11.9c0,.24.11.48.17.7a26.18,26.18,0,0,0-4.78,2.77C278.78,364.86,278.5,365,278.3,365.16ZM245.58,334.3a7.72,7.72,0,0,1-3.94-1.68c-.69-.63-.76-.81-.76-1.33a6.83,6.83,0,0,1,2.93-4.63l1.05-.64c0,.07-.11.29-.66.7-1.24.92-1.58,1.39-1.48,2.77a4.72,4.72,0,0,0,2,3.6,5.59,5.59,0,0,1,1.62,1.19l-.2,0-.4,0Zm-192.1-5.13c-1.82-1.9-3.57-3.81-5.21-5.68-.42-.47-.83-.95-1.25-1.43A193,193,0,0,1,27,97.37,195.74,195.74,0,0,1,96.77,26.88,193.78,193.78,0,0,1,316.46,42.6c47.92,37.13,75.4,93,75.4,153.19a193.23,193.23,0,0,1-47.05,126.28l-.69-5.44c0-.28-.86-6.87-1-7.24a.63.63,0,0,0-.61-.46c-.3,0-.61.19-1.2.75s-1.35,1.2-1.93,1.66a2.65,2.65,0,0,0-1.32,2.05,8.28,8.28,0,0,1-1.76,3.85,3.25,3.25,0,0,0-.94,2.47,18.71,18.71,0,0,1-.89,4.75l0,.08-.17-.12a12.74,12.74,0,0,0-1.88-1c-.82-.35-.82-.35-.32-1.72a10.09,10.09,0,0,0,.24-2.53v-1.6l1.24-1.33a17,17,0,0,0,2.17-2.94,3.24,3.24,0,0,1,1.62-1.74c1.33-.69,5.47-4,5.47-5,0-2.58-3.9-23.21-5.73-30.23-1-3.7-1.27-4.49-2.59-5.17a12.35,12.35,0,0,1-2.52-2.38c-7.26-8.45-22-16.84-34.2-19.53-1.51-.33-3.23-.75-3.84-.94s-2.7-.68-4.7-1.1a22.38,22.38,0,0,0-5.26-.7l-1,0-2.47.07-1.81-1.16a63.75,63.75,0,0,0-9.2-4.65l-2.22-.88a4.35,4.35,0,0,0,.7-1.39,1.23,1.23,0,0,0-.1-1.06.68.68,0,0,0-.57-.25,5.79,5.79,0,0,0-2,.7l-1.35.61-2.16-.9a5.07,5.07,0,0,0,.66,0,3.06,3.06,0,0,0,1.75-.44,1.3,1.3,0,0,0,.61-1.49c-.05-.16-.07-.27.3-.59a1.79,1.79,0,0,0,.73-1.63,1,1,0,0,0-.73-.76c-2.44-.72-5.4-3.74-6.49-6.58a14.16,14.16,0,0,1-.46-1.51,2.75,2.75,0,0,0,1.07.14,3.86,3.86,0,0,0,3.63-2.51,5.49,5.49,0,0,0,.29-4.37c-.25-.84-.23-.87.07-1.36,1.49-2.43,3.61-11.24,3.61-15h0a36,36,0,0,0,5.8,7.62c.62.58,2.94,2.47,3.61,2.47a.62.62,0,0,0,.57-.35c.32-.67-.56-1.85-.75-2.08-1.27-1.62-3.07-5.63-4.19-9.32-.27-.9-.83-3.44-1.22-5.55a92.75,92.75,0,0,1-1.41-11.05l-.18-1.91,1.53-1.57a24.41,24.41,0,0,0,4.95-7.12,23.78,23.78,0,0,0,2.3-13.3,26.46,26.46,0,0,0-2.42-9.16,1.31,1.31,0,0,0,.68.28,3.65,3.65,0,0,1,.6.37,2.47,2.47,0,0,0,1.13.59.67.67,0,0,0,.65-.44,1.51,1.51,0,0,0-.57-1.49,8.76,8.76,0,0,1-1.42-1.92,1.51,1.51,0,0,0,.7.27,8.2,8.2,0,0,1,1.26.44,4.92,4.92,0,0,0,1.38.42h.21l.21-.16c.3-.31.25-.66-.86-1.92a7.37,7.37,0,0,1-.87-1.13,13.41,13.41,0,0,0-1.1-2.17,20.7,20.7,0,0,1-1.38-2.94,30.65,30.65,0,0,1-.89-6.43l-.06-1.4,1.88-2.81a56.63,56.63,0,0,0,7.49-16.92,37.49,37.49,0,0,0,.79-11.75c-.35-4.63-.73-6.8-1.63-9.31-1.58-4.38-5.62-11.32-9.61-16.48-.48-.62-1-1.26-1.33-1.76l1,.52a6.49,6.49,0,0,0,3,1c1.08,0,1.56-.22,1.56-.71,0-.24,0-.57-1.67-1.1s-4.88-2.63-7.46-4.8c-2.81-2.36-4.09-4-8.56-10.76-4.61-7-5.44-8.13-8.12-10.84-4.61-4.68-8.74-6.71-15.8-7.77a25.26,25.26,0,0,0-3.82-.34,43.32,43.32,0,0,0-4.67.34c-6.56.69-12.79,3-16.67,6.24l-1,.8-2.45-.26c-1-.1-2.22-.16-3.44-.16a19.19,19.19,0,0,0-4,.3v0a2.68,2.68,0,0,0-.4-1.4c-.79-1.06-4.55-1.09-5-1.09-1.5,0-1.5,0-2.29-.83a11.51,11.51,0,0,0-8.6-3.68c-3,0-6.4.94-10.36,2.88a13,13,0,0,1-5.49,1.74c-7.69,1.06-14.44,4.5-20.63,10.53-7.79,7.59-11.11,13.5-12.72,22.6a56.92,56.92,0,0,0-.79,6.41.45.45,0,0,0-.11-.26.72.72,0,0,0-.5-.2c-.88,0-2,1.58-2.11,1.76-2.2,3.19-4.95,10.94-5.55,15.64-.17,1.36-.34,1.68-2.17,4.38A56.4,56.4,0,0,0,118,116.55a32.5,32.5,0,0,0-1.9,11.49c0,3.77,0,4.08.67,5.27a3.1,3.1,0,0,1,.44,2.38,16.49,16.49,0,0,0,1.1,7.1,11.73,11.73,0,0,0,5,4.33c.85.42.85.42,1.11,2.14a22.39,22.39,0,0,0,.76,2.75,17.09,17.09,0,0,1,.54,1.87,34,34,0,0,1-3,3.39,104.81,104.81,0,0,0-8.71,9.87c-7.59,9.85-11.63,19.29-11.37,26.57.11,3.21.77,4.6,2.69,5.7a4.32,4.32,0,0,0,2,.76c1.3,0,1.31-1.66,1.31-2.65,0-1.35,1.43-6.29,2.62-9.1A32.4,32.4,0,0,1,118,177.81a69.73,69.73,0,0,1,5.91-5.86c-.56.75-1.1,1.51-1.48,2.06-.68,1-2,2.89-2.83,4.13-2.94,4.2-5.81,11.05-7.69,18.33a31.87,31.87,0,0,0-1.1,9.7c.13,1.63.36,3.22,1.63,3.22a2,2,0,0,0,.41,0h0c-.05.38-.15,1-.32,1.83a42,42,0,0,0-.46,11.05,21.6,21.6,0,0,0,3,8.41,17.74,17.74,0,0,0,6.12,5.63c1.53.75,1.89.82,4.18.82.52,0,.94,0,1.31,0a16.28,16.28,0,0,1-4.93.79,13.6,13.6,0,0,1-5.72-1.22,5.64,5.64,0,0,1-2.78-2.54c-.22-.64-.46-.91-.8-.91h-.2l-.17.16a.78.78,0,0,0-.23.59c0,.86,1.12,2.33,2.2,3.34a19,19,0,0,0,7.54,4.23l1.26.42c-.7.27-1.64.65-2.12.86a1.88,1.88,0,0,1-.59.19,5.5,5.5,0,0,1-1.51-.6c-2-1-3.14-2.15-3.14-2.6,0-.24,0-.88-.58-.88a.72.72,0,0,0-.57.4,1.14,1.14,0,0,0-.12.95c.24,1,1.58,2.25,3.57,3.37l.29.17a8.52,8.52,0,0,0-1,.44,22,22,0,0,1-2.64,1.07c-2.41.78-6.44,2.37-12,4.72a34.46,34.46,0,0,1-9.12,2.93c-2.45.5-5.32,1-6.41,1.17a24.39,24.39,0,0,0-6.37,1.5A17.78,17.78,0,0,0,78,257.53,84.41,84.41,0,0,1,69.32,264c-6,3.87-6.7,4.36-7.93,5.91a48.06,48.06,0,0,0-5.12,9.26c-1,2.57-1.19,3.86-1.36,8.63-.08,2.17-.24,4.83-.37,5.93s-.33,3.45-.45,5.16a38.74,38.74,0,0,1-.83,5.64,40.45,40.45,0,0,0-.77,4.4c-.15,1.77.12,7.05.77,14.87A40.32,40.32,0,0,1,53.48,329.17Zm189.36-4.69c-.56-.27-1.25-.6-1.89-.88h.23l.24-.3a.5.5,0,0,0,0-.3A14.29,14.29,0,0,0,242.84,324.48Zm-4.9-.89a.75.75,0,0,0-.14-.17,3.48,3.48,0,0,0,.58-.23,1.2,1.2,0,0,0-.23.37h0Zm42.4-10.06c-1.66-1.2-3.4-1.52-7.85-1.52h-3.61l-1.27-1.09a8,8,0,0,0-4.25-1.41h-.05a5.9,5.9,0,0,0-3.25,1.05,15.86,15.86,0,0,0,.82-1.4c1.11-2.19,1.39-2.38,2.6-2.6s3.23-1,3.71-1.72a.77.77,0,0,0,.14-.59c-.21-1.08-2.27-2-4-2.52a16.72,16.72,0,0,0-5.54-.76l-1.95,0a13,13,0,0,0-4,.56,20.89,20.89,0,0,0-11.17,7.06,10,10,0,0,0-2.45,4.08,1.1,1.1,0,0,0-.27,0,7.17,7.17,0,0,0-1.58.34,13.85,13.85,0,0,1-3.54.45A9.81,9.81,0,0,1,230,313a4.68,4.68,0,0,1-2.74-2l-1.15-1.53v0a14.06,14.06,0,0,1,0-3.74,1.7,1.7,0,0,0-.54-2.09,12.83,12.83,0,0,0-4.35-2.77,3.15,3.15,0,0,1-.57-.24,24.39,24.39,0,0,1,2.37-1.35c3.67-1.88,5.08-3.09,5.59-4.79a13.43,13.43,0,0,0-.73-8.42l-.32-.58.35-.39a11.45,11.45,0,0,0,2-3.15,22.26,22.26,0,0,1,2-2.12c1.17-1.15,2.67-2.71,3.33-3.48l1-1.22,2.77-.2c1.2-.08,4.31-.14,7.75-.14l3.07,0,4.87,0a25.08,25.08,0,0,0,3.14-.12,3.52,3.52,0,0,0-.75,1,14.55,14.55,0,0,0-.85,2.86,13.51,13.51,0,0,1-.64,2.34,2,2,0,0,0-.15.5,4.34,4.34,0,0,0-4.33-2.87,5.07,5.07,0,0,0-.55,0c-1.94.16-2.77,1.11-3.09,3.51-.17,1.29,0,1.53,1,2.6a6,6,0,0,0,3.81,1.77,2.22,2.22,0,0,0,.63-.09,6.56,6.56,0,0,1-1.28,2.47,4.73,4.73,0,0,1-1.8,1.18,4.29,4.29,0,0,0,0-1,9.13,9.13,0,0,0-4.76-6.65,4.76,4.76,0,0,0-2.12-.45,9.35,9.35,0,0,0-2.89.53c-1.27.42-1.52.65-2.23,2.06a6,6,0,0,0,.56,6.62c1.35,1.88,3.17,2.61,6.47,2.61h.24a.61.61,0,0,0-.16.43c0,.71-1.59,2.5-4.18,3.8a13.14,13.14,0,0,1-6,1.47,17,17,0,0,1-5.59-1,10,10,0,0,0-2.65-.71,1.36,1.36,0,0,0-.77.23c-.26.17-1.07.63-1.75,1-1,.56-1.33.73-1.34,1.17s.33.56.62.72a40.81,40.81,0,0,0,6.09,2,25.43,25.43,0,0,0,3.5.18h1a14.75,14.75,0,0,0,6.12-1c4.38-1.49,6.28-2.88,8.11-6,1.16-2,1.45-2.46,1.2-2.91.2-.06.4-.12.61-.2,1.06-.38,1.91-.67,2-.7.7-.16,2.78-2.39,3.14-3.08a8.61,8.61,0,0,0,1-4.11h.06a.61.61,0,0,0,.3-.08,6.75,6.75,0,0,0,1.22-1.56,9.9,9.9,0,0,0,1.55-4,10.76,10.76,0,0,1,1.12-3.41,4.63,4.63,0,0,0,1.21,4.39,2.3,2.3,0,0,0,1.56.49,3.55,3.55,0,0,0,2.39-.85,3.24,3.24,0,0,0,.66-.86,1.9,1.9,0,0,0,.4,0l-.27.25h2.28a3.5,3.5,0,0,0,3.37-1.91,2.46,2.46,0,0,0,.18-1.41h.18a1.43,1.43,0,0,0,.53-.11.77.77,0,0,1,.32-.07,10.34,10.34,0,0,1,2.54.92c1.52.65,1.57.65,1.67.65h0c.13,0,.25,0,1.43-.62,1.47-.74,1.88-1.19,2.78-3a10.19,10.19,0,0,1,1.2-1.89l1.63-1.78-2.41.44c-1.47.26-2.06.59-2.45,1.9a3.31,3.31,0,0,1-2.06,2.18h-.21a5.69,5.69,0,0,1-2.07-.69,7.93,7.93,0,0,0-3.12-.88,2,2,0,0,0-1.09.27.75.75,0,0,0-.35.44c-.93-.68-2.14-.95-4.43-1.06-.43,0-1.06-.06-1.46-.11a14.69,14.69,0,0,1,3.76-1.66,4.8,4.8,0,0,0,1.91-.68c.89-.53,1.15-.6,4.93-.86a6.34,6.34,0,0,0,1.15-.15,4.32,4.32,0,0,0-.3,1.34,1.74,1.74,0,0,0,.36,1.28,1,1,0,0,0,.71.28,5.52,5.52,0,0,0,2.17-.77,17,17,0,0,1,6.08-1.93c2-.27,2.31-.31,2.52-1.42a26,26,0,0,1,1.51-3.47c1.54-3.11,2.85-4.66,4.68-5.52a4.13,4.13,0,0,1,1.73-.49,3.15,3.15,0,0,1,1.23.29c.53.22,2.79.87,4.65,1.36a18.1,18.1,0,0,0,4.62.9c.32,0,.64,0,1-.05a10.17,10.17,0,0,1,1-.06c1.23,0,1.63.36,3,2.72a18.89,18.89,0,0,0,3.4,4.34c1.34,1.3,5.23,4.73,6.09,4.73h.21l.19-.16a.85.85,0,0,0,.22-.63c0-1.46-2.78-6.23-4.8-8.23-2.93-2.91-10.71-7.58-15.71-9.43a56.16,56.16,0,0,1-5.26-2.25c2.49.59,6.22,1.66,8.26,2.38a69,69,0,0,1,11.25,5.55c4,2.42,12.11,9.13,14.2,11.77.81,1,2.94,2.74,3.83,2.74a4.32,4.32,0,0,1,.93,1.29l-.73-.44c-1.48-.95-5.48-3.28-6.16-3.28a.64.64,0,0,0-.61.4c-.34.84,1.27,2.78,2.06,3.54,1.32,1.27,2.72,3.92,2.72,5.15,0,.79-.24,1.32-1.46,1.66a2.35,2.35,0,0,1-.57.09c-.4,0-.72-.22-1.32-1.4a3,3,0,0,0-2.61-2,3.74,3.74,0,0,0-.65.06c-1,.19-1.28.53-1.71,1.51a2.66,2.66,0,0,1-.77,1.08c-.94.49-1.9,1.37-1.9,2.25s.53,2.26,1.35,2.26a2.61,2.61,0,0,1,1.31,1.47c.38,1.14,0,1.54-.49,1.78-1,.52-1.37,1.46-1.66,3l-.24,1.31-.11,0a32.72,32.72,0,0,1-7.07.54h-2.85l-2.05,0c-5.22,0-6.58.3-10.13,1.58a9.91,9.91,0,0,1-4,.8,10.3,10.3,0,0,1-2.69-.32,4.33,4.33,0,0,0-1.33-.29.93.93,0,0,0-.92.5c-.25.55.09,1.31,1.14,2.53a18.15,18.15,0,0,0,9.05,5.57,71.41,71.41,0,0,0-8.43,2.31,45.64,45.64,0,0,0-7.76,3.75,21.89,21.89,0,0,1-1.92,1.2A5,5,0,0,0,280.34,313.53Zm-14.95-.35c.45-.17.88-.32,1.28-.44l.13,0Zm38.83-.87c-.73-.06-1.5-.11-2.28-.13C302.74,312.19,303.51,312.23,304.22,312.31ZM325,306.57c-.06-.15,0-.92.91-3.5.49-1.43,1.05-3,1.51-4.38l1.23-.63a4.83,4.83,0,0,0,2.72-4.7c0-.6.08-.74.09-.75s.24.38.36,2a12.42,12.42,0,0,0,.65,3.18l.73,1.68,1.42-1.25a8.34,8.34,0,0,0,1.63-2.16l.16-.32.33-.64h0a.78.78,0,0,1,.43.75,14.78,14.78,0,0,1-1.71,1.64,18,18,0,0,0-2.69,2.91,28.42,28.42,0,0,1-3.52,4.18,14,14,0,0,1-4,2Zm-79.62-15.76a6.15,6.15,0,0,1-3.78-1,3.86,3.86,0,0,1-1.34-2.92,3.72,3.72,0,0,1,.65-1.21c.39-.45.5-.53,1.28-.53a2.72,2.72,0,0,1,2.57,1.37,9,9,0,0,1,1.26,3.76,1.14,1.14,0,0,0-.06.47Zm7.11-7.12a5.71,5.71,0,0,1-2.15-.94.44.44,0,0,1,0-.42,1,1,0,0,1,.8-.29,2,2,0,0,1,1.39.56,2,2,0,0,1,.52,1,.47.47,0,0,0-.19,0h-.14Zm11-5.8c-.17,0-.35-.16-.5-.43s-.23-.42.14-1.12a2.93,2.93,0,0,0,.36-.85c.44.19.51.31.61.84a1.69,1.69,0,0,1-.24,1.35A.55.55,0,0,1,263.53,277.89Zm5.36-12.48c-.08,0-.54-.45-.82-.69-1.87-1.65-3.54-4.48-4.82-8.18a26.58,26.58,0,0,0-3.36-7.33l-.92-1.46.87-.5a17.25,17.25,0,0,0,3-2.35.66.66,0,0,0,0,.14c0,1.18,3.85,1.84,4.83,1.9,1.64.1,1.71.18,2,.57,1.56,1.86,5,3.58,9.25,4.6a7,7,0,0,1,2.3.8,7,7,0,0,1,.2,2.22c0,1.33,0,2.15.41,2.46l-.09.08a36.06,36.06,0,0,1-3.33,1.83,81.74,81.74,0,0,0-9.36,5.8ZM129.73,238.64A21.23,21.23,0,0,0,132.8,237c-.23.18-.45.33-.66.47A13.2,13.2,0,0,1,129.73,238.64Zm.56-3.25c0-.54-.57-.54-.82-.54s-.79,0-1.33.07a8.77,8.77,0,0,1-.88,0,10.4,10.4,0,0,1-4.82-1.23,15.08,15.08,0,0,1-1.72-1,22.4,22.4,0,0,0,5.42.86q.39,0,.72,0a15.24,15.24,0,0,0,9-4.6c2.63-2.59,3.19-3.64,4.67-8.65.05-.18.11-.36.16-.55a28.12,28.12,0,0,1-.33,3.51,31.11,31.11,0,0,1-1.08,4.24.69.69,0,0,0-.15-.35l-.15-.18-.3,0c-.35,0-.71.16-1.84,2.14a14.22,14.22,0,0,1-4.5,5.07,19.42,19.42,0,0,1-2.08,1.35Zm-7.74-123.67a42.36,42.36,0,0,1,8.57-12.3l3.26-3.33,0,1.91-.13.2a.57.57,0,0,0,0-.12v-.22l-.17-.18-.15-.15h-.23c-.91,0-5.11,5-6,6.25A63.14,63.14,0,0,0,122.55,111.72Zm10.31-11.94c.17-.18.34-.33.51-.48s.27-.24.37-.35a2.89,2.89,0,0,1-.62.68.41.41,0,0,1,.14,0A.8.8,0,0,0,132.86,99.78Z"/><path d="M328.88,331.93a13.35,13.35,0,0,1-1.86-.23c-1.63-.27-2-.39-2.27-.63.24-.2.75-.53,1.08-.75a21.57,21.57,0,0,0,2.77-2.17l.84-.82,1.55.6a8.78,8.78,0,0,1,1.47.71,11.93,11.93,0,0,1-1.92,2.33c-.73.76-1,1-1.66,1Z"/><path d="M252.6,332.9a6.2,6.2,0,0,1-1.25-.44,3.14,3.14,0,0,0-1.19-.39,1,1,0,0,0-.41.09,1,1,0,0,0,.12-.92.9.9,0,0,0-.9-.49,1.22,1.22,0,0,1-.93-1.05,2,2,0,0,0-.65-1.38,2.65,2.65,0,0,1-.7-1.45,1.1,1.1,0,0,1,.36.18c.13,1,2.43,1.84,3.54,1.84s1.71.41,1.71.69.11.72.91,1l-1.69.5.88,1.23c.24.35.25.59.22.64Z"/><path d="M115.5,356.56a34.29,34.29,0,0,1-4.46-2.15c-2.47-1.48-2.92-1.54-.68-.09a29.38,29.38,0,0,0,6.29,3.09,11.9,11.9,0,0,0,1.95.55C119.05,358,118.69,357.81,115.5,356.56Z"/><path d="M107.05,292.11a30.11,30.11,0,0,0-.21,3.21c-.07,1.7,0,2.89.07,2.62A32.76,32.76,0,0,0,107.05,292.11Z"/><path d="M163.22,368c-.57.26-.91.48-.74.48.45,0,2.06-.7,1.92-.84A2.86,2.86,0,0,0,163.22,368Z"/><path d="M108,274.47c-.33-1-.49-1.23-.83-1.13-.77.25-3.09-2.87-3.11-4.17,0-.29-.45-.37-2.27-.42a14,14,0,0,1-3.22-.39c-1.15-.39-1.24-.3-.22.23a8.82,8.82,0,0,0,2.57.51,11.07,11.07,0,0,1,2.18.32,3.42,3.42,0,0,1,.81,1.44c.61,1.69,3,4.16,3,3.09a.22.22,0,0,1,.2-.24,5.34,5.34,0,0,1,.86,1.83,16.54,16.54,0,0,0,1,2.42c.62,1,.6.18,0-1.07A22.68,22.68,0,0,1,108,274.47Z"/><path d="M282.64,355.22c0,.38.07.42.29.2.4-.4-.4-1.43-1.58-2s-3-.79-3.64-.41c-.36.23-.27.25.51.13C280.08,352.84,282.64,354.06,282.64,355.22Z"/><path d="M239.91,272.6c-1.31,0-3,0-3.67-.08a85.44,85.44,0,0,0,1-12.89c0-.61,0-1.71,0-2.41l0-.58.32.16a8.5,8.5,0,0,1,1,.55,1.59,1.59,0,0,0,.88.31l2.13.31a12.88,12.88,0,0,0,2,.15A16.6,16.6,0,0,0,254.55,254c.57-.54,2.75-3.33,2.44-4.12l-.13-.31-.4,0a20.37,20.37,0,0,0-4.33,2.16,12.88,12.88,0,0,1-3.6,2.06l-1,.33-1.34-.66c-3.69-1.82-6.58-6.31-8.35-13a19.81,19.81,0,0,1-.69-5c2.09,6.05,5.58,10.17,10.64,12.54a11.65,11.65,0,0,0,5.19,1.24,14.74,14.74,0,0,0,1.82-.12c.72-.09,1.3-.15,1.61-.17l.77,1.17a18.1,18.1,0,0,1,2.49,5.92A32.26,32.26,0,0,0,266,268.16l.49.54-1.47.69c-5.22,2.46-10.29,3.18-22.59,3.2Z"/><path d="M163.61,365.64c-2.19,1.32-5.57,3-5.74,2.82A38.36,38.36,0,0,1,162,366a23.61,23.61,0,0,0,3.92-2.46c-.25-.08-1.86.79-6.64,3.6-1.21.72-1.91,1.27-1.81,1.43s0,.21-.23.11-.4-.1-.4,0,.24.22.54.33c1.23.5,4.71.13,4.71-.5,0-.13-.2-.11-.47,0a8.36,8.36,0,0,1-2.09.4l-1.61.13,2.86-1.45c3.16-1.6,5.67-3.12,5.17-3.13A12,12,0,0,0,163.61,365.64Z"/><path d="M225.55,387.88c-2.79-.12-6.37-.21-11.91-.3-7.51-.11-11.65-.21-14.35-.38h.93c1.94,0,4.33,0,7.08.05l11.94.15.1-.65.32.12a12.77,12.77,0,0,0,4.44.87l1.62.11Zm-54.36-10.33c-.23,0-.28-.05-.3-.07-.31-.31-.3-1.9-.28-4.52v-.21c0-2.49.1-6.1.19-8,.1-2.16,0-6.31-.23-10.84a139.13,139.13,0,0,1-.22-15.45c1.48,1.71,5.56,4.08,7.17,4.08a2.71,2.71,0,0,0,2.32-1.53,6.68,6.68,0,0,1,.8.2,8.88,8.88,0,0,0,2.55.37,7.93,7.93,0,0,0,1.64-.16,2.48,2.48,0,0,0,1.64-1.25c.37-.58.56-.74,1.72-1.07a13.62,13.62,0,0,0,6.2-3.39,7,7,0,0,1,2-1.54,3.44,3.44,0,0,1,1.08-.16,6,6,0,0,1,5.06,3.26,7.61,7.61,0,0,1,.52,1.25.89.89,0,0,1-.18-.14,5.33,5.33,0,0,0-3.64-1.42,8.19,8.19,0,0,0-4.46,1.54,13.61,13.61,0,0,0-5.24,8.5,13.29,13.29,0,0,0,1.15,6.16c.81,1.7,1.93,3.14,4.6,5.92,2.37,2.46,2.53,2.92,2.53,6.94a26.72,26.72,0,0,1-.15,3.14h-.24a26.89,26.89,0,0,1-4-.63,45.8,45.8,0,0,0-6.55-.3,84.9,84.9,0,0,0-9.14.39c-5.85.85-6.64,1.76-6.64,2.54,0,.54,0,.69,6.72,2.3,1.94.46,4.47,1.12,5.64,1.46a14.94,14.94,0,0,0,2.3.53l1.19.25h-.4a1.2,1.2,0,0,0-.71.12,1.08,1.08,0,0,0-.48-.07c-.54,0-1.7.07-3,.18a99.32,99.32,0,0,0-10,1.49A8.47,8.47,0,0,1,171.19,377.55Zm14.94-34.38c-.53.56.35,13.62.45,15.1l.17,2.51,1,0,.07-2.27c.05-1.27-.1-5.1-.31-8.52-.1-1.47-.41-6.3-.51-6.58l-.11-.34-.39,0h-.21Z"/><path d="M105.43,294.12a46,46,0,0,1-.79,5.14c-.15.58-.15.58.22-.06a15.66,15.66,0,0,0,.8-5.55l0-1.44Z"/><path d="M253.7,221.06l-.25.78a3.53,3.53,0,0,0,.16,2.26,25.93,25.93,0,0,0,2.81,5.93,4.28,4.28,0,0,0,.6.7,16.25,16.25,0,0,0-.89-1.92,26.89,26.89,0,0,1-2.41-6.95Z"/><path d="M81.67,261a8.34,8.34,0,0,1-2.07-.23h0l.82-.83a16.52,16.52,0,0,1,2.08-1.83,29,29,0,0,1,4.28-1.35c2-.51,4.7-1.25,6-1.66a8.64,8.64,0,0,1,2.6-.58,15.89,15.89,0,0,1,1.61.14c2.2.28,2.48.64,2.48.92a1.33,1.33,0,0,1-1.06.67,12.62,12.62,0,0,0-4.57,1.55,7,7,0,0,0-1.06,1.6c-.41.81-.41.81-1.37.87l-.54,0c-.47,0-.55,0-1.38-.89s-1.36-1.24-2.28-1.24-1.4.33-2.44,1.36a8.27,8.27,0,0,1-1.62,1.32A4.81,4.81,0,0,1,81.67,261Z"/><path d="M121.64,287.22c-.29-.07.65.45,2.09,1.16,3,1.47,2.82,1.4,2.63,1.1A26.11,26.11,0,0,0,121.64,287.22Z"/><path d="M156.42,185.42c.22-.43.34-.78.27-.78a4.53,4.53,0,0,0-.84,1.58C155.85,186.47,156,186.29,156.42,185.42Z"/><path d="M123.41,127.57c0,.33,0,.47.12.3a.88.88,0,0,0,0-.6C123.46,127.11,123.41,127.24,123.41,127.57Z"/><polygon points="135.15 136.02 135.15 136.02 135.15 136.02 135.15 136.02"/><polygon points="164.93 250.39 164.93 250.39 164.93 250.39 164.93 250.39"/><path d="M191.64,222.31l1.58-.29-3.35-.15c-1.84-.08-3.88-.22-4.53-.31l-1.2-.15,1.44.59A10.54,10.54,0,0,0,191.64,222.31Z"/><path d="M122.47,131.87c0,.46,0,.65.11.42a2,2,0,0,0,0-.84C122.52,131.22,122.47,131.41,122.47,131.87Z"/><path d="M179,206.77a2.48,2.48,0,0,0-.37-.17.76.76,0,0,0,.43-.26C179.07,206.5,179,206.65,179,206.77Zm-12.78-4.59-.55-.37.31-1.44.18-.74a.76.76,0,0,0,0,.15A6.64,6.64,0,0,0,166.25,202.18Zm-1.3-.93a18,18,0,0,1-1.41-1.26,26.72,26.72,0,0,1-5.19-6.68,28.55,28.55,0,0,1,5.35,1c.56.26.6.28.12,1.7-.61,1.79-.37,3.71.58,4.66Z"/><path d="M180.88,301.63c-.53-.67-3-3.57-3.29-3.92a28.93,28.93,0,0,1-4.15-5.75c-.6-1.2-2.49-4.63-4.21-7.66C163,273.35,157.32,262.39,155.05,257a41,41,0,0,1-2.52-7.57c0-.67-.28-1.1-.71-1.1h-.26l-.2.24c-.45.63.48,3.68,1.07,5.44,2.29,6.77,9,20.2,17.63,35.35l-2.26-1.76c-7.68-6-13.81-10.58-15.63-11.71-2.92-1.81-3.43-2.28-5-4.65-2-3.1-5.43-8.66-5.85-9.57a10.58,10.58,0,0,1,.52-1c1.28-2.18,2.44-6.06,3.26-10.93,1.39-8.16,1.78-23.91.76-30.08-.13-.79-.24-1.37-.36-1.85.36.66.75,1.39,1.1,2.06.81,1.58,1.59,3.08,1.78,3.42a12.88,12.88,0,0,1,.66,1.42c.29.75.77,1.21,1.27,1.21.35,0,.77-.25.81-.94a4,4,0,0,1,.07-.57,7.59,7.59,0,0,0,.16-3.51c-.22-1.2-.84-6.45-1.34-11.23-.12-1.08-.21-1.94-1.11-1.94s-1,.85-1,1.75c0,.37,0,.86-.08,1.32l-.22-.6c-.5-1.37-1.6-4-2.46-5.94s-1.44-3.34-1.49-3.53a19.34,19.34,0,0,0-.84-2.46c-1.46-3.77-2.23-7.65-2.74-13.84-.4-4.73.15-11.32,1.18-14.39.43-1.27.43-1.27,1.78-2a3.78,3.78,0,0,1,2-.65c.24,0,.52,0,.87,0a11.9,11.9,0,0,1,3.27.8,19.78,19.78,0,0,0,5.54,1.41,1.09,1.09,0,0,0,.79-.24.7.7,0,0,0,.24-.67c-.08-.38-.47-.52-.62-.58a48.92,48.92,0,0,1-5.89-2.93,18.57,18.57,0,0,1-3.33-3,23.46,23.46,0,0,0,8.81,5.44,24,24,0,0,0,8.73,1.41h0a11.69,11.69,0,0,0,4.91-.71,31.32,31.32,0,0,0,11.45-7.91c4.22-4.91,6.93-11.18,7.23-16.78a9.42,9.42,0,0,1,.28-2.34c.43-.32.71-1.16.8-3.94l0-1.13h.26a20.74,20.74,0,0,0,3-.48,17.8,17.8,0,0,1,3.94-.47,14.2,14.2,0,0,1,7.51,2.21,15,15,0,0,1,2.56,1.81c.29.39.29.39-.26,2.09-.75,2.3-.93,2.85-.07,3.13l.06,0c-1,2.7-1,10.2-.17,13.53.19.72.43,1.5.72,2.32-.74-1.85-1-1.89-1.17-1.93h-.32l-.17.16c-.29.3-.41.42-.2,11.4.05,2.43,0,2.93-.45,4.07-.57,1.45-.49,1.77-.34,2l.15.22.3,0c.33,0,.55-.25.84-.69a13.87,13.87,0,0,0,1.13-4c.12.14.24.3.35.44A10.39,10.39,0,0,1,208.4,178c.36,2.65.13,3.3-.94,4.47-.84.91-.9,1-3.49,1.66-2.93.76-4,1.33-4,2.18a.67.67,0,0,0,.17.47.73.73,0,0,0,.54.2,20.28,20.28,0,0,0,3.28-.72c3.33-.83,4.06-1.14,4.91-2.07,1.39-1.54,1.68-2.95,1.29-6.3a2.6,2.6,0,0,1,0-1.16c.08,0,.31.09.82.31a4.11,4.11,0,0,0,1.68.37,1.94,1.94,0,0,0,1.69-.7c.41-.66,0-1.32-.77-2.35s-1.69-2.4-2.53-3.63a25.77,25.77,0,0,0,7.24,5.91,22,22,0,0,0,7.45,1.74c1,.07,1.61.12,2.18.12a24.63,24.63,0,0,0,14.69-6,27.15,27.15,0,0,0,5.56-6.31A33,33,0,0,0,252,157.9a.57.57,0,0,0,0-.14.38.38,0,0,0,.09.13.67.67,0,0,0,.52.25c.47,0,1-.41,2.14-1.62l1.34-1.37a.86.86,0,0,0,.13.23,1,1,0,0,0,.81.35,3.19,3.19,0,0,0,.61-.08c.52-.11.91-.42,1.6-1.35-.23.84.15,1.24,1.07,1.86l.11.07a2.16,2.16,0,0,0,1.13.53,1.31,1.31,0,0,0,.84-.4,3.84,3.84,0,0,1,.67-.44.66.66,0,0,0,.41-.39c.13-.35,0-.78-.38-1.39,0-.06-.07-.12-.1-.19.94,1,2.68,3.77,2.62,4.4a1.19,1.19,0,0,1-.34-.35c-.39-.6-.7-.95-1.11-.95a.64.64,0,0,0-.46.19c-.28.28-.37.8-.36,2.09a5.31,5.31,0,0,1-1,3.56.63.63,0,0,1-.43.23.72.72,0,0,1-.43-.2,1.13,1.13,0,0,0-.72-.39.59.59,0,0,0-.25.05l.06-.14c.9-1.89,1.12-2.49,1-3.58a3.31,3.31,0,0,0-3.35-3.08l-.69,0a3.45,3.45,0,0,0-2,.61c-1.16.68-4.22,3.7-4.22,4.68a10,10,0,0,0,.89,2.34,9.19,9.19,0,0,0,.73,1.27h-.34l-.16.24c-.13.21-.25.4.67,2.22,1.64,3.27,3.32,9.53,4.08,15.21a72,72,0,0,1,0,14.9c-.21,1.26-.5,3.25-.64,4.43-.78,6.44-2.76,14.83-4.27,18.18a1.19,1.19,0,0,0-.29-.73.76.76,0,0,0-.55-.23,1.16,1.16,0,0,0-.55.17,1.14,1.14,0,0,0-.19-1.18.75.75,0,0,0-.54-.23c-.38,0-.68.26-1,.66a18.67,18.67,0,0,1-5,3.9l-1.12.57v-.89c0-1.54,0-1.54,1.06-3,.48-.65.95-1.31,1.39-2a.42.42,0,0,0,.13.5l.15.15h.19c-.49.57-.67,1-.34,1.28l.14.14H246a.25.25,0,0,0,.12,0,.56.56,0,0,0,0,.51l.14.29h.35c.15,0,.45,0,1.65-1.41h.22c.24,0,.42-.11,1-.79,1.93-2.11,4.09-6.52,5.13-10.48a42.49,42.49,0,0,0,1.61-12.66c0-8.51-.55-8.51-1-8.51s-.83,0-1,5.39c-.19,6-.6,8.76-1.8,12.41a40.79,40.79,0,0,1-4.75,9.72,51.53,51.53,0,0,0,5.59-14.85c.59-2.86.63-3.46.65-10.72,0-6.63,0-8-.41-9.55-.78-3.32-2.39-5.65-4.3-6.22a1.55,1.55,0,0,0-.37-.06h-.33l-.19.33c-.17.4.11.68.79,1.36,2.34,2.34,2.88,4.31,2.87,10.56a28.64,28.64,0,0,1-.53,7.12c-1.08,5-2.34,8.37-6.12,16.23-2.77,5.76-2.77,5.88-2.77,6a.68.68,0,0,0,.72.63c1,0,6.88-13,6.94-13.12.64-1.55,1.38-3.63,1.94-5.4a41.21,41.21,0,0,1-4.24,13.84,46.17,46.17,0,0,1-5.86,8.21c-.92,1-1.41,1.67-1.42,2,0,.13-.06.44-.11.68a13.11,13.11,0,0,0,.67,7.49c1.24,3.31,5.47,8.38,8.87,10.62a18.55,18.55,0,0,0,4.42,2.14,18.27,18.27,0,0,1-4-1.14,4.7,4.7,0,0,0-1.34-.42h-.2l-.21.15-.19.19v.06h-.21l-.18.28a.68.68,0,0,0,.1.71.83.83,0,0,0,.15.19h0a1.63,1.63,0,0,0-.89-.46h-.21l-.19.16-.2.2,0,.26-.31-.14-.16,0h-.32l-.16.3a.66.66,0,0,0,.11.66,7.58,7.58,0,0,1-2.17-2.05c-.25-.41-.46-.7-.81-.7,0,0-.56,0-.56.67,0,1,2.17,3,3.66,3.87a16.18,16.18,0,0,0,7.58,2.31,4.28,4.28,0,0,0,2.18-.47l.6-.36-.36-.92-1.2.23a.49.49,0,0,0,.12-.4,2.85,2.85,0,0,0,1.57-.33.68.68,0,0,0,.26-.28h.38a5.22,5.22,0,0,0,.58,0c.47,0,1-.09,1.16-.09.5,0,1.91-.88,1.91-1.51a.73.73,0,0,0,0-.27,13.79,13.79,0,0,0,1.43-.25l.31-.07a20,20,0,0,1-2.39,2,14.35,14.35,0,0,1-7.86,3.07c-.24,0-.47,0-.7,0-6.46-.65-12.25-6.62-14.08-14.5a10.17,10.17,0,0,1-.09-4.17c.16-1.6.33-2.83.38-3a.72.72,0,0,0,0-.68l-.15-.2h-.27c-.17,0-.63,0-2,2.77s-1.66,6.24-1,10.75c1.25,8.29,4.76,14.68,9.64,17.52l.19.11a11.41,11.41,0,0,1-1.16.06c-3.95,0-7.61-2-10.39-5.53a.44.44,0,0,0,.29.1h.22l.16-.16a.39.39,0,0,0,.13-.46c.12.16.25.32.37.46s1,1.18,1.58,1.18h.31l.18-.3c.16-.33-.05-.65-.29-.95s-.64-.8-1-1.26a22,22,0,0,1-3.12-7,.56.56,0,0,0,.3.08h.22l.17-.18c.13-.15.22-.24.11-1.37v0c.41,1,.63,1.3,1,1.3h.23l.18-.19c.17-.2.19-.48.07-1.14-.61-3.35-.63-3.63-.39-5.85.67-6.12,2.54-10.25,6.9-15.24,2.12-2.42,2.09-2.49,1.94-2.82l-.14-.3h-.33c-.24,0-.32,0-1.78,1.5a34.49,34.49,0,0,0-5.76,8,22.2,22.2,0,0,0-.94,2.28s-.16-.24-.16-.24l-.3,0a.78.78,0,0,0-.39.13c-.83.51-1.52,4.28-1.71,5.92a25.52,25.52,0,0,0-.1,3.78,29,29,0,0,1-.06-2.94c.09-2.13-.06-2.28-.19-2.42l-.15-.15h-.5l-.17.25a4.49,4.49,0,0,0-.25,1.61.57.57,0,0,0-.31-.07.51.51,0,0,0-.22.05,60,60,0,0,1,3.69-8.64,36,36,0,0,1,4.92-6.72c1.89-2.22,1.79-2.43,1.67-2.7l-.13-.29h-.34a6.71,6.71,0,0,0-1.91.91c-4.55,2.77-9.07,10.64-11.79,20.56a44.6,44.6,0,0,0-1.75,11.12v0a47.11,47.11,0,0,1-.15-12.67,58.18,58.18,0,0,1,3.1-11.06,13.35,13.35,0,0,1,2.59-3.06,38.21,38.21,0,0,0,6.12-7,61.35,61.35,0,0,0,6.3-14.88s0,0,0,.06a1,1,0,0,0,.76.45c.37,0,.72-.25,1.55-.85a8.82,8.82,0,0,0,3.58-8.31,14.76,14.76,0,0,1-.26-1.59,30.09,30.09,0,0,1,1.59-2.68l1.76-2.72-.12-2.69c-.12-2.78-.63-5.15-1.32-6.21-.13-.19-.4-.6-.82-.6a.65.65,0,0,0-.29.06,42,42,0,0,1,1.32-4.87c.52-1.37.37-1.58.27-1.74l-.15-.21-.29,0c-.38,0-.59.35-.92,1.13a73.15,73.15,0,0,0-3.64,16.25,9.19,9.19,0,0,1-1.16,4.59c-.58,1.25-2.13,5.38-3.45,9.2-3.24,9.37-4.42,11.57-4.84,12a18.47,18.47,0,0,0-1.3,1.89,48,48,0,0,1-4.57,5.85c-.92,1-9.13,8.57-12.92,11.94-1,.87-3,2.9-4.56,4.52-.68.72-1.27,1.33-1.73,1.79a15,15,0,0,0,.35-2.84c0-1.08.06-1.17.59-1.67s2-2.25,3.68-4.21c3.8-4.56,6.43-7.41,13.38-14.53a92.43,92.43,0,0,0,6.78-7.45c.24-.35,2.27-3.53,1.25-4.54a.69.69,0,0,0-.51-.25c-.62,0-.62.74-.62,1.05,0,1.61-1.05,2.91-7.49,9.28-7.06,7-10.68,10.79-13.37,14-.22.27-5.44,6.53-5.18,7.44l.08.25.12.05a14.16,14.16,0,0,1-1.34,5.5A10.56,10.56,0,0,1,205.1,241h0c-.78,0-1.48,1.59-1.48,2.34a.41.41,0,0,1-.15.21l.36-1.84c.65-3.35.53-3.49.36-3.69l-.15-.19h-.24c-.43,0-.57,0-1.43,3.54-.77,3.16-.89,3.46-1.19,3.59l.42-2.13c.57-2.8.75-4.08.63-4.7l-.07-.41h-.42c-.46,0-.53.17-1,2.3-.39,1.87-.52,2.09-1.34,2.94a14.25,14.25,0,0,1-1.89,1.6,40,40,0,0,0-3.69,3.13l-2,1.84a4.91,4.91,0,0,0-.94-1.92c-.39-.47-.76-.86-1.31-.86a1.44,1.44,0,0,0-.44.07c-.92.3-.87.85-.71,1.73a6.91,6.91,0,0,1,.07,2.33.83.83,0,0,0-.38-.26.84.84,0,0,0-.35-.07l-.21,0a1.07,1.07,0,0,0-.4-.58l-.13-.08-.2,0c-.11,0-.68.05-.68,1a4.38,4.38,0,0,1-.94,2.33,2,2,0,0,1-.58.16c0-.36,0-1.24,0-2.09.1-2.43,0-2.75-.24-3l-.15-.16-.26,0a.69.69,0,0,0-.25,0,4.26,4.26,0,0,0-.29-2.21.63.63,0,0,0-.48-.23h-.12l-.16.06c-.53.27-.46,1.11-.44,1.27a47.28,47.28,0,0,1-.58,6,1.72,1.72,0,0,1-.09.37s0,0-.05,0h-.44c.64-2.15.91-8.36.22-9.6l-.67-1.19-1.48,1.26a9.43,9.43,0,0,0-2,2.67c-.45.89-1.2,2.22-1.68,3l-.27.44v0c-.14-.45-.48-1.64-1.47-1.64a1.82,1.82,0,0,0-1.07.43l-.2.15a.84.84,0,0,0-.72-.45,1.33,1.33,0,0,0-.56.16,8.67,8.67,0,0,1,.34-.91.85.85,0,0,0-.2-1.2l-.12-.08h-.19c-.5,0-.85.58-1,.82a16.91,16.91,0,0,1-3.26,3.23h-.13a.79.79,0,0,0-.67.38.69.69,0,0,0-.07.73.63.63,0,0,0,.58.31,4.77,4.77,0,0,0,2.14-1,2.27,2.27,0,0,0-.08,1.67.6.6,0,0,0,.51.28c.14,0,.34,0,1.34-.89l.18-.16a1.12,1.12,0,0,0,1.09.82,1.63,1.63,0,0,0,.91-.31c.39,2,1.66,2.3,2.38,2.3,1.47,0,2.36-1,4.43-4.44a8.09,8.09,0,0,1-1.21,2.55c-.4.48-.7.88-.64,1.34s.44.77.93,1.12c1.07.77,1.79.84,4.66.87h.58a4,4,0,0,0,2.88-.74,2.68,2.68,0,0,1,.8-.42.89.89,0,0,0,.64.26c.59,0,1.08-.51,1.69-1.33l.19-.26a1.21,1.21,0,0,0,1,.59,1.8,1.8,0,0,0,1.21-.56,10.55,10.55,0,0,1,1.12-.89c.38-.25,1.93-1.71,3.21-3,1.06-1,1.84-1.76,2.27-2.15a.78.78,0,0,0,.05.14c.17.49.55,1.06,1.07,1.06s.89-.53,1.07-1v0a.77.77,0,0,0,.59.26c.61,0,1.23-.67,1.42-1.54a2.43,2.43,0,0,1,.33-.82,1,1,0,0,0,.11.37.72.72,0,0,0,.66.4l.22,0c.65-.13.91-.91,1.09-1.74a2.48,2.48,0,0,1,.57-1.31,19.5,19.5,0,0,0,3.08-3.89c.31-.54,4.74-4.93,11.34-11.08,1.35-1.26,2.63-2.45,3.52-3.24a90.79,90.79,0,0,0-2.74,9.1c-.48,2.37-.55,3.4-.54,8.49,0,5.69,0,5.85.77,8.63a32.15,32.15,0,0,0,1.4,4.17,1,1,0,0,0-.64-.26c-.71,0-1.09.86-1.39,1.67-1.1,2.95-2.62,4.86-8.14,10.21-3.19,3.09-7.19,7.15-8.13,9a2.13,2.13,0,0,0-.23,2c.42.82,1.66,1.14,3.52,1.4a7.85,7.85,0,0,1,1,.2,6.19,6.19,0,0,1-.48.65c-2.07,2.52-6,5.15-14.46,9.7-2.61,1.41-5.72,3.14-6.92,3.86s-1.87,1.11-2.08,1.22a3.34,3.34,0,0,0-.91.71,1.64,1.64,0,0,0-.62,1.84,9.08,9.08,0,0,1,.3,1.94,2.5,2.5,0,0,1-.29.17,10.94,10.94,0,0,0-1.86,1.41Zm-17.77-51.4a.79.79,0,0,0,.06.73.83.83,0,0,0,.71.32,2.59,2.59,0,0,0,1.33-.47,17.46,17.46,0,0,0,3.51-3.52c.55-.89.57-1.25.42-1.51l-.14-.26-.35,0c-.15,0-.49,0-1.22,1a1,1,0,0,0,.14-.46v-.5h-.26c.32-.38.75-.93,1.36-1.74l.29-.39a.84.84,0,0,0,.29.58,1,1,0,0,0,.59.19,1.53,1.53,0,0,0,1.06-.48,1.27,1.27,0,0,0,1,.48,1.29,1.29,0,0,0,.73-.23l.08.11a1.89,1.89,0,0,0,1.52.85.9.9,0,0,0,1-.9,4.1,4.1,0,0,0-2.1-2.61s0-.07,0-.11a1.79,1.79,0,0,0-.23-1.47.75.75,0,0,0-.51-.28c.27-.65.36-1,.23-1.31a.76.76,0,0,0-.47-.42.42.42,0,0,0-.15,0c.07-.13.15-.24.22-.35.65-1.06.64-1.39.39-1.65l-.14-.15h-.22c-.23,0-.37,0-1.3,1.41.81-1.64.71-1.74.49-2l-.15-.14h-.21c-.13,0-.23,0-.42.22a.44.44,0,0,0-.17-.3l-.15-.14h-.21a.42.42,0,0,0-.25.06.4.4,0,0,0-.15-.44l-.15-.14h-.21c-.19,0-.33,0-1.09,1a.54.54,0,0,0-.05-.11l-.14-.27h-.31c-.2,0-.32.09-.63.33s-3.44,4.44-3.44,5.05a.68.68,0,0,0,0,.15,4.49,4.49,0,0,0-.56.64,21.93,21.93,0,0,1-4.48,4.11c-1,.48-1,.78-1,.91l-.05.25.19.22a.7.7,0,0,0,.52.21c.67,0,1.91-.88,2.95-1.74a8.29,8.29,0,0,1-1.45,1.72c-.89.66-.95,1.17-.85,1.49a.8.8,0,0,0,.83.51,2,2,0,0,0,.39,0l.45-.11a1.83,1.83,0,0,0,.53,1.5,1.44,1.44,0,0,0,1,.54,2,2,0,0,0,.94-.31Zm-8.28-7.81c-.74,1.59-.91,2.17-.15,3a1.81,1.81,0,0,0,1.39.59,5,5,0,0,0,2.58-1c1.18-.77,4.85-4.16,4.86-5.06a4.31,4.31,0,0,1,.14-.73l.44-1.64-1.81.92a15.71,15.71,0,0,0-2.6,2.09,23.23,23.23,0,0,1-2.76,2.31c.13-.39.29-.9.5-1.48.94-2.62.8-3.15.59-3.44a.62.62,0,0,0-.53-.28,1.2,1.2,0,0,0-.78.39,10.22,10.22,0,0,0-1.18,1.51c.08-.56.2-1.22.33-1.77l.91-.07,0-.88c0-.54,0-1.23-.42-1.46a.77.77,0,0,0-.39-.11c-.61,0-1,.62-1.51,2.39a27,27,0,0,1,.82-5.55.82.82,0,0,0,0-.75l-.15-.2-.28,0a.71.71,0,0,0-.25.06c.11-.37.2-.66.24-.75a.84.84,0,0,0,0-.73l-.15-.22-.31,0a.72.72,0,0,0-.36.11.58.58,0,0,0-.16.18c1.15-3.4,1.06-3.49.83-3.72l-.15-.15-.24,0h-.12a1.74,1.74,0,0,0,.05-.34.55.55,0,0,0-.54-.6.53.53,0,0,0-.32.1.62.62,0,0,0,0-.18l.11-1-1-.22-.32,1a17.65,17.65,0,0,1-1.91,3.82c-.23.28-.48.55-.32.91a.71.71,0,0,0,.71.34.66.66,0,0,0,.28,0c-.56,1.1-.44,1.3-.35,1.46l.15.25h.31c.23,0,.47,0,1.41-1.76l-.33,1c-1.1,3.26-1.32,4.22-.78,4.77a.9.9,0,0,0,.59.29.61.61,0,0,0,.39-.13,3,3,0,0,0,.12,1.16.56.56,0,0,0,.54.42h.08c0,.1,0,.2,0,.3-.11,1.4,0,3.11.54,3.72a.84.84,0,0,0,.36.24.38.38,0,0,1,.05.14C154.18,242.29,154.59,242.42,154.83,242.42Zm28.92.79a6.71,6.71,0,0,0,.27.92c.21.54.39.92.79.92h.25l.17-.2c.12-.16.27-.35-.13-1.85a33.38,33.38,0,0,1-.74-4.3,15.65,15.65,0,0,0,.88,4.21l.15.15.23,0h.21l.16-.16c.15-.15.25-.25,0-2.36.18.64.32,1.1.78,1.1H187l.17-.19c.14-.17.35-.42-.38-4.43,0-.15,0-.31-.08-.47a.53.53,0,0,0,.35.12c.43,0,.58-.39.74-.8s.38-1.14.53-1.72c0-.19.12-.43.18-.63l.28.32a9.82,9.82,0,0,0,2.94,2,12.1,12.1,0,0,1,3.4,2.44c1.44,1.43,1.78,1.66,2.13,1.66h.25l.21-.23a1,1,0,0,0,0-.9,5.11,5.11,0,0,0-1.57-2.66,14.44,14.44,0,0,0-3.43-2.12,14.13,14.13,0,0,1-3-1.77,2.72,2.72,0,0,0-1.49-.91c-.72,0-.93.36-1.2,1.58l-.12-1-1,.05v.16l-.2-1.41-1,.05,0,.84c-.09-.18-.21-.2-.42-.2-.36,0-.47.17-.52.59a.48.48,0,0,0-.43-.19.52.52,0,0,0-.34.12.71.71,0,0,0-.11-.17l-.15-.15h-.47l-.21.23a6,6,0,0,0-.36,2.49h-.17a.51.51,0,0,0-.28.08,14.67,14.67,0,0,1,.32-2.31c.42-1.09.17-1.33.06-1.44l-.14-.14-.24,0c-1.06,0-1.5,4.31-1.5,4.35a14,14,0,0,0,0,3c.09.53.17,1,.61,1a12.92,12.92,0,0,0,.22,3.36c.18.48.38.9.8.9h.25l.18-.21c.1-.13.28-.36,0-1.67a14.88,14.88,0,0,1-.05-3.89,37.47,37.47,0,0,0,.58,5.55c.19.83.3,1.34.8,1.34h.22l.17-.18C183.67,244,183.75,243.87,183.75,243.21Zm-7.38-9.94c-.55,1.9-.87,3.8-.56,4.51a.6.6,0,0,0,.55.41c.58,0,.67-.68.78-1.61.06-.48.19-1.17.34-1.87a10.34,10.34,0,0,0-.14,1.63l0,1.44,1,.06.2-1.51a32.24,32.24,0,0,1,.65-3.29c.26-1,.54-2,.62-2.27a.68.68,0,0,0,0-.63l-.15-.21h-.26a.54.54,0,0,0-.34.12c.74-1.51.62-1.69.51-1.88l-.15-.24h0c.7-.94.66-1.2.56-1.43l-.09-.17a1.23,1.23,0,0,0,0-.19.83.83,0,0,0-.65-.54,1.45,1.45,0,0,0-.41-.06c-.79,0-1.65.65-3.53,2.67,0,0-3.65,4.25-2.72,5.18l.14.15h.22c.25,0,.45,0,1.56-1.89.16-.27.39-.61.65-1a21.35,21.35,0,0,0-1.94,4.14c-.14.5-.18.77,0,1l.15.2h.27a.48.48,0,0,0,.44-.22.67.67,0,0,0,.14.41l.15.18h.26c.37,0,.59-.1,1.55-2.51C176.19,233.69,176.28,233.48,176.37,233.27Zm-17.91,1.59a2.61,2.61,0,0,0-.06,2,.67.67,0,0,0,.55.31c.44,0,.74-.45.74-1.11a7.91,7.91,0,0,1,1.5-3.16c-.3.49-.5.83-.5.84a5.12,5.12,0,0,0-.57,1.66v.5l.53.06c.28,0,.52-.1,1.21-1.46a32.2,32.2,0,0,1,1.77-3c1.21-1.78,1.14-2,.87-2.26l-.14-.13a1.16,1.16,0,0,1,.55-.3.75.75,0,0,0,.75-.74.65.65,0,0,0-.65-.72c-.33,0-.71.21-1.56.87h0c1.6-1.73,1.51-2.08,1.21-2.37l-.15-.14h-.23c-.9,0-4.38,4.42-4.41,4.46-3.61,4.7-3.44,5-3.31,5.3l.13.27.33,0c.45,0,.85-.53,1.06-.84l0-.08.17,0Zm6.49-3.44a.92.92,0,0,0-.89.66.88.88,0,0,0,.38,1,1.18,1.18,0,0,0,.7.27,4.45,4.45,0,0,0,1-.19l.25-.07c1.44-.35,1.44-.74,1.44-.94a.6.6,0,0,0-.69-.57,2.57,2.57,0,0,0-.72.12,5.39,5.39,0,0,1-.84.18.47.47,0,0,0-.06-.15A.62.62,0,0,0,165,231.42Zm16.41-10.11a3.6,3.6,0,0,0-1.62,1.81,1.84,1.84,0,0,0,0,1.72.92.92,0,0,0,.79.43,1.67,1.67,0,0,0,1.39-1.14,2.28,2.28,0,0,1,1-1,1.57,1.57,0,0,1,.7-.23,5.2,5.2,0,0,1,1.21.26,13.21,13.21,0,0,0,3.41.42,14.68,14.68,0,0,0,6.16-1.26,7,7,0,0,1,1.07-.42h0a.74.74,0,0,0,.75-.71c0-.54,0-.7-5.68-.82a41.13,41.13,0,0,1-8.35-.73,38.91,38.91,0,0,1-13.13-4.88c-1.15-.69-1.32-.69-1.46-.69h-.37l-.13.37c-.1.36-.07.55,1.79,1.75A38.94,38.94,0,0,0,181.36,221.31ZM155.21,191c-.21.39-.08.76,1.54,3.22,6.62,10,15.05,16.13,25,18.07a47.3,47.3,0,0,0,10.4,1.11h.92a20,20,0,0,0,4.73-.47c1.79-.47,1.82-.6,1.89-.86l.08-.29-.22-.21a.67.67,0,0,0-.52-.15c-.42,0-1.42.07-2.57.18-.72.07-1.72.11-2.88.11-1.82,0-3.73-.09-5.33-.21a3.36,3.36,0,0,0,.85-.52,2.53,2.53,0,0,1,2-.55H193a1.78,1.78,0,0,0,1,.32,20.36,20.36,0,0,0,2.52.16h1.87l.17-.37a1.45,1.45,0,0,0,.43.43,2.55,2.55,0,0,0,1.49.41,2.77,2.77,0,0,0,1.27-.28,1.64,1.64,0,0,0,.47-.45l1.66-.85a6,6,0,0,0,2.4-2.08l.16.18.29,0a1.16,1.16,0,0,0,.56-.19c.65-.35.94-1,2-3.7l.36-.94,1.64-.32a11.85,11.85,0,0,1,2.15-.26h.27a4.68,4.68,0,0,0,1,.1,1.89,1.89,0,0,0,1.46-.46.63.63,0,0,0,.09-.58c-.15-.45-.64-.68-2.94-.68-2,0-4.9.18-8.5.52l-7.4.71c-.24,0-.56,0-.95,0a58.84,58.84,0,0,1-8.66-.73A81.36,81.36,0,0,1,179,198.5c-.74-.3-2.43-.83-3.76-1.2a35,35,0,0,1-7.4-3.07,16.13,16.13,0,0,0-2.48-1.1,16.12,16.12,0,0,1-1.68-.62A13.53,13.53,0,0,0,161,192a13.2,13.2,0,0,1-4.55-1,1.32,1.32,0,0,0-.68-.26h-.3Zm70.61,5.09a1.49,1.49,0,0,0-.72,1.15,1.59,1.59,0,0,0,.63,1.31,1.1,1.1,0,0,1,.3.71,22.77,22.77,0,0,1-2.23,6.23l-.07.13c-1.09,2.2-1.13,2.29-.92,2.63a.63.63,0,0,0,.56.27c.23,0,.55,0,1.43-1.54.42-.73,1.25-2.44,1.86-3.81,1.4-3.14,1.72-5.74.91-7.33-1.08-2.1-4.68-6.69-5.91-6.69h-.37l-.15.34c-.1.3,0,.59.84,1.28a19.57,19.57,0,0,1,3.52,4.46l.45.77Zm-8.25-.4a39.36,39.36,0,0,1,2.51,3.24c.62,1,1,1.36,1.51,1.36s.74-.19.85-1.11l.07-.56h-.09a3.71,3.71,0,0,0-.35-1.13c-.35-.7-6-6.68-7-6.68a.9.9,0,0,0-.77.33c-.29.42-.12,1,.34,2.2a6.93,6.93,0,0,1,.34,1.36l-.38-.76c-1.38-2.67-1.48-2.67-1.82-2.67h-.27l-.16.23c-.15.24-.21.34.76,2.46-1.22-2.18-1.39-2.18-1.64-2.19h-.14a9.63,9.63,0,0,1-.39-.94,1.45,1.45,0,0,0-1-.89l-.12-.05a.57.57,0,0,0-.56-.49h-.21l-.22.2a.26.26,0,0,0-.09.11l0,0-.32-.05a.77.77,0,0,0-.74.8,1.26,1.26,0,0,1,0,.21l0,0-.29,0a.59.59,0,0,0-.46.2,6.13,6.13,0,0,0-.1-2.4c-.22-.47-.5-.95-1-.95-.72,0-.93.95-1.05,2.48,0,.56-.11,1.14-.21,1.72,0-.84,0-1-.15-1.14l-.15-.16H204c-.27,0-.41,0-.57.56a7.16,7.16,0,0,0-.11-1.43c-.11-.61-.23-1.25-.77-1.25-.31,0-.5.14-.6.62a.12.12,0,0,0,0-.05l-.14-.15-.25,0a.53.53,0,0,0-.54.44.65.65,0,0,0-.4-.14c-.34,0-.53.22-.64.57l-.2,0c-.43,0-.84.55-1.13,1.1a8.78,8.78,0,0,0-.51-3.36l-.15-.18-.28,0c-.16,0-.58,0-.94,1.25a12.73,12.73,0,0,1-.63,1.56c-.24-.76-.69-1.62-1.24-1.62s-.68.48-.68,1.75a5.25,5.25,0,0,1-.14,1c-.32-1-.84-2.25-1.37-2.25h-.28l-.17.24a.58.58,0,0,0-.09.22c-.41-.68-.83-1.17-1.18-1.17h0c-1,0-1.07.86-1.29,2.95a6.61,6.61,0,0,1-.31,1.49.85.85,0,0,1-.48.1,2.48,2.48,0,0,1-1.5-.55c-.81-.72-.89-.85-.54-2.34.22-1,.3-1.72-.07-2.19a1.36,1.36,0,0,0-1.08-.42,1.81,1.81,0,0,0-.69.16.76.76,0,0,0-.15-.39.66.66,0,0,0-.29-.21.53.53,0,0,0-.05-.15l-.14-.28-.37,0a.75.75,0,0,0-.34.09.89.89,0,0,0-.18-.82.78.78,0,0,0-.55-.24h-.12a.85.85,0,0,0,0-.55.69.69,0,0,0-.66-.42,2.59,2.59,0,0,0-1.41.65,10.49,10.49,0,0,0-1.69,1.63c.82-1.72,1-2.33.7-2.81a1.06,1.06,0,0,0-.9-.66,2,2,0,0,0-1.16.54v-.08c0-.82-.5-.95-.8-.95a2,2,0,0,0-.38,0h-.21a.67.67,0,0,0-.53-.24,4.7,4.7,0,0,0-2.53,1.71,15,15,0,0,0-2.42,6.31l-.1,1.32,1,.15.34-1.43a13.49,13.49,0,0,1,2.3-5.32.3.3,0,0,0,0,.1.67.67,0,0,0,.22.28,1.06,1.06,0,0,1,0,.35c-.05.39-.16,1.11.64,1.38-.08.2-.23.51-.37.81a6.45,6.45,0,0,0-.68,3.05c0,.21,0,.57,0,.82h-.16a.59.59,0,0,0-.54.29l-.14.26.17.33c.18.3.36.6,5.52,1.4a13.16,13.16,0,0,1,3.74,1A30.34,30.34,0,0,0,193.38,198h.15c.78,0,1.5-.08,1.5-.67,0-.38,0-.64-2.76-1a32.75,32.75,0,0,1-8.79-2.38,16.8,16.8,0,0,0-3.46-1.14l-.24,0a6.53,6.53,0,0,0,1.28-1.73,5,5,0,0,1,.33-.52l.17,0a.72.72,0,0,0,.64-.51.62.62,0,0,0,.33.08,1.69,1.69,0,0,0,.38-.06.35.35,0,0,0,.07.09.67.67,0,0,0,.52.23,1.12,1.12,0,0,0,.43-.1,2.74,2.74,0,0,0,0,1.13c.27,1.22,2.1,2.67,3.4,3l1.22.33.39.13H189c.08,0,.23,0,1.06-.39a3.56,3.56,0,0,0,1.79-2.71,3.6,3.6,0,0,1,.26.84,2.31,2.31,0,0,0,.32,1.1.72.72,0,0,0,.57.38.48.48,0,0,0,.22,0,1.3,1.3,0,0,0,.63.8,1,1,0,0,0,.52.16c.54,0,.81-.51,1-.87a13.27,13.27,0,0,1,1.15-1.65,8.7,8.7,0,0,0,.63-.86,11.71,11.71,0,0,1-.9,2.17l-.05.1c-.77,1.47-.84,1.59-.64,1.91a.58.58,0,0,0,.54.27c.25,0,.59,0,1.46-1.73.08-.15.16-.32.24-.5l.06.05-.22.42c-.49.86-.33,1.14-.26,1.26l.14.24.33,0c.12,0,.37,0,.76-.55a.75.75,0,0,0,.08.54l.15.22.31,0c.17,0,.31,0,.59-.41a.59.59,0,0,0,.1.45l.15.22h.24l-.05.11.14.3.15.23h.29a.92.92,0,0,0,.59-.28,2.92,2.92,0,0,0,.46-.56c-.4.85-.4,1-.39,1.08l0,.48.51.06a.72.72,0,0,0,.49-.27c-.25.72-.16,1,0,1.24a.7.7,0,0,0,.62.34c.78,0,1.77-1.15,2.45-2.24a.82.82,0,0,0,.17.29.69.69,0,0,0,.33.19.79.79,0,0,0,.18.39.74.74,0,0,0,.58.26,1.38,1.38,0,0,0,.74-.26,5,5,0,0,1-.79.69c-.43.29-.92.62-.77,1.09a.59.59,0,0,0,.61.41c1.05,0,3.06-2.49,3.64-3.75v0c0,2.1-.11,2.15-.39,2.36a1.41,1.41,0,0,0-.6.87l0,.22.19.25a.91.91,0,0,0,.64.3c.53,0,.85-.5,1.13-1,.39-.71.49-1.49.49-3.78,0-.2,0-.74,0-1.34.27.57.65,1.31,1.16,2.29,2,3.75,2.18,3.75,2.49,3.75h.4l.1-.41s0-.16-.1-.56h.26l.16-.15c.19-.2.19-.45.19-1.06a16,16,0,0,1,.15-2.09,7.29,7.29,0,0,0,0-1.41Zm-54.39-22c-.61,0-10.37,5.22-10.93,5.57a11.83,11.83,0,0,0-4.47,4.88l-.91,1.9v4.29a38.81,38.81,0,0,0,.21,4.79c.11.26.31.75.77.75h.21l.2-.18c.22-.22.4-.62.36-3.28a9.88,9.88,0,0,1,.39-3.93,20.67,20.67,0,0,1,4.14-5.82c1.77-1.84,1.77-2,1.77-2.2a.64.64,0,0,0-.37-.6c1.1-.73,2.89-1.73,5.31-3,3.76-2,3.78-2.19,3.83-2.53l0-.25-.19-.2-.15-.15Zm5.8,16.19a3.61,3.61,0,0,0,.19,1.51.56.56,0,0,0,.53.41c.57,0,.66-.62.77-1.71a14.23,14.23,0,0,1,.43-2.4,22.27,22.27,0,0,1,2-4,1,1,0,0,0,.4-.56.78.78,0,0,0,.52-.36l.16-.25-.14-.35a1,1,0,0,0-.91-.39,1.56,1.56,0,0,0-.94.33s-.15-.35-.15-.35l-.39,0a.68.68,0,0,0-.38.15l-.43,0c-.11,0-.35,0-.9.51l-.25.21h-.07a1.61,1.61,0,0,0-.71.23,2.61,2.61,0,0,1-.44.2h0a10.28,10.28,0,0,0-1.84.58,27.84,27.84,0,0,1-2.89.95l-1.27.32.07-.16c.52-1.21.47-1.46.33-1.67l-.15-.22h-.29c-.29,0-.52.1-1.17,1.41a4.85,4.85,0,0,1-1.2,1.57,2.85,2.85,0,0,0-1.05,1.1.58.58,0,0,0,.08.55l.15.21h.28a.93.93,0,0,0,.59-.26c0,.11,0,.23-.08.36-.33,1.41-.23,1.87,0,2.13a.61.61,0,0,0,.44.19c.43,0,.64-.35.64-1a5.13,5.13,0,0,1,.85-2.6l1.87-.44.79-.18c-2.13,2.33-2.12,2.74-2.11,3v.48l.54.06c.17,0,.42-.06.83-.56.13-.16.31-.37.53-.61a2.21,2.21,0,0,0-.42,1.43l.12.35.4,0c.14,0,.39,0,.86-.67a1.8,1.8,0,0,0,0,.22c0,.25,0,1,.63,1,.44,0,.7-.39,1.15-1.74a8.86,8.86,0,0,1,.62-1.36,1.39,1.39,0,0,0,0,1l.15.24.33,0c.14,0,.38,0,.65-.52,0,.13,0,.25-.05.37-.09.86-.1,1,.07,1.18l.15.17Zm-9.7-7.63a1.32,1.32,0,0,0-.46.1,8.09,8.09,0,0,1-1.16.32c-3,.6-6.37,3.63-6.37,5.69a1.1,1.1,0,0,0,.21.82.63.63,0,0,0,.46.18,3.43,3.43,0,0,0,1.29-.51,8.5,8.5,0,0,0,1.18-.77.7.7,0,0,0,.15.4l.15.19H155a1.91,1.91,0,0,0,1.66-1.6,2.14,2.14,0,0,1,.14-.43,2.11,2.11,0,0,0,0,1.62l.15.24.36.06c.55,0,.7-.7.78-1.07a7,7,0,0,1,.5-1.48,6.42,6.42,0,0,1,1.41-1.81.58.58,0,0,0,.36.13c.43,0,.59-.43.66-.59a1.11,1.11,0,0,0,0-1,.69.69,0,0,0-.56-.28,1.22,1.22,0,0,0-.54.16A.62.62,0,0,0,159.28,182.29Zm29.27,1.77a.57.57,0,0,0-.57.34l-.13.31.26.29c.65.64,3.3.84,4.19.84a2.61,2.61,0,0,0,1.46-.25l.32-.2L194,185c-.09-.31-.24-.51-2.05-.53a14,14,0,0,1-2.64-.27A2.9,2.9,0,0,0,188.55,184.06ZM203,180.12a4.47,4.47,0,0,0-1.09.16c-1,.25-5.85,2.39-6.1,3.19a.72.72,0,0,0,.07.68.65.65,0,0,0,.54.25,4.64,4.64,0,0,0,1.88-.75,4.62,4.62,0,0,1,2.84-.66c1.84,0,2.76-.2,3.19-.69a1.07,1.07,0,0,0,.23-.87A1.43,1.43,0,0,0,203,180.12Zm-23.15-5.45a2.57,2.57,0,0,0-1,.19c-.44.18-.9.44-1,.92s.25.91.77,1.38a4.57,4.57,0,0,0,3.29,1.53c1.14,0,2,.39,3,2.38s1.46,2,1.64,2h.25l.2-.23a1.09,1.09,0,0,0,0-1,10.49,10.49,0,0,0-.75-1.6c-.29-.52-.83-1.51-1.19-2.2a4.64,4.64,0,0,0-2.07-2.17A6.72,6.72,0,0,0,179.82,174.67Zm2.92-12.75c-.52,0-1.36.36-3.44,1.51-2.85,1.56-3.33,1.92-4.23,3.21-2,2.81-3.16,6.14-2.86,7.92.21,1.24,1.85,3.18,3.67,4.33a4.64,4.64,0,0,0,1.78.77.59.59,0,0,0,.58-.4c.12-.41-.17-.77-1.11-1.39-3.29-2.18-3.84-3.35-3-6.24a12.68,12.68,0,0,1,2-4,7.31,7.31,0,0,1,3-1c2.21-.34,4-1.66,4.38-3.29a1.28,1.28,0,0,0-.08-1.12A.77.77,0,0,0,182.74,161.92Zm11-22.39c-1.15,0-2.29,1.7-3.94,5.85a131.72,131.72,0,0,0-3.94,13.38c-.14.74-.15,1,0,1.17l.15.19h.24c.43,0,.61,0,2.21-5.84,1.94-7.1,3.62-11.56,5-13.23a2,2,0,0,1,.21-.25,1.13,1.13,0,0,0,.2.12,1.54,1.54,0,0,0,.67.25h.32l.15-.29c.15-.32-.05-.56-.26-.81A1.31,1.31,0,0,0,193.7,139.53ZM164.29,249.72a.94.94,0,0,0-.12-.18h0a16.94,16.94,0,0,0,2.12-1.74c-.4.44-.83.88-1.19,1.2C164.92,249.18,164.54,249.52,164.29,249.72Zm67.11-2.45a23.66,23.66,0,0,1-3.33-9.85,6.5,6.5,0,0,1,.28-3,26,26,0,0,0,2.11,11C230.82,246.15,231.13,246.77,231.4,247.27ZM164.84,247a19.19,19.19,0,0,0,1.41-3.84l.08.16h.32a.52.52,0,0,0,.21,0c-1.24,1.81-1.24,2.1-1.24,2.21a.79.79,0,0,0,.2.57l.08.09c-.27.22-.6.52-1,.9l-.16.15Zm1.57-4.9a1.64,1.64,0,0,0,0-.46,2.13,2.13,0,0,0,.79-.69c-.07.11-.13.21-.19.29C166.73,241.61,166.54,241.89,166.41,242.11Zm-1.73-.69a3,3,0,0,0,.11-.92,5.51,5.51,0,0,0,.37-.44.47.47,0,0,0,0,.45l.14.26h.35a.59.59,0,0,0,0,.22h-.07A1.24,1.24,0,0,0,164.68,241.42Zm96.06-1.67-1.17,0c-4.31-.19-6.9-1.47-10.69-5.25l-1-1,.39.18a16.54,16.54,0,0,0,3.58,1.26c.36,0,.62.07.83.07a1.5,1.5,0,0,0,.78-.19,1.59,1.59,0,0,0-.25.71c0,.38,0,1.29,6.22,3.72C260,239.43,260.4,239.6,260.74,239.75Zm-3.55-6.33a5,5,0,0,0-1.5-.57,1.32,1.32,0,0,0-.67.28c.43-.78.08-1.31-1-2.75l-.22-.29a30.68,30.68,0,0,1-2-3c-.33-.64-.59-1.15-1.28-1.15a4,4,0,0,0-.51.06l0-.08c.17-.45.74-1.8,1.29-3l.16-.36c-.08.32-.2.73-.34,1.14-.42,1.21-.42,1.51-.24,1.77l.15.21.29,0a.72.72,0,0,0,.54-.29,18.22,18.22,0,0,0,2,4.17A16,16,0,0,0,257.19,233.42Zm2.22-10.79c-.11,0-.26,0-.32-.3a54.64,54.64,0,0,1,.39-8.42l.14-.89c1.43-9.63,1.43-9.63,1.42-16.84v-.67c0-6.81-.06-8-.53-10.62-.76-4.18-4.75-15.89-6.48-19-.17-.3-.31-.53-.42-.71a1,1,0,0,0,.43.09,3,3,0,0,0,1.72-.93,11.83,11.83,0,0,1,1.83-1.24c-.22.48-.53,1.13-.92,1.9-1.32,2.65-1.5,3.27-1.06,3.71s.59.42.69.42c.33,0,.34,0,1.85-2.32.42-.66,1-1.57,1.44-2.45a2.37,2.37,0,0,0,.64,1.16.8.8,0,0,0-.39-.11h-.3l-.21.31c-.08.16-.2.38.27,1.28a.69.69,0,0,0-.37-.17h-.14l-.15.08a.68.68,0,0,0-.33.48.82.82,0,0,0,.11.54h-.41l-.05.57c0,.14,0,.35,1.27,2.06.07.11.15.21.23.32l-.12.17c-.08.13-.16.25.11,1h-.16l-.17.2c-.19.22-.15.52-.07.91s.18,1,.23,1.41a12.59,12.59,0,0,0,.58,1.87c-.61-1.43-1.24-2.61-1.65-2.61h-.27l-.18.24c-.24.35-.29.42,2,6.32a52.73,52.73,0,0,1,2.44,9.32c.16,1.24.2,1.54.69,1.54s.53-.48.57-.95a20.52,20.52,0,0,0-.44-3.71,51.25,51.25,0,0,0-1.24-5s-.28-.87-.68-2a46.93,46.93,0,0,1,2.2,7.4c.33,1.77.61,1.9,1,1.9h.23l.19-.2c.07-.07.27-.31.11-1.16,0,0,0-.06,0-.09a.59.59,0,0,0,.53-.44,8.24,8.24,0,0,0-.54-2.9h.35l.17-.21c.14-.2.24-.33-.35-2.31a54.6,54.6,0,0,0-2.46-6.28,22.55,22.55,0,0,1,1.15,2c.42.94.67,1.12,1,1.12h.36l.15-.36a.69.69,0,0,0,0-.33c.38.53.52.53.68.53h.05a38,38,0,0,1,.57,5c.74,9.16,1.78,14.71,3.86,19.77a38,38,0,0,1-3.78-9c-.58-2.22-1-2.47-1.3-2.54h-.15c-1,0-1.12,1-1.12,7.27,0,5.2-.28,8.52-.94,11.09a31.06,31.06,0,0,1-2.37,6.21.89.89,0,0,0-.17,1.24,9,9,0,0,1,.53,1.46c.34,1.14.3,1.51-.93,3.15A1.31,1.31,0,0,1,259.41,222.63ZM137,221.23a38,38,0,0,0,1.13-5.29.48.48,0,0,0,.36.13h.19A30.42,30.42,0,0,1,137,221.23Zm-2.09-3q.12-.73.21-1.5l.16,0C135.2,217.29,135.07,217.78,134.94,218.26Zm4-3.85-.4-.07a.47.47,0,0,0-.17,0,32.52,32.52,0,0,0,.11-5.64c-.1-1.32-.12-1.59-.63-1.59-.23,0-.36,0-.45.31H137l.15-.33a1.48,1.48,0,0,0,.08-.6.51.51,0,0,0,.41.2h.24l.16-.19a.59.59,0,0,0,.14-.44l.12,1.05a11.05,11.05,0,0,0,.58,2.53,12.26,12.26,0,0,1,.12,4.93Zm-3.76-4A47.24,47.24,0,0,0,134.1,204a57.34,57.34,0,0,0-3.84-10.78c-.25-.48-.46-.89-.63-1.25a14.09,14.09,0,0,1,.8,1.45c.64,1.35.81,1.67,1.23,1.67a.49.49,0,0,0,.45-.26,11.88,11.88,0,0,1,1.82,4.53c.57,2.37.74,2.5.85,2.59a1.63,1.63,0,0,0,.11.26c-.19.12-.28.39-.28.79a1,1,0,0,0,.26.78l.15,2.35C135.1,207.57,135.15,209.05,135.16,210.44Zm3-4.86c0-.19-.05-.41-.09-.69h.21l.18-.16a.62.62,0,0,0,.17-.42l.43,1Zm39.72-13.07c-.46-.11-.49-.25-.54-.51s-.07-.61.67-1.76a3.17,3.17,0,0,0-.29,1.8A2.14,2.14,0,0,0,177.87,192.51Zm-44.67-2.4a18.42,18.42,0,0,0-2-3.55.92.92,0,0,0-.5-.18h-.29l-.08.12a2.94,2.94,0,0,0-.9-.74,11.22,11.22,0,0,1-3.43-3.83,6.06,6.06,0,0,1-.26-.66,9.9,9.9,0,0,0,4.66,4.78,6.61,6.61,0,0,0,2.56.76c1.68,0,1.9-1,2.08-4,0,.59,0,1.19.06,1.71.07,1.81.17,3.5.31,5.1-.14-.4-.29-.4-.51-.4s-.52.12-.54.69c0,.09,0,.14,0,.18H133.2ZM123.7,179c.58-.81,1.18-1.63,1.78-2.43a5.83,5.83,0,0,0-.33,2.36c-.17-.43-.39-.51-.6-.51S124.05,178.63,123.7,179Zm147.39-3.26c.25-.45.49-.92.72-1.36a14.88,14.88,0,0,0,2-7.25l.57,0a26.39,26.39,0,0,1-2.49,7.32C271.68,174.8,271.4,175.26,271.09,175.73ZM133,173.05l-.65-.64c-1.39-1.4-1.74-1.4-1.87-1.4a2.66,2.66,0,0,0-1.21.8,42.93,42.93,0,0,1,3.67-3.89,8.92,8.92,0,0,0,1.64-1.75,11.33,11.33,0,0,1-.06,1.26,1.4,1.4,0,0,0-1,.44c-.51.55-.69,1.58-.58,3.26A14,14,0,0,1,133,173.05Zm30.32-5.67a22.93,22.93,0,0,1-3.54-.29.53.53,0,0,0,.13-.13c.24-.32.13-.68-.1-1.39s-.81-2.29-1.4-3.8a115.83,115.83,0,0,1-4.33-14.13h.13c.56,0,.71-.35.71-.56,0-.05,0-.1-.48-2.61-.67-3.44-.58-4,.11-4.7l.56-.6,5,.08,2.55,0c2.81,0,2.82,0,3-.39l.13-.31-.21-.21c4.18.16,7.3.34,7.79.43,1.15.21,5.28.59,9.19.84.42,0,.75,0,1,0s1.08,0,1.23-.56a35.56,35.56,0,0,1,0,5.84c0,.26-.05.53-.08.78-.12-.3-.41-.47-1-.6-2.19-.43-12.92-1.18-17.39-1.21H165c-4.25,0-5.23.14-6.08,1.57-.68,1.14-.47,3.77.68,8.78.46,2,.93,4.07,1,4.65s.43,1.68.68,2.44.76,2.28,1.13,3.43l.8,2.44h1.2a13.27,13.27,0,0,0,1.45-.11A11,11,0,0,1,163.31,167.38Zm-4.81-.51a19.8,19.8,0,0,1-4.89-1.57c-6.53-3.27-10.07-7.66-13.09-16.17l-.77-2.19V142a31.46,31.46,0,0,1,.42-6.89c.43-1.94.3-2.41.17-2.61a.69.69,0,0,0,.17-.1,1.07,1.07,0,0,0,.52-.8.65.65,0,0,0-.11-.33,23.19,23.19,0,0,0,2.3-2.18l.37-.37a29.8,29.8,0,0,0-2.15,3.37,19.82,19.82,0,0,0-1.52,6.56c0,1.19.16,2,.8,2s.79-.74.91-1.86a11.45,11.45,0,0,1,.47-2.53c0,.07.05.14.07.22,4.3,15,5.28,15,5.69,15,.85,0,.85-1.06.85-1.41,0-.59-.31-2.9-.61-4.79a47.54,47.54,0,0,1-.58-5.28,11.94,11.94,0,0,1,.76-4.24,46,46,0,0,1,6.42-1.46c1,0,2.67-.94,2.94-1.8.43-1.38-.75-2.11-3.77-3.55l-2.07-1,.8-.31c3.83-1.5,6.87-2,12.06-2,3.88,0,4.11-.07,4.16-.65s-.5-.69-2.39-1a39.53,39.53,0,0,0-5.9-.36,52.4,52.4,0,0,0-9.25.71,22.34,22.34,0,0,0-2.23.61c.55-.21,1.15-.4,1.81-.59,2.64-.76,3-.82,7.39-1,1.25,0,2.22-.06,3-.06a27.83,27.83,0,0,1,4.94.43,25.32,25.32,0,0,1,9.09,2.73,12.4,12.4,0,0,1,4.17,2.86,10.55,10.55,0,0,1,1.45,1.71.8.8,0,0,0,.17.56.86.86,0,0,0,.48.27,17.19,17.19,0,0,1,2.42,3.71,9.48,9.48,0,0,1,.66,2.83c-.31-.44-1.59-.56-6.93-1.07-9.9-.93-12.05-1.06-17.71-1.07h-.9c-5.48,0-6.33.1-7.32,1.71-.56.9-.58,1.32-.44,3.55a52.47,52.47,0,0,0,1.84,10.27C154.46,156.91,156.68,165.07,158.5,166.87Zm8.65-.1a.55.55,0,0,0,.18-.22.72.72,0,0,0,.07-.34h.2a1.33,1.33,0,0,0,.44-.11.91.91,0,0,0,.62-.6l.05-.26-.21-.26a.58.58,0,0,0-.25-.15h0a.63.63,0,0,0,.36-.1,1.18,1.18,0,0,0,.41.09h0c.55,0,.74-.21.81-.39l.12-.31-.24-.26h0a1.75,1.75,0,0,0,.43-.05.6.6,0,0,0-.06.27.75.75,0,0,0,.74.75c.49,0,.74-.3.74-.6a.59.59,0,0,0,0-.23l.11-.08a.76.76,0,0,0,.61.63A25,25,0,0,1,167.15,166.77Zm107.27-2c0-.14,0-.29,0-.43h.25l.11-.11c-.07.73-.16,1.45-.27,2.14Zm-66.22,1.55c-.2-.34-.36-.61-.45-.8-.27-.52-.74-1.62-1.18-2.74C207.07,164,207.63,165.24,208.2,166.35Zm-41.08-.87a26.38,26.38,0,0,1-.9-2.87.78.78,0,0,0,.36.28.49.49,0,0,0,0,.12.88.88,0,0,0,.8.88.7.7,0,0,0,.11.48,1.05,1.05,0,0,0,.61.45h0a1,1,0,0,0-.71.34A1.19,1.19,0,0,0,167.12,165.48Zm93-2a2.43,2.43,0,0,0,.09.3.53.53,0,0,0-.3.09C260,163.69,260,163.55,260.1,163.43Zm-88.39-.28a1.39,1.39,0,0,0-.39-.26.79.79,0,0,0,.38-.27.7.7,0,0,0,.09-.63,1,1,0,0,0-.91-.71.7.7,0,0,0-.58.28l-.07,0a.57.57,0,0,0,.12-.18l.13-.3-.25-.3a.78.78,0,0,0-.45-.2.39.39,0,0,0,.1-.16l.12-.31-.13-.15a.77.77,0,0,0,.47.15.82.82,0,0,0,.38-.08.72.72,0,0,0,.53.23h.1a.91.91,0,0,0,.29.74.75.75,0,0,0,.53.22.91.91,0,0,0,.89-.9.79.79,0,0,0-.86-.72h-.15a1.23,1.23,0,0,0,.06-.36.79.79,0,0,0-.76-.84.87.87,0,0,0-.41.11c0-.09,0-.15,0-.17a.65.65,0,0,0-.06-.24.7.7,0,0,0,.29-.57.67.67,0,0,0-.26-.56.72.72,0,0,0,.24-.14.74.74,0,0,0,.48.17h.12a.69.69,0,0,0-.19.19l-.16.25.14.36c.15.27.49.4,1,.4a1.69,1.69,0,0,0,.92-.22.51.51,0,0,0-.12.44.62.62,0,0,0,.65.47.52.52,0,0,0-.18.48c.08.45.57.47.73.48h0a1.21,1.21,0,0,0,.6-.13,1.36,1.36,0,0,0,0,.93h0a13.54,13.54,0,0,1-1.07,1.1,1,1,0,0,0-.78-.43.87.87,0,0,0-.62.26,1,1,0,0,0-.21,1.07l0,0h-.12a.66.66,0,0,0-.48.22A.88.88,0,0,0,171.71,163.15Zm-4.9-2.44a1.22,1.22,0,0,0-.59-.17.93.93,0,0,0-.51.15c-.06-.23-.11-.45-.17-.69h.09a.91.91,0,0,0,.62-.26.77.77,0,0,0,.34.08l.17,0a.62.62,0,0,0-.08.59.55.55,0,0,0,.21.26Zm108.12-.08a18.06,18.06,0,0,0-2.55-8,16.22,16.22,0,0,0-5.09-5.94,11.18,11.18,0,0,1-1.33-1,.7.7,0,0,0-.43-.31l.68-.86c.44-.53,1-1.16,1.47-1.83-.28,1.27.58,2.57,2.85,5.75C273.91,153.13,274.94,155.81,274.93,160.63Zm-105.25-.9a.85.85,0,0,0-.51-.15H169a1.49,1.49,0,0,0,.17-.54.73.73,0,0,0,.3.06h0A1.22,1.22,0,0,0,169.68,159.73Zm5.57-.89a.86.86,0,0,0,.36-.1l-.18.3ZM165,157.77a1.07,1.07,0,0,0,.27.07.52.52,0,0,0,0,.31.5.5,0,0,0,.15.29.85.85,0,0,0-.21.14Zm11,.4-.22-.26a.81.81,0,0,0,.19-.18.59.59,0,0,0,.25.28l-.14.15a1.15,1.15,0,0,0-.14.17Zm-2.35-.35a.59.59,0,0,0,.16-.4.6.6,0,0,0-.22-.47.84.84,0,0,0,.64-.45.89.89,0,0,0,.59.21h0c.46,0,.7-.13.8-.38l.1-.22a.91.91,0,0,0,.13.37,1,1,0,0,0,.58.38.78.78,0,0,0-.35.19l0-.05a.58.58,0,0,0-.53-.29,2.3,2.3,0,0,0-.87.25c-.35.15-.71.3-.63.72a.86.86,0,0,0-.23.06Zm-6.19-.35a.78.78,0,0,0-.53-.28l0-.27-.15,0a.66.66,0,0,0,.38-.3.6.6,0,0,0,0-.62,1.44,1.44,0,0,0-1.11-.45.65.65,0,0,0,.32-.16.66.66,0,0,0,.47.18.77.77,0,0,0,.3-.06h0a1,1,0,0,0,.73.3.91.91,0,0,0,.74-.35.7.7,0,0,0,.38.11l.19,0a1.21,1.21,0,0,0-.39.7.85.85,0,0,0,.11.65c-.48.06-.69.13-.79.3H168A.74.74,0,0,0,167.43,157.47Zm-2.72-1a1.21,1.21,0,0,0,.37.23l.18.07h0a.79.79,0,0,0-.43.21C164.79,156.8,164.75,156.63,164.71,156.46Zm7.4.31a.77.77,0,0,0,.24-.54.75.75,0,0,0-1.22-.57l-.18-.11,0,0a.88.88,0,0,0,0-.9.91.91,0,0,0-.25-.3.71.71,0,0,0,.17-.47.72.72,0,0,0-.41-.66,1.49,1.49,0,0,0,.72-.32l.23-.23,0-.12c1.06,0,1.17-.6,1.17-.85a.73.73,0,0,0-.1-.42l.64,0a.65.65,0,0,0-.19.21.71.71,0,0,0,0,.74.63.63,0,0,0,.2.2l-.06.14a.81.81,0,0,0,0,.31H173a.75.75,0,0,0-.62.34,1.12,1.12,0,0,0-.38-.07,1.2,1.2,0,0,0-.42.08.56.56,0,0,0-.42.63c.07.45.56.47.73.48h0a1.08,1.08,0,0,0,.64-.15.77.77,0,0,0,.47.17.74.74,0,0,0,.74-.74.34.34,0,0,0,0-.1,1.07,1.07,0,0,0,.25,0,1.15,1.15,0,0,0,.88-.36.61.61,0,0,0,.11-.56v0l.16,0v.07c0,.45.44.74,1.09.74a1.62,1.62,0,0,0,.66-.12l.09.05a2.52,2.52,0,0,0-.38.36,4,4,0,0,0-.57.81l-.14-.07a1.42,1.42,0,0,0-.49-.09,1.38,1.38,0,0,0-.49.09l-.38.15h0l0,0a.78.78,0,0,0-.58-.22,1.11,1.11,0,0,0-.43.09.56.56,0,0,0-.41.63c.07.45.56.47.73.47h0c.5,0,.7-.16.79-.32.17.3.6.3.8.3h.28a2,2,0,0,0,0,.48l-.2-.23a.79.79,0,0,0-.57-.21,1.06,1.06,0,0,0-.43.08.73.73,0,0,0-.34.25.87.87,0,0,0-.74-.36.8.8,0,0,0-.86.74.67.67,0,0,0,.18.45h0A2.05,2.05,0,0,0,172.11,156.77ZM134,156.23a6.26,6.26,0,0,1,0-1.26s.06-.61.14-1.5C134.12,154.33,134.07,155.25,134,156.23Zm30.43-1a1,1,0,0,0,.31,0h0a1.24,1.24,0,0,0,.51-.08l0,0a.57.57,0,0,0,.36.29c-.52,0-.94,0-1.07.38C164.54,155.66,164.5,155.44,164.45,155.23Zm1-.93a.79.79,0,0,0-.57-.22,1,1,0,0,0-.43.09.67.67,0,0,0-.19.1,12.76,12.76,0,0,1-.33-2.51c0-.34.07-.47,1.1-.54a.8.8,0,0,0-.26.76h-.11a.56.56,0,0,0-.58.37c-.13.39.18.62.45.82a1.93,1.93,0,0,0,1.12.37,1.33,1.33,0,0,0,1-.37.58.58,0,0,0,.15-.62.54.54,0,0,0-.23-.29.62.62,0,0,0,.08-.31.93.93,0,0,0-.44-.76h.07l1.46,0H169a.58.58,0,0,0,.17,1,.58.58,0,0,0-.23.47c0,.17.08.57.78.61a.86.86,0,0,0-.14.13l-.11-.07a.74.74,0,0,0-.39-.12.62.62,0,0,0-.62.64.87.87,0,0,0,.1.39l-.09.07a.84.84,0,0,0-.57-.23,1.08,1.08,0,0,0-.57.16.57.57,0,0,0-.38-.16.69.69,0,0,0-.5.25.57.57,0,0,0-.46-.25.75.75,0,0,0-.53.28Zm15.6-1.28a14.85,14.85,0,0,0-1.62-.14l.1-.17a.62.62,0,0,0,.35.1H180l.2-.1a1.22,1.22,0,0,0,.33-.31,1.1,1.1,0,0,0,.86.27.87.87,0,0,0,.8-.38.59.59,0,0,0,0-.56,2.53,2.53,0,0,1,.38.05h.1c.19,0,.38-.15.55-.41-.23.6-.51,1.21-.81,1.87Zm71.51-.09a18.86,18.86,0,0,0-.07-4l.52.07,1.45.2h.13c-.37.6-.44.91-.3,1.18l.13.25-.29.09-1.16.23Zm-124.44-.46c0-.5-.18-1.81-.35-3.12-.14-1-.24-2.14-.27-2.9l.3.55c1.11,2,1.41,2.5,2,2.5a1.19,1.19,0,0,0,.44-.1l.14-.09A31.54,31.54,0,0,1,128.12,152.47Zm142.18-.55a14.51,14.51,0,0,0-2.12-2.56A9.59,9.59,0,0,1,270.3,151.92ZM134.64,146a4.83,4.83,0,0,0-.18-2,1.07,1.07,0,0,0-.33-.23,3,3,0,0,0,.42-1.46s0-.13-.29-.43h.16c.22,0,.38-.07.7-.57C135,142.24,134.83,143.65,134.64,146Zm120-.49a6.35,6.35,0,0,0-.9-.19c-1.83-.26-1.83-.26-2.2-1.31a18,18,0,0,0-3.09-5.39c-1.66-1.88-7-5-10.68-6.2a41.63,41.63,0,0,0-11.94-1.62,30.34,30.34,0,0,0-5.94.51,23,23,0,0,0-5,1.59.66.66,0,0,0-.69-.56,1.66,1.66,0,0,0-.5.09,5.71,5.71,0,0,1-1.18.21,2.82,2.82,0,0,0-1.42.47l0,0,0,0a1,1,0,0,0-.6-.27c-.63,0-.75.7-.86,1.38a1.74,1.74,0,0,1-.55.63l-.31.24-.93-1a11.75,11.75,0,0,0-2.17-1.9c-.79-.42-1.62-2.35-3.4-7.94-1.24-3.93-1.47-4.07-1.6-4.15l-.13-.08-.19,0H200l-.18.21c-.23.31-.27.36.92,4.61,1,3.6,2.62,8.93,3.05,9.48a14.6,14.6,0,0,1,.77,1.36,5.72,5.72,0,0,0,.39.63c-.42-.3-.9-.61-1.43-.93a17.53,17.53,0,0,0-8.14-2.5c-.48,0-.86-.06-1.21-.06a8.82,8.82,0,0,0-2.92.56c-1.08.34-2.49.75-3.15.93l-.5.14.15-.26c.14-.3.7-1.34,1.24-2.32,1.06-1.94,1.16-2.43.94-2.81a.63.63,0,0,0-.56-.31c-.23,0-.48,0-1.44,1.52l-.59.92-.91-.4a6.32,6.32,0,0,0-1.57-.53h-.21l-.18.16a.64.64,0,0,0,0,.75s.13.29.33.69a22.37,22.37,0,0,0-7.23-6.74c-3.14-1.88-5.3-2.62-10.07-3.43a43.21,43.21,0,0,0-7.15-.59,41.57,41.57,0,0,0-4.89.28l.07,0a18.23,18.23,0,0,1,3.72-.39c1.36,0,3.12.12,6.12.38.82.06,1.53.11,1.85.11.59,0,.66-.36.66-.52a5.48,5.48,0,0,0-1.26-1.94,5.12,5.12,0,0,0-1.47-.39,1.53,1.53,0,0,1-1.13-.55c-.27-.42-.22-1.2.14-2.39a2.34,2.34,0,0,0-.36-2.67c-.8-1.29-1.45-1.62-3.31-1.67h-.11a6.36,6.36,0,0,0-3.19,1.12l-1.07.57a4.07,4.07,0,0,1,.61-.67A41.77,41.77,0,0,1,164,108.1l2.46-1.11.08-3a12,12,0,0,1,.26-2.8,33.08,33.08,0,0,1,5.35-2.62,30.57,30.57,0,0,1,8.61-1.88c2.35-.19,2.53-.48,2.63-.63a.82.82,0,0,0,.05-.84c-.25-.43-.86-.7-3.17-.7h-1.94l-1.42-3.42.44-.57c1.89-2.49,9.59-6.27,15.84-7.79a64.18,64.18,0,0,1,6.39-1.07s3.75-.42,4.1-.53a.78.78,0,0,0,.62-.65c.07-.43-.14-1-2.14-2.37a27.08,27.08,0,0,1-3.13-2.41c-1.26-1.15-1.71-1.3-2-1.3a.6.6,0,0,0-.48.21.71.71,0,0,0-.16.48,2.61,2.61,0,0,1-1,.67,9.84,9.84,0,0,1-1.28-1c-1.57-1.46-1.78-1.54-4.54-1.83a17.8,17.8,0,0,0-1.87-.1,20.51,20.51,0,0,0-6.16,1.1l-.68.2,0,0c.66-.67-.46-2.25-1.19-3.13A22.77,22.77,0,0,1,174.16,57a19,19,0,0,1,.3-3.59c.46-1.79.25-2.69-.89-3.85s-1.77-1.74-2.87-1.74c-.23,0-.5,0-.82.05a28.3,28.3,0,0,0-7.38,2.29c-1.17.54-1.89.91-2.06,1.58s.34,1.42,1.18,2.53c.61.8,2.26,3.35,3.68,5.69,1.87,3.08,3.45,5.51,4.84,7.4a21.41,21.41,0,0,1-1.71-2.16c-5-7.63-6.86-9.92-9.27-11.12a11.36,11.36,0,0,0-5-1.24h-.54c1.43-.94,3.74-2.37,4.91-3A30.89,30.89,0,0,1,172,46.68l.94,0,.52,0-.18.06c-.73.28-.71.76-.68.9s.19.64,1.09.64c.67,0,1.06.18,1.73,1.32,1.19,2,2.41,8.34,2.42,12.51,0,3.29.45,5.37,1.6,7.4.18.32,1.79,3.12,2.76,3.12.22,0,.51-.11.62-.65a3.32,3.32,0,0,0,.07-.74c0-2.07-1.93-12.59-3-16.32-1.23-4.29-3.16-7.37-5-8.13a15.23,15.23,0,0,1,3.16.82,28.3,28.3,0,0,1,14,9.81c1.66,2.16,2.35,2.61,2.86,2.61a.75.75,0,0,0,.72-.52c.39-1,.07-2-1.18-4.59a28.63,28.63,0,0,0-4.24-6.4c2.63,2.26,4.82,4.9,5.54,6.78a10.47,10.47,0,0,0,.88,1.83l.77,1.11,1-1.39a32.1,32.1,0,0,1,5.26-5.55A26.26,26.26,0,0,0,198,59.26c-1.18,2.58-1.87,5.33-1.67,6.68.14,1,.92,2.44,1.82,2.44.41,0,.73-.18.73-2.39a15,15,0,0,1,1.87-6.85,23.65,23.65,0,0,1,7.55-9.28c1.52-1.14,1.9-1.3,2.51-1.3a4.33,4.33,0,0,0,2.73-1.21,43.66,43.66,0,0,1,8.87-4.4,24.39,24.39,0,0,1,8.8-1.39c6.07,0,12.17,1.65,16.33,4.42a39,39,0,0,1,6.71,6.68c1,1.34,4.59,6.81,6.16,9.44a41.37,41.37,0,0,0,3,3.77.47.47,0,0,0-.32-.13h-.5v.51c0,.2,0,.41,4,4.67,6.12,6.48,7.55,8.24,10.22,12.55A34.83,34.83,0,0,1,282,96.25a37.33,37.33,0,0,1,.59,11.22,33.68,33.68,0,0,1-1.88,9c-.17.52-.41,1.14-.66,1.8.29-1.65.57-3.32.68-4.32a50.62,50.62,0,0,0-.49-12.41c-1-5.34-2.93-10.09-5.31-13-.7-.87-2.35-2.41-3.14-2.41a.6.6,0,0,0-.45.18c-.28.27-.26.48.56,2,1.55,2.87,3.94,11.63,4.81,17.69.9,6.22,1,13.64.32,16.89a4.08,4.08,0,0,0-.16,2.15c-.23.94-3,5.89-6.34,10.69-1.58,2.29-3.75,5.21-5.19,7.07,1.79-3.44,5.54-9.78,8.9-14.94,1.9-2.92,1.79-3,1.49-3.32l-.14-.15h-.22c-.76,0-5.47,7.71-8.59,13,1.7-3.26,3.83-7.15,4.81-8.71.79-1.26,1.91-2.9,2.5-3.66,1.28-1.67,1.18-1.92.91-2.19l-.14-.14h-.23c-.56,0-2.09,2.13-3.19,3.76l-.16-.16h-.21c-.18,0-.46.3-.82.79.86-1.62,1.69-3.12,2.39-4.28,1.77-2.93,1.69-3,1.39-3.3l-.14-.15h-.22s-.44.07-1.67,1.93l-.05-.09h-.29c-.34,0-1.12,1.27-2,3a.41.41,0,0,0-.09-.1l-.14-.14h-.13c.13-.28.26-.54.39-.79,1.17-2.31,1-2.48.78-2.7l-.15-.15h-.21c-.43,0-1.46,1.92-2.38,3.83l0-.05-.3,0c-.63,0-2,2.74-4,8.14-.64,1.69-1.35,3.83-2,6.09.77-3.1,1.58-6.95,2.3-10.88l.19.23.26,0c.46,0,.59-.16,2.34-4.09,3.15-7.06,3.52-8,3.09-8.67a1.09,1.09,0,0,0-1-.39.53.53,0,0,1-.18,0c-.06-.5-.15-2.34-.18-5.06A87.18,87.18,0,0,0,267,95.49c-.18-1-.45-2.57-.6-3.52-.35-2.15-.73-2.15-1-2.15h-.24L265,90a1.35,1.35,0,0,0-.14,1,69.43,69.43,0,0,1,.86,7,65.45,65.45,0,0,0-2.89-13.26c-1.49-4.56-7.5-15.9-10.71-20.23a53.26,53.26,0,0,0-5.23-5.51,25.09,25.09,0,0,1,13.91,10.72A19,19,0,0,1,262,71.86c.12.38.41.82.84.82h.29l.18-.27c.36-.59-.85-3.09-1.61-4.52-3.12-6-10.51-10.7-18.82-12.09a28.92,28.92,0,0,0-4.61-.34,21.57,21.57,0,0,0-6.16.72C226.76,58,223,61.66,220.51,67.41c-1.15,2.66-2,6.45-1.47,7.91.08.2.27.72.74.72H220l.2-.23a1.49,1.49,0,0,0,0-1.24,4.29,4.29,0,0,1,.15-2.26c1.15-5.1,4.26-9.9,7.91-12.24a26.75,26.75,0,0,1,3.56-1.69l-.13.14a18.39,18.39,0,0,0-4.3,6.28,28.21,28.21,0,0,0-2.74,7.73c-.05.46-.07.69.11.88l.14.17h.24a.48.48,0,0,0,.32-.09c0,.19-.07.38-.09.56a.73.73,0,0,0,.12.62l.15.17h.23c.37,0,.47,0,1.18-2a2.53,2.53,0,0,0-.11,1.52l.15.24.33,0c.4,0,.69-.4.85-1.17a43.74,43.74,0,0,1,2.26-6l-1,2.85c-1.09,3.23-2.05,5.86-2.22,6.2a1.84,1.84,0,0,0-.3,1,3.26,3.26,0,0,1-.22.25c-.33.35-.63.71-.46,1.09l.13.3.39,0c.18,0,.45-.06,1.14-.51a9,9,0,0,0,1.84-1.83.78.78,0,0,0,.16.24l.14.14h.12l-.05.08a.83.83,0,0,0-.7.37l-.16.25.14.35a1,1,0,0,0,.89.39,1.87,1.87,0,0,0,1-.42.44.44,0,0,0,0,.4l.13.3.35,0a.72.72,0,0,0,.26-.07v0l.18.23.15.15h.23c.79,0,4.38-4.23,4.87-4.95A27.74,27.74,0,0,0,242.4,63.1a11.29,11.29,0,0,1-.93,4.85,28.52,28.52,0,0,1-5.84,8.84c-.95,1-.94,1.28-.83,1.54l.13.3.36,0c.68,0,2.67-2.44,3.84-4l.06.12.39,0h0c-.2.31-.4.6-.59.85-1.49,2-1.41,2.16-1.28,2.43l.14.27h.4l.08,0c.8-.27,3.47-4.35,4.37-6a28.09,28.09,0,0,1-3,5c-.78,1-.95,1.5-.94,1.77a11,11,0,0,1-2.33,2.13l-.26.19A1.49,1.49,0,0,0,236,81a1.19,1.19,0,0,0-1.13-.66c-.72,0-1.79.4-4.29,1.6a.66.66,0,0,0-.23-.17c-.06-1-1.09-1.15-3-1.39a6.91,6.91,0,0,0-1-.06c-.63,0-2.7,0-3,.66l-.15.26.16.31c.1.17.28.45,2.63.49a18.25,18.25,0,0,1,2.51.15,1,1,0,0,0-.09.42.94.94,0,0,0,.08.4.6.6,0,0,0,.4.31.69.69,0,0,0,.08.39.67.67,0,0,0,.62.33,6.65,6.65,0,0,0,2.54-1A16.68,16.68,0,0,1,234.64,82a4.12,4.12,0,0,1-.52,1.26,8.16,8.16,0,0,0-.78,1.76,1.15,1.15,0,0,0,.08,1,.89.89,0,0,0,.73.28A5.57,5.57,0,0,0,237,85c.51,0,1.26-.34,3.43-2a23.19,23.19,0,0,1,2.82-1.88,4.44,4.44,0,0,0,.92-.61c-.41.67-.35.79-.26,1l.14.27h.32c.53,0,.78-.21,4.75-6.19,1.8-2.71,3.56-5.3,3.94-5.78l.28-.36.82,1.27c.49.78,1,1.65,1.54,2.57l-.52-.06c-.93,0-4.64,4.88-5.14,5.88,0,0-1,2-.66,2.65l.15.24.31,0c.31,0,.43,0,1.3-1.84A25.07,25.07,0,0,1,255,74.84c.16-.14.68-.64.68-1.08v-.44a73.52,73.52,0,0,1,5.18,10.83,82.91,82.91,0,0,1,2.14,9,17.79,17.79,0,0,0-5.68-5.85c-.24-.15-.62-.4-.83-.56.48-.56.37-.92,0-1.53a1.46,1.46,0,0,1-.27-.51s.18-.12.73-.36c.81-.36,1.47-.7,1.35-1.27a.49.49,0,0,0-.06-.17c1.16,0,1.58-.08,1.71-.52a.66.66,0,0,0-.33-.74,1.59,1.59,0,0,0-.81-.31.82.82,0,0,0,0-.22c-.05-.53-.53-.67-2.32-.67a19.47,19.47,0,0,0-4.44.42c-1,.38-1.4.69-1.33,1.13a.59.59,0,0,0,.21.34,1.3,1.3,0,0,0-.71.64l-.07.24.15.29a.59.59,0,0,0,.5.24,1.45,1.45,0,0,0,.3,0,.36.36,0,0,0,0,.11.79.79,0,0,0,.86.54,2.76,2.76,0,0,0,.37,0c.33-.07,1.23-.19,2-.28a2.08,2.08,0,0,0-.11,1.08,3.63,3.63,0,0,1,0,.4h-.11c-1.07.15-1.37.69-1.46,1a1.3,1.3,0,0,0,.38,1.24.49.49,0,0,0,0,.11.47.47,0,0,0,0,.26.85.85,0,0,0-.17.2,1,1,0,0,0,.18,1l-.07.1c-.21.33,0,.66.3,1.32a13.42,13.42,0,0,0,.86,1.41.66.66,0,0,0-.19-.09l-.07,0-.15,0a.57.57,0,0,0-.5.29c-.2.34-.31.54,1.76,4.12l-.06.06c-.31.32-.63.64,2.43,7l1.21,2.55c-.67-1.15-1.33-2.21-1.95-3.08-1-1.47-1.29-1.57-1.57-1.57h-.29l-.17.27c-.11.2-.33.61,1.95,4.15a60.54,60.54,0,0,1,5.93,12.38,12.59,12.59,0,0,1,.37,1.33c-1.28-3.73-4-10-5.2-11.63l-.4-.56-.89.41.17.72c.12.49,1.22,2.86,2.19,4.84.13.26.25.51.37.77a2.14,2.14,0,0,0-.23-.34.65.65,0,0,0-.48-.24h-.27l-.09.14a18.71,18.71,0,0,0-1-3.29,12.39,12.39,0,0,1-.8-2.61,7.23,7.23,0,0,0-.87-2.38,14,14,0,0,1-1.13-3,28.49,28.49,0,0,0-4-8c-.67-1-1.48-2.29-1.83-2.91-.57-1.05-.91-1.19-1.18-1.19H247l-.21.27c-.33.52.23,1.35.34,1.51a55.08,55.08,0,0,1,3.53,7.92A30.52,30.52,0,0,1,251.4,110c-.23,2.34-1.55,10.38-2,12.19l-.33-.1a5,5,0,0,0-1.63-.29,2.65,2.65,0,0,0-1.82.59c-.22.2-.26.2-.34.2a4.5,4.5,0,0,1-.92-.19,15.23,15.23,0,0,1-4.18-1.86,2.83,2.83,0,0,0-1.2-.5h-.5l-.08.55a.76.76,0,0,0,.54.76,9.06,9.06,0,0,1,1.18,1,31.56,31.56,0,0,0,5,3l3.59,1.84,1.63,2.47c.94,1.41,2,3.18,2.39,3.95a22.86,22.86,0,0,1,1.67,4.56c0,.73.33.89.6.89a.45.45,0,0,0,.31-.09c-.88,2.71-1.65,5-1.73,5.24S253.38,144.8,254.6,145.55Zm13.33-60.07c2.47,6.66,3.8,14,4.33,23.55.13,2.41.28,2.9.86,2.9h.14l.15-.09c.31-.19.5-.3.34-4.68a66.17,66.17,0,0,0-4.43-21.91c-2.5-6.37-3.06-6.37-3.27-6.37h-.2l-.16.15a.43.43,0,0,0-.16.31h-.3l-.17.22a.76.76,0,0,0,0,.67c.52,1.47,1.13,3.68,1.72,6.13a.49.49,0,0,0-.28-.08h-.25l-.17.21a.84.84,0,0,0,0,.77c.38,1.25,1.79,8.45,1.94,9.86.19,1.86.41,2.06.82,2.06H269l.18-.19.05-.06c.27,1.2.43,1.2.74,1.2h.23l.16-.17c.14-.18.29-.34-.27-4-.3-2-.78-4.72-1.06-6.06C268.84,89,268.41,87.26,267.93,85.48Zm-46-36a27.85,27.85,0,0,0-8.61,1.79A21.17,21.17,0,0,0,201.59,62c-2.18,4.42-2.42,7.91-.78,11.33.7,1.44,2.17,3.73,3.16,3.73a.68.68,0,0,0,.49-.2c.48-.49,0-1.3-.42-2a14.28,14.28,0,0,1-1.84-6.44A12.12,12.12,0,0,1,203.54,63c3.29-7,10-11.5,18.46-12.25l2.07-.19,0-1ZM214.3,72a6,6,0,0,0,1.51,3.64c1,1.12,1.37,1.12,1.54,1.12a.6.6,0,0,0,.6-.64c0-.13,0-.28-.9-1.59-1.08-1.57-1.38-3.58-1-6.72a20.42,20.42,0,0,1,4.44-11.24,29.72,29.72,0,0,1,5.82-5.21c.44-.23.9-.52.79-1L227,50l-.47,0c-1.44,0-6.35,4.52-8.18,6.95a20.16,20.16,0,0,0-3.77,9c-.21,1.26-.34,1.54-.51,1.61a1.41,1.41,0,0,0-.37.25c0-.32,0-.69,0-1.1a18.68,18.68,0,0,1,.62-5.48,11.79,11.79,0,0,1,.7-1.81.76.76,0,0,0,.2-.76,2.07,2.07,0,0,1,.15-.33c.41-.81.25-1.08.18-1.19l-.14-.24h-.1a1.94,1.94,0,0,0,.29-1.59.63.63,0,0,0-.56-.34.64.64,0,0,0-.35.12l-.14-.32-.41,0c-.49,0-1,.62-1,.74l-.05.07H213l-.17-.32-.33,0h0a.69.69,0,0,0,0-.13l-.13-.3h-.35c-.21,0-.39.1-.73.41a.66.66,0,0,1-.16.12h-.13c-1,0-3,3.86-3,3.9-.14.3-.28.62-.42.94l0-.08c.12-.34.19-.55,0-.78a1,1,0,0,0,.07-.25l0-.23-.19-.24a.67.67,0,0,0-.48-.2c-.93,0-1.77,1.84-1.93,2.21-1.58,3.67-2.11,9.28-1.1,11.54.4.88.59,1.18,1,1.18h.25l.17-.21c.14-.19.21-.38-.14-1.63a.5.5,0,0,0,.18,0h.21l.16-.16c.15-.16.26-.28.1-2.32a17.47,17.47,0,0,1,.89-6.75,20.82,20.82,0,0,0-.88,5.53c0,.54,0,3.28.5,3.8l.15.15.25,0c.4,0,.51,0,.55-1.32h.18c0,.27.07.32.16.41l.14.15H208c.2,0,.33,0,.44-.24l0,.62.64,0a7.3,7.3,0,0,0,.55,3.22.63.63,0,0,0,.47.22.81.81,0,0,0,.29,0c.06.2.12.39.19.56.33.75.53,1.1.92,1.1h.24l.18-.2c.15-.19.2-.42,0-1.45a.51.51,0,0,0,.32.12h.22l.16-.16c.14-.16.24-.26.16-2.12a1,1,0,0,0,.59.23C213.83,72.86,214.08,72.52,214.3,72Zm-21.44-4.85a.68.68,0,0,0-.74.63c0,.43,2.42,6.53,2.45,6.58.27.6.68,1,1.11,1a.71.71,0,0,0,.54-.25,1.07,1.07,0,0,0,.2-.88.88.88,0,0,1,.13-.56c.42-.5.38-1.08,0-3.12-.21-1.29-.54-3.61-.73-5.16-.37-3.07-.59-3.53-1.17-3.53s-.71.71-.82,1.24c-.25,1.28-.07,3.21.67,6.88.08.42.15.78.2,1.08-.08-.17-.14-.33-.18-.44a23.41,23.41,0,0,1-1-2.6A.77.77,0,0,0,192.86,67.14Zm-12.7-16.72a.64.64,0,0,0-.46.22c-.78.78,2.26,11.59,2.3,11.7a47.41,47.41,0,0,1,1.18,5c.58,3.61.62,3.82,1.18,3.82.16,0,.44-.06.55-.51a19.82,19.82,0,0,0-.36-3.31c-.05-.31-.12-.67-.2-1.06.22.93.38,1.84.52,2.77.1.71.22,1.26.72,1.26h.4l.13-.47a16.1,16.1,0,0,0-.29-3,29.42,29.42,0,0,0-1.08-4.2,33.09,33.09,0,0,1,1.8,4.62c.52,2.23.6,2.57,1.12,2.57a.6.6,0,0,0,.57-.46,6.64,6.64,0,0,0-.37-2.38c-.05-.17-.12-.39-.2-.63.35.63.51.64.7.64h0a.72.72,0,0,0,.53-.2l.15-.15v-.25c0-.11,0-.23-1.48-3.56l-1.06-2.39s-2.33-5.19-3.22-5.19H183l-.16.24a.42.42,0,0,0-.07.3h-.29l0,0-.23-.92-.35-1.52-.57.08C180.71,50.42,180.66,50.42,180.16,50.42Zm8.12,9.76a24.91,24.91,0,0,1,3.26,5.88c.06.21.24.81.74.81h.21l.18-.17c.13-.13.33-.33-.15-1.77-.84-2.52-4.8-8.3-8-11.67-1.69-1.77-1.94-1.77-2.12-1.77h-.2l-.16.14c-.29.3-.2.75.25,1.25l.12.15c0,.3.25.9,1.62,2.76.9,1.22,2,2.82,2.44,3.57.84,1.42,1.08,1.42,1.29,1.42h.36l.14-.36A.61.61,0,0,0,188.28,60.18Zm-64.47,84.38a8.33,8.33,0,0,1-1.9-1.83c-1.15-1.66-1.46-3.22-1.31-6.65.3-7.2,2.85-14.82,7.59-22.72l.48,0a.53.53,0,0,0,.22,0,7,7,0,0,0-.57,1,13,13,0,0,0-1.14,7.29,24.5,24.5,0,0,0,3.22,10.73c.76,1.38,3.25,5,4.34,5h0c.63,0,.84-.9.9-1.28a3.88,3.88,0,0,0-.21-1.92,11.29,11.29,0,0,1-.46-2.46c-.15-1.61-.11-1.66.19-2a4.56,4.56,0,0,0,.75-1.08l-.09,1.62a4.3,4.3,0,0,0,.23,1.82c.41.62,1.94.69,2.58.69l.5,0a9.27,9.27,0,0,0-.68,1.68,18.75,18.75,0,0,0-.8,4.38,3.19,3.19,0,0,0-.19-.73l-.14-.26-.33,0a.53.53,0,0,0-.16,0,18,18,0,0,0,1.36-4.22c0-.65-.39-.72-.55-.72-.45,0-.6.38-1,1.56-.3.9-1.08,2.77-1.74,4.18-1,2-1.07,2.65-1,2.91-.34-.36-.86-.87-1.65-1.62-1.66-1.56-2.73-2.35-4-2.35a3.44,3.44,0,0,0-.91.13c-1.89.47-3.55,3.47-3.55,6.41C123.83,144.29,123.82,144.44,123.81,144.56Zm2.41-26.23c-.49,0-.77.29-2,3.6-2.64,7.31-3.88,14.64-3,17.83.15.57.58,1.89,1.25,1.89h.23l.19-.2c.17-.2.21-.25-.19-2.31a12.1,12.1,0,0,1-.19-1.24c.27.81.6,1.16,1.07,1.16h.26l.19-.25c.08-.11.25-.37-.14-1.32a7.29,7.29,0,0,1-.31-1.66,5.59,5.59,0,0,0,.27.73c.41.94.61,1.25,1,1.25h.26l.17-.22c.09-.13.19-.26,0-1,.24.39.4.5.64.5h.26l.17-.22c.14-.2.26-.36-.42-2.37a24.8,24.8,0,0,1-.91-4.13,24.41,24.41,0,0,0,3.11,5.89c.17.23,1,1.38,1.73,1.38a.67.67,0,0,0,.43-.16l0,0a3,3,0,0,0,1.92,1,1,1,0,0,0,1.05-.53c.26-.55-.08-1.28-1.2-2.59a27.58,27.58,0,0,1-4-6.88,16.76,16.76,0,0,1-1.3-7.56c.1-1.84,0-2.26-.22-2.51l-.15-.15ZM273,144a19.44,19.44,0,0,1-.87-1.8c-1.26-2.92-1.41-2.92-1.74-2.92h-.06c.37-.5.71-1,1-1.37l1.5-2.1,0,.88a17.3,17.3,0,0,0,1.45,6.28,1.67,1.67,0,0,0-.52-.09.83.83,0,0,0-.74.33A.89.89,0,0,0,273,144Zm-65.31-4.73a3.88,3.88,0,0,0-.63-1.07,1.53,1.53,0,0,0,.64.17,2.86,2.86,0,0,0,1.35-.81c-.45.56-.89,1.15-1.33,1.79Zm-21.35-4.48-.24-.52a2.64,2.64,0,0,0,.66.72,1.84,1.84,0,0,0-.2.31Zm-50.38-6.11a7,7,0,0,0,.39-3.42,15,15,0,0,1-.05-1.72,14.82,14.82,0,0,0,0-4,20.34,20.34,0,0,0,1.49,5.46l.5,1.07.2,0c0,.32,0,.58,0,.79,0,.7.07,1.42.69,1.42h.2l.22-.19c.72-.72.72-14.48.51-17.61a58.4,58.4,0,0,1,.42-11.59l.35-2.85,2-3.27c.43-.69,1-1.72,1.74-2.91a.63.63,0,0,0,0,.49.6.6,0,0,0,.57.33,2.36,2.36,0,0,0,1-.36,4.48,4.48,0,0,0,.83-.61c-.08.09-.18.2-.27.32-1.44,1.76-4.73,5.32-5.26,5.74-.89.7-.64,1.27-.54,1.43a.91.91,0,0,0,.24.28,1.49,1.49,0,0,0-.44.78.62.62,0,0,0,.17.51l.15.15.3,0c.34,0,.78-.23,2.13-1.41.16-.15.36-.34.58-.57a.62.62,0,0,0,0,.12,1.54,1.54,0,0,0,.46.89.79.79,0,0,0-.45-.12,4.7,4.7,0,0,0-2.27,1c-.88.67-1.3,1.23-1.31,1.76a1.07,1.07,0,0,0,.26.8.72.72,0,0,0,.54.22l.22,0-1.27,1.28v3.31c0,3.13.18,4.53,1.21,4.53.11,0,.24,0,.53-.28-1.26,1.58-1.38,2.77-1.38,8.14,0,5.58.08,6.69.34,7.2a.76.76,0,0,0,.74.38,8.83,8.83,0,0,0,2.89-1,25.26,25.26,0,0,0-2.19,1.92l-1.57,1.51Zm123.1-4.5a9.31,9.31,0,0,0-.65-2.73l-.54-1.37.38-.74a5.27,5.27,0,0,0,.34-.9c.23.68.54,1.52.85,2.32h-.29l-.16.15c-.2.2-.26.26.25,2.31ZM135.55,113.6c-.13-1.16-.22-2.17-.22-2.61v-.1C135.41,111.86,135.48,112.76,135.55,113.6Zm-.28-3.64c-.11-.59-.38-1.16-1.08-1.16a2.2,2.2,0,0,0-1.22.51l-.27.2c1.84-1.91,1.76-2.19,1.5-2.46.77-.9.68-1.12.6-1.31l-.13-.3-.36,0c-.22,0-.44.11-1,.67-.13.12-.56.61-1.12,1.28l1.12-1.52c.65-.86,1.18-1.54,1.56-2,.08,1,.19,2.57.33,4.55C135.19,108.93,135.23,109.45,135.27,110Zm7.26-.17c.16-.22.35-.49.58-.83s.45-.69.61-1a5.76,5.76,0,0,1-1.05,1.67Zm119-1.1a19.7,19.7,0,0,1-1.73-3.47l-.84-1.9a48.54,48.54,0,0,1,2.3,4.54c.14.32.25.6.35.85ZM144.13,106.6a1.81,1.81,0,0,0-.42-1.11,3.89,3.89,0,0,0,.47.09h.12c0,.14-.05.34-.07.48S144.17,106.43,144.13,106.6Zm-1.3-2c-.37-.34-.53-.58-.55-.8,0-.43.46-1.1,1.22-2A5.81,5.81,0,0,0,142.83,104.62Zm119-3.75c-2.42-2-2.82-2-3-2a.8.8,0,0,0-.43.12c-.53-.75-1.66-2.59-3.24-5.42a73.59,73.59,0,0,0,5.23,5.79ZM144.14,99.5a6,6,0,0,0,.49-.55l-.21.58Zm4.92-9.82h-.21a.39.39,0,0,0-.21,0,1.36,1.36,0,0,0,0-.18.66.66,0,0,0-.18-.47l-.15-.14-.24,0a.79.79,0,0,0-.49.19,20.17,20.17,0,0,0,2.75-3.18,1.42,1.42,0,0,0,.11-.18,5.38,5.38,0,0,0-.36,1.34,8.84,8.84,0,0,1-.9,2.72Zm-3.89-.9c1.05-1.82,2.21-3.88,3.21-5.7,3.21-5.88,4.55-8.15,5.84-9.75l.14.31.37,0,.13,0a9.45,9.45,0,0,0-1.57,1.7c-.72,1.05-.89,1.4-.76,1.71-.14.2-.34.48-.61.84A31.8,31.8,0,0,0,149.45,82a41.54,41.54,0,0,1-4,6.45Zm-2.28-4.08a81,81,0,0,1,3.28-10.94,85.38,85.38,0,0,1,4.75-9.44c.18-.2.46-.53.29-.9a.62.62,0,0,0-.61-.34c-.14,0-.52,0-2.39,1.9a14.15,14.15,0,0,0-3.14,4.61,51.78,51.78,0,0,0-2.44,6c.66-2.51,1.38-4.95,2-6.73,2.5-6.82,5.07-10.61,8.31-12.3a5.68,5.68,0,0,1,2.6-.55,7.16,7.16,0,0,1,3,.61A17.61,17.61,0,0,1,163,60.47a.75.75,0,0,0,.56.73,2.78,2.78,0,0,1,.38.48c.33.53,1.14,1.64,2.1,2.9-1.26-1.55-2.29-2.77-2.32-2.79a1.1,1.1,0,0,0-.7-.35h-.32l-.17.31c-.12.25-.33.67,2.66,4.37l.29.38-.09,0-.32.12,0,.13a2.41,2.41,0,0,0-1-.46,2.9,2.9,0,0,0-.62-.06c-2,0-5.91,1.65-8.44,3.6-2,1.57-3.9,3.91-7.17,9-1.86,2.88-4.14,6.26-5.46,8.15C142.53,86.33,142.7,85.54,142.89,84.7Zm9.05-2.29a22,22,0,0,1,3.5-5.78c1.74-2.07,5.81-4.43,7.64-4.44.43,0,.91,0,1-.44a.44.44,0,0,0,0-.28.56.56,0,0,0,.3-.34l0-.15c.13,0,.48-.11.49-.65a1,1,0,0,0-.28-.69,1.56,1.56,0,0,0-.2-.16.74.74,0,0,0,.33-.28c.08.55.31.83.68.83s.67-.39.67-1.17a2.38,2.38,0,0,0-.21-.94,13.06,13.06,0,0,1,1.95,1.72,14.08,14.08,0,0,0,1.68,1.61,1.91,1.91,0,0,0-.93-.26,2.55,2.55,0,0,0-1.63.81,1.78,1.78,0,0,1-1.59.59c-1.8,0-3,.2-3.37,1.21a1.13,1.13,0,0,0,.2,1.34c-.39.06-.92.13-1.38.17-2.45.24-5.74,2.35-7.49,4.81A20.29,20.29,0,0,0,151.94,82.41ZM176.33,74a17.38,17.38,0,0,1-6.39-2.49l-.15-.11a.69.69,0,0,0,.3.07.59.59,0,0,0,.58-.64A7.28,7.28,0,0,0,169.55,69a12.83,12.83,0,0,0,.9,1c.93.93,3.36,2.79,4.12,2.79h.21l.21-.17a.9.9,0,0,0,.15-.19,13.36,13.36,0,0,0,5,1.81l-1,.29Zm56.14-1.2c.5-.94,1-2,1.43-3,.51-1.18,1.47-4,2.15-6.19.23-.73.43-1.38.62-1.94a18.46,18.46,0,0,1-2.16,7.52C233.92,70.36,233.17,71.66,232.47,72.79Zm11-6a16.52,16.52,0,0,0,.88-3.3c0-.09,0-.21.05-.33a4.47,4.47,0,0,1-.06.46,18.72,18.72,0,0,1-.79,3.12Z"/><path d="M132.38,192.91c.15-.15-.5-1.35-2.16-4a11.68,11.68,0,0,0-1.55-2.21,24,24,0,0,0,1.75,3.22A21.78,21.78,0,0,0,132.38,192.91Z"/><path d="M254.82,91.4A41.81,41.81,0,0,0,260.53,98a33,33,0,0,0,3.49,3.29c.42,0-.19-.72-2.56-3-1.21-1.15-3.14-3.18-4.29-4.51C254.62,90.85,254.25,90.46,254.82,91.4Z"/><path d="M261.55,97.72c.32,0-1.31-1.87-3.83-4.41-3.1-3.13-1.84-1.44,1.73,2.31A29.32,29.32,0,0,0,261.55,97.72Z"/><path d="M249.59,67.16c.07-.33-.25.28-.7,1.35C246.15,75,243.35,79,238.82,82.91l-1.19,1,1.17-.8a37.45,37.45,0,0,0,6.57-6.42c1.63-2.17,3.72-6.34,3.95-7.88C249.4,68.24,249.53,67.49,249.59,67.16Z"/><path d="M261.15,143.46c0,.1.06.13.12.07a20.82,20.82,0,0,0,1-3.93A25.44,25.44,0,0,0,261.15,143.46Z"/><path d="M262.37,138.91c0,.14.09.08.21-.12a1.37,1.37,0,0,0,.22-.71C262.79,137.7,262.39,138.46,262.37,138.91Z"/><path d="M194.13,193.36c-.11.69-.1.69.49-.24a3.6,3.6,0,0,0,.61-2V190l-.49,1.31A14.83,14.83,0,0,0,194.13,193.36Z"/><path d="M211.34,58.38a4.15,4.15,0,0,0,.51-1.25,11.21,11.21,0,0,0-1.32,2.54C210.53,59.94,210.67,59.71,211.34,58.38Z"/><path d="M211.26,66.54c0,.25.05.4.13.32a.48.48,0,0,0,0-.46C211.33,66.21,211.28,66.26,211.26,66.54Z"/><path d="M163.85,68.59a1.08,1.08,0,0,0-.79-.21l-.65,0,.6.19C163.86,68.86,164,68.86,163.85,68.59Z"/><path d="M137.48,130.56a1.89,1.89,0,0,1,0-.31,1.81,1.81,0,0,1,.45.47l.12.15h-.6Z"/><path d="M162.23,68.69a.48.48,0,0,0-.46,0c-.19.07-.13.13.15.14S162.31,68.77,162.23,68.69Z"/><path d="M227.78,176.47a3.54,3.54,0,0,1-.9-.1c-.29-.07-2-.23-3-.32a9.38,9.38,0,0,1-4.16-1c-.39-.19-.8-.4-1.2-.64.25,0,.56-.07,2.35-2.78,2.8-4.23,6.69-11.17,7-12.74a3.73,3.73,0,0,0-.51-2.44c-1.1-2.33-2.66-3.21-7.58-4.26-2.12-.45-7.06-1.56-11.25-2.54a9.1,9.1,0,0,0-1.63-.26.65.65,0,0,0-.48.17.22.22,0,0,0-.07.09,18.21,18.21,0,0,1,.48-3.65,15.8,15.8,0,0,1,.68-1.95c.2.46.77.52,1.72.64,2,.24,6.19,1.12,10.4,2.12l0,0v.28c0,.39,0,.57,3.19,1.35,6.69,1.63,8.09,2.14,9.32,3.42s1.18,2.08-1,6.13a7.8,7.8,0,0,0-1,2.12v.5l.47.08c-1.47,2.61-2.93,5.06-3.51,5.87-.41.56-1.75,2.52-2.88,4.19-1.33,2-2.33,3.41-2.46,3.55a.94.94,0,0,0-.26,1,.9.9,0,0,0,.93.49c.21,0,.56,0,2.71-3a99,99,0,0,0,6.22-9.77c4.56-8.25,4.84-8.74,4.3-10.79a8.67,8.67,0,0,0-3.62-4,44.74,44.74,0,0,0-7.54-2.16c-1.65-.33-3.7-.81-4.59-1.05s-2.88-.7-4.34-1-3.55-.76-4.74-1.08a9.79,9.79,0,0,0-2.09-.44,1,1,0,0,0-.57.15,23.56,23.56,0,0,1,1.61-2.84c1.67-2.46,5.74-5.19,9.07-6.1a28,28,0,0,1,7.11-.8A34.18,34.18,0,0,1,238.15,135c4.67,1.95,6.81,3.19,8.2,4.73a14.7,14.7,0,0,1,3.76,7.11,15.55,15.55,0,0,1,.59,5.63,16.85,16.85,0,0,1-.79,5.36,21.62,21.62,0,0,1-3.46,7.23,31.78,31.78,0,0,1-6.61,7.21,24.17,24.17,0,0,1-6.39,3.33,32.64,32.64,0,0,1-5.67.91Zm-11.15-36.33a1.74,1.74,0,0,0,1.89,1.78,2.22,2.22,0,0,0,1.67-.74,2.66,2.66,0,0,0,.69-1.58c0-.49,1.66-2.42,3.44-3.32.68-.35,1.47-.84,1.51-1.57a1.46,1.46,0,0,0-.82-1.25,1.73,1.73,0,0,0-1-.35,11,11,0,0,0-2.13.39c-4.19,1-8,2.9-10,5-1,1.12-1.34,1.76-1.11,2.27a.93.93,0,0,0,1,.5,8.46,8.46,0,0,0,2.48-.58,11.28,11.28,0,0,1,2.4-.68A.28.28,0,0,1,216.63,140.14Zm.26,31.48a7.35,7.35,0,0,1-1-.83l-.84-.83.24-.31a2,2,0,0,1,.68-.56,1.46,1.46,0,0,0,1-.75,1.37,1.37,0,0,0,.11-1.18,1,1,0,0,0-.27-.41.72.72,0,0,0,.21-.05.44.44,0,0,0,.06.16.87.87,0,0,0,.8.37c.66,0,1-.2,1-.59a.57.57,0,0,0-.17-.42l.17-.05a.87.87,0,0,0,.67.34.73.73,0,0,0,.51-.2A49.65,49.65,0,0,1,216.89,171.62Zm-3.24-4.74c-.19,0-.85-.71-1.16-1l-.35-.36a6.77,6.77,0,0,0,1,.1,1,1,0,0,0,.53-.11.57.57,0,0,0,0,.18l.1.36h.39a1.16,1.16,0,0,0,.38-.08h0a1.1,1.1,0,0,0,.28.2.75.75,0,0,0,.12.4l.05.07a8.29,8.29,0,0,0-1.29.27Zm6.67-1a1.23,1.23,0,0,0,0-.19c0-.6-.65-1-1.27-1H219a.6.6,0,0,0,.14-.39.73.73,0,0,0-.07-.29c.36,0,.7-.11.83-.42l.13-.31-.27-.32a2,2,0,0,0-1-.4.45.45,0,0,0,.06-.23,1.34,1.34,0,0,0,.36.06h.13a1.29,1.29,0,0,0,.25.2,1.15,1.15,0,0,0,.61.21h0a.71.71,0,0,0,.6.34.6.6,0,0,0,.51-.26.83.83,0,0,0,0-.77c-.18-.46-.4-.68-.7-.68a.59.59,0,0,0-.22,0,1,1,0,0,0-.54-.25l0,0a.54.54,0,0,0,.15-.26.75.75,0,0,0,.26,0,.87.87,0,0,0,.37-.07l0,.06a1.13,1.13,0,0,0,.95.49.74.74,0,0,0,.82-.71c0-.59-.81-.95-1.25-.95a.76.76,0,0,0-.4.11,1.5,1.5,0,0,0-.26-.21.76.76,0,0,0-.38-.11.59.59,0,0,0-.53.3,1.13,1.13,0,0,0-.87-.61.62.62,0,0,0-.44.18c-.4-.38-.64-.42-.78-.42h-.32l-.15.27a1.17,1.17,0,0,0-.36-.21.94.94,0,0,0-.47-.59.68.68,0,0,0-.38-.12.59.59,0,0,0-.37.13,1.15,1.15,0,0,0-.77-.45h-.32l-.09.15a1.78,1.78,0,0,0-.24-.24.92.92,0,0,0-.57-.27h-.23l-.11.11a.74.74,0,0,0-.54-.22.65.65,0,0,0-.57.32l-.06.16H212a.63.63,0,0,0-.57.32.64.64,0,0,0,0,.49l-.19,0a.9.9,0,0,0,.13-.49.63.63,0,0,0-.09-.33.8.8,0,0,0,.09-.39.76.76,0,0,0-.23-.53l1.62.32c2.51.48,8.64,2.06,9.93,2.56a1.75,1.75,0,0,1,.47.28A46.21,46.21,0,0,1,220.32,165.88Zm-4.11-.37a.74.74,0,0,0-.39-.34.78.78,0,0,0,.22-.59v-.09l.49.08h.07a.59.59,0,0,0,.36-.13.56.56,0,0,0,0,.12,1.23,1.23,0,0,0-.26.33,1,1,0,0,0-.15.46A.61.61,0,0,0,216.21,165.51Zm-2.22-.63-.29-.28c-.07-.07-.2-.18-1.3-.37a4.82,4.82,0,0,0-.67-.07.58.58,0,0,0-.6.38v0a1.48,1.48,0,0,0-.46-.21,1,1,0,0,0,0-.25h.16a.88.88,0,0,0,.92-.86v-.1a3.16,3.16,0,0,0,.92.22h.13a1,1,0,0,0,.26,0l0,.06a1.2,1.2,0,0,0,.94.45.68.68,0,0,0-.18.46.73.73,0,0,0,.26.57l-.18.13Zm3-2.73a2.2,2.2,0,0,0-.64-.09h-.12a1.24,1.24,0,0,0-.22-.28.85.85,0,0,0,0-.32h.2a1.34,1.34,0,0,0,.57.32l.2,0h0A.58.58,0,0,0,217,162.15Zm-4.48-.47,0,0a.66.66,0,0,0,.1-.51.79.79,0,0,0,.42.12h0a.71.71,0,0,0,.51-.2.65.65,0,0,0-.17.43,1,1,0,0,0-.24,0,.72.72,0,0,0-.59.3A.45.45,0,0,1,212.5,161.68Zm-4.28-.09c-.12-.35-.24-.71-.35-1.1a.6.6,0,0,0,.27.06.73.73,0,0,0,.3-.07,3.75,3.75,0,0,0,.67.63l.15.09-.1.08a.75.75,0,0,0-.94.31Zm9.64-.43a2.36,2.36,0,0,0-.26-.36,1.89,1.89,0,0,0-.47-.4.63.63,0,0,0,.17-.19,1.15,1.15,0,0,0,.14.17,1.33,1.33,0,0,0,.88.55h.2l.06-.05.12.12h-.14A1.09,1.09,0,0,0,217.86,161.16Zm-4.8-1.85a1.12,1.12,0,0,0-.4-.16s0,0,0-.05h.14a.54.54,0,0,0,.22,0Zm-4.73-1.7c-.05-.37-.13-.85-.62-.85s-.52.33-.6.52a.73.73,0,0,0-.05.12q-.15-.66-.3-1.38a4.56,4.56,0,0,0,1.94.66l.44.09a.61.61,0,0,0-.54.64v0A1,1,0,0,0,208.33,157.61Zm1.63-.4a1.26,1.26,0,0,0-.37-.34l-.05,0,.7.14A.63.63,0,0,0,210,157.21Z"/><path d="M265.07,165.38c-.2-.08.38,1,1.29,2.38a27.25,27.25,0,0,1,2.1,3.65c.23.62.47,1,.52.85.14-.43-1.25-3.24-2.47-5a7.07,7.07,0,0,1-1-1.66c.13-.13,1.55,1.83,2.42,3.33.36.63.71,1.1.77,1,.28-.28-3.14-5.41-3.6-5.41-.14,0-.12.13,0,.29C265.57,165.27,265.52,165.55,265.07,165.38Z"/><path d="M212.11,63a.51.51,0,0,0,0-.46c-.07-.19-.13-.14-.14.14S212,63.11,212.11,63Z"/><path d="M264,165.3c-.12,0,.13.56.58,1.25l1.7,2.65c.49.77,1.33,2.31,1.86,3.41a6.82,6.82,0,0,0,1.09,1.89C269.61,174.11,264.61,165.3,264,165.3Z"/><path d="M212.34,62.08a.48.48,0,0,0,0-.46c-.07-.19-.13-.13-.14.15S212.26,62.16,212.34,62.08Z"/><path d="M263,165.3a7,7,0,0,0,1.19,2,36.38,36.38,0,0,1,4,6.95c.1.44.21.59.26.37.11-.48-.84-2.65-2-4.6S263.31,165.3,263,165.3Z"/><path d="M269.64,158.69c.44.94.81,1.55.81,1.36a6.08,6.08,0,0,0-.48-1.44c-.27-.59-.38-1-.25-.83a21,21,0,0,1,1.84,4.55c.08.45.23.77.33.7s.48,1.3.48,2.69c0,.56.07,1,.16,1,.34,0-.17-4.31-.75-6.32a19.65,19.65,0,0,0-4.56-8.42,7.89,7.89,0,0,0-2.12-1.73c-.27,0,0,.36.8,1a16,16,0,0,1,4.12,5.59c1.17,2.48,1.18,2.86,0,.67a19.1,19.1,0,0,0-3.84-5.2c-2.1-2-2.29-1.2-.24,1A18.77,18.77,0,0,1,269.64,158.69Z"/><path d="M268.34,158.19c.27.52.54.89.61.83.24-.24-.94-2.15-3.05-4.94-1.9-2.51-2.6-3.24-2.6-2.73,0,.08,1,1.43,2.28,3A38.94,38.94,0,0,1,268.34,158.19Z"/><path d="M214.86,56.24c.29-.38.29-.39-.09-.09a1.53,1.53,0,0,0-.42.41C214.35,56.76,214.54,56.63,214.86,56.24Z"/><path d="M232.74,75.64c-.31.32-.51.59-.44.59a3.11,3.11,0,0,0,.68-.59c.3-.33.5-.6.44-.6A2.6,2.6,0,0,0,232.74,75.64Z"/><path d="M166.93,299.13a19,19,0,0,1-8.28.45c-.23-.06-.42,0-.42.14a.26.26,0,0,0,.26.25,14,14,0,0,1,2.26,1.57,26,26,0,0,0,3.38,2.26c1.35.69,1.37.71.58.71s-.75.06-.54.32.2.39.11.48.29.34.84.56c1,.37,1,.41.6.83s-.34.51-.12.73c.43.44.33.61-.44.78s-.93.47-.42.68c1.33.54,2.7-.57,1.81-1.45-.21-.22-.2-.37,0-.66.39-.47.09-.83-1-1.24-.61-.22-.66-.28-.24-.29s1-.5.5-.5c-.25,0-.25,0,0-.2.39-.24.13-1-.34-1a15.32,15.32,0,0,1-4.24-2.24l-1.41-1,2.85-.14c2.66-.14,5-.6,5.82-1.16C169.06,298.66,168.34,298.71,166.93,299.13Z"/><path d="M254.61,202.25a.48.48,0,0,0,0-.46c-.08-.19-.14-.13-.15.14S254.53,202.33,254.61,202.25Z"/><path d="M248.61,72.23l-.38.78.48-.6c.47-.57.63-1,.39-1A2.29,2.29,0,0,0,248.61,72.23Z"/><path d="M180.86,307.08c-1.18-2.23-9.36-11-13.06-14a17.32,17.32,0,0,1-2.58-2.49c-1-1.47-2.09-2.17-7.45-4.66-1.23-.57-4.49-2.09-4.78-2.54a8.93,8.93,0,0,0-3.4-3.33l-.67-.34.14-.24a2.12,2.12,0,0,0,.14-2l0-.06c1.65,1.19,6.3,4.65,11.4,8.48L171.38,294,173.8,297c1.36,1.64,3.66,4.46,5.11,6.26a37.09,37.09,0,0,0,2.75,3.21,5.45,5.45,0,0,1-.44.39l-.36.28Zm-35.3-29.34c-1.48,0-5.55-1.34-9.33-3-2-.91-2.81-1.18-3.5-1.18a2.22,2.22,0,0,0-.37,0l-.32,0c-.28,0-.52-.19-1.54-1.24-1.83-1.88-2.09-2.35-2.09-3.09,0-.24,0-1.07-.48-1.34l-.12-.07-.22,0c-.22,0-.88,0-4.46,2.91a12.77,12.77,0,0,1-7.22,3.08c-2.51.32-4,.48-4.8.49.69-1.77,4-8.76,8.57-17.8L125,246h2.72c4.65,0,8.68-1.16,11.35-3.27a3.27,3.27,0,0,0,.35-.3c-.15.16-3.13,3.12-3.13,3.12V247c0,5,1.4,14,2.63,15.53a14.29,14.29,0,0,1,.83,1.46c.34.67,1.58,2.73,2.83,4.7s2.37,3.78,2.57,4.12a14.44,14.44,0,0,0,3,3.78l-.14,0-.27,0a1.22,1.22,0,0,0-1.17.84C146.38,277.73,146.38,277.74,145.56,277.74Zm-5.12-36.38a17.66,17.66,0,0,0,2-3.05l-.21.43A10.71,10.71,0,0,1,140.44,241.36Z"/><path d="M121.52,286.14a15.08,15.08,0,0,0,2.21,1.2c2,1,3.38,1.48,3,1.08C126.51,288.24,121.7,286.12,121.52,286.14Z"/><path d="M132.88,275.76a11.38,11.38,0,0,1-1.77-.13,4.92,4.92,0,0,1-2.7-1.54c-1-.93-1.48-1.78-1.34-2.31.05-.22.16-.22.19-.22a.74.74,0,0,1,.56.46,7,7,0,0,0,5.39,3.35,6.51,6.51,0,0,1,.77.13.35.35,0,0,0,0,.12v.09a7,7,0,0,1-.82,0Z"/><path d="M118.08,281.86c-4-1-6-1.71-7.43-2.7l-.77-.53.47.53c.78.9,3.65,2.14,7.53,3.24a34.89,34.89,0,0,1,8.36,3.11c2.22,1.16,2.3,1.19,2.49.88s-.52-.84-2.25-1.7A34.08,34.08,0,0,0,118.08,281.86Z"/><path d="M178,323.79a2.65,2.65,0,0,1-1-.19,6.27,6.27,0,0,1-2.47-3.08,3.49,3.49,0,0,1,.3-3.2,3.62,3.62,0,0,1,3-1.32,3.24,3.24,0,0,1,2.84,1.49,4.74,4.74,0,0,1,0,4.58,3,3,0,0,1-2.67,1.72Zm-.75-7.57a2.11,2.11,0,0,0-1.52.82,2.44,2.44,0,0,0-.84,2.08,3.68,3.68,0,0,0,2,3.4,3,3,0,0,0,1.13.35c.49,0,.81-.32,1.29-.79.91-.92,1.08-2.09.57-3.93a2.08,2.08,0,0,0-1.35-1.58A3.52,3.52,0,0,0,177.29,316.22Z"/><path d="M252.08,211.15a1.34,1.34,0,0,0-.23.59c0,.13.1.08.23-.12a1.48,1.48,0,0,0,.23-.59C252.31,210.89,252.2,211,252.08,211.15Z"/><path d="M181.4,315.38a4.08,4.08,0,0,0-1.18-.71l0,0a36.47,36.47,0,0,1,3.62-1.37,6.82,6.82,0,0,1-.61.46,7.81,7.81,0,0,0-1.7,1.49A.76.76,0,0,1,181.4,315.38Z"/><path d="M187.87,312.15c-.21,0-1.16,3.14-2.46,8.12-.73,2.8-.77,3.25-.79,7.16,0,2.3.09,5.39.21,6.87.41,4.76.64,2.86.48-3.82-.12-4.75-.08-6.9.13-7.94.49-2.39,2.11-9,2.38-9.73C188,312.45,188,312.15,187.87,312.15Z"/><path d="M122.42,285.87a4,4,0,0,0,1.37.81c1.16.51,2.3.84,1.95.56A14.45,14.45,0,0,0,122.42,285.87Z"/><path d="M171.66,322.23a15.74,15.74,0,0,1,1.09-2.73h0a2.58,2.58,0,0,1,0,.37,6.13,6.13,0,0,0,.53,2c0,.09.07.18.11.26a.82.82,0,0,0-.64-.3,2.22,2.22,0,0,0-.83.25A2.53,2.53,0,0,0,171.66,322.23Z"/><path d="M176.77,309.35l-.13.12a11.42,11.42,0,0,0,1.07-2.47c.11-.33.19-.55.25-.69a12.65,12.65,0,0,1,1.72,2.26,5.55,5.55,0,0,1-.88,1.06l-.75.73Z"/><path d="M254.13,201.53a.48.48,0,0,0,0-.46c-.08-.19-.13-.13-.14.15S254.05,201.61,254.13,201.53Z"/><path d="M233.75,66.15q.25-.74.51-1.53Q234,65.37,233.75,66.15Z"/><path d="M199.21,191.5a.48.48,0,0,0,0-.46c-.08-.19-.13-.13-.14.15S199.13,191.58,199.21,191.5Z"/><path d="M207.45,196.46c-.27.16-.31,0-.18-.62l.16-.81-.47.77a1.73,1.73,0,0,0-.34,1.14c.18.45.17.46.71-.16C207.58,196.49,207.63,196.35,207.45,196.46Z"/><path d="M235.36,71.93c-.14.27-.2.48-.13.48s.23-.21.37-.48.2-.47.14-.47S235.5,71.67,235.36,71.93Z"/><path d="M241,60.37a26.42,26.42,0,0,1-5.11,14.38c-.77,1.07-1,1.59-.67,1.25,1.77-1.64,4.67-7,5.63-10.34.55-1.95.88-6.87.52-7.8C241.22,57.42,241.13,58.05,241,60.37Z"/><path d="M245.78,67.22a42.07,42.07,0,0,1-4.64,9.45c-.62.84-1.27,1.76-1.44,2s.17,0,.78-.69a27.58,27.58,0,0,0,6-10.79C247.47,63.73,247.07,63.72,245.78,67.22Z"/><path d="M178.86,312.63c.86-.83,2-1.94,3-2.82l5.15-4.69c3.43-3.13,7.66-6.71,12.25-10.35,2-1.56,4.07-3.24,4.66-3.72,3.41-2.79,18.76-13.83,23.76-17.24-.8,1.06-2.2,2.75-4.5,5.29-3.59,4-3.17,4.4-2.92,4.65l.15.15h.21c.22,0,.42,0,2-1.93l3.52-4.11c1.1-1.27,2.46-3,3-3.77A36.91,36.91,0,0,0,233,265.5a21,21,0,0,1,1-2.67,21.59,21.59,0,0,1,1.85-2.7c0,1.95-.25,6-.48,7.66a35.85,35.85,0,0,1-1.54,6.73,22.66,22.66,0,0,1-2.5,2.71,13,13,0,0,0-3.49,4.56c-1,2-1.31,2.39-4.38,5.36a52.57,52.57,0,0,1-4,3.63c-.9.53-1,.88-1,2a11.5,11.5,0,0,1-1.38,4.55c-.71,1-3,2.31-8.13,4.61a94.45,94.45,0,0,1-16.23,5.89C184.44,310.24,181.83,311.14,178.86,312.63Z"/><path d="M256.2,82a1,1,0,0,0-.6,0c-.16.07,0,.13.3.13S256.36,82.11,256.2,82Z"/><path d="M233.45,74.71c0,.2.2.07.51-.33s.29-.39-.09-.09A1.51,1.51,0,0,0,233.45,74.71Z"/><path d="M126.53,244.2a15.55,15.55,0,0,1-2.22-.14l-.88-.13c.7-.24,1.75-.64,2.41-.93a14.09,14.09,0,0,1,2.75-.78,18.86,18.86,0,0,0,10.9-5.88,31.19,31.19,0,0,1-2.65,4.89c-1.44,1.64-6.06,3-10.31,3Z"/><path d="M259.65,197.72c-.06-.3-.11-.11-.11.41s0,.77.1.54A2.51,2.51,0,0,0,259.65,197.72Z"/><path d="M233.93,77.31c-.31.33-.51.59-.44.59a2.82,2.82,0,0,0,.68-.59c.31-.33.5-.6.44-.6A2.78,2.78,0,0,0,233.93,77.31Z"/><path d="M126.66,286.82s.06-.07.06-.19-2.31-1.4-4.3-2.18-1.25-.28,1.63,1.11Z"/></g></g></svg>