<svg xmlns="http://www.w3.org/2000/svg" viewBox="0 0 540 540">
  <defs>
    <style>
      .cls-1{fill:#29353a}
    </style>
  </defs>
    <g id="Layer_1-2" data-name="Layer 1">
      <path class="cls-1" d="M299.9 301s.7-15.8-18.2-20.5c0 0 10.7-4.9 10.7-17 0 0 1.6-19.5-24.7-22.5H238v83h34s27.9.6 27.9-23zM254 254h11.3c12.3 2 11.9 10.1 11.9 10.1 0 11.5-13.7 11.9-13.7 11.9H254zm15 58h-15v-22h15c16.1 0 15.7 10.5 15.7 10.5 0 12.6-15.7 11.5-15.7 11.5zM158.3 301s.6-15.8-18.2-20.5c0 0 10.7-4.9 10.7-17 0 0 1.6-19.5-24.7-22.5H97v83h33.4s27.9.6 27.9-23zM112 254h11.7c12.3 2 11.9 10.1 11.9 10.1 0 11.5-13.7 11.9-13.7 11.9H112zm15.4 58H112v-22h15.4c16 0 15.6 10.5 15.6 10.5 0 12.6-15.6 11.5-15.6 11.5z"/>
      <path class="cls-1" d="M539 0H0v540h539zM188 341H65V225h123zm141 0H207V225h122zm141 0H348V225h122z"/>
      <path class="cls-1" d="M391.7 321.8c29.2 11.5 54.3-3.5 54.3-3.5v-16c-18 12-32.5 10.4-32.5 10.4-33-1.6-31.9-29.4-31.9-29.4 1.4-30.2 32.6-29.6 32.6-29.6 16.6.2 31.8 9.4 31.8 9.4v-15.4a83 83 0 0 0-23.2-6.6c-15.8-1.5-24.6 1.9-24.6 1.9-32.8 10-31.9 40.3-31.9 40.3 1 29.5 25.4 38.4 25.4 38.4z"/>
    </g>
</svg>
