<svg xmlns="http://www.w3.org/2000/svg" viewBox="0 0 540 540"><defs><style>.cls-1{fill:#29353a;}</style></defs><title>bbc</title><g id="Layer_2" data-name="Layer 2"><g id="Layer_1-2" data-name="Layer 1"><path class="cls-1" d="M299.89,301s.66-15.78-18.15-20.53c0,0,10.7-4.83,10.61-16.93,0,0,1.63-19.52-24.66-22.52H238v83h34S299.89,324.55,299.89,301ZM254,254h11.25c12.39,2,11.92,10.12,11.92,10.12,0,11.45-13.69,11.88-13.69,11.88H254Zm15,58H254V290h15c16.12,0,15.65,10.54,15.65,10.54C284.62,313.11,269,312,269,312Z"/><path class="cls-1" d="M158.29,301s.65-15.78-18.16-20.53c0,0,10.71-4.83,10.62-16.93,0,0,1.63-19.52-24.66-22.52H97v83h33.35S158.29,324.55,158.29,301ZM112,254h11.65c12.38,2,11.92,10.12,11.92,10.12,0,11.45-13.69,11.88-13.69,11.88H112Zm15.37,58H112V290h15.37c16.11,0,15.65,10.54,15.65,10.54C143,313.11,127.37,312,127.37,312Z"/><path class="cls-1" d="M539,0H0V540H539ZM188,341H65V225H188Zm141,0H207V225H329Zm141,0H348V225H470Z"/><path class="cls-1" d="M391.69,321.75C420.93,333.29,446,318.3,446,318.3V302.37c-18,12-32.52,10.34-32.52,10.34-33.06-1.58-31.86-29.4-31.86-29.4,1.4-30.25,32.56-29.64,32.56-29.64,16.58.18,31.82,9.4,31.82,9.4V247.71a83.09,83.09,0,0,0-23.2-6.61c-15.75-1.5-24.6,1.86-24.6,1.86-32.78,10.06-31.89,40.35-31.89,40.35C367.24,312.76,391.69,321.75,391.69,321.75Z"/></g></g></svg>
