<svg xmlns="http://www.w3.org/2000/svg" viewBox="0 0 500 215"><defs><style>.cls-1{fill:#1a1a1a;}</style></defs><title>bbc</title><g id="Layer_2" data-name="Layer 2"><g id="Layer_1-2" data-name="Layer 1"><path class="cls-1" d="M278.42,124.34s.61-14.8-16.85-19.21c0,0,9.94-4.24,9.85-15.47,0,0,1.51-18.66-22.88-20.66H221v77h31.49S278.42,146.21,278.42,124.34ZM235,81h11.27c11.5,1,11.06,9.18,11.06,9.18,0,10.63-12.7,10.82-12.7,10.82H235Zm14.73,53H235V113h14.73c15,0,14.52,10.07,14.52,10.07C264.25,134.74,249.73,134,249.73,134Z"/><path class="cls-1" d="M147,124.34s.6-14.8-16.85-19.21c0,0,9.93-4.24,9.85-15.47,0,0,1.51-18.66-22.88-20.66H90v77h31.08S147,146.21,147,124.34ZM104,81h10.86c11.49,1,11.06,9.18,11.06,9.18,0,10.63-12.71,10.82-12.71,10.82H104Zm14.32,53H104V113h14.32c15,0,14.51,10.07,14.51,10.07C132.83,134.74,118.32,134,118.32,134Z"/><path class="cls-1" d="M500,0H0V215H500ZM174,161H60V54H174Zm131,0H192V54H305Zm132,0H323V54H437Z"/><path class="cls-1" d="M363.61,143.31c27.13,10.72,50.39-3.2,50.39-3.2V125.33c-17,11.15-30.18,9.6-30.18,9.6-30.68-1.47-29.55-27.29-29.55-27.29,1.29-28.07,30.21-27.51,30.21-27.51,15.38.17,29.52,8.73,29.52,8.73V74.6c-13-5.27-21.53-6.14-21.53-6.14-14.61-1.38-22.82,1.73-22.82,1.73-30.42,9.34-29.6,37.45-29.6,37.45C340.92,135,363.61,143.31,363.61,143.31Z"/></g></g></svg>