<svg xmlns="http://www.w3.org/2000/svg" xmlns:xlink="http://www.w3.org/1999/xlink" viewBox="0 0 376.78 107.39"><defs><style>.cls-1{fill:url(#New_Gradient_Swatch_1);}.cls-2{fill:url(#New_Gradient_Swatch_1-2);}.cls-3{fill:url(#New_Gradient_Swatch_1-3);}</style><linearGradient id="New_Gradient_Swatch_1" x1="-12.42" y1="9.85" x2="1784.1" y2="402.12" gradientUnits="userSpaceOnUse"><stop offset="0" stop-color="#d3161a"/><stop offset="0.23" stop-color="#e2640f"/><stop offset="0.42" stop-color="#ffcd0b"/><stop offset="0.45" stop-color="#fdcd0c"/><stop offset="0.48" stop-color="#f6cb0f"/><stop offset="0.51" stop-color="#e9c814"/><stop offset="0.53" stop-color="#d7c41a"/><stop offset="0.55" stop-color="#bebd22"/><stop offset="0.57" stop-color="#9bb529"/><stop offset="0.59" stop-color="#68aa31"/><stop offset="0.6" stop-color="#4fa534"/><stop offset="0.64" stop-color="#3e9937"/><stop offset="0.72" stop-color="#1b853a"/><stop offset="0.78" stop-color="#057e3b"/><stop offset="0.8" stop-color="#0a7e3f"/><stop offset="0.83" stop-color="#157f4a"/><stop offset="0.86" stop-color="#1f815f"/><stop offset="0.91" stop-color="#2a857d"/><stop offset="0.95" stop-color="#3789a2"/><stop offset="1" stop-color="#478dcb"/></linearGradient><linearGradient id="New_Gradient_Swatch_1-2" x1="-18.4" y1="37.23" x2="1778.12" y2="429.51" xlink:href="#New_Gradient_Swatch_1"/><linearGradient id="New_Gradient_Swatch_1-3" x1="-6.43" y1="-17.54" x2="1790.08" y2="374.73" xlink:href="#New_Gradient_Swatch_1"/></defs><title>bbc</title><g id="Layer_2" data-name="Layer 2"><g id="Layer_1-2" data-name="Layer 1"><path class="cls-1" d="M204.14,69.4c0,11.67-14.52,11-14.52,11H175.1V59.29h14.52c15-.09,14.52,10.11,14.52,10.11m-29-42.27h11.07c11.49.61,11.06,9.17,11.06,9.17,0,10.63-12.71,10.8-12.71,10.8H175.1Zm26.37,24.12s9.93-4.24,9.85-15.47c0,0,1.51-18.41-22.89-20.66H161.36V92.3h31s25.93.09,25.93-21.78c0,0,.6-14.86-16.85-19.27M131.41,0h114V107.39h-114Z"/><path class="cls-2" d="M72.73,69.4c0,11.67-14.52,11-14.52,11H43.69V59.29H58.21C73.16,59.2,72.73,69.4,72.73,69.4m-29-42.27H54.76c11.49.61,11.06,9.17,11.06,9.17,0,10.63-12.71,10.8-12.71,10.8H43.69ZM70.05,51.25S80,47,79.9,35.78c0,0,1.52-18.41-22.88-20.66H30V92.3H61s25.93.09,25.93-21.78c0,0,.6-14.86-16.86-19.27M0,0H114V107.39H0Z"/><path class="cls-3" d="M353.53,20.65V34.91s-13.91-8.55-29.3-8.72c0,0-28.69-.56-30,27.5,0,0-1,25.82,29.63,27.29,0,0,12.88,1.56,30.34-9.59V86.17s-23.42,13.91-50.55,3.19c0,0-22.82-8.33-23.69-35.67,0,0-1-28.11,29.47-37.44,0,0,8.13-3.12,22.74-1.73,0,0,8.73.86,21.34,6.13m-90.7,86.74h114V0H262.83Z"/></g></g></svg>