<svg xmlns="http://www.w3.org/2000/svg" xmlns:xlink="http://www.w3.org/1999/xlink" viewBox="0 0 500.5 215.63"><defs><style>.cls-1{fill:#1a1a1a;}.cls-2{fill:url(#New_Gradient_Swatch_1);}.cls-3{fill:url(#New_Gradient_Swatch_1-2);}.cls-4{fill:url(#New_Gradient_Swatch_1-3);}</style><linearGradient id="New_Gradient_Swatch_1" x1="47.69" y1="63.97" x2="1844.21" y2="456.24" gradientUnits="userSpaceOnUse"><stop offset="0" stop-color="#d3161a"/><stop offset="0.23" stop-color="#e2640f"/><stop offset="0.42" stop-color="#ffcd0b"/><stop offset="0.45" stop-color="#fdcd0c"/><stop offset="0.48" stop-color="#f6cb0f"/><stop offset="0.51" stop-color="#e9c814"/><stop offset="0.53" stop-color="#d7c41a"/><stop offset="0.55" stop-color="#bebd22"/><stop offset="0.57" stop-color="#9bb529"/><stop offset="0.59" stop-color="#68aa31"/><stop offset="0.6" stop-color="#4fa534"/><stop offset="0.64" stop-color="#3e9937"/><stop offset="0.72" stop-color="#1b853a"/><stop offset="0.78" stop-color="#057e3b"/><stop offset="0.8" stop-color="#0a7e3f"/><stop offset="0.83" stop-color="#157f4a"/><stop offset="0.86" stop-color="#1f815f"/><stop offset="0.91" stop-color="#2a857d"/><stop offset="0.95" stop-color="#3789a2"/><stop offset="1" stop-color="#478dcb"/></linearGradient><linearGradient id="New_Gradient_Swatch_1-2" x1="41.71" y1="91.35" x2="1838.23" y2="483.63" xlink:href="#New_Gradient_Swatch_1"/><linearGradient id="New_Gradient_Swatch_1-3" x1="53.67" y1="36.58" x2="1850.19" y2="428.85" xlink:href="#New_Gradient_Swatch_1"/></defs><title>bbc</title><g id="Layer_2" data-name="Layer 2"><g id="Layer_1-2" data-name="Layer 1"><rect class="cls-1" width="500.5" height="215.63"/><path class="cls-2" d="M264.25,123.52c0,11.67-14.52,11-14.52,11H235.21V113.41h14.52c15-.09,14.52,10.11,14.52,10.11m-29-42.27h11.06c11.5.61,11.06,9.17,11.06,9.17,0,10.62-12.7,10.8-12.7,10.8h-9.42Zm26.36,24.12s9.94-4.24,9.85-15.47c0,0,1.51-18.41-22.88-20.66H221.47v77.18h31s25.93.09,25.93-21.78c0,0,.61-14.86-16.85-19.27m-70-51.25h114V161.5h-114Z"/><path class="cls-3" d="M132.83,123.52c0,11.67-14.51,11-14.51,11H103.8V113.41h14.52c15-.09,14.51,10.11,14.51,10.11m-29-42.27h11.06c11.49.61,11.06,9.17,11.06,9.17,0,10.62-12.71,10.8-12.71,10.8H103.8Zm26.36,24.12s9.93-4.24,9.85-15.47c0,0,1.51-18.41-22.88-20.66H90.05v77.18h31s25.93.09,25.93-21.78c0,0,.6-14.86-16.85-19.27M60.1,54.12h114V161.5H60.1Z"/><path class="cls-4" d="M413.64,74.77V89s-13.92-8.55-29.3-8.72c0,0-28.7-.56-30,27.5,0,0-1,25.82,29.64,27.29,0,0,12.88,1.55,30.34-9.59v14.78s-23.42,13.91-50.56,3.19c0,0-22.82-8.34-23.68-35.67,0,0-.95-28.11,29.47-37.44,0,0,8.12-3.12,22.73-1.73,0,0,8.73.86,21.35,6.13M322.93,161.5h114V54.12h-114Z"/></g></g></svg>