<?xml version="1.0" encoding="UTF-8" standalone="no"?>
<svg
   xmlns:dc="http://purl.org/dc/elements/1.1/"
   xmlns:cc="http://creativecommons.org/ns#"
   xmlns:rdf="http://www.w3.org/1999/02/22-rdf-syntax-ns#"
   xmlns:svg="http://www.w3.org/2000/svg"
   xmlns="http://www.w3.org/2000/svg"
   xmlns:sodipodi="http://sodipodi.sourceforge.net/DTD/sodipodi-0.dtd"
   xmlns:inkscape="http://www.inkscape.org/namespaces/inkscape"
   viewBox="0 0 227.42 227.42"
   version="1.1"
   id="svg3575"
   sodipodi:docname="binary.svg"
   inkscape:version="0.92.2 2405546, 2018-03-11">
  <metadata
     id="metadata3579">
    <rdf:RDF>
      <cc:Work
         rdf:about="">
        <dc:format>image/svg+xml</dc:format>
        <dc:type
           rdf:resource="http://purl.org/dc/dcmitype/StillImage" />
        <dc:title>braintrust</dc:title>
      </cc:Work>
    </rdf:RDF>
  </metadata>
  <sodipodi:namedview
     pagecolor="#ffffff"
     bordercolor="#666666"
     borderopacity="1"
     objecttolerance="10"
     gridtolerance="10"
     guidetolerance="10"
     inkscape:pageopacity="0"
     inkscape:pageshadow="2"
     inkscape:window-width="3840"
     inkscape:window-height="2075"
     id="namedview3577"
     showgrid="false"
     inkscape:pagecheckerboard="true"
     inkscape:zoom="4.0542217"
     inkscape:cx="-23.199255"
     inkscape:cy="51.39903"
     inkscape:window-x="7680"
     inkscape:window-y="2196"
     inkscape:window-maximized="0"
     inkscape:current-layer="svg3575"
     inkscape:snap-object-midpoints="true" />
  <defs
     id="defs3565">
    <style
       id="style3563">.cls-1{fill:none;stroke:#fff;stroke-miterlimit:10;stroke-width:7px;}.cls-2{fill:#fff;}</style>
  </defs>
  <title
     id="title3567">braintrust</title>
  <path
     style="color:#000000;font-style:normal;font-variant:normal;font-weight:normal;font-stretch:normal;font-size:medium;line-height:normal;font-family:sans-serif;font-variant-ligatures:normal;font-variant-position:normal;font-variant-caps:normal;font-variant-numeric:normal;font-variant-alternates:normal;font-feature-settings:normal;text-indent:0;text-align:start;text-decoration:none;text-decoration-line:none;text-decoration-style:solid;text-decoration-color:#000000;letter-spacing:normal;word-spacing:normal;text-transform:none;writing-mode:lr-tb;direction:ltr;text-orientation:mixed;dominant-baseline:auto;baseline-shift:baseline;text-anchor:start;white-space:normal;shape-padding:0;clip-rule:nonzero;display:inline;overflow:visible;visibility:visible;opacity:1;isolation:auto;mix-blend-mode:normal;color-interpolation:sRGB;color-interpolation-filters:linearRGB;solid-color:#000000;solid-opacity:1;vector-effect:none;fill:#ffffff;fill-opacity:1;fill-rule:nonzero;stroke:none;stroke-width:7px;stroke-linecap:butt;stroke-linejoin:miter;stroke-miterlimit:10;stroke-dasharray:none;stroke-dashoffset:0;stroke-opacity:1;color-rendering:auto;image-rendering:auto;shape-rendering:auto;text-rendering:auto;enable-background:accumulate"
     d="M 133.50168,1.757485 C 104.83786,-3.3096538 74.24158,2.5482147 48.529191,20.535464 -2.8955911,56.50996 -15.43906,127.46592 20.535441,178.8907 56.509935,230.31549 127.4659,242.85895 178.89068,206.88445 230.31546,170.90996 242.85893,99.953994 206.88443,48.529214 188.89718,22.816824 162.1655,6.824622 133.50168,1.757485 Z m -1.21107,6.850809 c 26.88528,4.752731 51.95562,19.770561 68.85862,43.933018 C 234.95519,100.86623 223.2035,167.34328 174.87859,201.14925 126.55366,234.95521 60.076612,223.20352 26.270646,174.87861 -7.5353196,126.55369 4.2163736,60.076637 52.541287,26.270671 76.703744,9.367688 105.40532,3.8555617 132.29061,8.608294 Z M 97.660911,16.27914 a 98.851776,98.851776 0 0 0 -6.60537,1.327443 l 5.141078,0.998084 -4.85919,24.996711 2.828374,0.54958 5.349163,-27.510343 z m 20.423189,4.498941 c -1.81177,-0.355195 -3.56921,-0.242184 -5.27272,0.341246 -1.9211,0.673682 -3.62611,1.931173 -5.11343,3.770952 -1.45464,1.820897 -2.5583,4.137524 -3.31078,6.947711 -0.75248,2.810187 -0.95614,5.378322 -0.61292,7.70826 0.37585,2.31105 1.22675,4.237405 2.55414,5.780935 1.35316,1.550433 3.07611,2.606919 5.16442,3.166108 2.0883,0.559187 4.09105,0.502817 6.01216,-0.170861 1.94687,-0.666781 3.66016,-1.908522 5.14057,-3.722518 1.48732,-1.839776 2.60672,-4.164665 3.35921,-6.97485 0.75247,-2.810191 0.94184,-5.369806 0.56641,-7.680782 -0.36894,-2.33683 -1.2316,-4.281534 -2.58479,-5.831971 -1.32737,-1.543526 -3.03287,-2.593327 -5.1212,-3.152518 -0.26103,-0.0699 -0.52224,-0.130959 -0.78107,-0.181712 z m -1.07209,2.507914 c 0.38529,0.04445 0.77699,0.11943 1.17016,0.224709 1.57266,0.421115 2.83489,1.230485 3.78612,2.424621 0.97701,1.201038 1.57466,2.726571 1.79623,4.581861 0.22161,1.855294 0.0161,3.968706 -0.61908,6.340605 -0.63511,2.371904 -1.51356,4.307856 -2.63261,5.804165 -1.11904,1.49631 -2.40105,2.520349 -3.8475,3.072453 -1.42067,0.559008 -2.9165,0.62717 -4.48918,0.20605 -1.57266,-0.421114 -2.84915,-1.232642 -3.82617,-2.433683 -0.95122,-1.194131 -1.53617,-2.71977 -1.75776,-4.575062 -0.22158,-1.85529 -0.0145,-3.966442 0.62066,-6.338341 0.63512,-2.371901 1.50937,-4.306615 2.62842,-5.802922 1.11905,-1.496306 2.39096,-2.523753 3.81164,-3.082761 1.08483,-0.414081 2.20323,-0.555054 3.35907,-0.421695 z m 27.68885,5.876571 c -1.5204,-0.308226 -3.02883,-0.266767 -4.52333,0.118693 -1.96751,0.522822 -3.76273,1.642393 -5.38812,3.361411 -1.59135,1.702727 -2.87089,3.926464 -3.83884,6.669904 -0.96793,2.743445 -1.37112,5.288989 -1.2095,7.6385 0.19568,2.333222 0.89545,4.322587 2.09926,5.964315 1.22897,1.650607 2.86084,2.834354 4.89955,3.553651 2.0387,0.719296 4.04394,0.815962 6.01146,0.293133 1.99267,-0.513944 3.79616,-1.61562 5.41266,-3.309471 1.62538,-1.719019 2.92124,-3.953263 3.88919,-6.696704 0.96794,-2.743442 1.35516,-5.280401 1.15949,-7.613624 -0.18679,-2.358394 -0.89324,-4.363382 -2.12221,-6.013991 -1.20382,-1.641727 -2.82724,-2.822463 -4.86596,-3.541762 -0.50967,-0.179819 -1.01685,-0.321308 -1.52365,-0.424055 z M 83.5377,19.641453 a 98.851776,98.851776 0 0 0 -2.690115,0.968367 c 0.0619,0.19253 0.134275,0.372779 0.187982,0.574702 0.480286,1.805698 0.574768,3.924952 0.279486,6.362596 -0.295282,2.437643 -0.891667,4.477103 -1.789234,6.115896 -0.897516,1.638803 -2.024125,2.833747 -3.378569,3.583767 -1.327949,0.75323 -2.799788,1.031597 -4.416049,0.835817 -1.616271,-0.195789 -2.991557,-0.820422 -4.127749,-1.872139 -1.109696,-1.048506 -1.906854,-2.474024 -2.38714,-4.279724 -0.318113,-1.196013 -0.448651,-2.544939 -0.426137,-4.018348 a 98.851776,98.851776 0 0 0 -2.864017,1.738923 c 0.09286,1.158062 0.284508,2.253851 0.58815,3.281392 0.697088,2.235232 1.812397,4.023613 3.343654,5.365149 1.55774,1.344742 3.410043,2.14832 5.556226,2.40829 2.146195,0.259973 4.122336,-0.07937 5.929597,-1.016504 1.833767,-0.933924 3.356752,-2.40282 4.567366,-4.40697 1.213838,-2.030642 1.99382,-4.490424 2.343664,-7.378503 0.349842,-2.888078 0.17532,-5.449492 -0.521779,-7.684726 -0.0606,-0.197528 -0.128153,-0.387435 -0.195336,-0.577985 z m 60.66172,12.121972 c 0.3807,0.0741 0.76232,0.180237 1.14614,0.315666 1.53534,0.541696 2.73129,1.444531 3.58714,2.708773 0.88104,1.273123 1.36103,2.844081 1.43821,4.710963 0.0772,1.866886 -0.29397,3.957921 -1.111,6.273477 -0.81697,2.315568 -1.84162,4.176373 -3.07323,5.581486 -1.23161,1.405113 -2.58791,2.326482 -4.07279,2.764867 -1.45972,0.44726 -2.95782,0.399945 -4.49314,-0.141749 -1.53532,-0.541693 -2.74357,-1.448222 -3.62459,-2.721342 -0.85585,-1.264241 -1.32164,-2.831166 -1.39883,-4.698051 -0.0772,-1.866881 0.29211,-3.95825 1.10907,-6.273819 0.81699,-2.315564 1.84163,-4.176371 3.07323,-5.581484 1.23161,-1.405115 2.57564,-2.330174 4.03534,-2.777439 1.11366,-0.328787 2.24242,-0.383854 3.38445,-0.161348 z m 24.81782,6.039427 c -1.5276,-0.270204 -3.0326,-0.193731 -4.51701,0.228897 -1.95384,0.571753 -3.72301,1.738055 -5.305,3.497093 -1.54836,1.741904 -2.77133,3.994408 -3.67052,6.761146 -0.89919,2.76674 -1.23826,5.321644 -1.01807,7.66639 0.25383,2.327613 1.00343,4.298079 2.24783,5.909259 1.26978,1.619429 2.93238,2.764298 4.9884,3.432504 2.05602,0.668203 4.06037,0.714668 6.01423,0.142882 1.97923,-0.563503 3.75579,-1.711501 5.32953,-3.445154 1.58199,-1.759037 2.82361,-4.020866 3.7228,-6.787605 0.89918,-2.766741 1.22187,-5.313902 0.96806,-7.641514 -0.24559,-2.352996 -1.00485,-4.340185 -2.27464,-5.959616 -1.2444,-1.61118 -2.89302,-2.75139 -4.94903,-3.419594 -0.51401,-0.167048 -1.02737,-0.294617 -1.53658,-0.384688 z m 12.90473,4.439223 -0.61176,2.293763 3.85601,1.030737 a 98.851776,98.851776 0 0 0 -3.24425,-3.3245 z m -13.34075,-1.8268 c 0.38241,0.06466 0.76832,0.159777 1.15543,0.285574 1.54835,0.503213 2.76542,1.376689 3.65255,2.619183 0.9125,1.250741 1.43044,2.807586 1.55419,4.671964 0.12373,1.864372 -0.19207,3.964545 -0.95102,6.299774 -0.75895,2.335228 -1.73746,4.220343 -2.93364,5.655747 -1.19616,1.435408 -2.53191,2.39074 -4.00538,2.866038 -1.44811,0.483543 -2.94686,0.474154 -4.49522,-0.02906 -1.54834,-0.503214 -2.77781,-1.379086 -3.69035,-2.629831 -0.88713,-1.242494 -1.39265,-2.79694 -1.5164,-4.661317 -0.12375,-1.864378 0.194,-3.964204 0.95295,-6.299433 0.75893,-2.335233 1.73554,-4.220684 2.93171,-5.656088 1.19617,-1.435405 2.51984,-2.395061 3.96794,-2.878607 1.10511,-0.35647 2.23,-0.437885 3.37724,-0.243943 z m 18.68299,7.4203 -6.15136,23.005036 2.786,0.744397 5.67971,-21.245827 a 98.851776,98.851776 0 0 0 -2.31435,-2.503606 z M 53.814853,35.222806 a 98.851776,98.851776 0 0 0 -2.990775,2.254019 l -0.0583,1.261058 2.8819,0.134592 z m 143.952487,26.69919 -2.59835,12.319768 2.82214,0.59608 1.96386,-9.314015 a 98.851776,98.851776 0 0 0 -2.18765,-3.601833 z M 78.951628,51.48557 c -2.140118,-0.30589 -4.137876,-0.01179 -5.991219,0.88264 -1.826927,0.898204 -3.370152,2.348579 -4.627202,4.352757 -1.226858,1.981531 -2.045848,4.413009 -2.457459,7.292933 -0.411649,2.879918 -0.307196,5.456603 0.311662,7.728903 0.649061,2.249654 1.725843,4.061911 3.228003,5.435941 1.528579,1.377802 3.361651,2.219714 5.50177,2.525601 2.140132,0.305874 4.123901,0.0084 5.95083,-0.88978 1.853342,-0.894429 3.405592,-2.32973 4.658867,-4.307491 1.25706,-2.004176 2.093367,-4.446261 2.504989,-7.326183 0.411649,-2.879918 0.291803,-5.445656 -0.357269,-7.695313 -0.645275,-2.276072 -1.733342,-4.10182 -3.261932,-5.479623 -1.50215,-1.374025 -3.32091,-2.2145 -5.46104,-2.520385 z m 15.28505,2.743715 -0.53998,2.504792 6.457252,1.395377 -5.379272,24.886922 2.81591,0.608863 5.921172,-27.391375 z m 15.475162,3.396146 -0.66398,2.476921 6.37807,1.708642 -6.59115,24.595336 2.786,0.744397 7.25411,-27.066487 z m -50.59469,-8.101089 -9.464658,-0.651689 -0.176018,2.555248 6.590131,0.452948 -1.747467,25.402007 2.874527,0.198743 z m 19.459425,4.576495 c 1.611707,0.230361 2.960974,0.8812 4.04796,1.953238 1.113404,1.075814 1.891442,2.523991 2.332927,4.339559 0.441496,1.815573 0.489107,3.937223 0.141678,6.367985 -0.34739,2.430765 -0.988387,4.455588 -1.920805,6.074787 -0.932418,1.6192 -2.084388,2.788015 -3.454578,3.508844 -1.343775,0.724624 -2.821748,0.973849 -4.433445,0.743489 -1.611698,-0.230413 -2.973022,-0.884223 -4.086426,-1.960038 -1.086987,-1.072031 -1.851043,-2.516845 -2.292538,-4.33242 -0.441485,-1.815569 -0.489105,-3.937225 -0.141677,-6.367985 0.347389,-2.430766 0.988397,-4.455584 1.920805,-6.074786 0.932418,-1.6192 2.070415,-2.791374 3.414189,-3.515985 1.37019,-0.72084 2.860214,-0.967048 4.47191,-0.736688 z m -35.445512,-5.38536 -3.696091,-0.05043 a 98.851776,98.851776 0 0 0 -2.240164,2.529515 l 3.019282,0.04186 -0.345436,25.459449 2.88057,0.04114 z m 93.125327,16.56963 c -1.52377,-0.291062 -3.0318,-0.235749 -4.52186,0.166553 -1.96148,0.544999 -3.74368,1.68651 -5.34956,3.423765 -1.57201,1.720585 -2.82591,3.956915 -3.76282,6.71111 -0.93691,2.754191 -1.31301,5.305922 -1.12487,7.65346 0.22201,2.330869 0.945,4.310623 2.16726,5.938652 1.24754,1.636634 2.89418,2.803226 4.94087,3.49947 2.04671,0.696235 4.04998,0.770734 6.01147,0.225699 1.98674,-0.536402 3.77873,-1.659494 5.37602,-3.371484 1.60587,-1.737256 2.8782,-3.983375 3.81511,-6.737568 0.9369,-2.754196 1.29301,-5.298401 1.07101,-7.629265 -0.21341,-2.356134 -0.94303,-4.349776 -2.19056,-5.986405 -1.22228,-1.628035 -2.85479,-2.790321 -4.90149,-3.486559 -0.51166,-0.174057 -1.02265,-0.310408 -1.53058,-0.407428 z m -0.47291,2.607884 c 0.38149,0.06988 0.76545,0.169531 1.15078,0.300621 1.54133,0.524325 2.74603,1.413776 3.61611,2.668277 0.89534,1.263092 1.39245,2.828565 1.49072,4.694459 0.0983,1.865892 -0.24696,3.959801 -1.03758,6.284474 -0.79078,2.324641 -1.79399,4.195609 -3.00966,5.61454 -1.21569,1.418916 -2.56353,2.3566 -4.04337,2.811719 -1.45456,0.463718 -2.95296,0.433947 -4.4943,-0.09038 -1.54134,-0.524318 -2.76014,-1.418086 -3.65548,-2.681186 -0.87008,-1.254496 -1.35309,-2.815658 -1.45134,-4.68155 -0.0982,-1.865886 0.2473,-3.961726 1.03791,-6.286397 0.79078,-2.324643 1.79399,-4.195614 3.00966,-5.61454 1.21567,-1.418928 2.55135,-2.360579 4.00593,-2.824289 1.10986,-0.341341 2.23614,-0.405345 3.38062,-0.195745 z m 14.92378,2.779021 -0.85347,2.415657 6.23265,2.194654 -8.45657,24.017644 2.71873,0.956633 9.30812,-26.433643 z m 23.28369,7.727834 c -1.53266,-0.239897 -3.03507,-0.134685 -4.51083,0.317262 -1.94214,0.610337 -3.68691,1.808914 -5.23375,3.598941 -1.51355,1.772228 -2.69247,4.050387 -3.53669,6.834388 -0.84421,2.78401 -1.13173,5.34755 -0.86512,7.687479 0.29989,2.322125 1.08719,4.276004 2.36325,5.862224 1.30162,1.59397 2.98703,2.70403 5.05588,3.33138 2.06883,0.62735 4.0729,0.63634 6.01504,0.026 1.96768,-0.60259 3.72179,-1.78602 5.26089,-3.55051 1.54684,-1.79002 2.74318,-4.079104 3.58739,-6.863114 0.84422,-2.783995 1.11621,-5.336287 0.81633,-7.658418 -0.29214,-2.34767 -1.08878,-4.316698 -2.39038,-5.910659 -1.27608,-1.586219 -2.94924,-2.69338 -5.01808,-3.320728 -0.51722,-0.156831 -1.03304,-0.274288 -1.54393,-0.354255 z m 12.78653,3.918511 -0.58965,2.494028 6.42904,1.521294 -5.85793,24.778501 2.80638,0.66272 6.44566,-27.272874 z m 21.99729,4.59275 c -1.35006,0.07751 -2.63547,0.410401 -3.85616,1.012146 -1.81934,0.913455 -3.35042,2.378315 -4.59067,4.392934 -1.21024,1.99172 -2.0101,4.43017 -2.39761,7.31343 -0.38753,2.883273 -0.26192,5.457353 0.37593,7.724393 0.66784,2.24415 1.759,4.0467 3.27259,5.40812 1.54005,1.36497 3.38113,2.19193 5.52373,2.4799 1.94614,0.26162 3.75554,0.0204 5.43497,-0.70924 a 98.851776,98.851776 0 0 0 -0.0979,-3.04795 c -0.18476,0.12206 -0.36371,0.25563 -0.55745,0.35962 -1.33765,0.73583 -2.81412,0.9951 -4.42768,0.77822 -1.61358,-0.21683 -2.98015,-0.85873 -4.1025,-1.92519 -1.09592,-1.06291 -1.87527,-2.49979 -2.33192,-4.31161 -0.45667,-1.81182 -0.52048,-3.93363 -0.19338,-6.36721 0.32702,-2.433593 0.9514,-4.464719 1.87023,-6.09166 0.91885,-1.62694 2.04595,-2.809368 3.38366,-3.545184 1.04447,-0.560695 2.16324,-0.836972 3.35387,-0.841113 a 98.851776,98.851776 0 0 0 -0.65974,-2.629606 z m -35.16759,-5.891584 c 0.38362,0.05705 0.77192,0.144747 1.16143,0.262836 1.55803,0.47245 2.79339,1.322447 3.70496,2.547127 0.93713,1.232427 1.48476,2.776944 1.6454,4.638501 0.16065,1.861562 -0.1147,3.967884 -0.82726,6.317686 -0.71254,2.349807 -1.65334,4.254556 -2.82085,5.713367 -1.16749,1.45882 -2.48235,2.44154 -3.94612,2.94594 -1.43824,0.51212 -2.93677,0.53073 -4.49479,0.0583 -1.55801,-0.47245 -2.80565,-1.32536 -3.74275,-2.55777 -0.91158,-1.22468 -1.44664,-2.768217 -1.60726,-4.629779 -0.16066,-1.861557 0.11471,-3.96788 0.82725,-6.317689 0.71255,-2.349802 1.65109,-4.252969 2.81858,-5.711787 1.16751,-1.458814 2.47204,-2.444106 3.91027,-2.956238 1.09783,-0.37829 2.22029,-0.481656 3.37114,-0.310474 z M 27.730652,65.170595 a 98.851776,98.851776 0 0 0 -2.652942,4.931839 l 0.322336,6.838255 2.880058,-0.135477 z m 51.988091,25.710168 -9.347268,-1.618674 -0.438385,2.524735 6.510618,1.127133 -4.344084,25.089753 2.838572,0.49189 z m 18.663718,3.759489 c -1.818669,-0.31815 -3.574695,-0.168172 -5.266079,0.449524 -1.907094,0.71232 -3.586187,2.00247 -5.036065,3.8719 -1.417601,1.849894 -2.471613,4.185964 -3.167225,7.010774 -0.695624,2.82481 -0.850988,5.40071 -0.460866,7.72324 0.422421,2.30299 1.314233,4.21205 2.672505,5.72847 1.384173,1.5228 3.1257,2.54284 5.224866,3.05977 2.099162,0.51692 4.102733,0.42006 6.009821,-0.29225 1.933012,-0.70594 3.622312,-1.98348 5.065812,-3.82698 1.44988,-1.86943 2.52037,-4.21504 3.21599,-7.03983 0.6956,-2.8248 0.83193,-5.38768 0.4095,-7.69067 -0.41604,-2.32891 -1.31706,-4.256372 -2.70123,-5.779176 -1.35827,-1.516421 -3.08566,-2.53379 -5.184818,-3.05071 -0.262418,-0.06456 -0.522404,-0.118581 -0.782211,-0.164062 z M 55.733143,87.269373 c -0.25969,-0.04367 -0.523494,-0.07968 -0.792411,-0.106363 -2.151272,-0.213928 -4.135413,0.163103 -5.948753,1.13609 -1.78677,0.975642 -3.263854,2.493386 -4.433902,4.54957 -1.140842,2.032262 -1.853611,4.495534 -2.141484,7.39044 -0.287886,2.89492 -0.07686,5.46368 0.638761,7.70739 0.744837,2.21979 1.897753,3.9856 3.457383,5.29401 1.586192,1.31106 3.456255,2.07253 5.607516,2.28646 2.151259,0.21393 4.119669,-0.16792 5.90644,-1.14357 1.813341,-0.97299 3.303921,-2.47366 4.471336,-4.50328 1.170049,-2.05618 1.897963,-4.53331 2.185848,-7.42822 0.287875,-2.894912 0.06171,-5.449833 -0.683123,-7.669614 -0.742193,-2.246359 -1.907032,-4.02698 -3.493236,-5.33804 -1.36468,-1.144876 -2.956734,-1.867977 -4.774375,-2.174873 z M 34.965476,86.06546 25.480209,85.8445 l -0.06016,2.561842 6.605268,0.154143 -0.588461,25.454175 2.88192,0.0672 z m 63.568685,11.306977 c 1.580859,0.389257 2.858979,1.16916 3.834119,2.343856 1.00105,1.181077 1.63071,2.696357 1.88969,4.546807 0.25899,1.85044 0.0948,3.96884 -0.49236,6.35309 -0.58712,2.38423 -1.42409,4.33652 -2.5127,5.85512 -1.08862,1.51859 -2.35254,2.5673 -3.787557,3.1485 -1.40909,0.58757 -2.902815,0.68756 -4.483661,0.29826 -1.58086,-0.38926 -2.872432,-1.17568 -3.873489,-2.35676 -0.975135,-1.17468 -1.592562,-2.68764 -1.851563,-4.53809 -0.258992,-1.85044 -0.09352,-3.96467 0.493606,-6.3489 0.587122,-2.38424 1.422144,-4.33687 2.510772,-5.85545 1.088621,-1.518614 2.338749,-2.571935 3.74785,-3.159501 1.435005,-0.58119 2.94445,-0.676218 4.525293,-0.286932 z m -42.68552,-7.379265 c 1.123533,0.2827 2.10936,0.807789 2.958293,1.576152 1.158459,1.027136 1.995575,2.437809 2.514438,4.232809 0.518854,1.794988 0.658001,3.915385 0.415029,6.358797 -0.242994,2.44341 -0.794441,4.49357 -1.656642,6.15123 -0.862199,1.65765 -1.961892,2.87632 -3.299957,3.65519 -1.311504,0.7815 -2.778912,1.09117 -4.398993,0.93006 -1.620091,-0.16111 -3.009028,-0.75484 -4.167487,-1.78198 -1.131908,-1.02449 -1.958375,-2.43519 -2.477217,-4.23019 -0.518864,-1.795 -0.654167,-3.91469 -0.411182,-6.35811 0.242982,-2.4434 0.794455,-4.493583 1.656642,-6.151234 0.862199,-1.657648 1.94737,-2.87696 3.258887,-3.658474 1.338054,-0.778865 2.817721,-1.08631 4.4378,-0.925198 0.405018,0.04032 0.796043,0.10583 1.170389,0.200948 z m 69.555879,12.567688 c -1.52379,-0.2911 -3.03177,-0.23565 -4.52187,0.16655 -1.96152,0.54487 -3.74356,1.68663 -5.34956,3.42377 -1.57214,1.72048 -2.82766,3.95664 -3.76475,6.71077 -0.9371,2.75413 -1.31094,5.30625 -1.12295,7.6538 0.22184,2.33087 0.94317,4.3102 2.16534,5.93832 1.24742,1.63673 2.89422,2.80308 4.94087,3.49946 2.04664,0.69638 4.04961,0.77257 6.01113,0.22763 1.98679,-0.53627 3.77897,-1.66155 5.37636,-3.37341 1.60599,-1.73717 2.87959,-3.98117 3.81669,-6.73531 0.93711,-2.75413 1.29478,-5.29805 1.07294,-7.62892 -0.21326,-2.35616 -0.94472,-4.35195 -2.19214,-5.98867 -1.22215,-1.62811 -2.85678,-2.79053 -4.90342,-3.4869 -0.51166,-0.17413 -1.02074,-0.31003 -1.52864,-0.40709 z M 18.838396,86.076603 a 98.851776,98.851776 0 0 0 -2.469935,10.426501 98.851776,98.851776 0 0 0 -0.02801,0.203309 l 0.631793,17.407007 2.880728,-0.10561 z M 124.9316,105.16874 c 0.38156,0.0695 0.76544,0.16955 1.15077,0.30063 1.54132,0.52443 2.74613,1.41371 3.61613,2.66827 0.89526,1.26315 1.39257,2.82856 1.4907,4.69446 0.0981,1.8659 -0.24883,3.96149 -1.03984,6.28606 -0.79095,2.3246 -1.79352,4.19378 -3.00931,5.61262 -1.21577,1.41884 -2.56352,2.35671 -4.04338,2.81172 -1.4546,0.46362 -2.953,0.43403 -4.4943,-0.0904 -1.54129,-0.52444 -2.75988,-1.41995 -3.65513,-2.6831 -0.86998,-1.25456 -1.35358,-2.81374 -1.45168,-4.67963 -0.0982,-1.8659 0.24856,-3.95954 1.03948,-6.28413 0.79094,-2.32459 1.79424,-4.19763 3.01,-5.61647 1.21576,-1.41884 2.5494,-2.36102 4.00402,-2.82463 1.1099,-0.34127 2.23807,-0.40508 3.38254,-0.19541 z m 25.396,6.3142 c -1.52416,-0.28903 -3.03106,-0.23345 -4.52062,0.17075 -1.96077,0.5475 -3.74306,1.69089 -5.34673,3.43021 -1.56983,1.72258 -2.82275,3.96284 -3.75615,6.71823 -0.93339,2.75539 -1.30222,5.30662 -1.11107,7.65392 0.22498,2.33058 0.94743,4.30902 2.17179,5.93549 1.24961,1.63504 2.89849,2.7988 4.94607,3.49245 2.04758,0.69361 4.0517,0.76748 6.0125,0.21993 1.98605,-0.53893 3.77651,-1.66617 5.37161,-3.38019 1.60367,-1.73931 2.87244,-3.98581 3.80583,-6.7412 0.93339,-2.75538 1.2883,-5.30004 1.06332,-7.63062 -0.2164,-2.35586 -0.94934,-4.34888 -2.19894,-5.98391 -1.22436,-1.62647 -2.8607,-2.78819 -4.90828,-3.48182 -0.51191,-0.17335 -1.02128,-0.30686 -1.52933,-0.40324 z m 13.04569,4.47208 -0.70719,2.46333 6.34873,1.8185 -7.01642,24.47651 2.77106,0.79532 7.72361,-26.93986 z m -13.51442,-1.86543 c 0.38156,0.0695 0.76333,0.16987 1.14886,0.30027 1.54199,0.52237 2.7493,1.40981 3.62098,2.66319 0.89695,1.26195 1.39651,2.82586 1.49716,4.69163 0.10065,1.86577 -0.24246,3.96209 -1.03022,6.28776 -0.78782,2.32563 -1.78843,4.19735 -3.0023,5.61782 -1.21386,1.42049 -2.56096,2.35923 -4.04022,2.81624 -1.45397,0.46557 -2.95138,0.43809 -4.49339,-0.0843 -1.542,-0.52235 -2.76113,-1.41573 -3.65808,-2.67768 -0.87166,-1.25338 -1.35908,-2.8133 -1.45971,-4.67905 -0.10067,-1.86577 0.24399,-3.95985 1.03179,-6.2855 0.78783,-2.32565 1.78878,-4.19928 3.00265,-5.61975 1.21386,-1.42048 2.54687,-2.36358 4.00084,-2.82916 1.10946,-0.34274 2.23691,-0.40963 3.38164,-0.2015 z m 61.92544,11.61547 -2.10625,0.0104 0.0146,2.56516 1.73119,-0.009 a 98.851776,98.851776 0 0 0 0.36044,-2.56628 z m -35.79242,-6.09328 -0.58964,2.49403 6.42938,1.51937 -5.84832,24.78021 2.80446,0.66237 6.43989,-27.2739 z m 24.90837,4.79796 c -0.25802,-0.0527 -0.5216,-0.0984 -0.78958,-0.13363 -2.14273,-0.28709 -4.13701,0.0231 -5.98241,0.93378 -1.81893,0.91428 -3.34782,2.38036 -4.58716,4.39554 -1.20934,1.99226 -2.00753,4.43066 -2.39376,7.31411 -0.38623,2.88344 -0.2607,5.45605 0.37818,7.7228 0.66885,2.24386 1.75996,4.04966 3.27418,5.41039 1.54065,1.36429 3.38395,2.18745 5.52668,2.47447 2.14273,0.28709 4.12309,-0.0266 5.94202,-0.94092 1.56527,-0.77249 2.9085,-1.9357 4.0352,-3.48356 a 98.851776,98.851776 0 0 0 3.21545,-10.48115 c 0.0729,-1.976 -0.12638,-3.78829 -0.61399,-5.42407 -0.66532,-2.27029 -1.76813,-4.08596 -3.30878,-5.45022 -1.32492,-1.19065 -2.88988,-1.96896 -4.69603,-2.33754 z m -1.14155,2.48571 c 1.61365,0.2162 2.96993,0.8544 4.06629,1.91681 1.12285,1.06596 1.91327,2.50489 2.37073,4.31649 0.45749,1.81162 0.52323,3.93416 0.19724,6.36789 -0.32603,2.43373 -0.94829,4.465 -1.8664,6.09234 -0.91811,1.62736 -2.05832,2.80551 -3.42211,3.53839 -1.33732,0.73643 -2.81277,0.99854 -4.42644,0.78241 -1.61366,-0.21621 -2.98158,-0.85957 -4.10443,-1.92554 -1.09638,-1.0624 -1.87286,-2.49774 -2.33033,-4.30935 -0.45747,-1.8116 -0.52514,-3.9345 -0.19915,-6.36823 0.32603,-2.43371 0.94829,-4.46498 1.86638,-6.09234 0.91811,-1.62736 2.04439,-2.80908 3.38173,-3.54552 1.36379,-0.73288 2.8528,-0.98949 4.46649,-0.77335 z m -117.913427,3.65653 c -1.828089,-0.25858 -3.576708,-0.0514 -5.246896,0.6215 -1.882672,0.77459 -3.518644,2.11961 -4.906339,4.03565 -1.356064,1.89546 -2.33491,4.26679 -2.937353,7.1129 -0.6025,2.84612 -0.668987,5.4247 -0.202794,7.73316 0.497838,2.28788 1.448143,4.16486 2.855482,5.63586 1.433461,1.47652 3.209817,2.43935 5.324822,2.88704 2.115013,0.44772 4.114654,0.28375 5.997326,-0.49084 1.908778,-0.76904 3.551307,-2.09728 4.933479,-3.98721 1.387699,-1.91604 2.384017,-4.29776 2.986464,-7.14388 0.60245,-2.84612 0.655037,-5.41169 0.157187,-7.69957 -0.4923,-2.31399 -1.454581,-4.21071 -2.88805,-5.68724 -1.407344,-1.47098 -3.169768,-2.43028 -5.284774,-2.87797 -0.264396,-0.0559 -0.527409,-0.10238 -0.788554,-0.1394 z m -27.137581,-4.46214 c -0.258784,-0.0488 -0.521668,-0.0882 -0.790031,-0.11982 -2.147253,-0.25101 -4.136875,0.0941 -5.966713,1.03572 -1.803335,0.94468 -3.307739,2.4344 -4.513076,4.47012 -1.175733,2.01227 -1.931779,4.46243 -2.269549,7.35194 -0.337775,2.88953 -0.167265,5.46454 0.509549,7.72025 0.706445,2.2323 1.827171,4.01577 3.364024,5.35089 1.563346,1.33822 3.417585,2.13103 5.564834,2.38204 2.147254,0.251 4.124564,-0.0959 5.927906,-1.0406 1.829852,-0.94159 3.344424,-2.4153 4.546666,-4.42451 1.205331,-2.03568 1.977715,-4.49795 2.315495,-7.38745 0.337761,-2.88952 0.152859,-5.45207 -0.553572,-7.68439 -0.70334,-2.25881 -1.836531,-4.0567 -3.399878,-5.39492 -1.344734,-1.16824 -2.923581,-1.92107 -4.735655,-2.25927 z m 42.95417,8.33912 -0.701422,2.46435 6.35202,1.81114 -6.982483,24.48649 2.770153,0.7892 7.68967,-26.94982 z m -63.668214,-9.90247 -9.478425,-0.39429 -0.107342,2.55945 6.599913,0.27419 -1.056182,25.4409 2.880772,0.11854 z m 48.091689,8.75148 c 1.592784,0.33722 2.896995,1.07443 3.91019,2.21647 1.039303,1.14757 1.719991,2.64312 2.03962,4.48407 0.319631,1.84094 0.224412,3.96191 -0.284072,6.36412 -0.508447,2.40227 -1.282335,4.38119 -2.320492,5.93472 -1.038145,1.55353 -2.263153,2.64296 -3.678301,3.27095 -1.389033,0.63352 -2.881059,0.7819 -4.47386,0.44478 -1.592761,-0.33722 -2.908669,-1.07956 -3.947974,-2.22713 -1.013199,-1.14201 -1.679943,-2.63406 -1.999573,-4.475 -0.319633,-1.84093 -0.224766,-3.95995 0.283733,-6.36219 0.508444,-2.40225 1.280426,-4.38154 2.318569,-5.93506 1.038166,-1.55351 2.251481,-2.64805 3.640514,-3.2816 1.415151,-0.628 2.918865,-0.7713 4.511646,-0.43413 z m 30.773183,5.53919 -0.81954,2.42562 6.25655,2.11558 -8.1535,24.12081 2.73255,0.92337 8.97144,-26.5487 z m -59.248255,-10.2219 c 1.617052,0.18908 2.984041,0.80518 4.098112,1.84905 1.140578,1.04695 1.953618,2.47176 2.441449,4.27544 0.487823,1.80367 0.589929,3.92623 0.304829,6.36509 -0.285091,2.43886 -0.873615,4.47777 -1.76423,6.12031 -0.890668,1.64251 -2.01167,2.84079 -3.362961,3.59645 -1.324791,0.75878 -2.796616,1.04509 -4.413679,0.85607 -1.617081,-0.18898 -2.996339,-0.80698 -4.136918,-1.85393 -1.114072,-1.04386 -1.912911,-2.46654 -2.400721,-4.27022 -0.487823,-1.80367 -0.589915,-3.92625 -0.304827,-6.3651 0.28509,-2.43886 0.873947,-4.4797 1.76457,-6.12223 0.890662,-1.64254 1.997782,-2.84481 3.322571,-3.60359 1.351305,-0.75567 2.834742,-1.03636 4.451805,-0.84734 z m 83.947295,18.84058 c -1.5203,-0.30877 -3.02799,-0.27008 -4.52264,0.11485 -1.96769,0.52213 -3.76407,1.64262 -5.39005,3.36107 -1.59193,1.70216 -2.87342,3.92419 -3.84234,6.6673 -0.9689,2.7431 -1.37258,5.29051 -1.21176,7.64009 0.19488,2.33329 0.89409,4.32181 2.09733,5.96397 1.2284,1.65103 2.86076,2.83556 4.89921,3.55557 2.03846,0.72 4.04116,0.81881 6.00886,0.29664 1.99286,-0.51323 3.79748,-1.61586 5.41458,-3.30913 1.62599,-1.71846 2.92346,-3.94907 3.89237,-6.69218 0.96889,-2.74311 1.35661,-5.28192 1.16174,-7.6152 -0.18597,-2.35847 -0.89188,-4.36261 -2.12029,-6.01365 -1.20323,-1.64214 -2.82523,-2.82335 -4.86369,-3.54335 -0.50959,-0.18006 -1.01655,-0.32307 -1.52332,-0.42598 z M 15.824082,126.65583 a 98.851776,98.851776 0 0 0 3.928585,17.53958 c 0.533417,-1.87175 0.756756,-3.96468 0.657077,-6.28629 -0.124788,-2.90652 -0.71508,-5.40619 -1.766618,-7.49819 -0.757049,-1.52367 -1.698651,-2.772 -2.819044,-3.7551 z m 134.881838,25.49039 -0.75426,2.44906 6.31477,1.9434 -7.48739,24.33574 2.7561,0.84622 8.23779,-26.78549 z m -13.65011,-2.1076 c 0.38045,0.0754 0.76043,0.17972 1.14421,0.31533 1.53513,0.54222 2.73137,1.44616 3.58679,2.71069 0.88059,1.27344 1.35974,2.84373 1.43629,4.71063 0.0764,1.86689 -0.29471,3.95594 -1.11258,6.27121 -0.81778,2.31528 -1.84271,4.17455 -3.07482,5.57922 -1.2321,1.4047 -2.59002,2.3286 -4.07505,2.76646 -1.45987,0.44676 -2.95767,0.39855 -4.4928,-0.14368 -1.53514,-0.54223 -2.74334,-1.45176 -3.6239,-2.72518 -0.85542,-1.26454 -1.32071,-2.82887 -1.39725,-4.69579 -0.0764,-1.86689 0.2935,-3.96013 1.11133,-6.2754 0.81778,-2.31528 1.84271,-4.17455 3.07482,-5.57923 1.23209,-1.40468 2.57741,-2.33034 4.03726,-2.7771 1.11378,-0.32839 2.24373,-0.38005 3.3857,-0.15716 z m 37.5159,8.73045 c -1.8206,-0.30692 -3.57447,-0.14644 -5.2619,0.48199 -1.90253,0.72441 -3.57205,2.02567 -5.01005,3.90427 -1.40582,1.85884 -2.44805,4.20479 -3.12571,7.03397 -0.67766,2.82915 -0.81594,5.40212 -0.41109,7.72212 0.43704,2.30026 1.34143,4.20341 2.70928,5.71118 1.39384,1.51399 3.14013,2.5236 5.24254,3.0272 2.10239,0.50358 4.10604,0.39423 6.00858,-0.33017 1.9285,-0.7182 3.60769,-2.00478 5.03946,-3.85742 1.438,-1.87858 2.49647,-4.23197 3.17414,-7.06112 0.67768,-2.82917 0.79742,-5.39312 0.36039,-7.69339 -0.43081,-2.32623 -1.34227,-4.24754 -2.73608,-5.76153 -1.36787,-1.50777 -3.10425,-2.51331 -5.20666,-3.01689 -0.2628,-0.0629 -0.52284,-0.11627 -0.7829,-0.16021 z m 20.79947,4.21042 -9.39068,-1.35065 -0.36496,2.53573 6.53748,0.94148 -1.53443,10.67716 a 98.851776,98.851776 0 0 0 3.62517,-4.95633 z m -20.6317,-1.47937 c 1.58331,0.37921 2.86783,1.15048 3.85042,2.31897 1.00852,1.1747 1.64667,2.6871 1.91741,4.53585 0.27072,1.84877 0.11875,3.96813 -0.45321,6.35604 -0.57198,2.38792 -1.39473,4.3445 -2.47368,5.86995 -1.07896,1.52547 -2.33499,2.5838 -3.76629,3.17408 -1.40535,0.59652 -2.89903,0.70355 -4.48231,0.32429 -1.58332,-0.37912 -2.87931,-1.15685 -3.88786,-2.33155 -0.98257,-1.16847 -1.61083,-2.67679 -1.88156,-4.52554 -0.27074,-1.84876 -0.1191,-3.96621 0.45289,-6.35411 0.57197,-2.38791 1.39852,-4.34382 2.4775,-5.86928 1.07895,-1.52548 2.31901,-2.58697 3.72433,-3.18347 1.4313,-0.59028 2.93907,-0.69448 4.52236,-0.31523 z m -119.131825,6.61063 c -2.140142,-0.30583 -4.138206,-0.01 -5.991559,0.88456 -1.826924,0.89819 -3.36823,2.34892 -4.625279,4.3531 -1.226861,1.98154 -2.045508,4.41109 -2.457119,7.29101 -0.06695,0.46841 -0.099,0.91553 -0.138667,1.36784 a 98.851776,98.851776 0 0 0 2.840561,2.93777 c -0.06237,-1.19869 -0.01056,-2.48758 0.190105,-3.89156 0.347379,-2.43076 0.986461,-4.45591 1.918883,-6.07513 0.932415,-1.61917 2.072338,-2.79103 3.416112,-3.51564 1.370203,-0.72084 2.862138,-0.96671 4.473833,-0.73634 1.611692,0.23038 2.958713,0.88277 4.045697,1.95482 1.113405,1.0758 1.8921,2.52013 2.333608,4.33571 0.441488,1.81555 0.486843,3.9388 0.139413,6.36957 -0.347379,2.43076 -0.986464,4.45593 -1.918881,6.07512 -0.932417,1.6192 -2.082803,2.79027 -3.452995,3.51111 -0.312902,0.16873 -0.635907,0.30583 -0.963298,0.42275 a 98.851776,98.851776 0 0 0 2.527828,1.82335 c 1.667169,-0.90254 3.080574,-2.26158 4.237011,-4.08654 1.257061,-2.00417 2.093368,-4.44628 2.504988,-7.32618 0.411649,-2.87993 0.291452,-5.44373 -0.357608,-7.69339 -0.645277,-2.27607 -1.731081,-4.1034 -3.259669,-5.48121 -1.502152,-1.37401 -3.322835,-2.21483 -5.462964,-2.52072 z m 15.28471,2.74564 -0.541562,2.50252 6.457248,1.39538 -5.377346,24.88726 2.817833,0.60921 5.919248,-27.39172 z m 15.473237,3.3958 -0.663634,2.47499 6.381575,1.71125 -6.59081,24.59342 2.785653,0.74632 7.254448,-27.06841 z M 35.7751,166.14986 29.798524,165.73794 a 98.851776,98.851776 0 0 0 1.628324,2.68182 l 1.297367,0.0885 -0.111704,1.63045 a 98.851776,98.851776 0 0 0 2.645445,3.51417 z m 77.13733,15.76042 c -1.52381,-0.291 -3.03021,-0.23348 -4.52029,0.16882 -1.96146,0.54501 -3.74561,1.68617 -5.35148,3.42342 -1.57202,1.72058 -2.82783,3.95659 -3.764747,6.71077 -0.936904,2.75421 -1.308828,5.30468 -1.120692,7.65222 0.221995,2.33086 0.94275,4.3122 2.165009,5.94024 1.24753,1.63663 2.8945,2.80131 4.9412,3.49754 2.04671,0.69624 4.05157,0.77291 6.01307,0.22797 1.98675,-0.5364 3.77716,-1.66175 5.37443,-3.37375 1.60589,-1.73726 2.87785,-3.98145 3.81476,-6.73565 0.93692,-2.75418 1.29495,-5.29807 1.07294,-7.62892 -0.21339,-2.35613 -0.94267,-4.35169 -2.19022,-5.98832 -1.22225,-1.62804 -2.85897,-2.7891 -4.90568,-3.48533 -0.51165,-0.17412 -1.0204,-0.312 -1.5283,-0.40901 z m -0.471,2.60823 c 0.38156,0.0695 0.76317,0.17122 1.14852,0.3022 1.54134,0.52432 2.74797,1.41412 3.61804,2.66862 0.89534,1.2631 1.39312,2.8247 1.49138,4.69061 0.0982,1.86589 -0.24906,3.96141 -1.03983,6.28606 -0.79078,2.32465 -1.7943,4.19753 -3.00999,5.61646 -1.21569,1.41891 -2.56355,2.3566 -4.04339,2.81172 -1.45455,0.46371 -2.95263,0.43204 -4.49395,-0.0923 -1.54135,-0.5243 -2.75822,-1.41773 -3.65356,-2.68084 -0.87007,-1.25449 -1.35534,-2.81409 -1.4536,-4.67997 -0.0982,-1.86589 0.24907,-3.9614 1.03983,-6.28605 0.79079,-2.32464 1.794,-4.19561 3.00965,-5.61455 1.21569,-1.41893 2.54944,-2.3609 4.00402,-2.82462 1.10988,-0.34134 2.23839,-0.40695 3.38288,-0.19733 z m 14.91959,2.78026 -0.84961,2.41634 6.23105,2.19239 -6.97836,19.81827 a 98.851776,98.851776 0 0 0 3.22309,-0.47151 l 7.32363,-20.80646 z m 23.28821,7.72467 c -1.53267,-0.23997 -3.0373,-0.13311 -4.51308,0.31884 -1.94213,0.61034 -3.68724,1.81085 -5.23409,3.60087 -1.51354,1.77223 -2.69249,4.05038 -3.5367,6.83439 -0.42087,1.3879 -0.70269,2.71989 -0.84748,3.99749 a 98.851776,98.851776 0 0 0 3.07575,-0.77128 c 0.14277,-0.76618 0.31859,-1.55202 0.56924,-2.37863 0.71254,-2.34981 1.65337,-4.25457 2.82086,-5.71336 1.16751,-1.45884 2.46783,-2.44288 3.90607,-2.955 1.09782,-0.3783 2.22449,-0.48291 3.37533,-0.31172 0.3837,0.0566 0.76794,0.14483 1.15759,0.26215 1.55801,0.47243 2.79373,1.32054 3.70529,2.54521 0.51413,0.67614 0.8996,1.457 1.18006,2.32292 a 98.851776,98.851776 0 0 0 2.54129,-1.21483 c -0.40664,-1.05832 -0.95134,-2.01468 -1.6423,-2.86082 -1.27606,-1.58623 -2.94731,-2.69305 -5.01615,-3.3204 -0.51721,-0.15683 -1.0308,-0.27578 -1.54168,-0.35583 z m 12.78586,3.92235 -0.0214,0.0875 a 98.851776,98.851776 0 0 0 0.10887,-0.066 z"
     id="circle3569"
     inkscape:connector-curvature="0" />
  <path
     style="fill:none;stroke:#000000;stroke-width:0;stroke-linecap:butt;stroke-linejoin:miter;stroke-opacity:1;stroke-miterlimit:4;stroke-dasharray:none"
     d="m -293.1336,43.980742 c 1.33127,-1.210237 57.24422,-23.236555 136.39374,-8.592684 79.149503,14.643871 102.144011,4.477877 130.70561,-7.261423"
     id="path4748"
     inkscape:connector-curvature="0" />
  <text
     xml:space="preserve"
     style="font-style:normal;font-variant:normal;font-weight:normal;font-stretch:normal;font-size:40px;line-height:1.25;font-family:Montserrat;-inkscape-font-specification:Montserrat;text-align:center;letter-spacing:0px;word-spacing:0px;text-anchor:middle;fill:#000000;fill-opacity:1;stroke:none"
     x="-57.120083"
     y="-14.577291"
     id="text4752"><tspan
       sodipodi:role="line"
       id="tspan4750"
       x="-57.120083"
       y="22.186451"></tspan></text>
  <text
     xml:space="preserve"
     style="font-style:normal;font-variant:normal;font-weight:normal;font-stretch:normal;font-size:40px;line-height:1.25;font-family:Montserrat;-inkscape-font-specification:Montserrat;text-align:center;letter-spacing:0px;word-spacing:0px;text-anchor:middle;fill:#000000;fill-opacity:1;stroke:none"
     x="-185.48566"
     y="225.69341"
     id="text4802"><tspan
       sodipodi:role="line"
       id="tspan4800"
       x="-185.48566"
       y="262.45715"></tspan></text>
  <text
     xml:space="preserve"
     style="font-style:normal;font-variant:normal;font-weight:normal;font-stretch:normal;font-size:40px;line-height:1.25;font-family:Montserrat;-inkscape-font-specification:Montserrat;text-align:center;letter-spacing:0px;word-spacing:0px;text-anchor:middle;fill:#000000;fill-opacity:1;stroke:none"
     x="-238.02348"
     y="104.09176"
     id="text4806"><tspan
       sodipodi:role="line"
       id="tspan4804"
       x="-238.02348"
       y="140.8555"></tspan></text>
</svg>
