<svg xmlns="http://www.w3.org/2000/svg" viewBox="0 0 227.42 227.42"><defs><style>.cls-1{fill:none;stroke:#fff;stroke-miterlimit:10;stroke-width:7px;}.cls-2{fill:#fff;}</style></defs><title>braintrust</title><g id="Layer_2" data-name="Layer 2"><g id="Layer_1-2" data-name="Layer 1"><circle class="cls-1" cx="113.71" cy="113.71" r="110.21" transform="translate(-47.1 113.71) rotate(-45)"/><path class="cls-2" d="M191.68,102.85a19.44,19.44,0,0,0-11.45-17.7,23.78,23.78,0,0,0-21.35-20,18,18,0,0,0-16.15-10.06h0c-.87,0-1.73.17-2.6.17H140a16.5,16.5,0,0,0-2.77.69,20,20,0,0,0-12.33-4.51,17.85,17.85,0,0,0-10.24,3.12,25.23,25.23,0,0,0-10.24-2.08A24.48,24.48,0,0,0,85.8,60.84a20.42,20.42,0,0,0-4.52-.52A17.76,17.76,0,0,0,66,68.83H64.45c-.35,0-.7.17-1,.17s-.53.18-.87.18a2.45,2.45,0,0,0-1,.34c-.35,0-.52.18-.87.18-.35.17-.7.17-.87.34-.35.18-.69.18-.87.35s-.52.17-.69.35l-1,.52h0a21.08,21.08,0,0,0-10.77,17v.17a28.12,28.12,0,0,0,19.44,48.43,46.88,46.88,0,0,0,4.87-.34,27.7,27.7,0,0,0,6.59,1.21c4.51,11.11,13.54,17,25.87,17,11.8,0,26,12,26,26v2.6H149l-2.26-16.14a28.28,28.28,0,0,0,30.21-21.18,34.67,34.67,0,0,0,.87-7.11,21,21,0,0,0,13.88-19.62A19.45,19.45,0,0,0,190,111,22.19,22.19,0,0,0,191.68,102.85Zm-7.46,9.37a14.48,14.48,0,0,1,1.73,7.12,15.07,15.07,0,0,1-8.85,13.71,28.25,28.25,0,0,0-20.48-21.17,2.86,2.86,0,1,0-1.39,5.55,22.19,22.19,0,0,1,16.84,19.44,23.67,23.67,0,0,1-.52,7.81A22.47,22.47,0,0,1,144.12,161l-4-1,2.43,17.7h-8c-1.73-16.31-18-29-31.59-29q-14.06,0-19.79-11.46a.64.64,0,0,0-.17-.52,12.34,12.34,0,0,1,5.9-16.49A2.87,2.87,0,1,0,86.49,115a18.11,18.11,0,0,0-10.24,16.49,18.9,18.9,0,0,1-4.51-1l-.7-.35-.69.18a19.31,19.31,0,0,1-4.52.52,22.63,22.63,0,0,1-22.56-22.57,22,22,0,0,1,4-12.67A20.56,20.56,0,0,0,61.67,109.1a8.19,8.19,0,0,0-1,2.6,11.75,11.75,0,0,0,1.39,9,2.77,2.77,0,0,0,2.43,1.39,3.26,3.26,0,0,0,1.38-.35,2.88,2.88,0,0,0,1-3.82,6.31,6.31,0,0,1-.7-4.69A6.15,6.15,0,0,1,69,109.45a2.87,2.87,0,0,0,1-3.82,2.81,2.81,0,0,0-3.12-1.22A15.3,15.3,0,0,1,52,89.31a15.11,15.11,0,0,1,15.1-15.1h.35l2.25.17.87-1.73a12.27,12.27,0,0,1,11.11-7,13.87,13.87,0,0,1,4.51.87l1.91.7,1.22-1.74a19.23,19.23,0,0,1,15.45-7.64,21.17,21.17,0,0,1,9.2,2.26l1.73.87L117,59.8a12.29,12.29,0,0,1,8-2.95,11.63,11.63,0,0,1,6.77,2.08,17.94,17.94,0,0,0-7,14.06,2.78,2.78,0,1,0,5.56,0,12.41,12.41,0,0,1,6.25-10.76l.86-.35a14.35,14.35,0,0,1,5.21-1.21,12.56,12.56,0,0,1,11.63,8.16l.7,1.91H157A18.1,18.1,0,0,1,174.84,87.4l.18,1.91,1.73.52a13.83,13.83,0,0,1,9.38,13,12.48,12.48,0,0,1-1.74,6.6l-.69,1.39Zm-59.71,14.41a15.76,15.76,0,0,0-7-13h0a24.11,24.11,0,0,1-13.71-18.74,2.28,2.28,0,1,1,4.51-.7,19.84,19.84,0,0,0,13.19,16.14,20.3,20.3,0,0,0,15.28-.86A19.38,19.38,0,0,0,146.9,98a2.31,2.31,0,0,1,4.34,1.56,23.55,23.55,0,0,1-12.5,13.89,24.91,24.91,0,0,1-10.59,2.43,11,11,0,0,1-2.26-.17A20.51,20.51,0,0,1,129,126.46a2.3,2.3,0,0,1-2.26,2.25A2.14,2.14,0,0,1,124.51,126.63Zm42.87-26a2.26,2.26,0,1,1-4.51,0A18.59,18.59,0,0,0,144.29,82a2.26,2.26,0,0,1,0-4.51A23.18,23.18,0,0,1,167.38,100.59ZM107.67,77.33a2.29,2.29,0,0,1,2.25-2.25,18,18,0,0,1,18.06,18,2.26,2.26,0,0,1-4.52,0,13.56,13.56,0,0,0-13.54-13.54A2.3,2.3,0,0,1,107.67,77.33Zm-5.38,51.56a2.2,2.2,0,0,1-1.91,1,3.13,3.13,0,0,1-1.22-.35,2.25,2.25,0,0,1-.69-3.12,13,13,0,0,0-4.17-17.88,2.26,2.26,0,0,1,2.43-3.82A17.66,17.66,0,0,1,102.29,128.89ZM100.21,89a13.37,13.37,0,0,1-9-3.81,21,21,0,0,1-27.6,6.07,2.29,2.29,0,0,1,2.25-4A16.55,16.55,0,0,0,88.4,81.15,14.75,14.75,0,0,1,87,75.08a2.26,2.26,0,1,1,4.52,0,9,9,0,0,0,8.68,9.2,2.29,2.29,0,0,1,2.25,2.25A2.23,2.23,0,0,1,100.21,89Zm52.94,44.09a2.23,2.23,0,0,1,.52,3.13,22.44,22.44,0,0,1-18.4,9.72,22.07,22.07,0,0,1-12.5-3.82,2.24,2.24,0,0,1,2.6-3.65,18.19,18.19,0,0,0,13.37,2.78,17.73,17.73,0,0,0,11.46-7.46A2,2,0,0,1,153.15,133.05Z"/></g></g></svg>