<?xml version="1.0" encoding="UTF-8" standalone="no"?>
<svg
   xmlns:dc="http://purl.org/dc/elements/1.1/"
   xmlns:cc="http://creativecommons.org/ns#"
   xmlns:rdf="http://www.w3.org/1999/02/22-rdf-syntax-ns#"
   xmlns:svg="http://www.w3.org/2000/svg"
   xmlns="http://www.w3.org/2000/svg"
   xmlns:sodipodi="http://sodipodi.sourceforge.net/DTD/sodipodi-0.dtd"
   xmlns:inkscape="http://www.inkscape.org/namespaces/inkscape"
   viewBox="0 0 227.42 227.42"
   version="1.1"
   id="svg893"
   sodipodi:docname="braintrust.svg"
   inkscape:version="0.92.2 2405546, 2018-03-11">
  <metadata
     id="metadata897">
    <rdf:RDF>
      <cc:Work
         rdf:about="">
        <dc:format>image/svg+xml</dc:format>
        <dc:type
           rdf:resource="http://purl.org/dc/dcmitype/StillImage" />
        <dc:title>braintrust</dc:title>
      </cc:Work>
    </rdf:RDF>
  </metadata>
  <sodipodi:namedview
     pagecolor="#ffffff"
     bordercolor="#666666"
     borderopacity="1"
     objecttolerance="10"
     gridtolerance="10"
     guidetolerance="10"
     inkscape:pageopacity="0"
     inkscape:pageshadow="2"
     inkscape:window-width="3840"
     inkscape:window-height="2075"
     id="namedview895"
     showgrid="false"
     inkscape:pagecheckerboard="true"
     inkscape:zoom="4.6987976"
     inkscape:cx="128.0702"
     inkscape:cy="89.453109"
     inkscape:window-x="7680"
     inkscape:window-y="2196"
     inkscape:window-maximized="0"
     inkscape:current-layer="svg893" />
  <defs
     id="defs883">
    <style
       id="style881">.cls-1{fill:none;stroke:#fff;stroke-miterlimit:10;stroke-width:7px;}.cls-2{fill:#fff;}</style>
  </defs>
  <title
     id="title885">braintrust</title>
  <circle
     class="cls-1"
     cx="0.00015778505"
     cy="160.81038"
     r="110.21"
     transform="rotate(-45)"
     id="circle887"
     style="fill:none;stroke:#ffffff;stroke-width:7px;stroke-miterlimit:10" />
  <path
     class="cls-2"
     d="m 191.68,102.85 a 19.44,19.44 0 0 0 -11.45,-17.7 23.78,23.78 0 0 0 -21.35,-20 18,18 0 0 0 -16.15,-10.06 v 0 c -0.87,0 -1.73,0.17 -2.6,0.17 H 140 A 16.5,16.5 0 0 0 137.23,55.95 20,20 0 0 0 124.9,51.44 17.85,17.85 0 0 0 114.66,54.56 25.23,25.23 0 0 0 104.42,52.48 24.48,24.48 0 0 0 85.8,60.84 20.42,20.42 0 0 0 81.28,60.32 17.76,17.76 0 0 0 66,68.83 h -1.55 c -0.35,0 -0.7,0.17 -1,0.17 -0.3,0 -0.53,0.18 -0.87,0.18 a 2.45,2.45 0 0 0 -1,0.34 c -0.35,0 -0.52,0.18 -0.87,0.18 -0.35,0.17 -0.7,0.17 -0.87,0.34 -0.35,0.18 -0.69,0.18 -0.87,0.35 -0.18,0.17 -0.52,0.17 -0.69,0.35 l -1,0.52 v 0 a 21.08,21.08 0 0 0 -10.77,17 v 0.17 a 28.12,28.12 0 0 0 19.44,48.43 46.88,46.88 0 0 0 4.87,-0.34 27.7,27.7 0 0 0 6.59,1.21 c 4.51,11.11 13.54,17 25.87,17 11.8,0 26,12 26,26 v 2.6 H 149 l -2.26,-16.14 a 28.28,28.28 0 0 0 30.21,-21.18 34.67,34.67 0 0 0 0.87,-7.11 21,21 0 0 0 13.88,-19.62 19.45,19.45 0 0 0 -1.7,-8.28 22.19,22.19 0 0 0 1.68,-8.15 z m -7.46,9.37 a 14.48,14.48 0 0 1 1.73,7.12 15.07,15.07 0 0 1 -8.85,13.71 28.25,28.25 0 0 0 -20.48,-21.17 2.860708,2.860708 0 1 0 -1.39,5.55 22.19,22.19 0 0 1 16.84,19.44 23.67,23.67 0 0 1 -0.52,7.81 22.47,22.47 0 0 1 -27.43,16.32 l -4,-1 2.43,17.7 h -8 c -1.73,-16.31 -18,-29 -31.59,-29 q -14.06,0 -19.79,-11.46 A 0.64,0.64 0 0 0 83,136.72 12.34,12.34 0 0 1 88.9,120.23 2.8792794,2.8792794 0 1 0 86.49,115 a 18.11,18.11 0 0 0 -10.24,16.49 18.9,18.9 0 0 1 -4.51,-1 l -0.7,-0.35 -0.69,0.18 a 19.31,19.31 0 0 1 -4.52,0.52 22.63,22.63 0 0 1 -22.56,-22.57 22,22 0 0 1 4,-12.67 20.56,20.56 0 0 0 14.4,13.5 8.19,8.19 0 0 0 -1,2.6 11.75,11.75 0 0 0 1.39,9 2.77,2.77 0 0 0 2.43,1.39 3.26,3.26 0 0 0 1.38,-0.35 2.88,2.88 0 0 0 1,-3.82 6.31,6.31 0 0 1 -0.7,-4.69 6.15,6.15 0 0 1 2.83,-3.78 2.87,2.87 0 0 0 1,-3.82 2.81,2.81 0 0 0 -3.12,-1.22 A 15.3,15.3 0 0 1 52,89.31 15.11,15.11 0 0 1 67.1,74.21 h 0.35 l 2.25,0.17 0.87,-1.73 a 12.27,12.27 0 0 1 11.11,-7 13.87,13.87 0 0 1 4.51,0.87 l 1.91,0.7 1.22,-1.74 a 19.23,19.23 0 0 1 15.45,-7.64 21.17,21.17 0 0 1 9.2,2.26 l 1.73,0.87 1.3,-1.17 a 12.29,12.29 0 0 1 8,-2.95 11.63,11.63 0 0 1 6.77,2.08 17.94,17.94 0 0 0 -7,14.06 2.78,2.78 0 1 0 5.56,0 12.41,12.41 0 0 1 6.25,-10.76 l 0.86,-0.35 a 14.35,14.35 0 0 1 5.21,-1.21 12.56,12.56 0 0 1 11.63,8.16 l 0.7,1.91 H 157 a 18.1,18.1 0 0 1 17.84,16.66 l 0.18,1.91 1.73,0.52 a 13.83,13.83 0 0 1 9.38,13 12.48,12.48 0 0 1 -1.74,6.6 l -0.69,1.39 z m -59.71,14.41 a 15.76,15.76 0 0 0 -7,-13 v 0 a 24.11,24.11 0 0 1 -13.71,-18.74 2.2820002,2.2820002 0 1 1 4.51,-0.7 19.84,19.84 0 0 0 13.19,16.14 20.3,20.3 0 0 0 15.28,-0.86 19.38,19.38 0 0 0 10.12,-11.47 2.31,2.31 0 0 1 4.34,1.56 23.55,23.55 0 0 1 -12.5,13.89 24.91,24.91 0 0 1 -10.59,2.43 11,11 0 0 1 -2.26,-0.17 20.51,20.51 0 0 1 3.11,10.75 2.3,2.3 0 0 1 -2.26,2.25 2.14,2.14 0 0 1 -2.23,-2.08 z m 42.87,-26 a 2.26,2.26 0 1 1 -4.51,0 18.59,18.59 0 0 0 -18.58,-18.63 2.26,2.26 0 0 1 0,-4.51 23.18,23.18 0 0 1 23.09,23.1 z m -59.71,-23.3 a 2.29,2.29 0 0 1 2.25,-2.25 18,18 0 0 1 18.06,18 2.26,2.26 0 0 1 -4.52,0 13.56,13.56 0 0 0 -13.54,-13.54 2.3,2.3 0 0 1 -2.25,-2.21 z m -5.38,51.56 a 2.2,2.2 0 0 1 -1.91,1 3.13,3.13 0 0 1 -1.22,-0.35 2.25,2.25 0 0 1 -0.69,-3.12 13,13 0 0 0 -4.17,-17.88 2.2636972,2.2636972 0 0 1 2.43,-3.82 17.66,17.66 0 0 1 5.56,24.17 z M 100.21,89 a 13.37,13.37 0 0 1 -9,-3.81 21,21 0 0 1 -27.6,6.07 2.294695,2.294695 0 0 1 2.25,-4 16.55,16.55 0 0 0 22.54,-6.11 14.75,14.75 0 0 1 -1.4,-6.07 2.26,2.26 0 1 1 4.52,0 9,9 0 0 0 8.68,9.2 2.29,2.29 0 0 1 2.25,2.25 2.23,2.23 0 0 1 -2.24,2.47 z m 52.94,44.09 a 2.23,2.23 0 0 1 0.52,3.13 22.44,22.44 0 0 1 -18.4,9.72 22.07,22.07 0 0 1 -12.5,-3.82 2.2406751,2.2406751 0 0 1 2.6,-3.65 18.19,18.19 0 0 0 13.37,2.78 17.73,17.73 0 0 0 11.46,-7.46 2,2 0 0 1 2.95,-0.74 z"
     id="path889"
     inkscape:connector-curvature="0"
     style="fill:#ffffff" />
</svg>
