<?xml version="1.0" encoding="utf-8"?>
<!-- Generator: Adobe Illustrator 22.1.0, SVG Export Plug-In . SVG Version: 6.00 Build 0)  -->
<svg version="1.1" id="Layer_1" xmlns="http://www.w3.org/2000/svg" xmlns:xlink="http://www.w3.org/1999/xlink" x="0px" y="0px"
	 viewBox="0 0 1800 1800" style="enable-background:new 0 0 1800 1800;" xml:space="preserve">
<style type="text/css">
	.st0{fill:#29353A;}
	.st1{fill:#0C1516;}
	.st2{fill:none;}
</style>
<g id="Layer_2_1_">
	<g id="Layer_1-2">
		<path class="st0" d="M1223.1,35.7v549.9H1773V35.7H1223.1z M1396.8,401.3h-24.3l-3.3-6.6l-3.2-6.7l16.3-0.1
			c9.6,0,16.6-0.1,16.6-0.3l-13.3-26.5l-13.1-26.3l13.2-26.2l13.2-26.6l-9,1h-9.4l-29.6,59.1l-29.6,59.1h-49.1l16.7-33.4l16.7-33.3
			l-16.8-33.4l-16.7-33.3h48.7l3.2,6.4l3.1,6.6c0,0.1-5.4,0.3-15.9,0.3h-16.8l13.2,26.6l13.2,26.3l-13.3,26.6l-13.3,26.4l9.1,1h9
			l22.4-44.5l30.1-60.1l7.8-15.6h24c17.3,0,24.2,0,24.2,0.2l-16.6,33.3l-16.6,33l16.7,33.5l16.6,33.4L1396.8,401.3z M1480.6,329.2
			c0,15.3,0,15.3-1.7,18.6c-2.4,4.8-7.6,7.1-15,6.4c-2-0.2-3.9-0.7-5.8-1.4l-0.8-0.4v-7.1l1.4,0.6c2.2,1,4.6,1.4,7,1.3
			c1.1,0.1,2.3-0.2,3.3-0.7c1.4-0.7,2.5-2,3.1-3.5c0.4-1.1,0.4-1.4,0.5-14.3v-13h8.1L1480.6,329.2z M1541.1,354.5h-4.3l-1.3-4
			l-1.2-3.2h-14.7l-1.4,3.1l-1.3,3.1h-8.5l17.6-37.7c0.5-1,0.6-1,1.1-1c0.5,0,1.3,1.4,9.5,19.3l8.8,19.3
			C1544,353.9,1542.6,354.2,1541.1,354.5z M1606,343.1v9.1l-2.9,0.6c-3.4,1-6.9,1.5-10.4,1.4c-2,0.1-4.1,0-6.1-0.3
			c-4.3-0.7-8.2-2.9-11-6.1c-1.7-2.2-2.9-4.8-3.6-7.4c-0.7-3.5-0.7-7,0-10.5c1.7-7.5,7.8-13.3,15.4-14.7c4.1-0.8,11.8-0.3,15.1,1.1
			l1.4,0.5v3.7c0,3-0.3,3.8-0.6,3.7c-3.1-1.5-6.5-2.2-10-2.2c-4.1,0-7.1,1-9.6,3.6c-1.6,1.7-2.8,3.7-3.4,5.9
			c-0.5,2.6-0.4,5.3,0.2,7.9c1.1,4.5,4.9,7.8,9.6,8.1c1.9,0.2,3.8,0,5.7-0.6v-13.7h9.2L1606,343.1z M1665.1,351.1v2.4h-28.5v-37.7
			h26.5v6.1h-17.3v9.2h16.3v5.1h-16.3l1,5.7v5.5l9.2,0.1l9.2,0.2V351.1z M1726.4,353.4h-4.7l-4.7-8.8l-4.9-9.2l-4.9,9l-4.9,10h-4.6
			c-3.3,0-4.7,0-4.7-0.2l5.8-10.2c3.1-5.5,5.7-10.2,5.6-10.4l-5.4-9.5l-5.3-9.4c1.6-0.2,3.2-0.3,4.8-0.2l4.4,0.1l3,5.7l4.6,8.7
			l1.5,3.1l4.4-8.6l4.6-8.7c0.3-0.4,9.2-0.4,9.2,0l-5.1,9l-5.1,9.3c0,0.2,1.7,3.9,6.7,12.3c3.1,5.1,4.3,7.4,4.3,7.6
			C1731,353.3,1729.6,353.5,1726.4,353.4L1726.4,353.4z M623.3,585.6h549.9V35.7H623.3V585.6z M1079.5,294.4h11.2v23.4h11.2v-23.4
			h11.2v57h-11.2V329h-11.2v22.4h-11.2V294.4z M1024.5,306.1l11.3-11.7h23.3v11.2h-23.4v34.6h23.4v11.2h-23.3l-11.3-11.2V306.1z
			 M969.5,294.4h33.6v11.2h-11.2v45.8h-12.2v-45.8h-10.2V294.4z M911.5,305.6h0.8l11.4-11.2h23.4v11.2h-22.4v12.2H941V329h-16.3
			v11.2h22.4v11.2h-23.4l-11.4-11.2h-0.8V305.6z M859.6,306.1l11-11.7h22.6v11.2h-22.4v12.2h17.3V329h-17.3v22.4h-11.2V306.1z
			 M800.5,294.4H823l11.1,11.7v11.7H823l11.1,11.2v22.4h-12.2V329h-10.2v22.4h-11.2V294.4z M741.4,306.1l11.1-11.7h11.3l11.2,11.7
			v45.3h-12.2V329h-10.2v22.4h-11.2V306.1z M686.4,305.6l11.2-10.9v-0.3H720v11.2h-22.4v12.2H715V329h-17.3v22.4h-11.2V305.6z"/>
		<path class="st0" d="M752.6,305.6h10.2v12.2h-10.2V305.6z M811.7,305.6h10.2v12.2h-10.2V305.6z M337,339.2c0,0,0.7-16.1-18.5-20.9
			c0,0,10.9-5,10.9-17.3c0,0,1.6-19.9-25.2-22.9H274v84.5h34.6C308.6,362.6,337,363.2,337,339.2z M290.3,291.3h11.5
			c12.5,2,12.1,10.3,12.1,10.3c0,11.7-14,12.1-14,12.1h-9.7V291.3z M305.6,350.4h-15.3V328h15.3c16.4,0,16,10.7,16,10.7
			C321.6,351.5,305.6,350.4,305.6,350.4z M192.8,339.2c0,0,0.6-16.1-18.5-20.9c0,0,10.9-5,10.9-17.3c0,0,1.6-19.9-25.2-22.9h-29.6
			v84.5h34C164.4,362.6,192.8,363.2,192.8,339.2L192.8,339.2z M145.7,291.3h11.9c12.5,2,12.1,10.3,12.1,10.3c0,11.7-14,12.1-14,12.1
			h-10.1V291.3z M161.4,350.4h-15.7V328h15.7c16.3,0,15.9,10.7,15.9,10.7C177.3,351.5,161.4,350.4,161.4,350.4z"/>
		<path class="st0" d="M580.5,32.7H31.6v549.9h548.9V32.7z M223.1,379.9H97.8V261.8h125.3V379.9z M366.7,379.9H242.4V261.8h124.2
			V379.9z M510.3,379.9H386V261.8h124.2V379.9z"/>
		<path class="st0" d="M430.8,360.2c29.6,11.6,55-3.5,55-3.5v-16.2c-18.2,12.2-32.9,10.5-32.9,10.5c-33.4-1.6-32.3-29.8-32.3-29.8
			c1.4-30.6,33-30,33-30c16.8,0.2,32.2,9.5,32.2,9.5v-15.6c-7.5-3.4-15.4-5.6-23.5-6.7c-16-1.5-24.9,1.9-24.9,1.9
			c-33.2,10.1-32.3,40.8-32.3,40.8c1,29.9,25.7,38.9,25.7,38.9L430.8,360.2z M835.2,1676.3h-10.3v33.6h9.7c3,0,5.7-0.2,8.1-2
			c2.4-2,3.7-5,3.6-8.1v-13c0-3.1-0.7-5.9-3.1-8.1C840.9,1676.5,838.2,1676.4,835.2,1676.3z"/>
		<path class="st0" d="M630.4,1771h547.9v-547.9H630.4V1771z M784.2,1710.9h-2.4c0,0,0.2-21.6,0-32.8c-4.1,7.1-8.6,14.1-12.6,21.2
			l-1.8,0.1l-10.2-16.9c-0.7-1.4-1.6-2.7-2.4-3.9v33.3h-2v-37.7h2.8l12.9,21c0.4,0,0.7-0.3,0.8-0.6c4-6.9,8.2-13.6,12.3-20.5h2.9
			C784.1,1686.4,784.3,1698.6,784.2,1710.9L784.2,1710.9z M781.5,1656.2c-2.6,2.3-6,3.8-9.5,4.2c-4.9,0.7-9.9-0.1-14.3-2.4
			c-3-1.7-5.2-4.5-6.1-7.8l6.9-2.9c0.6,0.3,0.9,1.2,1.2,1.7c3.1,5.1,10.9,6,15.6,3.1c2.1-1.5,2.6-4.4,1.1-6.5
			c-0.4-0.5-0.9-1-1.4-1.3c-4.9-2.9-12.5-2.4-17.3-6.1c-3.7-2.7-4.4-8.7-3.1-12.7c1.8-5.1,6.7-7.7,11.7-8.5
			c4.7-0.4,9.7-0.2,13.5,2.6c2.1,1.5,3.3,3.7,4.5,5.8l-4.6,2.2c-0.6,0.1-1.5,0.8-2.1,0.6c-1.1-1.5-2-3-3.9-3.7c-3-1.4-6.4-1.4-9.4,0
			c-2.4,1.3-3.4,4.9-1.3,7c1.8,1.8,5.1,2.3,7.4,3.1c4.4,1.1,8.5,1.4,11.7,4.8C786.4,1644,786.1,1652.1,781.5,1656.2L781.5,1656.2z
			 M810.7,1691.4v2.1h-16.3v16.3h19.4l0.2,2h-21.6v-37.7h22.4v2h-20.4l-0.1,15.3h16.4L810.7,1691.4z M815.5,1659
			c-6.8,2.6-14.5,1.6-20.3-2.8c-3.1-2.6-4.9-6.5-4.8-10.6V1632c0-3.7,1.4-7.3,3.9-10.1c3.5-3.5,8.4-5.4,13.4-5.1
			c5.2,0,10.9,1.5,14,5.9c2.1,2.7,2.4,6.7,2.5,8.8h-7.7c-0.2,0-0.3-3.1-1.4-4.6c-2.3-3.1-6.9-3.8-10.3-2.7c-3.5,0.7-6,3.6-6.2,7.1
			v13.7c0,2.4,1.1,4.7,3.1,6.2c3.5,2.6,9.1,2.8,12.6-0.3c1.8-1.6,2.1-3.8,2.3-6.2h7.7c0,2-0.2,3.9-0.7,5.8c-1.2,3.9-4.2,7-8,8.4
			L815.5,1659z M849.3,1699.7c0.1,2.8-0.8,5.6-2.4,7.8c-2.4,2.9-6,4.5-9.8,4.4h-14.2v-37.7h13.4c3.6,0,7.4,0.8,10,3.5
			c2.6,2.6,3.1,5.8,3.1,9.2v12.8H849.3z M855.5,1711.9v-37.7h2.5c0,12.5-0.2,25.1-0.1,37.7H855.5L855.5,1711.9z M862.6,1660h-8.1
			v-18.3h-16.3v18.3H829v-42.8h9.2v17.3h16.3v-17.3h8.1V1660z M891.1,1711.8l-4.7-13.1H871l-4.7,13.1l-2.5,0.1l14-37.6
			c0.8-0.1,1.6-0.1,2.3,0l13.6,37.6h-2.6V1711.8z M871.8,1617.2h8.1v42.5c-2.7,0.2-5.4,0-8.1,0.1V1617.2L871.8,1617.2z M889.1,1660
			v-42.8h16.3c4.8,0,10.7,0.5,13.4,5.2c1.3,2.7,1.6,5.9,0.8,8.8c-0.8,2.5-2.7,4.6-5.1,5.6c1.9,1,3.7,1.8,5,3.6
			c3.2,4.9,2.3,11.4-2,15.4c-2.7,2.2-6.2,3.4-9.7,3.2l-18.9,1H889.1z M931.1,1709.8c-2,1.4-4.4,2.2-6.9,2.1h-4.4
			c-3.4,0-6.6-1.5-8.7-4.1c-1.9-2.4-2.9-5.4-2.7-8.5v-14c0.2-4.8,3.3-9.1,7.8-10.9c5.3-2.2,13-1.3,16.8,3.4c2.1,2.6,2.1,5.5,2,8.7
			h-3c0.2-3.1,0-6-2.7-8.1c-3.7-2.6-10-2.9-14-0.7c-3.1,1.8-4.9,5-4.9,8.4v12.9c-0.2,3.2,1.3,6.3,4,8.2c3.5,2,7.7,2.6,11.6,1.5
			c3-0.6,5.3-2.8,6.1-5.6c0.4-2.7,0-5.6,0.2-8.4h-10.7v-2h13.2v9.9C934.9,1705.4,933.5,1708.1,931.1,1709.8L931.1,1709.8z
			 M930.7,1658c-3.1-1.8-5.4-4.6-6.5-8l7.3-2.9c2.6,6.4,10.8,8.2,16.4,4.9c2-1.3,2.6-3.9,1.5-6c-0.8-1.2-2-2.2-3.4-2.6
			c-4.7-1.8-10.7-2-14.9-4.8c-4.5-2.7-5.3-9.2-3.6-13.6c1.8-4.8,6.5-7.2,11.3-7.9c3.9-0.4,8.2-0.3,11.7,1.4c3,1.5,5.3,4,6.5,7.1
			l-6.6,3c-0.7-1.1-1.6-2.2-2.5-3.1c-2.6-1.7-5.7-2.3-8.8-1.6c-2.1,0.3-3.8,1.8-4.4,3.9c-0.5,2,0.5,4,2.3,4.9
			c4.8,2.5,11.1,2.2,15.7,5.1c4.6,2.9,5.9,9.1,4.3,13.8c-1.7,5-6.4,7.8-11.4,8.8C940.8,1661.2,935.2,1660.6,930.7,1658L930.7,1658z
			 M966.7,1712.8c-4.2-5.3-8.3-10.7-12.3-16.2h-9.3v15.3h-2v-37.7h12.3c3.3,0,7,0.8,9.5,3.2c3.5,3.4,3.9,9.7,1.6,13.9
			c-2,3.3-5.3,4.8-9.1,5.2l12.5,16.4L966.7,1712.8z M972.5,1624.3h-12c0.2-2.3,0-4.7,0.2-7.1H993v7.1h-12.2v35.6h-8.1v-35.5
			L972.5,1624.3z M1000.2,1698.9c0.1,3.4-1.1,6.6-3.4,9.2c-2.1,2.4-5.1,3.8-8.3,3.9h-4.8c-3.1,0-6-1.2-8.1-3.5
			c-2-2.1-3.1-4.9-3.1-7.7v-14.8c0-3.8,1.7-7.5,4.7-9.9c3.4-2.6,7.8-3.1,11.9-2.5c3.7,0.5,7.2,2.1,9.1,5.4c1.4,2.6,2,5.4,1.8,8.4
			v11.7L1000.2,1698.9z M1024.5,1634.4v8.2h-18.3v10.2l21.4-0.2v7.3H997v-42.8h30c0.1,2.4,0.1,4.8,0,7.1c-7.3-0.2-14.6,0-21.8,0
			v10.2h19.5L1024.5,1634.4z M1032,1708.2c-2.1,2.4-5.2,3.8-8.5,3.7h-4.6c-2.4,0-4.8-0.9-6.6-2.5c-2.6-2.1-4.2-5.3-4.1-8.7v-26.4h2
			v24.8c-0.1,2.4,0.4,4.7,1.6,6.8c1.4,2.2,3.7,3.7,6.2,4.2c3.6,0.9,7.5,0.4,10.7-1.6c2.6-1.9,4.1-5,3.9-8.1l-0.1-26.1h2.1v25.8
			C1034.9,1703,1033.9,1705.9,1032,1708.2L1032,1708.2z M1061.5,1694.3c-4.7,3.1-11.3,2-16.6,2.1v15.3l-2,0.1v-37.6h12.1
			c3-0.1,5.9,0.9,8.1,3C1068,1681.8,1067.3,1690.9,1061.5,1694.3L1061.5,1694.3z M1066.3,1646.6c-0.1,3.1-1.4,5.9-3.5,8.1
			c-3.2,3.5-7.8,5.4-12.5,5.3l-16.5-0.1v-42.7h16.6c3.7,0,7.3,1.1,10.3,3.3c3.4,2.3,5.5,6.1,5.6,10.2L1066.3,1646.6z M751.6,1284.2
			h314.7v203.7h-37.5c0.2-3.4,1-6.8,1.1-10.2c0.8-11.6-1.2-23.6-4.1-34.7c-5.9-20.8-13.7-40.9-23.5-60.1l-8.3-17.1
			c-4.1-8.5-8.9-17.6-10.8-26.9c-1-5.3-1.4-11.4,1.3-16.3c4.1-8.1,16.7-8.8,21.9-1.6c4,5.7,3.9,12.7,4.3,19.4h17.9v-29.8
			c0,0-15.7-4.6-23.8-5.4c-13.2-1.2-27-1-40,1.7s-26,8.1-35.4,17.6c-7.7,7.7-12.8,17.6-14.8,28.3c-1.9,9.7-1.9,19.7,0,29.4
			c2,9.4,5.5,18.7,9.3,27.5c7.6,17.3,17.3,34.6,23.4,52.6c2.9,8.2,4.6,16.7,5.3,25.7H929c-0.9-10.8-4.3-20.9-10-29.8
			c-5.8-8.7-14-15.4-23.6-19.3c-21.4-8.7-45.6-6.3-64.9,6.3c-9.6,6.5-17.1,15.8-21.4,26.6c-3.6,9.4-5.2,19.5-4.6,29.6
			c0.3,13.7,4.3,27.2,11.4,38.9c7.5,11.7,18.3,21,31.1,26.7c14.3,6.6,30.9,9.3,46.5,9.4c15.7,0.2,31.4-1.6,46.6-5.6
			c19.5-4.9,37.8-13.8,53.7-26.2c13.8-10.8,24.4-25.1,30.9-41.2h41.5l0,94.7H751.6V1284.2z M952.2,1503c-0.9,7.5-3.1,14.8-6.4,21.6
			c-5,10.1-12.8,18.5-22.4,24.3c-11.1,6.6-23.8,10-36.7,9.7c-14,0.3-27.7-3.6-39.5-11.1c-16.1-10.9-25.4-29.4-24.4-48.9
			c0.3-6.1,2-12,4.9-17.3c3.1-5.5,8-9.7,14-11.8c6.6-2.2,13.8-2.2,20.5,0c5.8,1.8,10.9,5.6,14.3,10.7c4.1,6.8,6.1,14.7,5.8,22.7
			C905.6,1503.2,928.9,1502.9,952.2,1503z"/>
		<path class="st0" d="M1052.4,1624.8c-3.4-0.6-7.1-0.3-10.6-0.4v28.6c3.4,0,6.7,0.2,9.9-0.1c3.6-0.5,6.9-2.9,7.4-6.7v-14.2
			C1059.2,1628.1,1055.9,1625.5,1052.4,1624.8L1052.4,1624.8z M1055.1,1676.3h-10.2v18.1c4.6-0.2,10.4,0.6,14.6-1.4
			s5.2-7.2,3.7-11.2C1061.7,1678.5,1058.6,1676.4,1055.1,1676.3z M964.4,1689.5c1.1-3.2,1.1-7.8-1.6-10.4c-2.1-2.1-5.5-2.9-8.5-2.9
			h-9.2v18.3c4.3-0.2,8.9,0.4,13.1-0.4c2.6-0.6,5.1-1.9,6-4.7H964.4z M897.2,1634.9c4.1-0.2,8.2,0.5,12.1-0.5c3.7-1,4.6-6.1,1.9-8.6
			c-1.6-1.4-3.6-1.5-5.6-1.5h-8.5L897.2,1634.9L897.2,1634.9z M988.5,1675.3c-3.2-0.5-6.5,0.4-9.1,2.4c-2.4,2.1-3.8,5.3-3.7,8.6v9.9
			c0,3.4-0.3,6.3,1.7,9.4c2.8,4.3,9.1,5.3,13.6,3.8c4.1-1.3,6.9-5.1,7.1-9.5v-13.5c0-2.9-0.6-5.6-2.6-7.7c-1.9-1.9-4.4-3.1-7.1-3.3
			L988.5,1675.3z M911.4,1642.9c-1.8-1.2-4-1.2-6.3-1.2h-8.3c-0.2,3.7,0,7.5-0.1,11.2H907c2,0,4.4-0.7,5.6-2.5
			C914,1648.1,913.7,1644.6,911.4,1642.9z M872,1696.6h13.8l-6.7-18.9C876.5,1683.9,874.3,1690.3,872,1696.6z M1523.9,1400.9
			c4.2-0.2,8.6-0.1,12.8-0.1v-20.7c0-2.7,0.3-5.4,2.6-7.3c1.6-1.7,4.1-1.3,6.2-1.3c2.7,0,4.4,3.1,4.4,5.5v23.9
			c4.4-0.2,8.9-0.2,13.2,0v-27.1c0-3.5-1.3-7.6-4.2-9.9c-2.6-2.4-6.8-3.2-10.3-3.1c-2.6,0.1-5.2,0.8-7.5,2c-1.9,1.1-3.5,2.5-4.9,4.2
			c0.2-6.5,0-13.1,0.1-19.8h-12.5c0,3.1-0.3,6-0.2,9.1C1523.7,1371.2,1523.4,1385.9,1523.9,1400.9z M1640.3,1400.3
			c-0.2-18,0-35.9-0.1-54h-12.8v54H1640.3z M1502.1,1392.6c-1.9,0.2-3.3-0.7-5-1.3c-0.9-1.2-1.5-2.7-1.7-4.2h-11.7
			c0,3.5,1.4,6.9,3.9,9.3c3.6,3.1,8.6,4.3,13.4,4.4c5,0.2,10-0.6,14.4-3.4c5-3,7-10.7,3.7-15.7c-1.7-2.4-4.2-4-7-4.7
			c-3.5-0.8-7-1.3-10.4-2.2c-1.6-0.3-3.1-1.1-4.3-2.2c-0.5-1.4-0.5-2.9,1-3.5c2.9-1.2,6.3-0.9,8.8,1l1,2.7h11.3
			c0-3.8-1.8-7.3-4.9-9.4c-3.1-1.9-6.8-3-10.4-3c-5.8-0.2-11.8,0.3-16.5,4.2c-3.3,2.8-3.8,7.6-2.6,11.5c1.2,3,3.6,4.8,6.5,5.8
			c4.5,1.6,9.3,2,13.9,3.5c1.2,0.5,2.2,1.2,3,2.2c-0.1,1.3-0.4,2.5-1,3.6c-1.9,0.7-3.3,1.5-5.2,1.4L1502.1,1392.6z M1454.3,1400.3
			h12.2v-18.8c0-3.1,0.9-5.9,3.5-7.7c3.2-2.3,7.1-2,10.8-1.2v-11.4c-3.9-0.5-8.3-0.1-11.2,2.8c-1.4,1.2-2.4,2.7-3.1,4.4l0.1-6.7
			c-4.1,0-8.2-0.2-12.3,0.2v38.7V1400.3z M1573.7,1401.3c3.8,1,7.7,1.1,11.5,0.1c2.8-0.6,4.9-2.3,7.1-3.9l0.4,3.3
			c4.4,0.3,8.8,0,13.2,0.2c-0.8-2-1.2-4.1-1.3-6.2c-0.2-7.8,0-15.5-0.2-23.2c-0.2-3.1-1.7-6-4.1-7.9c-3.2-2.6-7.9-3.1-11.8-3.3
			c-5.8-0.7-11.6,0.7-16.5,3.7c-2.8,2.4-4.5,5.9-4.4,9.6h12c0.5-1.7,1-3.1,2.6-4c3.1-1.7,7-1.2,9.6,1.2c0.6,1.2,0.6,2.7,0,3.9
			c-1,1.2-3.1,1.6-4.7,1.9c-5.6,0.8-11.4,1-16.5,3.9c-2.4,1.6-4,4.2-4.4,7c-0.3,2.9-0.3,6.3,1.3,8.8c1.5,2.2,3.7,3.9,6.2,4.8H1573.7
			z M1580.6,1385.7c3.5-1.9,7.7-2,11.5-3.4c0,2.3-0.4,4.7-1,6.9c-0.5,1.7-1.8,3.1-3.5,3.9c-3.1,0.5-5.9,0.8-8.4-1.5
			C1579.2,1389.4,1578.5,1387.3,1580.6,1385.7L1580.6,1385.7z M1623.3,1400.8l-0.1-53.5h-13.1v53.7c4.3-0.2,8.8-0.2,13.2-0.1V1400.8
			z"/>
		<path class="st0" d="M1223.1,1771H1773v-547.9h-549.9V1771z M1320.9,1309.7h345.2v119.1c-20.4,0-40.9,0.2-61.4-1h-64.2
			c-7.5,10.1-14.6,19.9-21.9,29.3l-24.3,31.6c-0.4,0.8-1.2-0.2-1.5-0.6l-39.3-51.2c-2-2.7-6.3-8-6.3-8h-66
			c-20.2,0.4-39.9,0-60.3,0.2V1309.7z M1320.9,1635.5h122.2l-0.1-45.1c0.9,0.9,1.6,1.9,2.2,3.1c9.7,14,19.8,27.9,29.3,42
			c13.2,0.2,26.3,0,39.4,0l31.6-45c0.5,1.5,0.2,3.4,0.2,5.1c0,13.2-0.2,26.7-0.1,40h120.5v35.6h-345.2V1635.5z"/>
		<path class="st0" d="M1419.6,1401.3c3.5,0.5,7,0.3,10.3-0.8c2.3-0.7,4.1-2.2,6.2-3.6c0,1.2,0.2,2.3,0.3,3.4l13.1,0.1
			c-0.8-2.4-1.3-4.8-1.4-7.3v-20.5c0-3.4-1.6-6.6-4.4-8.6c-2.9-1.9-6.3-3-9.8-3c-6.5-0.3-12.8-0.1-18.4,3.8
			c-2.6,2.3-4.2,5.6-4.4,9.1h12c0.7-1.6,1.2-3.2,3.1-4c2.9-1.2,6.3-0.9,9,0.8c1,2.1,0.9,2.9,0,5c-5.7,2.1-12.2,1.4-18,3.7
			c-3.1,1-5.7,3.3-6.9,6.2c-1,3.4-0.7,7,0.8,10.2c1.9,3,5,5,8.6,5.4L1419.6,1401.3z M1426.7,1384.6c3.1-0.8,6.1-1.2,9.2-2.1
			c-0.2,3.1,0,7.2-2.4,9.5c-2,1.8-4.1,1.5-6.6,1.4c-2.2,0-4.1-1.8-4.1-4.1c0,0,0-0.1,0-0.1C1422.5,1387,1424.7,1385.1,1426.7,1384.6
			L1426.7,1384.6z M1359.6,1400.3v-31.7c-0.1-2.8-0.1-5.6,0.1-8.4c3.6,13.4,7.4,26.6,10.9,40h10.7c3.5-13.3,7.5-26.4,10.8-39.7h0.5
			c-0.2,13.2,0,26.4,0,39.7l13.9-0.1l-0.1-53.9h-20.6c-1.4,4.3-2.1,8.7-3.5,13c-2.1,7.6-3.6,15.4-6,22.8l-9.3-35.9
			c-6.9,0.2-13.8,0.2-20.6,0c-0.2,18.1,0,36-0.2,54.1L1359.6,1400.3L1359.6,1400.3z M34.7,1177.3h548.9V628.4H34.7V1177.3z
			 M421.7,1017c-11.4,0.9-23,0-34.6,0.4v-66.3c10.7,0.1,21.4-0.3,32.1,0.1c7.8,0.2,14.3,6.3,15.9,13.8c1.6,6.4-1.5,11.6-6.1,15.7
			c3.1,2.5,6.4,4.6,8.1,8.1c5.5,11.3-2.7,26.8-15.4,28V1017z M504.5,1008.2c-10.7,11.5-28.7,12.2-40.2,1.5c-0.2-0.1-0.3-0.3-0.5-0.5
			c-3.9-4-4.6-9-5.7-14.2H473c1.9,3.4,2.6,6.5,6.7,7.5c4.4,0.8,11.8,1,14-3.8c1.4-2.7-1-5.5-3.6-6.2c-8.5-2.3-17.5-1.3-25.1-6.6
			c-9.3-6.5-8.8-22.3-0.8-29.6c10-9.4,28.2-9.9,38.3-0.5c4.5,4.1,5.4,9.2,6.8,14.7h-16c-2.3-7.5-11.8-8.8-17.3-4.3
			c-3.1,2.9-1.8,6.9,2,8.1c8.5,2.3,16.9,1.5,24.5,6.8c8.6,5.8,9.2,19.5,2.6,27L504.5,1008.2z M384,783.1c26.3,0.5,50.3,15,63,38.1
			c13.2-22.9,36.6-37.7,63.2-38.1v136.6H384V783.1z M349.5,1017.4l-4.1-10.2h-23.7l-4.1,10.2H301c9.1-22.4,17.7-45.3,27.1-67.9
			c3.7-0.3,7.4-0.3,11.1-0.1l28.1,68H349.5z M239.6,841.9c0.9-24.2,15.5-45.7,37.7-55.5c23.9-10.5,51.8-5.2,70.3,13.1
			c11.8,11.7,18.5,27.6,19.1,44.2v75.9h-39.3l0.2-11.2h-49.5v11.2h-38.8C239.7,893.7,239.2,867.8,239.6,841.9L239.6,841.9z
			 M254.7,951l-0.1,51.1h28.6v15.3h-44.5c0-22.1,0.2-44.2,0-66.2L254.7,951z M125.6,865.7c-15.9-10.5-23.5-29.9-18.9-48.5
			c2.5-9.5,8.3-17.9,16.3-23.6c14.7-10,32.6-14.3,50.2-11.9c16.3,2,32.1,8.6,41.9,22.2c5.2,7.1,7.1,15.3,7.9,23.9
			c-14.5,0-28.9,0.3-43.4-0.3c8.7,2,16.8,4.3,24.1,9.7c15.1,10.7,22,29.6,17.5,47.6c-3,10.8-10,20.1-19.7,26
			c-11.2,7.1-24.4,9.8-37.5,10.2c-17.7-0.3-36.5-5.7-48.5-19.3c-6.9-7.6-10-17.3-10.6-27.5c14.5,0.1,28.9-0.1,43.4,0.3
			C140.3,872.2,132.7,870.7,125.6,865.7z"/>
		<path class="st0" d="M419.2,989.9c-5.5-0.9-11.3-0.3-16.9-0.4v13.2c5.7,0,11.7,0.6,17.3-0.4C424.3,1000.1,424.3,991.6,419.2,989.9
			L419.2,989.9z M416.6,975c2.7-1.1,4-4.2,2.9-6.9c-0.5-1.3-1.5-2.3-2.8-2.9c-4.7-0.6-9.6-0.3-14.4-0.3v10.4
			C407,975.3,411.9,975.6,416.6,975L416.6,975z M327.4,993H340c-2.2-5.8-4.3-11.7-6.3-17.6L327.4,993L327.4,993z M786.2,930.7
			c5,10.4,11.8,19.9,20.2,27.9c8.9,8.6,19.5,15,31.3,18.8c10.7,3.4,22,4.8,33.2,4.2c10.5-0.4,20.9-2.7,30.6-6.7
			c14.4-6.3,26.8-16.5,35.7-29.5c11.3-16.8,18.4-36.1,20.7-56.2c3.5-26-0.3-53.1-11.7-76.8c-5-10.6-11.8-20.2-20.1-28.5
			c-8.9-9.2-19.9-16.1-32-20.4c-11.2-3.8-23.1-5.2-34.9-4.3c-18.5,1.4-36.1,9-49.8,21.5c-8.7,8-16,17.5-21.5,28
			c-8.3,16-13.3,33.6-14.5,51.6c-0.8,10.5-0.4,21.1,1.1,31.6c1.9,13.4,5.9,26.5,11.8,38.7L786.2,930.7z"/>
		<path class="st0" d="M632.5,1177.3h549.9V628.4H632.5V1177.3z M1068.5,961.7c6.4,1.5,12.2,4.6,16.9,9.2c3.8,3.8,6.5,8.6,7.9,13.7
			c1.8,6.4,2.4,13,1.5,19.6c-0.9,5.8-2.7,11.5-5.4,16.7c-5.1,9.6-11.5,18.6-19,26.5c-7.8,8.7-16.3,16.8-24.7,24.9h50.7
			c0.8-0.1,1.6,0,2.4,0.2v20.5c-1,0-0.3,0.7-0.8,0.7h-85.7v-22.6c2-2,3.7-3.8,5.7-5.6c8.8-8.1,17.2-16.1,25.4-24.6
			c7.8-8.5,15.3-17.1,20.8-27.4c2.5-4.7,4.5-9.9,4.5-15.3c0-4-1.5-7.8-4.2-10.7c-3.7-3.6-8.6-5.9-13.7-6.4
			c-6.9-0.6-13.8,0.5-20.2,3.1c-4.9,2-9.5,4.4-14,7.3l-2-22c11-5.5,23-8.6,35.2-9.3C1056.1,959.8,1062.4,960.3,1068.5,961.7
			L1068.5,961.7z M712.9,867c2-10.2,1.8-20.4,3.7-30.4c4.4-24.5,14.6-47.5,29.7-67.2c11.9-15.1,26.7-27.6,43.7-36.7
			c21.9-11.5,46.2-17.7,70.9-18.1c21.7-0.7,43.7,2.4,64.1,10.2c32.6,12.3,59.4,36.5,75.1,67.6c8.9,17.8,14.5,37,16.6,56.8
			c1.1,9.9,1.4,19.9,0.9,29.8c-0.8,15.8-3.8,31.5-9,46.4c-8.1,23.7-21.9,45-40.2,62.1c-17.7,16.3-39.2,28-62.5,33.9
			c-17.1,4.3-34.7,5.8-52.2,4.4c-17.8-1.3-35.2-5.7-51.5-13c-18.8-8.6-35.6-21.1-49.2-36.7c-16.8-19.1-28.6-41.9-34.6-66.6
			c-2.9-11.8-3.3-24-5.3-36.3L712.9,867z M1440.2,867.9c6.8,14.9,18.6,26.9,33.4,33.8v-67.5L1440.2,867.9z M1552.2,1014.3h18.1
			l-9.1-26L1552.2,1014.3z M1687.5,988.4l-9.1,26h18.1L1687.5,988.4z"/>
		<path class="st0" d="M1223.1,1177.3H1773V628.4h-549.9V1177.3z M1500.5,1036.8h-15.2l-11.5-44.7l-11.6,44.7h-15.1l-15.1-60.1h13.2
			l9.5,47.7l12.2-47.7h13.5l12.2,47.7l9.5-47.7h13.3L1500.5,1036.8z M1680.4,976.7h14.1l22.6,60.1h-13l-4.3-12.2h-24.5l-4.4,12.2
			h-12.9L1680.4,976.7z M1610.1,976.7h12.2v50.9h21.4v9.2h-33.6V976.7z M1578,1036.8l-4.3-12.2h-24.6l-4.4,12.2h-13l22.7-60.1h14.1
			l22.5,60.1H1578z M1503.9,755.7c46.1-0.1,83.4,37.8,82.4,84.2c-1,43.6-36.5,79.3-80.2,80.4c-46.3,1.1-84.3-36.1-84.4-82.2
			c0,0,0-0.1,0-0.1C1421.7,792.6,1458.5,755.7,1503.9,755.7z M1355.9,989.9c2.6-4.7,6.4-8.6,11.1-11.2c9.7-5.3,21.5-5.3,31.3,0
			c4.7,2.6,8.5,6.5,11.1,11.2c5.4,10.2,5.4,22.4,0,32.6c-2.6,4.7-6.4,8.6-11.1,11.2c-9.7,5.3-21.5,5.3-31.3,0
			c-4.7-2.6-8.6-6.5-11.2-11.2c-5.4-10.2-5.4-22.4,0-32.6H1355.9z M1285.2,976.7h12.2v26.6l22.4-26.6h14.9l-26.1,29.5l26.1,30.6
			h-14.9l-22.4-27.7v27.7h-12.2V976.7z"/>
		<path class="st0" d="M1473.6,774.2c-6.1,3-11.8,6.8-16.8,11.3l16.8,16.8V774.2z M1448.4,793.9c-14,17.5-18.8,40.5-13.1,62.1
			l37.5-37.8L1448.4,793.9z M1373.1,1023.9c5.9,3.3,13.1,3.3,19,0c2.8-1.7,5-4.1,6.4-7c3.1-6.8,3.1-14.6,0-21.4
			c-1.4-2.9-3.6-5.4-6.4-7c-5.9-3.3-13.1-3.3-19,0c-2.8,1.7-5,4.2-6.4,7.1c-3.1,6.8-3.1,14.6,0,21.4
			C1368.1,1019.9,1370.3,1022.3,1373.1,1023.9z M1521.1,769.3c-5.7-1.4-11.5-2.2-17.4-2.1c-6.4,0-12.7,0.9-18.8,2.5v36.2
			L1521.1,769.3z M1556.1,885.4c26.2-28.9,24-73.6-4.9-99.8c-5.4-4.9-11.6-9-18.2-12l-44.2,44.6L1556.1,885.4z M1484.8,906.2
			c6.1,1.7,12.5,2.5,18.8,2.5c16,0,31.6-5.5,44.1-15.5l-62.9-62.9V906.2z M34.7,1223.1V1771h548.9v-547.9H34.7z M94.8,1526.4
			c-14.1,0-22.4-9.3-23.4-25.1l13.6-0.4c0.6,7.1,2.9,13.5,9.9,13.5c6.4,0,8.6-5.6,8.6-10.8c0-5.5-3.2-10.5-8.6-15.8l-9.8-10.6
			c-7.5-7.4-12.2-15-12.2-24.4c0-12.2,7.4-22.4,22.4-22.4c11,0,20.4,5.8,21.4,24l-13,0.4c-0.9-7.8-3.3-12.7-9.2-12.7
			c-5.3,0-8.1,3.8-8.1,9.6c0,5.4,4.8,10.4,9.4,15.3l9,9.5c8.2,8.4,12.8,16.3,12.8,26.4c0,13.4-8.4,23.4-22.7,23.4V1526.4z
			 M189.5,1463.4h-14.3v-10.5c0-5.9-3.3-9.9-9.6-9.9c-7,0-9.8,4.5-9.8,10.6v49.3c0,6.9,3.6,10.7,10,10.7c6.1,0,9.4-4.1,9.4-9.7v-10
			h14.3v10.8c0,13.2-10.1,21.7-23.5,21.7c-14.7,0-25.4-7.8-25.4-22.7v-50.5c0-14.2,11-22.6,25.4-22.6c13.4,0,23.5,8,23.5,20.8
			V1463.4z M257.5,1526.6h-14.5l-13-38.8l-18.8-55.9h15.4l11.5,37.7l11.1-37.7h14l-18.6,55.2v0.8L257.5,1526.6z M337.1,1444.1h-18.3
			v82.5h-14.3v-82.5h-16.3v-12.2h48.9V1444.1z M398,1526.6l-4.7-24.4h-19.8l-4.4,24.4h-13.5l18.9-94.7h19.8l18.3,94.7H398z
			 M480.7,1526.6H440v-94.7h14.3v81.5h26.5V1526.6z M546.9,1526.6h-42.8v-94.7h42.8v12.2h-25.5v27.5h20.4v12.2h-20.4v29.5h25.5
			V1526.6z"/>
		<path class="st0" d="M383.5,1449.2l-7.4,39.7h15l-7.1-39.7H383.5L383.5,1449.2z"/>
		<path class="st1" d="M244.5,1487.1l18.7-55.2h-0.1l-18.6,55.1V1487.1z"/>
		<path class="st2" d="M632.5,633.5h540.7v535.6H632.5V633.5z M1228.2,633.5H1773v535.6h-544.8V633.5z M35.7,35.7h541.8v542.8H35.7
			V35.7z M632.5,35.7h540.7v542.8H632.5V35.7z M35.7,633.5h541.8v535.6H35.7V633.5z M35.7,1224.1h541.8v543.8H35.7V1224.1z
			 M632.5,1224.1h540.7v543.8H632.5V1224.1z M1228.2,1224.1H1773v543.8h-544.8V1224.1z M1228.2,35.7H1773v542.8h-544.8V35.7z"/>
		<path class="st1" d="M-19.3-19.3v1842.2h1842.2V-19.3H-19.3z M1173.2,35.7v542.8H632.5V35.7H1173.2z M577.5,1169.1H35.7V633.5
			h541.8V1169.1z M632.5,633.5h540.7v535.6H632.5V633.5z M1228.2,633.5H1773v535.6h-544.8V633.5z M577.5,35.7v542.8H35.7V35.7H577.5
			z M35.7,1767.9v-543.8h541.8v543.8H35.7z M632.5,1767.9v-543.8h540.7v543.8H632.5z M1228.2,1767.9v-543.8H1773v543.8H1228.2z
			 M1773,578.5h-544.8V35.7H1773V578.5z"/>
	</g>
</g>
</svg>
