<svg xmlns="http://www.w3.org/2000/svg" viewBox="2 2 1800 1800">
  <defs>
    <style>
      .cls-1{fill:#29353a}.cls-3{fill:none}
    </style>
  </defs>
  <g id="Layer_2" data-name="Layer 2">
    <g id="Layer_1-2" data-name="Layer 1">
      <path d="M1220 54v540h540V54zm170.6 359h-23.8l-3.3-6.6-3.2-6.7 16.1-.1c9.4 0 16.2-.1 16.2-.3l-13-25.9-12.8-25.7 12.9-25.6 12.9-26-8.8-.1h-9l-29.3 58.5-29.3 58.5h-48l16.4-32.8 16.4-32.7-16.5-32.8-16.4-32.7h47.9l3.3 6.5 3.2 6.7c0 .1-5.5.3-16.2.3h-16.1l12.9 26 12.9 25.7-13 26-13 25.8 8.9 1h8.8l22-43.7 29.6-59 7.7-15.3h23.6c17 0 23.8 0 23.8.2l-16.3 32.7-16.3 32.4 16.4 32.9 16.3 32.8zm82.3-70.8c0 15 0 15-1.7 18.3-2.4 4.7-7.5 7-14.7 6.3a20.5 20.5 0 0 1-5.7-1.4l-.8-.4v-7l1.4.6a15 15 0 0 0 6.9 1.3 6 6 0 0 0 3.2-.7 6 6 0 0 0 3-3.4c.4-1.1.4-1.4.5-14V329h8zm59.4 24.8h-4.2l-1.3-3.9-1.2-3.1h-14.4l-1.4 3-1.3 3h-8.3l17.3-37c.5-1 .6-1 1.1-1s1.3 1.4 9.3 19l8.6 19a42.1 42.1 0 0 1-4.2 1zm62.7-11.2v8.9l-1.8.6a32.4 32.4 0 0 1-10.2 1.4 34.4 34.4 0 0 1-6-.3 18.3 18.3 0 0 1-10.8-6 21.3 21.3 0 0 1-3.5-7.3 25.9 25.9 0 0 1 0-10.3 19 19 0 0 1 15.1-14.4c4-.8 11.6-.3 14.8 1.1l1.4.5v3.6c0 2.9-.3 3.7-.6 3.6a22.9 22.9 0 0 0-9.7-2.2c-4 0-6.9 1-9.3 3.5a13.3 13.3 0 0 0-3.3 5.8 20.3 20.3 0 0 0 .2 7.8 10.4 10.4 0 0 0 9.3 8 13.2 13.2 0 0 0 5.5-.6V346h9zm59 7.2v3h-28v-37h26v6h-17v9h16v5h-16l1 5.3v5.2l9 .1 9 .2zm60.2 3h-4.6l-4.6-8.6-4.8-9-4.8 8.8-4.8 9.8h-4.5c-3.2 0-4.6 0-4.6-.2l5.7-10c3-5.4 5.6-10 5.5-10.2l-5.3-9.3-5.2-9.2a28.3 28.3 0 0 1 4.7-.2l4.3.1 2.9 5.6 4.5 8.5 1.5 3 4.3-8.4 4.5-8.5c.3-.4 9-.4 9 0l-5 8.8-5 9.1c0 .2 1.7 3.8 6.6 12.1 3 5 4.2 7.3 4.2 7.5s-1.3.4-4.5.3zM631 594h540V54H631zm448-286h11v23h11v-23h11v56h-11v-22h-11v22h-11zm-54 11.5l11.1-11.5h22.9v11h-23v34h23v11h-22.9l-11.1-11zM971 308h33v11h-11v45h-12v-45h-10zm-57 11h.8l11.2-11h23v11h-22v12h16v11h-16v11h22v11h-23l-11.2-11h-.8zm-51 .5l10.8-11.5H896v11h-22v12h17v11h-17v22h-11zM805 308h22.1l10.9 11.5V331h-10.9l10.9 11v22h-12v-22h-10v22h-11zm-58 11.5l10.9-11.5H769l11 11.5V364h-12v-22h-10v22h-11zm-54-.5l11-10.7v-.3h22v11h-22v12h17v11h-17v22h-11z" class="cls-1"/>
      <path d="M758 319h10v12h-10zM816 319h10v12h-10zM349.9 352s.7-15.8-18.2-20.5c0 0 10.7-4.9 10.7-17 0 0 1.6-19.5-24.7-22.5H288v83h34s27.9.6 27.9-23zM304 305h11.3c12.3 2 11.9 10.1 11.9 10.1 0 11.5-13.7 11.9-13.7 11.9H304zm15 58h-15v-22h15c16.1 0 15.7 10.5 15.7 10.5 0 12.6-15.7 11.5-15.7 11.5zM208.3 352s.6-15.8-18.2-20.5c0 0 10.7-4.9 10.7-17 0 0 1.6-19.5-24.7-22.5H147v83h33.4s27.9.6 27.9-23zM162 305h11.7c12.3 2 11.9 10.1 11.9 10.1 0 11.5-13.7 11.9-13.7 11.9H162zm15.4 58H162v-22h15.4c16 0 15.6 10.5 15.6 10.5 0 12.6-15.6 11.5-15.6 11.5z" class="cls-1"/>
      <path d="M589 51H50v540h539zM238 392H115V276h123zm141 0H257V276h122zm141 0H398V276h122z" class="cls-1"/>
      <path d="M441.7 372.8c29.2 11.5 54.3-3.5 54.3-3.5v-16c-18 12-32.5 10.4-32.5 10.4-33-1.6-31.9-29.4-31.9-29.4 1.4-30.2 32.6-29.6 32.6-29.6 16.6.2 31.8 9.4 31.8 9.4v-15.4a83 83 0 0 0-23.2-6.6c-15.8-1.5-24.6 1.9-24.6 1.9-32.8 10-31.9 40.3-31.9 40.3 1 29.5 25.4 38.4 25.4 38.4zM839.1 1665H829v32.8h9.5c2.9 0 5.6-.2 8-2a9.8 9.8 0 0 0 3.5-7.9v-12.7c0-3-.7-5.8-3-7.9s-5-2.2-7.9-2.3z" class="cls-1"/>
      <path d="M638 1758h538v-538H638zm150.9-58h-2.3c0-11 .2-22.2 0-33.2-4 7-8.4 13.8-12.4 20.8l-1.8.1-10-16.6a21 21 0 0 0-2.6-3.8v32.6h-2.3v-37h2.8l12.8 21.3a1 1 0 0 0 .8-.6c4-7 8.2-13.8 12.2-20.7h2.9c-.2 12.3 0 24.7-.1 37zm-2.6-54.7a16.6 16.6 0 0 1-9.3 4.1 23 23 0 0 1-14-2.4 12.3 12.3 0 0 1-6-7.7l6.8-2.8c.6.3.9 1.2 1.2 1.7 3 5 10.7 5.9 15.3 3a4.6 4.6 0 0 0-.3-7.7c-4.8-2.8-12.3-2.4-17-6-3.6-2.7-4.3-8.5-3-12.5 1.8-5 6.6-7.6 11.5-8.3 4.6-.4 9.5-.2 13.3 2.6 2.1 1.5 3.2 3.6 4.4 5.7l-4.5 2.2c-.6.1-1.5.8-2.1.6-1.1-1.5-2-2.9-3.8-3.6a11 11 0 0 0-9.2 0c-2.4 1.3-3.3 4.8-1.3 6.9 1.8 1.8 5 2.3 7.3 3 4.3 1.1 8.3 1.4 11.5 4.7 4.1 4.5 3.8 12.5-.8 16.5zm28.7 34.3v2.1h-16v16.1h20l.2 2.2h-22.3V1663h22.3v2h-20l-.1 14.7H815zm4-31.2a20.4 20.4 0 0 1-19.7-2.7 13.1 13.1 0 0 1-4.7-10.3v-13.9a14.5 14.5 0 0 1 3.8-9.9 17 17 0 0 1 13-5c5 0 10.6 1.5 13.6 5.8 2 2.7 2.3 6.6 2.4 8.6h-7.5c-.2 0-.3-3-1.4-4.5-2.2-3-6.7-3.7-10-2.7a7.6 7.6 0 0 0-6 7v14a7.4 7.4 0 0 0 3 6c3.4 2.5 8.8 2.7 12.2-.3 1.7-1.6 2-3.7 2.2-6h7.5a22.6 22.6 0 0 1-.7 5.7 13 13 0 0 1-7.8 8.2zm33.3 39.5a12.6 12.6 0 0 1-2.4 7.7 11.9 11.9 0 0 1-9.6 4.3h-13.6v-37h13c3.5 0 7.2.8 9.7 3.4s3 5.7 3 9v12.6zm6.7 12v-37h2.5c0 12.3-.2 24.6-.1 37H859zm6.6-50.9h-7.8v-17.8h-16.4v17.7h-8v-41.7h8v17h16.4v-17h7.8v41.8zm28.7 50.8l-4.7-13h-15.2l-4.7 13-2.5.1 13.9-37.2a16.3 16.3 0 0 1 2.3 0l13.5 37.2h-2.6zm-19.6-92.6h8v41.7c-2.7.2-5.3 0-8 .1v-41.8zm17 41.7v-41.7H908c4.8 0 10.7.5 13.4 5.2a12.3 12.3 0 0 1 .8 8.8 9.1 9.1 0 0 1-5.1 5.6c1.9 1 3.7 1.8 5 3.6a12 12 0 0 1-2 15.4 14 14 0 0 1-9.7 3.2l-18.6-.1zm41.4 49a11.3 11.3 0 0 1-6.7 2.1h-4.7a10.9 10.9 0 0 1-8.5-4 12 12 0 0 1-2.6-8.3V1674a12.2 12.2 0 0 1 7.6-10.7c5.2-2.2 12.7-1.3 16.4 3.3 2.1 2.5 2.1 5.4 2 8.5h-2.4c.2-3.2 0-6.2-2.7-8.4-3.6-2.7-9.8-3-13.7-.7a10.1 10.1 0 0 0-4.8 8.7v13.3a10.2 10.2 0 0 0 3.9 8.5 14 14 0 0 0 11.4 1.5 8 8 0 0 0 6-5.8c.4-2.8 0-5.8.2-8.7H924v-2.4h12.8v9.7a8.6 8.6 0 0 1-3.7 7.1zm-.2-50.8a13.9 13.9 0 0 1-6.4-7.9l7.2-2.8c2.6 6.3 10.6 8.1 16.1 4.8a4.6 4.6 0 0 0 1.5-5.9 6.5 6.5 0 0 0-3.3-2.6c-4.6-1.8-10.5-2-14.6-4.7-4.4-2.7-5.2-9-3.5-13.4 1.8-4.7 6.4-7.1 11.1-7.8 3.8-.4 8.1-.3 11.5 1.4a13.6 13.6 0 0 1 6.4 7l-6.5 2.9a13.8 13.8 0 0 0-2.5-3 11.1 11.1 0 0 0-8.6-1.6 5.2 5.2 0 0 0-4.3 3.8 4.2 4.2 0 0 0 2.3 4.8c4.7 2.5 10.9 2.2 15.4 5s5.8 8.9 4.2 13.6c-1.7 4.9-6.3 7.7-11.2 8.6s-10.4.3-14.8-2.2zm34.2 52.8c-4-5.1-8-10.3-11.8-15.5h-8.5v15.5h-2.4v-37h11.8c3.2 0 6.7.8 9.1 3.1 3.4 3.3 3.7 9.3 1.5 13.3-1.9 3.2-5.1 4.6-8.7 5l12 15.7zm7-86h-12c.2-2.2 0-4.4.2-6.7H994v6.9h-12v35h-7.8V1614zm27 73.3a13 13 0 0 1-3.3 9 11 11 0 0 1-8.1 3.8H985a10.8 10.8 0 0 1-7.9-3.4 10.4 10.4 0 0 1-3-7.6v-14.5a12.3 12.3 0 0 1 4.6-9.7c3.3-2.6 7.6-3 11.6-2.5 3.6.5 7 2.1 8.9 5.3a15 15 0 0 1 1.8 8.2v11.5zm23.8-63v7.8h-18.5v10.4l21.2-.2v6.8h-29.3v-41.7h29a71 71 0 0 1 0 7c-7-.2-14 0-21 0v10h18.7zm7.4 72.1a11 11 0 0 1-8.3 3.7h-4.5a10 10 0 0 1-6.5-2.5 10.7 10.7 0 0 1-4-8.6v-26.1h2.2v24.4a12.7 12.7 0 0 0 1.5 6.7 9.2 9.2 0 0 0 6 4.1 13 13 0 0 0 10.3-1.6 9.5 9.5 0 0 0 3.8-8l-.1-25.6h2.3v25.5a11.6 11.6 0 0 1-2.7 8zm29-13.6c-4.6 3-11.1 2-16.3 2.1v15l-2.3.1v-37h12.2a11.7 11.7 0 0 1 8 3c4.8 4.5 4.1 13.5-1.6 16.8zm4.6-46.8a11.7 11.7 0 0 1-3.5 7.9 16.6 16.6 0 0 1-12.4 5.2l-16.4-.1v-41.7h16.5a17.5 17.5 0 0 1 10.2 3.2 12.6 12.6 0 0 1 5.6 10zM757 1280h309v199.6h-36.7c.2-3.3 1-6.7 1.1-10 .8-11.4-1.2-23.2-4-34.1a325.5 325.5 0 0 0-23-59l-8.1-16.8c-4-8.3-8.7-17.3-10.6-26.4-1-5.2-1.4-11.2 1.3-16 4-7.9 16.4-8.6 21.4-1.6 3.9 5.6 3.8 12.5 4.2 19h17.5v-29a99.8 99.8 0 0 0-23.5-5.3c-13-1.2-26.5-1-39.3 1.7s-25.5 8-34.8 17.3a52.8 52.8 0 0 0-14.5 27.8 74.4 74.4 0 0 0 0 28.9c2 9.2 5.4 18.4 9.1 27 7.5 17 17 34 23 51.7a97.8 97.8 0 0 1 5.2 24.9h-23.1a64.1 64.1 0 0 0-9.8-29 51.5 51.5 0 0 0-23.2-19 69 69 0 0 0-63.7 6.2 57.3 57.3 0 0 0-21 26.1 69.2 69.2 0 0 0-4.5 29.1 77 77 0 0 0 11.2 38.2 70 70 0 0 0 30.5 26.2c14 6.5 30.3 9.1 45.7 9.2a171.8 171.8 0 0 0 45.8-5.5 142 142 0 0 0 52.7-25.7 96.7 96.7 0 0 0 30.3-40.6h40.8v93H757zm197 214.9a64.6 64.6 0 0 1-6.3 21.2 58.4 58.4 0 0 1-22 23.9 66.7 66.7 0 0 1-36 9.5 69.7 69.7 0 0 1-38.8-10.9 54.7 54.7 0 0 1-24-48 39.2 39.2 0 0 1 4.8-17 26 26 0 0 1 13.7-11.6 31.6 31.6 0 0 1 20.1 0 26.3 26.3 0 0 1 14 10.5 40.4 40.4 0 0 1 5.7 22.3c23 .2 45.9 0 68.8.1z" class="cls-1"/>
      <path d="M1052 1614.5c-3.3-.6-6.9-.3-10.3-.4v27.9c3.3 0 6.5.2 9.7-.1 3.5-.5 6.7-2.8 7.2-6.5v-13.9c0-3.7-3.2-6.3-6.6-7zM1055 1665h-10v17.8c4.5-.2 10.2.6 14.3-1.4s5.1-7.1 3.6-11a9 9 0 0 0-7.9-5.4zM965 1677.5c1-3 1-7.4-1.5-9.8-2-2-5.2-2.7-8-2.7h-8.7v17.3c4.1-.2 8.4.4 12.4-.4 2.5-.6 4.8-1.8 5.7-4.4zM899.5 1624.4c4-.2 8.1.5 11.9-.5 3.6-1 4.5-6 1.9-8.4-1.6-1.4-3.5-1.5-5.5-1.5h-8.3v10.4zM989.3 1664.4a11.6 11.6 0 0 0-9 2.4 10.8 10.8 0 0 0-3.7 8.4v9.7c0 3.3-.3 6.2 1.7 9.2 2.8 4.2 9 5.2 13.5 3.7a10.1 10.1 0 0 0 7-9.3v-13.3c0-2.8-.6-5.5-2.6-7.6a11 11 0 0 0-7-3.2zM914 1632.2c-1.8-1.2-4-1.2-6.2-1.2h-8.2c-.2 3.7 0 7.4-.1 11.1h10.1c2 0 4.4-.7 5.5-2.5 1.4-2.2 1.1-5.7-1.1-7.4zM875.2 1684.7h13.6l-6.6-18.6c-2.6 6.1-4.7 12.4-7 18.6zM1516 1394.2c4.1-.2 8.3-.1 12.4-.1v-20.3c0-2.7.3-5.3 2.5-7.2 1.5-1.7 4-1.3 6-1.3 2.6 0 4.3 3 4.3 5.4v23.5c4.2-.2 8.4-.2 12.5 0v-26.6c0-3.4-1.2-7.5-4-9.7-2.5-2.4-6.4-3.1-9.7-3a15.3 15.3 0 0 0-7.1 2 18.5 18.5 0 0 0-4.6 4.1c.2-6.4 0-12.9.1-19.4H1516c0 3-.3 5.9-.2 8.9 0 14.5-.3 29 .2 43.7zM1629.8 1394.1c-.2-17.5 0-35-.1-52.6h-12.5v52.6h12.6zM1493.6 1387c-1.9.2-3.3-.7-5-1.3a9 9 0 0 1-1.7-4.2h-11.7a12.8 12.8 0 0 0 3.9 9.3c3.6 3.1 8.6 4.3 13.3 4.4 5 .2 10-.6 14.3-3.4 5-3 7-10.7 3.7-15.6a12.3 12.3 0 0 0-7-4.7c-3.5-.8-7-1.3-10.4-2.2a8.3 8.3 0 0 1-4.3-2.2c-.5-1.4-.5-2.9 1-3.5a9 9 0 0 1 8.8 1l1 2.7h11.3a11.3 11.3 0 0 0-4.9-9.4 20 20 0 0 0-10.4-3c-5.8-.2-11.8.3-16.4 4.2-3.3 2.8-3.8 7.6-2.6 11.5 1.2 3 3.6 4.8 6.5 5.8 4.5 1.6 9.3 2 13.8 3.5a7 7 0 0 1 3 2.2 9.6 9.6 0 0 1-1 3.6c-1.9.7-3.3 1.5-5.2 1.4zM1446.5 1394.1h12.6v-18.5c0-3 .9-5.8 3.4-7.6 3.1-2.3 7-2 10.6-1.2v-11.4c-3.9-.5-8.3-.1-11.2 2.8a11.6 11.6 0 0 0-3.1 4.4l.1-6.6c-4.1 0-8.3-.2-12.4.2v38zM1564.5 1394.4a21.6 21.6 0 0 0 11.1.1c2.7-.6 4.7-2.2 6.9-3.8l.4 3.2c4.3.3 8.5 0 12.8.2a19.1 19.1 0 0 1-1.3-6c-.2-7.5 0-15-.2-22.4a10.3 10.3 0 0 0-4-7.6c-3.1-2.5-7.6-3-11.4-3.2a25 25 0 0 0-16 3.6 12 12 0 0 0-4.3 9.3h11.6c.5-1.6 1-3 2.5-3.9a8.1 8.1 0 0 1 9.3 1.2 4.4 4.4 0 0 1 0 3.8c-1 1.2-3 1.5-4.5 1.8-5.4.8-11 1-16 3.8a10 10 0 0 0-4.3 6.8c-.3 2.8-.3 6.1 1.3 8.5a11.4 11.4 0 0 0 6 4.6zm6.6-14.7c3.4-1.9 7.6-2 11.3-3.3a27 27 0 0 1-1 6.8 6.2 6.2 0 0 1-3.4 3.8c-3 .5-5.8.8-8.2-1.5-.1-2.2-.8-4.3 1.3-5.8zM1612.5 1394l-.1-52.5H1600v52.7c4.1-.2 8.3-.2 12.5-.1z" class="cls-1"/>
      <path d="M1220 1758h540v-538h-540zm96-453h339v117c-20 0-40.2.2-60.3-.2h-63c-7.4 9.1-14.3 18.7-21.5 28l-23.9 31c-.4.8-1.2-.2-1.5-.6l-38.6-50.3c-2-2.7-4-5.5-6.2-8h-64.8c-19.8.4-39.2 0-59.2.2zm0 320h119.5l-.1-44.3a15.3 15.3 0 0 1 2.2 3c9.5 13.7 19.4 27.4 28.8 41.2 13 .2 25.8 0 38.7 0l31-44.2c.5 1.5.2 3.3.2 5 0 13-.2 26.2-.1 39.3H1655v35h-339z" class="cls-1"/>
      <path d="M1413.3 1395a21.5 21.5 0 0 0 10-.8c2.2-.7 4-2.2 6-3.6 0 1.2.2 2.3.3 3.4l12.7.1a25.4 25.4 0 0 1-1.4-7.3v-20.4a10.4 10.4 0 0 0-4.3-8.5 17.5 17.5 0 0 0-9.5-3c-6.3-.3-12.4-.1-17.8 3.8a13.3 13.3 0 0 0-4.3 9h11.6c.7-1.6 1.2-3.2 3-4a9.4 9.4 0 0 1 8.7.8c1 2.1.9 2.9 0 5-5.5 2.1-11.8 1.4-17.4 3.7a10.9 10.9 0 0 0-6.7 6.2 14.4 14.4 0 0 0 .8 10.1 11.6 11.6 0 0 0 8.3 5.4zm6.7-16.4c3-.8 6-1.2 9-2.1-.2 3 0 7.1-2.4 9.3-2 1.8-4 1.5-6.5 1.4a4 4 0 0 1-4-4.1c-.2-2.2 2-4 3.9-4.5zM1354.3 1394.1v-31.4a75.9 75.9 0 0 1 .1-8.3c3.6 13.3 7.3 26.4 10.8 39.7h10.6c3.5-13.2 7.4-26.2 10.7-39.4h.5c-.2 13.1 0 26.2 0 39.4l12.8-.1-.1-52.5h-20c-1.4 4.2-2 8.5-3.4 12.7-2 7.4-3.5 15-5.8 22.2l-9-35c-6.7.2-13.4.2-20 0-.2 17.6 0 35.1-.2 52.7h13zM53 1175h539V636H53zm379.9-157.4c-11.2.9-22.6 0-34 .4v-65.1c10.5.1 21-.3 31.5.1 7.7.2 14 6.2 15.6 13.6 1.6 6.3-1.5 11.4-6 15.4 3 2.5 6.3 4.5 8 8 5.4 11.1-2.7 26.3-15.1 27.5zm82-8a28.6 28.6 0 0 1-40.9 1c-3.9-4-4.6-9-5.7-14.3h15.2c1.8 3.3 2.5 6.3 6.5 7.3 4.3.8 11.4 1 13.6-3.7 1.4-2.6-1-5.3-3.5-6-8.2-2.2-17-1.3-24.3-6.4-9-6.3-8.5-21.6-.8-28.7 9.7-9.1 27.3-9.6 37.1-.5 4.4 4 5.2 8.9 6.6 14.3h-15.4c-2.3-7.4-11.6-8.6-17-4.2-3 2.8-1.8 6.8 2 8 8.3 2.3 16.6 1.5 24.1 6.7 8.4 5.7 9 19.1 2.6 26.5zM396 787.8a72.7 72.7 0 0 1 62.1 37.4c13-22.5 36.1-37 62.3-37.4v134.1H396V787.8zM362 1018l-4-9.9h-23l-4 9.9h-16.2c8.8-21.8 17.2-44 26.3-66a88.6 88.6 0 0 1 10.8-.1l27.3 66.1H362zM254.2 845.7a62.1 62.1 0 0 1 37-54.5 62.4 62.4 0 0 1 69 12.9 61 61 0 0 1 18.2 43.4v74.4h-38l.2-11.4h-48.7l.1 11.4h-38.1c.4-25.4-.1-50.8.3-76.2zm15.2 107.1l-.1 50.5H297v14.7h-43.1c0-21.7.2-43.4 0-65l15.5-.2zM142.3 869a44.3 44.3 0 0 1-18.6-47.6 41.7 41.7 0 0 1 16-23.2 71 71 0 0 1 49.3-11.7c16 2 31.5 8.4 41.1 21.8 5.1 7 7 15 7.8 23.5-14.2 0-28.4.3-42.6-.3 8.5 2 16.5 4.2 23.7 9.5a44.2 44.2 0 0 1 17.2 46.7 43.4 43.4 0 0 1-19.3 25.5c-11 7-24 9.6-36.8 10-17.4-.3-35.8-5.6-47.6-19-6.8-7.5-9.8-17-10.4-27 14.2.1 28.4-.1 42.6.3-8-2.1-15.5-3.6-22.4-8.5z" class="cls-1"/>
      <path d="M430.7 991c-5.4-.9-11.1-.3-16.6-.4v13c5.6 0 11.5.6 17-.4 4.6-2.2 4.6-10.5-.4-12.2zM428 976.4a5.2 5.2 0 0 0 .1-9.6c-4.6-.6-9.4-.3-14.1-.3v10.2c4.6 0 9.4.3 14-.3zM340.4 994.2h12.4c-2.2-5.7-4.2-11.5-6.2-17.3l-6.2 17.3zM791 932.9a96.2 96.2 0 0 0 19.8 27.4 79.6 79.6 0 0 0 30.7 18.5 93 93 0 0 0 32.6 4.1 86.4 86.4 0 0 0 30-6.6 82.7 82.7 0 0 0 35.1-29 123.8 123.8 0 0 0 20.3-55.2c3.4-25.5-.3-52.1-11.5-75.4a102 102 0 0 0-19.7-28 81.7 81.7 0 0 0-31.4-20 85.6 85.6 0 0 0-34.3-4.2 81.6 81.6 0 0 0-48.9 21.1 99.4 99.4 0 0 0-21.1 27.5 128.5 128.5 0 0 0-14.2 50.7 143.4 143.4 0 0 0 1.1 31 129.8 129.8 0 0 0 11.6 38z" class="cls-1"/>
      <path d="M640 1175h540V636H640zm428.2-212.9a35 35 0 0 1 16.6 9.1 31.6 31.6 0 0 1 7.8 13.6 48.3 48.3 0 0 1 1.5 19.4 55.1 55.1 0 0 1-5.3 16.6 121.5 121.5 0 0 1-18.7 26.3c-7.7 8.6-16 16.7-24.3 24.7h49.8a8.2 8.2 0 0 1 2.4.2v20.3c-1 0-.3.7-.8.7H1013v-22.4c2-2 3.6-3.8 5.6-5.6 8.6-8 16.9-16 24.9-24.4 7.7-8.4 15-17 20.4-27.2 2.5-4.7 4.4-9.8 4.4-15.2a15.6 15.6 0 0 0-4.1-10.6 21.9 21.9 0 0 0-13.5-6.3 42.8 42.8 0 0 0-19.8 3.1 82.7 82.7 0 0 0-13.7 7.2l-2-21.8a87.3 87.3 0 0 1 34.6-9.2 61.3 61.3 0 0 1 18.4 1.5zM719 870.3c2-10 1.8-20 3.6-29.9a151.6 151.6 0 0 1 29.2-66 135.7 135.7 0 0 1 42.9-36 154.8 154.8 0 0 1 69.6-17.8c21.3-.7 42.9 2.4 62.9 10a136.3 136.3 0 0 1 73.7 66.4 161.7 161.7 0 0 1 16.3 55.8 183.4 183.4 0 0 1 .9 29.3 163.3 163.3 0 0 1-8.8 45.6 149.4 149.4 0 0 1-39.5 61 142.2 142.2 0 0 1-61.4 33.3 159.1 159.1 0 0 1-51.3 4.3 149.8 149.8 0 0 1-50.6-12.8 142 142 0 0 1-48.3-36 153.9 153.9 0 0 1-34-65.4c-2.8-11.6-3.2-23.6-5.2-35.6zM1433.2 871.2a67.4 67.4 0 0 0 32.8 33.2v-66.3zM1543.2 1015h17.8l-8.9-25.5-8.9 25.5zM1676 989.5l-8.9 25.5h17.8l-8.9-25.5z" class="cls-1"/>
      <path d="M1220 1175h540V636h-540zm272.4-138h-14.9l-11.3-43.9-11.4 43.9H1440l-14.8-59h13l9.3 46.8 12-46.8h13.3l12 46.8 9.3-46.8h13.1zm176.7-59h13.8l22.2 59h-12.8l-4.2-12H1664l-4.3 12H1647zm-69.1 0h12v50h21v9h-33zm-31.5 59l-4.2-12h-24.2l-4.3 12H1523l22.3-59h13.8l22.1 59zm-73-276a80.8 80.8 0 1 1-80.7 80.8 80.8 80.8 0 0 1 80.7-80.8zm-145.1 230a28.6 28.6 0 0 1 10.9-11 32 32 0 0 1 30.7 0 28.5 28.5 0 0 1 10.9 11 34.1 34.1 0 0 1 0 32 28.5 28.5 0 0 1-10.9 11 32 32 0 0 1-30.7 0 28.5 28.5 0 0 1-11-11 34.1 34.1 0 0 1 0-32zm-69.4-13h12v26.1l22-26.1h14.6l-25.6 29 25.6 30H1315l-22-27.2v27.2h-12z" class="cls-1"/>
      <path d="M1466 779.2a70.5 70.5 0 0 0-16.5 11.1l16.5 16.5zM1441.2 798.5a69.4 69.4 0 0 0-12.9 61l36.8-37.1zM1367.3 1024.4a19.4 19.4 0 0 0 18.7 0 16.4 16.4 0 0 0 6.3-6.9 25.4 25.4 0 0 0 0-21 16.4 16.4 0 0 0-6.3-6.9 19.4 19.4 0 0 0-18.7 0 16.4 16.4 0 0 0-6.3 7 25.3 25.3 0 0 0 0 21 16.4 16.4 0 0 0 6.3 6.8zM1512.6 774.4a69 69 0 0 0-17.1-2.1 69.9 69.9 0 0 0-18.5 2.5v35.5zM1547 888.4a69.4 69.4 0 0 0-22.7-109.8l-43.4 43.8zM1477 908.8a70 70 0 0 0 18.5 2.5 69.2 69.2 0 0 0 43.3-15.2l-61.8-61.8zM53 1220v538h539v-538zm58.7 297.8c-13.8 0-22-9.1-23-24.6l13.4-.4c.6 7 2.8 13.3 9.7 13.3 6.3 0 8.4-5.5 8.4-10.6 0-5.4-3.1-10.3-8.4-15.5l-9.6-10.4c-7.4-7.3-12-14.7-12-24 0-12 7.3-22 22-22 10.8 0 20 5.7 21 23.6l-12.8.4c-.9-7.7-3.2-12.5-9-12.5-5.2 0-8 3.7-8 9.4 0 5.3 4.7 10.2 9.2 15l8.8 9.3c8.1 8.2 12.6 16 12.6 25.9 0 13.2-8.2 23-22.3 23zM205 1456h-14v-10.3c0-5.8-3.2-9.7-9.4-9.7-6.9 0-9.6 4.4-9.6 10.4v48.4c0 6.8 3.5 10.5 9.8 10.5 6 0 9.2-4 9.2-9.5v-9.8h14v10.6c0 13-9.9 21.3-23.1 21.3-14.4 0-24.9-7.7-24.9-22.3V1446c0-13.9 10.8-22.2 24.9-22.2 13.2 0 23.1 7.9 23.1 20.4zm66.8 62h-14.2l-12.8-38.1-18.5-54.9h15.1l11.3 37 10.9-37h13.7l-18.3 54.2v.8zm78.2-81h-18v81h-14v-81h-16v-12h48zm59.8 81l-4.6-24h-19.4l-4.3 24h-13.3l18.6-93h19.4l18 93zm81.2 0h-40v-93h14v80h26zm65 0h-42v-93h42v12h-25v27h20v12h-20v29h25z" class="cls-1"/>
      <path d="M395.5 1442l-7.3 39h14.7l-7-39h-.4z" class="cls-1"/>
      <path fill="#0c1516" d="M259.3 1479.2l18.4-54.2h-.1l-18.3 54.1v.1z"/>
      <path d="M640 641h531v526H640zM1225 641h535v526h-535zM54 54h532v533H54zM640 54h531v533H640zM54 641h532v526H54zM54 1221h532v534H54zM640 1221h531v534H640zM1225 1221h535v534h-535zM1225 54h535v533h-535z" class="cls-3"/>
      <path fill="#0c1516" d="M0 0v1809h1809V0zm1171 54v533H640V54zM586 1167H54V641h532zm54-526h531v526H640zm585 0h535v526h-535zM586 54v533H54V54zM54 1755v-534h532v534zm586 0v-534h531v534zm585 0v-534h535v534zm535-1168h-535V54h535z"/>
    </g>
  </g>
</svg>
