<?xml version="1.0" encoding="UTF-8" standalone="no"?>
<svg
   xmlns:dc="http://purl.org/dc/elements/1.1/"
   xmlns:cc="http://creativecommons.org/ns#"
   xmlns:rdf="http://www.w3.org/1999/02/22-rdf-syntax-ns#"
   xmlns:svg="http://www.w3.org/2000/svg"
   xmlns="http://www.w3.org/2000/svg"
   xmlns:sodipodi="http://sodipodi.sourceforge.net/DTD/sodipodi-0.dtd"
   xmlns:inkscape="http://www.inkscape.org/namespaces/inkscape"
   viewBox="0 0 1800 1800"
   version="1.1"
   id="svg3103"
   sodipodi:docname="clients.svg"
   inkscape:version="0.92.2 2405546, 2018-03-11">
  <metadata
     id="metadata3107">
    <rdf:RDF>
      <cc:Work
         rdf:about="">
        <dc:format>image/svg+xml</dc:format>
        <dc:type
           rdf:resource="http://purl.org/dc/dcmitype/StillImage" />
        <dc:title></dc:title>
      </cc:Work>
    </rdf:RDF>
  </metadata>
  <sodipodi:namedview
     pagecolor="#ffffff"
     bordercolor="#666666"
     borderopacity="1"
     objecttolerance="10"
     gridtolerance="10"
     guidetolerance="10"
     inkscape:pageopacity="0"
     inkscape:pageshadow="2"
     inkscape:window-width="3840"
     inkscape:window-height="2075"
     id="namedview3105"
     showgrid="false"
     inkscape:zoom="2.8284271"
     inkscape:cx="911.6611"
     inkscape:cy="783.55939"
     inkscape:window-x="7680"
     inkscape:window-y="2196"
     inkscape:window-maximized="0"
     inkscape:current-layer="svg3103"
     inkscape:pagecheckerboard="true" />
  <defs
     id="defs3069">
    <style
       id="style3067">
      .a{fill:#29353a}.b{fill:#0c1516}
    </style>
  </defs>
  <path
     style="fill:#29353a;fill-opacity:1;stroke-width:1.00818348"
     d="M 1223.1094 29.720703 L 1223.1094 584.11914 L 1777.5 584.11914 L 1777.5 29.720703 L 1223.1094 29.720703 z M 1368.5449 251.45117 L 1417.3945 251.52734 L 1383.8926 318.22656 L 1417.3945 384.92578 L 1368.5449 384.92578 L 1361.7246 371.26172 L 1395.2129 371.26172 L 1368.5879 318.1875 L 1395.248 265.11328 L 1377.0352 265.11328 L 1316.8496 385 L 1268 384.92578 L 1301.502 318.22656 L 1268 251.52734 L 1316.8496 251.52734 L 1323.668 265.19531 L 1290.1836 265.19531 L 1316.7988 318.26172 L 1290.1445 371.33789 L 1308.3535 371.33789 L 1363.7695 261.01953 L 1368.5449 251.45117 z M 1589.0312 298.32227 C 1590.5006 298.32227 1592.2502 298.46634 1594.2812 298.75391 C 1596.3158 299.04646 1598.1997 299.59732 1599.9434 300.41016 L 1599.9434 307.89258 C 1598.2346 307.00327 1596.4976 306.37879 1594.7207 306.00977 C 1592.942 305.64241 1591.2742 305.45703 1589.7266 305.45703 C 1587.8699 305.45703 1586.1554 305.76067 1584.5879 306.35742 C 1583.027 306.95916 1581.6696 307.82707 1580.5293 308.9707 C 1579.3857 310.11267 1578.4847 311.49345 1577.8281 313.11914 C 1577.1699 314.74316 1576.8457 316.60195 1576.8457 318.69141 C 1576.8457 320.43012 1577.083 322.06418 1577.5684 323.5918 C 1578.0471 325.12273 1578.7858 326.44829 1579.7715 327.57031 C 1580.7639 328.69233 1582.0008 329.58032 1583.4902 330.24023 C 1584.9729 330.89516 1586.7443 331.22656 1588.7988 331.22656 C 1589.6067 331.22656 1590.4999 331.1484 1591.4707 330.99219 C 1592.4348 330.8376 1593.2642 330.62613 1593.959 330.35352 L 1593.959 317.70117 L 1601.6211 317.70117 L 1601.6211 335.86523 C 1599.7228 336.64483 1597.6003 337.20366 1595.2383 337.55273 C 1592.8779 337.89682 1590.5002 338.07422 1588.1016 338.07422 C 1584.812 338.07422 1581.9084 337.58882 1579.3984 336.62305 C 1576.8817 335.65562 1574.7868 334.30229 1573.0996 332.55859 C 1571.4174 330.81987 1570.1455 328.75926 1569.3027 326.37891 C 1568.4433 323.99857 1568.0234 321.39645 1568.0234 318.57227 C 1568.0234 315.78966 1568.5083 313.16745 1569.4707 310.70898 C 1570.4415 308.25383 1571.8325 306.10965 1573.6543 304.26953 C 1575.4678 302.43108 1577.6764 300.98015 1580.2695 299.91797 C 1582.8576 298.85246 1585.7816 298.32227 1589.0312 298.32227 z M 1522.9883 298.4375 L 1524.2617 298.4375 L 1542.1406 337.43555 L 1533.373 337.43555 L 1530.7656 331.40039 L 1516.084 331.40039 L 1513.4121 337.43555 L 1504.8184 337.43555 L 1522.9883 298.4375 z M 1468.582 299.13281 L 1477.3457 299.13281 L 1477.3457 321.24219 C 1477.3457 323.37153 1477.1677 325.45115 1476.8203 327.48242 C 1476.4729 329.51536 1475.7673 331.31169 1474.7051 332.88086 C 1473.6396 334.44504 1472.1325 335.71226 1470.1777 336.67969 C 1468.2229 337.64546 1465.6411 338.13086 1462.4297 338.13086 C 1461.7714 338.13086 1461.0561 338.09349 1460.2832 338.01367 C 1459.5069 337.93887 1458.7155 337.82061 1457.9043 337.66602 C 1457.0915 337.50977 1456.2873 337.30793 1455.4961 337.05859 C 1454.7015 336.80759 1453.9546 336.50532 1453.2598 336.15625 L 1453.2598 328.90234 C 1454.5347 329.64038 1455.8834 330.19864 1457.293 330.58594 C 1458.7059 330.97325 1459.955 331.16602 1461.0371 331.16602 C 1462.5065 331.16602 1463.726 330.94548 1464.6934 330.5 C 1465.6592 330.05617 1466.4316 329.42446 1467.0117 328.61328 C 1467.5968 327.8021 1468.0013 326.83462 1468.2324 325.71094 C 1468.4651 324.58892 1468.582 323.35308 1468.582 322 L 1468.582 299.13281 z M 1634.4648 299.13281 L 1660.4023 299.13281 L 1660.4023 305.80664 L 1643.1133 305.80664 L 1643.1133 314.27734 L 1658.6035 314.27734 L 1658.6035 320.72266 L 1643.1133 320.72266 L 1643.1133 330.76172 L 1661.5078 330.76172 L 1661.5078 337.43359 L 1634.4648 337.43359 L 1634.4648 299.13281 z M 1690.7422 299.18945 L 1700.0293 299.18945 L 1709.0234 316.36914 L 1717.959 299.18945 L 1727.3027 299.18945 L 1716.5664 317.64844 C 1718.4214 320.97295 1720.3281 324.27107 1722.2812 327.53906 C 1724.236 330.81038 1726.1416 334.10938 1728 337.43555 L 1718.6562 337.43555 L 1709.0234 319.03906 L 1699.2773 337.43555 L 1689.9883 337.43555 L 1701.3652 317.64844 L 1690.7422 299.18945 z M 1523.3965 314.85742 L 1518.6934 325.47852 L 1528.2129 325.47852 L 1523.627 314.85742 L 1523.3965 314.85742 z "
     id="path4543" />
  <path
     style="fill:#29353a;fill-opacity:1;stroke-width:1.00727391"
     d="M 625.07812,31.709055 V 585.60938 H 1178.9883 V 31.709055 Z m 71.09545,262.567985 h 22.50234 v 11.28068 h -22.56333 v 12.30959 h 17.52696 v 11.28068 h -17.48565 v 22.56333 h -11.28265 l 0.0217,-46.1536 11.28068,-10.97968 z m 55.29973,0 h 11.38102 l 11.22165,11.79415 v 45.64013 h -12.26828 v -22.56333 h -10.26357 v 22.56333 h -11.28265 l 0.0315,-45.64013 z m 48.30783,0 h 22.64399 l 11.18035,11.79415 v 11.79612 h -11.18035 l 11.18035,11.28068 v 22.56333 h -12.30763 v -22.56333 h -10.2557 v 22.56333 h -11.29053 z m 70.57999,0 h 22.764 v 11.28068 h -22.56333 v 12.30959 h 17.43647 v 11.28068 h -17.46597 v 22.56333 h -11.28068 l 0.0295,-45.64013 z m 53.53701,0 h 23.60011 v 11.28068 h -22.60267 v 12.30959 h 16.38787 v 11.28068 h -16.41935 v 11.28069 h 22.57317 v 11.28264 h -23.56864 l -11.48331,-11.28264 h -0.82629 l 0.0295,-34.87096 h 0.82628 z m 46.11229,0 h 33.84398 v 11.28068 h -11.28065 v 46.1536 h -12.28796 v -46.1536 h -10.2557 z m 66.78308,0 h 23.4899 v 11.28068 h -23.5903 v 34.87096 h 23.5903 v 11.28264 h -23.4899 l -11.383,-11.28264 v -34.35749 z m 44.017,0 h 11.2827 v 23.59027 h 11.2807 v -23.59027 h 11.2925 v 57.41461 h -11.2925 v -22.54366 h -11.2807 v 22.56333 h -11.2827 z m -329.26638,11.28068 v 12.30959 h 10.26357 v -12.30959 z m 59.49802,0 v 12.30959 h 10.2557 v -12.30959 z"
     id="path4529"
     inkscape:connector-curvature="0" />
  <path
     d="M 31.640625 32.660156 L 31.640625 582.57031 L 580.5293 582.57031 L 580.5293 32.660156 L 31.640625 32.660156 z M 97.839844 261.78906 L 223.08984 261.78906 L 223.08984 379.91992 L 97.839844 379.91992 L 97.839844 261.78906 z M 242.43945 261.78906 L 366.67969 261.78906 L 366.67969 379.91992 L 242.43945 379.91992 L 242.43945 261.78906 z M 386 261.78906 L 510.26953 261.78906 L 510.26953 379.91992 L 386 379.91992 L 386 261.78906 z M 130.41992 278.08008 L 130.41992 362.60938 L 164.41992 362.60938 C 164.41992 362.60938 192.83008 363.21969 192.83008 339.17969 L 192.84961 339.17969 C 192.84961 339.17969 193.46055 323.09055 174.31055 318.31055 C 174.31055 318.31055 185.21094 313.31 185.21094 301 C 185.21094 301 186.84055 281.14008 160.06055 278.08008 L 130.41992 278.08008 z M 274 278.08008 L 274 362.60938 L 308.61914 362.60938 C 308.61914 362.60938 337.05078 363.21969 337.05078 339.17969 C 337.05078 339.17969 337.75977 323.09055 318.50977 318.31055 C 318.50977 318.31055 329.41016 313.31 329.41016 301 C 329.41016 301 331.03977 281.14008 304.25977 278.08008 L 274 278.08008 z M 454.45508 278.20703 C 443.6673 278.24333 437.78516 280.51562 437.78516 280.51562 C 404.56516 290.64562 405.47461 321.33594 405.47461 321.33594 C 406.47461 351.20594 431.20508 360.22461 431.20508 360.22461 L 431.21484 360.29492 C 460.78484 371.93492 486.21484 356.74414 486.21484 356.74414 L 486.21484 340.54492 C 467.97484 352.69492 453.28516 351.125 453.28516 351.125 C 419.86516 349.505 420.98438 321.35547 420.98438 321.35547 C 422.39438 290.76547 453.98437 291.35547 453.98438 291.35547 C 470.79438 291.55547 486.19531 300.875 486.19531 300.875 L 486.19531 285.27539 A 84 84 0 0 0 462.69531 278.5957 C 459.69531 278.3107 456.94457 278.19865 454.45508 278.20703 z M 145.69922 291.32031 L 157.60938 291.32031 C 170.13938 293.32031 169.73047 301.60936 169.73047 301.60938 C 169.73047 313.31936 155.7793 313.73047 155.7793 313.73047 L 145.69922 313.73047 L 145.69922 291.32031 z M 290.30078 291.32031 L 301.81055 291.32031 C 314.34055 293.32031 313.92969 301.60936 313.92969 301.60938 C 313.92969 313.31936 299.98047 313.73047 299.98047 313.73047 L 290.30078 313.73047 L 290.30078 291.32031 z M 145.69922 328 L 161.38086 328 C 177.67086 328 177.26953 338.69922 177.26953 338.69922 C 177.26953 351.50922 161.38086 350.39064 161.38086 350.39062 L 145.69922 350.39062 L 145.69922 328 z M 290.30078 328 L 305.58008 328 C 321.97008 328 321.58008 338.69922 321.58008 338.69922 C 321.57008 351.50922 305.58008 350.39064 305.58008 350.39062 L 290.30078 350.39062 L 290.30078 328 z "
     id="path4488"
     style="fill:#29353a;fill-opacity:1" />
  <path
     style="fill:#29353a;stroke-width:1.01032519"
     d="M 626.42969,1219.4523 V 1773 h 553.52801 v -553.5477 z m 122.43089,61.7324 h 317.91892 v 205.773 h -37.8557 c 0.2021,-3.4048 1.0096,-6.902 1.1308,-10.2967 0.8285,-11.74 -1.2327,-23.8942 -4.1222,-35.1088 -5.9165,-20.9738 -13.8651,-41.3194 -23.7328,-60.7498 l -8.35491,-17.2978 c -4.12213,-8.5473 -8.972,-17.8124 -10.93203,-27.1781 -1.01033,-5.3548 -1.44446,-11.5267 1.33394,-16.4672 4.13223,-8.1433 16.9223,-8.8612 22.0851,-1.6576 4.0413,5.769 3.9213,12.8727 4.3255,19.5711 h 18.0536 v -30.1479 c 0,0 -15.8218,-4.6176 -24.0762,-5.4561 -13.3664,-1.2326 -27.27873,-1.0099 -40.41296,1.7482 -13.13423,2.7582 -26.2679,8.2334 -35.80537,17.8012 -7.75142,7.8048 -12.95118,17.779 -14.91216,28.6028 -1.93994,9.8163 -1.93994,19.9172 0,29.7335 2.23683,9.5365 5.37229,18.8395 9.36524,27.784 7.70878,17.4887 17.48865,34.978 23.66174,53.1841 2.92157,8.3703 4.71983,17.0916 5.34564,25.9351 h -23.79395 c -0.85104,-10.7372 -4.31993,-21.1031 -10.10325,-30.1895 -5.84156,-8.7414 -14.1531,-15.5464 -23.87485,-19.5494 -21.56731,-8.7475 -46.05224,-6.3648 -65.52905,6.3757 -9.71651,6.6003 -17.24207,15.9493 -21.61149,26.8526 -3.67671,9.5334 -5.25507,19.7481 -4.62737,29.9467 0.32894,13.8834 4.30123,27.4371 11.5181,39.302 7.59425,11.8746 18.50546,21.2614 31.38125,26.9966 14.40724,6.6884 31.17769,9.3547 47.01959,9.4658 15.88978,0.2347 31.73961,-1.6679 47.1222,-5.6574 19.71818,-4.9479 38.18657,-13.9565 54.22407,-26.45 13.89322,-10.8861 24.64832,-25.2642 31.16812,-41.666 h 41.9798 v 95.6869 H 748.86058 Z m 101.3364,185.5625 c 3.49126,0 6.98303,0.5645 10.33609,1.6911 5.89655,1.846 10.98151,5.6575 14.40701,10.7998 4.1376,6.9182 6.17741,14.8882 5.87054,22.9434 23.6214,0.2021 47.18171,0.053 70.74249,0.1027 -0.88951,7.5903 -3.0838,14.9697 -6.4862,21.8127 -5.06361,10.1743 -12.91201,18.7019 -22.63168,24.5912 -11.16873,6.7058 -24.01549,10.0944 -37.03868,9.7698 -14.11982,0.2726 -28.00577,-3.6281 -39.91772,-11.2142 -16.29875,-11.0125 -25.66111,-29.7392 -24.69179,-49.3857 0.29251,-6.1286 1.97762,-12.1102 4.92929,-17.4892 3.14263,-5.5355 8.15867,-9.7655 14.14455,-11.9305 3.35311,-1.1266 6.84484,-1.6911 10.3361,-1.6911 z m -82.83088,150.3706 c 3.59597,0.02 7.16486,0.6781 10.09733,2.8376 2.1621,1.5458 3.29413,3.6986 4.52673,5.8607 l -4.62737,2.2634 c -0.6163,0.101 -1.54642,0.8278 -2.16272,0.6157 -1.13157,-1.5357 -2.01978,-3.0311 -3.90909,-3.6979 -3.00366,-1.3848 -6.4642,-1.3848 -9.46786,0 -2.46519,1.3336 -3.395,4.9405 -1.33394,7.0722 1.84889,1.859 5.14421,2.3748 7.50837,3.0921 4.42523,1.1316 8.54609,1.4439 11.83975,4.8386 4.21306,4.6273 3.90965,12.8622 -0.82878,16.9743 v 0.071 c -2.66696,2.3754 -6.01361,3.8495 -9.56652,4.2129 -4.94221,0.7187 -9.98488,-0.1437 -14.407,-2.4646 -3.06013,-1.6783 -5.29458,-4.5454 -6.17442,-7.9228 l 7.00123,-2.879 c 0.6163,0.3031 0.92011,1.2331 1.23331,1.7483 3.0916,5.1426 11.01262,6.062 15.74094,3.031 2.13337,-1.5109 2.63513,-4.4657 1.12083,-6.5967 -0.37999,-0.5334 -0.86486,-0.9843 -1.42472,-1.324 -4.94049,-2.8795 -12.65771,-2.4646 -17.49717,-6.1725 -3.69779,-2.7784 -4.42601,-8.7398 -3.08228,-12.862 1.84889,-5.1425 6.79033,-7.8211 11.83186,-8.5384 1.18208,-0.1036 2.38286,-0.1664 3.58152,-0.1599 z m 173.81539,0.1126 c 3.05797,-0.061 6.20277,0.323 8.82456,1.6339 2.9876,1.5349 5.32659,4.0918 6.58882,7.2044 l -6.68946,3.031 c -0.71098,-1.1452 -1.57691,-2.1863 -2.57514,-3.0921 -2.60291,-1.7312 -5.80231,-2.3217 -8.85219,-1.6359 -2.12503,0.2948 -3.86467,1.8353 -4.41425,3.9091 -0.49122,1.9972 0.49913,4.0638 2.36401,4.9312 4.82935,2.5763 11.21428,2.263 15.84157,5.1425 4.62729,2.8794 5.97229,9.1632 4.32546,13.9926 -1.74786,5.0516 -6.48644,7.9307 -11.52796,8.8501 -5.18441,1.0205 -10.56247,0.221 -15.22593,-2.2633 v -0.04 c -3.13567,-1.7681 -5.48782,-4.6547 -6.58684,-8.0826 l 7.41563,-2.879 c 2.66726,6.4761 10.90007,8.3239 16.55789,4.9292 1.97335,-1.3395 2.638,-3.941 1.54706,-6.0619 -0.80396,-1.2436 -1.99927,-2.1857 -3.39604,-2.6777 -4.73842,-1.859 -10.80961,-2.0197 -15.02266,-4.8385 -4.52626,-2.7784 -5.35528,-9.2552 -3.59732,-13.7815 1.8489,-4.8394 6.57801,-7.3046 11.41747,-8.0826 0.97749,-0.101 1.986,-0.1694 3.00532,-0.1894 z m -137.59366,0 c 0.62396,-0.031 1.25252,-0.031 1.88252,0 5.20319,0 11.04288,1.5459 14.14455,5.9712 2.08128,2.7682 2.39298,6.7893 2.50411,8.8403 h -7.79844 c -0.21217,0 -0.31265,-3.031 -1.45432,-4.6274 -2.29343,-3.0813 -6.98166,-3.8088 -10.42688,-2.7784 -3.46784,0.7181 -6.02532,3.6679 -6.24348,7.2026 v 13.8564 c -0.0172,2.4523 1.14398,4.764 3.12174,6.2139 3.54624,2.5966 9.17384,2.7978 12.70997,-0.3039 1.77818,-1.667 2.0808,-3.8393 2.29297,-6.2237 h 7.82015 c 0.008,1.9936 -0.24073,3.9795 -0.73801,5.91 -1.26017,3.9151 -4.23535,7.0429 -8.0826,8.497 l 0.0612,0.032 c -6.86517,2.6654 -14.6196,1.6083 -20.52025,-2.7982 -3.17224,-2.6295 -4.97515,-6.5599 -4.89969,-10.6795 v -13.7814 c -0.0271,-3.7756 1.38963,-7.4189 3.9604,-10.1842 3.13779,-3.1084 7.29844,-4.9266 11.66609,-5.1463 z m 23.46244,0.4085 h 9.25474 v 17.4873 h 16.46909 v -17.4873 h 8.2227 l 0.01,43.2111 h -8.22271 v -18.5194 H 836.315 v 18.5194 h -9.2646 z m 43.221,0 h 8.22468 v 42.8974 c -2.7683,0.2021 -5.44628,-8e-4 -8.22468,0.1006 z m 17.48928,0 h 16.44738 c 4.84956,0 10.80101,0.5046 13.52889,5.243 1.35696,2.7588 1.64566,5.9233 0.80905,8.8818 -0.81393,2.5426 -2.69474,4.6044 -5.15226,5.6476 1.91961,1.0103 3.7382,1.8182 5.05162,3.6367 3.2138,4.9776 2.35928,11.5477 -2.02065,15.5377 -2.78773,2.8236 -5.53905,4.2041 -9.45601,4.2169 l -19.20802,0.028 z m 72.37046,0 h 32.61258 v 7.1926 h -12.38635 v 36.0185 h -8.23454 v -35.906 l -0.0809,-0.1125 h -12.1239 c 0.21217,-2.3641 9.4e-4,-4.7274 0.21311,-7.1926 z m 36.65389,0 h 30.3097 c 0.1213,2.3963 0.1213,4.7963 0,7.1926 -7.3652,-0.2021 -14.72,0 -22.0752,0 v 10.2947 h 19.6008 v 8.2247 h -18.5411 v 10.2946 l 21.6016,-0.2013 v 7.4058 h -30.8958 z m 37.0899,0 h 16.8204 c 3.7273,-0.024 7.3676,1.1319 10.3973,3.3033 3.4413,2.3386 5.5619,6.178 5.7087,10.3361 v 16.023 c -0.1073,3.0787 -1.3837,6.001 -3.5677,8.1735 -3.2572,3.5072 -7.8533,5.4621 -12.6389,5.3752 l -16.7198,-0.1105 z m -137.87971,7.1729 v 10.7091 c 4.11202,-0.2122 8.33431,0.5053 12.24428,-0.5151 3.69776,-1.0103 4.62697,-6.1736 1.94961,-8.6489 -1.64683,-1.4347 -3.59637,-1.5451 -5.65743,-1.5451 z m 146.09261,0.02 v 28.8752 c 3.4149,0 6.7282,0.213 10.0421,-0.1006 3.617,-0.5153 6.9319,-2.8999 7.4472,-6.729 v -14.3872 c 0,-3.8292 -3.3036,-6.5165 -6.8296,-7.244 -3.4149,-0.6163 -7.1438,-0.3134 -10.6597,-0.4144 z m -146.3965,17.4794 c -0.21216,3.7686 3.9e-4,7.5363 -0.10063,11.3149 h 10.26506 c 2.02065,0 4.48663,-0.7168 5.60809,-2.5455 a 5.9306087,5.9306087 0 0 0 -1.1228,-7.5479 h 0.0316 c -1.83879,-1.2225 -4.04106,-1.2215 -6.32439,-1.2215 z m 25.01345,31.9338 c 4.29449,-0.1453 8.78106,1.3134 11.3997,4.5781 2.1621,2.5864 2.1621,5.5784 2.02065,8.7811 h -3.03097 c 0.21217,-3.132 0,-6.0626 -2.7784,-8.2247 -3.69779,-2.6471 -10.10443,-2.9397 -14.09521,-0.6866 -3.05934,1.7468 -4.94162,5.0036 -4.92929,8.5265 v 13.0336 c -0.13387,3.2799 1.38326,6.409 4.0413,8.3352 3.54666,2.0672 7.7831,2.5956 11.72925,1.4641 2.95554,-0.5933 5.33461,-2.7813 6.17245,-5.6771 0.40413,-2.7481 10e-4,-5.6876 0.20325,-8.5266 h -10.75049 v -2.0207 h 13.37694 v 10.0323 c 0.008,2.9385 -1.4416,5.6893 -3.86963,7.3445 v -0.061 c -2.04624,1.4445 -4.49666,2.2053 -7.00123,2.1726 h -4.41623 c -3.4012,0.022 -6.62898,-1.4967 -8.77917,-4.1321 -1.94028,-2.4169 -2.89988,-5.4759 -2.68763,-8.568 v -14.1446 c 0.24001,-4.899 3.30516,-9.2121 7.85174,-11.0524 1.67966,-0.7104 3.59092,-1.108 5.54297,-1.1741 z m 65.03376,0.095 c 1.05011,-0.01 2.1025,0.061 3.13556,0.1894 3.718,0.5153 7.23353,2.1625 9.19353,5.4562 1.4147,2.576 2.0598,5.5037 1.8589,8.4358 v 11.8318 l 0.1025,-0.1006 c 0.089,3.4066 -1.1302,6.7181 -3.4058,9.2546 -2.10961,2.4284 -5.14865,3.8484 -8.36479,3.9092 h -4.85035 c -3.08721,0.012 -6.04211,-1.2518 -8.16351,-3.4947 -2.05929,-2.0731 -3.18044,-4.8991 -3.10201,-7.8201 v -14.9221 c -0.0292,-3.8784 1.7263,-7.5562 4.75957,-9.9731 2.5536,-2.008 5.68608,-2.7419 8.8364,-2.7664 z m -206.74962,0.8563 h 2.9402 c -0.20207,12.2856 3.8e-4,24.6627 -0.10064,36.9381 l -0.0414,0.152 h -2.46463 c 0,0 0.20206,-21.8141 0,-33.1297 -4.12213,7.2036 -8.64729,14.2069 -12.75931,21.4004 l -1.84897,0.1105 -10.29663,-17.0848 c -0.74888,-1.3479 -1.57131,-2.6523 -2.46465,-3.909 v 33.6426 h -2.02065 v -38.0688 h 2.84943 l 13.00203,21.2169 c 0.35607,-0.042 0.66445,-0.2679 0.80904,-0.5959 4.0413,-6.9915 8.32461,-13.7819 12.39622,-20.6723 z m 11.03267,0.022 h 22.63168 v 2.0207 h -20.57946 l -0.10261,15.4371 h 16.56973 v 2.1212 h -16.46712 v 16.4691 h 19.59873 l 0.20325,2.0207 h -21.8542 z m 30.86622,0.03 h 13.52691 c 3.64727,0 7.49661,0.8292 10.10325,3.5066 2.60664,2.6773 3.12372,5.8601 3.12372,9.2548 v 12.9624 h -0.11247 c 0.0704,2.8394 -0.79537,5.6229 -2.46464,7.9209 -2.42727,2.9301 -6.07798,4.5642 -9.88028,4.4241 h -14.29649 z m 32.91647,0 h 2.54555 c 0,12.6594 -0.20168,25.2579 -0.10064,38.0688 h -2.44491 z m 88.52383,0 h 12.42778 c 3.36439,0 7.07275,0.8492 9.57836,3.2639 3.57655,3.4755 3.89843,9.7893 1.57468,14.0024 -2.02065,3.3745 -5.3634,4.8506 -9.15212,5.2648 l 12.62907,16.5283 -3.17306,-0.1007 c -4.21306,-5.3749 -8.4269,-10.8411 -12.42779,-16.3171 h -9.43627 v 15.4272 h -2.02065 z m 65.83302,0 h 2.0206 v 25.1062 c -0.1301,2.3991 0.4165,4.7868 1.5766,6.8907 1.4328,2.2044 3.7008,3.729 6.283,4.2229 3.6739,0.9503 7.5781,0.3563 10.8018,-1.6457 2.6146,-1.9112 4.1064,-4.9984 3.9801,-8.2346 l -0.1105,-26.3395 h 2.1607 v 26.0968 c 0.1421,2.9811 -0.8506,5.9049 -2.7783,8.1833 h 0.032 c -2.1675,2.4332 -5.28,3.8139 -8.5385,3.7887 h -4.6274 c -2.4632,-0.025 -4.8352,-0.9313 -6.6874,-2.5554 -2.6727,-2.1279 -4.1948,-5.3856 -4.1123,-8.8009 z m 35.0179,0 h 12.2049 c 3.0367,-0.1134 5.996,0.9757 8.2345,3.031 4.9304,4.6273 4.2122,13.8815 -1.6477,17.2762 v -0.039 c -4.7385,3.0916 -11.4264,2.0193 -16.771,2.1608 v 15.439 l -2.0207,0.1007 z m -165.73274,0.045 c 0.39095,0 0.78009,0.015 1.17016,0.045 l 13.78147,37.978 h -2.64619 l 0.071,-0.1006 -4.79904,-13.2763 h -15.53967 l -4.79905,13.2763 -2.55541,0.1006 14.14455,-37.978 c 0.39007,-0.03 0.78118,-0.045 1.17214,-0.045 z m 107.7496,1.2886 a 11.770288,11.770288 0 0 0 -6.83746,2.5988 11.113577,11.113577 0 0 0 -3.76899,8.6371 v 9.9829 c 0,3.3947 -0.30214,6.3743 1.72861,9.4659 2.85922,4.314 9.18274,5.3444 13.76962,3.7986 a 10.365936,10.365936 0 0 0 7.13346,-9.5666 v -13.6808 a 10.911512,10.911512 0 0 0 -2.64816,-7.8201 11.164093,11.164093 0 0 0 -7.14134,-3.2935 h 0.1105 a 11.770288,11.770288 0 0 0 -2.34624,-0.1223 z m -40.48997,0.4381 v 18.5094 c 4.38484,-0.2122 8.99276,0.4346 13.26643,-0.4242 2.67737,-0.6466 5.14256,-1.9299 6.06195,-4.7083 h 0.14012 c 1.07094,-3.2129 1.07086,-7.9199 -1.5964,-10.4861 -2.14189,-2.1419 -5.56539,-2.8908 -8.56606,-2.8908 z m 100.78981,0.2683 v 18.3181 c 4.6273,-0.2122 10.4877,0.6166 14.7108,-1.4445 4.2232,-2.061 5.2436,-7.3058 3.7079,-11.3168 a 9.2747849,9.2747849 0 0 0 -8.1339,-5.5568 z m -222.1788,0.1263 v 33.9584 h 9.77964 c 2.98046,0 5.75925,-0.213 8.23454,-2.0719 a 10.184078,10.184078 0 0 0 3.59731,-8.1833 v -13.1342 c 0,-3.1017 -0.71788,-6.0012 -3.09214,-8.1734 -2.37427,-2.1722 -5.14162,-2.2946 -8.12208,-2.3956 z m 54.20236,1.3182 c -2.69754,6.2741 -4.86052,12.7517 -7.20447,19.1369 h 13.99458 z"
     id="path4462"
     inkscape:connector-curvature="0" />
  <path
     style="fill:#29353a;fill-opacity:1;stroke-width:1.00638819"
     d="m 1223.0996,1219.6094 0.01,551.3906 h 553.4033 v -551.3906 z m 98.3941,87.1332 h 347.426 v 119.9017 c -20.5001,0 -41.2016,0.2113 -61.8024,-1.0064 h -64.5701 c -7.5781,10.1544 -14.6516,19.987 -22.0284,29.5174 l -24.4973,31.772 c -0.4126,0.8253 -1.2271,-0.2027 -1.5391,-0.6153 l -39.5499,-51.5459 c -2.0128,-2.7675 -6.3607,-8.0511 -6.3607,-8.0511 h -66.4216 c -20.2888,0.4126 -40.1762,-10e-4 -60.6663,0.2104 z m 25.6236,36.7134 c -0.2113,18.1754 -10e-4,36.2301 -0.2123,54.4256 l 13.4958,0.051 V 1366.08 a 78.417764,78.417764 0 0 1 0.112,-8.4245 c 3.6432,13.4956 7.3959,26.7799 10.9484,40.2555 h 10.7597 c 3.5526,-13.395 7.507,-26.5775 10.8482,-39.9725 h 0.5131 c -0.2013,13.2943 0,26.5775 0,39.9725 l 13.9695,-0.1003 -0.1022,-54.2133 h -20.7214 c -1.4592,4.3376 -2.0729,8.7757 -3.5322,13.0831 -2.0128,7.6385 -3.623,15.4876 -6.0383,22.9248 l -9.319,-36.1494 c -6.944,0.2114 -13.8879,0.2114 -20.7213,0 z m 282.9267,0.1318 v 54.3449 h 13.0123 c -0.2113,-18.115 0,-36.1394 -0.1021,-54.3449 z m -17.4211,1.026 v 54.0226 c 4.3678,-0.2013 8.8464,-0.2009 13.3248,-0.1002 v -0.1121 l -0.112,-53.8103 z m -86.7007,0.029 c 0,3.0795 -0.3112,6.0386 -0.2005,9.1282 -0.07,14.8442 -0.3936,29.7089 0.1297,44.7745 h 0.071 c 4.2671,-0.2013 8.645,-0.1003 12.9121,-0.1003 v -20.802 c 0,-2.7675 0.312,-5.4343 2.5965,-7.3867 1.5599,-1.741 4.1654,-1.3287 6.2486,-1.3287 2.7072,0 4.4796,3.0192 4.4796,5.5351 v 24.0826 c 4.4684,-0.2013 8.9473,-0.2013 13.3151,0 v -27.2629 c 0,-3.4821 -1.2787,-7.6896 -4.2576,-9.944 -2.6669,-2.4555 -6.8245,-3.1701 -10.3469,-3.0191 a 16.746299,16.746299 0 0 0 -7.5577,2.0128 19.503802,19.503802 0 0 0 -4.9101,4.1965 c 0.2214,-6.5617 -6e-4,-13.2237 0.1101,-19.886 z m 62.4255,13.0378 c -4.9636,-0.069 -9.8427,1.2879 -14.058,3.9096 -2.8633,2.3931 -4.5064,5.9412 -4.4795,9.6727 h 12.0766 c 0.5234,-1.6605 1.0062,-3.1198 2.6064,-4.0255 3.1618,-1.68 7.0399,-1.1804 9.6727,1.2462 0.6036,1.2498 0.6036,2.7069 0,3.9567 -1.0064,1.2479 -3.1201,1.5593 -4.68,1.8713 -5.6157,0.8353 -11.4438,1.0061 -16.6468,3.9548 -2.411,1.6181 -4.032,4.174 -4.4678,7.0447 -0.3119,2.9085 -0.3121,6.3396 1.3484,8.8354 1.4777,2.2579 3.6779,3.9474 6.2408,4.7921 h 0.1003 c 3.7728,1.0391 7.7518,1.0733 11.542,0.1002 2.8078,-0.6239 4.8919,-2.2842 7.1764,-3.9548 l 0.4226,3.3298 c 4.4683,0.312 8.8365,9e-4 13.315,0.2122 -0.7874,-1.9964 -1.2461,-4.1073 -1.3583,-6.2505 -0.2012,-7.7996 0,-15.5975 -0.2024,-23.2963 -0.1711,-3.1149 -1.692,-6.0003 -4.1651,-7.9018 -3.2204,-2.6065 -7.9014,-3.1284 -11.8565,-3.3297 -0.859,-0.099 -1.7223,-0.1545 -2.5868,-0.1671 z m -84.6152,0.03 c -5.1489,0.015 -10.3042,0.8311 -14.3725,4.283 -3.3311,2.8279 -3.8337,7.6795 -2.6261,11.6246 a 10.245031,10.245031 0 0 0 6.5711,5.8575 c 4.5488,1.6202 9.399,2.0125 13.9479,3.5322 a 7.2359307,7.2359307 0 0 1 3.0192,2.2231 9.8122843,9.8122843 0 0 1 -1.0064,3.6442 c -1.9122,0.7045 -3.3299,1.508 -5.2521,1.4074 l -0.032,-0.1199 c -1.9121,0.2013 -3.3311,-0.7053 -5.0319,-1.3091 a 9.0574932,9.0574932 0 0 1 -1.7101,-4.2458 h -11.825 a 12.962279,12.962279 0 0 0 3.9351,9.3996 c 3.6432,3.1299 8.6945,4.3374 13.4447,4.4481 5.0319,0.2013 10.0653,-0.6138 14.4531,-3.4417 5.032,-3.0192 7.0436,-10.8088 3.7326,-15.7602 a 12.438957,12.438957 0 0 0 -7.0447,-4.7509 c -3.5324,-0.8051 -7.0441,-1.3073 -10.5061,-2.2231 a 8.3630854,8.3630854 0 0 1 -4.3479,-2.225 c -0.5032,-1.409 -0.5032,-2.9284 1.0064,-3.5323 a 9.0574932,9.0574932 0 0 1 8.8865,1.0064 l 1.0064,2.7283 h 11.4122 a 11.392314,11.392314 0 0 0 -4.9513,-9.4919 20.218338,20.218338 0 0 0 -10.5062,-3.0192 c -0.7321,-0.025 -1.4678,-0.037 -2.2034,-0.035 z m -73.3483,0.5445 c -4.8091,0.1127 -9.4335,0.9704 -13.6453,3.9292 a 13.354771,13.354771 0 0 0 -4.4678,9.1184 h 12.0766 c 0.7246,-1.6203 1.2476,-3.2406 3.1194,-4.0256 a 10.003498,10.003498 0 0 1 9.0575,0.8158 c 1.0064,2.1235 0.936,2.9387 0,5.032 -5.7163,2.1335 -12.2678,1.4195 -18.115,3.7543 a 11.180972,11.180972 0 0 0 -6.9641,6.278 14.240392,14.240392 0 0 0 0.8256,10.235 12.076658,12.076658 0 0 0 8.6349,5.4663 v 0.09 a 23.016097,23.016097 0 0 0 10.3961,-0.8157 c 2.2845,-0.7045 4.1556,-2.2232 6.2388,-3.6422 a 33.633492,33.633492 0 0 0 0.3125,3.4417 l 13.203,0.1003 a 25.159703,25.159703 0 0 1 -1.4585,-7.3966 v -20.6722 a 10.436245,10.436245 0 0 0 -4.4678,-8.6035 18.376647,18.376647 0 0 0 -9.8831,-3.0192 c -1.6354,-0.078 -3.2599,-0.124 -4.8628,-0.086 z m 49.0829,0 c -3.0304,0.037 -6.0604,0.8083 -8.2417,2.9897 a 11.664039,11.664039 0 0 0 -3.1096,4.4186 l 0.1003,-6.7832 c -4.096,0 -8.3031,-0.2021 -12.3991,0.2004 v 38.8482 h 12.2988 v -18.9602 c 0,-3.0796 0.9248,-5.948 3.4811,-7.7897 3.1801,-2.3549 7.1763,-2.0135 10.8698,-1.2285 v -11.5125 c -0.9788,-0.1258 -1.9894,-0.1952 -2.9996,-0.1828 z m 115.1116,21.6177 c -0.037,2.3548 -0.3753,4.6952 -1.0064,6.9641 -0.5503,1.7403 -1.8229,3.1596 -3.4929,3.8958 -3.0694,0.5133 -7.5963,-0.4478 -8.3872,-1.7631 -0.9026,-2.1129 -0.9257,-4.5957 1.3229,-5.714 h -0.01 c 3.4821,-1.9524 7.7895,-2.0141 11.5735,-3.3828 z m -157.4094,0.1219 c -0.2013,3.0191 0,7.2749 -2.457,9.5292 -2.0127,1.8417 -4.1051,1.5396 -6.6614,1.4289 a 4.1060636,4.1060636 0 0 1 -4.1061,-4.0942 v -0.1023 c -0.2013,-2.2543 2.0128,-4.0961 4.0255,-4.6094 h -0.02 c 3.0192,-0.8252 6.1491,-1.2364 9.2186,-2.1522 z m 7.206,209.2875 a 15.719783,15.719783 0 0 1 2.2545,3.08 c 9.7318,14.0894 19.8743,28.0782 29.5155,42.2683 13.3145,0.2113 26.4379,0 39.6619,0 l 31.7622,-45.2875 c 0.5133,1.5398 0.2122,3.3811 0.2122,5.1322 0,13.3145 -0.2129,26.8505 -0.1022,40.2555 h 121.2403 v 35.8683 h -347.426 v -35.9076 h 122.9818 z"
     id="path4292"
     inkscape:connector-curvature="0" />
  <path
     style="fill:#29353a;fill-opacity:1"
     d="M 32.699219,628.39062 V 1177.2793 H 581.58984 V 628.39062 Z M 161.875,781.02539 a 72.34,72.34 0 0 1 9.32422,0.625 c 16.3,2 32.08133,8.55922 41.86133,22.19922 5.19,7.13 7.12945,15.27945 7.93945,23.93945 -14.46,0 -28.92086,0.30141 -43.38086,-0.30859 8.66,2 16.80086,4.27992 24.13086,9.66992 a 45,45 0 0 1 17.51953,47.56055 44.25,44.25 0 0 1 -19.65039,26 c -11.21,7.13 -24.43852,9.7797 -37.47852,10.17968 -17.71998,-0.29998 -36.4607,-5.70156 -48.4707,-19.35156 -6.93,-7.63 -9.99984,-17.30828 -10.58984,-27.48828 14.46,0.1 28.92086,-0.10117 43.38086,0.29883 -8.16,-2.16 -15.80032,-3.68969 -22.82032,-8.67969 l 0.0195,-0.01 A 45.09,45.09 0 0 1 104.69922,817.19922 42.44,42.44 0 0 1 121,793.57031 72.34,72.34 0 0 1 161.875,781.02539 Z m 137.99609,0.041 a 63.26,63.26 0 0 1 45.65821,18.51367 65.35,65.35 0 0 1 19.15039,44.18945 v 75.87109 h -39.31055 l 0.21094,-11.20117 h -49.5 V 919.6406 H 237.2793 c 0.41,-26 -0.0995,-51.83117 0.31054,-77.70117 a 63.26,63.26 0 0 1 61.11719,-60.8457 63.26,63.26 0 0 1 1.16406,-0.0273 z M 382,783.08008 a 73.78,73.78 0 0 1 63,38.08984 c 13.19,-22.92 36.64023,-37.67984 63.24023,-38.08984 V 919.64062 H 382 Z m 99.28906,165.95117 c 7.05125,-0.12875 14.11688,2.0893 19.17188,6.7793 4.54,4.13 5.35859,9.18 6.80859,14.75 h -16 c -2.34,-7.54 -11.80859,-8.76125 -17.30859,-4.28125 -3.06,2.85 -1.84,6.93039 2,8.15039 8.46,2.34 16.90883,1.52031 24.54883,6.82031 8.55,5.8 9.16062,19.45 2.64062,27 l -0.58008,-0.01 a 28.48,28.48 0 0 1 -40.24023,1.4493 c -0.16,-0.15 -0.32071,-0.299 -0.4707,-0.459 -3.89,-4 -4.57969,-9.0005 -5.67969,-14.2305 H 471 c 1.85,3.4 2.57922,6.4893 6.69922,7.5293 4.43,0.82 11.76,1.0016 14,-3.81836 1.44,-2.68 -0.99938,-5.47141 -3.60938,-6.19141 -8.46,-2.27 -17.54054,-1.33961 -25.06054,-6.59961 -9.28,-6.49 -8.77008,-22.26984 -0.83008,-29.58984 5,-4.695 12.03859,-7.17008 19.08984,-7.29883 z m -146.14258,0.29883 a 91.53,91.53 0 0 1 1.9629,0.0801 l 28.08007,68.00002 -17.66992,-0.01 -4.10937,-10.1797 H 319.75 l -4.11914,10.1797 H 299 c 9,-22.42001 17.69,-45.26061 27,-67.89061 a 91.53,91.53 0 0 1 9.14648,-0.17969 z M 252.66016,951 l -0.0996,51.1191 h 28.61914 v 15.2715 h -44.5293 c 0,-22.09993 0.21,-44.19138 0,-66.19138 z m 150.45898,0.0312 c 2.0044,-0.01 4.0093,-0.0117 6.01367,0.004 2.6725,0.0208 5.34508,0.0733 8.01758,0.17578 7.85,0.2 14.25867,6.30961 15.88867,13.84961 1.63,6.41 -1.52937,11.60968 -6.10937,15.67968 3.06,2.55 6.42039,4.58042 8.15039,8.15039 5.5,11.29994 -2.75086,26.77994 -15.38086,27.99994 v 0.1 c -11.41,0.92 -22.99914,2e-4 -34.61914,0.4102 v -66.29098 c 6.01312,0.0562 12.02587,-0.0485 18.03906,-0.0781 z m 4.42188,13.81055 c -2.40625,10e-4 -4.82571,0.0781 -7.22071,0.0781 v 10.38086 c 4.69,0 9.56977,0.30922 14.25977,-0.30078 a 5.3,5.3 0 0 0 0.0996,-9.7793 c -2.34,-0.305 -4.73242,-0.38015 -7.13867,-0.3789 z M 331.68945,975.38086 325.36914,993 H 338 c -2.24,-5.8 -4.28055,-11.70914 -6.31055,-17.61914 z m 77.12305,14.01758 c -2.84,0.025 -5.69219,0.15156 -8.49219,0.10156 v 13.2402 c 5.7,0 11.71055,0.6099 17.31055,-0.4101 4.69,-2.24 4.68961,-10.68994 -0.40039,-12.41994 -2.75,-0.46 -5.57797,-0.53672 -8.41797,-0.51172 z"
     id="path4334"
     inkscape:connector-curvature="0" />
  <path
     style="fill:#29353a;fill-opacity:1"
     d="m 628.4707,626.39062 v 548.88868 h 549.8984 V 626.39062 Z m 228.39844,86.16016 c 21.8161,-0.86813 43.58821,2.59161 64.06055,10.17969 32.60329,12.32346 59.3768,36.46215 75,67.61914 8.91861,17.78248 14.54251,37.0333 16.59961,56.82031 1.0979,9.90648 1.4023,19.88487 0.9102,29.83985 -0.7687,15.82678 -3.7994,31.46199 -9,46.42968 -8.08901,23.70165 -21.90395,45.03992 -40.2188,62.1211 -17.6969,16.33115 -39.19027,27.98685 -62.53125,33.91015 -17.05954,4.29 -34.70456,5.7691 -52.24023,4.3789 -17.80554,-1.2801 -35.24742,-5.6804 -51.5293,-13 -18.82855,-8.5586 -35.59981,-21.06045 -49.17969,-36.66015 -34.57626,-43.78885 -45.02945,-88.74513 -36.16015,-139.63867 4.36043,-24.47045 14.56272,-47.52695 29.74023,-67.21094 11.85071,-15.12851 26.72761,-27.61795 43.67969,-36.66992 21.87589,-11.51211 46.15228,-17.71887 70.86914,-18.11914 z m 7.53906,44.47852 c -3.09487,-0.0782 -6.1917,0.008 -9.27734,0.25976 -18.53624,1.39329 -36.0705,8.95975 -49.80078,21.49024 -8.74573,8.00238 -16.01655,17.47995 -21.48047,28 -8.33672,16.02582 -13.26001,33.60615 -14.45899,51.63086 -0.7732,10.53288 -0.39794,21.11862 1.11915,31.57031 1.92466,13.43004 5.90829,26.48309 11.81054,38.69922 l -0.0801,0.0996 c 5.01933,10.41791 11.84488,19.86405 20.16016,27.90039 8.85095,8.57632 19.54226,15.01982 31.25977,18.83984 10.73081,3.35174 21.97249,4.76704 33.19922,4.17969 10.50254,-0.40164 20.84878,-2.67699 30.55078,-6.71875 14.44641,-6.30734 26.83272,-16.54242 35.75,-29.54102 11.30205,-16.80549 18.3918,-36.08509 20.66992,-56.20898 3.46,-26 -0.31094,-53.05125 -11.71094,-76.78125 -5.03457,-10.5641 -11.816,-20.20273 -20.05859,-28.50977 -8.95752,-9.1612 -19.9083,-16.13175 -32,-20.36914 -8.27501,-2.79021 -16.92236,-4.32097 -25.65235,-4.54101 z m 187.793,201.06445 c 4.1756,0.13295 8.328,0.67791 12.3965,1.62695 l -0.08,0.01 c 6.3683,1.46086 12.2159,4.63522 16.9102,9.17969 3.763,3.8295 6.4944,8.54992 7.9394,13.7207 1.8396,6.35008 2.3607,13.00937 1.5313,19.56831 -0.8961,5.8354 -2.7193,11.4901 -5.4004,16.75 -5.1249,9.6496 -11.5147,18.5721 -19,26.5313 -7.84,8.67 -16.3,16.8401 -24.75,24.9101 h 50.7109 c 0.8217,-0.049 1.6463,0.018 2.4493,0.1992 v 20.4805 c -1,0 -0.3104,0.709 -0.8204,0.709 h -85.7402 v -22.5996 c 2,-2 3.6712,-3.8304 5.7012,-5.6504 8.76,-8.07 17.2094,-16.1394 25.3594,-24.6094 7.84,-8.47 15.2695,-17.1494 20.7695,-27.4394 2.55,-4.74 4.4805,-9.8801 4.4805,-15.33008 0.018,-3.96351 -1.4725,-7.78543 -4.17,-10.68945 -3.7034,-3.65589 -8.5661,-5.90554 -13.75,-6.36133 -6.8725,-0.55027 -13.7782,0.52218 -20.1601,3.13086 -4.8665,1.97841 -9.5367,4.40898 -13.9492,7.25976 l -2,-22 c 10.9835,-5.47288 22.9741,-8.63125 35.2285,-9.27929 2.1107,-0.14475 4.2272,-0.18386 6.3418,-0.11719 z"
     id="path4395"
     inkscape:connector-curvature="0"
     sodipodi:nodetypes="cccccccccccccccccccccccccccccccccccccccccccccccccccscccccccccccccc" />
  <path
     style="fill:#29353a;fill-opacity:1;stroke-width:1.01002026"
     d="m 29.72,1218.13 0.01,554.3887 H 585.1307 V 1218.13 Z m 283.5731,128.5744 a 83.104466,83.104466 0 1 1 -83.0032,83.2063 v -0.071 a 83.104466,83.104466 0 0 1 83.0032,-83.1353 z m 3.1839,11.6409 a 72.075045,72.075045 0 0 0 -22.3743,2.4994 v 36.5126 l 36.6132,-36.9269 a 72.075045,72.075045 0 0 0 -14.2389,-2.0851 z m 25.9962,6.4586 -44.6421,45.0485 67.9831,67.8311 a 71.398331,71.398331 0 0 0 -23.341,-112.8796 z m -59.7235,0.6174 a 72.721458,72.721458 0 0 0 -16.9671,11.4121 l 16.9671,16.979 z m -25.5127,19.8454 a 71.418532,71.418532 0 0 0 -13.2605,62.7534 l 37.8441,-38.1579 z m 36.8262,36.775 v 76.6313 a 72.135646,72.135646 0 0 0 19.0287,2.5645 71.186227,71.186227 0 0 0 44.5414,-15.6237 z m -11.3135,3.9592 -33.733,34.0585 a 69.277288,69.277288 0 0 0 33.733,34.1494 z m -91.8959,141.9196 a 32.93676,32.93676 0 0 1 15.7816,4.0283 29.290587,29.290587 0 0 1 11.2108,11.3233 35.017402,35.017402 0 0 1 0,32.9065 29.149184,29.149184 0 0 1 -11.2108,11.3115 32.876159,32.876159 0 0 1 -31.573,0 29.290587,29.290587 0 0 1 -11.3115,-11.3115 35.017402,35.017402 0 0 1 0,-32.9065 h 0.059 a 29.45219,29.45219 0 0 1 11.2523,-11.3233 32.93676,32.93676 0 0 1 15.7914,-4.0283 z m 49.9309,1.9392 h 13.3729 l 9.5636,48.1358 12.3431,-48.0963 h 13.6748 l 12.3431,48.1377 9.5754,-48.1377 h 13.4736 L 309.9,1630.5813 h -15.3219 l -11.6251,-45.1985 -11.7258,45.159 H 256.006 Z m -148.3526,0.04 h 12.3431 v 26.8464 L 127.4,1569.8992 h 15.0181 l -26.3315,29.8252 26.3315,30.8569 H 127.4 l -22.6248,-27.9768 v 27.9768 H 92.4321 Z m 271.9084,0 h 14.2014 l 22.7255,60.6821 h -13.0908 l -4.3222,-12.3432 h -24.8875 l -4.4248,12.3432 h -13.1303 z m 56.289,0 h 12.3411 v 51.4203 h 21.5951 v 9.2618 h -33.9362 z m 71.0742,0 h 14.1402 l 22.836,60.6821 h -13.1303 l -4.3221,-12.3432 h -24.787 l -4.4227,12.3432 h -13.0593 z m -300.8441,9.4808 a 19.958,19.958 0 0 0 -9.6267,2.4579 16.92794,16.92794 0 0 0 -6.4842,7.2004 26.068622,26.068622 0 0 0 0,21.5951 16.867338,16.867338 0 0 0 6.4842,6.9892 v -0.051 a 19.958,19.958 0 0 0 19.1905,0 16.806737,16.806737 0 0 0 6.4841,-7.0702 26.149424,26.149424 0 0 0 0,-21.593 16.806737,16.806737 0 0 0 -6.4841,-7.0702 19.958,19.958 0 0 0 -9.5638,-2.4579 z m 180.4288,2.3258 -9.1494,26.2605 h 18.3006 z m 127.4341,0 -9.1494,26.2605 h 18.3106 z"
     id="path4389"
     inkscape:connector-curvature="0" />
  <path
     d="M632.47 633.49h540.74v535.64H632.47zm595.73 0H1773v535.64h-544.8zM35.72 35.72h541.76V578.5H35.72zm596.75 0h540.74V578.5H632.47zM35.72 633.49h541.76v535.64H35.72zm0 590.64h541.76v543.79H35.72zm596.75 0h540.74v543.79H632.47zm595.73 0H1773v543.79h-544.8zm0-1188.41H1773V578.5h-544.8z"
     fill="none"
     id="path3099" />
  <path
     inkscape:connector-curvature="0"
     style="fill:#29353a;stroke-width:1.05275595"
     d="M 1215.9608,619.2446 V 1188.13 H 1783 V 619.2446 Z m 106.3137,221.0233 c 7.1421,0 14.285,9e-4 21.3747,0 14.1793,0 28.3607,0.026 42.5279,0.035 v 2.6654 c -27.5297,-0.018 -55.0512,0.016 -82.5722,-0.019 0.01,27.6444 0.018,55.2971 -0.01,82.9413 -0.8923,0.018 -1.7923,0.046 -2.6846,0.064 -0.01,-25.4461 0,-50.9025 -0.01,-76.3488 0.01,-3.1565 -0.01,-6.1607 0.01,-9.2969 7.0814,-0.031 14.2223,-0.042 21.3644,-0.045 z m 134.3026,48.6101 v 0 c 5.277,0.1164 10.4731,2.2936 14.0345,6.3492 5.3362,5.812 6.1151,15.0536 2.336,21.8945 -3.368,6.5768 -11.0044,10.1727 -18.204,9.5833 -8.573,-0.4131 -16.2272,-6.8931 -17.5744,-15.5101 -1.7058,-9.3202 3.8137,-18.5452 12.7978,-21.3501 1.8021,-0.589 3.6762,-0.906 5.5539,-0.9627 0.3521,-0.013 0.7044,-0.015 1.0562,-0.011 z m 120.4897,0.011 c 5.1575,0.086 10.3418,2.1204 13.8109,5.941 6.6047,6.7001 6.7281,18.3253 0.6133,25.3945 -6.2374,7.3596 -17.7222,8.5884 -25.6653,3.3128 -6.6397,-4.3524 -9.6846,-12.8356 -7.6725,-20.5029 1.5046,-6.2428 6.4647,-11.3 12.527,-13.1991 1.7147,-0.5649 3.5253,-0.8739 5.355,-0.9359 0.343,-0.011 0.6878,-0.017 1.0316,-0.011 z m -76.8173,0.7607 c 3.4117,0.061 6.842,0.845 9.2127,3.4653 3.5692,4.238 3.1045,10.8942 -1.9955,13.7167 1.9245,0.9759 3.7357,1.6709 5.0391,3.4734 1.8983,2.295 1.8276,5.8467 1.1977,8.59 -1.2947,4.4051 -5.6495,6.7276 -9.9797,6.9737 -6.2023,0.2463 -12.4325,0.035 -18.6347,0.132 -0.026,-12.1164 -0.01,-24.2332 -0.016,-36.3407 5.065,0.026 10.1205,-0.028 15.1768,-0.011 z m -114.0806,0.011 c 1.6534,-0.011 3.3039,-0.011 4.9551,0 v 0 c 1.6511,0.01 3.3016,0.023 4.955,0.045 3.4992,7.9838 7.0493,15.9487 10.5397,23.9414 3.4204,-8.0191 7.0695,-15.9311 10.4987,-23.9414 3.3154,-0.053 6.6315,-0.053 9.9469,-0.035 0,12.1076 0.01,24.2147 -0.01,36.3222 -2.6681,-0.011 -5.3448,-0.018 -8.0129,0 -0.2187,-7.0694 0.5418,-14.3145 -0.5517,-21.3048 -2.4582,7.2981 -6.2726,14.1116 -9.1594,21.2513 -1.8546,0.026 -3.7081,0.036 -5.5539,0.054 -3.2455,-7.0869 -6.3868,-14.2096 -9.6148,-21.2965 -0.1136,7.0957 -0.053,14.1925 -0.062,21.2884 -2.6418,0 -5.2834,0 -7.9165,0.017 -0.035,-12.1164 -0.01,-24.2243 -0.016,-36.3408 z m 163.4463,0 c 1.4215,0.017 3.1334,0.048 4.8278,0.093 -4.1289,5.0381 -8.0755,10.215 -12.1783,15.2708 -0.6037,0.8353 -1.4937,1.6991 -1.7474,2.719 0.1312,0.9936 1.0666,1.837 1.6264,2.6284 4.2602,5.1701 8.4246,10.4267 12.7198,15.5616 -3.6216,0.071 -7.2441,0.089 -10.8657,-0.017 -3.8754,-5.1788 -8.1096,-10.0846 -11.8975,-15.3163 -0.1487,5.135 -0.051,10.2598 -0.094,15.3946 -2.7643,-0.01 -5.5311,-0.01 -8.3042,-0.033 0,-12.0811 -0.01,-24.173 0.011,-36.2541 2.7731,-0.043 5.5373,-0.061 8.3104,-0.043 0.035,5.6098 -0.077,11.2201 0.08,16.8212 4.094,-5.6977 8.4334,-11.2115 12.6849,-16.7862 1.6097,-0.026 3.2183,-0.045 4.8279,-0.039 z m 56.1707,0.01 c 2.7731,0 5.5455,-0.01 8.3185,0.019 -0.01,12.0812 0.011,24.1622 -0.017,36.2521 -2.7643,0.044 -5.5296,0.045 -8.2939,0.054 -0.026,-12.1076 -0.017,-24.2168 -0.01,-36.3242 z m 93.3477,0.1402 v 0 c 0.044,28.3916 -0.1785,57.5186 -0.013,85.9014 -2.5439,0.042 -4.7541,-0.085 -7.291,-0.068 -26.0339,-0.044 -52.1411,0.035 -78.175,-0.035 l -0.015,-2.5932 c 27.5998,-0.1409 55.2001,-0.07 82.7999,-0.035 0.061,-27.7147 -0.011,-55.4302 0.035,-83.1536 0.8835,0 1.7657,-0.01 2.6579,-0.019 z m -242.8887,6.8068 c -1.0428,-0.014 -2.0921,0.1199 -3.1113,0.4123 -7.287,1.9608 -9.9806,11.2201 -5.9128,17.287 3.1843,5.0909 10.4528,6.13 15.2117,2.7273 5.0038,-3.7545 5.9241,-11.6153 1.9525,-16.4337 -1.9486,-2.5586 -5.0118,-3.9507 -8.1401,-3.9929 z m 120.2148,0.015 c -1.4002,0.036 -2.7985,0.3375 -4.0998,0.9174 -6.5697,2.9455 -8.3185,11.7468 -4.0669,17.3653 3.5079,4.792 10.8379,5.4427 15.308,1.6883 4.8289,-3.9304 5.1799,-11.8603 1.1035,-16.4501 -2.075,-2.3879 -5.1644,-3.5997 -8.2448,-3.5209 z m -79.3645,0.054 c -1.2632,0.024 -2.5066,0.124 -3.5727,0.1176 -0.1838,2.3916 -0.078,4.8006 -0.086,7.1922 2.6506,-0.035 5.5635,0.343 8.1442,-0.2989 2.3357,-0.9144 2.4942,-3.8873 1.2695,-5.7513 -1.4872,-1.1432 -3.6497,-1.3004 -5.7549,-1.2596 z m 1.8458,14.2918 c -1.8152,-0.032 -3.6546,0.099 -5.3386,0.1055 -0.2886,2.5764 -0.1495,5.2134 -0.1579,7.7984 3.263,-0.1055 6.6934,0.2722 9.9039,-0.3257 3.0443,-0.9232 3.4974,-5.0641 0.7855,-6.6995 -1.5877,-0.6507 -3.3777,-0.8466 -5.1929,-0.8783 z"
     id="path2336" />
  <path
     class="b"
     d="M-19.27-19.27v1842.18h1842.18V-19.27zm1192.48 55V578.5H632.47V35.72zm-595.73 1133.4H35.72V633.49h541.76zm55-535.64h540.74v535.64H632.47zm595.73 0H1773v535.64h-544.8zM577.48 35.72V578.5H35.72V35.72zM35.72 1767.92v-543.79h541.76v543.79zm596.75 0v-543.79h540.74v543.79zm595.73 0v-543.79H1773v543.79zM1773 578.5h-544.8V35.72H1773z"
     id="path3101" />
</svg>
