<svg xmlns="http://www.w3.org/2000/svg" viewBox="0 0 1809 1809"><defs><style>.cls-1{fill:#29353a;}.cls-2{fill:#282828;}.cls-3{fill:none;}.cls-4{fill:#0c1516;}</style></defs><title>clients</title><g id="Layer_2" data-name="Layer 2"><g id="Layer_1-2" data-name="Layer 1"><path class="cls-1" d="M1518.43,344.26c-.16.05-4.68,9.94-4.68,10.23,0,.05,2.09.09,4.65.09,4.33,0,4.63,0,4.5-.4C1522.14,352.11,1518.58,344.21,1518.43,344.26Z"/><path class="cls-1" d="M1220,54V594h540V54Zm170.62,359h-23.84l-3.25-6.62c-1.79-3.58-3.25-6.61-3.25-6.68s7.26-.14,16.14-.14c9.41,0,16.15-.1,16.15-.22s-5.81-11.77-12.92-25.9l-12.9-25.7,12.9-25.66c7.11-14.12,12.92-25.77,12.92-25.9s-2.77-.22-8.8-.18l-8.92.06-29.32,58.47L1316.21,413h-48.07l16.44-32.75L1301,347.51l-16.46-32.76L1268.12,282H1316l3.26,6.5c1.79,3.58,3.25,6.6,3.25,6.73s-5.47.22-16.17.22c-8.89,0-16.17.05-16.17.13s5.81,11.72,12.9,25.88l12.91,25.76-13,25.89-13,25.89,8.91,1,8.82-.06,21.9-43.63c12-24,25.38-50.53,29.65-59l7.75-15.34h23.62c17,0,23.78.05,23.78.23s-7.34,14.84-16.3,32.69l-16.29,32.45,16.4,32.81L1414.51,413Zm82.29-70.82c-.09,15-.09,14.94-1.72,18.27-2.34,4.79-7.5,7-14.69,6.32a20.46,20.46,0,0,1-5.7-1.37l-.8-.44v-7l1.45.65a15,15,0,0,0,6.81,1.29,6,6,0,0,0,3.27-.73,6,6,0,0,0,2.92-3.36c.48-1.13.48-1.36.55-14l.06-12.85H1473ZM1532.33,367h-4.2l-1.28-3.9-1.29-3.1h-14.39l-1.34,3-1.33,3h-4.14c-2.28,0-4.14.1-4.14,0s16.49-35.51,17.29-37.09c.46-.93.63-1,1.13-1s1.23,1.51,9.24,19c4.75,10.39,8.65,19,8.65,19.12A42.14,42.14,0,0,1,1532.33,367ZM1595,355.81v8.89l-1.81.57a32.44,32.44,0,0,1-10.19,1.39,34.42,34.42,0,0,1-6-.22,18.3,18.3,0,0,1-10.84-6,21.33,21.33,0,0,1-3.48-7.3,25.85,25.85,0,0,1,0-10.33,19,19,0,0,1,15.15-14.41c4-.83,11.55-.26,14.81,1.15l1.4.46v3.64c0,2.83-.39,3.61-.61,3.52a22.88,22.88,0,0,0-9.77-2.18c-4,0-6.83,1.05-9.26,3.47a13.26,13.26,0,0,0-3.28,5.87,20.33,20.33,0,0,0,.2,7.79,10.44,10.44,0,0,0,9.24,7.89,13.21,13.21,0,0,0,5.5-.46l0-.24V346h9Zm59,7.18v3h-28V329h26v6h-17v9h16v5h-16l1,5.32.06,5.16,9,.16,9,.16Zm60.16,3h-4.57l-4.62-8.64c-2.54-4.86-4.68-8.89-4.75-9s-2.26,3.9-4.87,8.83l-4.74,9.77-4.48.06c-3.24.05-4.6,0-4.6-.19s2.54-4.69,5.65-10.1,5.6-10,5.54-10.12-2.45-4.35-5.3-9.31-5.19-9.1-5.19-9.21a28.29,28.29,0,0,1,4.64-.13l4.3.06,2.93,5.59c1.61,3.08,3.63,6.91,4.47,8.51l1.54,2.93,4.29-8.29c2.36-4.55,4.39-8.41,4.51-8.56.3-.38,9.07-.42,9.07-.05,0,.13-2.27,4.14-5,8.91s-5.09,8.85-5.14,9.07,1.8,3.82,6.69,12.13c3,5,4.18,7.22,4.18,7.5S1717.44,366.05,1714.16,366Z"/><path class="cls-1" d="M631,594h540V54H631Zm448-286h11v23h11V308h11v56h-11V342h-11v22h-11Zm-54,11.53L1036.13,308H1059v11h-23v34h23v11h-22.86L1025,353.08ZM971,308h33v11H993v45H981V319H971Zm-57,11h.79L926,308h23v11H927v12h16v11H927v11h22v11H926l-11.2-11H914Zm-51,.53L873.84,308H896v11H874v12h17v11H874v22H863ZM805,308h22.13L838,319.53V331H827.13L838,341.92V364H826V342H816v22H805Zm-58,11.53L757.89,308H769l11,11.53V364H768V342H758v22H747ZM693,319h-.07L704,308.32V308h22v11H704v12h17v11H704v22H693Z"/><rect class="cls-1" x="758" y="319" width="10" height="12"/><rect class="cls-1" x="816" y="319" width="10" height="12"/><path class="cls-1" d="M349.89,352s.66-15.78-18.15-20.53c0,0,10.7-4.83,10.61-16.93,0,0,1.63-19.52-24.66-22.52H288v83h34S349.89,375.55,349.89,352ZM304,305h11.25c12.39,2,11.92,10.12,11.92,10.12,0,11.45-13.69,11.88-13.69,11.88H304Zm15,58H304V341h15c16.12,0,15.65,10.54,15.65,10.54C334.62,364.11,319,363,319,363Z"/><path class="cls-1" d="M208.29,352s.65-15.78-18.16-20.53c0,0,10.71-4.83,10.62-16.93,0,0,1.63-19.52-24.66-22.52H147v83h33.35S208.29,375.55,208.29,352ZM162,305h11.65c12.38,2,11.92,10.12,11.92,10.12,0,11.45-13.69,11.88-13.69,11.88H162Zm15.37,58H162V341h15.37c16.11,0,15.65,10.54,15.65,10.54C193,364.11,177.37,363,177.37,363Z"/><path class="cls-1" d="M589,51H50V591H589ZM238,392H115V276H238Zm141,0H257V276H379Zm141,0H398V276H520Z"/><path class="cls-1" d="M441.69,372.75C470.93,384.29,496,369.3,496,369.3V353.37c-18,12-32.52,10.34-32.52,10.34-33.06-1.58-31.86-29.4-31.86-29.4,1.4-30.25,32.56-29.64,32.56-29.64,16.58.18,31.82,9.4,31.82,9.4V298.71a83.09,83.09,0,0,0-23.2-6.61c-15.75-1.5-24.6,1.86-24.6,1.86-32.78,10.06-31.89,40.35-31.89,40.35C417.24,363.76,441.69,372.75,441.69,372.75Z"/><path class="cls-1" d="M839.1,1665c-3.37,0-6.74,0-10.11,0,0,10.93.07,21.86,0,32.78,3.18.15,6.37,0,9.55.08,2.83,0,5.57-.28,7.89-2a9.75,9.75,0,0,0,3.57-7.93V1675.2c0-3-.7-5.85-3-7.88S841.92,1665.06,839.1,1665Z"/><path class="cls-1" d="M638,1758h538V1220H638Zm150.9-58.09-2.26,0c-.06-11,.12-22.08-.1-33.12-3.94,7-8.32,13.8-12.31,20.8l-1.87.14c-3.28-5.57-6.67-11.08-10-16.61a21,21,0,0,0-2.57-3.87c0,10.87,0,21.78,0,32.66h-2.26c0-12.34.05-24.68,0-37,.9,0,1.82-.05,2.73-.05,4.25,7.12,8.59,14.19,12.86,21.3a1,1,0,0,0,.74-.57c4-6.94,8.23-13.79,12.26-20.73.95,0,1.9,0,2.85.05C788.84,1675.24,788.92,1687.57,788.9,1699.91Zm-2.59-54.58a16.58,16.58,0,0,1-9.31,4.11c-4.83.48-9.7,0-14-2.48a12.35,12.35,0,0,1-5.95-7.7c2.22-1,4.51-1.84,6.77-2.72.55.28.84,1.21,1.23,1.7,3,4.88,10.62,5.86,15.21,2.87a4.57,4.57,0,0,0-.26-7.6c-4.76-2.8-12.32-2.37-16.92-6-3.64-2.75-4.34-8.48-3-12.55,1.68-4.92,6.49-7.56,11.39-8.25,4.59-.41,9.48-.23,13.33,2.63,2.11,1.47,3.2,3.51,4.42,5.7-1.48.8-3,1.42-4.56,2.12-.58.17-1.5.87-2.07.6-1.09-1.46-2-2.83-3.8-3.58-2.77-1.2-6.45-1.46-9.17,0-2.45,1.3-3.33,4.82-1.31,6.88,1.78,1.81,4.93,2.36,7.32,3,4.24,1.18,8.27,1.4,11.5,4.76C791.21,1633.27,790.88,1641.34,786.31,1645.33ZM815,1679.55v2.15c-5,0-10.59,0-15.91,0,0,5.38,0,10.76,0,16.13,6.67,0,13.35.07,20,0,0,.71.07,2.18.09,2.18H796.89c.05-11-.11-24.8.08-37.11,7.39,0,14.79,0,22.18-.06,0,.71.05,1.42.07,2.13-6.69,0-13.38,0-20.07,0,0,4.88-.06,9.75-.06,14.63C804.41,1679.57,810,1679.59,815,1679.55Zm3.91-31.19c-6.25,2.44-14.36,1.65-19.62-2.69a13.13,13.13,0,0,1-4.67-10.26c0-4.63,0-9.26,0-13.88a14.46,14.46,0,0,1,3.8-9.92c3.26-3.55,8.21-5.13,12.94-5,5.13-.08,10.6,1.49,13.67,5.8,1.93,2.69,2.28,6.62,2.33,8.62h-7.47c-.23,0-.29-3-1.41-4.49-2.14-3-6.69-3.71-10.05-2.71a7.64,7.64,0,0,0-5.93,7c-.08,4.63,0,9.31,0,13.93a7.36,7.36,0,0,0,2.93,6c3.51,2.51,8.91,2.7,12.23-.25,1.77-1.63,2.08-3.69,2.24-6,2.51,0,5,0,7.5,0a22.6,22.6,0,0,1-.71,5.73A13.05,13.05,0,0,1,818.91,1648.36Zm33.44,39.5a12.62,12.62,0,0,1-2.44,7.79,11.89,11.89,0,0,1-9.6,4.28c-4.53,0-9.07,0-13.61,0,.08-12.34,0-24.69.06-37,4.31,0,8.63,0,13,0,3.43,0,7.18.76,9.62,3.35s3,5.68,3,9C852.35,1679.42,852.39,1683.64,852.35,1687.86Zm6.65,12.08v-37.09l2.49,0c0,12.35-.16,24.7-.09,37.05C860.64,1699.89,859,1699.92,859,1699.94Zm6.58-50.94c-2.58,0-5.16,0-7.74,0-.11-5.93,0-11.88-.05-17.82H841.36c0,5.91-.06,11.82,0,17.72-2.67.14-5.36,0-8,.07,0-13.93-.1-27.89.06-41.81,2.64.1,5.28,0,7.92,0,0,5.68,0,11.35,0,17h16.43c0-5.68,0-11.36,0-17h7.81C865.62,1621.13,865.68,1635.07,865.58,1649Zm28.69,50.81c-1.43-4.36-3.13-8.67-4.68-13-5.07,0-10.13,0-15.2,0-1.53,4.37-3.19,8.7-4.71,13.06l-2.47.06c4.56-12.3,9.27-24.93,13.85-37.21a16.33,16.33,0,0,1,2.32,0c4.39,12.43,9.08,24.78,13.5,37.22C896,1699.93,895.14,1699.88,894.27,1699.81Zm-19.58-92.6c2.65,0,5.29,0,7.95,0,.09,13.9,0,27.81.06,41.7-2.66.16-5.32,0-8,.11C874.62,1635.07,874.69,1621.13,874.69,1607.21Zm17,41.68c.13-13.88,0-27.77.07-41.66,5.36,0,10.74,0,16.12,0,4.85-.12,10.72.5,13.37,5.2a12.31,12.31,0,0,1,.84,8.82,9.12,9.12,0,0,1-5.14,5.54c1.93.94,3.72,1.81,5,3.65,3.16,4.55,2.45,11.73-1.87,15.35a14.09,14.09,0,0,1-9.74,3.21C904.06,1648.91,897.86,1649.07,891.66,1648.89Zm41.44,48.92a11.32,11.32,0,0,1-6.72,2.19h-4.72a10.86,10.86,0,0,1-8.47-3.92c-2.07-2.39-2.66-5.25-2.65-8.35.06-4.62,0-9.18.06-13.8a12.2,12.2,0,0,1,7.56-10.75c5.23-2.19,12.75-1.32,16.45,3.33,2.1,2.53,2.11,5.4,2,8.54l-2.42,0c.18-3.26,0-6.22-2.73-8.42-3.56-2.75-9.81-3-13.66-.72a10.13,10.13,0,0,0-4.86,8.7c0,4.43,0,8.86,0,13.27a10.18,10.18,0,0,0,3.91,8.48c3.21,2.29,7.68,2.52,11.4,1.57a8,8,0,0,0,6-5.82c.46-2.83.1-5.81.27-8.68-3.53-.16-7.58,0-10.58-.07V1681h12.79c0,3,0,6.44,0,9.71A8.58,8.58,0,0,1,933.1,1697.81Zm-.23-50.68a13.87,13.87,0,0,1-6.38-7.88c2.4-.91,4.78-1.87,7.16-2.8,2.59,6.22,10.6,8.06,16.13,4.72a4.64,4.64,0,0,0,1.53-5.85,6.53,6.53,0,0,0-3.34-2.66c-4.55-1.74-10.47-2-14.58-4.63-4.4-2.71-5.17-9-3.5-13.45,1.83-4.65,6.37-7.1,11.11-7.82,3.74-.37,8.1-.3,11.52,1.43a13.63,13.63,0,0,1,6.36,7c-2.15,1-4.32,1.9-6.46,2.89a13.8,13.8,0,0,0-2.56-3,11.14,11.14,0,0,0-8.56-1.61,5.21,5.21,0,0,0-4.35,3.84,4.2,4.2,0,0,0,2.31,4.77c4.72,2.47,10.9,2.26,15.46,5s5.74,8.87,4.2,13.62c-1.7,4.89-6.37,7.68-11.26,8.56S937.27,1649.62,932.87,1647.13Zm34.2,52.8c-4-5.15-7.92-10.31-11.82-15.49-2.81-.1-5.63,0-8.44-.09-.14,5.17-.07,10.36,0,15.54h-2.48c.09-12.34,0-24.69.06-37,3.91,0,7.83,0,11.75,0,3.27,0,6.75.77,9.15,3.14,3.4,3.29,3.68,9.23,1.48,13.23-1.88,3.23-5.14,4.6-8.69,5.13q6,7.8,12,15.59Zm7-86c-4,0-7.94.11-11.91,0,.12-2.22,0-4.45.09-6.68,10.57-.08,21.19,0,31.76,0,0,2.27.05,4.54,0,6.81-4-.06-8,0-12,0,0,11.66.05,23.34-.06,35-2.57,0-5.16,0-7.74,0C974.08,1637.32,974.27,1625.64,974.12,1614Zm27,73.32a13.05,13.05,0,0,1-3.27,9,11,11,0,0,1-8.17,3.77h-4.56a10.75,10.75,0,0,1-7.86-3.45,10.42,10.42,0,0,1-3.12-7.61c0-4.82,0-9.58,0-14.41a12.32,12.32,0,0,1,4.69-9.75c3.26-2.55,7.61-3.08,11.61-2.53,3.53.53,6.93,2.16,8.86,5.29,1.59,2.49,1.83,5.38,1.84,8.26C1001.14,1679.62,1001.19,1683.45,1001.15,1687.28Zm23.85-63V1632h-18.56v10.44c7.09,0,14.18-.22,21.26-.19,0,2.29,0,4.46,0,6.75-9.77.12-19.57.08-29.34,0,.12-13.88,0-27.81.06-41.69,9.67-.08,19.35,0,29-.08.11,2.34.12,4.68,0,7-7-.11-14,0-21,0,0,3.36-.07,6.73-.06,10.09C1012.61,1624.26,1020,1624.23,1025,1624.25Zm7.31,72.06a11.08,11.08,0,0,1-8.24,3.69h-4.56a10,10,0,0,1-6.45-2.46,10.72,10.72,0,0,1-4.07-8.6c0-8.74,0-17.42,0-26.15.75,0,1.5,0,2.25,0q0,12.21,0,24.45a12.65,12.65,0,0,0,1.53,6.64,9.16,9.16,0,0,0,6,4.14,13,13,0,0,0,10.31-1.62,9.48,9.48,0,0,0,3.73-8c0-8.51.05-17-.06-25.56l2.31-.08c0,8.55,0,17,0,25.51A11.56,11.56,0,0,1,1032.31,1696.31Zm29-13.56c-4.56,3-11.06,1.89-16.28,2.1,0,5,0,10,0,15-.77,0-1.53,0-2.29.06q0-18.56,0-37.1c4.07,0,8.14,0,12.22,0a11.68,11.68,0,0,1,8,3.1C1067.67,1670.43,1067,1679.38,1061.32,1682.75Zm4.68-46.86a11.71,11.71,0,0,1-3.5,7.87,16.59,16.59,0,0,1-12.44,5.22c-5.5-.06-10.94.09-16.43-.08.11-13.9,0-27.81.1-41.71,5.47,0,11,0,16.42,0a17.51,17.51,0,0,1,10.25,3.25,12.59,12.59,0,0,1,5.6,10ZM757,1280h309v199.64c-11,.06-24.37-.05-36.66,0,.18-3.38,1-6.72,1.11-10.11.8-11.29-1.29-23.17-4.08-34.08-5.43-20.35-13.74-40.16-23-59q-4.07-8.36-8.09-16.71c-4-8.34-8.72-17.38-10.54-26.47-1-5.19-1.39-11.15,1.28-15.93,3.89-7.91,16.38-8.62,21.43-1.6,3.84,5.55,3.79,12.45,4.18,18.9h17.45c0-9.65,0-19.31,0-29a99.77,99.77,0,0,0-23.46-5.26c-13-1.18-26.47-.94-39.3,1.71s-25.51,8-34.79,17.35A52.81,52.81,0,0,0,917,1347.16a74.37,74.37,0,0,0,.07,28.94c1.87,9.24,5.3,18.38,9.07,27,7.48,17.07,17,34.09,22.93,51.7a97.76,97.76,0,0,1,5.24,24.87c-7.71,0-15.42,0-23.12,0-1.13-10.27-4-20.37-9.79-29a51.52,51.52,0,0,0-23.18-19,69.08,69.08,0,0,0-63.74,6.19A57.34,57.34,0,0,0,813.57,1464a69.19,69.19,0,0,0-4.54,29.12c.53,13.46,4,26.72,11.21,38.17a69.91,69.91,0,0,0,30.44,26.22c14.1,6.51,30.27,9.12,45.71,9.18a171.85,171.85,0,0,0,45.82-5.47c18.95-5,37.36-13.4,52.68-25.7,13.43-10.78,24.08-24.45,30.29-40.62,13.67.06,27.82,0,40.82,0v93c-103,0-207,0-309,0Zm197,214.9a64.6,64.6,0,0,1-6.25,21.19,58.4,58.4,0,0,1-22,23.89,66.65,66.65,0,0,1-36,9.48c-13.49,0-27.61-3.2-38.89-10.85a54.7,54.7,0,0,1-23.93-47.93,39.17,39.17,0,0,1,4.8-17A26,26,0,0,1,845.41,1462a31.63,31.63,0,0,1,20.12,0,26.25,26.25,0,0,1,13.93,10.54c4.33,6.39,5.71,14.67,5.75,22.25C908.12,1495,931.07,1494.86,954,1494.9Z"/><path class="cls-1" d="M1052,1614.49c-3.33-.6-6.88-.26-10.26-.35V1642c3.22-.07,6.46.16,9.66-.12,3.54-.51,6.73-2.75,7.17-6.51.13-4.62,0-9.26,0-13.87C1058.52,1617.76,1055.44,1615.22,1052,1614.49Z"/><path class="cls-1" d="M1055,1665c-3.32-.11-6.65,0-10,0q0,8.9,0,17.78c4.46-.17,10.17.65,14.25-1.39s5.19-7.11,3.67-11.08A8.91,8.91,0,0,0,1055,1665Z"/><path class="cls-1" d="M964.93,1677.51c1.14-3,1-7.36-1.43-9.76-2-2.1-5.19-2.72-8-2.79s-5.82,0-8.74,0c0,5.79-.08,11.6.07,17.38,4.07-.24,8.36.33,12.36-.45C961.69,1681.3,964,1680.06,964.93,1677.51Z"/><path class="cls-1" d="M899.55,1624.39c3.88-.18,8.08.48,11.84-.49,3.58-1,4.55-6,1.91-8.44-1.58-1.35-3.46-1.46-5.45-1.48-2.79,0-5.57,0-8.34.08C899.61,1617.5,899.53,1621,899.55,1624.39Z"/><path class="cls-1" d="M989.26,1664.44a11.62,11.62,0,0,0-9,2.37,10.85,10.85,0,0,0-3.67,8.39c0,3.22,0,6.43,0,9.65s-.28,6.28,1.66,9.2c2.81,4.27,9,5.2,13.53,3.73a10.13,10.13,0,0,0,6.94-9.32c.1-4.42,0-8.84,0-13.27,0-2.76-.5-5.53-2.5-7.58A11,11,0,0,0,989.26,1664.44Z"/><path class="cls-1" d="M914,1632.22c-1.81-1.22-4.09-1.23-6.18-1.2-2.76,0-5.51-.06-8.25,0-.14,3.7,0,7.41-.07,11.1,3.37.07,6.75,0,10.12,0,2,0,4.35-.75,5.45-2.55C916.46,1637.38,916.25,1633.88,914,1632.22Z"/><path class="cls-1" d="M875.2,1684.7c4.54,0,9.08,0,13.63,0-2.14-6.24-4.49-12.4-6.64-18.62C879.64,1672.2,877.49,1678.51,875.2,1684.7Z"/><path class="cls-1" d="M1516,1394.16c4.14-.17,8.26-.09,12.4-.08q0-10.15,0-20.3c.08-2.72.32-5.29,2.55-7.15,1.44-1.78,3.89-1.3,5.93-1.32,2.61,0,4.31,3.07,4.36,5.38.08,7.82,0,15.66,0,23.48,4.16-.18,8.32-.16,12.48-.05q0-13.24,0-26.51c-.06-3.41-1.22-7.56-4-9.76-2.52-2.34-6.42-3.08-9.75-3a15.25,15.25,0,0,0-7.12,2,18.52,18.52,0,0,0-4.51,4.15c.16-6.45,0-12.9.09-19.36-4.14,0-8.25,0-12.38,0,0,2.94-.31,5.86-.26,8.81C1515.81,1365,1515.55,1379.55,1516,1394.16Z"/><path class="cls-1" d="M1629.77,1394.13c-.14-17.54,0-35.1-.09-52.65-4.18.16-8.35,0-12.53.11,0,17.49,0,35,0,52.47C1621.37,1394.06,1625.57,1394,1629.77,1394.13Z"/><path class="cls-1" d="M1493.59,1387.09c-1.86.08-3.25-.74-4.91-1.43a8.93,8.93,0,0,1-1.74-4.13c-3.92-.08-7.84,0-11.76-.09a12.85,12.85,0,0,0,3.91,9.36c3.61,3.1,8.61,4.31,13.27,4.36,5,.21,10.06-.51,14.32-3.33,5-3.07,7.1-10.7,3.69-15.62a12.31,12.31,0,0,0-7-4.73c-3.43-.8-6.94-1.27-10.35-2.13a8.31,8.31,0,0,1-4.35-2.25c-.48-1.36-.45-2.86,1.09-3.46a8.94,8.94,0,0,1,8.77.92c.31.91.64,1.8,1,2.7,3.76,0,7.5-.07,11.26,0a11.28,11.28,0,0,0-4.88-9.38c-2.84-2.13-6.92-2.76-10.37-3-5.8-.21-11.86.29-16.45,4.23-3.31,2.82-3.84,7.55-2.56,11.5,1.14,3,3.59,4.76,6.5,5.83,4.45,1.57,9.27,2,13.77,3.49a7.08,7.08,0,0,1,2.91,2.21,9.59,9.59,0,0,1-1,3.59C1496.91,1386.4,1495.46,1387.19,1493.59,1387.09Z"/><path class="cls-1" d="M1446.55,1394.12c4.2-.09,8.39-.08,12.59-.06,0-6.14,0-12.28,0-18.42,0-3,.86-5.86,3.35-7.63,3.12-2.35,7-2.06,10.64-1.18.08-3.83,0-7.65,0-11.47-3.88-.44-8.31-.06-11.26,2.8a11.56,11.56,0,0,0-3.1,4.42q0-3.28.13-6.55c-4.14,0-8.33-.19-12.45.14C1446.58,1368.82,1446.44,1381.47,1446.55,1394.12Z"/><path class="cls-1" d="M1564.46,1394.41a21.58,21.58,0,0,0,11.14.11c2.69-.65,4.74-2.2,6.9-3.83.15,1.07.29,2.15.44,3.23,4.23.28,8.5,0,12.74.2a19.11,19.11,0,0,1-1.33-6.1c-.14-7.42.09-14.86-.2-22.28a10.33,10.33,0,0,0-4-7.6c-3.08-2.51-7.54-3.09-11.37-3.28-5.5-.23-11.35.32-15.94,3.64a12.08,12.08,0,0,0-4.35,9.27c3.88,0,7.76,0,11.64,0,.44-1.59.91-3,2.43-3.86a8.1,8.1,0,0,1,9.33,1.19,4.44,4.44,0,0,1,0,3.8c-.94,1.24-3,1.53-4.48,1.8-5.45.79-11,1-15.92,3.8a10,10,0,0,0-4.44,6.82c-.29,2.77-.22,6.12,1.39,8.51A11.45,11.45,0,0,0,1564.46,1394.41Zm6.63-14.74c3.38-1.84,7.64-2,11.3-3.24a26.91,26.91,0,0,1-.9,6.81A6.15,6.15,0,0,1,1578,1387c-3,.46-5.85.77-8.16-1.5C1569.67,1383.32,1569,1381.22,1571.09,1379.67Z"/><path class="cls-1" d="M1612.45,1394.08c0-17.51.06-35-.06-52.53q-6.2.06-12.42,0,0,26.32,0,52.64C1604.14,1394,1608.29,1394,1612.45,1394.08Z"/><path class="cls-1" d="M1220,1758h540V1220H1220Zm96-453h339v117c-20-.07-40.16.17-60.33-.17-21,0-42,0-63,0-7.4,9.12-14.24,18.67-21.52,27.89-7.87,10.37-16,20.78-23.84,31.14-.37.73-1.23-.29-1.48-.65-12.87-16.82-25.68-33.55-38.61-50.33-2.09-2.68-4-5.47-6.24-8h-64.8c-19.74.4-39.15.06-59.15.2Zm0,320c40,0,79.62,0,119.5,0,0-14.75,0-29.51-.12-44.26a15.25,15.25,0,0,1,2.24,2.88c9.51,13.82,19.35,27.44,28.81,41.29,12.88.22,25.78.08,38.67.07,10.32-14.77,20.76-29.54,31.05-44.31.48,1.54.11,3.36.16,5,0,13.11-.26,26.23-.14,39.33,39.67,0,78.83,0,118.83,0v35H1316Z"/><path class="cls-1" d="M1413.3,1394.93a21.54,21.54,0,0,0,9.93-.74c2.27-.68,4.1-2.21,6-3.57.13,1.14.27,2.28.41,3.41,4.21,0,8.42,0,12.64.1a25.38,25.38,0,0,1-1.35-7.37c0-6.78.07-13.59-.07-20.37a10.38,10.38,0,0,0-4.31-8.48c-2.69-2.14-6.1-2.58-9.41-2.94-6.38-.42-12.48-.17-17.83,3.74-2.79,2.33-3.87,5.54-4.32,9.06,3.85,0,7.71,0,11.57,0,.72-1.69,1.26-3.23,3-4.16a9.39,9.39,0,0,1,8.77.92c.93,2.09.87,2.84,0,4.94-5.52,2.13-11.85,1.46-17.44,3.7a10.9,10.9,0,0,0-6.65,6.26,14.39,14.39,0,0,0,.8,10.07A11.56,11.56,0,0,0,1413.3,1394.93Zm6.72-16.29c3-.85,6.07-1.29,9.06-2.16-.29,3-.13,7.14-2.5,9.33-1.93,1.82-4.06,1.52-6.52,1.44a4.06,4.06,0,0,1-4-4.17C1415.91,1380.89,1418.09,1379.16,1420,1378.64Z"/><path class="cls-1" d="M1354.32,1394.1c0-10.47,0-20.94,0-31.42a75.88,75.88,0,0,1,.09-8.26c3.59,13.27,7.3,26.37,10.84,39.64,3.51,0,7,0,10.53,0,3.54-13.14,7.39-26.21,10.75-39.39l.46,0c-.19,13.14,0,26.28-.07,39.43,4.28-.15,8.56-.11,12.84-.12-.06-17.48.09-35-.08-52.48-6.64,0-13.27.06-19.91,0-1.51,4.17-2.15,8.49-3.43,12.74-2.09,7.33-3.51,14.89-5.84,22.15-3-11.62-6-23.28-9-34.92-6.68.11-13.41.12-20.09,0-.15,17.52,0,35.07-.07,52.59C1345.68,1394,1350,1394.06,1354.32,1394.1Z"/><path class="cls-1" d="M53,1175H592V636H53Zm379.86-157.45c-11.21.92-22.61.06-33.88.44,0-21.71.06-43.43,0-65.14,10.46.16,20.95-.25,31.41.15,7.74.16,14.06,6.22,15.63,13.61,1.58,6.26-1.51,11.36-6,15.44,3,2.45,6.28,4.41,8,8C453.39,1001.11,445.34,1016.29,432.86,1017.55Zm82.13-8c-10,11.79-30.33,12.38-40.95,1.1-3.91-4.11-4.6-9-5.75-14.3,5.06,0,10.12-.07,15.16,0,1.84,3.21,2.55,6.29,6.57,7.28,4.23.82,11.36.88,13.54-3.77,1.44-2.57-1-5.29-3.48-6-8.18-2.2-17-1.24-24.32-6.39-8.94-6.23-8.46-21.61-.77-28.68,9.7-9.09,27.29-9.61,37.12-.52,4.39,3.94,5.17,8.89,6.57,14.29-5.13,0-10.24.08-15.36,0-2.37-7.37-11.59-8.55-17-4.18-3,2.77-1.85,6.86,1.89,8.08,8.39,2.25,16.66,1.46,24.2,6.67C520.77,988.82,521.31,1002.23,515,1009.58ZM396,787.79a72.66,72.66,0,0,1,62.13,37.39c13-22.5,36.09-37,62.25-37.39q-.07,67.08,0,134.13-62.16-.07-124.34,0Q396,854.86,396,787.79ZM362,1018c-1.35-3.28-2.67-6.59-4-9.87q-11.48.11-22.94,0c-1.32,3.28-2.64,6.59-4,9.87-5.44-.06-10.88,0-16.31.09,8.85-21.93,17.3-44.18,26.35-66a88.58,88.58,0,0,1,10.81-.2Q365.48,985,379.2,1018,370.58,1017.87,362,1018ZM254.16,845.74a62.11,62.11,0,0,1,37.1-54.49c23-10.37,51.27-5.14,69,12.81a60.94,60.94,0,0,1,18.18,43.41q0,37.17,0,74.42-19,0-38,0c0-3.8.07-7.6.11-11.4q-24.33,0-48.66,0c0,3.81.07,7.63.11,11.44-12.71-.07-25.42,0-38.13,0C254.28,896.5,253.76,871.11,254.16,845.74Zm15.26,107.07q-.1,25.26-.17,50.52c9.29,0,19.75,0,27.75,0V1018c-15-.09-28.69,0-43.1,0-.08-21.67.21-43.35-.06-65C259,952.87,264.25,952.85,269.42,952.81ZM142.3,868.94c-15.32-10-23.49-29.79-18.61-47.63,2.32-9.47,8.28-17.36,16-23.17,13.78-10.3,32.44-13.5,49.28-11.72,15.95,1.89,31.57,8.41,41.13,21.82,5.13,7,6.92,15,7.83,23.49-14.2,0-28.44.22-42.63-.32,8.52,2,16.53,4.16,23.66,9.5,14.4,10.23,22,29.47,17.21,46.65-2.77,10.78-10,19.62-19.32,25.54-11,6.94-23.9,9.6-36.79,10-17.34-.34-35.76-5.6-47.57-19-6.82-7.49-9.84-17-10.4-27,14.2.11,28.39-.11,42.59.29C156.69,875.26,149.2,873.84,142.3,868.94Z"/><path class="cls-1" d="M430.74,991c-5.44-.86-11.16-.33-16.67-.43q0,6.52,0,13.07c5.63-.08,11.57.52,17.12-.49C435.66,1001,435.67,992.66,430.74,991Z"/><path class="cls-1" d="M428,976.44a5.23,5.23,0,0,0,.11-9.69c-4.64-.58-9.45-.27-14.13-.25,0,3.4,0,6.8,0,10.21C418.64,976.71,423.4,977,428,976.44Z"/><path class="cls-1" d="M340.39,994.19q6.21,0,12.42,0c-2.16-5.72-4.23-11.48-6.25-17.28C344.54,982.67,342.49,988.43,340.39,994.19Z"/><path class="cls-1" d="M791.08,932.88a96.18,96.18,0,0,0,19.68,27.44,79.63,79.63,0,0,0,30.7,18.43,93,93,0,0,0,32.65,4.18,86.42,86.42,0,0,0,29.9-6.59c14.25-6,26.39-16.43,35.21-29.06C950.6,931,957,911.71,959.54,892.14c3.34-25.54-.3-52.17-11.51-75.45a102,102,0,0,0-19.69-28,81.74,81.74,0,0,0-31.43-19.93,85.61,85.61,0,0,0-34.26-4.21,81.62,81.62,0,0,0-48.94,21.05,99.44,99.44,0,0,0-21.14,27.49,128.51,128.51,0,0,0-14.22,50.72,143.37,143.37,0,0,0,1.19,31.05A129.79,129.79,0,0,0,791.08,932.88Z"/><path class="cls-1" d="M640,1175h540V636H640Zm428.2-212.86a34.93,34.93,0,0,1,16.6,9.11,31.61,31.61,0,0,1,7.85,13.58,48.32,48.32,0,0,1,1.42,19.33,55.14,55.14,0,0,1-5.29,16.68c-4.81,9.67-11.52,18.26-18.68,26.29-7.72,8.59-16,16.62-24.34,24.65,16.74-.06,33.13,0,49.86,0a8.22,8.22,0,0,1,2.38.19v20.28c-1,.06-.32.79-.82.79H1013v-22.48c2-1.94,3.59-3.72,5.58-5.61,8.61-7.86,16.9-15.87,24.9-24.37,7.69-8.34,15.09-17.07,20.45-27.14,2.43-4.74,4.41-9.88,4.37-15.28a15.61,15.61,0,0,0-4.1-10.56c-3.47-3.75-8.52-5.65-13.49-6.27a42.81,42.81,0,0,0-19.78,3.1,82.74,82.74,0,0,0-13.69,7.12c-.69-7.26-1.4-14.52-2.06-21.78a87.26,87.26,0,0,1,34.66-9.16A61.33,61.33,0,0,1,1068.2,962.14ZM719,870.31c2-10,1.82-20,3.64-29.87a151.58,151.58,0,0,1,29.15-66,135.68,135.68,0,0,1,42.89-36.1c21.26-11.5,45.49-17.18,69.58-17.78,21.32-.67,42.93,2.42,62.91,10a136.27,136.27,0,0,1,73.74,66.42,161.68,161.68,0,0,1,16.28,55.86,183.43,183.43,0,0,1,.9,29.27,163.34,163.34,0,0,1-8.76,45.58,149.45,149.45,0,0,1-39.57,61A142.23,142.23,0,0,1,908.44,1022a159.1,159.1,0,0,1-51.3,4.33,149.77,149.77,0,0,1-50.67-12.81,142,142,0,0,1-48.29-36,153.87,153.87,0,0,1-34-65.39c-2.77-11.67-3.15-23.64-5.15-35.61Z"/><path class="cls-1" d="M1433.2,871.19c6.78,14.48,17.8,26.27,32.8,33.23V838.08Z"/><polygon class="cls-1" points="1543.23 1015 1561.05 1015 1552.14 989.48 1543.23 1015"/><polygon class="cls-1" points="1675.97 989.48 1667.07 1015 1684.88 1015 1675.97 989.48"/><path class="cls-1" d="M1220,1175h540V636H1220Zm272.45-138h-14.9l-11.31-43.85L1454.85,1037H1440l-14.82-59h13.1l9.25,46.84,12-46.84h13.28l12.07,46.84,9.25-46.84h13.11Zm176.67-59h13.79l22.18,59h-12.76l-4.2-12H1663.9l-4.28,12h-12.77ZM1600,978h12v50h21v9h-33Zm-31.5,59-4.2-12h-24.24l-4.28,12H1523l22.27-59h13.78l22.18,59Zm-73-276a80.75,80.75,0,1,1-80.74,80.75A80.83,80.83,0,0,1,1495.52,761.05Zm-145.11,230a28.61,28.61,0,0,1,10.88-11,31.95,31.95,0,0,1,30.74,0,28.54,28.54,0,0,1,10.88,11,34.13,34.13,0,0,1,0,32,28.47,28.47,0,0,1-10.88,11,31.95,31.95,0,0,1-30.74,0,28.54,28.54,0,0,1-10.88-11,34.13,34.13,0,0,1,0-32ZM1281,978h12v26.12L1315.09,978h14.56L1304,1007l25.61,30H1315l-22-27.22V1037h-12Z"/><path class="cls-1" d="M1466,779.17a70.55,70.55,0,0,0-16.48,11.13L1466,806.78Z"/><path class="cls-1" d="M1441.19,798.5a69.42,69.42,0,0,0-12.89,61l36.78-37.11Z"/><path class="cls-1" d="M1367.33,1024.42a19.35,19.35,0,0,0,18.67,0,16.44,16.44,0,0,0,6.29-6.89,25.4,25.4,0,0,0,0-21,16.44,16.44,0,0,0-6.29-6.89,19.35,19.35,0,0,0-18.67,0,16.37,16.37,0,0,0-6.29,6.89,25.29,25.29,0,0,0,0,21A16.37,16.37,0,0,0,1367.33,1024.42Z"/><path class="cls-1" d="M1512.61,774.42a69,69,0,0,0-17.11-2.14,69.87,69.87,0,0,0-18.5,2.52v35.54Z"/><path class="cls-1" d="M1547,888.44a69.44,69.44,0,0,0-22.68-109.88l-43.4,43.8Z"/><path class="cls-1" d="M1477,908.79a70,70,0,0,0,18.51,2.52,69.16,69.16,0,0,0,43.28-15.18L1477,834.34Z"/><path class="cls-1" d="M53,1220v538H592V1220Zm58.69,297.78c-13.83,0-22-9.09-22.94-24.6l13.34-.38c.64,6.93,2.82,13.33,9.74,13.33,6.28,0,8.33-5.51,8.33-10.64,0-5.39-3.07-10.26-8.33-15.52l-9.62-10.39c-7.43-7.3-12-14.71-12-24,0-12,7.31-22.06,21.92-22.06,10.9,0,20.14,5.77,21,23.72l-12.69.38c-.9-7.69-3.21-12.56-9-12.56-5.26,0-8.08,3.71-8.08,9.48,0,5.26,4.74,10.13,9.24,15l8.83,9.24c8.07,8.2,12.57,16,12.57,25.9C134,1507.91,125.8,1517.78,111.69,1517.78ZM205,1456H191v-10.35c0-5.77-3.22-9.61-9.37-9.61-6.93,0-9.63,4.35-9.63,10.39v48.33c0,6.8,3.48,10.52,9.76,10.52,6,0,9.24-4,9.24-9.49V1486h14v10.56c0,13.08-9.89,21.29-23.1,21.29-14.36,0-24.9-7.62-24.9-22.24v-49.74c0-13.85,10.79-22.15,24.9-22.15,13.21,0,23.1,7.86,23.1,20.39Zm66.81,62H257.6l-12.81-38.15L226.32,1425h15.09l11.29,36.92L263.59,1425h13.75L259,1479.15h0v.8ZM350,1437H332v81H318v-81H302v-12h48Zm59.83,81-4.63-24H385.84l-4.35,24H368.16l18.59-93h19.48l18,93Zm81.17,0H451v-93h14v80h26Zm65,0H514v-93h42v12H531v27h20v12H531v29h25Z"/><polygon class="cls-1" points="395.48 1442 388.17 1481 402.89 1481 402.9 1481 395.86 1442 395.48 1442"/><polygon class="cls-2" points="259.33 1479.15 277.66 1425 277.6 1425 259.32 1479.1 259.33 1479.15"/><rect class="cls-3" x="640" y="641" width="531" height="526"/><rect class="cls-3" x="1225" y="641" width="535" height="526"/><rect class="cls-3" x="54" y="54" width="532" height="533"/><rect class="cls-3" x="640" y="54" width="531" height="533"/><rect class="cls-3" x="54" y="641" width="532" height="526"/><rect class="cls-3" x="54" y="1221" width="532" height="534"/><rect class="cls-3" x="640" y="1221" width="531" height="534"/><rect class="cls-3" x="1225" y="1221" width="535" height="534"/><rect class="cls-3" x="1225" y="54" width="535" height="533"/><path class="cls-4" d="M0,0V1809H1809V0ZM1171,54V587H640V54ZM586,1167H54V641H586Zm54-526h531v526H640Zm585,0h535v526H1225ZM586,54V587H54V54ZM54,1755V1221H586v534Zm586,0V1221h531v534Zm585,0V1221h535v534ZM1760,587H1225V54h535Z"/></g></g></svg>
