<svg xmlns="http://www.w3.org/2000/svg" viewBox="0 0 1800 1800"><defs><style>.a{fill:#29353a;}.b{fill:#0c1516;}.c{fill:none;}</style></defs><title>clients-copy</title><path class="a" d="M1223.11,35.72v549.9H1773V35.72ZM1396.84,401.3h-24.31l-3.29-6.57-3.18-6.67,16.3-.1c9.61,0,16.56-.1,16.56-.3l-13.29-26.48-13.08-26.27,13.19-26.17,13.18-26.58-9,1h-9.42l-29.58,59.06-29.58,59.06h-49.14l16.7-33.4,16.7-33.3-16.8-33.4-16.7-33.3h48.72l3.23,6.37,3.14,6.57c0,.1-5.39.3-15.88.3h-16.77l13.2,26.6,13.2,26.3-13.3,26.6-13.3,26.4,9.1,1h9l22.4-44.5L1365,283.48l7.84-15.58h24c17.31,0,24.23,0,24.23.2l-16.6,33.3-16.6,33,16.71,33.5,16.59,33.4Zm83.81-72.1c0,15.28,0,15.28-1.74,18.64-2.44,4.79-7.63,7.13-15,6.42a21.13,21.13,0,0,1-5.81-1.43l-.81-.41v-7.13l1.42.62a15.31,15.31,0,0,0,7,1.32,6.38,6.38,0,0,0,6.31-4.18c.41-1.12.41-1.42.51-14.25v-13h8.15Zm60.49,25.26h-4.28l-1.33-4-1.22-3.16h-14.66l-1.43,3.06-1.32,3.05h-8.45l17.61-37.68c.51-1,.62-1,1.12-1s1.33,1.43,9.48,19.35l8.75,19.35C1544,353.85,1542.58,354.19,1541.14,354.46ZM1606,343.05v9.07l-2.85.61a32.87,32.87,0,0,1-10.38,1.42,34.62,34.62,0,0,1-6.11-.3,18.6,18.6,0,0,1-11-6.11,21.89,21.89,0,0,1-3.57-7.44,26.41,26.41,0,0,1,0-10.48,19.37,19.37,0,0,1,15.38-14.67c4.07-.81,11.81-.3,15.07,1.12l1.43.51v3.67c0,2.95-.31,3.76-.62,3.66a24,24,0,0,0-10-2.24c-4.13,0-7.12,1-9.59,3.57a13.47,13.47,0,0,0-3.41,5.9,20.46,20.46,0,0,0,.21,8,10.68,10.68,0,0,0,9.59,8.14,13.62,13.62,0,0,0,5.67-.61V333.07H1605Zm59.07,8v2.37h-28.52V315.76H1663v6.11h-17.31V331H1662v5.09h-16.29l1,5.65v5.55l9.16.11,9.17.21Zm61.3,2.37h-4.68l-4.69-8.76-4.88-9.16-4.89,9-4.89,10h-4.58c-3.26,0-4.69,0-4.69-.2l5.81-10.19c3-5.5,5.7-10.18,5.6-10.38l-5.4-9.48-5.29-9.36a29.33,29.33,0,0,1,4.78-.21l4.38.1,3,5.71,4.59,8.65,1.52,3.06,4.38-8.56L1721,315c.3-.41,9.16-.41,9.16,0l-5.09,9-5.09,9.27c0,.2,1.73,3.87,6.72,12.32,3,5.09,4.27,7.43,4.27,7.64s-1.32.4-4.58.3ZM623.3,585.62h549.91V35.72H623.3Zm456.22-291.24h11.2V317.8h11.2V294.38h11.21v57h-11.21V329h-11.2v22.4h-11.2Zm-55,11.71,11.3-11.71h23.32v11.2h-23.42V340.2h23.42v11.2h-23.32l-11.3-11.2Zm-55-11.71h33.6v11.2h-11.2V351.4H979.72V305.58H969.54Zm-58,11.2h.82l11.4-11.2h23.43v11.2H924.73V317.8H941V329h-16.3v11.2h22.41v11.2H923.71l-11.4-11.2h-.82Zm-51.93.51,11-11.71h22.6v11.2h-22.4V317.8h17.31V329H870.76v22.4h-11.2Zm-59.07-11.71H823l11.1,11.71V317.8H823L834.1,329v22.4H821.88V329H811.7v22.4H800.49Zm-59.06,11.71,11.1-11.71h11.3L775,306.09V351.4H762.82V329H752.63v22.4h-11.2Zm-55-.51,11.2-10.9v-.3H720v11.2h-22.4V317.8H715V329H697.64v22.4h-11.2Z"/><path class="a" d="M752.63,305.58h10.19V317.8H752.63Zm59.07,0h10.18V317.8H811.7Zm-474.65,33.6s.71-16.09-18.54-20.87c0,0,10.9-5,10.9-17.31,0,0,1.63-19.86-25.15-22.92H274v84.53h34.62S337.05,363.22,337.05,339.18ZM290.3,291.32h11.51c12.53,2,12.12,10.29,12.12,10.29,0,11.71-13.95,12.12-13.95,12.12H290.3Zm15.28,59.07H290.3V328h15.28c16.39,0,16,10.7,16,10.7C321.57,351.51,305.58,350.39,305.58,350.39ZM192.85,339.18s.61-16.09-18.54-20.87c0,0,10.9-5,10.9-17.31,0,0,1.63-19.86-25.15-22.92H130.42v84.53h34s28.41.61,28.41-23.43ZM145.7,291.32h11.91c12.53,2,12.12,10.29,12.12,10.29,0,11.71-13.95,12.12-13.95,12.12H145.7Zm15.68,59.07H145.7V328h15.68c16.29,0,15.89,10.7,15.89,10.7C177.27,351.51,161.38,350.39,161.38,350.39Z"/><path class="a" d="M580.53,32.66H31.64V582.57H580.53ZM223.09,379.92H97.84V261.79H223.09Zm143.59,0H242.44V261.79H366.68Zm143.59,0H386V261.79H510.27Z"/><path class="a" d="M430.84,360.17c29.57,11.64,55-3.55,55-3.55v-16.2C467.6,352.57,452.91,351,452.91,351c-33.42-1.62-32.3-29.77-32.3-29.77,1.41-30.59,33-30,33-30,16.81.2,32.21,9.52,32.21,9.52v-15.6a84,84,0,0,0-23.5-6.68c-16-1.52-24.91,1.92-24.91,1.92-33.22,10.13-32.31,40.82-32.31,40.82,1,29.87,25.73,38.89,25.73,38.89Zm404.38,1316.1H824.93v33.61h9.68c2.95,0,5.7-.21,8.15-2.05a10.08,10.08,0,0,0,3.56-8.1v-13c0-3.07-.71-5.94-3.06-8.09S838.17,1676.37,835.22,1676.27Z"/><path class="a" d="M630.43,1771H1178.3V1223.11H630.43Zm153.77-60.09h-2.44s.2-21.59,0-32.79c-4.08,7.13-8.56,14.06-12.63,21.18l-1.83.11-10.19-16.91a41.3,41.3,0,0,0-2.44-3.87v33.3h-2v-37.68h2.82l12.87,21a1,1,0,0,0,.8-.59c4-6.92,8.24-13.64,12.27-20.46h2.91c-.2,12.16,0,24.41-.1,36.56Zm-2.75-54.68a16.81,16.81,0,0,1-9.47,4.17,23.43,23.43,0,0,1-14.26-2.44,12.55,12.55,0,0,1-6.11-7.84l6.93-2.85c.61.3.91,1.22,1.22,1.73,3.06,5.09,10.9,6,15.58,3a4.68,4.68,0,0,0,1.11-6.53,4.77,4.77,0,0,0-1.41-1.31c-4.89-2.85-12.53-2.44-17.32-6.11-3.66-2.75-4.38-8.65-3.05-12.73,1.83-5.09,6.72-7.74,11.71-8.45,4.68-.41,9.67-.2,13.54,2.65,2.14,1.53,3.26,3.66,4.48,5.8l-4.58,2.24c-.61.1-1.53.82-2.14.61-1.12-1.52-2-3-3.87-3.66a11.19,11.19,0,0,0-9.37,0c-2.44,1.32-3.36,4.89-1.32,7,1.83,1.84,5.09,2.35,7.43,3.06,4.38,1.12,8.46,1.43,11.72,4.79,4.17,4.58,3.87,12.73-.82,16.8Zm29.23,35.23v2.14h-16.3v16.3h19.4l.2,2H792.35v-37.68h22.4v2H794.38l-.1,15.28h16.4Zm4.79-32.48a21.15,21.15,0,0,1-20.31-2.77,13.41,13.41,0,0,1-4.85-10.57V1632a14.65,14.65,0,0,1,3.92-10.08,17.67,17.67,0,0,1,13.41-5.09c5.15,0,10.93,1.53,14,5.91,2.06,2.74,2.37,6.72,2.48,8.75H816.4c-.21,0-.31-3-1.44-4.58-2.27-3.05-6.91-3.77-10.32-2.75a7.77,7.77,0,0,0-6.18,7.13V1645a7.56,7.56,0,0,0,3.09,6.15c3.51,2.57,9.08,2.77,12.58-.3,1.76-1.65,2.06-3.8,2.27-6.16h7.74a23.1,23.1,0,0,1-.73,5.85,13.37,13.37,0,0,1-8,8.41Zm33.8,40.73a12.8,12.8,0,0,1-2.44,7.84,12.12,12.12,0,0,1-9.78,4.38H822.9v-37.68h13.39c3.61,0,7.42.82,10,3.47s3.09,5.8,3.09,9.16v12.83Zm6.21,12.22v-37.68H858c0,12.53-.2,25-.1,37.68Zm7.13-51.93h-8.14v-18.33h-16.3V1660H829v-42.77h9.16v17.31h16.3v-17.31h8.14Zm28.52,51.83-4.75-13.14H871l-4.75,13.14-2.53.1,14-37.59a15,15,0,0,1,2.32,0l13.64,37.59h-2.62Zm-19.35-94.6h8.14v42.46c-2.74.2-5.39,0-8.14.1v-42.56ZM889.09,1660v-42.77h16.28c4.8,0,10.69.5,13.39,5.19a12.32,12.32,0,0,1,.8,8.79,9.08,9.08,0,0,1-5.1,5.59c1.9,1,3.7,1.8,5,3.6a12,12,0,0,1-2,15.38,14,14,0,0,1-9.69,3.2l-18.88,1Zm42,49.78a11.75,11.75,0,0,1-6.93,2.15h-4.37a11.12,11.12,0,0,1-8.69-4.09,12.21,12.21,0,0,1-2.66-8.48v-14a12.46,12.46,0,0,1,7.77-10.94c5.32-2.25,13-1.33,16.77,3.37,2.14,2.56,2.14,5.52,2,8.69h-3c.21-3.1,0-6-2.75-8.14-3.66-2.62-10-2.91-13.95-.68a9.68,9.68,0,0,0-4.88,8.44V1699a9.7,9.7,0,0,0,4,8.25,14.9,14.9,0,0,0,11.61,1.45,8,8,0,0,0,6.11-5.62c.4-2.72,0-5.63.2-8.44H921.68v-2h13.24v9.93a8.77,8.77,0,0,1-3.83,7.27Zm-.35-51.72a14.14,14.14,0,0,1-6.52-8l7.34-2.85c2.64,6.41,10.79,8.24,16.39,4.88a4.67,4.67,0,0,0,1.53-6,6.62,6.62,0,0,0-3.36-2.65c-4.69-1.84-10.7-2-14.87-4.79-4.48-2.75-5.3-9.16-3.56-13.64,1.83-4.79,6.51-7.23,11.3-8,3.87-.4,8.25-.3,11.71,1.43a13.88,13.88,0,0,1,6.52,7.13l-6.62,3a14.36,14.36,0,0,0-2.55-3.06,11.33,11.33,0,0,0-8.76-1.62,5.27,5.27,0,0,0-4.37,3.87,4.26,4.26,0,0,0,2.34,4.88c4.78,2.55,11.1,2.24,15.68,5.09s5.91,9.07,4.28,13.85c-1.73,5-6.42,7.85-11.41,8.76a22.72,22.72,0,0,1-15.07-2.24Zm36,54.75c-4.17-5.32-8.34-10.73-12.3-16.15H945.1v15.27h-2v-37.68h12.3c3.33,0,7,.84,9.48,3.23,3.54,3.44,3.86,9.69,1.56,13.86-2,3.34-5.31,4.8-9.06,5.21l12.5,16.36Zm5.77-88.46h-12c.21-2.34,0-4.68.21-7.12H993v7.12H980.74V1660h-8.15v-35.54Zm27.7,74.55a13.2,13.2,0,0,1-3.37,9.16,11.25,11.25,0,0,1-8.28,3.87h-4.8a11.06,11.06,0,0,1-8.08-3.46,10.58,10.58,0,0,1-3.07-7.74v-14.77a12.5,12.5,0,0,1,4.71-9.87c3.37-2.65,7.76-3.06,11.85-2.55,3.68.51,7.16,2.14,9.1,5.4a15.19,15.19,0,0,1,1.84,8.35V1699Zm24.34-64.46v8.24H1006.2v10.19l21.38-.2V1660H997v-42.77h30a70.45,70.45,0,0,1,0,7.12c-7.29-.2-14.57,0-21.85,0v10.19h19.45Zm7.43,73.74a11.2,11.2,0,0,1-8.45,3.75h-4.58a10.2,10.2,0,0,1-6.62-2.53,10.8,10.8,0,0,1-4.07-8.71v-26.44h2v24.85a12.7,12.7,0,0,0,1.56,6.82,9.56,9.56,0,0,0,6.22,4.18,13.74,13.74,0,0,0,10.69-1.63,9.63,9.63,0,0,0,3.94-8.15l-.11-26.07h2.14v25.83a11.68,11.68,0,0,1-2.75,8.1Zm29.54-13.87c-4.69,3.06-11.31,2-16.6,2.14v15.28l-2,.1v-37.58H1055a11.42,11.42,0,0,1,8.15,3c4.88,4.58,4.17,13.74-1.63,17.1Zm4.78-47.72a12,12,0,0,1-3.53,8.09,16.66,16.66,0,0,1-12.51,5.32l-16.55-.11v-42.66h16.65a17.47,17.47,0,0,1,10.29,3.27,12.92,12.92,0,0,1,5.65,10.23ZM751.61,1284.21h314.67v203.67h-37.47c.2-3.37,1-6.83,1.12-10.19.82-11.62-1.22-23.65-4.08-34.75a331.64,331.64,0,0,0-23.49-60.13l-8.27-17.12c-4.08-8.46-8.88-17.63-10.82-26.9-1-5.3-1.43-11.41,1.32-16.3,4.09-8.06,16.75-8.77,21.86-1.64,4,5.71,3.88,12.74,4.28,19.37h17.87v-29.84s-15.66-4.57-23.83-5.4c-13.23-1.22-27-1-40,1.73s-26,8.15-35.44,17.62a53.78,53.78,0,0,0-14.76,28.31,75.9,75.9,0,0,0,0,29.43,153.39,153.39,0,0,0,9.27,27.5c7.63,17.31,17.31,34.62,23.42,52.64a99.13,99.13,0,0,1,5.29,25.67H929A65.25,65.25,0,0,0,919,1458a52.43,52.43,0,0,0-23.63-19.35,70.25,70.25,0,0,0-64.86,6.31,58.39,58.39,0,0,0-21.39,26.58,70.36,70.36,0,0,0-4.58,29.64,78.43,78.43,0,0,0,11.4,38.9A71.31,71.31,0,0,0,847,1566.8c14.26,6.62,30.86,9.26,46.54,9.37a175.46,175.46,0,0,0,46.64-5.6,144.6,144.6,0,0,0,53.67-26.18,98.72,98.72,0,0,0,30.85-41.24h41.55v94.71H751.61Zm200.62,218.84a65.66,65.66,0,0,1-6.42,21.59,59.41,59.41,0,0,1-22.4,24.34,67.93,67.93,0,0,1-36.66,9.67,71,71,0,0,1-39.51-11.1,55.68,55.68,0,0,1-24.44-48.88,39.94,39.94,0,0,1,4.88-17.31,26.44,26.44,0,0,1,14-11.81,32.12,32.12,0,0,1,20.46,0,26.73,26.73,0,0,1,14.26,10.69,41.19,41.19,0,0,1,5.81,22.71C905.59,1503.15,928.91,1503,952.23,1503.05Z"/><path class="a" d="M1052.39,1624.76c-3.38-.61-7.07-.31-10.55-.41v28.58c3.38,0,6.66.21,9.94-.1,3.58-.51,6.86-2.87,7.37-6.66v-14.24c0-3.79-3.27-6.45-6.76-7.17Zm2.69,51.51H1044.9v18.13c4.58-.21,10.38.61,14.56-1.43s5.19-7.23,3.67-11.2A9.18,9.18,0,0,0,1055.08,1676.27Zm-90.71,13.24c1.06-3.18,1.06-7.84-1.58-10.38-2.12-2.12-5.51-2.86-8.48-2.86H945.1v18.32c4.34-.21,8.9.43,13.13-.42,2.65-.64,5.09-1.91,6-4.66Zm-67.13-54.58c4.07-.21,8.25.5,12.12-.51,3.66-1,4.58-6.11,1.93-8.56-1.63-1.42-3.56-1.53-5.6-1.53h-8.45v10.6Zm91.23,40.32a11.65,11.65,0,0,0-9.09,2.45,11,11,0,0,0-3.73,8.55v9.88c0,3.36-.3,6.31,1.71,9.37,2.83,4.27,9.09,5.29,13.63,3.76a10.26,10.26,0,0,0,7.06-9.47v-13.54a10.8,10.8,0,0,0-2.62-7.74,11.05,11.05,0,0,0-7.07-3.26Zm-77-32.39c-1.82-1.21-4-1.21-6.26-1.21h-8.27c-.21,3.73,0,7.46-.1,11.2H907c2,0,4.44-.71,5.55-2.52A5.87,5.87,0,0,0,911.44,1642.86ZM872,1696.64h13.85l-6.72-18.94C876.46,1683.91,874.32,1690.32,872,1696.64Zm652-295.73c4.24-.2,8.59-.1,12.83-.1v-20.67c0-2.75.31-5.4,2.58-7.34,1.55-1.73,4.14-1.32,6.21-1.32,2.69,0,4.45,3,4.45,5.5v23.93c4.44-.2,8.89-.2,13.23,0v-27.09c0-3.46-1.27-7.64-4.23-9.88-2.65-2.44-6.78-3.15-10.28-3a16.64,16.64,0,0,0-7.51,2,19.38,19.38,0,0,0-4.88,4.17c.22-6.52,0-13.14.11-19.76h-12.51c0,3.06-.31,6-.2,9.07C1523.73,1371.17,1523.41,1385.94,1523.93,1400.91Zm116.39-.61c-.21-18,0-35.91-.1-54h-12.83v54Zm-138.19-7.72c-1.9.2-3.31-.7-5-1.3a9,9,0,0,1-1.7-4.22h-11.75a12.88,12.88,0,0,0,3.91,9.34c3.62,3.11,8.64,4.31,13.36,4.42,5,.2,10-.61,14.36-3.42,5-3,7-10.74,3.71-15.66a12.36,12.36,0,0,0-7-4.72c-3.51-.8-7-1.3-10.44-2.21a8.31,8.31,0,0,1-4.32-2.21c-.5-1.4-.5-2.91,1-3.51a9,9,0,0,1,8.83,1l1,2.71h11.34a11.32,11.32,0,0,0-4.92-9.43,20.09,20.09,0,0,0-10.44-3c-5.82-.2-11.85.3-16.47,4.22-3.31,2.81-3.81,7.63-2.61,11.55a10.18,10.18,0,0,0,6.53,5.82c4.52,1.61,9.34,2,13.86,3.51a7.19,7.19,0,0,1,3,2.21,9.75,9.75,0,0,1-1,3.62c-1.9.7-3.31,1.5-5.22,1.4Zm-47.86,7.72h12.22v-18.84c0-3.06.92-5.91,3.46-7.74,3.16-2.34,7.13-2,10.8-1.22v-11.44c-3.89-.5-8.28-.1-11.17,2.79a11.59,11.59,0,0,0-3.09,4.39l.1-6.74c-4.07,0-8.25-.2-12.32.2v38.6Zm119.48,1a22.3,22.3,0,0,0,11.47.1c2.79-.62,4.86-2.27,7.13-3.93l.42,3.31c4.44.31,8.78,0,13.23.21a19.74,19.74,0,0,1-1.35-6.21c-.2-7.75,0-15.5-.2-23.15a10.64,10.64,0,0,0-4.14-7.85c-3.2-2.59-7.85-3.11-11.78-3.31a25.77,25.77,0,0,0-16.54,3.72,12.41,12.41,0,0,0-4.45,9.61h12c.52-1.65,1-3.1,2.59-4a8.38,8.38,0,0,1,9.61,1.24,4.52,4.52,0,0,1,0,3.93c-1,1.24-3.1,1.55-4.65,1.86-5.58.83-11.37,1-16.54,3.93a10.29,10.29,0,0,0-4.44,7c-.31,2.89-.31,6.3,1.34,8.78a11.84,11.84,0,0,0,6.2,4.76Zm6.9-15.58c3.46-1.94,7.74-2,11.5-3.36a27.43,27.43,0,0,1-1,6.92,6.31,6.31,0,0,1-3.47,3.87c-3.05.51-5.9.82-8.35-1.53-.1-2.24-.81-4.38,1.33-5.9Zm42.67,15.07-.11-53.47h-13.13V1401c4.34-.2,8.79-.2,13.24-.1Z"/><path class="a" d="M1223.11,1771H1773V1223.11h-549.9Zm97.76-461.31h345.22v119.14c-20.37,0-40.94.21-61.41-1h-64.16c-7.53,10.09-14.56,19.86-21.89,29.33l-24.34,31.57c-.41.82-1.22-.2-1.53-.61l-39.3-51.22c-2-2.75-6.32-8-6.32-8h-66c-20.16.41-39.92,0-60.28.21Zm0,325.87h122.2l-.1-45.12a15.62,15.62,0,0,1,2.24,3.06c9.67,14,19.75,27.9,29.33,42,13.23.21,26.27,0,39.41,0l31.56-45c.51,1.53.21,3.36.21,5.1,0,13.23-.21,26.68-.1,40h120.47v35.64H1320.87Z"/><path class="a" d="M1419.65,1401.31a22.87,22.87,0,0,0,10.33-.81c2.27-.7,4.13-2.21,6.2-3.62a33.42,33.42,0,0,0,.31,3.42l13.12.1a25,25,0,0,1-1.45-7.35v-20.54a10.37,10.37,0,0,0-4.44-8.55,18.26,18.26,0,0,0-9.82-3c-6.5-.31-12.81-.1-18.39,3.82a13.27,13.27,0,0,0-4.44,9.06h12c.72-1.61,1.24-3.22,3.1-4a9.94,9.94,0,0,1,9,.81c1,2.11.93,2.92,0,5-5.68,2.12-12.19,1.41-18,3.73a11.11,11.11,0,0,0-6.92,6.24,14.15,14.15,0,0,0,.82,10.17,12,12,0,0,0,8.58,5.43Zm7-16.69c3-.82,6.11-1.23,9.16-2.14-.2,3,0,7.23-2.44,9.47-2,1.83-4.08,1.53-6.62,1.42a4.08,4.08,0,0,1-4.08-4.07v-.1c-.2-2.24,2-4.07,4-4.58Zm-67.12,15.68v-31.65a77.92,77.92,0,0,1,.11-8.37c3.62,13.41,7.35,26.61,10.88,40h10.69c3.53-13.31,7.46-26.41,10.78-39.72h.51c-.2,13.21,0,26.41,0,39.72l13.88-.1-.1-53.87h-20.59c-1.45,4.31-2.06,8.72-3.51,13-2,7.59-3.6,15.39-6,22.78l-9.26-35.92c-6.9.21-13.8.21-20.59,0-.21,18.06,0,36-.21,54.08ZM34.7,1177.28H583.59V628.39H34.7Zm387-160.29c-11.41.92-23,0-34.62.41V951.11c10.69.1,21.38-.31,32.07.1,7.85.2,14.26,6.31,15.89,13.85,1.63,6.41-1.53,11.61-6.11,15.68,3.06,2.55,6.42,4.58,8.15,8.15,5.5,11.3-2.75,26.78-15.38,28Zm82.87-8.75a28.48,28.48,0,0,1-40.24,1.45c-.16-.15-.32-.3-.47-.46-3.89-4-4.58-9-5.68-14.23H473c1.85,3.4,2.58,6.49,6.7,7.53,4.43.82,11.76,1,14-3.82,1.44-2.68-1-5.47-3.61-6.19-8.46-2.27-17.54-1.34-25.06-6.6-9.28-6.49-8.77-22.27-.83-29.59,10-9.39,28.15-9.9,38.26-.52,4.54,4.13,5.36,9.18,6.81,14.75h-16c-2.34-7.54-11.81-8.76-17.31-4.28-3.06,2.85-1.84,6.93,2,8.15,8.46,2.34,16.91,1.52,24.55,6.82,8.55,5.8,9.16,19.45,2.64,27ZM384,783.08a73.78,73.78,0,0,1,63,38.09c13.19-22.92,36.64-37.68,63.24-38.09V919.64H384ZM349.52,1017.4l-4.11-10.18H321.75l-4.12,10.18H301c9-22.42,17.69-45.26,27-67.89a91.53,91.53,0,0,1,11.11-.1l28.08,68ZM239.59,841.94a63.26,63.26,0,0,1,107.94-42.36,65.35,65.35,0,0,1,19.15,44.19v75.87H327.37l.21-11.2h-49.5v11.2h-38.8c.41-26-.1-51.83.31-77.7ZM254.66,951l-.1,51.12h28.62v15.27H238.65c0-22.1.21-44.19,0-66.19Zm-129-85.34A45.09,45.09,0,0,1,106.7,817.2,42.44,42.44,0,0,1,123,793.57a72.34,72.34,0,0,1,50.2-11.92c16.3,2,32.08,8.56,41.86,22.2,5.19,7.13,7.13,15.28,7.94,23.94-14.46,0-28.92.3-43.38-.31,8.66,2,16.8,4.28,24.13,9.67a45,45,0,0,1,17.52,47.56,44.25,44.25,0,0,1-19.65,26c-11.21,7.13-24.44,9.78-37.48,10.18-17.72-.3-36.46-5.7-48.47-19.35-6.93-7.63-10-17.31-10.59-27.49,14.46.1,28.92-.1,43.38.3C140.3,872.19,132.66,870.66,125.64,865.67Z"/><path class="a" d="M419.23,989.91c-5.5-.92-11.31-.31-16.91-.41v13.24c5.7,0,11.71.61,17.31-.41,4.69-2.24,4.69-10.69-.4-12.42ZM416.58,975a5.3,5.3,0,0,0,.1-9.78c-4.68-.61-9.57-.3-14.36-.3v10.38c4.69,0,9.57.31,14.26-.3ZM327.37,993H340c-2.24-5.8-4.28-11.71-6.31-17.62L327.37,993Zm458.87-62.22a97.89,97.89,0,0,0,20.16,27.9,81,81,0,0,0,31.26,18.84,94.75,94.75,0,0,0,33.2,4.18,88.21,88.21,0,0,0,30.55-6.72,84.22,84.22,0,0,0,35.75-29.54,126.15,126.15,0,0,0,20.67-56.21c3.46-26-.31-53.05-11.71-76.78a104,104,0,0,0-20.06-28.51,83.27,83.27,0,0,0-32-20.37,87.16,87.16,0,0,0-34.93-4.28,83.12,83.12,0,0,0-49.8,21.49,101.14,101.14,0,0,0-21.48,28,130.67,130.67,0,0,0-14.46,51.63,145.58,145.58,0,0,0,1.12,31.57,132,132,0,0,0,11.81,38.7Z"/><path class="a" d="M632.47,1177.28h549.9V628.39H632.47Zm436.05-215.55a35.83,35.83,0,0,1,16.91,9.18,31.78,31.78,0,0,1,7.94,13.72,48.47,48.47,0,0,1,1.53,19.57,55.4,55.4,0,0,1-5.4,16.75,122.81,122.81,0,0,1-19,26.53c-7.84,8.67-16.3,16.84-24.75,24.91h50.71a8.74,8.74,0,0,1,2.45.2v20.48c-1,0-.31.71-.82.71h-85.74v-22.6c2-2,3.67-3.83,5.7-5.65,8.76-8.07,17.21-16.14,25.36-24.61,7.84-8.47,15.27-17.15,20.77-27.44,2.55-4.74,4.48-9.88,4.48-15.33a15.6,15.6,0,0,0-4.17-10.69,22.36,22.36,0,0,0-13.75-6.36,44,44,0,0,0-20.16,3.13,84,84,0,0,0-13.95,7.26l-2-22a89.6,89.6,0,0,1,35.23-9.28,63.46,63.46,0,0,1,18.74,1.51ZM712.92,867c2-10.18,1.83-20.36,3.66-30.45a154.44,154.44,0,0,1,29.74-67.21A138.14,138.14,0,0,1,790,732.67a157.66,157.66,0,0,1,70.87-18.12,165.4,165.4,0,0,1,64.06,10.18,138.8,138.8,0,0,1,75,67.62,164.74,164.74,0,0,1,16.6,56.82,187.05,187.05,0,0,1,.91,29.84,166,166,0,0,1-9,46.43,152.14,152.14,0,0,1-40.22,62.12,144.68,144.68,0,0,1-62.53,33.91,161.78,161.78,0,0,1-52.24,4.38,152.31,152.31,0,0,1-51.53-13,144.46,144.46,0,0,1-49.18-36.66,156.73,156.73,0,0,1-34.63-66.6c-2.85-11.81-3.26-24-5.29-36.25Zm727.3.92a68.59,68.59,0,0,0,33.4,33.81V834.2Zm112,146.44h18.12l-9.06-26Zm135.23-26-9.06,26h18.13Z"/><path class="a" d="M1223.11,1177.28H1773V628.39h-549.9Zm277.39-140.53h-15.17L1473.82,992l-11.61,44.71h-15.07l-15.07-60.08h13.24l9.47,47.66L1467,976.67h13.54l12.22,47.66,9.48-47.66h13.34Zm180-60.08h14l22.61,60.08h-13l-4.28-12.22h-24.54l-4.38,12.22h-12.93Zm-70.37,0h12.22v50.91h21.38v9.17h-33.6ZM1578,1036.75l-4.28-12.22h-24.64l-4.38,12.22h-13l22.7-60.08h14.06l22.5,60.08Zm-74.14-281.06a82.28,82.28,0,1,1-82.18,82.38V838A82.28,82.28,0,0,1,1503.86,755.69Zm-148,234.22A29.16,29.16,0,0,1,1367,978.7a32.61,32.61,0,0,1,31.26,0,29,29,0,0,1,11.1,11.21,34.67,34.67,0,0,1,0,32.58,28.86,28.86,0,0,1-11.1,11.2,32.55,32.55,0,0,1-31.26,0,29,29,0,0,1-11.2-11.2,34.67,34.67,0,0,1,0-32.58Zm-70.67-13.24h12.22v26.58l22.4-26.58h14.87l-26.07,29.53,26.07,30.55h-14.87l-22.4-27.7v27.7h-12.22Z"/><path class="a" d="M1473.62,774.22a72,72,0,0,0-16.8,11.3l16.8,16.81Zm-25.26,19.65A70.71,70.71,0,0,0,1435.23,856l37.47-37.78Zm-75.25,230a19.76,19.76,0,0,0,19,0,16.64,16.64,0,0,0,6.42-7,25.89,25.89,0,0,0,0-21.38,16.64,16.64,0,0,0-6.42-7,19.76,19.76,0,0,0-19,0,16.76,16.76,0,0,0-6.42,7.13,25.81,25.81,0,0,0,0,21.38A16.7,16.7,0,0,0,1373.11,1023.92Zm148-254.59a71.36,71.36,0,0,0-36.25.41v36.15Zm35,116.09A70.69,70.69,0,0,0,1533,773.61l-44.2,44.6Zm-71.29,20.78a71.42,71.42,0,0,0,18.84,2.54,70.48,70.48,0,0,0,44.1-15.47l-62.94-62.94ZM34.7,1223.11V1771H583.59V1223.11Zm60.08,303.26c-14,0-22.4-9.27-23.42-25l13.65-.41c.61,7.13,2.85,13.55,9.87,13.55,6.42,0,8.56-5.61,8.56-10.8,0-5.5-3.16-10.49-8.56-15.78l-9.77-10.59c-7.54-7.44-12.22-15-12.22-24.44,0-12.22,7.43-22.41,22.4-22.41,11,0,20.37,5.81,21.39,24l-13,.41c-.92-7.84-3.26-12.73-9.16-12.73-5.3,0-8.15,3.77-8.15,9.58,0,5.39,4.79,10.38,9.37,15.27l9,9.47c8.25,8.35,12.83,16.29,12.83,26.38,0,13.44-8.35,23.42-22.71,23.42Zm94.71-62.93H175.23V1453c0-5.91-3.26-9.88-9.57-9.88-7,0-9.78,4.48-9.78,10.59V1503c0,6.92,3.57,10.69,10,10.69,6.11,0,9.37-4.07,9.37-9.67v-10h14.26v10.79c0,13.24-10.08,21.69-23.53,21.69-14.66,0-25.35-7.84-25.35-22.71v-50.51c0-14.15,11-22.6,25.35-22.6,13.45,0,23.53,8,23.53,20.77Zm68,63.13H243.05l-13-38.8-18.84-55.9h15.38l11.5,37.68,11.1-37.68h14l-18.63,55.19v.82Zm79.64-82.48H318.82v82.48H304.56v-82.48H288.27v-12.22h48.88ZM398,1526.57l-4.68-24.44H373.6l-4.37,24.44H355.68l18.94-94.7h19.76l18.33,94.7Zm82.69,0H440v-94.7h14.26v81.46h26.47Zm66.2,0H504.16v-94.7h42.77v12.22H521.47v27.49h20.36v12.22H521.47v29.53h25.46Z"/><path class="a" d="M383.48,1449.18l-7.43,39.71h15l-7.13-39.71Z"/><path class="b" d="M244.48,1487.06l18.74-55.19h-.11L244.48,1487Z"/><path class="c" d="M632.47,633.49h540.74v535.64H632.47Zm595.73,0H1773v535.64H1228.2ZM35.72,35.72H577.48V578.5H35.72Zm596.75,0h540.74V578.5H632.47ZM35.72,633.49H577.48v535.64H35.72Zm0,590.64H577.48v543.79H35.72Zm596.75,0h540.74v543.79H632.47Zm595.73,0H1773v543.79H1228.2Zm0-1188.41H1773V578.5H1228.2Z"/><path class="b" d="M-19.27-19.27V1822.91H1822.91V-19.27Zm1192.48,55V578.5H632.47V35.72ZM577.48,1169.13H35.72V633.49H577.48Zm55-535.64h540.74v535.64H632.47Zm595.73,0H1773v535.64H1228.2ZM577.48,35.72V578.5H35.72V35.72ZM35.72,1767.92V1224.13H577.48v543.79Zm596.75,0V1224.13h540.74v543.79Zm595.73,0V1224.13H1773v543.79ZM1773,578.5H1228.2V35.72H1773Z"/></svg>
