<svg xmlns="http://www.w3.org/2000/svg" xmlns:xlink="http://www.w3.org/1999/xlink" viewBox="0 0 390 965.46"><defs><style>.cls-1{fill:url(#New_Gradient_Swatch_1);}.cls-2{fill:url(#New_Gradient_Swatch_1-2);}.cls-3{fill:url(#New_Gradient_Swatch_1-3);}.cls-4{fill:url(#New_Gradient_Swatch_1-4);}.cls-5{fill:url(#New_Gradient_Swatch_1-5);}.cls-6{fill:url(#New_Gradient_Swatch_1-6);}.cls-7{fill:url(#New_Gradient_Swatch_1-7);}.cls-8{fill:url(#New_Gradient_Swatch_1-8);}.cls-9{fill:url(#New_Gradient_Swatch_1-9);}.cls-10{fill:url(#New_Gradient_Swatch_1-10);}.cls-11{fill:url(#New_Gradient_Swatch_1-11);}.cls-12{fill:url(#New_Gradient_Swatch_1-12);}.cls-13{fill:url(#New_Gradient_Swatch_1-13);}.cls-14{fill:url(#New_Gradient_Swatch_1-14);}.cls-15{fill:url(#New_Gradient_Swatch_1-15);}.cls-16{fill:url(#New_Gradient_Swatch_1-16);}.cls-17{fill:url(#New_Gradient_Swatch_1-17);}.cls-18{fill:url(#New_Gradient_Swatch_1-18);}.cls-19{fill:url(#New_Gradient_Swatch_1-19);}.cls-20{fill:url(#New_Gradient_Swatch_1-20);}.cls-21{fill:url(#New_Gradient_Swatch_1-21);}.cls-22{fill:url(#New_Gradient_Swatch_1-22);}</style><linearGradient id="New_Gradient_Swatch_1" x1="63.13" y1="-113.97" x2="429.14" y2="924.06" gradientUnits="userSpaceOnUse"><stop offset="0" stop-color="#d3161a"/><stop offset="0.23" stop-color="#e2640f"/><stop offset="0.42" stop-color="#ffcd0b"/><stop offset="0.45" stop-color="#fdcd0c"/><stop offset="0.48" stop-color="#f6cb0f"/><stop offset="0.51" stop-color="#e9c814"/><stop offset="0.53" stop-color="#d7c41a"/><stop offset="0.55" stop-color="#bebd22"/><stop offset="0.57" stop-color="#9bb529"/><stop offset="0.59" stop-color="#68aa31"/><stop offset="0.6" stop-color="#4fa534"/><stop offset="0.64" stop-color="#3e9937"/><stop offset="0.72" stop-color="#1b853a"/><stop offset="0.78" stop-color="#057e3b"/><stop offset="0.8" stop-color="#0a7e3f"/><stop offset="0.83" stop-color="#157f4a"/><stop offset="0.86" stop-color="#1f815f"/><stop offset="0.91" stop-color="#2a857d"/><stop offset="0.95" stop-color="#3789a2"/><stop offset="1" stop-color="#478dcb"/></linearGradient><linearGradient id="New_Gradient_Swatch_1-2" x1="11.98" y1="-95.95" x2="378.02" y2="942.16" xlink:href="#New_Gradient_Swatch_1"/><linearGradient id="New_Gradient_Swatch_1-3" x1="163.62" y1="-149.43" x2="529.68" y2="888.73" xlink:href="#New_Gradient_Swatch_1"/><linearGradient id="New_Gradient_Swatch_1-4" x1="112.48" y1="-131.39" x2="478.51" y2="906.7" xlink:href="#New_Gradient_Swatch_1"/><linearGradient id="New_Gradient_Swatch_1-5" x1="264.14" y1="-184.85" x2="630.15" y2="853.19" xlink:href="#New_Gradient_Swatch_1"/><linearGradient id="New_Gradient_Swatch_1-6" x1="212.99" y1="-166.82" x2="579.02" y2="871.26" xlink:href="#New_Gradient_Swatch_1"/><linearGradient id="New_Gradient_Swatch_1-7" x1="286.81" y1="-192.86" x2="652.85" y2="845.26" xlink:href="#New_Gradient_Swatch_1"/><linearGradient id="New_Gradient_Swatch_1-8" x1="-41.86" y1="-76.98" x2="324.2" y2="961.19" xlink:href="#New_Gradient_Swatch_1"/><linearGradient id="New_Gradient_Swatch_1-9" x1="-184.16" y1="-26.79" x2="181.88" y2="1011.31" xlink:href="#New_Gradient_Swatch_1"/><linearGradient id="New_Gradient_Swatch_1-10" x1="-324.36" y1="22.58" x2="41.7" y2="1060.75" xlink:href="#New_Gradient_Swatch_1"/><linearGradient id="New_Gradient_Swatch_1-11" x1="-55.02" y1="-65.32" x2="311.01" y2="972.76" xlink:href="#New_Gradient_Swatch_1"/><linearGradient id="New_Gradient_Swatch_1-12" x1="-6.64" y1="-82.38" x2="359.39" y2="955.71" gradientTransform="translate(174.55 -6.81) rotate(45)" xlink:href="#New_Gradient_Swatch_1"/><linearGradient id="New_Gradient_Swatch_1-13" x1="-6.64" y1="-82.38" x2="359.39" y2="955.68" gradientTransform="translate(174.55 -6.82) rotate(45)" xlink:href="#New_Gradient_Swatch_1"/><linearGradient id="New_Gradient_Swatch_1-14" x1="330.66" y1="-131.78" x2="596.18" y2="621.26" xlink:href="#New_Gradient_Swatch_1"/><linearGradient id="New_Gradient_Swatch_1-15" x1="-166.66" y1="-29.95" x2="199.37" y2="1008.13" xlink:href="#New_Gradient_Swatch_1"/><linearGradient id="New_Gradient_Swatch_1-16" x1="-118.28" y1="-47.02" x2="247.75" y2="991.08" gradientTransform="translate(423.46 96.29) rotate(45)" xlink:href="#New_Gradient_Swatch_1"/><linearGradient id="New_Gradient_Swatch_1-17" x1="-118.28" y1="-47" x2="247.75" y2="991.06" gradientTransform="translate(423.45 96.29) rotate(45)" xlink:href="#New_Gradient_Swatch_1"/><linearGradient id="New_Gradient_Swatch_1-18" x1="-242.49" y1="-6.15" x2="123.52" y2="1031.88" xlink:href="#New_Gradient_Swatch_1"/><linearGradient id="New_Gradient_Swatch_1-19" x1="-282.09" y1="7.74" x2="83.94" y2="1045.84" xlink:href="#New_Gradient_Swatch_1"/><linearGradient id="New_Gradient_Swatch_1-20" x1="-318.98" y1="20.82" x2="47.03" y2="1058.85" xlink:href="#New_Gradient_Swatch_1"/><linearGradient id="New_Gradient_Swatch_1-21" x1="-242.15" y1="-6.3" x2="123.87" y2="1031.76" gradientTransform="translate(700.65 211.11) rotate(45)" xlink:href="#New_Gradient_Swatch_1"/><linearGradient id="New_Gradient_Swatch_1-22" x1="-242.15" y1="-6.3" x2="123.87" y2="1031.76" gradientTransform="translate(700.64 211.1) rotate(45)" xlink:href="#New_Gradient_Swatch_1"/></defs><title>wndianway</title><g id="Layer_2" data-name="Layer 2"><g id="Layer_1-2" data-name="Layer 1"><rect class="cls-1" x="119" y="50" width="6" height="6"/><path class="cls-2" d="M110,56H99V50h11ZM90,56H79V50H90ZM70,56H59V50H70ZM50,56H39V50H50ZM30,56H19V50H30Z"/><rect class="cls-3" x="232" y="50" width="6" height="6"/><path class="cls-4" d="M223,56H212V50h11Zm-20,0H192V50h11Zm-20,0H172V50h11Zm-20,0H152V50h11Zm-20,0H132V50h11Z"/><rect class="cls-5" x="345" y="50" width="6" height="6"/><path class="cls-6" d="M336,56H325V50h11Zm-20,0H305V50h11Zm-20,0H285V50h11Zm-20,0H265V50h11Zm-20,0H245V50h11Z"/><path class="cls-7" d="M389,56H378V50h11Zm-20,0H358V50h11Z"/><polygon class="cls-8" points="6 59 0 59 0 50 9 50 9 56 6 56 6 59"/><path class="cls-9" d="M6,939H0V927H6Zm0-22H0V905H6Zm0-22H0V883H6Zm0-22H0V861H6Zm0-22H0V839H6Zm0-22H0V817H6Zm0-22H0V795H6Zm0-22H0V773H6Zm0-22H0V751H6Zm0-22H0V729H6Zm0-22H0V707H6Zm0-22H0V685H6Zm0-22H0V663H6Zm0-22H0V641H6Zm0-22H0V619H6Zm0-22H0V597H6Zm0-22H0V575H6Zm0-22H0V553H6Zm0-22H0V531H6Zm0-22H0V509H6Zm0-22H0V487H6Zm0-22H0V465H6Zm0-22H0V443H6Zm0-22H0V421H6Zm0-22H0V399H6Zm0-22H0V377H6Zm0-22H0V355H6Zm0-22H0V333H6Zm0-22H0V311H6Zm0-22H0V289H6Zm0-22H0V267H6Zm0-22H0V245H6Zm0-22H0V223H6Zm0-22H0V201H6Zm0-22H0V179H6Zm0-22H0V157H6Zm0-22H0V135H6Zm0-22H0V113H6Zm0-22H0V91H6ZM6,81H0V69H6ZM6,70H0V69H6Z"/><rect class="cls-10" y="948" width="6" height="6"/><path class="cls-11" d="M76,210H64v-6H76Zm-22,0H42v-6H54Zm-22,0H20v-6H32Zm-22,0H6v-6h4Z"/><rect class="cls-12" x="92.5" y="190.25" width="6" height="34.08" transform="translate(-118.6 128.25) rotate(-45)"/><rect class="cls-13" x="78.46" y="204.29" width="34.08" height="6" transform="translate(-118.6 128.24) rotate(-45)"/><path class="cls-14" d="M390,0V12h-6V0Zm0,22V34h-6V22Zm0,22V56h-6V44Z"/><path class="cls-15" d="M76,562H64v-6H76Zm-22,0H42v-6H54Zm-22,0H20v-6H32Zm-22,0H6v-6h4Z"/><rect class="cls-16" x="92.5" y="542.25" width="6" height="34.08" transform="translate(-367.51 231.35) rotate(-45)"/><rect class="cls-17" x="78.46" y="556.29" width="34.08" height="6" transform="translate(-367.51 231.35) rotate(-45)"/><rect class="cls-18" x="92" y="948" width="6" height="6"/><path class="cls-19" d="M81,954H68v-6H81Zm-24,0H44v-6H57Zm-24,0H20v-6H33Z"/><rect class="cls-20" x="6" y="948" width="6" height="6"/><rect class="cls-21" x="92.5" y="934.25" width="6" height="34.08" transform="translate(-644.7 346.17) rotate(-45)"/><rect class="cls-22" x="78.46" y="948.29" width="34.08" height="6" transform="translate(-644.7 346.16) rotate(-45)"/></g></g></svg>