<?xml version="1.0" encoding="UTF-8"?>
<svg width="421px" height="300px" enable-background="new 0 0 841.891 595.279" version="1.1" viewBox="0 0 841.891 595.279" xml:space="preserve" xmlns="http://www.w3.org/2000/svg" xmlns:cc="http://creativecommons.org/ns#" xmlns:dc="http://purl.org/dc/elements/1.1/" xmlns:rdf="http://www.w3.org/1999/02/22-rdf-syntax-ns#"><metadata><rdf:RDF><cc:Work rdf:about=""><dc:format>image/svg+xml</dc:format><dc:type rdf:resource="http://purl.org/dc/dcmitype/StillImage"/></cc:Work></rdf:RDF></metadata><linearGradient id="a" x1="1.2439" x2="2.2439" y1="594.59" y2="594.59" gradientTransform="matrix(822.21 0 0 -571.13 -1012.4 3.3989e5)" gradientUnits="userSpaceOnUse"><stop stop-color="#DF1F1B" offset="0"><animate attributeName="stop-color" dur="10s" repeatCount="indefinite" values="#DF1F1B;#EA7D1A;#FFCD03; #81B725; #FFCD03;#EA7D1A;#DF1F1B"/></stop><stop stop-color="#EA7D1A" offset=".5537"><animate attributeName="stop-color" dur="10s" repeatCount="indefinite" values="#EA7D1A;#FFCD03;#81B725; #079239; #81B725;#FFCD03;#EA7D1A;"/></stop><stop stop-color="#FFCD03" offset="1"><animate attributeName="stop-color" dur="10s" repeatCount="indefinite" values="#FFCD03;#81B725;#079239; #3F95D1; #079239;#81B725;#FFCD03"/></stop></linearGradient><filter x="-.25" y="-.25" width="1.5" height="1.5"><feGaussianBlur in="SourceAlpha" result="blur" stdDeviation="2.5"/><feColorMatrix result="bluralpha" values="1 0 0 0   0              0 1 0 0   0              0 0 1 0   0              0 0 0 0.4 0 "/><feOffset dx="3" dy="3" in="bluralpha" result="offsetBlur"/><feMerge><feMergeNode in="offsetBlur"/><feMergeNode in="SourceGraphic"/></feMerge></filter><path d="m829.53 283.31c-0.991-2.185-2.202-4.297-3.673-6.284l-188.91-252.24c-6.297-8.39-16.17-13.348-26.641-13.348-10.51 0-20.396 4.958-26.687 13.348l-196.23 262.04c-5.578-1.342-11.134-2.599-16.654-3.767-105.4-22.337-203.81-9.493-281.44 12.38l-3.938 1.561 147.27-196.84 0.347 0.432 126.47 167.17 41.565-55.491-141.7-187.31c-0.562-0.727-1.165-1.4-1.745-2.083-0.146-0.143-0.246-0.275-0.379-0.438-6.288-6.943-15.229-11.003-24.687-11.003h-0.081c-10.458 0.04-20.312 4.97-26.587 13.348l-188.89 252.24c-4.441 5.927-6.669 12.953-6.669 19.975 0 7.03 2.228 14.054 6.669 19.97l173.92 232.28 14.972 19.968c1.841 2.463 4.021 4.595 6.403 6.428 4.575 3.508 9.975 5.798 15.73 6.576 0.456 0.062 0.919 0.134 1.396 0.165 0.505 0.029 0.999 0.062 1.502 0.087 0.539 0.021 1.083 0.062 1.636 0.062v0.031c1.463 0 2.933-0.117 4.374-0.314 0.266-0.028 0.552-0.102 0.811-0.134 0.62-0.094 1.204-0.283 1.824-0.417 0.975-0.212 1.974-0.438 2.952-0.736 1.2-0.369 2.396-0.795 3.553-1.309 0.276-0.134 0.584-0.234 0.842-0.378 0.496-0.228 0.991-0.487 1.482-0.747 0.604-0.338 1.215-0.685 1.808-1.054 0.376-0.244 0.737-0.465 1.117-0.729 0.741-0.504 1.494-1.059 2.202-1.633 0.377-0.272 0.727-0.621 1.083-0.928 1.685-1.495 3.251-3.132 4.628-4.974l152.31-203.4c1.687-3.194 3.847-6.175 6.562-8.764l36.554-48.843c114.38 34.122 223.82 22.215 301.49-10.418l1.451-0.796-147.4 196.86-20.409-26.95-12.78-16.843-94.146-123.9-18.125 24.201-3.036 4.036-20.229 27.029 142.31 187.94c6.298 8.314 16.127 13.199 26.577 13.199h0.062c10.482-0.023 20.315-4.963 26.577-13.35l188.91-252.24c4.425-5.924 6.635-12.944 6.627-19.978-1e-3 -4.678-0.981-9.337-2.955-13.687" fill="url(#a)"/><path transform="matrix(1.9997 0 0 1.9997 0 -2.3217)" d="m304.97 6.9238c-1.2293-0.00136-2.4682 0.14335-3.6973 0.42188-5e-3 0.00104-9e-3 0.00286-0.0137 0.00391-0.35786 0.081407-0.71274 0.19728-1.0684 0.30273-2.0344 0.64013-3.9316 1.6612-5.584 3.0176l9.9883 13.244-0.0273 0.01367 95.039 124.44-94.957 127.39v0.0488l-9.8008 13.078c2.9115 2.302 6.5412 3.5996 10.34 3.5996h0.0312c5.2417-0.0115 10.16-2.4817 13.291-6.6758l94.465-126.14c2.2128-2.9624 3.3184-6.4728 3.3144-9.9902-5e-4 -2.3393-0.49139-4.6685-1.4785-6.8438-0.49557-1.0926-1.1004-2.149-1.8359-3.1426l-52.803-70.506-41.826-55.572c-0.27903-0.36155-0.76696-0.92767-1.0625-1.2617-3.2674-3.5079-7.7222-5.4227-12.314-5.4277zm-4.7793 0.72852c-0.32622 0.097386-0.65113 0.20013-0.97461 0.31836 0.32363-0.11388 0.64834-0.22161 0.97461-0.31836zm-0.97461 0.31836c-0.42734 0.15037-0.85245 0.3143-1.2734 0.50586 0.42048-0.19222 0.84709-0.35003 1.2734-0.50586zm-182.93-1.0195c-3.5717-0.00395-7.226 1.1492-10.469 3.6074l10.096 13.383-0.0293 0.01563 74.002 97.547 10.635-14.195-70.857-93.668c-0.27904-0.36155-0.76697-0.92572-1.0625-1.2598-3.2674-3.5079-7.7222-5.4246-12.314-5.4297zm180.97 1.8535c-0.0989 0.050475-0.19844 0.095857-0.29688 0.14844 0.0984-0.052339 0.19805-0.098207 0.29688-0.14844zm-1.3652 0.77148c-0.10205 0.063799-0.20328 0.12912-0.30468 0.19531 0.10118-0.065923 0.20285-0.1318 0.30468-0.19531zm-2.6699 38.223c-4.8478 0.22921-9.5584 2.5421-12.691 6.7305l-164.69 220.94v0.0488l-9.9727 13.307c2.2723 1.7522 5.3397 3.0712 8.2051 3.4688 0.23753 0.0255 0.46528 0.0562 0.69531 0.0762 0.24553 0.0235 0.49802 0.031 0.74805 0.041 0.27103 0.013 0.53992 0.0293 0.81445 0.0293v0.0176c0.7386 0 1.4625-0.0561 2.1836-0.16015 0.13202-0.012 0.26638-0.0436 0.4004-0.0606 0.30904-0.054 0.60221-0.14193 0.90624-0.21094 0.49357-0.10651 0.98815-0.21621 1.4707-0.36523 0.60508-0.19302 1.1993-0.40067 1.7754-0.6582 0.13852-0.0615 0.28586-0.11423 0.42187-0.17774 0.24654-0.12101 0.49189-0.25279 0.73243-0.38281 0.30353-0.16652 0.6053-0.33005 0.90234-0.51758 0.18702-0.11701 0.37466-0.23822 0.55469-0.36523 0.37855-0.25604 0.74651-0.52246 1.1016-0.8125 0.18152-0.14652 0.36109-0.31137 0.53711-0.46289 0.84161-0.7426 1.6176-1.5624 2.3047-2.4766l97.701-130.52s41.427 12.153 74.432 10.402c53.808-2.8534 77.061-16.012 77.061-16.012l-74.715-98.537c-3.2572-2.4387-7.1103-3.5201-10.881-3.3418zm-187.94 2e-3c-4.8466 0.22922-9.5579 2.5402-12.693 6.7285l-68.898 94.617 69.183 92.494c10.638 13.102 19.256 9.411 31.418-6.4034l69.426-90.645s-24.141-7.343-71.984-7.5801c-34.501-0.17102-79.051 12.668-79.051 12.668l73.645-98.434-0.16992-0.10352c-3.2552-2.4387-7.1054-3.5201-10.875-3.3418zm376.75 0.28906c-0.57248 0.02711-1.1427 0.08896-1.709 0.17383 0.5664-0.0849 1.1364-0.14671 1.709-0.17383zm-2.291 0.28511c-0.37066 0.06889-0.73991 0.13886-1.1055 0.23242 0.36515-0.09345 0.73523-0.1636 1.1055-0.23242zm-1.7695 0.42773c-0.33751 0.10127-0.6727 0.20759-1.0039 0.33008 0.33087-0.12234 0.66675-0.22891 1.0039-0.33008zm11.629 0.70898c0.18707 0.08254 0.37565 0.16017 0.56055 0.25-0.18499-0.08986-0.37339-0.16744-0.56055-0.25zm-13.781 0.08203c-0.0495 0.02258-0.0971 0.04919-0.14648 0.07227 0.0493-0.02308 0.0969-0.04968 0.14648-0.07227zm15.266 0.66211c0.16122 0.09115 0.32529 0.17448 0.48437 0.27148-0.15924-0.0971-0.32299-0.18026-0.48437-0.27148zm-16.672 0.06445c-0.0382 0.02201-0.0772 0.04213-0.11523 0.06445 0.038-0.02227 0.0771-0.0425 0.11523-0.06445zm-1.3691 0.88281c-0.0533 0.03803-0.10724 0.07457-0.16015 0.11328 0.0529-0.0387 0.10687-0.07525 0.16015-0.11328zm-1.3066 1.0332c-0.0631 0.05528-0.12512 0.11162-0.1875 0.16797 0.0623-0.05628 0.12451-0.11276 0.1875-0.16797zm-1.252 1.2148c-0.0391 0.04216-0.0765 0.08627-0.11524 0.12891 0.0387-0.04261 0.0762-0.08678 0.11524-0.12891zm-229.05 110.81l-9.0625 12.102-1.5195 2.0176 49.664 65.738c5.6137 7.4125 17.179 9.6102 24.594 4l-10.875-14.359-0.18945-0.25-6.1836-8.1465z" fill="#46565f" opacity=".3" stroke-width=".50006"/></svg>
