<svg xmlns="http://www.w3.org/2000/svg" xmlns:xlink="http://www.w3.org/1999/xlink" viewBox="0 0 632.86 215.63"><defs><style>.cls-1{fill:#1a1a1a;}.cls-2{fill:url(#New_Gradient_Swatch_1);}.cls-3{fill:url(#New_Gradient_Swatch_1-2);}.cls-4{fill:#e2640f;}.cls-5{fill:url(#New_Gradient_Swatch_1-3);}.cls-6{fill:url(#New_Gradient_Swatch_1-4);}.cls-7{fill:url(#New_Gradient_Swatch_1-5);}.cls-8{fill:url(#New_Gradient_Swatch_1-6);}.cls-9{fill:url(#New_Gradient_Swatch_1-7);}.cls-10{fill:url(#New_Gradient_Swatch_1-8);}.cls-11{fill:url(#New_Gradient_Swatch_1-9);}</style><linearGradient id="New_Gradient_Swatch_1" x1="-470.6" y1="-39.26" x2="1325.95" y2="353.02" gradientUnits="userSpaceOnUse"><stop offset="0" stop-color="#d3161a"/><stop offset="0.23" stop-color="#e2640f"/><stop offset="0.42" stop-color="#ffcd0b"/><stop offset="0.45" stop-color="#fdcd0c"/><stop offset="0.48" stop-color="#f6cb0f"/><stop offset="0.51" stop-color="#e9c814"/><stop offset="0.53" stop-color="#d7c41a"/><stop offset="0.55" stop-color="#bebd22"/><stop offset="0.57" stop-color="#9bb529"/><stop offset="0.59" stop-color="#68aa31"/><stop offset="0.6" stop-color="#4fa534"/><stop offset="0.64" stop-color="#3e9937"/><stop offset="0.72" stop-color="#1b853a"/><stop offset="0.78" stop-color="#057e3b"/><stop offset="0.8" stop-color="#0a7e3f"/><stop offset="0.83" stop-color="#157f4a"/><stop offset="0.86" stop-color="#1f815f"/><stop offset="0.91" stop-color="#2a857d"/><stop offset="0.95" stop-color="#3789a2"/><stop offset="1" stop-color="#478dcb"/></linearGradient><linearGradient id="New_Gradient_Swatch_1-2" x1="-478.34" y1="-3.76" x2="1318.17" y2="388.51" xlink:href="#New_Gradient_Swatch_1"/><linearGradient id="New_Gradient_Swatch_1-3" x1="-469.27" y1="-45.31" x2="1327.26" y2="346.96" xlink:href="#New_Gradient_Swatch_1"/><linearGradient id="New_Gradient_Swatch_1-4" x1="-473.81" y1="-24.57" x2="1322.74" y2="367.7" xlink:href="#New_Gradient_Swatch_1"/><linearGradient id="New_Gradient_Swatch_1-5" x1="-455.75" y1="-107.19" x2="1340.76" y2="285.08" xlink:href="#New_Gradient_Swatch_1"/><linearGradient id="New_Gradient_Swatch_1-6" x1="-470.69" y1="-38.79" x2="1325.81" y2="353.48" xlink:href="#New_Gradient_Swatch_1"/><linearGradient id="New_Gradient_Swatch_1-7" x1="-461.25" y1="-82.2" x2="1335.33" y2="310.09" xlink:href="#New_Gradient_Swatch_1"/><linearGradient id="New_Gradient_Swatch_1-8" x1="-464.21" y1="-68.49" x2="1332.32" y2="323.79" xlink:href="#New_Gradient_Swatch_1"/><linearGradient id="New_Gradient_Swatch_1-9" x1="-457.28" y1="-100.37" x2="1339.3" y2="291.91" xlink:href="#New_Gradient_Swatch_1"/></defs><title>farfetch</title><g id="Layer_2" data-name="Layer 2"><g id="Layer_1-2" data-name="Layer 1"><rect class="cls-1" width="632.86" height="215.63"/><polygon class="cls-2" points="111.49 78.38 85.17 78.38 85.17 91.56 111.49 91.56 111.49 78.38"/><polygon class="cls-3" points="72 91.56 72 144.13 85.17 144.13 85.17 117.86 104.93 117.86 104.93 104.67 85.17 104.67 85.17 91.56 72 91.56"/><polygon class="cls-4" points="85.18 78.38 85.18 91.56 72 91.56 85.18 78.38"/><polygon class="cls-5" points="271.38 91.56 271.38 144.13 284.55 144.13 284.55 117.86 304.3 117.86 304.3 104.67 284.55 104.67 284.55 91.56 271.38 91.56"/><polygon class="cls-4" points="161.41 78.38 161.41 91.56 174.59 91.56 161.41 78.38"/><polygon class="cls-6" points="161.41 91.56 161.41 104.67 148.31 104.67 148.31 91.56 148.31 91.56 161.41 91.56 161.41 78.38 148.31 78.38 148.31 78.38 135.14 91.56 135.14 144.13 148.31 144.13 148.31 117.86 161.41 117.86 161.41 144.13 174.59 144.13 174.59 91.56 161.41 91.56"/><polygon class="cls-7" points="524.99 78.38 524.99 144.13 538.16 144.13 538.16 117.86 551.26 117.86 551.26 144.13 564.44 144.13 564.44 78.38 551.26 78.38 551.26 104.67 538.16 104.67 538.16 78.38 538.16 78.38 524.99 78.38"/><polygon class="cls-8" points="216.43 104.67 216.43 91.56 229.66 91.56 229.66 91.56 229.66 104.67 242.83 104.67 242.83 91.56 242.83 91.56 229.66 78.38 229.66 78.38 203.3 78.38 203.3 144.13 216.43 144.13 216.43 117.86 229.66 117.86 229.66 117.86 229.66 117.86 229.66 144.13 242.83 144.13 242.83 117.86 229.66 104.67 216.43 104.67"/><polygon class="cls-4" points="310.86 78.38 284.55 78.38 271.38 91.56 284.55 91.56 284.55 91.56 310.86 91.56 310.86 78.38"/><polygon class="cls-9" points="437.89 78.38 398.45 78.38 398.4 91.56 411.56 91.56 411.56 144.13 424.74 144.13 424.74 91.56 437.89 91.56 437.89 78.38"/><polygon class="cls-4" points="501.54 144.13 475.23 144.13 475.23 144.13 462.06 130.97 475.23 130.97 475.23 130.97 501.54 130.97 501.54 144.13"/><polygon class="cls-10" points="345.83 130.97 345.83 130.97 345.83 130.97 345.83 117.86 365.59 117.86 365.59 104.67 345.83 104.67 345.83 91.56 345.83 91.56 345.83 91.56 372.15 91.56 372.15 78.38 345.83 78.38 345.83 78.38 332.66 91.56 332.65 91.56 332.65 130.97 332.66 130.97 345.83 144.13 345.83 144.13 372.15 144.13 372.15 130.97 345.83 130.97"/><polygon class="cls-11" points="475.22 78.38 475.22 78.38 462.06 91.56 462.06 130.97 475.23 130.97 475.23 91.56 501.54 91.56 501.54 78.38 475.22 78.38"/></g></g></svg>