<svg xmlns="http://www.w3.org/2000/svg" xmlns:xlink="http://www.w3.org/1999/xlink" viewBox="0 0 492.44 65.75"><defs><style>.cls-1{fill:url(#New_Gradient_Swatch_1);}.cls-2{fill:url(#New_Gradient_Swatch_1-2);}.cls-3{fill:#e2640f;}.cls-4{fill:url(#New_Gradient_Swatch_1-3);}.cls-5{fill:url(#New_Gradient_Swatch_1-4);}.cls-6{fill:url(#New_Gradient_Swatch_1-5);}.cls-7{fill:url(#New_Gradient_Swatch_1-6);}.cls-8{fill:url(#New_Gradient_Swatch_1-7);}.cls-9{fill:url(#New_Gradient_Swatch_1-8);}.cls-10{fill:url(#New_Gradient_Swatch_1-9);}</style><linearGradient id="New_Gradient_Swatch_1" x1="-542.6" y1="-117.64" x2="1253.95" y2="274.64" gradientUnits="userSpaceOnUse"><stop offset="0" stop-color="#d3161a"/><stop offset="0.23" stop-color="#e2640f"/><stop offset="0.42" stop-color="#ffcd0b"/><stop offset="0.45" stop-color="#fdcd0c"/><stop offset="0.48" stop-color="#f6cb0f"/><stop offset="0.51" stop-color="#e9c814"/><stop offset="0.53" stop-color="#d7c41a"/><stop offset="0.55" stop-color="#bebd22"/><stop offset="0.57" stop-color="#9bb529"/><stop offset="0.59" stop-color="#68aa31"/><stop offset="0.6" stop-color="#4fa534"/><stop offset="0.64" stop-color="#3e9937"/><stop offset="0.72" stop-color="#1b853a"/><stop offset="0.78" stop-color="#057e3b"/><stop offset="0.8" stop-color="#0a7e3f"/><stop offset="0.83" stop-color="#157f4a"/><stop offset="0.86" stop-color="#1f815f"/><stop offset="0.91" stop-color="#2a857d"/><stop offset="0.95" stop-color="#3789a2"/><stop offset="1" stop-color="#478dcb"/></linearGradient><linearGradient id="New_Gradient_Swatch_1-2" x1="-550.33" y1="-82.14" x2="1246.18" y2="310.13" xlink:href="#New_Gradient_Swatch_1"/><linearGradient id="New_Gradient_Swatch_1-3" x1="-541.27" y1="-123.69" x2="1255.26" y2="268.58" xlink:href="#New_Gradient_Swatch_1"/><linearGradient id="New_Gradient_Swatch_1-4" x1="-545.8" y1="-102.96" x2="1250.74" y2="289.32" xlink:href="#New_Gradient_Swatch_1"/><linearGradient id="New_Gradient_Swatch_1-5" x1="-527.75" y1="-185.58" x2="1268.76" y2="206.7" xlink:href="#New_Gradient_Swatch_1"/><linearGradient id="New_Gradient_Swatch_1-6" x1="-542.68" y1="-117.17" x2="1253.82" y2="275.1" xlink:href="#New_Gradient_Swatch_1"/><linearGradient id="New_Gradient_Swatch_1-7" x1="-533.24" y1="-160.58" x2="1263.34" y2="231.71" xlink:href="#New_Gradient_Swatch_1"/><linearGradient id="New_Gradient_Swatch_1-8" x1="-536.21" y1="-146.87" x2="1260.32" y2="245.4" xlink:href="#New_Gradient_Swatch_1"/><linearGradient id="New_Gradient_Swatch_1-9" x1="-529.27" y1="-178.75" x2="1267.3" y2="213.53" xlink:href="#New_Gradient_Swatch_1"/></defs><title>farfetch</title><g id="Layer_2" data-name="Layer 2"><g id="Layer_1-2" data-name="Layer 1"><polygon class="cls-1" points="39.49 0 13.17 0 13.17 13.18 39.49 13.18 39.49 0"/><polygon class="cls-2" points="0 13.18 0 65.75 13.17 65.75 13.17 39.48 32.93 39.48 32.93 26.29 13.17 26.29 13.17 13.18 0 13.18"/><polygon class="cls-3" points="13.18 0 13.18 13.18 0 13.18 13.18 0"/><polygon class="cls-4" points="199.38 13.18 199.38 65.75 212.55 65.75 212.55 39.48 232.31 39.48 232.31 26.29 212.55 26.29 212.55 13.18 199.38 13.18"/><polygon class="cls-3" points="89.42 0 89.42 13.18 102.6 13.18 89.42 0"/><polygon class="cls-5" points="89.42 13.18 89.42 26.29 76.32 26.29 76.32 13.18 76.32 13.18 89.42 13.18 89.42 0 76.32 0 76.32 0 63.14 13.18 63.14 65.75 76.32 65.75 76.32 39.48 89.42 39.48 89.42 65.75 102.6 65.75 102.6 13.18 89.42 13.18"/><polygon class="cls-6" points="452.99 0 452.99 65.75 466.16 65.75 466.16 39.48 479.26 39.48 479.26 65.75 492.44 65.75 492.44 0 479.26 0 479.26 26.29 466.16 26.29 466.16 0 466.16 0 452.99 0"/><polygon class="cls-7" points="144.43 26.29 144.43 13.18 157.67 13.18 157.67 13.18 157.67 26.29 170.84 26.29 170.84 13.18 170.84 13.18 157.67 0 157.67 0 131.3 0 131.3 65.75 144.43 65.75 144.43 39.48 157.67 39.48 157.67 39.48 157.67 39.48 157.67 65.75 170.84 65.75 170.84 39.48 157.67 26.29 144.43 26.29"/><polygon class="cls-3" points="238.86 0 212.55 0 199.38 13.18 212.55 13.18 212.55 13.18 238.86 13.18 238.86 0"/><polygon class="cls-8" points="365.89 0 326.45 0 326.4 13.18 339.56 13.18 339.56 65.75 352.74 65.75 352.74 13.18 365.89 13.18 365.89 0"/><polygon class="cls-3" points="429.55 65.75 403.23 65.75 403.23 65.75 390.06 52.59 403.24 52.59 403.24 52.59 429.55 52.59 429.55 65.75"/><polygon class="cls-9" points="273.83 52.59 273.83 52.59 273.83 52.59 273.83 39.48 293.59 39.48 293.59 26.29 273.83 26.29 273.83 13.18 273.83 13.18 273.83 13.18 300.15 13.18 300.15 0 273.83 0 273.83 0 260.66 13.18 260.65 13.18 260.65 52.59 260.67 52.59 273.83 65.75 273.83 65.75 300.15 65.75 300.15 52.59 273.83 52.59"/><polygon class="cls-10" points="403.23 0 403.23 0 390.06 13.18 390.06 52.59 403.24 52.59 403.24 13.18 429.54 13.18 429.54 0 403.23 0"/></g></g></svg>