<svg xmlns="http://www.w3.org/2000/svg" viewBox="0 0 633 215"><defs><style>.cls-1{fill:#1a1a1a;}</style></defs><title>farfetch</title><g id="Layer_2" data-name="Layer 2"><g id="Layer_1-2" data-name="Layer 1"><path class="cls-1" d="M0,215H633V0H0ZM525,78h13v27h13V78h13v66H551V118H538v26H525ZM462,91.39,475,78h26V91H475v40h26v13H475.05L462,130.8ZM398.27,78H438V91H425v53H411V91H398.22ZM332,91h.48l13.17-13H372V91H346v14h19v13H346v13h26v13H345.65l-13.17-13H332Zm-61,.39L284.37,78H311V91H284v14h20v13H284v26H271ZM203,78h26.48L243,91.39V105H229.48L243,117.68V144H229V118H216v26H203ZM135,91.39,148.13,78h13.1L174,91.39V144H161V118H148v26H135ZM72,91h-.18L85,78.21V78h26V91H85v14h20v13H85v26H72Z"/></g></g></svg>