<svg xmlns="http://www.w3.org/2000/svg" viewBox="0 0 540 540"><defs><style>.cls-1{fill:#29353a;}</style></defs><title>farfetch</title><g id="Layer_2" data-name="Layer 2"><g id="Layer_1-2" data-name="Layer 1"><path class="cls-1" d="M0,540H540V0H0ZM448,254h11v23h11V254h11v56H470V288H459v22H448Zm-54,11.53L405.13,254H428v11H405v34h23v11H405.14L394,299.08ZM339.79,254H373v11H362v45H350V265H339.75ZM283,265h.79L295,254h23v11H296v12h16v11H296v11h22v11H295l-11.2-11H283Zm-51,.53L242.84,254H265v11H243v12h17v11H243v22H232ZM174,254h22.13L207,265.53V277H196.13L207,287.92V310H195V288H185v22H174Zm-58,11.53L126.89,254H138l11,11.53V310H137V288H127v22H116ZM62,265h-.07L73,254.32V254H95v11H73v12H90v11H73v22H62Z"/><rect class="cls-1" x="127" y="265" width="10" height="12"/><rect class="cls-1" x="185" y="265" width="10" height="12"/></g></g></svg>