<svg xmlns="http://www.w3.org/2000/svg" viewBox="0 0 1831.15 123.37"><title>fog</title><g id="Layer_2" data-name="Layer 2"><g id="Layer_1-2" data-name="Layer 1"><path d="M856.44,51.9a76.54,76.54,0,0,0-32.08,6.94,71.32,71.32,0,0,0-55.6-26.65A65.49,65.49,0,0,0,752,34.24V30.13C735,11.72,713,0,687.19,0a84.08,84.08,0,0,0-79,55.29,71.1,71.1,0,0,0-17.69-2.22,69.81,69.81,0,0,0-38.82,11.71,47.61,47.61,0,0,0-75.79,19c-1.13-.06-2.28-.09-3.44-.09a70.11,70.11,0,0,0-16.63,2,88.79,88.79,0,0,0-156.5-13.29,57.73,57.73,0,0,0-41.67,2.48,54.28,54.28,0,0,0-94.49,20.37A54.27,54.27,0,0,0,77.64,105a63.68,63.68,0,0,0-28-6.43c-20,0-38.8,9.09-49.66,23.37v1.4H933.15C930.29,82.37,897.05,51.9,856.44,51.9Z"/><path d="M1754.44,51.9a76.54,76.54,0,0,0-32.08,6.94,71.32,71.32,0,0,0-55.6-26.65A65.49,65.49,0,0,0,1650,34.24V30.13C1633,11.72,1611,0,1585.19,0a84.08,84.08,0,0,0-79,55.29,71.1,71.1,0,0,0-17.69-2.22,69.81,69.81,0,0,0-38.82,11.71,47.61,47.61,0,0,0-75.79,19c-1.13-.06-2.28-.09-3.44-.09a70.11,70.11,0,0,0-16.63,2,88.79,88.79,0,0,0-156.5-13.29,57.73,57.73,0,0,0-41.67,2.48,54.28,54.28,0,0,0-94.49,20.37A54.27,54.27,0,0,0,975.64,105a63.68,63.68,0,0,0-28-6.43c-20,0-38.8,9.09-49.66,23.37v1.4h933.15C1828.29,82.37,1795.05,51.9,1754.44,51.9Z"/></g></g></svg>