<svg xmlns="http://www.w3.org/2000/svg" xmlns:xlink="http://www.w3.org/1999/xlink" viewBox="0 0 713 629.15"><defs><style>.cls-1{fill:url(#New_Gradient_Swatch_1);}.cls-2{fill:url(#New_Gradient_Swatch_1-2);}.cls-3{fill:url(#New_Gradient_Swatch_1-3);}.cls-4{fill:url(#New_Gradient_Swatch_1-4);}</style><linearGradient id="New_Gradient_Swatch_1" x1="-728.75" y1="-154.02" x2="807.4" y2="590.05" gradientUnits="userSpaceOnUse"><stop offset="0" stop-color="#d3161a"/><stop offset="0.23" stop-color="#e2640f"/><stop offset="0.42" stop-color="#ffcd0b"/><stop offset="0.45" stop-color="#fdcd0c"/><stop offset="0.48" stop-color="#f6cb0f"/><stop offset="0.51" stop-color="#e9c814"/><stop offset="0.53" stop-color="#d7c41a"/><stop offset="0.55" stop-color="#bebd22"/><stop offset="0.57" stop-color="#9bb529"/><stop offset="0.59" stop-color="#68aa31"/><stop offset="0.6" stop-color="#4fa534"/><stop offset="0.64" stop-color="#3e9937"/><stop offset="0.72" stop-color="#1b853a"/><stop offset="0.78" stop-color="#057e3b"/><stop offset="0.8" stop-color="#0a7e3f"/><stop offset="0.83" stop-color="#157f4a"/><stop offset="0.86" stop-color="#1f815f"/><stop offset="0.91" stop-color="#2a857d"/><stop offset="0.95" stop-color="#3789a2"/><stop offset="1" stop-color="#478dcb"/></linearGradient><linearGradient id="New_Gradient_Swatch_1-2" x1="-626.68" y1="-364.05" x2="909.47" y2="380.02" xlink:href="#New_Gradient_Swatch_1"/><linearGradient id="New_Gradient_Swatch_1-3" x1="-604.83" y1="-409.23" x2="931.36" y2="334.86" xlink:href="#New_Gradient_Swatch_1"/><linearGradient id="New_Gradient_Swatch_1-4" x1="-630.28" y1="-356.61" x2="905.86" y2="387.46" xlink:href="#New_Gradient_Swatch_1"/></defs><title>implementation</title><g id="Layer_2" data-name="Layer 2"><g id="Layer_1-2" data-name="Layer 1"><path class="cls-1" d="M713,629.15H0v-515H713Zm-706-7H706v-501H7Z"/><circle cx="359.67" cy="113.71" r="110.21" transform="translate(24.94 287.63) rotate(-45)"/><path class="cls-2" d="M359.67,227.42A113.71,113.71,0,1,1,473.38,113.71,113.84,113.84,0,0,1,359.67,227.42ZM359.67,7A106.71,106.71,0,1,0,466.38,113.71,106.83,106.83,0,0,0,359.67,7Z"/><path class="cls-3" d="M357.3,73.4a14.24,14.24,0,0,0,14.23-14.22V54.43a14.23,14.23,0,0,0-28.46,0v4.75A14.24,14.24,0,0,0,357.3,73.4Zm-9.48-19a9.49,9.49,0,0,1,19,0v4.75a9.49,9.49,0,0,1-19,0Z"/><path class="cls-4" d="M423,173.68l-4.75-4.74a2.36,2.36,0,0,0-1.67-.69h-3.76l-4.05-4.05a2.37,2.37,0,0,0-1.68-.7h-2.37v-2.37a2.36,2.36,0,0,0-.69-1.67l-4.75-4.75a2.36,2.36,0,0,0-1.67-.69h-2.37v-16.6a11.86,11.86,0,0,0-11.86-11.85h-7.11v-4.75h9.48a7.11,7.11,0,1,0,0-14.22h-9.48v-4.74H397l22.08,57.75,4.43-1.7-21.43-56h2.62a7.12,7.12,0,0,0,0-14.23h-8.06l-4-10.33L388.28,79l3.3,8.64H373.7a19,19,0,0,0-16.4-9.49H328.85V54.43H336a2.37,2.37,0,0,0,2.37-2.37V42.58A2.37,2.37,0,0,0,336,40.21h-9.48a2.37,2.37,0,0,0-2.37,2.37v7.11H298a2.37,2.37,0,0,0-1.68,4.05l7.81,7.81-7.81,7.81a2.36,2.36,0,0,0,0,3.35,2.38,2.38,0,0,0,1.68.69h26.08v4.74H317a7.11,7.11,0,0,0-7.11,7.12V106.6h-4.74a9.49,9.49,0,1,0,0,19h4.74v2.37a7.11,7.11,0,0,0,7.11,7.11h9.49a7.1,7.1,0,0,0,6.67-4.74h5.18V180.1a2.37,2.37,0,0,0,.7,1.68l4.74,4.74a2.38,2.38,0,0,0,1.68.69h19a2.38,2.38,0,0,0,2.38-2.37V180.1a2.41,2.41,0,0,0-.7-1.68l-4.74-4.74a2.4,2.4,0,0,0-1.68-.69H357.3V144.53h19v16.6a2.4,2.4,0,0,0,.69,1.68l3.37,3.36-3.66,5.5a2.38,2.38,0,0,0-.4,1.32v4.74a2.35,2.35,0,0,0,.4,1.31l4.74,7.12a2.36,2.36,0,0,0,2,1.05h33.2a2.36,2.36,0,0,0,1.67-.69l4.75-4.74a2.4,2.4,0,0,0,.69-1.68v-4.74A2.4,2.4,0,0,0,423,173.68ZM328.85,45h4.74v4.74h-4.74ZM400,162.11v1.39H384.36L381,160.15v-1.39h15.62Zm-11.86-48.4a2.37,2.37,0,0,1-2.37,2.37H359.67a4.74,4.74,0,0,1-4.74-4.74V94.74a2.37,2.37,0,0,1,4.74,0V106.6a4.74,4.74,0,0,0,4.74,4.74h21.34A2.37,2.37,0,0,1,388.12,113.71Zm16.6-21.34a2.37,2.37,0,0,1,0,4.74h-4.43l-1.82-4.74Zm-11.32,0,1.81,4.74H376.27a19,19,0,0,0-.63-4.74Zm-21.87,4.74v9.49h-7.12V94.74a7.11,7.11,0,0,0-14.22,0v16.6a9.47,9.47,0,0,0,9.48,9.48h11.86v4.75H343.07V97.11a14.23,14.23,0,0,1,28.46,0Zm-33.2,0v28.46h-4.74V85.26a7.11,7.11,0,0,0-.44-2.37h11.64A18.91,18.91,0,0,0,338.33,97.11ZM303.75,68.66l5.43-5.44a2.36,2.36,0,0,0,0-3.35l-5.43-5.44h20.36V68.66ZM317,82.89h9.49a2.37,2.37,0,0,1,2.37,2.37v35.56H314.62V85.26A2.37,2.37,0,0,1,317,82.89Zm-11.85,37.93a4.74,4.74,0,1,1,0-9.48h4.74v9.48Zm21.34,9.49H317a2.37,2.37,0,0,1-2.37-2.37v-2.37h14.23v2.37A2.37,2.37,0,0,1,326.48,130.31ZM362,181.08v1.39H346.43l-3.36-3.35v-1.39h15.62Zm-7.11-41.29a2.37,2.37,0,0,0-2.37,2.37V173h-9.49V130.31h40.31a7.11,7.11,0,0,1,7.12,7.11V154H381V142.16a2.37,2.37,0,0,0-2.37-2.37Zm64,39.33-3.36,3.35H384.65L381,177V173.7l3.64-5.45h21.46l4.05,4a2.35,2.35,0,0,0,1.67.7h3.76l3.36,3.35Z"/></g></g></svg>