<svg xmlns="http://www.w3.org/2000/svg" viewBox="0 0 236.26 236.26"><title>implementation</title><g id="Layer_2" data-name="Layer 2"><g id="Layer_1-2" data-name="Layer 1"><path d="M157.47,99.76l-2-5.25H135.81a20.61,20.61,0,0,1,.69,5.25Z"/><rect x="84.01" y="42.01" width="5.25" height="5.25"/><path d="M99.76,131.25h31.49V126H118.13a10.5,10.5,0,0,1-10.5-10.5V97.13a7.88,7.88,0,0,1,15.75,0v13.12h7.87V99.76a15.75,15.75,0,1,0-31.49,0Z"/><path d="M81.38,84H70.88a2.62,2.62,0,0,0-2.62,2.62V126H84V86.63A2.62,2.62,0,0,0,81.38,84Z"/><path d="M118.13,110.25V97.13a2.63,2.63,0,0,0-5.25,0V115.5a5.25,5.25,0,0,0,5.25,5.25H147a2.63,2.63,0,1,0,0-5.25H123.38A5.24,5.24,0,0,1,118.13,110.25Z"/><path d="M52.51,120.75A5.25,5.25,0,0,0,57.76,126H63V115.5H57.76A5.26,5.26,0,0,0,52.51,120.75Z"/><path d="M68.26,133.88a2.62,2.62,0,0,0,2.62,2.62h10.5A2.62,2.62,0,0,0,84,133.88v-2.63H68.26Z"/><path d="M78.76,52.51H56.22l6,6a2.63,2.63,0,0,1,0,3.71l-6,6H78.76Z"/><polygon points="141.75 169.54 145.46 173.25 162.75 173.25 162.75 171.71 159.04 168 141.75 168 141.75 169.54"/><path d="M118.13,0A118.13,118.13,0,1,0,236.26,118.13,118.26,118.26,0,0,0,118.13,0ZM99.76,52.51a15.75,15.75,0,1,1,31.49,0v5.25a15.75,15.75,0,1,1-31.49,0ZM189,191.62a2.63,2.63,0,0,1-.77,1.86L183,198.73a2.63,2.63,0,0,1-1.85.77H144.38a2.64,2.64,0,0,1-2.19-1.17l-5.25-7.87a2.72,2.72,0,0,1-.44-1.46v-5.25a2.69,2.69,0,0,1,.44-1.46l4.06-6.08-3.73-3.73a2.63,2.63,0,0,1-.77-1.86V152.25h-21v31.5h2.63a2.65,2.65,0,0,1,1.86.77l5.24,5.25a2.59,2.59,0,0,1,.77,1.85v5.25a2.62,2.62,0,0,1-2.62,2.63h-21a2.61,2.61,0,0,1-1.85-.77l-5.25-5.25a2.59,2.59,0,0,1-.77-1.86V136.5H88.77a7.85,7.85,0,0,1-7.39,5.25H70.88A7.87,7.87,0,0,1,63,133.88v-2.63H57.76a10.5,10.5,0,1,1,0-21H63V86.63a7.87,7.87,0,0,1,7.87-7.87h7.88V73.51H49.89A2.63,2.63,0,0,1,48,69l8.64-8.65L48,51.74a2.62,2.62,0,0,1,1.86-4.48H78.76V39.39a2.62,2.62,0,0,1,2.62-2.63h10.5a2.63,2.63,0,0,1,2.63,2.63v10.5a2.62,2.62,0,0,1-2.63,2.62H84V78.76H115.5a21,21,0,0,1,18.16,10.5h19.8l-3.66-9.57,4.9-1.87,4.38,11.44H168A7.88,7.88,0,0,1,168,105h-2.9l23.73,62.05-4.91,1.88L159.48,105h-23v5.24H147A7.88,7.88,0,1,1,147,126H136.5v5.25h7.88a13.14,13.14,0,0,1,13.12,13.13v18.37h2.62a2.63,2.63,0,0,1,1.86.77l5.25,5.25a2.63,2.63,0,0,1,.77,1.85v2.63h2.62a2.63,2.63,0,0,1,1.86.77L177,178.5h4.17a2.63,2.63,0,0,1,1.85.77l5.25,5.25a2.63,2.63,0,0,1,.77,1.85Z"/><path d="M115.5,68.26A10.5,10.5,0,0,0,126,57.76V52.51a10.5,10.5,0,1,0-21,0v5.25A10.5,10.5,0,0,0,115.5,68.26Z"/><path d="M168,99.76a2.63,2.63,0,0,0,0-5.25h-6.92l2,5.25Z"/><polygon points="99.76 190.54 103.47 194.25 120.75 194.25 120.75 192.71 117.04 189 99.76 189 99.76 190.54"/><path d="M175.87,183.75A2.63,2.63,0,0,1,174,183l-4.48-4.48H145.78l-4,6v3.67l4,6H180l3.71-3.71v-3.08L180,183.75Z"/><path d="M101.66,84H88.77a7.84,7.84,0,0,1,.49,2.62v44.62h5.25V99.76A20.92,20.92,0,0,1,101.66,84Z"/><path d="M141.75,162.75h10.5V144.38a7.87,7.87,0,0,0-7.87-7.88H99.76v47.25h10.5V149.63a2.62,2.62,0,0,1,2.62-2.63h26.25a2.62,2.62,0,0,1,2.62,2.63Z"/></g></g></svg>