<svg xmlns="http://www.w3.org/2000/svg" viewBox="0 0 227.42 227.42"><defs><style>.cls-1{fill:none;stroke:#fff;stroke-miterlimit:10;stroke-width:7px;}.cls-2{fill:#fff;}</style></defs><title>indoctrination</title><g id="Layer_2" data-name="Layer 2"><g id="Layer_1-2" data-name="Layer 1"><circle class="cls-1" cx="113.71" cy="113.71" r="110.21" transform="translate(-47.1 113.71) rotate(-45)"/><path class="cls-2" d="M167.05,78.23h-2.53a16.84,16.84,0,0,0-13.8-29.57,16.49,16.49,0,0,0-13.48,14,16.74,16.74,0,0,0,6,15.63h-.56A19.21,19.21,0,0,0,126,87.83l-3.81,6.6-9.56-5.79A10.26,10.26,0,0,0,102,106.19l.11.08,17.16,10.46a11.85,11.85,0,0,0,15.11-2.59v17a3.49,3.49,0,0,0,7,0V104.06a3.49,3.49,0,0,0-6.24-2.15l-6,7.66a4.86,4.86,0,0,1-6.28,1.19l-17.14-10.54a3.28,3.28,0,1,1,3.33-5.66h0l12.56,7.67a3.49,3.49,0,0,0,4.8-1.16l0-.08,5.58-9.69a12.24,12.24,0,0,1,10.55-6.1h2.32a6.41,6.41,0,0,0,3.49-11.78,9.77,9.77,0,0,1-4.33-9.77,9.62,9.62,0,0,1,7.84-8.11,9.86,9.86,0,0,1,7.29,17.91,6.41,6.41,0,0,0,3.52,11.77H167a12.73,12.73,0,0,1,12.72,12.71v26.8a3.21,3.21,0,0,1-6.42,0h0V103.8a3.49,3.49,0,1,0-7,0v20.93a10.19,10.19,0,0,0,20.38,0h0V97.92A19.71,19.71,0,0,0,167.05,78.23Z"/><path class="cls-2" d="M52.06,184.72a3.48,3.48,0,0,0,3.48-3.49v-3.88a8.88,8.88,0,0,1,8.87-8.86A6.51,6.51,0,0,0,68,156.57a9,9,0,0,1-4-7.39,9.12,9.12,0,0,1,8.67-8.9A8.93,8.93,0,0,1,78,156.62a6.51,6.51,0,0,0,3.61,11.91,8.88,8.88,0,0,1,8.86,8.86v3.88a3.49,3.49,0,1,0,7,0v-3.92a8.86,8.86,0,0,1,8.86-8.86,6.51,6.51,0,0,0,3.59-11.92,8.94,8.94,0,0,1-3.94-7.39,9.12,9.12,0,0,1,8.67-8.9,8.93,8.93,0,0,1,5.26,16.34,6.51,6.51,0,0,0,3.6,11.91,8.87,8.87,0,0,1,8.86,8.86v3.88a3.49,3.49,0,1,0,7,0v-3.92a8.87,8.87,0,0,1,8.87-8.86,6.51,6.51,0,0,0,3.58-11.92,8.93,8.93,0,0,1-3.95-7.39,9.12,9.12,0,0,1,8.67-8.9,8.93,8.93,0,0,1,5.26,16.34,6.51,6.51,0,0,0,3.6,11.91,8.89,8.89,0,0,1,8.87,8.86v3.88a3.49,3.49,0,1,0,7,0v-3.92a15.87,15.87,0,0,0-14.46-15.79,15.92,15.92,0,1,0-19.93,0,15.84,15.84,0,0,0-11,5.89,15.85,15.85,0,0,0-11-5.89,15.94,15.94,0,1,0-19.93,0,15.85,15.85,0,0,0-11,5.89,15.85,15.85,0,0,0-11-5.89,15.94,15.94,0,1,0-19.93,0,15.87,15.87,0,0,0-14.46,15.79v3.88A3.49,3.49,0,0,0,52.06,184.72Z"/><path class="cls-2" d="M59.94,55.36h71.18a3.49,3.49,0,1,0,0-7H59.94A11.39,11.39,0,0,0,48.57,59.75v54.89A11.38,11.38,0,0,0,59.94,126h50.43a3.49,3.49,0,0,0,0-7H59.94a4.4,4.4,0,0,1-4.4-4.4V59.75A4.4,4.4,0,0,1,59.94,55.36Z"/></g></g></svg>