<svg xmlns="http://www.w3.org/2000/svg" xmlns:xlink="http://www.w3.org/1999/xlink" viewBox="0 0 465.38 135.15"><defs><style>.cls-1{fill:url(#New_Gradient_Swatch_1);}</style><linearGradient id="New_Gradient_Swatch_1" x1="-1204.47" y1="-221.94" x2="592.05" y2="170.33" gradientUnits="userSpaceOnUse"><stop offset="0" stop-color="#d3161a"/><stop offset="0.23" stop-color="#e2640f"/><stop offset="0.42" stop-color="#ffcd0b"/><stop offset="0.45" stop-color="#fdcd0c"/><stop offset="0.48" stop-color="#f6cb0f"/><stop offset="0.51" stop-color="#e9c814"/><stop offset="0.53" stop-color="#d7c41a"/><stop offset="0.55" stop-color="#bebd22"/><stop offset="0.57" stop-color="#9bb529"/><stop offset="0.59" stop-color="#68aa31"/><stop offset="0.6" stop-color="#4fa534"/><stop offset="0.64" stop-color="#3e9937"/><stop offset="0.72" stop-color="#1b853a"/><stop offset="0.78" stop-color="#057e3b"/><stop offset="0.8" stop-color="#0a7e3f"/><stop offset="0.83" stop-color="#157f4a"/><stop offset="0.86" stop-color="#1f815f"/><stop offset="0.91" stop-color="#2a857d"/><stop offset="0.95" stop-color="#3789a2"/><stop offset="1" stop-color="#478dcb"/></linearGradient></defs><title>jagex</title><g id="Layer_2" data-name="Layer 2"><g id="Layer_1-2" data-name="Layer 1"><path id="path881" class="cls-1" d="M17,101.37l17-33.77L17,33.8,0,0H49.44l3.37,6.76c1.86,3.71,3.38,6.86,3.38,7S50.52,14,39.42,14c-9.23,0-16.78.06-16.78.14S28.67,26.28,36,41L49.42,67.69,35.91,94.55,22.4,121.41l9.26-.06,9.27-.06L63.45,76.43c12.38-24.67,26.1-52,30.48-60.64L101.9,0h24.57C144,0,151,.07,151,.25S143.46,15.6,134.2,34L117.36,67.58l16.94,33.78,16.95,33.79H101.87l-3.38-6.75c-1.86-3.72-3.38-6.81-3.38-6.88s7.55-.12,16.78-.12c9.77,0,16.77-.09,16.77-.21s-6-12.22-13.41-26.91L101.83,67.57,115.25,40.9c7.38-14.67,13.41-26.78,13.41-26.91s-2.87-.23-9.14-.19l-9.15.06L80,74.5,49.55,135.14H0ZM194.69,87.59a22.31,22.31,0,0,1-6.08-1.4l-1-.42v-7.2l1.6.68a15.15,15.15,0,0,0,6.9,1.33,6.12,6.12,0,0,0,3.32-.76,6.25,6.25,0,0,0,2.95-3.48c.48-1.16.49-1.58.56-14.65L203,48.24h8.86L211.79,62c-.1,15.5-.1,15.53-1.8,19-2.44,5-7.81,7.27-15.3,6.59Zm124.43-.3a18.83,18.83,0,0,1-11.19-6.23,21.91,21.91,0,0,1-3.6-7.54,26.86,26.86,0,0,1,0-10.68A19.69,19.69,0,0,1,320,48c4.13-.86,11.6-.27,15,1.19l1.11.48v3.76c0,2.92-.07,3.73-.29,3.63a23,23,0,0,0-9.93-2.25c-4.11,0-7,1.08-9.48,3.58A13.81,13.81,0,0,0,313,64.41a21.11,21.11,0,0,0,.24,8,10.8,10.8,0,0,0,9.55,8.16,17.9,17.9,0,0,0,6.45-.48l.76-.25V67.11h7.69V85.5l-1.83.58a33.17,33.17,0,0,1-10.52,1.43,33.6,33.6,0,0,1-6.21-.22ZM239.81,87c0-.14,17-36.77,17.87-38.4.48-1,.65-1.11,1.17-1.05s1.27,1.54,9.54,19.59c4.92,10.74,8.94,19.62,8.94,19.75s-1.53.22-4.34.18L268.65,87l-1.32-3L266,81H251.12l-1.37,3.09-1.38,3.09h-4.28A37.42,37.42,0,0,1,239.81,87Zm23.44-12.41c-.79-2.14-4.47-10.3-4.62-10.25s-4.84,10.27-4.84,10.57c0,0,2.17.09,4.81.09,4.47,0,4.79,0,4.65-.41ZM371,67.69V48.24h26.1V55H379.62v8.63h15.85v6.52H379.61l.07,5.07.06,5.07,9.26.06,9.26.06v6.75H371ZM427.39,86.9c0-.14,2.53-4.65,5.62-10s5.57-9.9,5.5-10.06-2.43-4.31-5.26-9.24-5.16-9-5.16-9.15a26.54,26.54,0,0,1,4.6-.13l4.61.06,3,5.71c1.65,3.14,3.7,7,4.57,8.69l1.57,3,4.38-8.46c2.41-4.66,4.48-8.59,4.61-8.75.29-.39,9.26-.43,9.26-.05,0,.14-2.32,4.23-5.16,9.1s-5.2,9-5.25,9.27c-.1.38,1.84,3.89,6.83,12.38,3,5.11,4.28,7.37,4.28,7.66s-1.25.25-4.61.21l-4.6-.07-4.78-9.12c-2.62-5-4.83-9.19-4.91-9.26s-2.33,4-5,9.12L436.55,87,432,87.1c-3.23,0-4.58,0-4.58-.2Z"/></g></g></svg>