<svg xmlns="http://www.w3.org/2000/svg" viewBox="0 0 540 540"><defs><style>.cls-1{fill:#29353a;}</style></defs><title>jagex</title><g id="Layer_2" data-name="Layer 2"><g id="Layer_1-2" data-name="Layer 1"><path class="cls-1" d="M298.43,290.26c-.16.05-4.68,9.94-4.68,10.23,0,.05,2.09.09,4.65.09,4.33,0,4.63,0,4.5-.4C302.14,298.11,298.58,290.21,298.43,290.26Z"/><path class="cls-1" d="M0,0V540H540V0ZM170.62,359H146.73l-3.27-6.66c-1.8-3.6-3.27-6.65-3.27-6.72s7.3-.14,16.23-.14c9.46,0,16.24-.1,16.24-.22s-5.84-11.83-13-26.05l-13-25.85,13-25.81c7.15-14.19,13-25.92,13-26.05s-2.78-.22-8.85-.17l-8.85,0-29.43,58.68L96.1,358.75H48.17l16.41-32.68L81,293.38,64.57,260.69,48.15,228H96l3.27,6.52c1.8,3.6,3.27,6.63,3.27,6.76s-5.49.22-16.24.22c-8.93,0-16.23.06-16.23.13s5.83,11.76,13,26l13,25.85-13.07,26-13.08,26,9-.06,9-.06,21.79-43.41c12-23.88,25.25-50.27,29.5-58.67L146.76,228h23.77c17,0,23.78.05,23.78.23S187,243.07,178,260.92l-16.29,32.45,16.4,32.81L194.51,359Zm82.48-70.82c-.1,15-.1,14.94-1.74,18.27-2.36,4.79-7.56,7-14.8,6.32a20.75,20.75,0,0,1-5.75-1.37L230,311v-7l1.41.65a14.1,14.1,0,0,0,6.6,1.29,5.68,5.68,0,0,0,3.18-.73,6,6,0,0,0,2.83-3.36c.47-1.13.47-1.36.54-14l.05-12.85h8.58Zm59.23,24.07-4.2-.06-1.28-3.09-1.29-3.1H291.17l-1.34,3-1.33,3h-4.14c-2.28,0-4.14.1-4.14,0s16.49-35.51,17.29-37.09c.46-.93.63-1,1.13-1s1.23,1.51,9.24,19c4.75,10.39,8.65,19,8.65,19.12S315,312.29,312.33,312.25ZM375,301.81v8.89l-1.81.57A32.44,32.44,0,0,1,363,312.66a34.42,34.42,0,0,1-6-.22,18.3,18.3,0,0,1-10.84-6,21.33,21.33,0,0,1-3.48-7.3,25.85,25.85,0,0,1,0-10.33,19,19,0,0,1,15.15-14.41c4-.83,11.55-.26,14.81,1.15l1.4.46v3.64c0,2.83-.39,3.61-.61,3.52a22.88,22.88,0,0,0-9.77-2.18c-4,0-6.83,1.05-9.26,3.47a13.26,13.26,0,0,0-3.28,5.87,20.33,20.33,0,0,0,.2,7.79,10.44,10.44,0,0,0,9.24,7.89,13.21,13.21,0,0,0,5.5-.46l0-.24V292h9ZM434,309v3H406V275h26v6H415v9h16v5H415.51l.06,5.32.06,5.12,9.19.16,9.18.17Zm60.05,3.21-4.46-.06L485,303.36c-2.54-4.86-4.68-8.89-4.75-9s-2.26,3.9-4.87,8.83l-4.74,9-4.44.06c-3.12,0-4.42,0-4.42-.19s2.44-4.5,5.43-9.7,5.39-9.58,5.33-9.74-2.36-4.17-5.1-8.94-5-8.75-5-8.85a25,25,0,0,1,4.46-.13l4.45.06,2.9,5.52c1.59,3,3.58,6.83,4.42,8.42l1.52,2.88,4.24-8.18c2.33-4.51,4.34-8.32,4.46-8.47.29-.37,9-.41,9-.05,0,.13-2.25,4.1-5,8.81s-5,8.75-5.09,9,1.78,3.76,6.62,12c2.91,4.94,4.13,7.14,4.13,7.41S497.29,312.3,494.05,312.25Z"/></g></g></svg>