<svg xmlns="http://www.w3.org/2000/svg" xmlns:xlink="http://www.w3.org/1999/xlink" viewBox="0 0 666 215.63"><defs><style>.cls-1{fill:#1a1a1a;}.cls-2{fill:url(#New_Gradient_Swatch_1);}</style><linearGradient id="New_Gradient_Swatch_1" x1="-1114.01" y1="-175.54" x2="682.51" y2="216.73" gradientUnits="userSpaceOnUse"><stop offset="0" stop-color="#d3161a"/><stop offset="0.23" stop-color="#e2640f"/><stop offset="0.42" stop-color="#ffcd0b"/><stop offset="0.45" stop-color="#fdcd0c"/><stop offset="0.48" stop-color="#f6cb0f"/><stop offset="0.51" stop-color="#e9c814"/><stop offset="0.53" stop-color="#d7c41a"/><stop offset="0.55" stop-color="#bebd22"/><stop offset="0.57" stop-color="#9bb529"/><stop offset="0.59" stop-color="#68aa31"/><stop offset="0.6" stop-color="#4fa534"/><stop offset="0.64" stop-color="#3e9937"/><stop offset="0.72" stop-color="#1b853a"/><stop offset="0.78" stop-color="#057e3b"/><stop offset="0.8" stop-color="#0a7e3f"/><stop offset="0.83" stop-color="#157f4a"/><stop offset="0.86" stop-color="#1f815f"/><stop offset="0.91" stop-color="#2a857d"/><stop offset="0.95" stop-color="#3789a2"/><stop offset="1" stop-color="#478dcb"/></linearGradient></defs><title>jagex</title><g id="Layer_2" data-name="Layer 2"><g id="Layer_1-2" data-name="Layer 1"><rect class="cls-1" width="666" height="215.63"/><path id="path881" class="cls-2" d="M107.44,147.77l17-33.78-17-33.8-17-33.8H139.9l3.37,6.76c1.86,3.72,3.38,6.86,3.38,7s-5.67.24-16.77.24c-9.23,0-16.78.06-16.78.13s6,12.16,13.39,26.86l13.39,26.72-13.51,26.85L112.86,167.8l9.26-.06,9.27-.06,22.52-44.86c12.38-24.67,26.1-52,30.48-60.64l8-15.79h24.57c17.57,0,24.56.08,24.56.26S233.92,62,224.66,80.44L207.82,114l16.94,33.79,17,33.78H192.33L189,174.79c-1.86-3.72-3.38-6.81-3.38-6.88s7.55-.11,16.78-.11c9.77,0,16.77-.09,16.77-.21s-6-12.23-13.41-26.92L192.29,114,205.71,87.3c7.38-14.67,13.41-26.78,13.41-26.92s-2.87-.22-9.14-.18l-9.15.06L170.42,120.9,140,181.54H90.49ZM285.15,134a22.7,22.7,0,0,1-6.08-1.39l-1-.43V125l1.6.67a14.89,14.89,0,0,0,6.9,1.33,6,6,0,0,0,3.32-.76,6.23,6.23,0,0,0,3-3.47c.48-1.16.49-1.58.56-14.65l.07-13.46h8.86l-.09,13.81c-.1,15.49-.1,15.53-1.8,19-2.44,5-7.81,7.27-15.3,6.58Zm124.43-.3a18.78,18.78,0,0,1-11.19-6.23,21.91,21.91,0,0,1-3.6-7.54,26.81,26.81,0,0,1,0-10.67,19.7,19.7,0,0,1,15.66-14.9c4.13-.86,11.6-.26,15,1.2l1.11.47v3.76c0,2.92-.07,3.74-.29,3.64a22.69,22.69,0,0,0-9.93-2.25c-4.11,0-7,1.08-9.48,3.58a13.7,13.7,0,0,0-3.36,6.07,21.11,21.11,0,0,0,.24,8,10.79,10.79,0,0,0,9.55,8.15,17.46,17.46,0,0,0,6.45-.48l.76-.24V113.5h7.69v18.39l-1.83.58a33.43,33.43,0,0,1-10.52,1.44,34.25,34.25,0,0,1-6.21-.23Zm-79.31-.26c0-.14,17-36.76,17.87-38.4.48-1,.65-1.11,1.17-1s1.27,1.54,9.54,19.6c4.92,10.73,8.94,19.62,8.94,19.75s-1.53.21-4.34.17l-4.34-.06-1.32-3-1.33-3H341.58l-1.37,3.09-1.38,3.08h-4.28A37.42,37.42,0,0,1,330.27,133.42ZM353.71,121c-.79-2.15-4.47-10.3-4.62-10.25s-4.84,10.27-4.84,10.57c0,0,2.17.09,4.81.09,4.47,0,4.79,0,4.65-.41Zm107.75-6.93V94.63h26.1v6.76H470.08V110h15.85v6.53H470.07l.07,5.06.06,5.07,9.26.06,9.26.06v6.75H461.46Zm56.39,19.2c0-.14,2.53-4.65,5.62-10s5.57-9.9,5.5-10.06-2.43-4.32-5.26-9.24-5.16-9-5.16-9.15a27.1,27.1,0,0,1,4.6-.14l4.61.07,3,5.71c1.65,3.13,3.7,7.05,4.57,8.69l1.57,3,4.38-8.46c2.41-4.65,4.48-8.59,4.61-8.75.29-.38,9.26-.42,9.26,0,0,.13-2.32,4.23-5.16,9.1s-5.2,9-5.25,9.26c-.1.38,1.84,3.9,6.83,12.38,3,5.11,4.27,7.38,4.27,7.66s-1.24.26-4.6.21l-4.6-.06-4.78-9.13c-2.62-5-4.83-9.19-4.91-9.26s-2.33,4-5,9.13l-4.9,9.26-4.58.06c-3.23,0-4.58,0-4.58-.2Z"/></g></g></svg>