<svg xmlns="http://www.w3.org/2000/svg" viewBox="0 0 666 215"><defs><style>.cls-1{fill:#1a1a1a;}</style></defs><title>jagex</title><g id="Layer_2" data-name="Layer 2"><g id="Layer_1-2" data-name="Layer 1"><path class="cls-1" d="M349.08,110.59c-.16.06-4.83,10.27-4.83,10.57,0,0,2.16.09,4.8.09,4.48,0,4.79,0,4.65-.4C352.91,118.7,349.24,110.54,349.08,110.59Z"/><path class="cls-1" d="M0,0V215H666V0ZM217,181H192.32l-3.38-6.57c-1.85-3.72-3.38-6.72-3.38-6.78s7.55-.07,16.78-.07c9.78,0,16.78-.07,16.78-.19s-6-12.21-13.42-26.9l-13.42-26.7L205.7,87.12c7.38-14.67,13.42-26.78,13.42-26.91S216.25,60,210,60l-9.14.06-30.41,60.64L140,181.36H90.48l17-33.78,17-33.77-17-33.91L90.46,46h49.43l3.38,6.87c1.86,3.71,3.38,6.91,3.38,7s-5.67.26-16.78.26c-9.23,0-16.77.08-16.77.15s6,12.17,13.38,26.87l13.39,26.72-13.51,26.86-13.51,26.86,9.27-.06,9.27-.06,22.51-44.86C166.29,98,180,70.58,184.39,61.9l8-15.9h24.57c17.57,0,24.57.18,24.57.36s-7.58,15.4-16.84,33.85l-16.83,33.56,16.94,33.62L241.7,181Zm85.23-73c-.1,15.49-.1,15.64-1.79,19.07-2.44,5-7.81,7.32-15.3,6.64a22.58,22.58,0,0,1-6.12-1.37l-1-.39v-7.2l1.64.68a15.2,15.2,0,0,0,6.92,1.33,6.16,6.16,0,0,0,3.33-.76,6.25,6.25,0,0,0,2.95-3.48c.48-1.16.49-1.8.56-14.87L293.47,94h8.86Zm61.21,25.28-4.34-.07-1.33-3.12L356.46,127H341.58l-1.38,3-1.38,3h-4.27c-2.36,0-4.28.13-4.28.07s17-36.68,17.86-38.31c.49-1,.66-1.07,1.17-1s1.27,1.57,9.54,19.62c4.92,10.73,8.94,19.63,8.94,19.76S366.25,133.36,363.45,133.32ZM428,122.52v9.2l-1.77.58a32.86,32.86,0,0,1-10.48,1.43,33.35,33.35,0,0,1-6.19-.22,18.81,18.81,0,0,1-11.18-6.23,21.74,21.74,0,0,1-3.6-7.54,26.81,26.81,0,0,1,0-10.67,19.71,19.71,0,0,1,15.66-14.9c4.14-.86,11.85-.27,15.22,1.19l1.36.48V99.6c0,2.92-.31,3.73-.54,3.63a23.32,23.32,0,0,0-10-2.24c-4.11,0-7.05,1.07-9.55,3.57a13.74,13.74,0,0,0-3.38,6.07,21.15,21.15,0,0,0,.22,8.06,10.8,10.8,0,0,0,9.54,8.15,16.49,16.49,0,0,0,6.23-.48l.53-.25V113h8ZM489,130v3H461V94h27v7H470v9h16v6H470.07l.06,5.25.07,5.16,9.4.1,9.4.11Zm62.23,3.33-4.61-.07-4.77-9.12c-2.63-5-4.84-9.19-4.91-9.26s-2.34,4-5,9.12l-4.9,9.26-4.58.07c-3.22,0-4.57,0-4.57-.2s2.53-4.65,5.61-10,5.57-9.9,5.51-10-2.43-4.32-5.27-9.25-5.15-9-5.15-9.15a26.54,26.54,0,0,1,4.6-.13l4.6.06,3,5.71c1.64,3.14,3.7,7,4.56,8.69l1.57,3,4.38-8.46c2.41-4.65,4.49-8.59,4.61-8.75.3-.38,9.26-.43,9.26,0,0,.14-2.32,4.23-5.15,9.1s-5.2,9-5.26,9.27c-.1.38,1.84,3.89,6.84,12.38,3,5.11,4.27,7.38,4.27,7.66S554.58,133.36,551.23,133.32Z"/></g></g></svg>