<svg xmlns="http://www.w3.org/2000/svg" xmlns:xlink="http://www.w3.org/1999/xlink" viewBox="0 0 403.31 403.32"><defs><style>.cls-1{fill:url(#linear-gradient);}.cls-2{fill:url(#New_Gradient_Swatch_1);}</style><linearGradient id="linear-gradient" x1="-154.67" y1="-218.91" x2="457.95" y2="587.23" gradientUnits="userSpaceOnUse"><stop offset="0" stop-color="#d3161a"/><stop offset="0.23" stop-color="#e2640f"/><stop offset="0.42" stop-color="#ffcd0b"/><stop offset="0.45" stop-color="#fdcd0c"/><stop offset="0.48" stop-color="#f6cb0f"/><stop offset="0.51" stop-color="#e9c814"/><stop offset="0.53" stop-color="#d7c41a"/><stop offset="0.55" stop-color="#bebd22"/><stop offset="0.57" stop-color="#9bb529"/><stop offset="0.59" stop-color="#68aa31"/><stop offset="0.6" stop-color="#4fa534"/><stop offset="0.64" stop-color="#3e9937"/><stop offset="0.72" stop-color="#1b853a"/><stop offset="0.78" stop-color="#057e3b"/><stop offset="0.8" stop-color="#0a7e3f"/><stop offset="0.83" stop-color="#157f4a"/><stop offset="0.86" stop-color="#1f815f"/><stop offset="0.91" stop-color="#2a857d"/><stop offset="0.95" stop-color="#3789a2"/><stop offset="1" stop-color="#478dcb"/></linearGradient><linearGradient id="New_Gradient_Swatch_1" x1="-381.85" y1="-268.39" x2="626.15" y2="543.61" gradientUnits="userSpaceOnUse"><stop offset="0" stop-color="#d3161a"/><stop offset="0.23" stop-color="#e2640f"/><stop offset="0.42" stop-color="#ffcd0b"/><stop offset="0.45" stop-color="#fdcd0c"/><stop offset="0.48" stop-color="#f6cb0f"/><stop offset="0.51" stop-color="#e9c814"/><stop offset="0.53" stop-color="#d7c41a"/><stop offset="0.55" stop-color="#bebd22"/><stop offset="0.57" stop-color="#9bb529"/><stop offset="0.59" stop-color="#68aa31"/><stop offset="0.6" stop-color="#4fa534"/><stop offset="0.64" stop-color="#3e9937"/><stop offset="0.72" stop-color="#1b853a"/><stop offset="0.78" stop-color="#057e3b"/><stop offset="0.8" stop-color="#0a7e3f"/><stop offset="0.83" stop-color="#157f4a"/><stop offset="0.86" stop-color="#1f815f"/><stop offset="0.91" stop-color="#2a857d"/><stop offset="0.95" stop-color="#3789a2"/><stop offset="1" stop-color="#478dcb"/></linearGradient></defs><title>kai</title><g id="Layer_2" data-name="Layer 2"><g id="Layer_1-2" data-name="Layer 1"><path id="path1179" class="cls-1" d="M210.94,46.24h0c-.92,0-1.91,0-3.24.09a22.45,22.45,0,0,0-6.47,1.08c-4.06,1.24-11,4.31-13,5.72l-1.83,1.24-1-1.24a8,8,0,0,0-1.74-1.5c-3.16-1.57-9.12.17-14.35,4-3,2.32-7.13,6.88-8.29,9.2l-1,2-1.41-1.66c-1.07-1.24-1.65-1.66-2.32-1.66-1.16,0-1.41.34-2.49,3-.82,2.07-.91,2.15-2.57,2.73a8.3,8.3,0,0,1-3.06.34c-3.49-.42-8.55,1.74-11.86,5-2.32,2.24-4.39,6-4.73,8.46a4.92,4.92,0,0,1-1.24,2.57c-1.58,1.66-2.16,1.91-3.07,1.25a1.26,1.26,0,0,0-1.49-.17c-1.58.83-3.65,6.55-3.65,10.28,0,1.83,0,1.91-1.33,2.74-3.65,2.49-6,8.71-6,15.84,0,3.65.75,6.63,2.07,8,.42.5.42.66.09.83a5,5,0,0,0-1.42,1c-3.48,2.91-2.4,7.72,2.24,10.7.83.5,1.33,1,1.08,1.16-.74.5-.33,1.91,1.08,3.24,1.16,1.07,1.33,1.24.58,1.07s-5.64-2.15-6.8-2.73c-.66-.25-1.58.91-1.33,1.74.09.41,0,.91-.16,1-.83.5-1.66,3-1.66,4.81,0,3.49,1.74,7.22,3.65,7.8a.88.88,0,0,1,.66.41,25.3,25.3,0,0,1-2.57,3.07c-3,3.15-5.72,7.05-5.72,8,0,1.49,2,3.73,5.22,6.06,1.91,1.4,3.32,1.82,4.73,1.32.91-.33,1-.33.66.25-.74,1.41-.41,2.32,2.08,5a59.87,59.87,0,0,0,4.64,4.65l2.24,2.07,1.24-.91,1.16-.91,1.74.5a7.11,7.11,0,0,1,2.16,1.07,7.58,7.58,0,0,1,.75,2.82,9.93,9.93,0,0,0,1.16,3.57,6.27,6.27,0,0,1,1.08,3c.16,2,.58,2.24,1.24.92l.5-.83,1.16,1.41a13.6,13.6,0,0,1,2,3.15c1.16,2.57,1.57,2.24,1.32-1.16a118.48,118.48,0,0,1-.66-13.27c.17-.33-.08-.42-.91-.33a14.46,14.46,0,0,1-6.22.08,6.28,6.28,0,0,1-2.32-.75,4.35,4.35,0,0,0-1.58-.66,10,10,0,0,1-5.14-4l-1.07-1.57,1.32,1.15a15.65,15.65,0,0,0,10.53,4.07c5.89-.09,10.12-3.65,11.45-9.7a27.52,27.52,0,0,0,.08-7.8c-.25-1-.33-.25-.42,3.15-.16,4-.33,4.73-1.16,6.8a10.48,10.48,0,0,1-9.78,6.72c-7.3.41-13.27-4.23-13.27-10.2,0-1.66.91-4,1.66-4.48a.81.81,0,0,0,.33-.58c0-.58-1,.5-1.66,1.82a8,8,0,0,0-.5,6.23,13.21,13.21,0,0,0,4.07,7c1.57,1.41,1.66,1.66,1.07,1.83-1.16.33-4.31-2.24-7-5.73l-1.57-2.07.74-2c.75-1.91.75-3,.09-3.9-.17-.25-.67-.08-1.83.42a5.9,5.9,0,0,1-2.4.83c-1.33,0-4-1.5-5.64-3.15l-1.41-1.5,1.41-2.4a37,37,0,0,1,5-6c2-2,3.57-3.73,3.57-3.81,0-.75-.75-1.17-2-1.33a3.5,3.5,0,0,1-3.15-2.16,10.82,10.82,0,0,1-.5-1,6.58,6.58,0,0,1,2.07,0,19.62,19.62,0,0,0,5.06-.59,16.88,16.88,0,0,1,6.72-.49c.66.25.75.41.75,2.48,0,4.4.91,7.22,3.4,10.29,1.32,1.74,2.73,2.65,4.06,2.65a5.11,5.11,0,0,1,.83.08,12.48,12.48,0,0,1-1.66,3.82c-1.16,1.57-.75,2.9,1.82,5.39,2.16,2,2.16,2,3.07,1.49,3.24-1.66,6.22-9.2,5.23-13-.42-1.32-.67-.83-.5,1a17.25,17.25,0,0,1-1.83,7.71c-1.32,2.9-2.4,4-3.64,3.65a6.39,6.39,0,0,1-3.49-3.82c-.41-1.16-.33-1.32.42-2.4a11.85,11.85,0,0,0,2.15-6.88c.25-3.49-.33-5.72-2.4-10.12a36.71,36.71,0,0,0-6.14-9.79l-2.24-2.48,1.66-.83c2-.83,1.66-1.25-.74-.66-2.74.58-5.56.33-5.15-.34.17-.16-.66-.66-1.65-1.16-4.81-2.15-6.64-5.31-4.65-8.21,1.08-1.49,2.16-1.82,4.65-1.07,1.57.49,2,.49,2.15.08.33-.5-.25-1.25-1-1.25s-2.24-1.82-3.48-4.47c-3.65-7.55-1-17.17,5.63-20.57.5-.25.58-.74.67-3.15a20.55,20.55,0,0,1,.66-4.56c.5-1.66.58-1.74,1.66-1.74a4.61,4.61,0,0,0,2.57-1.16L131,88l.42,2.49c.25,1.74.5,2.48.83,2.48.58,0,.58.17.49-4a33.33,33.33,0,0,1,.33-4.81,17.35,17.35,0,0,1,8.79-10.53c2-.91,2.58-1,6.14-1.08,4.48-.16,5.31-.41,7.55-2.73L157,68.39l.91.82c1.66,1.66,2.65,1.33,5-1.74a36.94,36.94,0,0,1,11.53-9.37,31.42,31.42,0,0,1,8.21-2.82c1.58-.16,1.91-.08,2.82.67a13.8,13.8,0,0,0,4.81,2.57c.25,0-.33.5-1.33,1.16-2.24,1.49-3.4,3.07-3.4,4.56,0,.91.17,1.33.66,1.58,1,.49,1.74.16,2.49-1.17,1.66-3.15,9.29-6.05,16.25-6.21l3.65-.09,4.4,1.74c2.32,1,5.47,2.41,6.88,3.24a15.1,15.1,0,0,0,2.49,1.24c0-.58-4.65-3.81-8.21-5.64-2.16-1.16-4.64-2.49-5.56-2.9A13.92,13.92,0,0,1,206,54.29l-.83-.83-3.89.91a23.41,23.41,0,0,1-4,.75c-.5-.5,1.57-2.24,4.23-3.57a12.92,12.92,0,0,1,4.8-1.66c2.08-.16,2.16-.24,1.08-.49-2.73-.58-12.27,2.81-16.58,6-1.49,1-2.66,1.24-2.66.49,0-1,6.14-4.47,10.29-5.8a31.22,31.22,0,0,1,11.36-1.82c2.73.16,3.31.24,3.65.83s.41.66-1.83,1.24a16,16,0,0,0-3.15,1.08,1.6,1.6,0,0,0-.33,2.4A16.46,16.46,0,0,0,213.34,55a51.48,51.48,0,0,1,19.41,6.89c3.06,1.91,4.47,3.15,4.47,3.9,0,.33-.24.16-.66-.42-.91-1.16-3.73-3.15-6.8-4.64-2.49-1.25-4.89-2.07-3-1.08,4,2.24,9.45,6.55,9.45,7.46,0,.25-.75-.41-1.74-1.32a27.79,27.79,0,0,0-7.47-4.9c-1.66-.66-1.65-.33.17.91,4.64,3.32,8.21,8.3,8.62,12.11a7.25,7.25,0,0,1-1.49,5.81c-1.07,1.65-1.16,1.82-.58,2.15a9.34,9.34,0,0,1,3.81,4.23c.75,2.16,1.08,4.56.75,5.14-.5.75-1,.25-1.24-1.33-.5-3.56-1.49-5.3-4.15-7.29l-1.16-.83,1-1.25a11.34,11.34,0,0,0,2.65-4.8,12,12,0,0,0-1.82-6.72A30.42,30.42,0,0,0,225,61.42a11.14,11.14,0,0,0-2.4-1.16,13.3,13.3,0,0,0,2.16,1.57c2.48,1.58,7,6.22,7.29,7.47.25.83-.16,1.66-.41.91a.62.62,0,0,0-.58-.41,8.19,8.19,0,0,1-2.33-1.66,9.67,9.67,0,0,0-2.15-1.66c-.17,0,.17.91.83,2.07,2.07,3.9,3,9.45,1.74,10.78-.33.33-.58.42-.58.17a.7.7,0,0,1,.33-.58c1.16-.75-1.41-5.89-4.06-8.3a22.6,22.6,0,0,0-7.55-4.14c-4.14-1.16-10.2-1-13.35.41-1.57.67-2.15,1.49-.83,1.16,4.23-1,5.72-1.24,7.8-1.24a16.34,16.34,0,0,1,8.21,2c4.39,2,6,4.23,7.38,9.79.41,2.15.58,4.31.58,11.19,0,4.64.16,8.62.25,8.71.25.24,4.14-1.08,5.55-1.91.67-.42,1.74-1.16,2.41-1.66a5.55,5.55,0,0,1,1.41-.91c.33,0-2.24,3.81-3.57,5.22a18.57,18.57,0,0,1-7.71,4.23c-1.33.42-1.74.66-1.41.83,1.74,1.16,8.37-1.82,12.19-5.56,1-1.07,3.56-4.22,5.72-7,4.06-5.56,6.47-8,8.62-9,1.74-.83,5.64-.91,8.3-.16,1.07.24,2,.49,2.15.49s-.16-.41-.58-1c-3.07-4.31-12.19-2.33-16.67,3.56-1.57,2.07-3.89,5.81-3.89,6.31,0,.33-1.33,2-1.33,1.65a71.38,71.38,0,0,1,3.65-7.21c2.57-4.64,8.13-7.71,13.18-7.22,3.32.34,4,.59,5.73,2.33,2.23,2.4,1.49,6.05-1.33,7a4.25,4.25,0,0,1-2.24.09c-1.25-.5-.91-1,.58-.92a2,2,0,0,0,2.15-.74c1.25-1.41,1.08-2-.91-2.82A11.68,11.68,0,0,0,251,84c-1.74.92-4.48,3.82-7.3,7.72-3.48,4.81-7.05,9.2-8.12,10-1.58,1.16-1.25,1.49,1.57,1.66,4.56.33,8.54,2.4,12.61,6.47,2.57,2.48,3.73,4.72,4,7.05.16,1.4.08,1.73-.67,2.48-.5.42-.75.83-.58.83.91,0,1.66-1.41,1.66-2.9,0-3.57-2.07-6.89-6.47-10.37-2.49-2-6.22-4-7.38-4-.33,0-.75-.08-.83-.24-.33-.34,1.16-3,5.39-9.29s5.23-7.47,8.21-8.79a11,11,0,0,1,3.48-.58l2.08.08-2.08.42c-2.32.49-5.39,2-5.63,2.82-.17.41,3.15,3.81,3.48,3.48a4.53,4.53,0,0,1,1.66.91C258,93,262.76,95.25,270,98.24c8.45,3.48,12,5.39,14.26,7.71,1.41,1.33,1.49,2.9.25,3.15-.42.08-1.16.25-1.66.33a3.52,3.52,0,0,1-1.57-.16,2.63,2.63,0,0,0-1.42,0c-.58.16-.49.33.75.91,4.23,2.15,6.3,10.53,3.49,14-.59.66-.59.58-.59-1.74a20.57,20.57,0,0,0-3.4-10c-1.82-3.07-5.3-7-6.71-7.55-1.66-.66-1.83-.16-.25.75,3.48,2,8.12,8.79,9.37,13.76.5,2,.66,5.56.25,5.81-.17.08-.33-.5-.33-1.33-.09-2.4-1-4.89-3-8.79s-4.14-6.79-6.3-8.45-2.49-1.25-.42.58c4.73,4.14,9.37,12.68,9.29,17.16l-.08,1.58-.25-2a22,22,0,0,0-2.49-7.47c-2.24-4.23-8.12-10.77-10.11-11.11-.75-.16-2.58-.74-3.57-1.08s-.25.59,1.16,1.5c.91.58,2.07,1.49,2.74,2,1.08,1,1,1-1.33-.34a68.64,68.64,0,0,1-9.53-5.88c-5.31-3.9-8-7.38-8.55-11-.33-1.66-.91-1.57-1.24.17-.42,2-3.32,7.71-4.81,9.7l-1.41,1.74,1.74.83c6.39,3,10.53,7.46,11.53,12.35.25,1.17.49,1.66.91,1.58s.91.66,1.41,1.49c1.49,2.49,2.74,2.07,3.48-1.08l.42-1.74,1.32,1.41c.83.83,1.58,1.33,1.83,1.25.5-.34,0-2.41-1.16-4.65-.58-1.07-1.08-2.07-1.17-2.24a5.94,5.94,0,0,1,2.08-.33l2.24-.08-4.89-2.49a37.82,37.82,0,0,1-7-4.39c-2.49-2.08-3.07-2-1.41.16.66.75,1.66,2.08,2.32,2.9.75,1,.08.5-2.07-1.57-3.65-3.4-5.48-4.89-7.13-5.56-1.08-.49-1.33-.83-.75-1.32a19.36,19.36,0,0,0,1.41-2.66l1.16-2.23.66,1.4c1.75,4,6.47,8,12.69,11,8.29,3.9,9,4.31,10.61,5.72,4.07,3.49,7.05,8.21,8,12.36.34,1.74.5,2.07,1.16,2.07a5,5,0,0,0,2.91-1.82c.91-1.16,1.32-3.32,1.16-6a10.26,10.26,0,0,0-2.57-6.81c-1-1.16-1-1.24-.33-1.24,2.15,0,5.14,2.82,7.13,6.8a20.39,20.39,0,0,1,2.15,7.46,23.36,23.36,0,0,1-1.82,7.55c-2.07,4.4-6.8,7.46-8.29,5.31-.34-.5-.5-.58-.5-.25,0,1.33,2.49,1.82,4.39.75l1.08-.5,1.66,1.82c2.24,2.41,5.55,8.87,6.13,11.94.42,2.24.26,5.23-.33,5.23-.16,0-.33-.5-.41-1.16s0-1.08.17-1c.33.25.33.33-.42-2.49a36.51,36.51,0,0,0-3.4-8.21c-1.57-2.82-1.41-1.82.25,1.41a21.82,21.82,0,0,1,1.49,3.32c0,.17-.49-.58-1-1.58a6.49,6.49,0,0,0-1.16-1.82c-.17.08.16,1,.66,1.91,2.32,4.47,3.81,10.36,3.07,11.77-.33.58-.42.42-.66-1.24-.5-3.9-3.41-10.86-5.56-13.35-1.66-1.91-1.74-1.33-.17,1C290.13,149,293,156,293,158.69c0,1.41-.83.08-1.5-2.33a35.2,35.2,0,0,0-4.39-9.53c-1.25-1.83-1.91-2.41-2.74-2.41-.49,0,.33,2.33,1.83,5.31a44.25,44.25,0,0,1,4.39,15.92c.17,2.4.08,2.74-.66,4.4-1,2-2.32,2.73-3.07,1.74-.58-.75-2.07-.58-3.73.33-.83.42-1.5.83-1.5.83-.16,0,.09-10.7.17-10.86s.58.41,1,1c1,1.58,1.82,1.58,2.07.08s.08-3.15-.91-6.38l-.67-2.49-.91,2.57a32.61,32.61,0,0,1-2.73,5.23l-1.83,2.73-.16,6.06c-.25,7.38,0,14,.58,14a14.45,14.45,0,0,0,2.4-1.82,26.18,26.18,0,0,1,2.24-1.83c.41,0,0,.5-1.74,2.4-1.08,1.16-2.41,2.74-3.07,3.49l-1.24,1.49-.17-5.31c-.16-2.9-.25-9.36-.25-14.51,0-10-.33-13.6-1.66-17.91-.91-2.82-2-4.81-3.23-5.72a2.7,2.7,0,0,1-1.16-2.24,13.81,13.81,0,0,0-2.57-5.47c-.83-1.08-.83-.5,0,1.16a13.65,13.65,0,0,1,1.57,7.46c-.24,6.47-5.63,12-10.61,11l-1.41-.33,1.49-.42a9,9,0,0,0,3.4-2.32c3-3,3.57-6.22,1.91-10.78-1-2.65-2.9-5.47-7.71-11.11-5.47-6.38-5.64-6.71-4.73-9.12.25-.66.25-.66-.33,0a3.86,3.86,0,0,0-.08,3.57c.16.41,1.9,2.65,3.73,5.05,4.81,6.06,7,9.54,7.79,12,1.25,4.06.67,6.8-2,9.12a5.42,5.42,0,0,1-4.31,1.91c-1.57,0-2.24-.59-3.56-3.07L252,149.9l-.08,1.41c-.17,2.32.91,4,3.65,5.3,2.9,1.41,4.64,1.66,7,1,3-.91,6-4.06,7.22-8,.66-1.83,1-1.66,2,1,.58,1.58.58,1.58-.17,3.07a16.28,16.28,0,0,1-6.38,5.89c-3.32,1.49-9,1.32-10.2-.33-.33-.5-.5-.58-.5-.25,0,1.08,2.82,2.65,5.8,3.32a15.67,15.67,0,0,0,8.21-.83,11,11,0,0,1,2.66-.67,8.59,8.59,0,0,1,.91,1.5,4.21,4.21,0,0,0,1.74,1.82l1.08.5V175.6c0,6.06,0,11-.08,11s-.67-.91-1.41-2a9,9,0,0,0-5.64-4.15c-3.49-.91-7.3-.25-8.38,1.49a1.52,1.52,0,0,1-1.07.67c-.34,0,.66.25,2.32.5a30.69,30.69,0,0,1,9.53,3.06c2.66,1.25,3,1.74.5.58-3.73-1.74-10.28-3.23-15.92-3.81-4.23-.42-5.31-.25-5.14.75.08.49.58.82,2.07,1.24,2.49.66,4.23,1.57,4.06,2.07-.08.25-1,.33-2.73.25-2.32-.08-2.82,0-3.57.67s-.83.82-.58,1.16.09.49-1.66.49c-1.4,0-2.07-.16-2.15-.49-.33-.75.41-1.75,1.91-2.66,2.82-1.82-.67-2.24-4.15-.58a13.48,13.48,0,0,0-5.14,4l-1,1.25h7.88c11.11,0,17.08,1,23.3,3.89,3.15,1.41,4.4,1.49,4.89.17.34-1.08-.24-2.41-1.57-3.57a64.46,64.46,0,0,0-9.87-5.06l-1.33-.41,1-.08a14.91,14.91,0,0,1,4.31.91c6,1.91,10.12,4.31,10.12,5.72,0,.75,0,.75-.5-.08s-4.06-3.48-4.31-3.24c-.09.09.58.67,1.49,1.33,1.82,1.33,3,3,3,4.06a2.71,2.71,0,0,1-2.07,2.41c-1,.33-1,.33-.25.41a2.83,2.83,0,0,0,1.75-.83c.83-.74.91-.74.91-.16a1.94,1.94,0,0,1-.58,1.16c-.75.83-3.65.49-5.89-.67l-1.74-.91-2.16.75c-2,.66-2.32.75-7.54.42-6.55-.34-11.61-.17-12.86.33-.49.16-1.82.66-3,1.07a22.36,22.36,0,0,0-3.15,1.5c-1.74,1.32-2.57,2.57-1.25,2.15.33-.08.67-.08.67.08s.66.59,1.49.92a3.91,3.91,0,0,1,2.41,2.65c.08.17-1-.33-2.41-1.08s-2.49-1.24-2.41-1c.25.66,3.65,2.32,6.89,3.32,3.65,1.07,4.72,1.74,2.15,1.49a19.22,19.22,0,0,1-2.4-.5c-.66-.17-.83-.08-.67.25a3.62,3.62,0,0,0,1.91.91c2.16.42,9,.5,10.28.08.5-.16-.66-.24-2.73-.08-3.15.17-3.57.08-3.57-.41s-.83-1-3.73-2a4.77,4.77,0,0,1-3.23-6.06c.25-1.08.5-1.33,1.49-1.66,1.16-.33,1.16-.33.75.17a4.33,4.33,0,0,0,.08,5.89c1.16,1.24,3.15,2.07,3.73,1.49.25-.25.08-.33-.66-.33-2.82,0-4.81-4.32-3-6.47,1.41-1.66,4.73-1.41,6.88.5,1.16,1.07,1.66.91,1.66-.58,0-.92.83-1,1.33-.09.33.67.33,1.58-.17,3.9-.24,1.25.25,1.49.83.33.34-.58.58-.66,2.24-.41,1.08.08,2.41.25,3,.25.83.08,1,.16.74.58-.5.91-1.07,1.16-3.81,1.74a9.18,9.18,0,0,0-3,1c-.41.42,1.08.25,5.64-.74a19.63,19.63,0,0,1,4.73-.58c.74,0,1.24,0,1.16-.09-.75-.66-9.79-6.38-11.19-7.13l-1.66-.82L255,198a18.26,18.26,0,0,1,6.88,1.66c1.58.83,3.57,2.9,3,3.07-.75.24-.42.91.74,1.57,1.83.91,3.82,3,3.82,3.9a8.13,8.13,0,0,1-1,2.4c-1.41,2.16-1.24,3.24,1.16,10.78,3,9.13,3.24,10.95,3,18.25-.25,5.8-.25,6.13-1.16,7.62a25.64,25.64,0,0,0-1.66,3.4l-.75,1.91-1.32-.08-1.41-.09.08,2.16.17,2.16-.83-.91c-.42-.5-1-1.25-1.33-1.67-.67-.82-.75-.91.33,2.58a10,10,0,0,1,.33,2.65c-.25.5-.41.5-1.24-.5-.67-.91-1-1.07-1.33-.83s-.16.92.5,2.49a17,17,0,0,1,.83,2.74c0,1.08-.91.58-1.91-1.08a5.16,5.16,0,0,0-1.41-1.66c-.25,0-.08.5.33,1.08,1.16,1.91.67,3-.74,1.66-.83-.75-1.08-.33-.58.83a23.56,23.56,0,0,1,.58,5.55l.16,4.73-.91.66c-.83.67-.91.83-.58,1.58.58,1.24.5,1.57-.75,4.89-1.16,3-2.48,5.14-2,3.23,2.24-9,2.49-11.19,1.41-15.58-.49-1.91-1.16-4.15-1.49-5-.75-1.57-5.22-6.63-6-6.63-.25,0,.42.83,1.41,1.9a10.49,10.49,0,0,1,1.83,2.16c0,.5-.67.25-1.17-.5-.58-.91-3.56-3.23-3.73-3.07a10.5,10.5,0,0,0,1.91,2.41c1.33,1.32,2,2.24,1.74,2.32a1.3,1.3,0,0,1-1-.33c-1.41-1.16-1.33-.75.41,1.82,2.07,3.24,2.57,4.4,2.32,5.48-.08.49-.41.74-1,.74s-1.16-.5-2.32-2.32c-1.5-2.32-2.66-3.48-3.16-3.15-.16.08.5,1.49,1.5,3.07a15.58,15.58,0,0,1,1.66,3c-.09.09-.17.17-.25.08a45.33,45.33,0,0,0-3.9-5.47c-.58-.58-.67-.58-.67-.08,0,.83-.33.75-1.32-.25-.58-.66-.66-1-.42-1.24a2.68,2.68,0,0,0,.42-1.66c0-1.5-3.65-7.88-4.89-8.54-.67-.42-.83-.33-1.58.33s-.75.83-.33,1.91c.41.83.42,1.24.16,1.41s-.08.74.5,1.9.75,1.75.42,1.91c-.17.17-.5,0-.75-.33a16.62,16.62,0,0,0-1.57-2,10.35,10.35,0,0,1-1.5-2.07c-.24-1.25-.74-.83-.74.58,0,.74-.09,1.32-.25,1.32a16,16,0,0,1-1.66-1.41c-1.33-1.32-2.07-1.16-.75.25,1.08,1.16,1.75,2.41,1.41,2.66-.16.08-.74-.5-1.32-1.33-.92-1.41-1.41-1.91-1.41-1.16a16,16,0,0,0,1.16,2.16c.66,1,1.16,1.9,1,2.15-.41.75-1.16.25-2.07-1.41-2.07-3.57-3-4-1.24-.66a7.82,7.82,0,0,1,1,2.32c-.41.41-1.49-.5-2.24-1.82-.58-1.08-.91-1.33-.91-.92a1.62,1.62,0,0,0,.33,1c.09.16.83,1.82,1.49,3.56,1.33,3.32,2.16,4.31,1.66,2-.41-2-.33-2.57.17-2.57.33,0,.66.5.91,1.33,1.08,3.73,1.08,3.81.91,1.24-.25-3.07.25-3.4,1.16-.74a5.38,5.38,0,0,0,1.08,2c.5,0,.08-1.91-.74-3.4-.92-1.74-.83-2.24.24-1.08a6.19,6.19,0,0,0,1.66,1.41c.83.5,1.41,2.24,1.41,4.14s.58,1.5.83-.58a8.27,8.27,0,0,1,.66-2.4c.42-.5.5-.5,1,.33s.58,1.33.41,3.4c-.16,1.91-.16,2.49.17,2.41.58-.17.83-1.41.91-3.82,0-1.16.17-2.07.33-2.07.58,0,1,.91,1.16,2.73q.51,3.38,1,0c.33-2,.41-2.24,1-1.74s.67,2.32,0,4.65a6.74,6.74,0,0,0-.33,1.9c.25.25,1.49-2.65,1.49-3.56,0-1.25.42-2.32.75-2.16.42.33.33,2.24-.25,3.82a5.24,5.24,0,0,0-.33,1.9c.17.5-.91.83-2,.59-.41-.17-.83-.25-.83-.34s.33-.91.67-1.9.49-1.91.33-1.91a.35.35,0,0,0-.33.33,1.84,1.84,0,0,1-.58.83c-.67.66-1.08.16-1.08-1.41,0-.58-.17-1.08-.33-1.08s-.33.83-.33,1.83c0,1.82-.25,2.15-1.75,2.15-.66,0-.66-.16-.41-2.65.25-2.9-.25-3.73-.58-.91a8.73,8.73,0,0,1-.58,2.07c-.67.58-1.5-.33-1.75-2-.49-2.57-.57-2.74-1-1.49-.33,1-.58,1.16-1.33,1.07s-.91.09-1.24,1.08-.5,1.08-.83.83a1.83,1.83,0,0,1-.5-1.08c0-.58-.16-.66-.91-.49s-1.08.08-1.33-.59c-.49-1.07-.83-1.07-1.32.17-.42,1.08-1.41,1.33-2.08.5-.58-.67-1-.67-1,.08,0,.5-.17.58-.83.5-.91-.17-1.16.58-.33,1.24s.58,1.25-1.08,1.91c-2.24.83-3.56.66-6.8-.83s-3.32-1.49-8.79-.25c-1.91.42-4.81.91-6.3,1.16-2.74.42-4,1-2.07,1s7.29-.75,7.29-1.08c0-.16.09-.25.25-.16a8.57,8.57,0,0,0,2.57-.58,11.81,11.81,0,0,1,3.15-.84,21.8,21.8,0,0,1,4.15,1.5c3.15,1.49,3.4,1.57,5.64,1.41a19.63,19.63,0,0,0,5.14-1.33c2.74-1.16,2.74-1.16,4.48-.66a41.35,41.35,0,0,1,7.13,2.74,17.27,17.27,0,0,0,2.74,1,2.54,2.54,0,0,0,2.48-.17c1.83-.91,3.15-.58,3.65.83.25.67.17,1-.58,1.91-.58.66-1,1-1.16.75a.67.67,0,0,0-.5-.34c-.33,0-1.41,3-1.16,3.24a8.73,8.73,0,0,0,2.16-1.91l1.9-2.15.75.74c.58.58.91.67,2.16.5,1.49-.17,1.49-.17,1.49.83,0,1.41-1.08,2.07-3.57,2.32-1.82.17-2.15.33-3.65,1.66-1.24,1.24-1.49,1.57-1,1.66,1.33.33,1.58,2.9.75,7.38-.5,2.57-1.08,4.22-1.33,3.89a7.93,7.93,0,0,1,.33-2.07c.66-2.65.83-7.29.25-7.88-.33-.33-.41-.08-.41,1.25a30.63,30.63,0,0,1-1.58,9c-.83,2.74-1,2.9-2.16,3.32a9.77,9.77,0,0,0-2.57,1.58l-1.41,1.24-.82-.75a3,3,0,0,1-.92-1.41c-.49-1.41-1.9-4.48-2.15-4.48-.42,0-.42,0,.16,1.58.67,1.82.09,1.74-1-.08-.67-1.16-.75-1.66-.5-2a5.06,5.06,0,0,0,.25-2.24c-.09-1.33-.25-1.74-.67-1.82s-.58.16-.74.58c-.33,1.16-1.25.58-2.32-1.5l-1-2-4.64-.16c-6.8-.33-9.29-1.08-14.43-4.23-3.4-2.08-6.88-3.73-7.88-3.73-.66,0-.08.41,2.41,1.74,1.82.91,4.64,2.48,6.3,3.56a19.76,19.76,0,0,0,10.2,3.49c1.66.16,2.9.33,2.82.33a13.22,13.22,0,0,1-2.57.49c-4.23.59-4.81,1.08-4.56,3.66l.08,1.15.5-1.49c.58-1.41,1.41-2,1.57-1,0,.25.17,1.41.34,2.48l.16,2,.33-2c.25-2,.75-3,1.08-2.15.08.25.25,1.41.42,2.49l.24,2,.08-2c.09-1.08.17-2.33.26-2.74.16-.83.24-.83,1.32.5l1.16,1.24-.25-1.57c-.24-2.16.42-2.08.91.08.67,3.32.34,3.73-1.32,1.74l-1.08-1.24.83,1.49c1.66,2.82,2.57,2.57,2.57-.75,0-1.07.16-1.9.33-1.9s.42.91.67,2.07.41,2.07.41,2.15c.42.34,1.24-.41,1.58-1.49.33-.91.33-1.24-.17-1.74-.75-.83-.66-2,.17-2,.58,0,.66.25.66,1.91s.08,1.82.41,1.16c.5-1,1.17-.91,1.5.16l.33.92.25-1.08c.08-.58.41-1.08.66-1.08.58,0,.58.42,0,2.07-.25.75-.25,1.33-.08,1.41.91.67,2.57,6.14,2.57,8.79a14,14,0,0,1-2.08,6.39c-.49.83-1,1.57-1,1.57a33.7,33.7,0,0,1-.08-3.89c0-3.15-.09-3.9-.5-3.9-.25,0-.66,1-1.16,2.9a34.51,34.51,0,0,1-1.49,4.23c-.58,1.16-.75,1.33-1.33,1-.83-.41-.83-.49-.08-3.15.49-2,.41-3.39-.25-3a5.74,5.74,0,0,0-.83,2.16c-.5,1.82-1,2.56-1.33,2.23a11.4,11.4,0,0,1,.5-2.4,16.66,16.66,0,0,0,.66-2.65c0-.75-.41.25-1,2.48-.83,2.82-1.66,4.81-1.91,4.56a18.56,18.56,0,0,1,.91-3.48c1.25-4.15,1.49-5.39,1.08-5.39-.25,0-.42.33-.42.75,0,1.24-1.4,5.64-1.9,5.8-.75.25-.75-.08-.08-1.82.91-2.32,1.24-5.56.66-5.31a9.06,9.06,0,0,0-1.33,3.15,11.23,11.23,0,0,1-1.49,3.73l-.75.75.17-.91c.08-.42.08-.83-.08-.83a13.78,13.78,0,0,0-1.83,4.14c0,.75.58.58,1.16-.25.33-.49.5-.57.5-.24,0,.66-2.74,3.48-4.06,4.23-.92.49-1.91.58-5.89.58-4.56-.09-4.73,0-4.07.49.83.67,5.73,1.66,8.05,1.66a11.2,11.2,0,0,0,5.89-2.4c.41-.42.83-.58.91-.5.33.25-1.08,1.49-2.65,2.24l-1.33.74,1.16-.24a7.71,7.71,0,0,0,3.73-2.08c.75-.66.91-.74.91-.33,0,.25-.66,1-1.57,1.58-1.25.83-1.41,1-.75,1A4.65,4.65,0,0,0,219,321c.75-.49,1.08-.49,2.82-.08s1.91.5,2.82-.33a3.22,3.22,0,0,1,1.41-.75c.25,0,.08.25-.33.67-.75.58-.75.66-.17.66a30.22,30.22,0,0,0,7.71-2.07c1.49-.67,2.57-1.08,2.49-.91s-1,3.06-2,6.55A140.77,140.77,0,0,1,225,347.91c-1.57,3.07-3.15,6.39-3.65,7.3l-.74,1.66,1.16-1.33c2.74-3,5.47-8.79,8.79-18.41,2.15-6.22,2-6.3,2.65,1.33a57.43,57.43,0,0,0,1.58,9.37c.5,1.9-.67,6.8-3.07,12.52-1.16,2.73-3.82,7.63-4.23,7.63a10.2,10.2,0,0,0-1.82,1c-1.33,1-1.58,1-2.33.66-1-.58-1.32-1.32-2-4.89-.91-4.81-2.15-5-4.22-.74-2.41,4.64-5.4,6.71-7.3,5-1-1-2-4.06-2-6.3a19,19,0,0,1,3-8.46c.75-1.08,3.32-4,5.64-6.47,4.56-4.64,4.9-5.14,6.72-9.28,1.66-3.73,1-3.15-.91.74-1.58,3.24-2,3.82-4.9,6.56-4.06,3.81-6.71,7-8,9.36a49.62,49.62,0,0,0-2.49,6.39c-.83,2.4-1.74,5-2.07,5.72-1.33,2.57-5.22,5.14-9.12,6.14-3.4.91-11.44-.58-16.67-3.07-3.23-1.49-8.12-5-9.28-6.55-.5-.67-2.83-3.15-5.15-5.56-3.4-3.56-4.39-4.81-5.72-7.3-4.39-8.45-7.79-22.63-8.87-37a169,169,0,0,1,.5-24.87c.33-4.32.5-5,1.41-6.47.49-.91,1.16-1.74,1.49-1.74.83-.17,2.49,1.49,4.73,4.81a58.19,58.19,0,0,0,9.45,11.27l7.3,6.55c7.46,6.8,15.83,12.69,17.49,12.36.5-.08.33-.33-.5-1.08-1.65-1.49-2.48-3.31-2.9-6.47-.33-2.23-.33-3,.08-3.73.25-.49.34-.91.17-.91s-.66.75-1.08,1.66a3.52,3.52,0,0,1-1,1.66c-.17,0-.08-.42.16-.91a5.26,5.26,0,0,0,.5-1.25,3.11,3.11,0,0,1,.75-1.33c.33-.49.58-.91.49-1-.24-.25-1.49,1.57-1.74,2.57-.16.5-.33.91-.49.91s-.34.25-.42.58-.25-.08-.41-.83-.33-1.4-.5-1.4a11.68,11.68,0,0,0-1.66,3.81c0,1.74-2.65-.25-11.52-9l-3.16-3,.25-1.41c.08-.75.42-1.33.58-1.33.42.08,1-2.32.58-2.57-.16-.16-.74.91-1.49,2.82-.08.25-.08-.25,0-1.08.17-1.08.08-1.57-.08-1.41s-.5.91-.58,1.83c-.33,2.4-.83,2-.83-.58a7.32,7.32,0,0,1,.66-3.57c.75-1.41.66-2-.08-.75a10.54,10.54,0,0,0-1.16,5.31c.17,1.08.17,1.08-1.33-.58-6.8-7.71-12-16.75-14.18-24.88l-1.24-4.56,1.74-1.65c.91-.92,1.66-1.74,1.49-1.83a5.28,5.28,0,0,0-1.66,1.33,16.62,16.62,0,0,1-1.65,1.57,6.13,6.13,0,0,1-.34-1.49c-.25-1.57-.08-1.74,2.49-3.73.33-.25.33-.41.08-.41a4,4,0,0,0-1.49,1c-.66.58-1.24.91-1.41.66a.39.39,0,0,1,.17-.49.4.4,0,0,0,.16-.5c-.08-.17.09-.42.34-.66.66-.59.66-1.5,0-1.17-.5.17-.5.09,0-.66.74-1.16.58-1.49-.17-.58s-.83,1.74-.33,1.74c.25,0,.25.17.16.33-.41.67-.74.25-.91-1.24-.58-4.89-.66-5.47-.33-5.31.16.17.41-.66.5-2a24.94,24.94,0,0,1,1.07-4.64,13.7,13.7,0,0,0,.67-2.4c-.33,0-1.25,2.48-2,5.47l-.75,3-.08-2c-.17-3-.17-3,.91-7.38.58-2.24.91-4,.75-3.9a14.84,14.84,0,0,0-1,3.32,9.39,9.39,0,0,1-1.08,3.15c-.16,0-.16-.25-.08-.58a30.3,30.3,0,0,0,1.16-6c-.08-.83-.25-.42-.5,1.24-.58,3-.74,3.57-.83,2.24,0-1.57.75-7.79,1-7.79s.5.58.83,1.32c.66,1.41,1.57,2.16,2.32,1.83A6.16,6.16,0,0,0,153,233c1.33-2.57,2.66-4.06,4.32-4.81,1.32-.58,1.32-.58,2.4.17a45.28,45.28,0,0,1,4.06,4.06c3,3.24,4.56,4.56,5.64,4.56.67,0,.67-.33,0-3.4l-.58-2.48,1.66-4c.91-2.15,1.91-4.47,2.16-5.22a3.54,3.54,0,0,1,1.74-2.07c1.82-1,2.15-1.33,2.15-2.24s-.49-1.08-3.81-2c-4.64-1.33-9.37-4.48-10.78-7.13a7.86,7.86,0,0,1-.66-2.74c0-1.24.16-1.58,2-3.32a20.64,20.64,0,0,1,3.31-2.57c1.16-.58,1.83-1.66,1.41-2.15a5.68,5.68,0,0,0-1.74-.17,13.39,13.39,0,0,1-2.32-.33c-.58-.25.08-.25,1.82-.17,4.73.34,12.28.25,14.1-.16a43.18,43.18,0,0,1,11.36,0c6.55,1.08,10.45,4.15,12.35,9.78.17.42.34.5.42.25a9.29,9.29,0,0,0-1.08-2.9,12.79,12.79,0,0,0-6.72-6.47,30.64,30.64,0,0,1-4.06-2.07c-1.24-.66-2.32-1.25-2.4-1.25a7,7,0,0,1-1.08-.82c-.91-.83-1-.83-6.72-.83a42.39,42.39,0,0,1-6-.17,4.85,4.85,0,0,0-2.07.33c-2.82.75-9.13,2.08-12.28,2.49A12.18,12.18,0,0,1,156,195c-2.82-.59-4.81-1.75-5.55-3.24q-1-1.86,1.49.25c1.66,1.33,2.82,1.74,7.13,2.24,3.4.33,7.13,0,7.13-.75,0-.25-.41-.25-.91-.08a27.85,27.85,0,0,1-4.73.25c-4,0-7.13-.66-8-1.66-.41-.5-.33-.5.5-.17,1.41.58,9.28.83,9.62.34.16-.25-.25-.34-1.25-.34-2.82,0-4.56-.41-4.56-1,0-.75-3.81-1.82-5.63-1.57a3.07,3.07,0,0,1-1.33,0c0-1,.66-1.91,1.91-2.74a110.75,110.75,0,0,1,13.1-5.64c2.32-.83,2.65-1.16,1.57-1.41-2.07-.58,1-2.07,5.23-2.65a76.06,76.06,0,0,1,10.2-.09c11.77.5,13.93.25,14.59-1.57.41-1.25.08-1.41-2.41-1.5-1.07-.08-3.15-.24-4.72-.41s-3.82-.33-5.06-.33c-2.65,0-3.15-.17-3.57-1.24s-.08-1.75,4.56-6.47c2.33-2.33,4.15-4.32,4-4.4s-1.25.58-2.49,1.66a24.16,24.16,0,0,1-11.11,5.14c-4.15.83-5.48.67-9.29-1.08-5.22-2.4-8-6.22-10.53-14.09a20.94,20.94,0,0,0-1.41-3.49c-.75-.41-.83.17-.25,1.5,1.58,3.48.5,5.55-2.9,5.55-1.58,0-2.08.17-2.82.83l-.91.83,1,1.49a11.35,11.35,0,0,1,2.16,5.72,20.13,20.13,0,0,1-4.73,16,8,8,0,0,1-2.4,2,1.72,1.72,0,0,0-1.17,1.57c-.33,1.41,0,10.12.5,13.69.17,1.4.33,6.38.5,11.11s.33,9.78.5,11.27.58,5,.83,7.8.82,7.71,1.16,10.78.66,6.72.66,7.88a161.39,161.39,0,0,0,2.16,17.24l.5,2.08-1.08.91c-2.33,1.91-3.9,2.49-9.37,3.4S130.17,272.54,128,274c-2.48,1.65-9.28,10.28-13,16.58a71.8,71.8,0,0,1-13.27,15.75c-3.9,3.57-6.14,6.22-6.64,8a9.57,9.57,0,0,1-1.74,2.32c-1.32,1.41-1.49,1.74-1.66,3.48-.08,1.08-.16,2-.16,2-1.35.95-17.65,9.37-28.16,14.54L65,338.24c2.5-1.18,5-2.32,7.35-3.35a73.76,73.76,0,0,0,8-4.39c6.68-4.43,10.45-6.75,11-6.89h.08c.49.42,3.65,23,4.47,31.43.41,4.41.73,7.5,1,10,.63.44,1.28.86,1.92,1.29-.73-5.25-1.37-10.6-2.6-21.12-.75-6.22-1.58-12.77-1.83-14.6s-.58-5.14-.75-7.3c-.16-3.73-.08-4,.58-4.64a2,2,0,0,0,.67-1,1.82,1.82,0,0,1,.58-1c.66-.5.66-.41.91,2.41.41,5.72,3,19.65,5.14,27.86.92,3.56,1.33,4.72,1.33,3.73,0-.25-.75-3.65-1.66-7.63-2.65-11.61-4.64-22.89-4.64-26.54v-1.49l5.8-5.63c3.15-3.07,6.64-6.72,7.63-8a53.77,53.77,0,0,0,5.81-8.54c.83-2.32,8-12.27,10.94-15.25,3-3.16,4.23-3.74,10.7-4.9s9.28-2.07,10.78-3.23c.62-.47.92-.64,1.17-.61a1,1,0,0,1,.49.28c.41.41.49,1.24.41,3.89,0,4.15-.74,6.31-3.9,12.19-2.73,5-4.72,6.89-10.69,9.87-1,.5-2.91,1.58-4.23,2.41-2.91,1.82-3,2.07-2.07,7.21a186.22,186.22,0,0,0,10.69,37.15,99.42,99.42,0,0,0,7.71,15.42c2,3.4,2.16,3.57,5.23,5.56,1.65,1.16,4.06,2.74,5.22,3.56,3.48,2.41,6.05,3.9,12.77,7,12.44,5.89,14,6.39,20.48,6.55a45.35,45.35,0,0,1,7.22.67,33.38,33.38,0,0,0,7.46.58c5.55,0,8.79-.5,11.69-1.91,4.06-2,10.37-9.37,14-16.42,2-3.9,4-9.12,4.06-10.86v-.91l.25,1a61.58,61.58,0,0,1,.33,6.39c0,6.22.25,5.55-3.65,11.36-4.89,7.29-9.87,12.27-14.84,14.59-2.74,1.33-9.54,3.32-11.36,3.32-.58,0-1,.16-1,.33,0,.66,7.63-1.08,11.69-2.74a27.75,27.75,0,0,0,4.65-2.57c3.89-2.9,9.2-8.87,13.27-14.84,1.24-1.74,1.24-1.83,1.24-.83,0,1.82-2.9,6.22-7.8,11.77-3.56,4.07-10.53,8-16.5,9.29-3.89.83-14.68,1.16-20.23.67-3.57-.34-17.66-3.49-18.16-4.07a6.35,6.35,0,0,0-2.07-.08c-2,.17-2.49.74-1.25,1.41a6.91,6.91,0,0,1,2.33,4.15,7.1,7.1,0,0,1-.42,2.07l-.42,1.08.57.57a184.77,184.77,0,0,0,66.82-2.76c-.28-4.18-.49-9.34-.72-17-.49-16.67-.74-20.4-1.65-24.63a28,28,0,0,1-.5-3.64,2.47,2.47,0,0,0-.33-1.5c-.17-.08-.34-.58-.34-1a39.66,39.66,0,0,0-1-5c-1.25-5.39-1.24-6,.17-2.57,2.57,6.39,5.39,10.2,12.6,17.66,3.32,3.4,6.47,6.89,7.13,7.72s1.16,1.49,1.24,1.41c.42-.42-2.81-4.32-7.79-9.37a93.79,93.79,0,0,1-7.46-8.3c-3.9-5.39-7.47-13.43-7.14-16,.09-.67.92-3.56,1.83-6.55,1.49-5.14,1.66-5.39,2.74-6.06a24.49,24.49,0,0,0,3.31-2.48c1.16-1,2.16-1.74,2.16-1.74s1.49,3.65,3.23,8,5,12,7.22,17,5,11.36,6.13,14.18c3.9,9.29,4.31,10,6.39,11.94,2.73,2.57,4.31,2.4,3.48-.5-.66-2-8.12-13.93-8.29-13.27a2.4,2.4,0,0,0,.58,1.41c.91,1.58,4.4,11.53,4,11.53s-1.66-2.65-5.31-11.36c-2.57-6.05-4.23-9.78-9.12-20.65-1.32-3.07-2.4-5.63-2.4-5.72a7.19,7.19,0,0,1,1.24,1.83c.66,1.07,3.82,6,7.13,11,7.55,11.45,8.46,12.86,8.46,13.27,0,.17,3.32,3.9,7.3,8.29l7.38,8-1.17,1.41c-3.06,3.65-2.73,3.4-7.46,4.57a28.43,28.43,0,0,0-5,1.49c-.5.33-.42.58.58,1.82.53.66,2.05,2.35,3.68,4.09l1.12-.45q-.48-.5-1-1l-3.81-3.73,3.89-1c2.16-.5,4.32-1.08,4.81-1.24.92-.42,4.9-4.73,4.9-5.4,0-.16.16-.16.33-.08.58.33.33-.75-.42-1.91-1.32-1.9-6.55-8.21-10-12a85.86,85.86,0,0,1-6-7.63c-1.41-2.15-4.64-6.8-7.13-10.28-4.56-6.39-8.95-13.1-10.86-16.42a51.8,51.8,0,0,1-3.07-6.88c0-.08.41.16,1,.41s2.49,1,4.4,1.66A25.81,25.81,0,0,1,253,315.9c-1.16,0-6.31-1.08-6.47-1.41s-.33-.25-.5,0c-.41.75,3.32,1.5,10.12,2.24A47.26,47.26,0,0,1,272.05,321c1.66.83,3,1.33,3,1.17,0-.5-5-2.91-8.29-4.07s-3.23-1.08-14.59-3.32a48.29,48.29,0,0,1-8-2.81,30.27,30.27,0,0,1,2.9-3.16l3.07-3.15,1.74,1.41a49.48,49.48,0,0,0,8.79,5.81,67.45,67.45,0,0,1,11.85,6.38,13.33,13.33,0,0,1,4.23,4.06c1.66,2.74,5.89,6.14,15,12.19,2.32,1.58,4.15,2.91,4.07,2.91a61.66,61.66,0,0,1-7.47-3.9,67.63,67.63,0,0,1-9-6.88,4,4,0,0,0-1.41-1.16c-.58,0,1.33,1.82,4.07,4.06,4.89,4,11.86,8.12,14,8.29a30.22,30.22,0,0,1,5.06,2.66c2.41,1.32,5,2.81,5.8,3.31s2.82,1.91,4.4,3.15c1.42,1.19,4.08,3.18,5.91,4.66,1.09-.86,2.17-1.72,3.24-2.6-3.34-2.61-6.28-4.78-8.32-6.12a83.77,83.77,0,0,0-9-4.64,88.51,88.51,0,0,1-15.83-8.71c-6-4.15-6.39-4.4-7.55-6.8-1.33-2.74-3.15-4.31-8.46-7.55a41,41,0,0,0-8.87-4.39c-1.91-.67-5.39-2.91-9-5.81l-2.24-1.82,3.57-4.64A79.84,79.84,0,0,0,266.49,277a164.53,164.53,0,0,0,4.56-18.08c.34-2.4.42-2.73,2.66-12.68,3.15-13.93,3.31-15,3.48-23l.25-7.38,2-6.22c2.57-8.13,2.9-9.79,3.15-15.26.17-4.15.17-4.64-.41-5.22-1-1.08-2.33-.83-3.4.58-.75.91-.92,1.66-1.08,3.65-.33,3.81-1,3.89-1,.16,0-2.9.09-3.15.83-4,1.58-1.57,7.13-8.62,7.13-9s-1.16-1-2.4-1a3.35,3.35,0,0,1-1.49-.33c-1.08-.58.58-3.49,2.82-5.15,1.41-1,1.41-1,2.65-.41,3.32,1.66,6.55-2.57,7-9.12.16-2.57.25-2.9,1.07-3.73,1.42-1.33,2.57-4.07,3-7.3.33-2.74.5-3.07,1.49-4.14,2.08-2.08,2.49-4.07,1.74-8.13a10.45,10.45,0,0,1,.17-4.73c.83-4,.58-4.64-2.07-6.8-3.57-3-4.15-3.73-4.9-6.55a26,26,0,0,0-3.65-8.37c-1-1.58-1-2.08,0-3.65a9.45,9.45,0,0,0-1.74-12.27,23.82,23.82,0,0,0-7.21-3.74,5.41,5.41,0,0,1-1.58-1,2.38,2.38,0,0,0-1.07-.83c-.5,0-5.48-4.64-6.55-6.14a5.73,5.73,0,0,1-1.08-2.32,11.54,11.54,0,0,0-.83-2.49c-.83-1.57-.83-2.9-.17-3.64.5-.58.5-.83-.16-2.74a71.55,71.55,0,0,0-5.39-11.36c-3.82-7-7.55-10.12-12.36-10.61-2.07-.17-2.48-.09-3.23.49-.91.67-1,.67-2.49.17a13.35,13.35,0,0,0-7.21,0,2.67,2.67,0,0,0-1.5,1.33c-.33.66-.74.82-2.23,1-3,.42-5,0-8.88-1.74-2-.91-5-2.07-6.71-2.65l-3-.92.17-1.49c.16-1.41.08-1.57-1-2.57s-2.32-1.41-5-1.41Zm40.55,10.37a.59.59,0,0,1,.33.09c2.65.74,5.47,3.39,8.29,7.62,1.91,3,2.65,5.14,3,9.46a32.37,32.37,0,0,0,.67,4.23c.58,1.66.16,1.66-.75,0a22.91,22.91,0,0,1-2.4-7.05,23.43,23.43,0,0,0-8.29-13.52c-.75-.58-1-.83-.83-.83ZM243,56.7c6.88,0,12.19,6.46,12.19,14.67a12.29,12.29,0,0,0,.66,4.15,5.47,5.47,0,0,1,.49,1.82c-.08.17-.66,0-1.24-.16-1.32-.5-3.15-.09-6.13,1.32a18.4,18.4,0,0,0-7.22,6.8A7.24,7.24,0,0,1,240.46,87c-.17,0-.17-.24.08-.58a2.1,2.1,0,0,0,.25-.83c.08-.91,1.74-3.48,3.48-5.38a15,15,0,0,1,8.63-4.73c1.07-.08,1.9-.25,1.9-.42a3.65,3.65,0,0,0-.49-.82,15.66,15.66,0,0,1-1.83-6.14,29.53,29.53,0,0,0-.66-4c-.83-3.4-1.74-4.48-4.73-5.81-2.57-1.16-4.48-1.41-5.89-.74-.58.33-1.08.41-1.16.16-.5-.66.58-1.07,2.91-1.07Zm7.29,1.16a2.1,2.1,0,0,1,.83.41c3.57,1.82,7.05,7,8.54,13A28.4,28.4,0,0,0,262,78c.83,1.25.08.84-1.49-.82-1.83-2-3.24-5-4.32-9.12-1.16-4.81-3-8.05-5.72-10Zm-68.55,11.6h0c-4.07.16-8.93,3.26-13.12,8.63-2.41,2.9-4.65,7-4.65,8.29,0,.83,0,.83-.5-.17-.83-2.07-3.73-4.06-7.29-5.22a20.94,20.94,0,0,0-7.8.25,22.67,22.67,0,0,1-2.65.74c-1.33.25-6.3,3.57-7.63,5a40,40,0,0,0-2.65,3.15c-1.74,2.49-1.25,3.07.91,1,2.9-2.66,7.05-4.07,12.35-4.07,6.72,0,11.12,2.91,9.79,6.47-.33.66-1.08.66-3.9-.33A21.37,21.37,0,0,0,144.27,92c-3.48.41-6.22,1.41-7.63,2.65s-1,1.49.91.83c2.57-.83,7,.17,10.2,2.32,1.49,1.08,3.07,3.32,2.74,3.82s1.08.25,4-.83c2-.75,2.82-.83,6.38-.83,8.55,0,15.84,2.57,20.73,7.21,1.91,1.83,3.49,3.9,3.65,5.06.17.42.17.17.09-.66a11.21,11.21,0,0,0-.25-2.16c-.17-.33,0-.08.33.58.74,1.58,1.74,1.66,1.74.25,0-1.08.25-1.24.91-.66,1.08,1.16,1.41-1.33.5-3.48-.83-1.75-2.57-3.24-6.14-5.23-2.65-1.49-3.89-1.91-3.89-1.33s.58,1,2.81,2.41c2.91,1.82,5.06,3.48,5.56,4.39.41.75-.08.58-1.33-.49-.49-.5-.82-.59-1.07-.34s-.92,0-2.24-.82a10.86,10.86,0,0,0-3.07-1.25,40.11,40.11,0,0,1-3.81-1.49c-7.8-3.81-19.66-4.4-23.14-1.16l-.83.74-.33-.74a13.47,13.47,0,0,0-4.31-4.4,13.28,13.28,0,0,0-7-2.07c-1.74,0-1.74-.08-1-.5a17.22,17.22,0,0,1,7.63-1.24c3.49,0,4.81.25,8.87,1.82,2.58.91,2.74,1,3.57.42a2.52,2.52,0,0,0,1-1.66c1-5.06-5.73-8.62-14-7.55l-3.73.58-.83.17.83-.5a15.65,15.65,0,0,1,2.49-1c.91-.34,2.4-.83,3.23-1.25,1.49-.66,1.83-.66,4.31-.33a20.39,20.39,0,0,1,4.48,1.25c2.49,1.07,5.39,3.39,5.64,4.31a2.2,2.2,0,0,0,.58,1.16c.33.25.91-.5,2.57-3.57A28.12,28.12,0,0,1,174.7,76c2.9-1.9,6.3-3.31,7.13-3.06s.91,1.49.17,1.49c-1.49,0-7.55,4.06-11,7.46-1.08,1.08-1.24,1.41-.41.58,3.73-3.32,9.53-6.13,10-4.72.08.16,1.08-.17,2.24-.83,7.21-3.9,15.84-4.56,20.31-1.66,2.41,1.57,3.24,4.06,1.83,5.39-1.25,1.08-2.08,1.41-4.65,1.57s-2.07-.25.83-.66c1.66-.25,3.57-1.49,3.57-2.32a4,4,0,0,0-1-1.66c-1.82-2-5.55-2.82-10-2-5.14.91-10.61,3.23-12.69,5.47l-1,1.08,1-.66c3.57-2.41,10-4.73,13-4.73l1.91.08-1.83.25a33.09,33.09,0,0,0-12.35,4.81c-2.41,1.58-2.74,1.74-2.32,1.08.08-.25,0-.25-.34.08-.58.42-.66.42-.91,0A2,2,0,0,1,178,81.9c.08-.33-.91.42-2.32,1.83-2.82,2.73-3.24,3.65-2.24,4.72.5.58.83.58,2.32.5a15.56,15.56,0,0,0,3.81-1.08c5.73-2.49,8.54-3.23,12.19-3.4,4.23-.17,6.06.25,7.55,1.74a2.87,2.87,0,0,1,1.08,2.24,9.15,9.15,0,0,1-.09,1.25,10,10,0,0,1-1.57-1.5,7.31,7.31,0,0,0-3-1.82c-1.82-.5-6-.25-8.95.5-4.23,1.07-2.82,1.57,1.66.58,2.23-.5,4.22-.42,3.81.24a5.36,5.36,0,0,1-1.91.67,11.6,11.6,0,0,0-2.57.91c-.74.42-.74.42.83.25a19.88,19.88,0,0,0,2.74-.41,2.11,2.11,0,0,1,1.91.74c1.07,1,1.07.91,6.46.83,8-.25,9-.25,10.62.58a8.86,8.86,0,0,0,1.9.75c.25,0,1.16.16,2.08.33,1.49.33,1.91.58,3.48,2.57a9.22,9.22,0,0,1,1.66,2.32,7.25,7.25,0,0,0,.41,1.83c.83,3.06-.16,7.79-2.49,12.35a21.75,21.75,0,0,1-8,8,34.43,34.43,0,0,1-9.71,3.32c-1.82.17-1.82.17-2.74-1.16-2.4-3.48-10.52-9.79-10.52-8.13a7.82,7.82,0,0,0,2,1.66c4.64,3.4,7.29,7.3,9.45,14,2.32,7.05,1.16,18.24-2.49,23.79-1.49,2.33-1.33,2.82.17.58.58-.74,1.07-1.4,1.24-1.32.75.5,3.65-5.89,4.23-9.29a36.16,36.16,0,0,0-.58-12.27l-.58-2.41,1,.58a18.07,18.07,0,0,0,2.73,1.17c2.41.74,4.06,2.32,4.31,4.06.25,2.16.83,2.32,2.41.91,2.82-2.57,6.63-12.19,6.8-17.25a6.08,6.08,0,0,1,1.16-4,24.33,24.33,0,0,0,3-15.75,20.18,20.18,0,0,0-1.49-4.31,21.72,21.72,0,0,0-13.6-10.62l-1.82-.41,1.49-.92c2.41-1.57,3.07-3.48,1.82-5.47-2.57-4.14-12.19-5.8-18.4-3.15-1.41.58-1.5.58-1.66.08a4.32,4.32,0,0,0-2.49-3,7.73,7.73,0,0,0-2.65-.75,7.3,7.3,0,0,0-.81,0Zm14.9,8.3-2,.33a31.23,31.23,0,0,0-8.12,2.57c-.42.25-.58.33-.34.25s1.91-.58,3.57-1.16a24.35,24.35,0,0,1,5-1.16l1.9-.17-2.15.5a15.49,15.49,0,0,0-2.32.66c-.09.17.24.17.66.09a12.48,12.48,0,0,1,2.32-.42c1-.08.58.08-1.33.66-1.57.42-3.81,1.17-4.89,1.58-1.91.83-2.82.75-1.49-.09,1-.57.25-.41-1.41.34-1.91.83-2,.83-1.41.08.41-.5.33-.5-.41-.08-.42.24-1.25.74-1.75,1.08-.91.66-1,.66-.83,0,.25-1.49,8.63-4.73,12.69-4.9Zm-5.14,2a3.43,3.43,0,0,0-1.16.33c-.41.17-.5.25-.16.25a3.24,3.24,0,0,0,1.16-.25c.41-.17.5-.33.16-.33Zm-40,2.06h0a16.08,16.08,0,0,1,7,2.41c2,1.16,4.31,3.16,3.65,3.16a4.32,4.32,0,0,1-1.16-.83,21.36,21.36,0,0,0-7.14-3.65,9.28,9.28,0,0,0-3.64-.33c-1.5.16-1.58.16-1-.33a2.45,2.45,0,0,1,1.49-.42h0a6.94,6.94,0,0,1,.8,0Zm4.34.26c1.25,0,7.3,3.9,6.81,4.39-.09.09-.75-.33-1.5-1a23.16,23.16,0,0,0-3.64-2.24C156.21,82.57,155.38,82.07,155.79,82.07Zm107.64,2.24,1.32.74a40.22,40.22,0,0,1,4.4,3.57c4.48,4.06,11.28,8.38,13.18,8.38,1.66,0,5.89,3.89,7.05,6.55,1,2.15.75,5.14-.5,6.3a2.78,2.78,0,0,1-3.4.25c-.41-.25-.49-.5-.25-.5.67,0,1.08-1.58.75-2.57-1.16-2.9-6.05-6.06-17.33-11-2.82-1.16-6.38-2.81-8-3.64-3.15-1.58-8.46-4.73-8.46-5.06,0-.5,1.33-1.41,2.57-1.83a11.62,11.62,0,0,1,3.32-.5c2.32,0,2.57.34,1.49,1.66-.58.75-.75.75-1.91.42-1.33-.42-1.82-.33-1.82.41,0,.58,1.08,1.49,2.24,1.66,2.32.5,5.39-1.74,5.39-3.81Zm-57.55,7.38a7.51,7.51,0,0,0-2.32.41l-1.33.34,2.82.24c3.73.42,4.06.5,5.56,1.74,4.22,3.74,3.31,13.35-2,19.91a22.94,22.94,0,0,1-8.71,5.88,15.35,15.35,0,0,0-2.16.83c0,.42,2.49.08,4.4-.49,5.64-1.75,12.27-7.88,15.42-14.27a8.32,8.32,0,0,0,1.25-5.31c0-2.65-.09-3-1-4.47-1.24-2-3.23-3.24-4.89-3.07-1.08.08-1.08.08.74.91,4.73,2.24,5.56,6.63,2.49,12.77a29.41,29.41,0,0,1-12.35,12.27,5.89,5.89,0,0,1-1.91.75,5.64,5.64,0,0,1,1.74-1.08,23.34,23.34,0,0,0,4.4-3.48,19.83,19.83,0,0,0,6.05-14.43c0-4.4-1.49-7.21-4.48-8.62A8.7,8.7,0,0,0,205.88,91.69Zm47,.16c-.09,0-.09,0-.09.09,0,.49,8.88,5.39,12.61,6.88,3.4,1.49,2.49.83-2.33-1.66s-7.29-3.73-9.2-4.89a2.78,2.78,0,0,0-1-.42ZM203.81,94a3,3,0,0,0-1.41.33c-.33.25.16.33,1.66.33,2,0,2.15.09,3.23,1.16,2.49,2.74,2.74,9,.58,14.93-.17.5-.17.58.08.33a10.44,10.44,0,0,0,1.08-2.82c1-3.73,1.24-6.8.5-9.12-.66-2.57-1.66-4.06-2.82-4.64a7.61,7.61,0,0,0-2.9-.5Zm50.42.66a.14.14,0,0,0-.09,0c-.08,0,.17.25.83.67a1.77,1.77,0,0,1,1,1.49c0,.83.42,1.16,3.57,2.82,2,1.08,3.56,1.74,3.56,1.58s.42-.09.92.24c.91.42,1.74.67,1.74.34a11.23,11.23,0,0,0-2.49-1.25c-1.33-.66-3.4-1.74-4.48-2.4a6.32,6.32,0,0,0-2.32-1c-.08.09-.25-.08-.25-.33,0-.66.08-.66,1.74.33a98.34,98.34,0,0,0,9.87,4.48c.67,0,0-.41-4.64-2.49-2.57-1.16-5.56-2.65-6.64-3.32a13.14,13.14,0,0,0-2.31-1.16Zm-50.34,1.08c-.17.08,0,.58.33,1a15.45,15.45,0,0,1,1.58,5.4v1l.16-1a7.71,7.71,0,0,0-.25-2.66C205.38,97.91,204.3,95.75,203.89,95.75Zm1.82.25c-.41,0-.41,0,.17,1.66a17.77,17.77,0,0,1,.74,4.48l.26,3L207,103a17.42,17.42,0,0,0-.42-4.56,6.61,6.61,0,0,0-.83-2.4Zm-14.59,1.66c-.58,0-.33.33,1.41,2,1.57,1.49,2.65,1.91,2,.83A14.6,14.6,0,0,0,191.12,97.66Zm-1,1h0c-.09,0,.27.54,1.14,1.41,1.33,1.25,1.66,2,1.58,3-.08.16.08.25.25.25a.36.36,0,0,0,.33-.34,5.81,5.81,0,0,0-2-3.39,3.49,3.49,0,0,0-1.24-.92.08.08,0,0,0-.07,0Zm-2.09,1c-.25,0,.17.49.83,1.08,1.58,1.32,2.57,2.82,2.57,3.89,0,.58.08.67.42.42s.16-.75-.42-1.91c-.74-1.49-2.65-3.48-3.4-3.48ZM187,101c-.24,0,0,.5.58,1a9.63,9.63,0,0,1,1.66,3.48,15.48,15.48,0,0,0,.83,2.49,2.74,2.74,0,0,0-.08-1.41c-.42-2.65-2-5.56-3-5.56Zm-43.78.5c-.08,0-.16,0-.16.09s.66.49,1.41.82A11.85,11.85,0,0,1,147,104c1.16,1,1.16,1,.16.33a29.36,29.36,0,0,0-5.72-2.65c-.25,0-.33.16-.25.33s0,.33-.41.17a7.26,7.26,0,0,0-2,0l-1.25.24,2.24.75a22,22,0,0,1,8.05,4.64c.91.92,1.74,1.5,1.82,1.33S149,108,148,107.19a23.13,23.13,0,0,0-4.73-3.06c-1.65-.83-2.73-1.5-2.48-1.5.91,0,5.72,2.57,7.13,3.82s2.4,1.49,1.08.33a1.14,1.14,0,0,1-.42-1c.08-.33,0-.49-.25-.49s-.25.16-.08.41-.25.08-.75-.25-1.9-1.16-3-1.74a9.16,9.16,0,0,1-1.74-1.08,18.57,18.57,0,0,1,4,2.08c1.16.74,2,.33,1.24-.58a12.06,12.06,0,0,0-4.81-2.66Zm-12.7.24a.35.35,0,0,0-.15,0h-.08c-.17.08.49.5,1.32.83,2.24,1,4.15,3.23,6.3,7.38,1.83,3.48,3.24,5.22,3.9,4.73.17-.09,0-.42-.33-.83-.5-.58-.58-1.25-.58-4.73,0-2.24-.08-4-.25-3.81-.5.41-.66,5.39-.33,6.8.33,1.24.33,1.24-.08.66a23.75,23.75,0,0,1-2.08-3.65,23.42,23.42,0,0,0-3.07-4.48c-1.24-1.24-3.72-2.85-4.57-2.91Zm7.18,1.33a1.26,1.26,0,0,0-.28,0c-.17,0-.33.08-.33.16s.66.42,1.4.59c2.74.33,8.79,3.89,10,5.8.24.33.49.58.49.5s-.08-.5-.33-1c-.83-1.16-5.39-4.31-7.38-5.14a14.93,14.93,0,0,0-3.53-.92Zm21.69.26a1,1,0,0,0-.91.41,1.36,1.36,0,0,0,.83,2.16c3.9,1.41,15.59,10.53,16.17,12.6a1.31,1.31,0,0,1-2.32,1.16,26.55,26.55,0,0,0-2.57-2.49c-2.58-2.4-3.9-2.57-3.65-.58,0,.25-.58-.08-1.41-.83-3.15-3.06-5.56-4.47-8.88-5.3s-9.53.25-11.44,2c-1.16,1.07-1,1.57.25.83,4-2.41,10.12-2.33,15.34.16a14.07,14.07,0,0,1,6.88,7.14c1.33,2.81,2.08,3.56,2.49,2.48a8.21,8.21,0,0,0-.16-2.24l-.34-1.66L171.3,121c1.83,2.15,2.74,2.32,5.14,1.24,3.57-1.66,3.24-5.47-1-9.62a51.11,51.11,0,0,0-10.7-7.46l-2.32-1.24,1.49.25a42.85,42.85,0,0,1,9.45,3c5.48,2.65,9.79,7.55,9.79,11.11,0,.83,0,.83.5.17a2.65,2.65,0,0,0,.5-1.33c0-1.49-1.66-4.23-3.9-6.38-4.07-4-9.7-6.31-17.58-7.13C160.94,103.38,159.94,103.3,159.36,103.3Zm75.46,1.32a2.15,2.15,0,0,0-1.91.67c-1.08,1.07-.83,3.48.67,6.8s2.65,6.8,2.65,8.7c.08,3.24.58-.08.66-4a23.58,23.58,0,0,1,.33-4.64,1.67,1.67,0,0,0-.16-1.83c-.58-1.16-.67-2.07-.17-2.07s2.66,4.06,3.57,6.63a22.11,22.11,0,0,1,.91,4.4l.17,2.07-.5-2.15c-.5-2.66-1.74-6-2.16-6a13.66,13.66,0,0,0-.25,4.31c0,4.64-.49,6.47-2,7.13-1.16.5-3.06,7.3-2.15,7.88.41.25,2.24-.67,3.56-1.74a16.78,16.78,0,0,0,2.57-3.57c1.08-2,1.5-2.41,2.16-2.41s.91-.33,1.49-1.57c.66-1.41.75-2.16.75-6.3s.08-4.56.5-4c.83,1.24.83,6.63,0,9.7a51.8,51.8,0,0,1-5.64,12.11c-3.24,4.72-7.88,8.62-12.19,10.11-4,1.41-4.06,1.25-1.41-2.24,3.07-4,6.8-11.36,7.46-14.84,1.41-6.47,1.49-7.63.83-10.2s-2.57-5.39-3.48-5.39-1.25.91-.67,2.49a18,18,0,0,1,.5,5.14c0,5.89-2.32,13.68-6,20.07a42.58,42.58,0,0,1-8.21,8.79c-1.41,1.07-1.41,1.07.66-1.33a37.75,37.75,0,0,0,8-13.52,34.35,34.35,0,0,0,2-11.19c.09-3.48-.16-4.4-1.08-6.3-.91-1.74-1.15-.91-.57,1.9,1.65,8-2,20.73-7.88,27.12-1.91,2.07-5.23,4.64-6.8,5.22-1.74.58-4.73.5-5.31-.16-1.33-1.5-.33-2.74,6.72-8,5.64-4.23,11.19-9.46,12.1-11.36s.34-2-.91-.42a74.77,74.77,0,0,1-11.19,10.61,96.71,96.71,0,0,0-7.46,6.56A33.72,33.72,0,0,0,197,161.51c-1.24,4.31-1.73,5.47-2.48,5.22a7.41,7.41,0,0,1-2-2.15c-1.58-2.33-1.91-1.91-.41.57,1.24,1.91,3,3.82,3.48,3.82.25,0,.66-.5.91-1.08a27.67,27.67,0,0,0,1.24-3.56,31.13,31.13,0,0,1,2.58-7.05c1-2.16,1.32-2.57,2-2.57a1.56,1.56,0,0,1,1.25.83c1.91,2.82,8,2.9,13.43.16a49.53,49.53,0,0,0,9.54-7.21,11.52,11.52,0,0,1,4.48-3.07c6.88-2.49,12.93-7,15.83-11.94a28.21,28.21,0,0,0,3.57-11c.16-2.4.16-2.57-.66-3.4-.5-.5-1.08-.75-1.25-.66s-.33-.33-.33-1a26.79,26.79,0,0,0-2-8c-1.33-2.24-5.64-4.23-9.87-4.64C235.65,104.71,235.23,104.62,234.82,104.62Zm1.33,2h0a3.45,3.45,0,0,1,1.07.5c.58.25,1,.41,1,.33s.41,0,.91.25c2,1.08,4.06,6.63,4.06,10.78l-.08,2.57-.25-2.65c-.33-3.82-1.74-8-3.4-9.71-.83-.91-1.57-1.07-.83-.16a26,26,0,0,1,3.24,6.8c.74,2.49.83,4.73.33,5.56-.25.33-.33.16-.17-.75.5-2.74-2.32-9.79-4.89-12.19-.91-.91-1.24-1.33-1-1.33Zm34.41.67a1.55,1.55,0,0,1,.33.24,37.36,37.36,0,0,1,6.22,6.89c1.24,1.74,3.4,5.8,3.15,6a8.21,8.21,0,0,1-1.08-1.74,36.42,36.42,0,0,0-6.71-9.12,9.36,9.36,0,0,1-1.91-2.24Zm-142.12.32h0a9.21,9.21,0,0,0-4.4,1.25c-1.83,1-3.07,2.57-2.82,3.65.08.41.25.33.66-.5,1.33-2.4,3.81-3.73,7.13-3.73,2.74,0,5.73,1.58,5.73,3.07,0,.5-.26.58-2.24.58-3,0-5.31.75-6.56,2-.49.5-.82,1-.58,1a2.44,2.44,0,0,0,.92-.66c1.07-1.24,3.4-1.82,7-1.82,2.49,0,3.57.16,4.4.58s1.07.41,1,.16-.83-.58-1.66-.83-1.57-.66-1.57-.91c0-.83-1.66-2.4-3.4-3.15a8.81,8.81,0,0,0-2.91-.66c-.21,0-.43,0-.65,0Zm113.1,1.5.66.75c1.24,1.49,2.57,7.87,2.15,10.53-.33,2.4-.66,1.74-.58-1.08a20.72,20.72,0,0,0-1.57-8.71Zm27.77,1.74c-.16,0-.24.09-.33.25-.83,1.41-.66,4.64.58,11.44.67,3.74,1.33,7.3,1.49,8s.34,1.58.5,2.16l.25.91-1.49-1.33a53.13,53.13,0,0,0-9.2-6.21c-2.91-1.58-3.65-1.74-3.65-1.16,0,.16.16.25.25.16.41-.16,4.64,2.24,7.62,4.31a30,30,0,0,1,7,6.72c.91,1.41,1.49,1.74,1.91,1.08a88,88,0,0,0-1.33-10.62c-.17-1,3.81,6.64,4.81,9.29.41,1,.91,2.24,1.16,2.82a27.57,27.57,0,0,1,1.24,11.86c-.25.91-.33.83-1.49-1.66-2.15-4.31-4.89-7.38-6.55-7.38-.83,0-.91,1.33-.08,2,1.16,1,3.65,5.31,4.56,8a20,20,0,0,1,1.08,6.72c.16,3.56.24,3.81.74,3.56a6.8,6.8,0,0,0,1.58-1.9c2.24-3.74,3-9.29,1.9-15.1-1-5.22-2-7.71-7-16.83l-2.49-4.48-.66-4.64c-.5-3.32-.91-5.14-1.58-6.47-.41-.91-.66-1.33-.83-1.41Zm-116.67,1.75c-.41,0-.66.08-.66.33a.36.36,0,0,0,.33.33c.91,0,5.89,5.39,7.8,8.37.49.83.16.66-2-.91s-6.22-3.81-7-3.81c-.5,0,.42.74,3,2.4a76,76,0,0,1,9.12,7.46c2,1.83,2.24,2,2.57,1.25.33-.92-1.16-4.81-2.65-6.89a34.94,34.94,0,0,0-7.72-7.54,6.38,6.38,0,0,0-2.82-1Zm-20.39.66a6,6,0,0,0-2.82.58c-1.75.74-3.74,2.32-3.49,2.73a10.44,10.44,0,0,0,3.24.09c2.4-.17,3.32-.09,4.23.33,1.33.58,1.32.58,4.47-.58l2.33-.83-2.33-1.08A13.81,13.81,0,0,0,132.25,113.25Zm10.44,3.48c-3,0-3.73.08-5.05.75-1.91,1-5.06,3.73-5.81,5.14a17.31,17.31,0,0,0-1.08,11.85c1.66,5.4,6.47,10.7,9.62,10.54h1.16l-1.16-.25c-3.73-.75-7.88-5.81-9.12-11.2A12.77,12.77,0,0,1,138,118.8a7.09,7.09,0,0,1,4.39-1c4.4,0,7.88,1.9,16.92,9.2,9.29,7.38,12.69,9.7,15.17,10.29,2,.41,1.25-.42-3.23-3.49-1.58-1.08-5.56-4.06-8.79-6.63-6.88-5.48-10.53-8-13.93-9.46-2.07-.91-2.66-1-5.81-1Zm105.65,2.32c.08,0,.24.08.41.33,1.74,2.41-1.58,12.27-5.72,16.67a36.58,36.58,0,0,1-8,6.22c-1.33.66-1.41.75-.66.17a46.83,46.83,0,0,0,7.54-8.13,42.71,42.71,0,0,0,5.89-13.6c.25-1.16.33-1.58.5-1.66ZM132.5,120.46l-1.08.25c-1.66.33-5,2.16-5.56,3.07-.66,1.08-.33,1.74,1.08,1.74h1.16l-.58,1.24c-.66,1.74-.42,4.48.58,5.56,1.33,1.41,1.49,1.08,1.49-2.9s.5-5.81,2.08-7.8Zm12.85.09h0Zm0,0a4.66,4.66,0,0,0-2.27.66C139,123.7,140,133.48,145,138.46c1.08,1.08,1.91,1.66,2.41,1.66.66,0,.66-.09-.25-.5a8.61,8.61,0,0,1-3.56-3.73c-3.07-4.89-3-12.28.16-13.85,2.82-1.49,6.22,1.66,10.53,9.78,2.32,4.32,4,6.31,5.31,6.31s1.24-.5.08-1.16c-1.07-.5-2.49-2.58-4.72-6.64a30.88,30.88,0,0,0-5.31-7.63,7.86,7.86,0,0,0-4.28-2.15Zm48.56,4.06s-.09,0-.09.08a9.38,9.38,0,0,0,.92,2.41c1.66,3.73,2.07,6.38,1.9,12.68a44.81,44.81,0,0,1-.74,7.47,27.29,27.29,0,0,1-4.06,8.37,4.79,4.79,0,0,0-1.17,1.74,8,8,0,0,0,1.66-1.74,26.43,26.43,0,0,0,4.23-8.71,38.48,38.48,0,0,0,0-17.41c-.5-1.74-2.15-4.72-2.65-4.89Zm-7.3,2.74c-.08,0-.25.33-.33,1-.42,2.24-1.82,4.39-4.64,7A25,25,0,0,1,167,142.77a14.09,14.09,0,0,1-7.71-.83c-.58-.25-1-.33-1-.17s2,1.16,3.15,1.41a21.61,21.61,0,0,0,4.48.09,18.4,18.4,0,0,0,6.3-.92c8.21-2.82,16.75-11.44,14.6-14.84a.18.18,0,0,0-.17-.16Zm72.81,1c-.17,0,.74,1,2.15,2.41a28.93,28.93,0,0,0,3.32,3.06,9.75,9.75,0,0,0-2-2.32,30.92,30.92,0,0,0-3.32-3.07C259.53,128.42,259.53,128.34,259.45,128.34Zm33.66,0h0a6,6,0,0,1,.83.17c1.08.41,4.15,3,3.81,3.23-.08.08.17.5.5.91,1.33,1.41.5,1.49-.83.17a19.84,19.84,0,0,0-2.9-2.41c-.91-.58-1.57-1.24-1.57-1.57s0-.42.16-.5Zm-34.16,1h0a.31.31,0,0,0-.17.09l2.66,2.65a13.55,13.55,0,0,1,2.65,2.9,20.86,20.86,0,0,1-2.82-2.73l-2.49-2.82h-.08c-.25.33-.17.58.41,1.16.67.75.67.91.17,1.16s-.17.74,1.74,3.4a43.89,43.89,0,0,1,5.56,9.2c.33.75.66,1.41.83,1.41s-.09-.83-.5-1.82a5.18,5.18,0,0,1-.58-1.91c.25-.33-.58-1.66-.91-1.41-.17.09-.25,0-.17-.25.17-.49-2.65-4.73-4.64-7a4.86,4.86,0,0,1-1.16-1.5c0-.91,6.63,7.88,7.13,9.54.08.33.33.66.58.66s-.17-.83-.67-1.82-.82-1.74-.66-1.66.25.09.17-.25a.61.61,0,0,0-.5-.41,1.26,1.26,0,0,1-.67-.34c-.16-.16-.08-.16.25,0s.42.09.25-.24a.61.61,0,0,0-.5-.42,1.25,1.25,0,0,1-.66-.33c-.16-.17-.08-.17.17,0,.49.25.58-.33.08-.66a.69.69,0,0,1-.33-.58c0-.17.16-.17.33-.09.66.42.33-.25-1.16-2.07-1.74-2.24-3.57-3.81-4.31-3.9Zm-59.79.92c.09,0,.09.08.17.16.08.25.08.58-.08.67s-.17-.09-.17-.42A1.63,1.63,0,0,1,199.16,130.25Zm93.37.33h.25c.58,0,1.66.66,3.73,2.32s2.57,2.32,2.16,3.07c-.17.33-.5.08-1.25-.91a16.4,16.4,0,0,0-4.47-3.9C292.53,130.91,292.28,130.66,292.53,130.58Zm-93,1.16s0,0,.05,0a.28.28,0,0,1,.08.16,2.11,2.11,0,0,1,0,1c-.08.25-.16-.09-.16-.58a2.47,2.47,0,0,1,0-.59Zm92.67.25c.75,0,2.57,1.33,4.31,3.07s2.16,2.49,1.83,3c-.17.17-1-.49-2.24-1.82a24.51,24.51,0,0,0-3.24-3c-.82-.58-1.16-1-.91-1.16,0-.08.09-.08.25-.08Zm-.83,1.57a7.94,7.94,0,0,1,.83.42c3.57,2.32,6.14,5.47,6.72,8.13a8.47,8.47,0,0,1,.25,1.82c-.09.08-.42-.5-.83-1.25a20.71,20.71,0,0,0-7.22-8c-.5-.33-.58-.58-.25-.83a.77.77,0,0,1,.5-.25Zm-91.38.09-.08,5.8c-.08,6.3-.5,8.63-2.32,11.45-.5.74-.75,1-.67.66s.58-1.58,1-2.66c1.08-2.81,1.58-5.55,1.82-10.77Zm-6.55.08c-.25,0-.58.75-1.24,2.16s-1.58,4.31-2.07,6.22c-2.58,8.79-6,14.18-11.28,17.58-3.82,2.4-7,2.48-11.53.33a30.66,30.66,0,0,1-8.71-8.05,16.21,16.21,0,0,1-2.65-7.79l.08-1.33c-.49,1-.49,3.49.25,6.14,2.16,7.79,8.13,15.42,13.35,16.91,1.33.42,1.58.42,2.41.09.58-.25.58-.33-.25-.33-3.82-.09-9.12-4.57-12.52-10.45-1.24-2.16-1.16-2.74.08-.91a28.6,28.6,0,0,0,9.7,8.29,9.81,9.81,0,0,0,5,.91,9.28,9.28,0,0,0,4.89-.91c8.29-3.82,14.84-14.93,14.84-24.79C193.77,135.06,193.69,133.73,193.44,133.73Zm96.47,1.73a.76.76,0,0,1,.3,0,2.22,2.22,0,0,1,.58.17c2.82.83,8.87,8.87,8.29,11-.16.82-.33.74-1.32-1.5-2-4.39-5.89-9-7.55-9-.91,0-.66.41.66,1.16,2.08,1.16,6.22,6.88,7.22,10a1.29,1.29,0,0,1-.33,1.41c-.75.83-1.16.83-1.16,0a6.71,6.71,0,0,0-.83-2.32c-1.33-2.74-6.64-9.29-7.38-9.29-.25,0,0-.41.49-.91s.74-.72,1-.76Zm-89,2.75a.28.28,0,0,1,.08.17,4.66,4.66,0,0,1,0,1.49c-.09.41-.17.08-.17-.75A2.46,2.46,0,0,1,200.91,138.21Zm-20.65,2c-7.38,3.73-11.69,5.06-15.84,4.73-1.49-.09-3.4-.25-4.31-.34l-1.66-.24,1.08,1.07a8.5,8.5,0,0,0,2.57,1.41l1.49.42v1.57a4.19,4.19,0,0,0,3.15,4.07,7.9,7.9,0,0,0,4.81.16c2.16-.5,5.39-2.65,6-4.06s.34-1.74-1.49-1.33-4.56.5-5.06.17a2,2,0,0,1-.58-1.16c-.08-.75,0-.92,1.74-1.33,1-.33,2.49-.83,3.32-1.16,1.91-.83,5-3.07,5-3.65,0-.25-.08-.33-.16-.33Zm-66.42.58h.08a23.26,23.26,0,0,1,3.65,1.33c4.48,1.9,8.54,3.31,9.54,3.31.49,0,.66.17.66.83,0,.42,0,.83-.09.75s-.74-.17-1.57-.42a10.55,10.55,0,0,1-2.15-.66c-7.47-3.07-10.12-4.4-10.12-5.14Zm42.87,1.66a.3.3,0,0,0-.25.08.46.46,0,0,0-.42.25l.42,1.66c1.91,7.21,8.79,14.43,14.59,15.42,1.74.25,4.81-.58,7.14-1.91a17,17,0,0,0,7.29-10.28,6.47,6.47,0,0,0,.25-2.15c-.16-.17-1.16,1.57-3.07,5.14s-3.73,5.47-6.63,6.88c-2.16,1.08-2.65,1.24-4.56,1.08-2.74-.17-5.14-1.33-8-3.9a29.32,29.32,0,0,1-3.73-4.31c-1.74-2.65-3.24-6.39-3-7.38.17-.42.17-.5-.08-.58Zm-43.12.74c.08,0,.25.09.5.33a21.39,21.39,0,0,0,5.22,2.58c1.83.66,1.49.74-.83.33s-4.56-1.33-5-1.83a1,1,0,0,1-.17-1.08C113.42,143.27,113.5,143.18,113.59,143.18Zm-.67,1.91a4.06,4.06,0,0,1,1.41.5,13.52,13.52,0,0,0,3.57,1.32l2.07.42-1.32.25c-2.24.33-3,.41-3.65.25-1.83-.42-2.57-.83-2.32-1.58a5.88,5.88,0,0,0,.16-1.08C112.84,145.09,112.84,145.09,112.92,145.09Zm47.11.17h.16c.25,0,.91.08,1.57.16a13.76,13.76,0,0,0,3.74.17c1.74-.17,2.07-.09,2.07.33,0,.25.33.5.66.5.5,0,.83.33,1.08,1,.58,1.74,3.4,2.41,6.63,1.66,1.58-.33,1.58,0,.09,1.16a11.28,11.28,0,0,1-6.05,2.32,4.69,4.69,0,0,1-3.4-.58,3.62,3.62,0,0,1-2.33-3.81c0-1.16-.08-1.41-.66-1.41s-3.81-1.24-3.57-1.49Zm44.69.49a5.84,5.84,0,0,0-1.83,1.33c-2.73,2.57-6.55,9.62-7.79,14.43-.33,1.41-.75,2.65-.75,2.74a31.08,31.08,0,0,1-2.57-5.23.35.35,0,0,0-.33-.33c-.41,0-.5-.08,1,3.15,1.24,2.74,2,4,2.15,3.73a25.43,25.43,0,0,0,.83-2.9,40.64,40.64,0,0,1,8.21-15.26c.91-1,1.24-1.57,1.08-1.66Zm-70.57.58a.11.11,0,0,0-.08,0c0,1.49,10,7,14.93,8.2,1.66.42,3.48.42,4,0,.33-.41-1-1.16-3.65-2-3.57-1-7.8-3.06-9.37-4.47-.67-.58-1.25-.92-1.25-.75,0,1.16,6,4.39,10.37,5.8,2.74.83,3.48,1.5,1.24,1.08-3.56-.58-12.1-4.56-14.76-6.88a4.49,4.49,0,0,0-1.41-1Zm16.09.09a9.11,9.11,0,0,0-1.74.16c-.66.25-.66,1.91,0,2.49.41.33.41.41,0,.91s-.75.42-2.41-.25a19.59,19.59,0,0,1-3.31-1.74c-1.83-1.16-2.24-1-.67.25,2.82,2.07,11.2,5,11.2,3.82a5.58,5.58,0,0,0-1.58-2.74c-.66-.75-.74-1-.41-1.41C152,147.08,151.48,146.42,150.24,146.42Zm-37.73,1.32a2.36,2.36,0,0,0,.5.17,13.76,13.76,0,0,0,1.66.5l1,.24h-1a2.56,2.56,0,0,1-1.66-.41C112.68,147.91,112.51,147.83,112.51,147.74Zm24.55,2.16c-.09,0-.09,0,0,.08.91,1.74,8.45,6.06,10.44,6.06.58-.09.58-.09-.16-.42a37.38,37.38,0,0,1-8.71-4.73A5,5,0,0,0,137.06,149.9Zm148.54.57h0c-.17.08.08,1.08.74,3.07a43.72,43.72,0,0,1,2,12.6c.09,2.74.09,3.15.42,2.32.25-.66.25-2.24,0-5.39-.42-4.47-1.58-9.78-2.57-11.69-.29-.58-.46-.91-.55-.92Zm-148.54.84c0,1,5.38,4.64,7.95,5.39,1.17.33,1.33.33,1.33,0,0-.17-.25-.33-.58-.33-1.16,0-5.31-2.32-7-3.9A6,6,0,0,0,137.06,151.31Zm148.26,2.74a1.14,1.14,0,0,0,.08.41,2.65,2.65,0,0,1,0,1.41,7.33,7.33,0,0,0,.17,2.9,31,31,0,0,1,.66,4.31c.17,1.33.42,2.41.66,2.49s.34-.5.25-2.15c-.08-2.08-.08-2.16.17-.58a23.18,23.18,0,0,1,.33,3.39c0,.92.08,1.75.25,1.75a20.24,20.24,0,0,0,0-3.4c-.25-3.49-1.58-9.7-2.24-10.37-.17-.08-.25-.16-.33-.16Zm-138.56,4.72c-.25.17,0,1,.58,2.32a17.91,17.91,0,0,1-2.82,19.08c-2,2.24-1.49,2.24.83,0a14.38,14.38,0,0,0,4.14-8.38c.83-4.15.59-7.46-.74-10.2-1.16-2.32-1.5-2.9-1.83-2.82Zm140,1.08s0,0,.05,0l.08.08a1.34,1.34,0,0,1,0,.84c-.08.24-.16,0-.16-.42a1.83,1.83,0,0,1,0-.5Zm-106.5,18.57a77,77,0,0,0-10.2.42l-1,.33.92.09c.58,0,.91.08.82.24s1,.25,2.32.17l2.58-.08-2.41.33a9.64,9.64,0,0,0-2.82.58,12.81,12.81,0,0,1-2.57.74,74.71,74.71,0,0,0-14,5.23c-4.65,2.4-3.9,2.57,2.9.58,3.32-1,9.62-2.49,12.44-3,1.41-.25-6.55,2.41-11.11,3.74-1.83.49-3.07.91-2.74,1,.58.08,4.15-.83,11.53-3.07a103.91,103.91,0,0,1,12.77-3.23c4.14-.42-5.06,4.81-12.11,6.8-2.82.83-3.81,1.57-2.15,1.57,2.23,0,9.2-2.82,14.17-5.72,2.66-1.49,3.74-1.49,4,0a2.6,2.6,0,0,0,1.5,1.66c1.74,1,8,2.74,8,2.32a10.63,10.63,0,0,0-1.66-1.82,15,15,0,0,1-2.07-2.24c-.17-.33.33,0,1.24.74,3.32,3.07,12.44,8.38,14.26,8.3,1,0,.92,0-.33-.42-3.23-1-9.78-5.06-12.93-8-1.91-1.74-1.58-1.66,1.82.66,1.41.92,3.32,2.16,4.4,2.74,2.07,1.16,6.22,2.82,6.46,2.57.09-.08.67.25,1.33.75s1.16.75,1.25.66c.33-.25-2.16-2-2.49-1.74-.17.08-.33.08-.25-.16s-.34-.67-.92-1.17l-1-.74.91.16c1.08.17,1.16-.16.17-1.16-.33-.41-.58-.74-.33-.74.49,0,3.4,1.9,3.4,2.32,0,.16.41.58.83.83.66.5.91.5,1.32.16.83-.74.58-1.41-1.32-3.23-3.07-3-11-6.39-13.69-5.89-1,.25-1.07.33-.66.66s.5.5.42.58.16.42.66.75.83.75.83.91-.25.09-.58-.16a20.92,20.92,0,0,0-3.07-1.83l-2.49-1.24h-5.47a73.64,73.64,0,0,0-19.24,2.65c-3.15.75-6.13,1.5-6.47,1.66-1.9.58,1.41-.91,3.82-1.74a60.76,60.76,0,0,1,14.92-3.23c4.73-.5,6.47-.92,5.31-1.33a30.25,30.25,0,0,0-4.31-.25c-2.07-.08-.42-.16,3.81-.16,7-.09,11,.16,12.61.83.41.08.49.08.41-.17a8.57,8.57,0,0,0-2.65-.83C190,178.59,185,178.51,180.26,178.42Zm-15.09,1.42h.08c0,.33-3,1.74-3.65,1.74-.17,0-2.07.82-4.23,1.82a13.11,13.11,0,0,1-3.65,1.41c.25-.83,10.2-5.14,11.44-5Zm98.59.91a20.88,20.88,0,0,1,4.89.58,8,8,0,0,1,3.4,2.48,10.81,10.81,0,0,1,1.66,2.08c0,.74.08.83.75,1.57,1.16,1.16.49,1.16-1.25-.08a33.35,33.35,0,0,0-8.29-4.06c-1.24-.42-2-.75-1.58-.75,1.16,0,5.73,1.57,8.05,2.82,2.49,1.33,3.06,1.33.91-.08a28.45,28.45,0,0,0-8.54-3.32c-2.16-.41-2.57-.58-2.08-.91A8,8,0,0,1,263.76,180.75Zm-15.34.49c-3.4,0-7.88,2-10.78,4.9-1.16,1.07-2.07,1.9-2.07,1.74a.36.36,0,0,0-.34-.33c-.16,0-.41.66-.58,1.41-.24,1.32-.25,1.32-.66-1.41l-.33-2.82.08,3.81c.17,4.06,0,4.06-1,0-.33-1.41-.66-2.24-.74-1.91a12.14,12.14,0,0,0,.41,2.57,7,7,0,0,1,.42,2.24,7.63,7.63,0,0,1-.91-1.9,5.55,5.55,0,0,0-1-2,8.12,8.12,0,0,0,.83,2.73c.58,1.5,1.16,3.15,1.33,3.73s.33.83.41.58a.37.37,0,0,1,.5-.25c.25.17.25-.08.08-.82-.16-.58-.08-1,.17-1s.41-.41.58-.83c.17-.83.42-1.24,2.74-3.89a15.6,15.6,0,0,1,7-4.4C249.16,182.16,250.82,181.24,248.42,181.24Zm13,1c.25,0,.41.08.58.08.33.08.08.17-.58.17s-.91-.09-.58-.17C261,182.32,261.27,182.24,261.44,182.24Zm-70.7,1a14.27,14.27,0,0,1,2.54,1.34,9.67,9.67,0,0,0,2.4,1.24,2.21,2.21,0,0,0-.41-1.24c-.58-1.16-.67-1.16,1.24-.33,3.57,1.49,5.22,2.4,5.06,2.65s0,.67.33,1c.75.83.58.83-1.74-.17-2.9-1.33-3.15-.83-.42.75s4.4,2.74,3.82,2.74a37.87,37.87,0,0,1-3.73-1.66c-3.16-1.5-9.29-5.48-9.37-6.06,0-.08.08-.16.16-.25h.12Zm-11.4,0a23.34,23.34,0,0,0-6,1.33,104.84,104.84,0,0,1-11.52,3.49c-1.91.41-3.07.74-2.57.82,1.33,0,8-1.66,12.19-3a40.63,40.63,0,0,1,4-1.25A11,11,0,0,1,173,186a48.09,48.09,0,0,1-9.78,3.23,5.87,5.87,0,0,0-1.91.5c0,.33,1.41.09,4.39-.66,1.66-.42,4.32-1.33,5.89-1.91a78.28,78.28,0,0,0,8.21-3.73C179.93,183.32,179.68,183.23,179.34,183.23Zm-2.32.67c.17,0,.09.16-.16.33a2.12,2.12,0,0,1-.83.33c-.17,0-.08-.16.16-.33a2.29,2.29,0,0,1,.83-.33Zm84.75.66c.08,0,.16.08.25.17s-.09.16-.42.16-.5-.16-.25-.25S261.6,184.56,261.77,184.56Zm-132.59.33a3,3,0,0,0-1.74.67c-1.75,1.24-1.66,4,.33,11.77a103,103,0,0,1,2.65,14.84,41.17,41.17,0,0,0,3.07,11.7c1.41,3.56,10.86,22.38,11.28,22.38a.71.71,0,0,0,.41-.33,8.6,8.6,0,0,0-.16-2.73c-.33-2.24-1-8.3-2.16-20-.25-2.57-.66-7.3-.83-10.45-.17-4.31-.41-6.3-.91-7.79-.41-1.08-.83-2.57-1.08-3.32a12.24,12.24,0,0,0-1.33-3.07l-1-1.82-1.24,1.08c-1.08,1-1.25,1-1.58.5a6.68,6.68,0,0,1-.58-2.74,5.84,5.84,0,0,0-.83-2.9,6.47,6.47,0,0,1-1.74-4.64c0-1.5-.08-1.91-.83-2.49a3,3,0,0,0-1.74-.67Zm53.23.08a16.28,16.28,0,0,0-3.23,1.66,40.52,40.52,0,0,1-8.62,3.82,1.84,1.84,0,0,0-1.16.5c-.17.16,0,.25.41.16a12.49,12.49,0,0,1,1.57-.49C174.12,190,182.91,185.47,182.41,185Zm80.35,0a11.93,11.93,0,0,1,3.15.75c5.89,1.66,9.71,3.65,9.46,4.9-.17.49-.42.41-1.83-.59a32.67,32.67,0,0,0-8.54-4.14C263.26,185.31,262.6,185,262.76,185Zm-79.93,1.75a7.64,7.64,0,0,0-2.49,1.24,28.81,28.81,0,0,1-3.9,2c-1.16.33-1.24.33-.5.75.92.5,17.58.58,17.42.08a28,28,0,0,0-4.89-1.82,28.18,28.18,0,0,1-5.14-2,.59.59,0,0,0-.5-.25Zm72.22,2.49a65.3,65.3,0,0,1,9,.58c.75.33.66.33-.83.41H261.6l1.74.66c3.24,1.17,6.55,3.32,5,3.32a29.46,29.46,0,0,1-3.15-1.16,37,37,0,0,0-11-2.65c-2.9-.25-3.48-.67-1.49-1A13.78,13.78,0,0,1,255.05,189.21Zm-87.81.66c.08,0,.16.08.25.08.08.17-.08.25-.42.25s-.49-.17-.25-.25S167.07,189.87,167.24,189.87Zm-1.33.33c.09,0,.17.08.25.08.08.17-.08.25-.41.25s-.5-.16-.25-.25S165.75,190.2,165.91,190.2Zm-36.65,1.66c.25,0,.5.08.5.25a13.16,13.16,0,0,0,1.66,2.15l1.66,1.83v2.65q-.14,6.84-1,7c-.41.08-.66-.17-.75-.83-.08-.5-.74-3.57-1.49-6.72a43.12,43.12,0,0,1-1.16-6,.63.63,0,0,1,.58-.25Zm152.16.74c.08,0,.08.09.17.17a.62.62,0,0,1-.09.66c-.08.09-.16-.08-.16-.41A1.89,1.89,0,0,1,281.42,192.6Zm-43.62.09h0c-.49-.09-1.9,1-2.9,2.4l-1.16,1.66-.58-.75a3.08,3.08,0,0,1-.58-1.66c0-.41-.16-.82-.33-.82s-.33.33-.33.82c0,1.75-2.41,7-4,8.71-.34.42-.67.83-.58,1s-.09,1.66-.25,3.4a51.25,51.25,0,0,0,.16,7.79c.5,6.47.67,7.46,1.25,7.46.33,0,.41-.41.24-1.57-.08-.91-.24-4.48-.33-8l-.16-6.47.83-.58c.83-.58.83-.58,1.16.25a6.88,6.88,0,0,1,.33,1.4,2.6,2.6,0,0,0,.5,1.25c.33.5.41.25.58-2.57.08-2.24.25-3.4.66-3.82a34.29,34.29,0,0,0,1.66-3.06,29,29,0,0,1,2.74-4.48,6.17,6.17,0,0,0,1.32-2.24.3.3,0,0,0-.25-.08Zm-87.39.16c.08,0,.16.17.41.42a11.41,11.41,0,0,0,4.73,2.24,1.16,1.16,0,0,1,.91.33c.33.41-1.08.33-2.49-.17-1.91-.74-3.65-1.82-3.65-2.4C150.32,193,150.32,192.85,150.41,192.85Zm123,.42a5,5,0,0,1-.08.83,2.64,2.64,0,0,1-.67,1.74c-.83.83-.83,1.08,0,.66a2.79,2.79,0,0,0,1.08-1.16,1.73,1.73,0,0,0,0-1.57C273.63,193.43,273.54,193.27,273.46,193.27Zm7.88.41-.17,1.83c-.25,2.48-.83,4.39-1.16,4.14-.17-.08-.83.92-1.49,2.24-1,2.16-1.16,2.24-1.16,1.33a10.36,10.36,0,0,1,1.16-3.32c.66-1.24,1.58-3.15,2.07-4.23Zm-130.69,1.16h.17a10.56,10.56,0,0,1,3.07,1.5c.41.41-.83.08-2-.5C151.24,195.43,150.65,195,150.65,194.84Zm58.55,2.08c-.17.08-.09.49.16.83,1.66,3.15,2.9,12.1,2.32,17.24-.25,2.74-.49,3.73-2.23,8.38-.83,2.15-.67,2.82.58,2.57,1.07-.25,1.24.08,1.57,3.31a10.07,10.07,0,0,1-.66,4.65,14.49,14.49,0,0,0-.09,9.7,17,17,0,0,0,2.74,5.89l.83,1.16-1.33-.75a11.53,11.53,0,0,0-5.88-.83.9.9,0,0,0-.83.83c0,.33.16.67.33.67s.25-.25.16-.5c-.33-.83,1.25-.58,2.66.5a4,4,0,0,0,3.15,1,6.79,6.79,0,0,1,2.65.5c1.16.58,1.33.25.33-.58a3.72,3.72,0,0,1-.83-.83,7.54,7.54,0,0,0-.82-1.41,14.24,14.24,0,0,1-2.82-10.12c.16-2.24.41-3.15,2.07-6.71s1.82-4.23,1.32-4.4a6.74,6.74,0,0,1-1.24-2.07c-.66-1.66-.74-2.32-.83-9-.16-9-.33-11.61-1.32-14.93-.83-2.9-1.66-5-2-5.05Zm-22.6,1.31h-1.2a20.37,20.37,0,0,0-5.39.59c-1.66.41-2.49.49-3.15.24s-1.25-.16-3.49.91c-2,1-2.65,1.5-2.73,2.08s-.33.74-1.74.74-1.66.09-1.66.83c0,.42.16.92.33,1,.58.33,3.65-.83,7-2.65a27.91,27.91,0,0,1,4-2c.82-.24.91-.16.91,1.33a6.15,6.15,0,0,0,3.07,4.9,5.32,5.32,0,0,0,5-.34c2.49-1.82,3.07-4.64,1.33-6.38l-1.08-1,1,.17c.5.17,1.41.33,2,.5s1.08.16,1.08,0c0-.58-2.41-.91-5.18-.93Zm-4.2.64a.17.17,0,0,1,.1,0h0c.24,0,.16.25-.09.83a3.76,3.76,0,0,0-.08,1.91c.25,1.08,2.16,3.15,3,3.15s2.16-1.57,2.16-2.57c0-1.74-2.32-3.4-3.48-2.49l.33-.33c1.49-1.41,4.81.42,4.81,2.57,0,2.49-3.48,4.81-6,3.9a6.4,6.4,0,0,1-3.32-4.64,2,2,0,0,1,1.91-2.24,4,4,0,0,1,.65-.12Zm9.19,1.27h-.14c-.41,0-.41.42-.33,1.16a7.26,7.26,0,0,1-.5,2.66c-1.08,2.65-2.65,3.56-6.13,3.56a4.64,4.64,0,0,1-3.32-.91c-1.41-1-3.07-3.48-3.07-4.73,0-.41-.08-.74-.16-.74s-1,.49-2.08,1c-2,1.08-2.32,1.66-1.57,2.74.58.74,4.06,2.4,6,2.9,1.74.42,2.4,1,1.16,1-.58,0-.67.08-.25.33.75.49,5.22.41,8.21-.17,3.4-.66,6.72-1.57,6.72-1.82a10.27,10.27,0,0,0-2.91.5c-3.89,1-9,1.65-9.45,1.16-.25-.25.17-.33,1.33-.33a9.39,9.39,0,0,0,2.81-.5,7.25,7.25,0,0,0,3.65-3.73c.34-1,.5-1.08,1.42-1,.74.08,1,.33,1.32,1.33.41,1.16.41,1.24-.42,1.74l-.9.5,1.15-.25c1.74-.33,2.66-1,2.66-2.08s-.58-1.74-3.07-3.23a8.19,8.19,0,0,0-2.1-1.09Zm56.41,0a2.38,2.38,0,0,0-2.65,1.66c-.58,1.82,1.16,3.73,2.65,3.07a2.57,2.57,0,0,0,1.58-3.07c-.25-.75-.25-.91.08-.83.67.33,1.5,2.07,1.58,3.4v1.24l.16-1.16a4.33,4.33,0,0,0-.08-1.82A3.41,3.41,0,0,0,248,200.15Zm-.5.33c.42,0,.42.09,0,.33s-.33.34.25.34c1.58,0,1.66,2.15.09,3-.83.42-.83.42-1.49-.16C245.27,202.89,246.1,200.48,247.5,200.48Zm-62.48.8a.28.28,0,0,1,.13,0,1,1,0,0,1,.91,1.33c-.08.83-1,1-1.66.25-.74-.91-1.07-1.58-.58-1.25a1.07,1.07,0,0,0,.83-.16.55.55,0,0,1,.37-.2Zm14,2.85c-.17.09-.25.25-.25.75a2.4,2.4,0,0,1-.58,1.33c-.58.66-.42.66,1.33.25,1.4-.42,1.57-1.08.49-1.83A2.59,2.59,0,0,0,199,204.13Zm62.49,0a.66.66,0,0,1,.28,0,1.62,1.62,0,0,1,.83.33l1,.67h-1.24c-.66,0-1.24-.08-1.24-.25C261.11,204.44,261.25,204.19,261.49,204.13Zm-62.24.42c.08,0,.25.16.49.41.83.75.83.83.09.83-.33,0-.58-.25-.67-.66s0-.58.09-.58Zm-62.69,3.9c.41-.09,1.08.57,1.57,1.82a12.52,12.52,0,0,0,1.33,2.57c.66.91.66,1.16.33,3.32-.33,2.4-.25,3,.91,5.72.83,1.9.5,2.4-.66,1.08a6.81,6.81,0,0,0-2.82-1.58,10.31,10.31,0,0,1-2.57-1.25,4.19,4.19,0,0,1-.58-4c.16-.67.75-2.49,1.24-4.07s.92-3,1-3.23.16-.41.25-.41Zm53.07,5.38a2.32,2.32,0,0,0-.92.25,25.65,25.65,0,0,1-8.87.67,5.17,5.17,0,0,0-2.4,0c-.34.33,1.57,1,2.73,1,1.41,0,1.5.58.17.83-.67.08-1.16.33-1.16.5,0,.49,1.66.41,3.56-.17a4.52,4.52,0,0,0,2.08-1.16,2.29,2.29,0,0,1,1.74-.75c1.66-.24,3.4-.82,3.15-1.07a.08.08,0,0,0-.08-.09Zm50.25,5.56a1.83,1.83,0,0,0,.33.41c1.24,1.58,9.29,6.22,9.29,5.4,0,0-1.08-.67-2.41-1.33a36.94,36.94,0,0,1-4.06-2.41c-.91-.58-2-1.32-2.49-1.66a4.44,4.44,0,0,0-.66-.41Zm-41,21c-.42-.08-1.08,1.91-1.25,3.57a7.88,7.88,0,0,0,6.22,8.78c2.24.59,2.24.58,2.07-.24-.08-.58-.5-.83-2.4-1.41a7.82,7.82,0,0,1-3.32-1.66c-1.91-2-2.74-5.73-1.66-7.88.33-.5.5-1.08.42-1.16Zm43.53,3c-.17,0-.09.25.08.75.75,1.82-.66,4.64-3.07,6.3a22.28,22.28,0,0,1-4.81,2.16c-2.73.91-3.56,1.32-2.82,1.32.17,0,1.58-.49,3.32-1,3.57-1.24,5.64-2.49,7-4.15a4.45,4.45,0,0,0,.91-3.23c0-1.33-.17-2.07-.42-2.16Zm-91.3,2.41-.91,1.74c-.5,1-.75,1.74-.58,1.74s.41-.33.5-.66c.16-.58.33-.58.66-.33a.93.93,0,0,0,.91.16c.17-.16.09.08-.16.5a4,4,0,0,0,.25,4.48,3.3,3.3,0,0,1,.82,1.74c0,1.16.5.83.59-.33a10.69,10.69,0,0,1,.91-3.24,9.37,9.37,0,0,0,.66-2.24c-.16-.16-1.16,1.83-1.66,3.4l-.41,1.33-.09-1.33a7,7,0,0,1,.67-2.57c.33-.74.49-1.24.25-1.16a3.2,3.2,0,0,0-.92,1.66c-.74,2.07-1,2.32-1,.75,0-1.33.75-3,1.41-3.24.33-.08.25-.33-.17-.74-.66-.58-.66-.58-1.07,0s-.42.41-.58-.58ZM233,249.91a7.46,7.46,0,0,0-2.49.74,16.22,16.22,0,0,0-2.82,1.66,20.33,20.33,0,0,1-2.49,1.41c-.66.33-.83.5-.41.5a6.8,6.8,0,0,0,2.15-.83,36.54,36.54,0,0,1,4.4-1.66c1.91-.58,2.9-1.08,2.9-1.33,0-.41-.5-.49-1.24-.49Zm-77.74,1.39s0,0,0,0h-.17c-.41.34-1.49,3.24-1.24,3.57.16.08.49-.17.83-.66.66-.75.66-.75.66,0,0,.58.17.66.66.49s.75,0,1,.58a6.48,6.48,0,0,0,2.65,2.66c1.08.66,1,.66,1,.08,0-.25-.59-.83-1.25-1.33a4.55,4.55,0,0,1-1.74-1.82c-.25-.58-.66-1-1-1-.5,0-.67-.24-.67-.82,0-1-.5-1.08-1-.25-.34.49-.33.49-.17-.09a10.54,10.54,0,0,0,.42-1.16c.06-.12.07-.24,0-.26Zm112.48,1.59a1.17,1.17,0,0,1,.91.41c.08.25,0,.25-.33.17-.66-.25-.75-.08-.08,1.82a4.65,4.65,0,0,1,.41,2c-.08.33-.25.24-.33-.09a34.82,34.82,0,0,1-1.25-4.06C267.07,253,267.41,252.89,267.74,252.89Zm-29.11,1.74c1.08-.25,4.65,6,4.48,7.63l-.08,1.08-.42-1c-.24-.58-.58-1.41-.83-2a11.44,11.44,0,0,0-2.15-2.9c-1.74-1.91-2-2.65-1-2.82Zm28.45,1.58c.33,0,1.07,1.82.91,2.32,0,.16-.33-.33-.67-1S266.91,256.21,267.08,256.21Zm-62.61.33c-.33,0-.66.08-.83.08-.91.25-.91.33-.91,3.07,0,2.57,0,2.74-.66,2.57-.5-.17-.67,0-.67.58v.83l-.66-.83c-.66-.91-.91-.66-.33.33.41.83,1.32.83,1.32.08,0-.33.25-.41.67-.33.83.25,1-.25,1.07-3.4l.09-2.15,1.32-.08a21.37,21.37,0,0,1,4.23.33,12.26,12.26,0,0,0,2.91.25c0-.67-5.06-1.41-7.55-1.33Zm61.36.66c.33,0,1.08,1.74,1.41,3.24.25,1.32-.5,1.49-1.16.24C265.58,259.77,265.42,257.2,265.83,257.2ZM239,258.28h0a1.94,1.94,0,0,1,.58.25c.83.41,2,2.65,2,3.81s-.58,2.16-1.07,2.16a1.6,1.6,0,0,1-1-.58c-.74-.83-.74-1.08,0-1.58.5-.41.5-.58.17-1.57a13.23,13.23,0,0,1-.67-1.83c-.08-.41-.08-.58,0-.66Zm-86.06.41a5.21,5.21,0,0,0-1.42,1.16c-1.57,1.66-1.32,1.75.34.17.74-.66,1.24-1.24,1.16-1.32a.08.08,0,0,0-.08,0Zm62.35.25c-.17-.16-2.24,3.65-2.24,4.06s.41-.08,1.33-1.82A8,8,0,0,0,215.25,258.94Zm1.74.58c-.33,0-2.32,3.73-2.32,4.32s.08.49,1.41-2.08C216.74,260.52,217.16,259.52,217,259.52Zm3.4,0c-.5,0-.66.75-.91,2.74-.08,1.24-.08,1.58.17,1.08a4.56,4.56,0,0,0,.33-1.58,3.94,3.94,0,0,1,.33-1.57c.25-.42.25-.67.08-.67Zm43.2.09c.09-.09.5.25,1,.74a2.5,2.5,0,0,1,.74,2.24c0,1.16-.49,1.66-.74.83-.09-.25-.33-1.16-.67-2.07A5.69,5.69,0,0,1,263.59,259.61Zm-28.95.08h.18a1.88,1.88,0,0,1,.75.25,5.65,5.65,0,0,1,2.23,4.14l-.08.92-.58-1.25a10.56,10.56,0,0,0-1.74-2.48c-.8-.95-1.09-1.51-.76-1.58Zm-21.21.17c-.25,0-.75,1.16-1.25,3-.41,1.41.25.42.83-1.32A4.66,4.66,0,0,0,213.43,259.86Zm-1.25.08a.08.08,0,0,0-.08.08,5.37,5.37,0,0,0-.58,2.16c-.17,2.15.25,1.33.66-1C212.27,260.44,212.27,260,212.18,259.94Zm33.83,0a2.25,2.25,0,0,0-.74.16c-.67.17-.67.17-.17.92a3.23,3.23,0,0,1,.33,2.07c-.16.66-.08,1.08.09.91a3.09,3.09,0,0,0,.41-1.16c.08-.83.08-.83.83.41.5.67.91,1.25,1.08,1.25s-.25-.91-1-2a9.76,9.76,0,0,1-1.24-2.16c.08-.08.58.42,1.08,1.25,1.74,2.57,3.23,4.31,3.48,3.89s.42-.16.66.34.5.66.58.58a7.26,7.26,0,0,0-1.07-2.08c-1.25-2-2-2.57-.83-.66,1.24,2.16.5,1.58-1.5-1.08C246.93,261.18,246.1,260,246,259.94Zm-35,.31s0,0-.06,0a2.16,2.16,0,0,0-.33,1.16c-.34,1.74-.25,2.74.08,2.74.16,0,.33-.92.41-2,.08-1.23,0-1.9-.1-1.93Zm10.39,0a2.28,2.28,0,0,0-.42.66c-.49,1.33-.91,4.23-.66,4.23s.41-.74.5-1.57a18.7,18.7,0,0,1,.58-2.41,1.26,1.26,0,0,0,.08-.91A.06.06,0,0,0,221.39,260.27Zm-2.91.25c-.16-.08-.66.66-1.41,2.07-2.4,4.81-2,7.46,1.17,7.55.41,0,.91-.42,1.41-1.16.83-1.5.82-1.83.08-1.83-1.16,0-1.83-3.06-1.25-5.55C218.65,260.93,218.65,260.6,218.48,260.52Zm-54.81.33c-.41.08-1.16,2.82-1.24,4.64l-.17,2.16.34-1.82a16,16,0,0,1,.82-3.32,4.88,4.88,0,0,0,.34-1.66Zm70.24,0c.41,0,1.41,1.58,1.24,2-.08.25-.33.17-.58-.25C233.83,261.85,233.49,260.85,233.91,260.85Zm-8.51.08s0,0,0,0a8.74,8.74,0,0,0,1.16,3.48c.25.41.58.74.66.66s-.08-.58-.33-1a15.47,15.47,0,0,1-.91-2,3.11,3.11,0,0,0-.55-1.16Zm-1.79.24h0c-.21,0-.4.36-.4,1,0,.08.08,1.41.17,3,.16,2.24.16,2.57-.17,1.75-.42-1.33-1.24-1.75-1.24-.59,0,1,.33,1.83.66,1.66a.4.4,0,0,1,.5.17c.5.83.83.16.83-1.58v-1.91l.49,1.17c.75,1.65,1.75,2.48,2.33,2,.74-.67.58-1.25-.67-2.91a12.73,12.73,0,0,1-1.49-2.57c-.25-.74-.58-1.16-.91-1.16Zm-70.12.07h0c-.42,0-2.17,1.63-2.17,2.1,0,.25.5-.08,1.16-.75s1.16-1.24,1.08-1.32a.09.09,0,0,0-.07,0Zm3.22,1.27c-1,0-2.74,2.9-2.66,4.4,0,.41.17.08.5-.83a7.24,7.24,0,0,1,1.49-2.57c.5-.59.83-1,.67-1Zm40.63,0c-.17,0-.25.17-.17.58.09.58,2.82,2.16,3.4,2a1.14,1.14,0,0,0,.42-.5c.08-.16-.08-.33-.33-.33-.91,0-1.58-.08-1.5-.33.17-1.08-.58-1.49-.83-.5-.16.5-.25.5-.41-.17C197.75,262.84,197.59,262.59,197.34,262.51Zm-6.88,1h0c-.58,0-3.65,3.15-3.65,3.82,0,.25.16.5.33.5s.33-.25.33-.58c0-.5.08-.5.33-.17s.42.41.67.25a4.85,4.85,0,0,1,1.08-.33,4.72,4.72,0,0,0,1.24-.67c.5-.49.58-.49.74,0a1.12,1.12,0,0,0,.75.5c.5,0,.5-.08.09-.5a2.13,2.13,0,0,1-.67-.91c-.08-.33-.41-.16-1.08.42l-1,.82.66-.91c.83-1.41.42-1.49-.66-.08a3.45,3.45,0,0,1-1.25,1.16c-.41,0,.83-2,1.75-2.74.41-.33.58-.58.33-.58Zm34,.17c.09,0,.25.33.5,1a20.64,20.64,0,0,0,1.08,2.07c.25.25.25.41-.08.41-.17,0-.58-.5-.83-1.07s-.5-1.58-.67-2.08Zm-60.45.25a6.78,6.78,0,0,0-.74,2c-.17.91-.5,2.07-.58,2.4s0,.58.16.34a5.88,5.88,0,0,0,.67-2c.25-.92.5-2,.58-2.33s.16-.41.08-.41Zm20.07.25c-1.57,0-3.81,3.56-4.15,6.47-.08,1.07,0,1.82.17,1.82s.33-.66.33-1.58a8.78,8.78,0,0,1,3.07-6C184.07,264.5,184.4,264.17,184.07,264.17Zm2.07,0c-.91,0-2.23,1.66-3.48,4.39-1,2-1.16,2.74-1,3.49s.33.83.5-.59a15.8,15.8,0,0,1,1.32-3.56c.91-1.91,1.66-2.82,1.66-2.16a19.74,19.74,0,0,1-1.16,2.82c-1.16,2.49-1.41,3.9-.83,3.9.16,0,.58-.41.83-1,.5-.91.58-.91,1.33-.66,1,.5,4.47-.5,3.89-1.08-.25-.25-.83-.24-1.82.09a3.51,3.51,0,0,1-2.07.08,1.81,1.81,0,0,0-1.08-.17c-.25.09-.09-.49.41-1.57a5.67,5.67,0,0,0,.75-2.41,1.1,1.1,0,0,1,.5-1.07C186.48,264.33,186.48,264.17,186.14,264.17Zm72,0a1.6,1.6,0,0,0,.17.66c.08.42.33,1.24.41,1.82.25,1,.25,1,.33-.33a2.08,2.08,0,0,0-.41-1.82C258.37,264.25,258.2,264.17,258.12,264.17Zm-100.92.33a.29.29,0,0,0-.24.08c-.67.17-1.91,2.49-2.16,4.07-.16,1.16-.08,1.07.66-.75a12.91,12.91,0,0,1,1.41-2.82c.34-.41.42-.58.33-.58Zm100.09.41c-.17.09.08,1.17.5,2.41a18.49,18.49,0,0,1,.66,3.23c0,.5.17.83.33.75s.25-.58.17-1.08A26.87,26.87,0,0,0,257.29,264.91Zm-63.77.09c-.08,0-.08.16.09.5a.91.91,0,0,0,.74.33c.5,0,.42-.09-.08-.5A1.33,1.33,0,0,0,193.52,265Zm-28.77.83c-.08,0-.08.08-.17.16-.24.58-.49,4.4-.16,4.15,0-.08.16-1.25.25-2.49a7.94,7.94,0,0,0,.08-1.82Zm-7.46.33c-.09,0-.09,0-.17.08a.87.87,0,0,0,.17.83,4.61,4.61,0,0,1,.33,1.33,1.86,1.86,0,0,0,.5,1.08c.33.24.5,1.07.5,2.65,0,1.33.16,2.32.33,2.32s.33-.41.33-1,.16-1.08.33-1.16c.5-.34.42-.84-.08-.75-.25,0-.42-.33-.5-.91a3.18,3.18,0,0,0-.41-1.33,1.9,1.9,0,0,1-.34-1.16c0-.83-.58-2-1-2Zm8.29.66c-.16,0-.33.08-.33.25,0,.33,1.24,1,1.82,1.08a2.22,2.22,0,0,0,1-.5c.58-.41.58-.5-.5-.25-.74.08-1.33,0-1.49-.25A.69.69,0,0,0,165.58,266.82Zm81.93,1.66a9.15,9.15,0,0,1,1.32,2c.58,1.08.91,2,.75,2s-.58-.58-.91-1.33a7.5,7.5,0,0,0-1.08-1.74C247.09,269,247,268.48,247.51,268.48Zm-69.9.5.08,2.48a7.59,7.59,0,0,0,.66,3.57c.75,1.49,1,1.16.33-.41a16.91,16.91,0,0,1-.83-3.49Zm-2.82.08c-.5.25-.25,7.38.24,7.38v-3.81C175,270.55,175,269,174.79,269.06Zm2.15.58v2.41c-.08,2,.17,3.65.42,3.31,0-.08,0-1.32-.17-2.9Zm-.91.08c0-.08-.08.17-.17.58-.25,1.25-.08,5.15.17,5.15a17.81,17.81,0,0,0,.16-3.24A16.07,16.07,0,0,0,176,269.72Zm-2.57.42a7.84,7.84,0,0,0-.17,3.07c0,3.15.17,2.73.33-1,.09-1.16,0-2.07-.16-2.07Zm-2.57.16-.33,1.58c-.5,2.82-1.33,5-2,5.14-.34.08-.59.25-.5.42.41.58,1.41-.34,2-1.74a10.43,10.43,0,0,0,.66-3.4Zm1.49,0c-.08,0-.17.25-.25.75-.33,1.33-.08,5.06.33,5.06.17,0,.17-1.49.09-3.24a7.58,7.58,0,0,0-.17-2.57Zm75.46.5a31.87,31.87,0,0,1,3.15,5.56c.41,1.32-.5,2.65-1.24,1.82-.17-.08-.25-.58-.25-1.08,0-1-1.41-3-2.16-3s-.91-.75-.25-2A4.22,4.22,0,0,1,247.84,270.8Zm-79.2,2.68-.07.06c-1.08.33-3.9,4.89-3,4.89.17,0,.42-.5.66-1.08a8.21,8.21,0,0,1,1.58-2.57c.58-.66.91-1.24.83-1.24s0-.06,0-.06Zm16.34.06c0,.08-.16.17-.33.41a32,32,0,0,0-2.82,5.56c0,.66.33.08,1.74-2.66C184.82,274.2,185.23,273.46,185,273.54Zm-3.47.23h0a2.12,2.12,0,0,0-.84.52c-.58.49-.58.49-.08.33.74-.17.74.08.08,1-.5.58-.66,1.16-.33,1.16a5.39,5.39,0,0,0,.83-1.16c.66-1.08.83-1.74.5-1.82h0a.26.26,0,0,0-.16,0Zm2.56,0c-.5,0-2.4,3-2.73,4.48-.09.58.16.24.74-1a19.81,19.81,0,0,1,1.49-2.49,1.4,1.4,0,0,0,.59-.74C184.16,273.87,184.16,273.79,184.07,273.79Zm-22,0s-.07,0-.13,0a3.46,3.46,0,0,0-1.08,1.24c-.66,1.41-1.16,3.49-.66,3.24a4.39,4.39,0,0,0,.58-1.49,4.9,4.9,0,0,1,.91-2.24c.31-.44.44-.73.38-.79Zm29.72.7c-.16,0-.24.09-.41.17-.25.25-.25.41.08.58a49.64,49.64,0,0,0,8.29,1.33c2.82.24,7,.83,9.12,1.24s5.15,1,6.47,1.25c3.32.57,3.9,1,4.07,2.73l.16,1.41v-1.57c.17-2.57.67-1.83.75.91,0,3.15.5,4.06.58,1.24l.08-2,1.58-.66c3.4-1.41,4.89-1.08,5.64,1.08.33,1.24.41,1.24.25.24-.09-.58-.25-1.49-.34-2-.25-1-.16-1,2.08-1.58a71.56,71.56,0,0,1,7.54-.83c5.39-.42,7.63-.75,8-1.41.58-.83-1.24-1-2-.17-.49.58-.74.58-6.63.92-2.9.16-6.22.49-7.38.66a87.08,87.08,0,0,1-8.79.08,66.18,66.18,0,0,1-14.68-1.57c-.58-.09-2.74-.33-4.81-.5-5.22-.5-8.7-1-9.2-1.41a.53.53,0,0,0-.42-.17Zm-46,.34a29.44,29.44,0,0,0-4.31,1.82,80.23,80.23,0,0,1-7.54,3.07c-2.74.91-4.48,1.66-3.82,1.66a93.09,93.09,0,0,0,11.2-4c2.65-1.33,3-1.25,1,.08a20.86,20.86,0,0,1-6,2.9c-1.08.42-1.91.91-1.91,1.16,0,.58.5.5,5.56-1.16,2.4-.74,3.56-1.08,3.31-.74a26.25,26.25,0,0,1-6.13,4c-2.07,1.07-2.66,1.74-1.49,1.74a23,23,0,0,0,3.06-.83l2.49-.83-2.4,2.15c-2.24,2.08-2.9,3.16-2.08,3.16a12,12,0,0,0,2.82-2.49c2.82-2.74,3.16-3.65,1.33-3.4-.66.08-1.16.16-1.16.08s.75-.5,1.58-1.08C143,281.08,146,278,146,277.44c0-.42-.41-.42-.83,0a22.5,22.5,0,0,1-4.14,1.91,13.9,13.9,0,0,1,1.74-1.33c2.07-1.49,3.48-2.82,3.15-3.15Zm13.77,0a.82.82,0,0,0-.17.25c-.58.83-.83,2.65-.41,2.65.16,0,.33-.33.33-.75a10.45,10.45,0,0,1,.16-1.57c.09-.33.17-.5.09-.5Zm25.45.33a.08.08,0,0,0-.08.08c-.74.75-2.49,4.48-2.15,4.48a9.59,9.59,0,0,0,1.49-2.57C184.9,275.86,185.15,275.12,185,275.2Zm2.16,1.74c-.17,0-.75.42-1.66,1.33-1.66,1.66-2.07,2.4-1.16,2l1-.33c.33-.17.41,0,.25.58s-.09.66.16.41a1.94,1.94,0,0,0,.5-1c.08-.5-.08-.67-.5-.59s-.41-.16.41-1.07S187.22,276.94,187.14,276.94Zm-21.81,1.66-.58.66c-.74.91-.58,6.47.33,8,.25.67.67,1.08.75,1a4,4,0,0,0-.41-1.33c-.67-1.16-.92-6.47-.42-7.71Zm77.87,1.33c-.17-.09-1.41.74-3.32,2.4-3.73,3.07-5.89,4.39-8.13,5.22s-2.65,1.33-.91,1a14.42,14.42,0,0,0,3.4-1.16,53.58,53.58,0,0,0,8.62-6.8c.33-.42.42-.66.34-.66Zm-68.66.16h0c-2.33,0-3,.08-3,.41a.42.42,0,0,1-.58.42c-.41,0-.58.25-.58.83s-.17.83-.66.91a2.49,2.49,0,0,0-1.33.83c-.66.66-.66.66.16.16a12.49,12.49,0,0,1,1.83-.74c.66-.17.83-.33.74-.83s0-.67.42-.67.66-.16.66-.33a5.17,5.17,0,0,1,2.49-.33,6.57,6.57,0,0,0,2.65-.33c.17-.25-.91-.33-2.82-.33Zm-11.2.25v.08a8.82,8.82,0,0,0-.58,4c.33.58.42.33.66-2.15C163.51,281,163.51,280.34,163.34,280.34Zm5.39.08c-.91,0-2.24,3.65-1.9,5.06.16.66.16.66.49-.08a3.12,3.12,0,0,0,.33-1.16c-.08-.09.17-.58.42-1,.66-1.08.66-1.33-.09-.83-.49.42-.49.42.09-.58.25-.58.66-1,.83-.91a.21.21,0,0,0,.33-.17c0-.16-.25-.33-.5-.33Zm-39.64.66h0a8.58,8.58,0,0,0-1.57,2.57l-1.24,2.57-.09,6a61.17,61.17,0,0,0,.42,10.12c1,7.54,5,23.14,8.29,32.34,2.57,7.05,8.21,19.57,10.53,23.3.75,1.25,2.65,4.56,4.31,7.38s3.24,5.47,3.57,6,1.66,2.82,3,5.31c3.74,6.88,7.05,12.27,9.46,15,.25.29.76.83,1.3,1.41l3.57.69-.06-2.1c-.17-2.66-.17-2.74-1.5-4.15s-2.82-3.32-2.82-3.73a8.67,8.67,0,0,1,2.57-.08c2.49.08,2.57.08,2.49-.67,0-.41,0-.75.08-.75s1.66.59,3.49,1.33c6.46,2.57,11.52,3.65,19.9,4.31,4.48.34,7.79.17,7.46-.41a4.75,4.75,0,0,0-2.07-.25,89.65,89.65,0,0,1-20-2.82c-5.8-1.66-17.66-6.55-20.31-8.37-3.9-2.66-3.32-2.91,1.49-.58,2.41,1.16,6.14,2.73,8.21,3.48a41.46,41.46,0,0,1,5,2,104.24,104.24,0,0,0,11.36,3.81,80.09,80.09,0,0,0,17,1.33c7.63-.33,10-.75,12.11-2.07,3.15-1.83,3.07-2.08-.33-1.25-2.74.75-11.28.5-14.76-.33a56.49,56.49,0,0,0-7.79-.83c-4.9-.16-5.81-.33-8.63-1.32-4.81-1.58-21.48-9.79-25.62-12.61-5.31-3.56-8.87-6.55-10.12-8.46-1.49-2.32-6.3-11.85-8.37-16.58a181.3,181.3,0,0,1-11-36.07,49.81,49.81,0,0,1-1.08-11.36c0-6.22.66-11.69,1.74-13.35.25-.5.33-.75.08-.75Zm46.44,1a4.38,4.38,0,0,0-1.33.58c-1.32.83-1.41,1.49,0,.75.59-.33.59-.25.59.58a1.16,1.16,0,0,0,.74,1.32,2.58,2.58,0,0,0,1.24.25,3.12,3.12,0,0,1,.84-.16c.16,0,.16-.17.08-.34a2.22,2.22,0,0,0-1.33-.33c-1.24,0-1.41-.33-.83-1.82.17-.5.25-.75,0-.83Zm7,.4h-.07c-.83.25-2.41,4.57-1.66,4.57.16,0,.33-.67.41-1.41a5.2,5.2,0,0,1,.92-2.33c.36-.5.53-.82.4-.84Zm1.46.06a.19.19,0,0,0-.12,0h0a2.81,2.81,0,0,0-1.58,1.65c-.75,1.74-.5,2.16.17.58.41-.83,1-1.57,1.32-1.65s.58-.33.5-.5a.39.39,0,0,0-.29-.12Zm-4.52.2c-.58,0-.91,3.57-.41,4.07s.5.25.33-.83a4.78,4.78,0,0,1,.08-2.16C179.68,283.24,179.68,282.74,179.51,282.74Zm67.25,3.73h0c.08,0,.08.17,0,.58a31.09,31.09,0,0,0-.42,3.32,13.3,13.3,0,0,1-.66,3.48c-.41.83-.5.92-.33.17.08-.5.33-2.24.5-4a15.69,15.69,0,0,1,.74-3.48c.08-.09.09-.09.17-.09Zm3.59.49c.06,0,.06.36.06,1.09a8.78,8.78,0,0,1-.25,2.32c-.25.67-.25.66-.25-.5a9.81,9.81,0,0,1,.25-2.32c.08-.33.17-.58.17-.58h0Zm-1.77,0c.17,0,.17.42.09,1.58l-.17,2,.5-2c.5-2.16.58-1.66.33,1.08-.16,1.16-.41,1.74-.66,1.74s-.5.25-.5.66a1.13,1.13,0,0,1-.33.83c-.33.17-.33,0-.25-.58a13.94,13.94,0,0,0,.41-2.74A11.74,11.74,0,0,1,248.58,287Zm-64.75.08h0c-.25,0-.5.75-1.08,3.24-.25,1,.33,1.24,1.08.58s1.24-.66.74-.08a4,4,0,0,0-.5,1c-.33.91.75.66,1.08-.25a5.85,5.85,0,0,0,.33-1.33c0-.58-1.32-.66-1.9-.08-.33.33-.34.17-.17-.74a6.17,6.17,0,0,1,.5-1.75c.16-.33.17-.58-.08-.58Zm52.56,0a4.85,4.85,0,0,0-1.16.67c-.41.33-.66.66-.49.66a3.61,3.61,0,0,0,1.16-.66C236.39,287.39,236.56,287.05,236.39,287.05Zm11.36,0c.09.09.09.5-.08,1.5-.41,3.06-.83,5.14-1.24,5.3-.25.17-.25,0-.08-.49s.41-2,.66-3.4c.25-1.83.58-2.91.74-2.91Zm-59.78.34a1.4,1.4,0,0,0-1.49,1.32c0,.42.08.41.41-.08a2.63,2.63,0,0,1,1-.91c.75-.25.75-.33.09-.33Zm-15,.74c-.08.08-.08.42,0,1.08a3.4,3.4,0,0,1-.17,2.07c-.33.83-.33.83-.58.25s-.24-.58-.33.25c0,1.08.42,1.16,1.16.17.58-.75.58-.67.42,1-.17,1-.09,1.74.08,1.74s.33-.83.42-1.9c0-1.41.08-1.58.16-.67s.25,1.25.66,1.25.58-.42.58-2.49c.09-1.33-.08-2.41-.24-2.32a10.56,10.56,0,0,0-.34,2.4c0,1.25-.08,1.74-.16,1.08a11.58,11.58,0,0,0-.33-2.32l-.17-1.16-.25,1-.25,1v-1.08c-.08-.58-.25-1.16-.49-1.25,0-.08-.09-.08-.17-.08Zm16.92.25c-.58,0-2.74,2.07-2.74,2.74,0,.16.33,0,.74-.5a14.56,14.56,0,0,1,1.58-1.57C190,288.71,190.13,288.38,189.88,288.38Zm-7.93.55s-.06.05-.12.12c-.41.66-.41,4.14,0,5.72.58,1.9.75,1.32.34-.92a10.8,10.8,0,0,1-.17-3.64c.08-.83.08-1.25,0-1.25h0s0,0-.05,0Zm49,.28.83,1.58a4.85,4.85,0,0,1,.33,4.64c-.16.33-.08.58.09.58s.58-.58.74-1.33a4,4,0,0,0-1-4.31Zm3,.17a.26.26,0,0,0-.17.08c-.33.25.17,2.57.5,2.57a2.11,2.11,0,0,0,.08-1.24c0-.92-.16-1.41-.41-1.41Zm-57.55.33c-.08,0-.08.08-.17.16-.58,1.25-.24,6.47.42,6.47.16,0,.16-.16.08-.33a10.41,10.41,0,0,1,.17-2.49c.41-2.57.25-3.23-.33-1.08-.25,1.33-.34,1.25-.17-.91A5.58,5.58,0,0,0,176.36,289.71Zm51.66.16s-.08,0-.08.25c0,.67.41,1.83.58,1.33a1.53,1.53,0,0,0-.25-1.08A1,1,0,0,0,228,289.87Zm1.66,0c-.09,0-.08.09-.17.09-.49.49-.08,1.24.75,1.32.66,0,.66,0,.08-.83-.25-.33-.5-.58-.66-.58Zm-5.43,2.26a.19.19,0,0,1,.12.07c.5.16,1.33,2.65,1.08,3.15s-.75.41-.91-.25a7.54,7.54,0,0,1-.42-1.83c-.16-.74-.16-1.07,0-1.07A.24.24,0,0,1,224.25,292.13Zm-37.42.22a3.21,3.21,0,0,0-1.6.84l-.91.91.91-.58a9.46,9.46,0,0,1,1.08-.49,8.18,8.18,0,0,1-1,2.15c-.67,1.16-1.08,2.16-.83,2.16A9.22,9.22,0,0,0,186,295a20.94,20.94,0,0,0,1.16-2.49.18.18,0,0,0-.17-.17ZM178,293.44c-.08,0-.08.08-.17.08-.41.42-.83,4.48-.41,4.48a2.25,2.25,0,0,0,.25-1.24,21.88,21.88,0,0,1,.25-2.41c.16-.58.16-.91.08-.91Zm49.59,2.23a.14.14,0,0,0-.09,0c-.16.08-.33.33-.41.83a2.65,2.65,0,0,1-.75,1.16c-.5.25-.49.41.09,1.82.33.91.66,1.49.74,1.25a1.46,1.46,0,0,0-.25-1.08c-.25-.42-.33-.83-.16-.91s.16-.09.16.08a2.19,2.19,0,0,0,.5,1c.58.67.58.67.33,0s-.16-.58.5,0c.83.75.83.58.17-.74a5.86,5.86,0,0,1-.5-2.16c0-.8-.13-1.21-.33-1.25Zm-40.55.09a20.55,20.55,0,0,0-2.9,5.56c0,.66.16.41,1.74-2.74A8.58,8.58,0,0,0,187.06,295.76Zm.82.66a11.81,11.81,0,0,0-1.24,2.33c-.58,1.41-1.41,3.06-1.66,3.56-.41.83-.41,1-.08.91a11.34,11.34,0,0,0,1.83-3.4C187.64,297.67,188.05,296.42,187.88,296.42Zm4.24.92c-.42.16-1.66,1.41-1.66,1.74s.41-.08,1-.58.91-1,.83-1.08S192.2,297.34,192.12,297.34Zm36.32.08a16.6,16.6,0,0,0,2.07,4.23c.08,0,0-.33-.09-.75C230.09,299.91,228.6,297.25,228.44,297.42Zm-3.37.66c-.09.07,0,.63.3,1.58.16.74.41,1.24.49,1.07a3.1,3.1,0,0,0-.24-1.57c-.17-.66-.34-1-.5-1.08Zm-1.69,0c-.09.17,0,.41.25.58.82.5,1.16.33.58-.25a1,1,0,0,0-.67-.33h-.16Zm-44.78.33a1.89,1.89,0,0,0-.08.42c0,.33.08.5.16.41s.17-.41.08-.66C178.68,298.5,178.68,298.41,178.6,298.41Zm65.51.25a.36.36,0,0,1,.08.25,4.24,4.24,0,0,1-1.66,3.07c-.74.41-1,.41-1,.08,0-.16.33-.41.74-.58a3.66,3.66,0,0,0,1.33-1.82c.25-.67.41-1,.5-1Zm-51.63.31h0a4.9,4.9,0,0,0-1.69,2.18c0,.16.41-.25,1-.83s.83-1.24.75-1.33l-.05,0Zm-4.51.11c-.17-.17-1.49,2.65-2,4.14-.17.58-.08.75.16.58s.34,0,.17.67c-.17.49-.08.83.17.83s.33-.25.33-.58a7.31,7.31,0,0,1,.83-2.24l.82-1.66-.82,1c-1,1.16-1,1-.17-1A3.76,3.76,0,0,0,188,299.08Zm23.05.25c-.17,0-.33.24-.33.66s-.17.58-.5.41-.5.25-.41,2.49v2.57l.25-2.32c.16-2,.24-2.16.33-.83a8.48,8.48,0,0,0,.33,2.32c.25.58.33.42.17-.83a11.79,11.79,0,0,1,.16-3.07,2.27,2.27,0,0,0,0-1.4Zm1.24.57c-.49.5-.66,3.57-.41,5.65s.42,1.74.58-3.16c.08-1.49,0-2.57-.17-2.49Zm-32.63.25a1.39,1.39,0,0,0,0,.5c0,.42.09.66.17.42a1.47,1.47,0,0,0,0-.83l-.08-.09s0,0-.05,0Zm13.65.25a.25.25,0,0,0-.17.09,9.54,9.54,0,0,0-1.66,3c0,.08.17.08.33,0s.34.33.42,1.08c0,.91.08.75.25-.83a14,14,0,0,1,.66-2.74C193.36,300.57,193.36,300.4,193.28,300.4Zm51.65.09-.16,1.32c-.33,1.83-1.16,2.49-3.57,2.49-1.24,0-2.07-.16-2.32-.5a1.07,1.07,0,0,1-.16-.83c.16-.33.08-.33-.5,0s-.83.25-1.08.09.33-.67,1.49-1.25l1.75-.83.08,1c.08.83.25,1,1.16,1,.75,0,1.33-.34,2.15-1.25Zm-50.2.24s0,0,0,0-.17,0-.17.09c-.5.41-.91,5.14-.58,6,.08.25.33.41.5.33.33-.17.25-.33,0-.5-.42-.25-.34-3.07.25-5.22a1.86,1.86,0,0,0,0-.67Zm-1.12.42-.17.16a3.44,3.44,0,0,0-.33,1.5c0,1.24.17,1,.5-.67C193.69,301.4,193.69,301.15,193.61,301.15Zm38.89.15h0a.13.13,0,0,1,.08,0,4,4,0,0,1,.66,1.65c.42,1.83.25,6.14-.24,6.72-.17.17-.34-1-.26-2.82a28,28,0,0,0-.24-4.31c-.22-.87-.18-1.23,0-1.26Zm-23.55.43c-.42.75-.25,3.9.25,3.9v-2.16a4.82,4.82,0,0,0-.17-1.74Zm-13.52.08a8.15,8.15,0,0,0-.5,2.49c-.08,1.66-.08,1.91.17,1a21.2,21.2,0,0,0,.41-2.49c.17-.58.17-.91,0-1Zm1.33.17c-.08,0-.17.08-.33.25a4.88,4.88,0,0,0-.5,2.65l-.08,2.24.24-2.24a23.58,23.58,0,0,1,.5-2.65A.82.82,0,0,1,196.76,302Zm5.06.5-1.16,1.16c-.58.66-1.33,1.16-1.5,1.07s-.49.17-.74.59-.25.66,0,.66a.38.38,0,0,0,.33-.41c0-.17.08-.25.25-.17s.66-.17,1.16-.66l1-.92-.24.83a6.69,6.69,0,0,1-.67,1.58c-.33.41-.33.75-.16.75s.58-.5.83-1.17a14.28,14.28,0,0,0,.74-2.24Zm.74.25a7.49,7.49,0,0,0-.74,3.39c0,.67.16.25.49-1.16A6.7,6.7,0,0,0,202.56,302.73Zm1.09.39s-.05,0-.1,0a.2.2,0,0,1-.08.16,7.83,7.83,0,0,0-.49,2.41c-.25,2,.08,2.32,1.24,1.16a2.11,2.11,0,0,0,.5-1.08c0-.58-.83-1.57-1.08-1.32-.08.08-.08-.25,0-.75s.08-.56,0-.6Zm2.48,0v2.41c-.08,2.15.33,4.06.75,4.06.16,0,.16-.25,0-.58a30.48,30.48,0,0,1-.5-3.24Zm1.24,0,.17,2.07c.08,1.75.41,3,.66,2.65a10.56,10.56,0,0,0-.33-2.4Zm6.55.16s0,0,0,0c-.39.21-.69,3.23-.37,3.71s.33.25.5-2.16a2.61,2.61,0,0,0-.13-1.55s0,0,0,0Zm20.32,0a.36.36,0,0,1,.33.34c0,.16.5.58,1.08.83,1,.58,1,.58.41,1-.74.58-1,.58-1.41.09-.58-.67-.82-2.24-.41-2.24Zm-19.16,1.5s-.08,0-.08.25c0,.66.42,1.82.58,1.32a1.5,1.5,0,0,0-.25-1.07A.78.78,0,0,0,215.08,304.8Zm-11.27.58c.08,0,.08.08.16.17s.09.57-.08.66-.17-.09-.17-.42a1,1,0,0,0,.09-.41Zm14.34.41c-.25-.08-.58.58-.75,1.58-.16,1.24.34,1.74.75.74a7.07,7.07,0,0,0,.17-1.57C218.32,306,218.24,305.79,218.15,305.79ZM193,307.12a6.65,6.65,0,0,0-.25,2.07c.08,2.16.25,2,.41-.49.09-.92,0-1.66-.08-1.58Zm-1.58.83c-.58,1-.33,6,.33,6,.17,0,.17-.5-.08-1a12.82,12.82,0,0,1-.17-3.24C191.62,308.53,191.62,307.87,191.45,308Zm.75.16v1.66a3.63,3.63,0,0,0,.16,1.91c.34.33.34.17.09-1.74Zm43.28.92q.38.12.75,1a3.84,3.84,0,0,0,.83,1.58,1.47,1.47,0,0,1,.49.83c0,.66-1.65.58-1.9,0s-.25-.5-.5-.09-.33.34-.66-.16-.5-.42-.91,1c-.25.92-.5,1.33-.58,1-.17-.58-.17-.58-.59,0-.58.66-.66,0-.16-.91.66-1.17.08-.75-.83.74-.58.83-1,1.25-1.08,1s-.33-.33-.83.16c-.33.34-.58.42-.5.25a16.91,16.91,0,0,1,2.66-3.81c.16,0,0,.33-.25.83s-.5.91-.41,1,.49-.33.91-1,.83-1.08,1-1,.42-.25.67-.66c.49-.91,1-1.08,1-.42.08.25.17.09.33-.41S235.23,309,235.48,309Zm-19.28,1c-.12,0-.41.45-.7,1A23.87,23.87,0,0,1,214,314c-.58.91-.82,1.58-.57,1.49a9.91,9.91,0,0,0,1.74-2.65,12.35,12.35,0,0,0,1.08-2.73.07.07,0,0,0-.05,0Zm-2,0c-.16,0-.41.41-.91,1.24-1.08,1.91-1.08,2.15-.33,1.49.49-.41.49-.33,0,.66-.33.59-.5,1.08-.33,1.08s.66-.74,1.07-1.57a5.27,5.27,0,0,0,.58-2.41c0-.33,0-.41-.08-.49Zm-110.61,1.32.16,4.31a63.79,63.79,0,0,0,1,8.79c.74,4.48,2.4,10.29,2.82,10.29.16,0,.08-.67-.17-1.41-1.41-4-2.57-10.12-3.32-17.33Zm127.19,2.24c-.08,0-.08.08-.16.08a.7.7,0,0,0-.33.5c0,.25.16.25.33.17a.73.73,0,0,0,.33-.58.17.17,0,0,0-.16-.17Zm-10.86,9.95a.27.27,0,0,0-.24.09,12,12,0,0,1-3.07.41c-3.57.17-3.57.17-3.57.41,0,.75,2.16.83,4.81.09a5.26,5.26,0,0,0,2.16-.83c0-.08,0-.17-.09-.17Zm-3.39.67h.66l-.66.24a4,4,0,0,1-1.5.25h-.83l.83-.25A5.77,5.77,0,0,1,216.5,324.29Zm-6,0a.12.12,0,0,0-.1.12c0,.5,2.32,2.07,3,2.07.25,0,0-.33-.66-.74a12.37,12.37,0,0,1-1.74-1.16.74.74,0,0,0-.42-.25l-.06,0Zm-2.51.54a35.36,35.36,0,0,0,5.56,2.65c.16,0,.16-.08,0-.33A27,27,0,0,0,208,324.87Zm-5.21.21a0,0,0,0,0,0,0c0,.42,3.65,2.91,5.06,3.57s1.32.58,1.07.17a9.28,9.28,0,0,0-2.07-1.33,21.21,21.21,0,0,1-3-1.91,2.11,2.11,0,0,0-1-.5h0s-.06,0-.07,0Zm4.14.37a15.66,15.66,0,0,0,4.47,2.57c.09-.09.09-.25,0-.25A33.55,33.55,0,0,0,206.88,325.45ZM98.78,341.18l0,0c0,.08-.09.08-.09.17a29.1,29.1,0,0,0,.92,4.8c.91,3.82,1,4.4.58,4.81s-.5.34-.75-.57c-.25-1.33-.83-1.25-.83.16a16.09,16.09,0,0,0,1,5c.24.16.49.08.82-.34.42-.58.5-.58.84-.16a3.52,3.52,0,0,1,.24,1.82c-.08,1.08-.25,1.33-.91,1.49-1.08.25-1.16.92-.5,3,.5,1.49.58,1.57,1.41,1.41,2.16-.41,2.24-.33,2.49,1.33.16.91.41,1.57.5,1.49a37.72,37.72,0,0,0-.58-5,26.14,26.14,0,0,0-1.16-5.22,40.42,40.42,0,0,1-1.83-6.14c-1.63-6.68-2-8.05-2.12-8.05Zm13.4,13.87c-.17,0-.17.33-.08.75s.33,2.48.58,4.55c.52,3.94,1.77,10.66,2.81,15.59l.65.35c-.22-1.16-.46-2.42-.72-3.75-1.08-5-2.16-10.94-2.41-13.26A25.78,25.78,0,0,0,112.18,355.05Zm152.74.25H265a5.12,5.12,0,0,1,.67,1.41c.08.41,1.41,4.14,2.57,7,.16.34.08.59-.17.59a.64.64,0,0,1-.5-.42C266.49,360.94,264.84,355.46,264.92,355.3Zm-12,1.49a25.36,25.36,0,0,0,3,4c1.74,2.07,4.48,5.56,6.05,7.63a32.09,32.09,0,0,0,3.24,3.9c.17,0,.16-.17.08-.42C264.09,370,253.15,356.62,252.9,356.79Zm13.59,1c0-.09.25.24.59.74,2.24,3.24,3.31,6.47,2.15,6.47-.33,0-.41-.17-.33-.33a13.52,13.52,0,0,0-1.16-3.49,19,19,0,0,1-1.24-3.39Zm12.53,10a5.17,5.17,0,0,0-1.58,1.24c-2.4,2.24-2.9,2.49-7.05,3.24a26.44,26.44,0,0,0-3.9.82c-.33.34.75.17,4.56-.49,3.32-.58,4-.83,5.31-1.91,1.74-1.41,2.66-2.32,2.66-2.82ZM104.88,369c-.13,0,0,.62.15,1.41l.49.26c-.3-1.27-.48-1.67-.64-1.67Zm160,6c-.74,0-.74.66-.24,2.49.45,1.51,1,2.28,3.33,4.77l2.4-.95c-1.32-1.44-2.63-3-3.33-3.91a9.54,9.54,0,0,0-2.15-2.4Zm-5.8,6c-.66,0-1.32,1.16-1.07,1.91.24.58.82.25.82-.58s.25-.83,2.16.41c.52.31,1.56.89,2.39,1.37l.76-.3-1.49-.9a17.09,17.09,0,0,0-3.57-1.91Zm.43,1.49a.17.17,0,0,0-.1,0c-.08,0-.08.17-.08.25a5.22,5.22,0,0,0,1,1.49,6.74,6.74,0,0,0,.84.76l.41-.16c-.48-.39-.75-.67-.66-.76s.6.15,1.21.54l.51-.2-.4-.26a14.29,14.29,0,0,0-2.72-1.66Zm.9.92.08.08c.17.08.34.25.34.33s-.17.16-.34.16a.35.35,0,0,1-.33-.33C260.11,383.41,260.19,383.33,260.36,383.33Z"/><path class="cls-2" d="M201.66,403.32C90.46,403.32,0,312.85,0,201.66S90.46,0,201.66,0,403.31,90.46,403.31,201.66,312.85,403.32,201.66,403.32ZM201.66,6C93.77,6,6,93.77,6,201.66S93.77,397.32,201.66,397.32s195.66-87.77,195.66-195.66S309.55,6,201.66,6Z"/></g></g></svg>