<svg xmlns="http://www.w3.org/2000/svg" viewBox="0 0 389.96 386.39"><title>kai</title><g id="Layer_2" data-name="Layer 2"><g id="Layer_1-2" data-name="Layer 1"><path d="M180.31,386.33c-2.05-2.21-4.48-4.76-7.23-7.57L167,372.55,167,370.1c-.17-2.7-.19-2.92-1.62-4.45a20.18,20.18,0,0,1-2.45-3l.69,0,1.11,0c.65,0,1.12,0,1.48,0,.69,0,1.09-.05,1.34-.34a1.11,1.11,0,0,0,.19-.91v0c.55.21,1.6.61,2.86,1.13,6.45,2.56,11.49,3.65,19.95,4.32,1.5.11,2.93.17,4.12.17,3.39,0,3.64-.43,3.79-.68a.66.66,0,0,0,0-.65c-.09-.18-.25-.5-2.49-.5a67.32,67.32,0,0,1-7.19-.48c2.62.24,5.39.38,7.73.38.8,0,1.55,0,2.21-.05,7.61-.33,10-.75,12.28-2.14s2.64-1.64,2.5-2.16c-.05-.17-.2-.45-.73-.45a13.58,13.58,0,0,0-2.48.46,24,24,0,0,1-5.39.43,46.78,46.78,0,0,1-9.07-.76,55.51,55.51,0,0,0-7.84-.84c-4.93-.16-5.72-.33-8.45-1.29a166.73,166.73,0,0,1-16-7.34c1,.48,2.07,1,3.3,1.58,12.48,5.91,14,6.4,20.58,6.56a47.24,47.24,0,0,1,7.09.65,33.06,33.06,0,0,0,7.53.59c5.71,0,8.93-.53,11.85-1.95,4.14-2,10.49-9.45,14.17-16.55a60.4,60.4,0,0,0,3.55-8.55c.05,1.19.09,2.66.13,4v1c0,4.69,0,4.69-3,9.23l-.5.75c-4.88,7.29-9.78,12.11-14.56,14.35-2.64,1.28-9.38,3.25-11.1,3.25-.92,0-1.49.32-1.49.83a.58.58,0,0,0,.09.3c-2.09.11-4.39.18-6.69.18-2.55,0-4.79-.08-6.47-.23-3.65-.34-16.89-3.35-17.79-3.93-.07-.07-.23-.24-1.51-.24-.28,0-.59,0-.92,0-1.48.12-2.23.46-2.36,1.07-.09.46.22.89.93,1.27a4.48,4.48,0,0,1,1.67,5.57l-.53,1.37,5.5,5.6c2.55,2.57,5.4,5.61,8.12,8.66Zm-4.17-.35c-2.64-.19-5.29-.43-7.89-.72-.4-2.26-.64-3.8-.64-4,0-1-.47-1.15-.75-1.15-.67,0-.67.27-.67,4.87v0a195,195,0,0,1-60.59-19.43c-.31-1.2-.91-4-1.71-7.86-1.94-10.63-2.09-10.63-2.8-10.63h-.24l-.18.21c-.23.28-.2.66.18,2.3a16.23,16.23,0,0,1,.4,2.86c0,1.68,1.32,7.81,2.36,12.07l-.32-.17c-.2-.89-.45-1.94-.72-3.1-.77-3-1.49-6.5-1.73-7.89l-.48-3-1.62.12c-.66,0-1.49.29-1.67.83a.88.88,0,0,0,.1.77.66.66,0,0,0,.54.24,2.7,2.7,0,0,0,.63-.12,1.75,1.75,0,0,1,.32,0,11,11,0,0,1,.62,2.62l.1.58a11,11,0,0,1,.17,1.31l-.33.05-.18,0c-.75.17-1.41.47-1.42,1.56C95.42,344.46,95.11,342,93,323.93c-.75-6.2-1.58-12.75-1.82-14.53s-.57-5-.74-7.24c-.16-3.63-.07-3.72.43-4.23.81-.8.81-1.21.81-1.34a1.44,1.44,0,0,1,.29-.49c.06.4.12,1.06.19,1.87.42,5.82,3,19.6,5.13,27.88,1.12,4.38,1.27,4.42,1.73,4.42h0q.57,0,.57-.84c0-.38-1-5-1.66-7.7-2.67-11.68-4.61-22.74-4.61-26.3v-1.27L99,288.7c3-2.95,6.6-6.67,7.64-8,2-2.38,5.3-7.18,5.85-8.64.81-2.28,7.86-12.09,10.78-15,2.9-3.07,4.07-3.6,10.38-4.73s9.34-2.07,10.94-3.32a2.73,2.73,0,0,1,.8-.5s.08,0,.23.16.3,1.13.23,3.48c0,4-.64,6-3.82,11.91-2.71,4.93-4.66,6.72-10.43,9.61-1.05.52-3,1.61-4.25,2.41-3.19,2-3.2,2.55-2.29,7.69a186.21,186.21,0,0,0,9.51,34.14,185.07,185.07,0,0,1-9.6-32.59,49,49,0,0,1-1.06-11.21c0-6.16.68-11.51,1.65-13a2.91,2.91,0,0,0,.18-.35.65.65,0,0,0,.48.17,38.21,38.21,0,0,0,5.21-1.62c-1.42.67-1.42,1.12-1.42,1.29a.84.84,0,0,0,.2.58.89.89,0,0,0,.66.24c.62,0,1.88-.38,5.32-1.5l1.43-.44a31.51,31.51,0,0,1-4.6,2.72c-2.12,1.11-2.46,1.63-2.34,2.12s.83.57,1.07.57a14.2,14.2,0,0,0,3.2-.85l.2-.06-.6.53c-2.65,2.45-2.69,3.12-2.52,3.55a.76.76,0,0,0,.79.46c.62,0,2.42-1.84,3.17-2.63,2.43-2.36,2.76-3.13,2.52-3.72a1,1,0,0,0-.93-.54l.06,0c1.45-.89,4.92-4.12,4.92-5.11a.76.76,0,0,0-.76-.81,1.22,1.22,0,0,0-.75.31c1.42-1.23,1.46-1.69,1.47-1.87a.66.66,0,0,0-.19-.54l-.15-.15h-.37a29.57,29.57,0,0,0-4.51,1.87,78.29,78.29,0,0,1-7.44,3,18,18,0,0,0-4,1.63l0,0a.63.63,0,0,0-.55-.29c-.46,0-1.14,1-2,2.84l-1.29,2.66-.08,6.05a60.27,60.27,0,0,0,.42,10.15c1,7.54,5,23.23,8.27,32.28,2.63,7.19,8.23,19.6,10.53,23.28.38.64,1.09,1.86,1.91,3.27l2.37,4.06c1.41,2.4,3.19,5.41,3.57,6,.28.36,1.43,2.4,2.94,5.24,4,7.36,7.18,12.42,9.47,15,1.33,1.5,6.62,7,11.16,11.73Zm-68.25-52.53c-.19.22-.22.56-.11,1.12,0,.15.07.76.23,1.9.11.77.23,1.69.34,2.6.41,3.05,1.32,8.28,2.34,13.32,1.75,8.69,2,8.69,2.5,8.69h.34l.16-.35c.17-.51-1-6.29-1.63-9.69-1.07-4.94-2.14-10.84-2.39-13.16-.66-4.65-.92-4.65-1.32-4.65h-.23Zm-8.71,8.24c.3,0,.34,0,.51,1.11.35,1.91.72,1.91,1,1.91h.21l.16-.15c.17-.17.35-.35-.43-5.38-.54-3.31-1-5.15-1.3-5.48a52,52,0,0,1-1.68-5.87l-.33-1.35c-1.44-5.9-1.67-6.84-2-7l0,0h-.41l-.17.14-.16.15v.06l0,0,0,.13a.59.59,0,0,0,0,.14v0a30.73,30.73,0,0,0,.91,4.92,25,25,0,0,1,.8,3.94c-.16-.84-.48-1.29-1-1.29-.31,0-.84.21-.84,1.61s.65,4.7,1.1,5.26l0,.06.07.05a.88.88,0,0,0,.51.16,1.33,1.33,0,0,0,1-.6l.07-.1a3.93,3.93,0,0,1,.11,1.38c-.07.95-.15,1-.53,1.06a1.6,1.6,0,0,0-1.1.72c-.36.63-.18,1.54.25,2.89.38,1.13.6,1.81,1.43,1.81a3.29,3.29,0,0,0,.55-.07A8.14,8.14,0,0,1,99.18,341.69Zm.09-51.35.17,4.29a63.19,63.19,0,0,0,1,8.83c0,.09,1.88,10.63,3.29,10.63H104l.2-.23q.32-.45-.15-1.83c-1.37-3.87-2.53-10-3.28-17.14l-.49-4.62Zm137.68,92c-1.32-7.91-1.71-13.33-2.18-29.35-.49-16.68-.74-20.36-1.66-24.6a27.85,27.85,0,0,1-.48-3.53c0-.36,0-1.53-.53-1.89a1.43,1.43,0,0,1-.13-.59,39.49,39.49,0,0,0-1-5.07c-.05-.21-.11-.5-.19-.82,2.38,5.45,5.23,9.24,12.06,16.31,3.41,3.5,6.46,6.88,7.06,7.64,1.12,1.6,1.43,1.6,1.61,1.6h.21l.17-.16c.12-.12.31-.31,0-1,1.62,2,3.75,4.69,5.14,6.52,3.14,4.08,3.32,4.08,3.62,4.08a.64.64,0,0,0,.52-.25.92.92,0,0,0,0-.82l0-.05,0,0C261,350.07,249.35,335,248.39,335h-.15l-.13.08c-.19.19-.34.33,0,1-1-1.15-2.35-2.53-4-4.21a94.19,94.19,0,0,1-7.38-8.19c-4.05-5.6-7.29-13.37-7-15.57.07-.56.79-3.15,1.79-6.44,1.49-5.11,1.63-5.2,2.51-5.74a24.68,24.68,0,0,0,3.36-2.52c.64-.55,1.23-1,1.63-1.33.46,1.11,1.52,3.79,2.63,6.59l.32.81c1.77,4.48,5,12.07,7.19,16.94s4.91,11.21,6.1,14.1c3.9,9.29,4.32,10.07,6.48,12.06,1.36,1.28,2.47,1.93,3.28,1.93a1.14,1.14,0,0,0,1-.45,2.87,2.87,0,0,0,0-2.48,64.64,64.64,0,0,0-4.21-7.47c-3.81-6.13-4.19-6.13-4.49-6.13h-.39l-.11.36c-.24.62.6,1.81.64,1.86a65.14,65.14,0,0,1,2.69,7c-.9-2-2-4.64-3.15-7.35-2.57-6.06-4.24-9.83-9.08-20.57-.09-.22-.19-.44-.28-.65,1.39,2.16,3.36,5.2,5.35,8.23,6.41,9.72,8.26,12.54,8.34,13,0,.23,0,.4,7.39,8.56l7,7.6-1.16,1.4c-1.82,2.17-2.31,2.76-3.88,3.26a7.38,7.38,0,0,0,1.32-.9c2.08-1.69,2.82-2.53,2.82-3.2V346l-.5-.08c-.44,0-1.29.76-1.92,1.39-2.32,2.16-2.76,2.36-6.75,3.08,0,0-3.79.61-4.14,1a.57.57,0,0,0-.16.66.7.7,0,0,0,.7.36,38.76,38.76,0,0,0,4.17-.62,19.22,19.22,0,0,0-3.67,1.2,1,1,0,0,0-.49.68c-.07.48.26.95,1,1.85s2.86,3.28,4.89,5.4l3.63,3.63-.63,5c-.08.62-.17,1.22-.26,1.8l-.32.12a32.38,32.38,0,0,0,.59-5l.09-1.87-3.37-3.45a65.27,65.27,0,0,1-4.9-5.57c-1.95-2.59-2.28-2.59-2.55-2.59a1.05,1.05,0,0,0-.87.38c-.37.5-.25,1.31.14,2.73.55,1.82,1.16,2.58,4.08,5.66a30.27,30.27,0,0,1,3.3,3.8,1,1,0,0,1-.45.33,1.71,1.71,0,0,0-1,.84l-.26-.2h0a.72.72,0,0,0,.75-.74c0-.42-.27-.62-2.4-1.84-1.42-.67-4.31-2.46-5.26-3.05a16.39,16.39,0,0,0-3.82-2,1.52,1.52,0,0,0-1.17.71,2.13,2.13,0,0,0-.37,1.85.9.9,0,0,0,.81.63.88.88,0,0,0,.7-.39,5.34,5.34,0,0,0,.92,1.27,9.27,9.27,0,0,0,1.33,1.15,2,2,0,0,0-.89-.28.66.66,0,0,0-.65.44c-.48,1.12,2.65,3.14,5.35,4.64l.36.21c2.07,1.19,2.14,1.23,2.58,5a197.24,197.24,0,0,1-24.6,7.67Zm35.61-12.09c.18-.89.42-2.46.5-3.43a9.62,9.62,0,0,1,.26-1.67.7.7,0,0,0,.12-.4c0-1.25-3.81-5.28-5.81-7.24l-3.16-3.09,3-.77c2.1-.48,4.29-1.07,4.82-1.25a22.87,22.87,0,0,0,5.06-5.38l.16,0a.61.61,0,0,0,.55-.33c.35-.64-.46-2-.72-2.4-1.31-1.87-6.5-8.16-10-12a86.2,86.2,0,0,1-5.9-7.54c-1.47-2.26-4.76-7-7.1-10.24-4.75-6.65-9-13.23-10.78-16.29-.47-.82-1.22-2.4-1.85-3.82.95.48,3.35,1,9.86,1.75a46.77,46.77,0,0,1,15.67,4.25,14.8,14.8,0,0,0,3.13,1.24h.5l0-.27a10.47,10.47,0,0,1,.84,1.16,13.85,13.85,0,0,0,2.09,2.56,1,1,0,0,0-.51-.19.57.57,0,0,0-.57.38c-.12.34-.29.8,4.29,4.55s11.77,8.17,14.23,8.36a35.67,35.67,0,0,1,4.81,2.57c2.42,1.34,4.95,2.81,5.78,3.3s2.74,1.85,4.32,3.1c.76.64,1.88,1.5,3.06,2.42s2.24,1.73,3.12,2.45l8.26,6.44,1.21.94.34.26a195.83,195.83,0,0,1-49.67,31C272.51,370.48,272.53,370.34,272.56,370.2ZM265,368l-.47,0-.32-.06a.54.54,0,0,0,.12-.34,2.67,2.67,0,0,0,.85.25h0c0,.07,0,.13,0,.17Zm-58.37-1.45a53.13,53.13,0,0,0,6.64-2.07,28.59,28.59,0,0,0,4.72-2.61c3.87-2.89,9.22-8.87,13.33-14.9l.11-.17c-.63,1.79-2.81,5.21-7.42,10.45-3.47,4-10.27,7.78-16.16,9.09C207.5,366.4,207.09,366.47,206.62,366.54Zm-25.86-3c-1.69-.33-3.26-.7-4.61-1.07-5.66-1.62-17.48-6.49-20.06-8.27l-.77-.53c.47.21,1,.47,1.75.82,2.33,1.12,6.1,2.72,8.22,3.48a47,47,0,0,1,4.85,1.94A108.06,108.06,0,0,0,180.76,363.53Zm-82.61-1.9L97.74,359c.17.42.56.6,1.21.6.33,0,.38,0,.68.9s.17,1-.13,1.3a2.11,2.11,0,0,0-.27.36ZM95,359.91A193.08,193.08,0,0,1,49.9,323.29c6.17-3.24,13.24-6.65,19-9.16a73.52,73.52,0,0,0,8-4.41c6.56-4.35,9.5-6.12,10.48-6.63.76,3.13,3.47,22.49,4.27,30.68.89,9.6,1.38,13.56,2,17.52.43,2.31.93,5.75,1.16,7.42Zm93.89-8.18a36.7,36.7,0,0,1-13.82-3.27c-3.35-1.55-8-5-9.06-6.37-.55-.73-3-3.33-5.16-5.58-3.39-3.56-4.33-4.76-5.61-7.15-4.34-8.35-7.7-22.38-8.77-36.6a167.94,167.94,0,0,1,.49-24.67c.33-4.32.49-4.85,1.34-6.23a4.38,4.38,0,0,1,1.13-1.5c.15,0,1.21.13,4.21,4.57a59.18,59.18,0,0,0,9.49,11.32c1.57,1.4,4.79,4.29,7.26,6.52,6.59,6,15.24,12.43,17.6,12.43a1,1,0,0,0,.25,0,.73.73,0,0,0,.65-.49c.14-.47-.26-.85-.91-1.44l-.06-.05.14-.19a1.68,1.68,0,0,0-.13-1.43,3.7,3.7,0,0,1-.09-.6.73.73,0,0,0,.49.22h.22l.19-.18c.15-.17.19-.36.13-.95.42-.1.47-.66.59-2.44a6.82,6.82,0,0,0,0-1.37.89.89,0,0,0,.64.29h.12l.19-.07a.76.76,0,0,0,.5-.64.71.71,0,0,0-.29-.6h.05a.47.47,0,0,0,.46-.3l0,1.07,1,.08.25-2.23a20.92,20.92,0,0,1,.47-2.54l.79-.89-1.1,0a.9.9,0,0,0-.64.36.71.71,0,0,0-.37-.47l-.11-.05H191l-.05.05c.09-.54.06-.72,0-.87l-.14-.25-.31,0h-.2l0,0a.59.59,0,0,0-.4.34,1.5,1.5,0,0,0-.09.18l-.11-.12h0a.67.67,0,0,0-.06-.48l-.14-.25-.33,0a.72.72,0,0,0-.52.23h0a9.33,9.33,0,0,0-1.8,3.32.57.57,0,0,0,.6.56h0a5.26,5.26,0,0,1,.1.57c0,.14,0,.29,0,.39,0,.55.39.61.53.61h0c.49,0,.54-.28.68-1.58a.51.51,0,0,0,.28.07l.18,0a13.22,13.22,0,0,0,0,2.57l0,0h-.46l-.23.15a2.75,2.75,0,0,0-.33,1.3l-.26,0a.83.83,0,0,0-.19-.48l-.15-.15-.25,0h-.12l-.13.06-.13.06-.08.13c-.46.79-.48,3.29-.23,4.95a11.39,11.39,0,0,1-1.32-4.43c-.32-2.14-.31-2.8,0-3.41.48-1,.28-1.27.22-1.38l-.15-.23-.2,0c.24-.42.32-.75,0-1l-.14-.14-.27,0a1.16,1.16,0,0,0-.74.45l.67-1.35-.77-.5c.57-1.43.28-1.71.17-1.81l-.14-.14h-.22a.35.35,0,0,0-.19.06c.82-2.07.7-2.25.56-2.46l-.14-.22h-.3a.4.4,0,0,0-.34.12c.07-.37,0-.48,0-.54l-.14-.24h-.42l-.11.06c-.68.26-3.17,5.18-3.17,6s.31.8.57.8a.47.47,0,0,0,.35-.11l0,.08c-.32.63-.5,1-.29,1.37a.6.6,0,0,0,.53.28l.24,0a1.07,1.07,0,0,0,.4-.32,1.14,1.14,0,0,0,0,.41c-.85.24-2.07,3.91-2.07,4.29v.06c-1.45-.33-8.09-6.84-10.62-9.33L165.58,275l.2-1.14a2.54,2.54,0,0,1,.28-.93c.35-.1.62-.52.83-1.29s.39-1.73-.12-2.13l-.12-.12h-.24c-.21,0-.43,0-.9.84a.66.66,0,0,0-.15-.33l-.15-.18-.28,0h-.2l-.13.11a1.79,1.79,0,0,0-.62,1.09,5.93,5.93,0,0,1,.59-2.74c.77-1.45.59-1.75.5-1.9l-.15-.24-.32,0c-.32,0-.56.23-1,.92a11,11,0,0,0-1.25,5.09l-.42-.46c-6.81-7.72-11.91-16.67-14-24.55l-1.16-4.25,0,0a.56.56,0,0,0,.54.38c.15,0,.47,0,1.44-1,1.16-1.16,1.48-1.61,1.08-2l-.15-.15-.16,0c.43-.53.41-.69.38-.86l0-.25-.16-.09-.11-.11h-.23a.88.88,0,0,0-.48.18c.51-.56.52-.76.52-.87v-.22l-.21-.23-.18-.09h-.23l-.1,0h0c-.22,0-.55.2-1.65,1.3-.41.44-.7.75-.88,1,0-.64.48-1,2.37-2.47q.57-.43.42-.9a.64.64,0,0,0-.65-.41,3.93,3.93,0,0,0-1.83,1.14l-.19.16a.59.59,0,0,0,0-.23l.19-.22a1.57,1.57,0,0,0,.58-1.6.7.7,0,0,0-.43-.43c.58-.94.52-1.24.4-1.45l-.14-.26-.34,0c-.24,0-.5.12-1,.7a4.33,4.33,0,0,0-.27.37c-.25-2.12-.41-3.47-.44-4,.18-.09.38-.35.53-1.06l.24,0c.51,0,.86-.59,1-1a1.61,1.61,0,0,0,.35.16,4.52,4.52,0,0,0,.45,4.78,2.83,2.83,0,0,1,.7,1.41,2.51,2.51,0,0,0,.08.69.67.67,0,0,0,.63.53c.39,0,.67-.35.8-1h0l.19,0a1.42,1.42,0,0,0,1-.64l.06.14a.75.75,0,0,0,.68.39,1.62,1.62,0,0,0,.51-.1.48.48,0,0,1,.17,0h0s.07,0,.19.33a7,7,0,0,0,2.83,2.87l.25.15c.52.32.7.43.93.43h.21l.2-.17a.83.83,0,0,0,.18-.64v-.11c0-.43-.49-1-1.44-1.72a4.2,4.2,0,0,1-1.58-1.61c-.33-.79-.9-1.3-1.45-1.3h-.13a2.35,2.35,0,0,1,0-.31c0-1.08-.51-1.28-.77-1.31v0a.64.64,0,0,0-.1-.8l-.13-.12H151l0,0h-.1c.48-1.41.46-1.6.22-1.83L151,228h-.23c-.19,0-.4.17-.61.44a.65.65,0,0,0-.08-.51l-.15-.23-.32,0h-.08a.61.61,0,0,0,.21-.34c.12-.4-.18-.77-.49-1.08s-.66-.58-1-.58a.7.7,0,0,0-.52.23l-.09-1-.13-1.73-1.71,3.26a.91.91,0,0,0-.07.14,22,22,0,0,1,.89-3.52c.81-2.58.8-2.61.6-2.87l-.14-.2h-.27c-.24,0-1,0-2.37,5.47-.05-1.64.12-2.32,1-5.76,1-3.88.82-4.12.68-4.3l-.15-.19h-.38l-.11.05a.57.57,0,0,0-.27.27c0-.33-.1-.9-.61-.9a.52.52,0,0,0-.33.11c.11-.87.22-1.69.32-2.29l.16.33c.65,1.39,1.53,2.19,2.4,2.19a1.39,1.39,0,0,0,.57-.12c.63-.21,1.62-2.16,1.73-2.38,1.27-2.46,2.52-3.87,4-4.55a3.79,3.79,0,0,1,1-.38c.16,0,.37.15.88.49a47.86,47.86,0,0,1,4,4c3.24,3.52,4.75,4.71,6,4.71a1,1,0,0,0,.78-.32c.36-.44.27-1.09-.29-3.67l-.55-2.33,1.59-3.81.42-1c.78-1.85,1.52-3.6,1.74-4.24a3,3,0,0,1,1.53-1.8c1.75-1,2.37-1.41,2.37-2.65s-.93-1.58-4.16-2.46c-4.4-1.26-9.08-4.34-10.42-6.86a7.22,7.22,0,0,1-.6-2.48c0-1,.05-1.25,1.83-2.94a19,19,0,0,1,3.18-2.47,3.24,3.24,0,0,0,1.77-1.95,1.16,1.16,0,0,0,0-.67c1.25,0,2.59.07,4,.07a48.45,48.45,0,0,0,7.4-.39,32,32,0,0,1,5.41-.35,35.92,35.92,0,0,1,5.69.36c6.4,1,10.07,3.95,11.91,9.4.08.2.29.73.77.73a.61.61,0,0,0,.59-.48c.2-.58-.7-2.48-1.1-3.27a13.22,13.22,0,0,0-6.95-6.68,29.68,29.68,0,0,1-4-2l-.44-.23a21.07,21.07,0,0,0-2.07-1.06c-.16-.11-.64-.51-.91-.73-1-.94-1.14-.94-7-.94-2.54,0-5.42,0-5.82-.12a1,1,0,0,0-.44-.08,6.9,6.9,0,0,0-2,.39c-1.63.43-4.32,1-6.89,1.54a.67.67,0,0,0,0-.24.72.72,0,0,0-.82-.7,2.63,2.63,0,0,0-.74.14,28,28,0,0,1-4.55.22,25.69,25.69,0,0,1-4.81-.39c1.41.12,3,.17,4.2.17,2.85,0,3-.26,3.17-.48a.63.63,0,0,0,.05-.66c-.2-.39-.71-.45-1.7-.45-2.79,0-3.84-.4-4-.57-.14-1.15-3.36-1.91-5.11-2,.82-.17,2.2-.53,4.6-1.23,1-.3,2.21-.63,3.51-1l-2.47.74c-3.14.86-3.14,1-3.14,1.44v.38l.42.14a.9.9,0,0,0,.21,0,19.19,19.19,0,0,0,3.2-.67.65.65,0,0,0,0,.2.56.56,0,0,0,.53.54h0a16.07,16.07,0,0,0,2.47-.38c-.91.25-.91.49-.91.71a.61.61,0,0,0,.4.57,1.2,1.2,0,0,0,.46.07,16.73,16.73,0,0,0,3.25-.6c-.86.46-.82.77-.78,1,.09.63.93.63,1.29.63A13.44,13.44,0,0,0,165,170l-.12.13a.6.6,0,0,0-.12.63.65.65,0,0,0,.66.38,2,2,0,0,0,.37-.05h.07l.06,0a8.52,8.52,0,0,1,1.13-.36l.35-.1c2.19-.46,11-4.69,11.33-5.87l.09-.29-.23-.29-.07-.07c.15,0,.3.2.38.67a2.75,2.75,0,0,0,1.23,1.7,3.89,3.89,0,0,1-.63-.31,1.08,1.08,0,0,0-.85-.4c-.52,0-1.11.35-2.4,1.11l-.33.2a28.57,28.57,0,0,1-3.8,1.94l-.09,0c-.79.22-1.16.33-1.21.76s.32.63.74.86c.85.46,9.39.48,10.36.48,7.24,0,7.44-.28,7.61-.52l.15-.21-.08-.27c-.12-.26-.85-.63-2.16-1.11a7.78,7.78,0,0,0,1.25.18c.67,0,.69-.5.69-.56a.86.86,0,0,0-.24-.54c4,2.79,9.75,6,11.42,6,.77,0,1.14,0,1.21-.45s-.24-.57-1.08-.85l-.26-.08a34.2,34.2,0,0,1-6.86-3.5c1.93,1,5.52,2.52,6.35,2.52l.17,0a8.44,8.44,0,0,1,1,.63c1.08.78,1.4.78,1.5.78h.21l.19-.16a.59.59,0,0,0,.14-.62,5.44,5.44,0,0,0-2.77-2,2.93,2.93,0,0,0-.69-.88.7.7,0,0,0,.55-.42.74.74,0,0,0-.06-.69,8.6,8.6,0,0,1,1.49,1.14c.12.57,1,1.11,1,1.13a1.85,1.85,0,0,0,1.07.47,1.34,1.34,0,0,0,.82-.34,1.66,1.66,0,0,0,.64-1.18c0-.7-.5-1.43-1.92-2.79-2.85-2.77-10.1-6-13.37-6a3.62,3.62,0,0,0-.69.06c-.7.17-1.19.29-1.29.74a.85.85,0,0,0,.41.8,1.19,1.19,0,0,1,.19.16h0c-.37-.21-.82-.45-1.37-.74l-2.6-1.3H179a70.9,70.9,0,0,0-16.47,2,61.22,61.22,0,0,1,9.58-1.63c5.7-.6,6-1,6.08-1.5a.69.69,0,0,0,0-.25h1.08c5.41,0,8.67.26,9.95.8l.05,0h0a2.28,2.28,0,0,0,.42.06.61.61,0,0,0,.51-.24.66.66,0,0,0,.05-.63l0-.12-.09-.08a8.38,8.38,0,0,0-2.9-1c-1.43-.25-6.3-.34-11-.42H176c-4.26,0-9.23.13-10.22.43l-1,.34.12,1,.9.08.43,0,0,0a.45.45,0,0,0,.11.13,2.09,2.09,0,0,0-.3.15h0a13,13,0,0,1-2.39.67,47.15,47.15,0,0,0-4.72,1.4c.77-.3,1.49-.56,2.09-.76,2-.72,2.53-1,2.5-1.6s-.67-.69-1-.77l-.19-.06c.48-.42,2.39-1.19,5.34-1.59a37.61,37.61,0,0,1,4.43-.2c1.51,0,3.35,0,5.64.12,3.65.15,6.1.22,7.93.22,4.89,0,6.47-.47,7.07-2.12a1.61,1.61,0,0,0,0-1.48c-.37-.54-1.19-.62-2.84-.67-1-.09-3.11-.25-4.67-.41s-3.81-.34-5.09-.34c-2.72,0-2.81-.21-3.08-.92s-.08-1.3,4.43-5.9c4.21-4.2,4.15-4.53,4.11-4.79l0-.25-.09-.05-.07-.13-.35,0c-.65,0-2.41,1.5-2.76,1.8a23.36,23.36,0,0,1-10.82,5,18.35,18.35,0,0,1-3.65.47,12,12,0,0,1-5.29-1.51c-5-2.3-7.78-6-10.21-13.72a19,19,0,0,0-1.53-3.67l-.05-.05-.06,0a1.31,1.31,0,0,0-.63-.2.71.71,0,0,0-.6.32c-.25.38-.16,1,.28,2,.75,1.66.87,3,.35,3.77a3.25,3.25,0,0,1-2.78,1.06c-1.66,0-2.28.19-3.14.95L143,137.25l.74,1.1a.93.93,0,0,0-.76-.46h-.38l-.12.09c-.58.38-.33,1.28.39,2.92a17.23,17.23,0,0,1-2.72,18.45c-1.45,1.64-1.45,1.89-1.31,2.19l.13.29.36,0c.19,0,.49,0,2.37-1.81l.39-.39-.38.45a7.73,7.73,0,0,1-2.21,1.85,2.18,2.18,0,0,0-1.45,1.93c-.36,1.52,0,10.35.49,13.78.15,1.28.31,5.75.46,10.07l0,.93c.09,4.76.33,9.76.5,11.26l.13,1.18c.2,1.74.5,4.36.7,6.57.22,1.87.51,4.62.77,7.16.14,1.3.27,2.54.38,3.58.41,3.11.66,6.62.66,7.78a159.71,159.71,0,0,0,2.16,17.27l.42,1.78-.84.7c-2.23,1.84-3.76,2.39-9.08,3.28-5.49.91-8.78,1.92-11,3.37-2.56,1.7-9.42,10.43-13.11,16.67a71.08,71.08,0,0,1-13.11,15.56c-4,3.69-6.23,6.35-6.75,8.16a10.2,10.2,0,0,1-1.6,2.09c-1.42,1.51-1.62,1.93-1.8,3.77-.06.74-.11,1.4-.14,1.74C85,302,68.26,310.67,58,315.7c-3.61,1.8-7.1,3.59-10.12,5.18A192.83,192.83,0,0,1,5,237.75C-19.17,133.87,46.38,29.51,151.13,5.12A196.85,196.85,0,0,1,195.72,0c2.47,0,5,.05,7.43.14l.4,0A193.56,193.56,0,0,1,319.69,44.3a190.81,190.81,0,0,1,65.29,105,193.29,193.29,0,0,1-59.16,187.16l-1.44-1.21a211.64,211.64,0,0,0-16.8-13,83.58,83.58,0,0,0-9-4.66A86.7,86.7,0,0,1,282.91,309l-.41-.29c-5.53-3.83-5.86-4.06-6.93-6.28-1.35-2.79-3.12-4.38-8.61-7.72a41,41,0,0,0-8.92-4.42c-1.85-.64-5.24-2.82-8.85-5.69l-1.84-1.51,3.25-4.23a79.32,79.32,0,0,0,11.79-22.6A163.17,163.17,0,0,0,267,238.16c.32-2.28.39-2.62,2.37-11.4l.27-1.19c3.15-13.92,3.31-15,3.47-23l.25-7.27,2-6.12c2.55-8.08,2.91-9.79,3.16-15.31.17-4.18.19-4.82-.56-5.58a2.37,2.37,0,0,0-1.72-.81,3.19,3.19,0,0,0-2.42,1.44c-.8,1-1,1.78-1.16,3.78,0-2.54.1-2.65.69-3.3.89-.89,7.23-8.52,7.23-9.33s-1.5-1.49-2.89-1.49a3,3,0,0,1-1.21-.25.19.19,0,0,1-.11-.19c-.06-.85,1.21-2.83,2.93-4.11.65-.45,1-.71,1.22-.71a3,3,0,0,1,.92.35,3.64,3.64,0,0,0,1.66.41c3.07,0,5.62-4.17,6.06-9.9.17-2.56.25-2.72.93-3.4,1.52-1.43,2.69-4.26,3.11-7.55.32-2.64.45-2.87,1.36-3.85,2.16-2.16,2.63-4.31,1.86-8.52a9.67,9.67,0,0,1,.16-4.52c.85-4.08.58-5-2.24-7.25-3.51-2.93-4-3.58-4.7-6.25a26.28,26.28,0,0,0-3.71-8.5c-.87-1.38-.87-1.67,0-3.08A10,10,0,0,0,284,78.45a24.21,24.21,0,0,0-7.41-3.83,5.07,5.07,0,0,1-1.32-.85,2.87,2.87,0,0,0-1.33-1,42.46,42.46,0,0,1-6.21-5.9,5.3,5.3,0,0,1-1-2.08,11.38,11.38,0,0,0-.87-2.62c-.7-1.34-.79-2.49-.24-3.1.71-.83.56-1.39-.07-3.22a71.93,71.93,0,0,0-5.4-11.38c-3.87-7.06-7.66-10.3-12.68-10.82-.63,0-1.1-.07-1.48-.07a2.9,2.9,0,0,0-2.1.67c-.43.32-.59.42-.78.42a5.38,5.38,0,0,1-1.23-.33,12.73,12.73,0,0,0-3.9-.52,9.71,9.71,0,0,0-3.64.54A3.08,3.08,0,0,0,232.65,36c-.18.34-.32.49-1.81.65a13.65,13.65,0,0,1-1.91.15c-1.88,0-3.63-.48-6.66-1.84-2.09-1-5.07-2.1-6.73-2.65l-2.59-.8.12-1.07c.18-1.54.05-1.87-1.15-3s-2.67-1.54-5.29-1.54h-.8c-.7,0-1.49,0-2.45.08a23.29,23.29,0,0,0-6.57,1.1c-4.06,1.24-11,4.31-13.08,5.76l-1.42,1-.7-.88a8.55,8.55,0,0,0-1.9-1.62,6.76,6.76,0,0,0-3-.63c-3.39,0-7.78,1.74-11.76,4.64-3.09,2.4-7.24,7-8.4,9.34l-.65,1.3-.92-1.07c-1-1.19-1.76-1.83-2.69-1.83-1.53,0-1.9.74-2.93,3.28-.77,1.92-.77,1.92-2.27,2.44a8.12,8.12,0,0,1-2.29.33l-.54,0a7.19,7.19,0,0,0-.94-.06c-3.55,0-8.19,2.15-11.27,5.23-2.36,2.29-4.5,6.11-4.84,8.71a4.45,4.45,0,0,1-1.12,2.29c-1,1-1.48,1.41-1.83,1.41a1,1,0,0,1-.55-.25,2,2,0,0,0-1.16-.42,1.89,1.89,0,0,0-.85.22c-1.89,1-3.9,7.12-3.9,10.68,0,1.62,0,1.62-1.09,2.3-3.81,2.6-6.26,8.94-6.26,16.18,0,3.82.8,6.86,2.2,8.35l.08.09a5.82,5.82,0,0,0-1.39,1,5.76,5.76,0,0,0-2.18,4.84c.15,2.44,1.79,4.84,4.49,6.58a4.39,4.39,0,0,1,.79.57,1.32,1.32,0,0,0-.3.76,3.87,3.87,0,0,0,1.35,2.75c-1.7-.65-4.53-1.8-5.39-2.23a1.14,1.14,0,0,0-.41-.08,1.59,1.59,0,0,0-1.23.72,1.93,1.93,0,0,0-.38,1.69,1.16,1.16,0,0,1,0,.47c-1,.77-1.82,3.34-1.82,5.16,0,3.74,1.87,7.59,4,8.23l.14,0c-.34.44-1.1,1.31-2.27,2.62-2.74,2.89-5.82,7-5.82,8.25,0,2.22,3.39,5,5.41,6.43a6.56,6.56,0,0,0,3.85,1.62,4,4,0,0,0,1.13-.17c-.56,1.51.19,2.68,2.37,5a63.94,63.94,0,0,0,4.66,4.66l2.52,2.33,1.57-1.16,1-.75,1.49.42a6.58,6.58,0,0,1,1.92,1,8.45,8.45,0,0,1,.61,2.51,10.4,10.4,0,0,0,1.22,3.74,5.68,5.68,0,0,1,1,2.75c.09,1.07.25,2.2,1,2.2.52,0,.86-.56,1.13-1.1l.12-.19.7.86a13.18,13.18,0,0,1,1.91,3c.67,1.49,1.06,2,1.55,2a.64.64,0,0,0,.48-.21c.22-.24.43-.68.25-3.16a124.85,124.85,0,0,1-.68-13,.64.64,0,0,0,0-.64,1,1,0,0,0-.87-.36l-.54,0a22.91,22.91,0,0,1-3.6.38,10.47,10.47,0,0,1-2.43-.29,9.06,9.06,0,0,1-2-.58l0,0a4.26,4.26,0,0,0-1.81-.8,8.76,8.76,0,0,1-3.29-2,15.85,15.85,0,0,0,8.79,2.63c6.08-.09,10.52-3.84,11.88-10.05a27.84,27.84,0,0,0,.09-7.94c-.09-.35-.21-.83-.66-.83-.63,0-.66.29-.75,4-.16,3.92-.32,4.59-1.12,6.59-1.67,4-4.8,6.14-9.3,6.38l-.87,0c-6.62,0-11.8-4.25-11.8-9.68a6.71,6.71,0,0,1,1.42-4,1.27,1.27,0,0,0,.56-1,.61.61,0,0,0-.6-.66c-.87,0-2,2.23-2,2.25a8.34,8.34,0,0,0-.53,6.54,13.47,13.47,0,0,0,4.19,7.17c.44.4.77.71,1,.93-1.25-.31-3.79-2.43-6.11-5.48l-1.4-1.84.65-1.72c.79-2,.8-3.28,0-4.35a.76.76,0,0,0-.66-.32,5.43,5.43,0,0,0-1.76.57,5.64,5.64,0,0,1-2.19.78c-1,0-3.58-1.3-5.26-3l-1.14-1.21,1.21-2.07a37.85,37.85,0,0,1,5-5.84c3.7-3.69,3.7-4,3.7-4.15,0-.68-.42-1.55-2.42-1.81a3,3,0,0,1-2.76-1.89c0-.11-.11-.21-.16-.31.34,0,.77,0,1.25.06h.57a22,22,0,0,0,4.61-.6,22.48,22.48,0,0,1,4.86-.65,7.18,7.18,0,0,1,1.6.15c.31.12.36.14.36,2,0,4.55.95,7.4,3.49,10.55,1.41,1.84,2.94,2.82,4.43,2.82h.23a14.19,14.19,0,0,1-1.44,3.06c-1.53,2.07-.47,3.78,1.86,6,1.58,1.47,2.06,1.91,2.68,1.9a2,2,0,0,0,1-.33c3.39-1.74,6.5-9.45,5.44-13.52-.18-.58-.39-1.12-.87-1.12h-.22l-.2.19c-.12.13-.34.37-.19,2.09a16.69,16.69,0,0,1-1.77,7.42c-1.06,2.32-1.93,3.4-2.75,3.4a1.65,1.65,0,0,1-.3,0,5.9,5.9,0,0,1-3.11-3.44c-.35-1-.35-1,.34-2a12.31,12.31,0,0,0,2.24-7.11c.24-3.46-.3-5.77-2.44-10.31a37.2,37.2,0,0,0-6.18-9.85l-1.8-2,1.07-.54c1.23-.51,1.65-.87,1.55-1.36,0-.23-.23-.51-.86-.51a8.2,8.2,0,0,0-1.78.28,14.37,14.37,0,0,1-2.9.31,5.65,5.65,0,0,1-1.58-.17v-.13c0-.29-.22-.6-1.94-1.46-2.77-1.24-4.54-2.83-5-4.49a3.42,3.42,0,0,1,.58-3,2.37,2.37,0,0,1,2.11-1.23,6.89,6.89,0,0,1,2,.36,6.45,6.45,0,0,0,1.78.4,1,1,0,0,0,1-.57,1.12,1.12,0,0,0,0-1.12,1.65,1.65,0,0,0-1.43-.85c-.33,0-1.55-1.05-3-4.16-3.52-7.29-1-16.54,5.39-19.81.79-.39.85-1.17.93-3.57a20.46,20.46,0,0,1,.63-4.38c.42-1.4.42-1.4,1.18-1.4a4.94,4.94,0,0,0,2.86-1.26l.83-.65.28,1.65c.27,1.92.55,2.9,1.31,2.9h.12a.8.8,0,0,0,.61-.22c.35-.35.34-.79.27-4.19a32.45,32.45,0,0,1,.32-4.74,16.77,16.77,0,0,1,8.47-10.13c1.87-.86,2.37-.94,5.9-1,4.48-.17,5.47-.4,7.86-2.88l1.07-1.13.54.49a3.16,3.16,0,0,0,2.08,1.12c1.17,0,2.25-1.12,3.61-2.92a36.13,36.13,0,0,1,11.3-9.18,30.2,30.2,0,0,1,8-2.75c.39,0,.71-.07,1-.07a1.86,1.86,0,0,1,1.44.62,16.44,16.44,0,0,0,4.18,2.44c-.17.13-.39.28-.67.47-2.36,1.57-3.61,3.29-3.61,4.95,0,.93.16,1.63.94,2a2.29,2.29,0,0,0,1,.27,2.62,2.62,0,0,0,2.1-1.63c1.56-3,9.06-5.77,15.75-5.93l3.53-.08,4.28,1.69c1.51.65,5.22,2.26,6.78,3.19,2.34,1.31,2.62,1.31,2.72,1.31h.5v-.51c0-1.19-6.48-5-8.44-6s-4.62-2.48-5.55-2.9A13.57,13.57,0,0,1,202,34.08l-1-1-4.14,1c-1.36.32-2.48.55-3.15.66a14.39,14.39,0,0,1,3.73-2.54,12.34,12.34,0,0,1,4.62-1.6c1.69-.13,2.15-.17,2.19-.71s-.47-.63-1.06-.77a4.36,4.36,0,0,0-.85-.07h-.41c.86-.08,1.73-.11,2.66-.11h.87c2.53.15,3,.24,3.21.57l0,.06c-.37.14-1.08.32-1.55.44a16.89,16.89,0,0,0-3.27,1.13,2.33,2.33,0,0,0-1,1.85,1.61,1.61,0,0,0,.61,1.37c.75.54,3.4,1.11,5.44,1.34A49.61,49.61,0,0,1,221.3,39l-.08.23c-.1.44.29.65.95,1l.39.22a3,3,0,0,0-1-.26.59.59,0,0,0-.59.4.57.57,0,0,0,.14.59l-.19-.1a12.63,12.63,0,0,0-2.61-1.23h-.5l0,.51c0,.23,0,.46,2.37,2,2.53,1.6,6.84,6.09,7.05,7.1v0a1.23,1.23,0,0,0-.5-.12,11.77,11.77,0,0,1-2-1.52c-.58-.53-2-1.78-2.48-1.78h-.29l-.17.27c-.09.15-.3.52.85,2.54a20.39,20.39,0,0,1,2.19,7.26,17.46,17.46,0,0,0-4-5.81,22.77,22.77,0,0,0-7.7-4.24,24.17,24.17,0,0,0-6.34-.79,18.88,18.88,0,0,0-7.29,1.23c-.75.31-2,.95-1.84,1.67a.65.65,0,0,0,.73.51,2.57,2.57,0,0,0,.61-.09c4.22-1,5.65-1.22,7.63-1.22a15.8,15.8,0,0,1,8,1.93c4.2,1.9,5.78,4,7.07,9.4.39,2,.56,4.1.56,11,0,3.93.07,8.69.4,9a.69.69,0,0,0,.49.17,20.05,20.05,0,0,0,5.64-2c.58-.36,1.49-1,2.17-1.47a29.35,29.35,0,0,1-2.54,3.34,17.88,17.88,0,0,1-7.44,4.07c-1.44.45-1.84.7-1.87,1.14a.6.6,0,0,0,.38.61,2.29,2.29,0,0,0,1.3.31c2.8,0,8.23-2.82,11.4-5.92,1.07-1.16,3.69-4.39,5.74-7.07,3.84-5.24,6.27-7.78,8.4-8.76a10,10,0,0,1,3.93-.63,15.11,15.11,0,0,1,4,.49l1.15.28a6,6,0,0,0,1.13.23h.3l.15-.27A.48.48,0,0,0,257,63a4,4,0,0,1,.25,2.61,3.23,3.23,0,0,1-1.94,2.23,3.19,3.19,0,0,0,.8-.68,2.47,2.47,0,0,0,.88-2c-.16-.7-.91-1.14-2-1.59a11.82,11.82,0,0,0-4.61-.85,9.7,9.7,0,0,0-4.14.78c-1.8.94-4.58,3.87-7.45,7.83-3.37,4.66-6.95,9.09-8,9.89-.65.47-1.28,1-1.1,1.62s1.1.81,2.94.92c4.36.32,8.25,2.32,12.22,6.29,2.36,2.29,3.57,4.42,3.82,6.71.15,1.32.08,1.47-.52,2.07-.41.34-.9.88-.74,1.32l.12.33.39,0c1.33,0,2.16-1.76,2.16-3.39,0-3.72-2.11-7.12-6.63-10.7-2.3-1.85-6.23-4.07-7.65-4.07a1.61,1.61,0,0,1-.35,0c.17-.57,1.15-2.49,5.3-8.67s5.11-7.3,8-8.57L249,65c-1.52.65-2.89,1.48-3.11,2.21-.11.27.06.58.25.87.45.65,2.76,3.26,3.63,3.26H250a14.59,14.59,0,0,1,1.27.8c2,1.28,6.78,3.52,14,6.49,8.46,3.48,11.86,5.32,14,7.56.82.77,1.07,1.54.95,1.94,0,.12-.12.29-.44.36l-.46.09-1.17.23a1.55,1.55,0,0,1-.31,0,2.88,2.88,0,0,1-1-.17,5.08,5.08,0,0,0-1-.13,1.75,1.75,0,0,0-.78.15c-.09,0-.58.16-.62.61s.5.79,1.38,1.2c1.89,1,3.55,3.55,4.19,6.58a8.67,8.67,0,0,1-.59,6.15v-1a21.22,21.22,0,0,0-3.46-10.16c-1.72-2.9-5.25-7-6.92-7.71a3.76,3.76,0,0,0-1.3-.34.65.65,0,0,0-.7.46.69.69,0,0,0,.13.6.74.74,0,0,0-.32-.07h-.34l-.2.37a.53.53,0,0,0,0,.29,4.27,4.27,0,0,0-1.64-.85c-.71-.16-2.58-.76-3.47-1a1.37,1.37,0,0,0-.51-.13.59.59,0,0,0-.58.42c-.1.32.16.72.53,1.09a53.68,53.68,0,0,1-6.23-4C249.2,77.4,246.56,74,246,70.58c-.14-.7-.4-1.61-1.08-1.61s-1,1-1.14,1.76c-.39,1.9-3.29,7.58-4.69,9.44l-1.79,2.21,2.3,1.1c6.16,2.88,10.24,7.24,11.2,12,.21,1,.49,2,1.31,2h.06a4.25,4.25,0,0,1,1,1.24c.74,1.24,1.46,1.85,2.2,1.85,1,0,1.69-1,2.18-3.07l.2-.83.68.73c.53.53,1.5,1.41,2.12,1.41h.08l.14,0,.06,0,.06,0c1.26-.83-.76-4.81-1-5.26-.35-.65-.67-1.27-.88-1.69.32-.05.79-.1,1.38-.14l3.26-.13c-.54,1.73-.28,4.93.83,11,.61,3.41,1.31,7.24,1.49,7.95.07.28.14.61.21.93l.12.54-.25-.23a53.68,53.68,0,0,0-9.25-6.25c-2.34-1.27-3.1-1.52-3.56-1.52a.76.76,0,0,0-.81.8.67.67,0,0,0,.19.49.66.66,0,0,0,.47.21h.21l0,0a45.71,45.71,0,0,1,7.16,4.19,29.47,29.47,0,0,1,6.79,6.54c.75,1.16,1.29,1.63,1.86,1.63a1,1,0,0,0,.89-.56c.29-.44-.39-5.4-.86-8.54,1.16,2.17,2.83,5.53,3.43,7.13l.61,1.47c.22.55.42,1,.56,1.35a27.89,27.89,0,0,1,1.28,11l-.62-1.3c-1.9-3.81-4.79-7.63-7-7.63a1.11,1.11,0,0,0-1.08.78,2,2,0,0,0,.68,2.09c1,.86,3.46,5,4.38,7.69a19,19,0,0,1,1.05,6.53c.15,3.24.19,4.11,1,4.11a1,1,0,0,0,.44-.12,4.34,4.34,0,0,0,1.1-1.1c-.17.29-.34.55-.5.79l-1.89,2.84-.17,6.17c0,.53-.43,13.15.64,14.26l.15.16.29,0c.12,0,.33,0,1.44-.88-.42.47-.83.95-1.19,1.37l-.79.9-.41.49-.12-4c-.17-2.95-.25-9.54-.25-14.42,0-10-.34-13.65-1.67-18-1-3-2.12-5-3.4-5.95-.59-.4-.81-.82-1-1.9a14.09,14.09,0,0,0-2.66-5.69c-.41-.54-.66-.73-.95-.73h-.28l-.19.26c-.15.25-.21.58.58,2.16a13.08,13.08,0,0,1,1.52,7.18c-.22,5.56-4.45,10.62-8.89,10.62a5.25,5.25,0,0,1-.56,0,10.14,10.14,0,0,0,3.2-2.29c3.1-3.09,3.72-6.56,2-11.25-1.05-2.78-3.08-5.71-7.77-11.21-5.45-6.36-5.4-6.49-4.61-8.58.19-.51.26-.7.09-1l-.14-.21h-.27c-.27,0-.37.12-.85.66l-.06.08c0-.1,0-.2,0-.3.17-2.39.19-2.76-.8-3.76a2.85,2.85,0,0,0-1.38-.81,1.9,1.9,0,0,1,0-.48A26.49,26.49,0,0,0,242.13,89c-1.38-2.33-5.77-4.42-10.2-4.86-.4,0-.68,0-.92,0l-.61,0a2.61,2.61,0,0,0-2.25.8c-1.24,1.24-1.05,3.77.55,7.33,1.56,3.19,2.6,6.58,2.6,8.46,0,1.13,0,1.8.65,1.8.38,0,.89,0,1-5.75a25.3,25.3,0,0,1,.29-4.45,2.1,2.1,0,0,0-.19-2.24,6.55,6.55,0,0,1-.32-.79,30,30,0,0,1,1.85,3.44l-.15,0h-.21l-.17.16c-.49.52-.38,4.23-.36,4.65,0,4.33-.44,6.07-1.69,6.62s-2.5,5-2.66,7c-.08,1,.06,1.51.45,1.76a.9.9,0,0,0,.46.12,8.24,8.24,0,0,0,3.67-1.89,17.36,17.36,0,0,0,2.68-3.69c1.08-2,1.38-2.14,1.71-2.14.91,0,1.36-.62,1.94-1.86l.1-.21A52.67,52.67,0,0,1,235,114.27c-3.19,4.66-7.74,8.44-11.88,9.88a21.17,21.17,0,0,1-2.42.76c.32-.56,1.11-1.6,1.58-2.22,3.12-4,6.85-11.47,7.52-15,1.4-6.45,1.5-7.71.82-10.37-.61-2.26-2.57-5.74-3.95-5.74a1.36,1.36,0,0,0-1.2.56,2.88,2.88,0,0,0,.07,2.59A17.24,17.24,0,0,1,226,99.7c0,5.79-2.34,13.53-6,19.72a36.13,36.13,0,0,1-4.76,5.65,36.47,36.47,0,0,0,6.08-11.26,34.53,34.53,0,0,0,2-11.3c.08-3.48-.15-4.46-1.12-6.49-.46-.87-.77-1.19-1.16-1.19h-.24l-.24.23c-.15.18-.42.53.12,3.17a27.5,27.5,0,0,1-.29,10.63h-.11c-.28,0-.69.15-1.57,1.26a73.38,73.38,0,0,1-11.06,10.48c-3.13,2.54-6.41,5.42-7.48,6.57a34.19,34.19,0,0,0-8,13.82c-.32,1.09-.87,3-1.33,4.1.11-.36.31-1.1.73-2.68a40.19,40.19,0,0,1,8-15c1.34-1.46,1.28-1.83,1.24-2l0-.24-.26-.17-.1,0h-.13c-.47,0-1.43.79-2.15,1.45-2.8,2.63-6.64,9.72-7.9,14.6-.14.6-.3,1.17-.43,1.63a35.46,35.46,0,0,1-1.89-4,.85.85,0,0,0-.83-.77h-.06a.68.68,0,0,0-.6.28c-.25.4-.14.67,1.2,3.56.61,1.36,1.06,2.26,1.4,2.85-.15-.19-.3-.39-.45-.62-1.18-1.74-1.5-1.74-1.73-1.74h-.29l-.19.28c-.11.21-.29.52.95,2.58.57.87,2.85,4,3.9,4,.75,0,1.3-1.23,1.36-1.37a22.92,22.92,0,0,0,1.13-3.18l.13-.42a30.62,30.62,0,0,1,2.54-7c.94-2.06,1.19-2.27,1.52-2.27a1.07,1.07,0,0,1,.79.55c1.07,1.59,3.19,2.43,6,2.43a18.2,18.2,0,0,0,8-2.05,49.84,49.84,0,0,0,9.61-7.26,11.26,11.26,0,0,1,4.29-3c6.94-2.5,13.08-7.14,16-12.09a30,30,0,0,0,3.13-8,3.34,3.34,0,0,0,.39,1.14,37.45,37.45,0,0,0,2.78,3.81l1,1.27c4.66,5.86,6.95,9.39,7.68,11.81,1.19,3.89.66,6.37-1.83,8.56-1.48,1.39-2.32,1.77-4,1.77-1.28,0-1.81-.35-3.11-2.79l-1.74-3.32-.19,3.2c-.18,2.54,1.06,4.38,3.91,5.76a11.07,11.07,0,0,0,4.88,1.39,8.68,8.68,0,0,0,2.41-.37c3.24-1,6.26-4.31,7.52-8.25a4.34,4.34,0,0,1,.29-.7,12,12,0,0,1,.74,1.71c.5,1.36.5,1.36-.14,2.66a15.83,15.83,0,0,1-6.12,5.62,13.39,13.39,0,0,1-5.2,1c-2.11,0-3.85-.46-4.33-1.14-.27-.41-.5-.66-.82-.66s-.58.15-.58.7c0,1.49,3.2,3.13,6.16,3.79a12.53,12.53,0,0,0,2.52.26,19,19,0,0,0,5.92-1.1c1.38-.43,2-.58,2.24-.63a10.5,10.5,0,0,1,.7,1.2,4.62,4.62,0,0,0,2,2.06l.77.35v10.79c0,3.72,0,7.3,0,9.2l-.55-.79a9.42,9.42,0,0,0-5.89-4.32A13.11,13.11,0,0,0,260,159c-2.64,0-4.78.82-5.59,2.13a1,1,0,0,1-.65.42h-.46l-.1.48a.88.88,0,0,0,0,.23c-1-.15-2-.27-2.94-.37-1.48-.15-2.52-.22-3.28-.22-1.19,0-1.81.17-2.15.57a1.14,1.14,0,0,0-.23,1c.15.85,1,1.24,2.43,1.64a12.24,12.24,0,0,1,3.39,1.33c-.18,0-.44,0-.8,0l-1.12,0-1.21,0a3.37,3.37,0,0,0-2.69.81c-.4.31-1.06.83-.83,1.51-.36,0-.86,0-1.07,0-1.42,0-1.68-.19-1.7-.21-.15-.36.31-1.15,1.72-2,.37-.24,1.47-.95,1.23-1.77-.1-.35-.47-.77-1.65-.77a10.41,10.41,0,0,0-4.18,1.08,13.93,13.93,0,0,0-5.29,4.1L231.17,171h8.88c11,0,16.84,1,23,3.83a10.19,10.19,0,0,0,3.74,1.16H267a.59.59,0,0,0,0,.32l.11.27a.53.53,0,0,0-.06.32h0a10.14,10.14,0,0,1-2.53-.89l-1.93-1-2.35.81a8,8,0,0,1-3.23.58c-.94,0-2.26-.07-4.08-.19-2.27-.11-4.39-.17-6.31-.17s-5.53.07-6.7.54c-.26.08-.84.29-1.5.53l-1.45.53a23.84,23.84,0,0,0-3.24,1.53c-1.11.85-2.33,2-2.08,2.7a.67.67,0,0,0,.69.45,1.9,1.9,0,0,0,.57-.1l.15,0a3.94,3.94,0,0,0,1.66,1,3,3,0,0,1,1.59,1.26l-1.17-.6a8.75,8.75,0,0,0-2.55-1.12h-.26l-.22.23a.56.56,0,0,0-.07.5c.42,1.13,4.88,2.91,7.18,3.62l.66.2a3.59,3.59,0,0,1-.58-.15,2.65,2.65,0,0,0-.69-.12.66.66,0,0,0-.62.31.73.73,0,0,0,0,.74c.21.64,1.89,1.09,2.22,1.17a41.6,41.6,0,0,0,6.21.37,21.77,21.77,0,0,0,4.3-.29c.49-.17.47-.52.45-.63-.08-.52-.69-.52-1.4-.52-.54,0-1.22,0-2,.09-.92,0-1.61.08-2.11.08a4.79,4.79,0,0,1-.9-.06c0-.53-.44-.93-1.56-1.44a1.05,1.05,0,0,0,.51-.29.65.65,0,0,0,.21-.74c-.18-.44-.73-.44-1.22-.44a3.75,3.75,0,0,1-2.59-5.61,3,3,0,0,1,2.37-.92,5.54,5.54,0,0,1,2.09.43,3.86,3.86,0,0,0-1.13-.17,2.87,2.87,0,0,0-3.11,2,3,3,0,0,0,.46,2.73,2.57,2.57,0,0,0,2,1.13,2,2,0,0,0,.83-.18,3.25,3.25,0,0,0,2-2.84,5.71,5.71,0,0,1,.53,1.92V185l1,.07.17-1.16a4.74,4.74,0,0,0-.12-2.07,3.22,3.22,0,0,0-.67-1.33,2,2,0,0,0,1.18.56c.67,0,1-.6,1-1.77a.5.5,0,0,1,0-.24,1.24,1.24,0,0,1,.34.4c.24.47.28,1.21-.22,3.53a1.74,1.74,0,0,0,.14,1.43.67.67,0,0,0,.52.25c.4,0,.76-.33,1.1-1,.13-.22.16-.27.52-.27a8.67,8.67,0,0,1,1.19.13c.44,0,.88.08,1.3.12.73.07,1.36.13,1.75.13l.19,0c-.36.54-.89.77-3.35,1.29-2.91.65-3.19,1.07-3.28,1.2a.53.53,0,0,0-.11.61c.16.38.61.38.79.38a36.15,36.15,0,0,0,5.45-1,23,23,0,0,1,4.24-.58H260c1,0,1.23,0,1.37-.37l.13-.3-.24-.26c-.75-.67-8.39-5.51-10.75-6.9a17.74,17.74,0,0,1,6.55,1.59,9.41,9.41,0,0,1,2.68,2.3.84.84,0,0,0-.39.63c-.06.56.41,1.12,1.39,1.68,1.91,1,3.54,2.89,3.54,3.44a8.15,8.15,0,0,1-.93,2.16c-1.53,2.33-1.29,3.57,1.12,11.11,2.89,8.84,3.19,10.69,2.95,18l0,.28c-.23,5.56-.26,5.76-1.07,7.07a28,28,0,0,0-1.69,3.46l-.61,1.56-2.91-.18.11,2.7.05.69-.8-1-.34-.44c-.36-.44-.53-.66-.84-.66h-.26l-.17.22c-.22.29-.21.43.73,3.46a16.75,16.75,0,0,1,.33,2.11l-.38-.43c-.49-.67-.91-1.11-1.43-1.11a.91.91,0,0,0-.57.21l-.06,0,0,.06c-.45.59-.22,1.42.43,3a19.35,19.35,0,0,1,.78,2.46,5.6,5.6,0,0,1-1-1.26c-.45-.71-1.29-1.89-1.83-1.89a.6.6,0,0,0-.55.33c-.06.12-.26.51.47,1.54a3.14,3.14,0,0,1,.55,1.4,2.57,2.57,0,0,1-.54-.41,1.57,1.57,0,0,0-1-.51.67.67,0,0,0-.57.3c-.19.3-.17.74.09,1.39a1.24,1.24,0,0,0-.78-.4h-.5v.5a1.3,1.3,0,0,0,0,.36.4.4,0,0,0-.36-.13h-.31l-.08.15a.58.58,0,0,0-.17.52c-.15-.45-.28-.83-.39-1.09-.59-1.26-5.2-6.92-6.4-6.92h-.33l-.18.32c-.09.21-.12.39.3,1a3.76,3.76,0,0,0-1.42-.79h-.2l-.17.15c-.29.29-.52.52,1.88,3.09l.66.68a.89.89,0,0,0-.47-.15h-.3l-.19.29c-.1.18-.13.36.09.8-.37-.4-.52-.4-.64-.4h-.29l-.16.26a.3.3,0,0,0,0,.08l0-.05c-.6-.79-1.12-1.5-1.48-2a8,8,0,0,0-.55-.72l-.14-.14h-.21a2.55,2.55,0,0,0-.93.2c-.34.08-.66.16-.79.5s.05.63.39,1.15a2.74,2.74,0,0,1,.25,1.73,1.71,1.71,0,0,0,.07,1.28l.15.19.29,0a.62.62,0,0,0,.43-.19,2.31,2.31,0,0,0,.42-.89l0,0,.17.23c.23.31.41.56.57.74l-.17.09-.16.1-.07.21a1.28,1.28,0,0,0,.09.65c-.1-.12-.19-.21-.25-.27-.37-.37-.59-.56-.88-.56s-.56.13-.6.71c-.11-.1-.27-.24-.47-.45-.37-.42-.4-.57-.4-.59a3.05,3.05,0,0,0,.54-1.94c0-1.68-3.74-8.2-5.13-8.94a1.64,1.64,0,0,0-.86-.31A2,2,0,0,0,233,233c-.94.93-.93,1.25-.47,2.45.34.68.3.87.3.88-.6.36-.18,1.33.38,2.46.07.16.22.47.33.75-.41-.59-1.29-1.59-1.41-1.72a10.06,10.06,0,0,1-1.39-1.91c0-.2-.2-1-.84-1-.4,0-.87.31-.87,1.81,0,.19,0,.35,0,.48l-1-.93c-.46-.46-1.14-1-1.65-1a.6.6,0,0,0-.57.37.73.73,0,0,0,0,.61h-.07c-.1,0-.64,0-.64.84,0,.26.17.6,1.22,2.4a7,7,0,0,1,.95,1.71l0,0a4.15,4.15,0,0,1-1.12-1.49c-1.84-3.18-2.29-3.18-2.53-3.18h-.29l-.18.27c-.14.22-.29.48.88,2.72.3.57.52,1,.67,1.36a5.83,5.83,0,0,1-1-1.34c-.61-1.13-.92-1.35-1.25-1.35a.61.61,0,0,0-.59.69,2.07,2.07,0,0,0,.41,1.26c.16.34.83,1.86,1.44,3.45,1.42,3.55,1.85,3.56,2.16,3.56H226l.2-.21c.19-.22.24-.55,0-1.65a8.9,8.9,0,0,1-.25-1.84,3.61,3.61,0,0,1,.36.85l.12.43c.83,2.87.85,2.92,1.28,2.92h.24l.16-.16c.21-.22.2-.36.09-2.08-.05-.54-.06-1-.07-1.26.08.18.16.4.25.66.89,2.32,1.33,2.32,1.54,2.32H230a.29.29,0,0,1-.26.09h-.24a2.06,2.06,0,0,0-.34,0c-1,0-1.19.73-1.42,1.43-.07.21-.13.35-.17.45a1.79,1.79,0,0,1-.18-.54c0-.88-.49-1.07-.9-1.07a2.88,2.88,0,0,0-.61.09,3.35,3.35,0,0,1-.47.06c-.12,0-.16,0-.28-.33-.27-.59-.58-1.11-1.11-1.11a.89.89,0,0,0-.72.43,2.15,2.15,0,0,0-.44-1.85H223l.18-.16c.36-.36.06-1.07-.25-1.59a14,14,0,0,1-.87-1.9c-.43-1.27-.66-1.38-.8-1.44l-.1-.05h-.34l-.16.15a2.23,2.23,0,0,0,0,1.49c-.37-1-.85-1.33-1.22-1.38h0l-.17,0c-.27,0-.92.18-.92,1.51,0,0,.17,3.12.17,3.19a.89.89,0,0,0-.59-.24c-.14,0-.82.05-.82,1.17a4.2,4.2,0,0,0,.2,1.34c.24.69.61.83.87.83h.12l.08,0a1,1,0,0,0,.77.53c.75,0,.91-1,.94-2.08.59,1,1.28,1.54,1.92,1.54a1.07,1.07,0,0,0,.71-.26,2.56,2.56,0,0,0,.28-.3c-.06.13-.11.26-.16.39-.16.41-.43.67-.7.67a.73.73,0,0,1-.51-.3,1.56,1.56,0,0,0-1.09-.68c-.13,0-.79,0-.79,1.07v0l-.27,0a1.45,1.45,0,0,0-.3,0,1,1,0,0,0-1,.65,1.39,1.39,0,0,0,.64,1.5c.26.24.27.35.27.35s-.1.25-1.22.7a6.09,6.09,0,0,1-2.18.46,10.24,10.24,0,0,1-4.19-1.28,9.08,9.08,0,0,0-3.93-1.19,26,26,0,0,0-5.13.91c-1.85.4-4.71.89-6.25,1.15-3.45.52-3.42,1-3.39,1.36.05.62.87.62,1.41.62.07,0,6.34-.23,7.56-1.22h.06a11.13,11.13,0,0,0,2.61-.62,11.73,11.73,0,0,1,3-.8,23.15,23.15,0,0,1,3.92,1.45c2.52,1.19,3.23,1.5,4.58,1.5.36,0,.76,0,1.27-.06a19.7,19.7,0,0,0,5.25-1.35,8.67,8.67,0,0,1,2.77-.94,5.73,5.73,0,0,1,1.38.29,41.62,41.62,0,0,1,7,2.68,17.87,17.87,0,0,0,2.83,1,5.82,5.82,0,0,0,1.42.25,2.33,2.33,0,0,0,1-.21c-.34.29-1,.34-5.72.61l-.43,0c-2.93.17-6.23.5-7.39.66a39.74,39.74,0,0,1-4.25.14c-1.38,0-2.93,0-4.41-.06A64.77,64.77,0,0,1,202,255.17c-.55-.08-2.7-.33-4.84-.5-7.74-.74-8.76-1.21-8.88-1.29a1,1,0,0,0-.73-.28,1,1,0,0,0-.54.17l-.17.09-.05,0a.89.89,0,0,0-.32.76.87.87,0,0,0,.53.62,47.88,47.88,0,0,0,8.42,1.37c2.92.26,7,.85,9,1.23,1.61.37,3.68.75,5.2,1l1.23.22c3.35.58,3.52.95,3.64,2.28l.17,1.41.74,0a5,5,0,0,0,.44,2.58l.15.15h.24c.59,0,.7-.64.75-2.16l.06-1.66,1.28-.54a8.58,8.58,0,0,1,3-.8c1,0,1.53.45,1.92,1.58.25,1,.34,1.3.78,1.3h.24l.15-.18c.17-.2.16-.41,0-1.12-.06-.38-.15-.92-.23-1.39l-.1-.59a2.28,2.28,0,0,1-.09-.48,12,12,0,0,1,1.65-.49l.13,0a69.07,69.07,0,0,1,7.42-.81c6.19-.48,7.91-.82,8.34-1.68a.83.83,0,0,0-.09-1.1,1.51,1.51,0,0,1,.57.79c.16.42.21.56-.49,1.42a5.18,5.18,0,0,1-.54.54,1.14,1.14,0,0,0-.73-.31c-.38,0-.65.32-1,1.28a2.44,2.44,0,0,0-.1.24l0-.07-.14-.28h-.37c-.61,0-2.51,1.58-3.6,2.52-3.49,2.88-5.65,4.26-7.93,5.11s-2.37,1.17-2.3,1.57c0,.18.18.49.75.49a5.72,5.72,0,0,0,.91-.11l.17,0-.62.43.82,1.57a4.37,4.37,0,0,1,.31,4.2,1,1,0,0,0,0,1,.57.57,0,0,0-.37.24c-.16.23-.16.41,0,1-.33-.68-.29-.87-.25-.92a5.16,5.16,0,0,0,.35-2.58c-.07-1-.16-1.76-.68-2.11a.6.6,0,0,0,.54-.32c.19-.36,0-.65-.44-1.27s-.74-.79-1.08-.79h-.21l-.1.08h-.06l-.14.14a1.19,1.19,0,0,0-.36.71l-.06-.13a1.35,1.35,0,0,0-.36-.65l-.15-.15h-.21c-.21,0-.58.15-.58.74a5,5,0,0,0,.13.87l-1.13-2.27-4.92-.17c-6.66-.33-9-1-14.11-4.14-3.09-1.88-6.86-3.78-8.11-3.78-.51,0-.68.24-.73.45-.13.52.22.8,2.89,2.22,1.74.87,4.54,2.42,6.24,3.53a20,20,0,0,0,9.79,3.49c-3.56.55-4.43,1.22-4.16,4.06l.08,1.14,1,.12.49-1.48a3.35,3.35,0,0,1,.6-1c0,.16.06.69.33,2.42l.16,1.95,1,0,.33-2a10.89,10.89,0,0,1,.24-1.34l.16,1,.1.69.25,2,1,0,.08-2s.1-1.29.13-1.63l.75,1.35c.9,1.52,1.58,2.19,2.23,2.19,1.06,0,1.25-1.51,1.27-2.92v0c.11.69.25,1.37.34,1.78a3,3,0,0,1,.06.31v.24l.19.1a.86.86,0,0,0,.54.18c.7,0,1.48-.82,1.82-1.91l0-.06a.48.48,0,0,0,.33.09h.12a2.18,2.18,0,0,0-.29.83,2.07,2.07,0,0,1-.52.81,1,1,0,0,0-.54.53.81.81,0,0,0-.2-.14l-.11,0h-.34l-.17.14a.44.44,0,0,0-.18.32,1.47,1.47,0,0,0-1-.45h-.48l-.14.27A1,1,0,0,0,219,278a2.09,2.09,0,0,0,1,.38.65.65,0,0,0,.39-.12l.13.46c.33,1.46.74,1.46.94,1.46h.3l.18-.31a1.14,1.14,0,0,0,.07-.33c.31.6.53.66.75.66h.36l.17-.4,0-.11a.54.54,0,0,0,.22,0h.26a2.93,2.93,0,0,0,.18-.26.83.83,0,0,0,.51.21h.28l.09-.14c.46.87.92,1.51,1.26,1.51h.23l.17-.19a.45.45,0,0,0,.12-.26,18.44,18.44,0,0,1,.71,4.24,13.67,13.67,0,0,1-2,6.09l-.15.24v-2.29c0-3.18,0-4.37-1-4.37-.43,0-.85.24-1.64,3.26l-.15.47a26.7,26.7,0,0,1-1.29,3.62,6.57,6.57,0,0,1-.5.88l-.13-.08c-.51-.25-.51-.25.15-2.57.24-1,.58-2.72.06-3.38a.71.71,0,0,0-.58-.29,1,1,0,0,0-.48.14,1,1,0,0,0-.31.36,3.8,3.8,0,0,0,.09-.59c0-.69-.43-.75-.56-.75a.53.53,0,0,0-.25,0c.16-.86.09-1.13-.08-1.35A.65.65,0,0,0,218,284c-.54,0-.91.51-.91,1.24a8.24,8.24,0,0,1-.28,1.58c.27-1.35.36-2.65,0-3.12a.64.64,0,0,0-.52-.29h-.11l-.15.05c-.13.05-.63.22-1.6,3.46a17.88,17.88,0,0,1-1,3,.79.79,0,0,0-.17-.4l-.15-.18-.31,0c-.18,0-.39.19-.6.49.29-.78.23-1,.1-1.11l-.09-.17-.31-.06h0c-.32,0-.6.2-1.15,1.3a7.56,7.56,0,0,1-.43,1,3.41,3.41,0,0,0,.13-1.35.88.88,0,0,0-.22-.75l-.14-.15h-.21c-.45,0-.65.34-1.33,1.48-1,1.72-1,2-.85,2.31l.14.24H208c-.37.78-.23,1-.16,1.14l.14.25.34,0a.53.53,0,0,0,.32-.09c-.16.45-.07.61,0,.71l.14.26.34,0h.08l.12,0c.13,0,.51-.17,1.62-2.17a9.43,9.43,0,0,0-.38,1.28,1.08,1.08,0,0,0,.15.62.77.77,0,0,0,.39.32,13.68,13.68,0,0,1-2.68,2.34c-.78.42-1.73.51-5.62.51l-2.35,0c-1.81,0-2.29.06-2.45.54s.25.73.46.88c1,.77,6,1.75,8.3,1.75a8.4,8.4,0,0,0,2.67-.56l.24.64,1.16-.25a6.3,6.3,0,0,0,1.32-.41.4.4,0,0,0,0,.15c.13.43.62.43.86.43a5.07,5.07,0,0,0,1.87-.54,1.36,1.36,0,0,1,.86-.33,8.12,8.12,0,0,1,1.61.28,6.91,6.91,0,0,0,1.71.36,1.82,1.82,0,0,0,1.23-.52h0c.14.42.61.42.89.42a30.23,30.23,0,0,0,7.85-2.1c.67-.3,1.17-.51,1.52-.65-.39,1.24-1.07,3.48-1.69,5.66a139.41,139.41,0,0,1-8.63,22.93c-.83,1.63-1.67,3.33-2.34,4.69-.59,1.2-1.05,2.14-1.28,2.56l-.76,1.68.83.54,1.16-1.32c2.73-3,5.46-8.69,8.84-18.49l.34-1c.34-1,.65-1.89.89-2.5.11.79.21,2,.34,3.48l.1,1.2a58.2,58.2,0,0,0,1.58,9.41c.4,1.51-.39,5.85-3,12.14a45.21,45.21,0,0,1-3.93,7.31,11.73,11.73,0,0,0-1.89,1c-.78.58-1.13.78-1.36.78a1.29,1.29,0,0,1-.49-.15c-.74-.44-1.05-1.05-1.69-4.5-.55-2.92-1.23-4.17-2.27-4.17-.89,0-1.75,1-2.88,3.3-1.68,3.25-3.72,5.28-5.3,5.28a1.68,1.68,0,0,1-1.17-.48c-.81-.81-1.82-3.7-1.82-5.9a18.22,18.22,0,0,1,2.89-8.15c.73-1.05,3.35-4,5.56-6.37,4.53-4.61,4.91-5.14,6.77-9.38,1.15-2.58,1-2.72.9-3l-.15-.23h-.29c-.32,0-.55,0-2.27,3.52-1.56,3.2-2,3.73-4.76,6.38-4,3.73-6.7,6.91-8.1,9.44a49.67,49.67,0,0,0-2.52,6.44c-1,2.93-1.77,5-2,5.65-1.21,2.35-5,4.86-8.74,5.83A10.13,10.13,0,0,1,188.9,351.73Zm9.06-48V304c0,.94,4.82,3.74,5.32,4a4.34,4.34,0,0,0,1.37.5h.29l.19-.27a.74.74,0,0,0-.13-.78,7.54,7.54,0,0,0-2.26-1.5,20.1,20.1,0,0,1-2.88-1.84,3.2,3.2,0,0,0-1.08-.58l0,0-.26,0h-.2Zm4.18.79c.34.68,4.22,2.84,4.87,2.84h.15l.21-.12,0,0a.72.72,0,0,0,.16-.76l-.1-.24c.93.38,1.64.64,1.66.64h0a.61.61,0,0,0,.61-.3.8.8,0,0,0-.14-.8l-.11-.09a.63.63,0,0,0,.1-.2c.08-.27,0-.64-1-1.26a11.39,11.39,0,0,1-1.58-1l-.12-.09a1.32,1.32,0,0,0-.46-.3h0l-.2-.06h-.11a.6.6,0,0,0-.59.62,1,1,0,0,0,.28.61,10.32,10.32,0,0,0-2.18-.7h-.46l-.06.47c0,.11.07.23.2.37a2.82,2.82,0,0,0-.75-.26h-.81ZM215,302.12a14.72,14.72,0,0,1-2.79.33c-4,.18-4,.18-4,.91,0,.41.26,1.1,2.05,1.1a12.94,12.94,0,0,0,3.37-.54c2.33-.62,2.51-.92,2.51-1.3v-.08l0-.2L216,302l-.43-.05A.8.8,0,0,0,215,302.12Zm-13.66-20.05v2.39c-.07,1.65.17,3.73.74,4.32a.68.68,0,0,0,.5.23.6.6,0,0,0,.52-.29,1,1,0,0,0-.05-1c-.09-.4-.32-1.75-.47-3.1l-.25-2.64Zm12.42,2.13c-.75,0-1.07,1.25-1.19,2a2.22,2.22,0,0,0,.25,1.6.7.7,0,0,0,.53.25c.38,0,.68-.28.91-.84a7.25,7.25,0,0,0,.21-1.76c0-.29,0-1.14-.56-1.23h-.15Zm-11.18-2.09.16,2.06c.15,3.16.82,3.16,1.07,3.16h.26l.15-.17a.27.27,0,0,0,.07-.08c.14-.16.27-.32-.23-2.8l-.5-2.32Zm-4.45,3.33a1.71,1.71,0,0,0,.27,1.25.73.73,0,0,0,.56.26c.37,0,.76-.24,1.33-.81a2.48,2.48,0,0,0,.64-1.43,2.37,2.37,0,0,0-1.11-1.76c0-.06,0-.14,0-.22.08-.44.16-.9-.24-1.12l-.11-.05h-.28l-.18.08-.23.12a.63.63,0,0,0-.17-.45l-.22-.21-.29.09,0,0,.19-1.23-2.23,2.24a4.31,4.31,0,0,1-1.09.92h-.12c-.55,0-1,.64-1.1.84a1.16,1.16,0,0,0-.17,1.09.67.67,0,0,0,.6.33.84.84,0,0,0,.76-.54,2.11,2.11,0,0,0,.88-.45c-.08.17-.17.34-.25.48a1.13,1.13,0,0,0-.28,1.15.59.59,0,0,0,.54.35c.57,0,1-.69,1.23-1.33v0c0,.5.18.77.54.77S198,285.74,198.14,285.44Zm11.26-3.62c-.23.12-.38.39-.51.9-.17.72-.45,2.88,0,3.51a.67.67,0,0,0,.58.43c.57,0,.66-.45.79-2.24.09.58.32,1.49.92,1.49a.6.6,0,0,0,.58-.46,1.87,1.87,0,0,0-.26-1.43,1.23,1.23,0,0,0-.36-.65l-.14-.15h-.21a.55.55,0,0,0-.47.27c.07-1.32-.24-1.56-.35-1.64l-.07.85-.18,0v-1l-.09,1-.3-.11Zm-2.35,2.7c.18,1.23.25,1.68.77,1.68s.64-.09.8-4.86c.13-2.41-.15-2.71-.25-2.82l-.15-.16h-.37l-.19.09-.06.06a1.37,1.37,0,0,0-.3.53,1.72,1.72,0,0,0-.17-1l-.15-.19-.26,0c-.39,0-.8.34-.83,1.06h-.14a.68.68,0,0,0-.49.2c-.19.2-.28.49-.31,1.18a.69.69,0,0,0-.22,0h-.29l-.22.25a6.74,6.74,0,0,0,.08,4.24.66.66,0,0,0,.6.38h.5v-.64l.57,0L206,284a.63.63,0,0,0,.56.42h.22l.2-.22A3.6,3.6,0,0,0,207.05,284.52ZM187.38,278a4.68,4.68,0,0,0-1.3,2.11v.5l.53,0c.3,0,.48-.18,1.31-1,1-1.26,1-1.68.8-2l-.13-.2-.34,0a.9.9,0,0,0-.47.21,2.34,2.34,0,0,0,.8-1.19v-.22l-.08-.09a.59.59,0,0,0-.61-.34h-.09l-.09,0c-.47.18-2,1.55-2,2.2a.56.56,0,0,0,.57.58C186.58,278.61,186.82,278.46,187.38,278Zm-12.33.86c-.11.14-.11.35-.11.75s0,1,.6,1a.57.57,0,0,0,.54-.45,1.85,1.85,0,0,0,0-1.14l0-.11-.31-.31-.23,0h-.28Zm-1.1-1.53a1.24,1.24,0,0,0-.08.47c0,.84.43.93.62.93h.21l.13-.11a1.07,1.07,0,0,0,.26-1.23l0-.11-.09-.09a.56.56,0,0,0-.51-.3H174Zm-1.32-1.53a4.1,4.1,0,0,0,.11,1.28.6.6,0,0,0,.56.39c.65,0,.74-1.08.74-1.73a18.88,18.88,0,0,1,.19-1.94l.06-.39c.26-.92.09-1.15,0-1.26l-.15-.2-.28,0h-.21l-.1.09h-.06l-.15.14-.09.13c.32-2.09.16-2.29,0-2.44l-.15-.18h-.35c0-1,0-1.14-.21-1.31l-.14-.14h-.21a.58.58,0,0,0-.49.27,2.29,2.29,0,0,0-.32-1.25l-.15-.16-.26,0h-.12l-.19.09-.06.06a.7.7,0,0,0-.14.29l-.73,0a1.27,1.27,0,0,0-.38-.59.65.65,0,0,0-.54-.22h-.21l-.14.15c-.23.23-.26.56-.15,1.49a3.25,3.25,0,0,1,0,1.56.49.49,0,0,0-.43-.22c-.5,0-.54.44-.61,1.1a2.4,2.4,0,0,0,.12.88.76.76,0,0,0,.71.53,1.14,1.14,0,0,0,.75-.35v.1c-.06.35-.24,1.63.14,2.08l.15.17.29,0c.38,0,.64-.25.81-1.4a1.08,1.08,0,0,0,.42.08.91.91,0,0,0,.66-.23,7.51,7.51,0,0,0,.56,2.83.7.7,0,0,0,.6.37Zm8.55-2.77c-.13.26-.29.57-.48.89-1.19,2.08-1,2.42-.88,2.61l.14.25.35,0c.28,0,.55,0,1.93-2.57a17.78,17.78,0,0,0,1.21-2.71.68.68,0,0,0-.58-.66l-.21,0a3.59,3.59,0,0,0-1.94,1l-.93.93.62.78Zm-3.86-5.33,0,.05,0,0c-.56.91-.44,4.61-.06,6.08.35,1.13.54,1.52,1,1.52h.24l.17-.2c.14-.16.31-.36-.08-2.44a11.47,11.47,0,0,1-.24-2.32.83.83,0,0,0,.67.3,1.33,1.33,0,0,0,.5-.11v0a1,1,0,0,0,.06.89.74.74,0,0,0,.61.3,1.64,1.64,0,0,0,1.36-1.14,6,6,0,0,0,.36-1.49c0-.58-.54-1-1.32-1a2.24,2.24,0,0,0-.73.12,5.37,5.37,0,0,1,.43-1.47,1,1,0,0,0,.06-1,.68.68,0,0,0-.59-.32c-.56,0-.79.46-1.27,2.41a.63.63,0,0,0-.15-.33l-.15-.17H178l-.1,0-.09,0h-.27Zm8.35-.8c-.82,0-3.22,2.24-3.22,3.22v.5l.56.07c.3,0,.66-.25,1.07-.74a14.1,14.1,0,0,1,1.49-1.5c.38-.24.83-.67.69-1.14A.58.58,0,0,0,185.67,266.88Zm-1.9-1a1.89,1.89,0,0,0-2,1.82c0,.7.36.8.57.8s.52-.25.76-.6a2.2,2.2,0,0,1,.8-.74c.41-.13.91-.3.83-.79S184.16,265.89,183.77,265.89Zm-24-3.48a11.06,11.06,0,0,0,.84,4.15c.13.38.6,1.25,1.14,1.25h.21l.17-.15c.3-.31.17-.66-.16-1.51l-.13-.35c-.59-1.05-.87-6.19-.42-7.31l.27-.53c.36-.09.61-.54,1-1.36a7.42,7.42,0,0,1,1.49-2.42c1-1.09,1-1.49,1-1.68v-.39l-.51-.06h-.21l-.14.13c-1.19.57-3.49,4.08-3.36,5.19l-.54.6a3.3,3.3,0,0,0-.45,1.39.65.65,0,0,0-.16-.3l-.15-.16-.26,0h-.5v.46c-.42.9-.89,3.71-.51,4.34a.81.81,0,0,0,.66.5C159.44,264.18,159.58,263.78,159.73,262.41ZM178.19,261c-1.09.33-2.33,3.92-2.19,4.86a.69.69,0,0,0,.68.66c.36,0,.64-.23.83-1.26h.25c.32,0,.57-.2,1-1.28a3.89,3.89,0,0,1,1-1.37,1.2,1.2,0,0,0,.8-.6.7.7,0,0,0,0-.6l0-.07-.06-.06a.94.94,0,0,0-.63-.26h0a.92.92,0,0,0-.25.06,1.61,1.61,0,0,0-.64.32s0-.08,0-.12l-.12-.26-.32-.05h-.14Zm-2.83.23c-.33,0-.58.22-.76.65-.34.82-.68,3.57,0,4.25a1,1,0,0,0,.66.35h.23l.21-.2c.21-.25.2-.64.08-1.41a4.19,4.19,0,0,1,.07-1.93,1.82,1.82,0,0,0,0-1.47l-.15-.2ZM164.63,259a1.32,1.32,0,0,0-1,.6,8.07,8.07,0,0,0-1.39,5.05c.11.47.21.87.66.87s.52-.29.78-.87a3.81,3.81,0,0,0,.35-1.12,6.07,6.07,0,0,0,.68-.38,11.42,11.42,0,0,1,1.7-.69c.65-.17,1.25-.45,1.1-1.39l0-.08a1.18,1.18,0,0,0,1-.5,10.18,10.18,0,0,1,2.06-.16c1.85,0,2.89-.21,3.09-.61l.11-.23-.11-.31c-.19-.35-.56-.51-3.25-.51-2.24,0-3.4,0-3.47.83h-.08c-.4,0-1.08.17-1.08,1.32,0,.37,0,.38-.24.41a2.32,2.32,0,0,0-.59.21.66.66,0,0,0-.07-.42l-.14-.25h-.12a1.47,1.47,0,0,1,.18-.24h.13a.7.7,0,0,0,.7-.7A.94.94,0,0,0,164.63,259Zm5.53,4.05a1.63,1.63,0,0,0,1,1.75,4.49,4.49,0,0,0,1.32.34,1,1,0,0,0,.32-.05,2.76,2.76,0,0,1,.67-.14.6.6,0,0,0,.54-.29.76.76,0,0,0,0-.76c-.3-.6-1.71-.61-1.77-.61-.52,0-.64-.07-.65-.08a2.74,2.74,0,0,1,.29-1.05c.17-.51.42-1.24-.31-1.49l-.07,0h-.08a3.8,3.8,0,0,0-1.57.64c-1.44.9-1.3,1.41-1.25,1.57a.6.6,0,0,0,.62.43,2.26,2.26,0,0,0,1-.3Zm10.71-3.43a1,1,0,0,0,.1.8l.15.18h.26a.73.73,0,0,0,.52-.26,2.13,2.13,0,0,0,.63-1.22,1.2,1.2,0,0,0-.16-.95,1,1,0,0,0-.29-.21l.25-.28c1.31-1.31,1.16-1.68,1.1-1.84l-.13-.31H183c-.16,0-.53,0-2,1.47-1.84,1.84-1.87,2.24-1.73,2.59a.59.59,0,0,0,.56.36,1.38,1.38,0,0,0,.57-.16Zm-2.66-.3.37,0c.28,0,.59,0,1.93-2.85,1-2,.89-2.24.76-2.45l-.15-.23H181c.47-1,.48-1.15.32-1.41l-.15-.23-.38,0-.11,0-.35.12v.19l0,0a.56.56,0,0,0-.37-.12c-1,0-2.94,3.63-3.21,4.84a.83.83,0,0,0,.11.71l.15.17h.33a1.75,1.75,0,0,0-.11.47c0,.7.43.75.57.75a.5.5,0,0,0,.41-.16ZM155.44,257a1.06,1.06,0,0,0,.11.6l.15.23.36.05a.6.6,0,0,0,.29-.08l.08,0,0-.06a4.87,4.87,0,0,0,.71-1.72,4.59,4.59,0,0,1,.81-2c.42-.58.72-1.13.31-1.48l-.14-.11H158a.68.68,0,0,0-.33.1,4,4,0,0,0-1.27,1.43,12.72,12.72,0,0,0-.6,1.57,8.4,8.4,0,0,1,.12-.89c0-.07,0-.15.06-.21a.86.86,0,0,0,0-.55v-1.08l-.29.27a2.71,2.71,0,0,0,0-.51,2.14,2.14,0,0,1,.15-.78,1,1,0,0,0,.48-1.09.76.76,0,0,0-.76-.54,1.54,1.54,0,0,1-.12-.47,3.41,3.41,0,0,0-.55-1.6,1.65,1.65,0,0,1-.19-.8c0-.79-.49-2.17-1.23-2.44l-.05,0h-.21a.78.78,0,0,0-.22,0l.2-.29c.37-.45.58-.75.42-1.09l-.14-.28-.34,0a.78.78,0,0,0-.5.15c-1,.43-2.15,2.93-2.39,4.4-.1.72-.12,1,.07,1.17l.14.17h.24c.43,0,.53-.24,1.17-1.81a14.91,14.91,0,0,1,.65-1.51,1.57,1.57,0,0,0,.26.73,3.88,3.88,0,0,1,.27,1.08,2.34,2.34,0,0,0,.64,1.43c.09.07.35.36.35,2.29,0,2.58.46,2.79.76,2.81a3.9,3.9,0,0,0-.5,2.93.64.64,0,0,0,.57.37A.68.68,0,0,0,155.44,257ZM166,250.86c-.54,3-1.33,4.59-1.63,4.74a1.17,1.17,0,0,0-.82.55.68.68,0,0,0,0,.56.91.91,0,0,0,.78.45c.83,0,1.66-1.11,2.11-2.21a10.65,10.65,0,0,0,.7-3.58l.16-1.94-1-.14Zm10.15,3.52c-.23.27-.79,1-.53,1.57a.64.64,0,0,0,.6.38c.34,0,.49-.17,1.25-1.39s.8-1.86.68-2.15a.72.72,0,0,0-.42-.4.87.87,0,0,0-.28,0h-.14a2.51,2.51,0,0,0-1.08.62c-.53.45-.72.62-.59,1l.12.32h.47Zm-6.17-1.86a24.38,24.38,0,0,0,.28,2.7c.05.21.18.78.68.78h.5v-1.33a.58.58,0,0,0,.08.14l.15.18.26,0c.31,0,.49,0,.58-.84a1.38,1.38,0,0,0,.27.62l.14.15.27,0a.57.57,0,0,0,.46-.24l.1-.14v-.35l.07.12c.49,1,.76,1.19,1.08,1.19h.27l.18-.24c.11-.16.28-.41-.32-1.82a17,17,0,0,1-.79-3.34L174,248l-1,.08,0,.61-.58,0v-.41l-.5,0c-.34,0-.47.23-.56.58-.1-1.23-.31-1.23-.66-1.23h-.12l-.12.06c-.28.14-.43.75-.5,1.58a.9.9,0,0,0-.19-.38l-.15-.16-.26,0h-.21l-.18.17a.88.88,0,0,0-.16.35.44.44,0,0,0-.51-.36h-.2L168,249c-.32.17-.4.67-.47,1.09-.28,1.11-.19,4.69.34,5.37a.64.64,0,0,0,.48.25h.22l.17-.17c.08-.09.17-.18.22-.69a.56.56,0,0,0,.3.07C169.73,254.88,169.82,254.88,169.94,252.52Zm9.95-8.29a17.29,17.29,0,0,0-1.85,3.22c-1,2-1.23,2.86-1,3.78.15.51.28,1,.73,1s.48-.19.58-.53l0,0a.74.74,0,0,0,.64.35c.53,0,1.06-.78,1.28-1.29a3.34,3.34,0,0,1,.34-.52s.23.08.37.13a2.11,2.11,0,0,0,.94.16c1.08,0,3.27-.49,3.6-1.3a.68.68,0,0,0-.15-.76,1.29,1.29,0,0,0-.92-.32,4.69,4.69,0,0,0-1.41.28,5.22,5.22,0,0,1-1.19.17,1.54,1.54,0,0,1-.53-.07,3.34,3.34,0,0,0-.75-.22c.07-.19.18-.46.36-.84a5.85,5.85,0,0,0,.77-2.73c0-.12.06-.35.33-.56s.77-.43.63-.94c0-.13-.17-.44-.7-.44a2.2,2.2,0,0,0-1.45.74.6.6,0,0,0,0-.35.58.58,0,0,0-.6-.39c-2,0-4.28,3.87-4.63,6.87-.13,1.78.15,2.09.25,2.19l.15.16.27,0c.55,0,.83-.7.83-2.07a8.26,8.26,0,0,1,2.83-5.53Zm-20.11,2.25a7.66,7.66,0,0,0,.07,3l.15.23.31,0h.17l.16-.12.2-.14v-.25s0-.11,0-.24c0-.42.15-1.24.21-2.11a4.68,4.68,0,0,0,1.83.86h0a2.36,2.36,0,0,0,1.35-.59c.34-.24.69-.49.56-.91a.55.55,0,0,0-.57-.38,4.8,4.8,0,0,0-.9.16H163a1.4,1.4,0,0,1-.56-.08,1.16,1.16,0,0,0-.89-.52,1.06,1.06,0,0,0-.31,0c0-.53,0-.71-.16-.89l-.15-.15h-.21a.59.59,0,0,0-.43.19c.06-.24.24-1,.24-1a.8.8,0,0,0,.08-.83l-.14-.23-.33,0h-.37l-.15.14-.08.11a6.14,6.14,0,0,1,.32-.95c.56-1.87.4-2,.22-2.21l-.14-.14h-.39c-1.05.2-1.6,4.24-1.64,5.08l-.16,2.13.56.07-.14.51a1,1,0,0,0,.1.87l.15.18.27,0a.65.65,0,0,0,.55-.34A4.37,4.37,0,0,0,159.78,246.48Zm54.34-7.33c-.37,0-.67.15-1.82,2.33-1.61,3.21-2,5.53-1.18,6.91a3.08,3.08,0,0,0,2.76,1.34h0c.61,0,1.22-.47,1.83-1.38.65-1.15.88-1.73.61-2.18a1,1,0,0,0-.94-.42c-.11,0-.22-.12-.28-.19a6.74,6.74,0,0,1-.47-4.72c.12-.5.33-1.34-.26-1.63l-.11-.06Zm-27.87,3c-.89,0-4.13,3.37-4.13,4.29a.94.94,0,0,0,.83,1,.82.82,0,0,0,.72-.53.91.91,0,0,0,.4.1.87.87,0,0,0,.48-.15,6,6,0,0,1,.89-.26,4.88,4.88,0,0,0,1.44-.75.46.46,0,0,0,.07-.07,1.54,1.54,0,0,0,1.12.67c.23,0,.68,0,.84-.39s-.15-.71-.41-1a1.86,1.86,0,0,1-.54-.71.65.65,0,0,0-.65-.51.77.77,0,0,0-.29,0,.6.6,0,0,0-.08-.37l-.14-.25-.21,0a.74.74,0,0,0,.25-.76A.6.6,0,0,0,186.25,242.13Zm-33.58-1a1.9,1.9,0,0,0-1.31.73,6.9,6.9,0,0,0-1.83,4.17c0,.61.44.64.54.64.44,0,.59-.41.92-1.33a6.75,6.75,0,0,1,1.37-2.37c.7-.82,1-1.14.8-1.53l-.13-.3ZM189,243.62l-.19.26a1,1,0,0,0,.11,1,1.36,1.36,0,0,0,1.19.6c.23,0,.66,0,.8-.39s-.15-.64-.56-1a1.78,1.78,0,0,0-1.07-.45H189Zm26.43-.54a2.76,2.76,0,0,0,.06,1.46l.15.22.3,0c.68,0,.92-1.27,1-2a18,18,0,0,1,.56-2.28c.13-.36.3-1.08,0-1.43l-.15-.14-.24,0h-.15l-.16.09a1.14,1.14,0,0,0-.17.15.82.82,0,0,0,0-.66.61.61,0,0,0-.53-.31h0c-1,0-1.17,1.26-1.4,3.17-.09,1.2-.09,1.46.12,1.68l.14.16h.24A.55.55,0,0,0,215.45,243.08Zm-22.35-1.94a.64.64,0,0,0-.52.24,1.12,1.12,0,0,0-.14.93c.14.92,3,2.39,3.78,2.39a1,1,0,0,0,.24,0,1.6,1.6,0,0,0,.72-.75.72.72,0,0,0,0-.52,1,1,0,0,0,.74-.87H198a1.35,1.35,0,0,0,.41.06c1.15,0,1.19-1.48,1.26-3.92l.06-1.69.87-.05a3.28,3.28,0,0,1,.47,0,26.51,26.51,0,0,1,3.63.35,22.24,22.24,0,0,0,2.73.28c.61,0,.74-.29.74-.53,0-1.6-7.53-1.82-7.61-1.82h-.44a3.8,3.8,0,0,0-.59.06l-.2,0h-.13c-1.28.35-1.28.78-1.28,3.54,0,1,0,1.73,0,2.07a1.28,1.28,0,0,0-.42-.07.77.77,0,0,0-.79.61c-.3-.37-.56-.54-.81-.54h-.29l-.2.28c-.12.21-.18.53.31,1.37a2,2,0,0,0,.2.31,3.37,3.37,0,0,1-.49-.05,1.45,1.45,0,0,0-.3-1,.77.77,0,0,0-.6-.29.82.82,0,0,0-.6.28,1.23,1.23,0,0,0-.67-.6l-.08,0Zm13.17-2.08a2.59,2.59,0,0,0-.46,1.45c-.31,1.58-.29,2.61.05,3a.66.66,0,0,0,.52.26c.27,0,.5-.08.68-.75h.19l.18,0,.07.09h.27c.13,0,.32,0,.62-.48a.56.56,0,0,0,.37.15c.38,0,.62-.19,1.7-2.25,1.21-2.42,1-2.58.82-2.81l-.15-.16h-.22c-.34,0-.82.67-1.28,1.49a.59.59,0,0,0-.1-.36l-.15-.21h-.27c-.17,0-.39,0-.71.54a.66.66,0,0,0-.18-.32l-.14-.14h-.21a.58.58,0,0,0-.51.3,1,1,0,0,0-.18.3.53.53,0,0,0-.35-.28l-.07,0h-.29Zm6.39-.9c-.93,0-2.81,4.49-2.81,4.79,0,.53.18.8.55.8s.54-.2,1.79-2.63c1.2-2.24,1-2.5.92-2.7l-.14-.24Zm15.87-9.57a8.26,8.26,0,0,0-2.65.8,16.57,16.57,0,0,0-2.88,1.7,21.3,21.3,0,0,1-2.37,1.34c-.53.26-1,.52-.93,1,.05.2.21.44.71.44a6.84,6.84,0,0,0,2.39-.89,39.66,39.66,0,0,1,4.28-1.61c3.24-1,3.24-1.49,3.24-1.79,0-1-1.22-1-1.74-1h-.05Zm9-6.28c-.2.29-.1.6.09,1.16.65,1.59-.67,4.19-2.86,5.7a21.72,21.72,0,0,1-4.66,2.09c-3.35,1.11-3.48,1.32-3.41,1.81,0,.22.2.48.76.48a5.57,5.57,0,0,0,1.22-.33c.58-.19,1.36-.43,2.22-.68,3.65-1.27,5.79-2.55,7.18-4.29a5,5,0,0,0,1-3.53c0-2.09-.38-2.5-.76-2.62l-.08,0h-.5Zm-42.87-3.21c-1.23,0-1.7,4-1.71,4a8.37,8.37,0,0,0,6.57,9.28,10.23,10.23,0,0,0,2,.42.76.76,0,0,0,.62-.25,1.14,1.14,0,0,0,.08-1c-.12-.9-.89-1.22-2.74-1.78a7.22,7.22,0,0,1-3.11-1.55c-1.76-1.84-2.51-5.3-1.53-7.24.05-.08.8-1.24.31-1.73l-.15-.15Zm8.47,10.17a4.4,4.4,0,0,1,1.82.88,4.48,4.48,0,0,0,3.44,1.09,6.61,6.61,0,0,1,2.38.42,2.74,2.74,0,0,0,1.09.37.62.62,0,0,0,.61-.4c.14-.38-.09-.77-.79-1.35a5.73,5.73,0,0,1-.67-.62,4.44,4.44,0,0,0-.55-1c-.1-.16-.22-.33-.33-.52a13.75,13.75,0,0,1-2.73-9.75c.15-2.1.36-3,2-6.52,1.53-3.38,1.75-4.07,1.52-4.62a.8.8,0,0,0-.4-.4,7.08,7.08,0,0,1-1-1.82c-.62-1.55-.71-2.14-.79-8.81-.16-8.93-.32-11.57-1.34-15-1.48-5.16-2.1-5.32-2.34-5.37l-.18,0-.17.08a.64.64,0,0,0-.33.45,1.55,1.55,0,0,0,.32,1.13c1.6,3,2.78,11.87,2.22,16.8-.25,2.73-.52,3.73-2.2,8.22-.59,1.54-.69,2.33-.34,2.84a1.09,1.09,0,0,0,1,.44,2.59,2.59,0,0,0,.52-.06,1.56,1.56,0,0,1,.36,0c.27,0,.42,1,.62,2.91a9.6,9.6,0,0,1-.64,4.43,14.78,14.78,0,0,0-.09,9.95,18.26,18.26,0,0,0,2.41,5.45,13.45,13.45,0,0,0-4.37-.77,5.3,5.3,0,0,0-1.31.13,1.36,1.36,0,0,0-1.21,1.31c0,.57.31,1.16.83,1.16A.67.67,0,0,0,203,230,1,1,0,0,0,203.11,229.27ZM125.27,163.9a3.45,3.45,0,0,0-2,.75c-2,1.4-1.94,4.15.13,12.25A100.39,100.39,0,0,1,126,191.6a41.1,41.1,0,0,0,3.09,11.77c.09.22,10.44,22.59,11.68,22.59a1.15,1.15,0,0,0,.86-.61,7.71,7.71,0,0,0-.12-3c-.34-2.32-1-8.82-2.14-19.84-.22-2.32-.65-7.12-.82-10.37-.16-4.25-.41-6.32-.93-7.89-.28-.73-.56-1.64-.79-2.37-.11-.37-.21-.69-.29-.93a11.69,11.69,0,0,0-1.37-3.17l-1.27-2.33-1.71,1.48a5.81,5.81,0,0,1-.78.66.21.21,0,0,0,0-.06,6.6,6.6,0,0,1-.49-2.48,6.13,6.13,0,0,0-.94-3.18,5.92,5.92,0,0,1-1.62-4.3c0-1.51-.09-2.14-1-2.87A3.5,3.5,0,0,0,125.27,163.9ZM235,199a2.22,2.22,0,0,0,.42.54c1.13,1.44,8.13,5.61,9.44,5.61a.6.6,0,0,0,.65-.6v-.28l-.23-.14c-.05,0-1.11-.68-2.43-1.35a33.27,33.27,0,0,1-4-2.35c-.69-.44-1.43-.94-2-1.32l-.51-.34-.42-.27a.87.87,0,0,0-.52-.23h-.81Zm-12.52-15.42c0,.34-.09,1.7-.24,3.26a51.13,51.13,0,0,0,.16,7.85c.54,7,.67,7.88,1.74,7.88a.75.75,0,0,0,.58-.26c.27-.31.31-.81.16-1.87-.08-.85-.24-4.39-.33-7.95l-.15-6.17.91-.63c0,.07.06.15.1.23a6.37,6.37,0,0,1,.29,1.22,3,3,0,0,0,.59,1.53.77.77,0,0,0,.61.41c.68,0,.72-.62.87-3.23,0-.85.12-3.08.52-3.47a32.77,32.77,0,0,0,1.74-3.19,28.85,28.85,0,0,1,2.67-4.37c1.67-2.17,1.46-2.58,1.37-2.76l0-.07-.06-.06a.8.8,0,0,0-.6-.23h0c-.93,0-2.41,1.35-3.3,2.61l-.77,1.09-.16-.2a2.53,2.53,0,0,1-.28-.52H229a.57.57,0,0,0,.51-.32.57.57,0,0,0,.18,0h.24l.2-.21c.21-.26.16-.6,0-1.27a1.92,1.92,0,0,1-.07-.43c.21-.09.5-.35.79-1.09s.3-1.07,2.64-3.74a15.08,15.08,0,0,1,6.76-4.22c5.39-1.47,5.32-2,5.26-2.46-.09-.67-1-.67-1.59-.67-3.57,0-8.13,2.07-11.08,5-.33.31-1.11,1-1.57,1.41a.85.85,0,0,0-.47-.15c-.16,0-.43,0-.71.63l0-.21-.33-2.79-1,.07.08,3.68h0c-.55-2.36-.86-2.36-1.17-2.36h-.39l-.15.46a2.15,2.15,0,0,0,0,1c-.27-.43-.44-.46-.64-.46h-.26l-.18.23c-.15.23-.28.41.8,3.17.34.88.68,1.81.93,2.54-.48,0-.8.54-.8,1.32,0,1.52-2.25,6.66-3.82,8.32C222.72,182.7,222.38,183.12,222.47,183.53Zm-47,12c-.45.14-1,.39-1,.86a.78.78,0,0,0,.55.72,2.53,2.53,0,0,0,.8.11,10.76,10.76,0,0,0,2.84-.51c.35-.12,2-.7,2.37-1.41a2,2,0,0,1,1.33-.47c.36-.06,3.31-.52,3.58-1.34l.1-.29-.14-.17a.56.56,0,0,0-.54-.35,2.55,2.55,0,0,0-1.13.3,23.88,23.88,0,0,1-6.35.73h0a16,16,0,0,1-2.18-.12,12.54,12.54,0,0,0-1.64-.13c-.75,0-1,.11-1.18.27a.61.61,0,0,0-.13.68C173.05,195,174.52,195.43,175.49,195.55Zm1-7.76a.53.53,0,0,0-.24.33c-.12.44.32.7.48.8s.59.4,3,.4a32,32,0,0,0,5.54-.5c7.09-1.39,7.09-2,7.09-2.31a.53.53,0,0,0-.6-.52l-.38,0a2.3,2.3,0,0,0,1.64-2.15c0-1.44-.78-2.14-3.29-3.65l-.18-.1a10.38,10.38,0,0,0-1.84-1,.58.58,0,0,0,.36-.54c0-.34,0-1.39-5.65-1.42H181.2a21.48,21.48,0,0,0-5.49.6,9.31,9.31,0,0,1-2.14.37,2,2,0,0,1-.68-.11,1.86,1.86,0,0,0-.82-.19,8.15,8.15,0,0,0-3,1.11c-2,1-2.88,1.58-3,2.45,0,.17,0,.21-.05.22a4.52,4.52,0,0,1-1.18.09c-1.3,0-2.15,0-2.15,1.33,0,.43.16,1.21.6,1.43a1.06,1.06,0,0,0,.52.11c1.14,0,3.69-1.08,6-2.28a1.69,1.69,0,0,0-.43.75,1.94,1.94,0,0,0,.42,1.51c.73.94,4.46,2.62,6.22,3.08Zm18-4.7a1.18,1.18,0,0,0-.53,1.19,1.88,1.88,0,0,1-.43,1c-.28.32-.57.65-.39,1a.61.61,0,0,0,.62.35,8.42,8.42,0,0,0,1.56-.3c1-.29,1.48-.69,1.57-1.24s-.23-1-.91-1.48S195,183,194.75,183h-.12Zm-43-60.61c-.53,1.27-.42,3.82.28,6.32,2.2,7.95,8.32,15.66,13.63,17.18a5.62,5.62,0,0,0,1.58.34,2.92,2.92,0,0,0,1.14-.28c.34-.14.8-.34.71-.81s-.61-.48-1.15-.48c-3-.06-7.23-3.24-10.45-7.71a29,29,0,0,0,7.52,5.61,10.18,10.18,0,0,0,5.16.95,9.62,9.62,0,0,0,5.08-.95c8.31-3.82,15.06-15.09,15.06-25.12,0-3.87-.12-4.55-.83-4.55-.55,0-.78.5-1.55,2.14l-.14.29a65.88,65.88,0,0,0-2.09,6.28c-2.56,8.75-5.85,13.89-11,17.2a10.09,10.09,0,0,1-5.47,1.79h0a12.62,12.62,0,0,1-5.51-1.49,29.68,29.68,0,0,1-8.47-7.83,17.22,17.22,0,0,1-1.8-3.71c2.84,6.07,8.6,11.45,13.68,12.32a6,6,0,0,0,.75.05,15.09,15.09,0,0,0,6.68-2,17.39,17.39,0,0,0,7.5-10.56c.34-1.46.37-2.34.11-2.61l-.15-.14h-.23c-.43,0-.58,0-3.47,5.39-1.76,3.37-3.61,5.29-6.38,6.63-1.63.82-2.24,1.08-3.27,1.08-.29,0-.62,0-1,0-2.65-.16-4.92-1.28-7.63-3.75a29.36,29.36,0,0,1-3.64-4.2,22.65,22.65,0,0,1-2.82-6.12l1.81,1.8a8.88,8.88,0,0,0,2.77,1.53l1.12.31v1.19a4.68,4.68,0,0,0,3.47,4.51,7.25,7.25,0,0,0,2.56.49,13.32,13.32,0,0,0,2.49-.3c2.14-.5,5.61-2.68,6.38-4.32a1.85,1.85,0,0,0,.27-1.73,1.15,1.15,0,0,0-1.06-.47,6,6,0,0,0-1.26.18,12.32,12.32,0,0,1-3.16.38,4.64,4.64,0,0,1-1.49-.15,1.61,1.61,0,0,1-.35-.82,1.06,1.06,0,0,1,0-.3,4.05,4.05,0,0,1,1.36-.45l.14,0c1-.34,2.42-.8,3.23-1.13,1.37-.59,5.27-3,5.27-4.09,0-.66-.42-.83-.67-.83h-.12l-.18,0c-6.69,3.38-10.7,4.7-14.32,4.7h0c-.39,0-.79,0-1.18,0-1.54-.08-3.51-.26-4.29-.33l-2.84-.42a1.65,1.65,0,0,1,0-.53.9.9,0,0,0,.07-.78.75.75,0,0,0-.47-.39l-.08,0h-.08a.86.86,0,0,0-.44.1.91.91,0,0,0-.67.5l-.08.17Zm37.7-18.24c-.16.22-.12.67.9,2.85,1.63,3.68,2,6.23,1.85,12.4a44.27,44.27,0,0,1-.73,7.32,26.33,26.33,0,0,1-4,8.15c-.13.14-1.49,1.65-1.23,2.24l.13.29h.34c.24,0,.47,0,2-1.92a26.83,26.83,0,0,0,4.3-8.86,38.93,38.93,0,0,0,0-17.58c-.42-1.46-2.12-4.93-3-5.21l-.07,0h-.08A.57.57,0,0,0,189.19,104.24ZM132.61,131c0,1.48,6.06,5.2,8.28,5.84a5.4,5.4,0,0,0,1.23.27.69.69,0,0,0,.73-.75.75.75,0,0,0,0-.26,2.87,2.87,0,0,0,.71.1c.47-.06.85-.12.91-.54s-.26-.56-.88-.83a44.72,44.72,0,0,1-7.61-3.93,48.64,48.64,0,0,0,8.94,3.8,10.78,10.78,0,0,0,2.54.32,3,3,0,0,0,1.86-.42.74.74,0,0,0,.2-.74c-.07-.23-.24-.79-2.81-1.71a9,9,0,0,0,2.05.35c1,0,1.07-.58,1.07-.76a5.87,5.87,0,0,0-1.7-3.06c-.39-.44-.46-.59-.47-.64h0s0,0,.08-.11a1.37,1.37,0,0,0,.3-1.49,1.82,1.82,0,0,0-1.76-.81,8.7,8.7,0,0,0-1.85.18,1.34,1.34,0,0,0-.84,1.11,2.54,2.54,0,0,0,.63,2.22s.05,0,.07.06l-.13.15c-.14.14-.19.14-.24.14a6.62,6.62,0,0,1-1.58-.53,19.75,19.75,0,0,1-3.21-1.68c-1.36-.87-1.7-.87-1.83-.87h-.36l-.19.37c-.14.4.13.76,1.13,1.55a27.91,27.91,0,0,0,5.87,2.87,26.06,26.06,0,0,1-7.37-3.8,3.45,3.45,0,0,0-1.52-.91h-.5l-.05.55c0,.86,1.74,2.12,3.94,3.32a31.9,31.9,0,0,1-6.25-3.7c-1-.93-1.42-1.09-1.66-1.12h-.23l-.15.07-.27.14v.3c0,.73,1.29,1.85,3.16,3h0l-.19.32-.12.31.24.25a3.87,3.87,0,0,0,.4.53h-.49Zm50-38.4a.74.74,0,0,0-.79.77c0,.21,0,.54,2.2,2.06,4.53,3.32,7.12,7.16,9.21,13.69,2.25,6.82,1.1,17.9-2.42,23.25-1.31,2-1.16,2.3-1,2.52l.14.26h.32c.23,0,.48,0,1.58-1.66l.1-.12a11.77,11.77,0,0,1,.78-1h0c1.48,0,4.17-7.12,4.61-9.68a36.55,36.55,0,0,0-.59-12.43l-.3-1.24a18,18,0,0,0,2.79,1.18c2.19.68,3.74,2.11,4,3.64.08.72.25,2.25,1.38,2.25.48,0,1-.3,1.84-1,2.94-2.68,6.76-12.34,6.93-17.52a5.6,5.6,0,0,1,1.08-3.7,24.83,24.83,0,0,0,3-16,20.87,20.87,0,0,0-1.53-4.42A22,22,0,0,0,202,62.58l-.61-.14.43-.27c2.67-1.75,3.36-3.92,2-6.14-1.73-2.78-6.49-4.65-11.87-4.65a18.26,18.26,0,0,0-7.07,1.32c-.31.13-.75.31-1,.38a4.79,4.79,0,0,0-2.74-3.26,8,8,0,0,0-2.8-.79h-.87l-.48,0h0c-4.19.38-8.88,3.54-13,8.75a28.35,28.35,0,0,0-4.55,7.61c-1.09-1.92-3.8-3.76-7.28-4.89a14.08,14.08,0,0,0-3.13-.29,20.12,20.12,0,0,0-4.92.53,21.86,21.86,0,0,1-2.58.73c-1.47.28-6.48,3.62-7.88,5.1-.68.69-1.87,2.13-2.67,3.17-1.25,1.79-1.24,2.37-1.07,2.71a.67.67,0,0,0,.6.35c.18,0,.67,0,2.12-1.4,2.83-2.59,6.86-3.9,11.95-3.9,4.2,0,7.63,1.17,8.94,3.06a2.8,2.8,0,0,1,.33,2.7s-.07.13-.38.13a10.59,10.59,0,0,1-2.86-.76,24.07,24.07,0,0,0-7.62-1.39,19.94,19.94,0,0,0-2.85.21c-3.47.41-6.34,1.42-7.86,2.76-.83.69-1.11,1.15-1,1.58a.75.75,0,0,0,.79.46,5.45,5.45,0,0,0,1.58-.36,6.11,6.11,0,0,1,1.93-.27,15.14,15.14,0,0,1,7.78,2.52A7.55,7.55,0,0,1,146,81.35a.68.68,0,0,0,0,.65.73.73,0,0,0,.69.33c.4,0,1.2-.13,3.91-1.14,1.86-.69,2.61-.79,6.18-.79,8.3,0,15.5,2.5,20.29,7,1.91,1.83,3.34,3.78,3.48,4.74v.06l0,.06c.07.18.2.51.57.51h.22l.16-.17c.19-.21.17-.43.09-1.24v-.1a1.25,1.25,0,0,0,.79.32c.5,0,1-.39,1-1.49,0-.14,0-.25,0-.34l.07.06a1.16,1.16,0,0,0,.82.42.84.84,0,0,0,.72-.42,3,3,0,0,0,.29-1.83.45.45,0,0,0,.48.3h.24l.17-.2c.29-.36.07-1.48,0-1.81-.36-2.34-1.93-5.92-3.45-5.92a.57.57,0,0,0-.56.37c-.2.53.42,1.16.81,1.5a9,9,0,0,1,1.38,2.85c-1-1.57-2.79-3-5.93-4.74-2.58-1.45-3.39-1.63-3.81-1.63a.74.74,0,0,0-.81.75c0,.78.68,1.33,3,2.81a40.77,40.77,0,0,1,3.61,2.5.9.9,0,0,0-.5.22,5.5,5.5,0,0,1-1.67-.84,11.22,11.22,0,0,0-3.26-1.31c-.44-.13-2.1-.76-3.65-1.45a35.75,35.75,0,0,0-14.91-3.29c-4,0-7.11.79-8.66,2.23l-.31.27-.05-.11a13.84,13.84,0,0,0-11.44-6.73,19.09,19.09,0,0,1,5.6-.74h.67c3.46,0,4.75.27,8.66,1.79l.2.07a9.23,9.23,0,0,0,2.62.74,1.94,1.94,0,0,0,1.19-.46,2.91,2.91,0,0,0,1.2-2,5.28,5.28,0,0,0-1.19-4.5c-1.93-2.36-5.8-3.76-10.33-3.76a23.19,23.19,0,0,0-3,.2l-.67.1.34-.12c.86-.31,1.93-.69,2.6-1a4,4,0,0,1,1.86-.5,17.48,17.48,0,0,1,2.14.22,19.73,19.73,0,0,1,4.3,1.19c2.61,1.13,5.18,3.35,5.35,4a2.54,2.54,0,0,0,.78,1.44.69.69,0,0,0,.41.13c.59,0,1.09-.56,2.87-3.86a27.37,27.37,0,0,1,9.16-10.21c2.61-1.72,5.63-3,6.58-3a.45.45,0,0,1,.38.29.35.35,0,0,1,0,.24h0c-1.78,0-8.08,4.39-11.31,7.55-1.11,1.11-1.18,1.27-1,1.59l.13.31h.34c.22,0,.35-.09.87-.61,3.06-2.72,7.37-4.93,8.89-4.93A.53.53,0,0,1,176,58a.59.59,0,0,0,.58.37,6.75,6.75,0,0,0,2.36-.94A27.68,27.68,0,0,1,191.59,54a12.91,12.91,0,0,1,7,1.71,4.67,4.67,0,0,1,2.27,3.13v.06a5.8,5.8,0,0,0-1-1.63c-1.46-1.6-4-2.47-7.06-2.47a18.42,18.42,0,0,0-3.39.33c-5.35,1-10.78,3.3-12.9,5.59l-1,1.08.47.55-.26.15-.15-.2-.27,0c-.24,0-.42.14-.69.41l-.13.08a1.34,1.34,0,0,1-.1-.76l.06-.24-.16-.25-.15-.19-.28,0c-.16,0-.58,0-2.62,2-2.59,2.51-3.66,3.87-2.24,5.4a1.89,1.89,0,0,0,1.69.69c.26,0,.59,0,1,0a16,16,0,0,0,4-1.11c5.51-2.4,8.31-3.18,12-3.34.56,0,1.08,0,1.56,0,2.92,0,4.38.43,5.58,1.62a2.37,2.37,0,0,1,.92,1.88v.22c-.23-.22-.49-.49-.78-.8a7.58,7.58,0,0,0-3.22-2,12,12,0,0,0-2.78-.27,27.17,27.17,0,0,0-6.37.77c-2.78.7-2.95,1.07-2.9,1.52s.78.57,1.06.57h0a19.72,19.72,0,0,0,3.71-.55,12.34,12.34,0,0,1,2.45-.3H187l-.9.24a11.17,11.17,0,0,0-2.72,1c-.46.25-.79.44-.69.86a.57.57,0,0,0,.63.4c.2,0,.58,0,1.22-.1a18.8,18.8,0,0,0,2.81-.43h.18c.36,0,.63.09,1.24.63.91.84,1.27,1,3.41,1l2.23,0h1.14c2.73-.09,4.76-.15,6.18-.15,2.61,0,3.26.2,4.14.67a9,9,0,0,0,2.13.8c.19,0,1.16.17,1.86.3l.12,0a3.71,3.71,0,0,1,2.63,1.72,5.55,5.55,0,0,0-3.65-1.66l-.35,0c-.59.05-1,.07-1.12.38A8.16,8.16,0,0,0,205.53,72a9.27,9.27,0,0,0-3.93-.88,8.16,8.16,0,0,0-2.47.44l-1.28.32.07,1,2.81.24c3.68.41,3.87.47,5.25,1.62,4,3.55,3,12.84-2,19.11a22.36,22.36,0,0,1-8.43,5.7l-.66.23c-1.69.6-1.83.65-1.83,1.07a.13.13,0,0,0,0,.06C190.84,98,184.37,92.58,182.58,92.58Zm71.94,18.47a.8.8,0,0,0-.43.56c-.11.53.2,1.09,2,3.57a43.6,43.6,0,0,1,5.46,9c.62,1.39.88,1.74,1.3,1.74h.27l.18-.25c.12-.18.28-.42-.48-2.26a11,11,0,0,1-.43-1.15l.21,0h.28l.18-.26c.13-.22.26-.42-.67-2.28a8.88,8.88,0,0,1-.54-1.06.86.86,0,0,0,.08-.74,1.18,1.18,0,0,0-.58-.69,1,1,0,0,0-.12-.4,1,1,0,0,0-.53-.58,1,1,0,0,0-.21-.7l.16-.26c.11-.23.14-.45-.49-1.33a.49.49,0,0,0,.21,0h.34l.14-.31c.11-.27.22-.53-2.11-2.85a29.34,29.34,0,0,0-3.36-3.11l-.13-.09h0a.52.52,0,0,0-.3-.08h-.34l-.14.31c-.08.18-.13.3.17.7l-.13,0-1.46-.16.64.62v0l-.1.1,0,0c-.2.62.31,1.14.64,1.47C254.37,110.86,254.46,111,254.52,111.05ZM126,112.67a11.39,11.39,0,0,0,.39,1.7c1.71,5.57,6.53,10.84,9.91,10.84h1.29l.11-1-1.16-.24c-3.53-.71-7.51-5.64-8.69-10.77a12.22,12.22,0,0,1,6.42-14.12,6.5,6.5,0,0,1,3.43-1c.21,0,.45,0,.7,0,4.24,0,7.64,1.86,16.54,9,9.46,7.52,12.74,9.74,15.3,10.34a4.94,4.94,0,0,0,.84.11c.56,0,.73-.29.78-.47.18-.56-.17-1.08-4.44-4-1.09-.75-3.5-2.53-6-4.45.5,0,.71-.5.8-.71.47-1.29-1.35-5.48-2.69-7.34A34.57,34.57,0,0,0,151.69,93a6.75,6.75,0,0,0-3.07-1.07c-1,0-1.16.52-1.16.83a.85.85,0,0,0,.83.83c.66.17,4.18,3.78,6.4,6.76l-.33-.24c-1.94-1.37-6.23-3.89-7.22-3.89a.59.59,0,0,0-.61.41c-.13.45-.05.74,3.31,2.9a69.88,69.88,0,0,1,7.35,5.86c-6-4.7-9.35-6.92-12.49-8.3-2.19-1-2.85-1-6-1a23.33,23.33,0,0,0-3.16.13l2-.72-3.42-1.59a14.68,14.68,0,0,0-3.56-1.09,6.85,6.85,0,0,1,2.88.51,3,3,0,0,0,1.12.36h.26l.24-.24a.59.59,0,0,0,.09-.5c1.44,2.16,2.1,2.16,2.39,2.16a.91.91,0,0,0,.55-.18l.15-.11.1-.26c.07-.31-.08-.65-.49-1.17s-.47-1-.47-4.39a19.48,19.48,0,0,0-.19-3.89c2.73,1.22,6,3.35,6.78,4.65a5.43,5.43,0,0,0,.41.49,9.13,9.13,0,0,0-3.54,1.68c-1,.94-1,1.38-.9,1.66a.64.64,0,0,0,.62.39,2.44,2.44,0,0,0,1.12-.42,12.92,12.92,0,0,1,6.71-1.68,19,19,0,0,1,8.08,1.86,13.55,13.55,0,0,1,6.62,6.87c1.26,2.68,1.88,3.22,2.48,3.22.27,0,.66-.13.91-.79a7.6,7.6,0,0,0-.12-2.39l.44.49c1.06,1.26,2,2,3.23,2a6.07,6.07,0,0,0,2.46-.69,4.35,4.35,0,0,0,2.67-3.18c.36-2.08-.89-4.64-3.52-7.21a49.84,49.84,0,0,0-10.22-7.22,44.42,44.42,0,0,1,7.6,2.58c5.21,2.53,9.45,7.29,9.45,10.61,0,.24,0,.41,0,.53.05.58.48.61.56.61.32,0,.47-.2.82-.68a3,3,0,0,0,.6-1.62c0-1.64-1.7-4.46-4-6.71-4.13-4-9.95-6.41-17.79-7.23-1.71-.17-2.74-.25-3.35-.25a1.47,1.47,0,0,0-1.33.63,1.84,1.84,0,0,0-.27,1.67,2,2,0,0,0,1.37,1.23c3.91,1.42,15.27,10.49,15.75,12.2a.91.91,0,0,1-.17.8.77.77,0,0,1-.6.3h0a.82.82,0,0,1-.65-.37,24.63,24.63,0,0,0-2.64-2.56c-1.47-1.39-2.57-2.06-3.34-2.06a1,1,0,0,0-.81.35,1.33,1.33,0,0,0-.32.78c-.14-.11-.33-.27-.55-.47-3.16-3.07-5.61-4.53-9-5.39a10.78,10.78,0,0,0-2.88-.34,21.61,21.61,0,0,0-4.41.5,1.12,1.12,0,0,0-.08-.52.85.85,0,0,0,.25,0h.31l.2-.31c.17-.32-.12-.82-.54-1.31h.35l.17-.34c.14-.38-.12-.7-.76-1.25a.81.81,0,0,1-.26-.48A1,1,0,0,0,145,85a1,1,0,0,0-.18-.17,1.38,1.38,0,0,0-.38-1.09c-.82-1-4.16-2.82-5.18-2.82a.59.59,0,0,0-.65.49,4,4,0,0,0-1.08-.32.75.75,0,0,0-.67.34.91.91,0,0,0-.07.14,5.82,5.82,0,0,0-.78,0c-.37,0-.78,0-1.17.06l-3.13.62,1.26.43a.61.61,0,0,0-.31.52c0,.24,0,.67,1.79,1.07a9.14,9.14,0,0,1,2,.56l-.09.08c-.62.52-.71,4-.6,6-.31-.56-.67-1.25-1.07-2a23.4,23.4,0,0,0-3.15-4.59c-1.15-1.14-3.79-3-4.87-3h-.31l-.18.05-.29.15v.36c0,.17,0,.57,1.66,1.23,2.1.93,3.91,3.06,6,7.11.53,1,1,1.82,1.4,2.46a4.84,4.84,0,0,0-1.72-.78,3.29,3.29,0,0,1-1.22-.55c-.12-1.14-2-2.75-3.68-3.47a8.85,8.85,0,0,0-3-.7h-.71a9.62,9.62,0,0,0-4.62,1.31c-2.05,1.13-3.34,2.89-3,4.18.11.55.44.63.63.63.42,0,.67-.42,1-1,1.23-2.25,3.54-3.44,6.65-3.44,2.57,0,5.18,1.48,5.19,2.55a11.62,11.62,0,0,1-1.73.08c-3.06,0-5.5.76-6.87,2.13-1,1-.84,1.32-.77,1.49l.13.31.41,0c.12,0,.46,0,1.27-.81a5,5,0,0,1,2.89-1.36,2.07,2.07,0,0,0-.34.15c-1.49.64-3.45,2-3.72,2.84a.71.71,0,0,0,.05.59c.15.29.5.38,1.78.38.54,0,1.2,0,1.89-.06s1.35-.08,1.85-.08a4.57,4.57,0,0,1,2.13.37,3.63,3.63,0,0,0,1.49.42,7.36,7.36,0,0,0,2.29-.6,22.56,22.56,0,0,0-3.51,2.69l.2-.29-2.35.55c-1.66.33-5.15,2.18-5.84,3.27a1.72,1.72,0,0,0-.26,1.77c.27.49.86.73,1.75.73h.37l-.24.53c-.69,1.81-.55,4.77.66,6.08.56.59.94.91,1.35.91S125.82,113.13,126,112.67Zm31.22,10.69a6.42,6.42,0,0,0,2.19.17c.74,0,1.6,0,2.47-.06a18.92,18.92,0,0,0,6.4-.93c6.28-2.16,13.38-8.08,14.91-12.42a3.5,3.5,0,0,0-.07-3,.66.66,0,0,0-.63-.48h0c-.28,0-.66.15-.82,1.42-.39,2.1-1.77,4.18-4.47,6.72-4.43,4.26-8.84,6.48-14.33,7.21a17.67,17.67,0,0,1-2.42.17,11.26,11.26,0,0,1-4.95-.94,3.07,3.07,0,0,0-1.08-.31.6.6,0,0,0-.65.59C153.73,122.35,156.69,123.22,157.19,123.36Zm-15.8-23.49a5.12,5.12,0,0,0-2.5.71c-1.49.9-2.42,2.61-2.71,5a17,17,0,0,0,4.5,13c1.61,1.61,2.34,1.8,2.74,1.8s.86,0,1-.47-.36-.69-1-1a8.17,8.17,0,0,1-3.32-3.5,14.43,14.43,0,0,1-1.83-10.5,4,4,0,0,1,1.79-2.59,2.48,2.48,0,0,1,1.16-.3c2.28,0,5.19,3.31,8.65,9.83,2.47,4.58,4.18,6.54,5.72,6.54.31,0,1.24,0,1.42-.66s-.54-1.12-1.09-1.43c-1.16-.54-2.93-3.54-4.51-6.41a31,31,0,0,0-5.38-7.72,8.32,8.32,0,0,0-4.55-2.27h0v0l0,.24Zm58.15-26.42a3.45,3.45,0,0,0-1.69.42.63.63,0,0,0-.29.72c.16.46.64.53,2.22.53,1.86,0,1.9,0,2.87,1,2.33,2.57,2.53,8.6.46,14.33-.14.41-.22.67,0,.92l.15.21h.27a.77.77,0,0,0,.53-.28c.27-.17.5-.8,1.19-3,1.08-4,1.23-7.08.5-9.38-.66-2.57-1.7-4.23-3.06-4.92a8.09,8.09,0,0,0-3.11-.54Zm-16.22,6c-.1.28-.1.61,1,1.6,1.46,1.22,2.39,2.59,2.39,3.5,0,.28,0,1,.65,1a.89.89,0,0,0,.56-.23c.57-.56.33-1.34-.26-2.52-.74-1.48-2.75-3.74-3.83-3.74h-.35Zm18.77,5.63,1,0,.08-2.14a17.83,17.83,0,0,0-.43-4.68c-.63-2.54-.86-2.78-1.31-2.78a.74.74,0,0,0-.67.27.59.59,0,0,0-.12.37c-.33-.52-.68-.88-1-.88h-.12l-.11,0a.64.64,0,0,0-.32.43,1.86,1.86,0,0,0,.49,1.32A14.82,14.82,0,0,1,201,82.07v1l.91.08Zm-13.94-2.21a.67.67,0,0,0,.06.52.8.8,0,0,0,.68.34.85.85,0,0,0,.83-.83,4.44,4.44,0,0,0-.75-2.08,2.83,2.83,0,0,0,1.39.7.6.6,0,0,0,.55-.31c.2-.34,0-.74-.19-1.05-.28-.49-3.13-3-3.81-3a.71.71,0,0,0-.74.41.66.66,0,0,0,.09.65l-.17-.06h-.28l-.14.08-.2.13,0,.26c0,.21-.05.45,1.29,1.79C188,81.5,188.2,82.11,188.15,82.84Zm70.78-1.18a1.62,1.62,0,0,1,.24.14,4.87,4.87,0,0,0,1.78.56.66.66,0,0,0,.73-.65.36.36,0,0,0-.06-.23,9,9,0,0,0,1.62.57c.53,0,.67-.29.71-.46.11-.53.13-.63-5.13-3-2.49-1.12-5.49-2.62-6.54-3.27a11.08,11.08,0,0,0-2.48-1.22h-.25l-.07,0a.48.48,0,0,0-.35.35c-.1.33,0,.57,1.06,1.21.75.47.75.92.75,1.06,0,1.19.79,1.66,3.82,3.25a19.6,19.6,0,0,0,3.73,1.65ZM248.39,71.31a.54.54,0,0,0-.59.58c0,1.13,11,6.59,12.86,7.31s2,.83,2.19.83h.39l.12-.4c.11-.47.13-.54-4.59-3s-7.16-3.66-9.13-4.86A3.39,3.39,0,0,0,248.39,71.31ZM158.73,348.55c-2-1.09-3.67-2-4.63-2.69-2.13-1.44-4-2.78-5.51-4l.17.11c.8.56,1.79,1.23,2.73,1.86s1.86,1.26,2.45,1.68C155.55,346.63,157,347.54,158.73,348.55Zm-14.66-11.14c-.12-.18-.24-.4-.39-.64ZM285,313.5l-1-.58a72.14,72.14,0,0,1-8.44-6.32A105.44,105.44,0,0,0,285,313.5Zm-16.38-14.27a67.53,67.53,0,0,0-6.24-2.7c-3.11-1.06-3.27-1.09-11.76-2.76l-2.83-.56a55.26,55.26,0,0,1-7.26-2.48c.46-.53,1.36-1.5,2.48-2.62l2.74-2.81,1.38,1.12a49.22,49.22,0,0,0,8.88,5.85,66.87,66.87,0,0,1,11.69,6.3C268,298.8,268.29,299,268.57,299.23Zm-27.69-6.79.69.28a.92.92,0,0,0-.43.34Zm-12.27-.29-.19,0c.21-.4.27-.64.13-.88l-.14-.25h0l.14-.15h0c.41,0,.7-.35,1-.91a2.48,2.48,0,0,1,.19-.31.53.53,0,0,0,.45.25c.43,0,.57-.4.72-.86.05-.17.1-.3.13-.39a3.29,3.29,0,0,1,.26.51,4.26,4.26,0,0,0,.93,1.72,1.93,1.93,0,0,1,.32.4.93.93,0,0,1-.28,0,1,1,0,0,1-.63-.18c-.07-.2-.22-.67-.68-.67a.69.69,0,0,0-.55.31,1,1,0,0,0-.72-.45c-.57,0-.74.58-1,1.62C228.66,292,228.63,292.08,228.61,292.15Zm2.19-7.83a.64.64,0,0,1-.18-.18,2.07,2.07,0,0,1-.38-.74,4.54,4.54,0,0,0,.79.45l.27.16A1.76,1.76,0,0,1,230.8,284.32Zm5.95-1.59c-1.63,0-1.91-.3-1.91-.3a.79.79,0,0,1-.09-.36.66.66,0,0,0,0-.66l-.14-.24h-.15l1-.48,0,.27c.11,1.1.51,1.45,1.66,1.45a3.29,3.29,0,0,0,2.51-1.41l.08-.08C239.48,282.18,238.93,282.73,236.75,282.73Zm-5.85-1.61a2.45,2.45,0,0,1-.75-1.13,20.36,20.36,0,0,0-2.17-4.55c.64-.22.93-1.32,1-1.68a4.39,4.39,0,0,0-1.12-4.74L227,268a16.4,16.4,0,0,0,3-1.08c-.26.35-.19.54-.15.64l.11.34.41,0a3.87,3.87,0,0,0,1.47-.77c.3-.2.86-.66.71-1.16l-.1-.35-.4,0a51.36,51.36,0,0,0,6.79-5.62,1.13,1.13,0,0,0,.1-.13c-.36,1.22-.11,1.47,0,1.57l.15.14h.23c.52,0,1.91-1.44,2.49-2.06l1.55-1.76.37.37a2.06,2.06,0,0,0,1.62.71,6.14,6.14,0,0,0,.95-.08c.4,0,.68-.07.88-.07h0c0,.1,0,.26,0,.4,0,.73-.24,1.53-3.1,1.82a5.15,5.15,0,0,0-3.92,1.77c-1.16,1.16-1.52,1.57-1.36,2.05a.71.71,0,0,0,.63.47c.2.05.38.24.52.59a.62.62,0,0,0-.09-.12.82.82,0,0,0-.56-.28c-.71,0-.71.83-.71,1.87A30,30,0,0,1,237,276c-.79,2.61-.89,2.65-1.84,3a10.42,10.42,0,0,0-2.72,1.67l-1.07.94Zm-1.41-13.25a.76.76,0,0,0-.52.23c-.63.47.05,2.52.05,2.54.1.28.29.87.8.87h.23l.17-.18c.33-.37.2-1.49.18-1.62,0-1.2-.3-1.84-.91-1.84ZM226,278.63a11.65,11.65,0,0,0-1.39-2.37l.06-.24a.7.7,0,0,0,.37.55A6.39,6.39,0,0,1,226,278.63ZM224.35,276a.48.48,0,0,0-.29-.12h0a4.38,4.38,0,0,0-.09-1Zm-.52-1.45a.72.72,0,0,0-.51-.4h-.22l-.13,0a2.39,2.39,0,0,0,.12-.22.89.89,0,0,1,.32-.41,1.5,1.5,0,0,1,.24.5Zm-3.22-.7a6.29,6.29,0,0,1-.28-1.12A6.28,6.28,0,0,1,220.61,273.84Zm-5.74-.84c0-.27,0-.5.07-.67l.33.39Zm6.86-.73a1.12,1.12,0,0,1-.3-1c0-.05,0-.08.14-.08h.12A8.76,8.76,0,0,1,221.73,272.27Zm2.72-.5a3.57,3.57,0,0,1-.67-.77.7.7,0,0,0,.25.05.59.59,0,0,0,.57-.46.71.71,0,0,0,.06-.42,1.53,1.53,0,0,0,.64.47,1.39,1.39,0,0,0-.73.84A.85.85,0,0,1,224.45,271.77Zm19.47-2.22.21,0c0,.14-.09.23-.11.28l-.14,0C243.9,269.79,243.91,269.67,243.92,269.55Zm8.61-8.16c.55-2.3.93-4.08,1.16-5.57,0,0,0,0,0,0,.48,1,.48,1.19-.76,4.49C252.81,260.72,252.67,261.07,252.53,261.39Zm-6.79-4.4a.68.68,0,0,1-.12-.09l0,0a2.57,2.57,0,0,1-.08-.69c0-1.12-1.48-3.47-2.64-3.47a.31.31,0,0,1-.17,0s-.07-.4.36-1.22c.13-.29.25-.52.34-.7a40.24,40.24,0,0,1,2.62,4.83,1.56,1.56,0,0,1-.11,1.26A.42.42,0,0,1,245.74,257Zm8.16-2.82a15.11,15.11,0,0,0-.05-3.38.6.6,0,0,0,.35.1h.11l.16-.06c.63-.31.46-1.47.44-1.6-.15-.75-.38-1.58-.58-2.27h0a.44.44,0,0,0,.5-.41c.05.63.08,1.36.11,2.18l.15,4.44-.69.51A4.71,4.71,0,0,0,253.9,254.17Zm-13.76-1.57a5,5,0,0,0,.65-1.16,3.63,3.63,0,0,0-.09,1A1.46,1.46,0,0,1,240.14,252.6ZM233,249.72c-.07,0-.21-.11-.36-.35h.05a.66.66,0,0,0,.57-.36c-.09.32-.17.57-.22.69Zm15.11-.67c-.37,0-.77-.32-1.89-2.08a11.86,11.86,0,0,0-2.48-3.05l.07-.12c1.15,1.36,1.54,1.36,1.71,1.36a.65.65,0,0,0,.29-.06l0,.06c.52.87.86.87,1,.87h.21l.19-.17c.16-.15.25-.29.06-.75,1.19,2,1.49,2.86,1.32,3.59C248.61,248.88,248.58,249.05,248.14,249.05Zm-8.46-.64-.29,0h-.11c0-.2.08-.42.11-.67.07-.41.17-1,.26-1.34a3.61,3.61,0,0,1,.15,2.19Zm-2.33-1.28a.6.6,0,0,0-.27-.06.5.5,0,0,0-.16,0V247a9.84,9.84,0,0,1,.08-1.26A5,5,0,0,1,237.35,247.13Zm-5.5-.86c-.19-.71-.37-.94-.75-.94a.6.6,0,0,0-.52.32,9.3,9.3,0,0,0-.88-2.5,4.38,4.38,0,0,0,1.17.84A3.66,3.66,0,0,1,231.85,246.27ZM234,246a3.35,3.35,0,0,1,.33-1l.17.27a2.25,2.25,0,0,1,.29.58l-.06-.07-.27,0A.54.54,0,0,0,234,246Zm2-2.87a1.31,1.31,0,0,1-.57-.37,2.35,2.35,0,0,1-.46-.61h0s.08-.08.33-.25c.81-.67.69-1.14.36-2.14-.26-.59-.45-1.1-.56-1.44a6,6,0,0,1,1.48,3.17A2.32,2.32,0,0,1,236,243.11Zm24.28-1.47c-.12-.39-.26-.86-.44-1.33l-.1-.4A2,2,0,0,1,260.27,241.64Zm-27.91-.33c-.43-.58-.87-1.09-1-1.25a4.75,4.75,0,0,1-.43-.54A4.54,4.54,0,0,1,232.36,241.31Zm-86-.53h.06a.6.6,0,0,0,.4-.15l-.41.41C146.42,241,146.4,240.88,146.38,240.78ZM262.21,240a2.72,2.72,0,0,1-.26-.41,5.35,5.35,0,0,1-.4-1.87,12.1,12.1,0,0,1,.62,2A1.25,1.25,0,0,1,262.21,240Zm-25.42-2.29c-.45-.57-.94-1.12-1.24-1.44-1.2-1.31-1.4-1.79-1.43-1.94l.16,0C234.73,234.4,235.87,236,236.79,237.7ZM136.46,201.94a7.27,7.27,0,0,0-3-1.71,8.54,8.54,0,0,1-2.36-1.12,3.7,3.7,0,0,1-.46-3.45c.16-.61.65-2.18,1.09-3.57l.15-.48c.3-.94.57-1.82.75-2.43.12-.39.2-.67.24-.77a3.88,3.88,0,0,1,.88,1.42,12.79,12.79,0,0,0,1.4,2.7c.5.69.55.75.22,2.9-.35,2.51-.24,3.18.94,6,.11.25.19.46.25.63Zm48.25-14.56a7.91,7.91,0,0,0,3.09-3.59c.22-.68.26-.68.5-.68l.38,0c.45.05.59.07.89,1a3.57,3.57,0,0,1,.25.85,3,3,0,0,1-.44.3l-.89.48.29.8C187.52,186.86,186.07,187.15,184.71,187.38Zm-6-1.09a4,4,0,0,1-1.38-.68c-1.29-.92-2.83-3.25-2.83-4.3,0-.7-.17-1.11-.49-1.21a4.4,4.4,0,0,1,.5-.2l.27-.07a7.16,7.16,0,0,1,0,.9,6.63,6.63,0,0,0,3.3,5.31A5.22,5.22,0,0,0,178.67,186.29Zm3.65,0a4.76,4.76,0,0,0,1.24-.6,5.76,5.76,0,0,0,2.53-4.06,3.82,3.82,0,0,0-.94-2.84l.34.08.87.21a2.83,2.83,0,0,0,.47.1.84.84,0,0,0-.22.17,1.85,1.85,0,0,0-.2,1.45,6.69,6.69,0,0,1-.44,2.36A4.36,4.36,0,0,1,182.32,186.28Zm57.31-1a4.1,4.1,0,0,1-1.73-4.85c.18-.78.3-1,.8-1.18a4.87,4.87,0,0,0,.65,5.75A2.47,2.47,0,0,0,239.63,185.3ZM180.17,185a2.78,2.78,0,0,1-1-.17,5.84,5.84,0,0,1-3-4.15,1.54,1.54,0,0,1,1.49-1.73l.14,0a.46.46,0,0,1,0,.09,4.22,4.22,0,0,0-.1,2.25c.26,1.12,2.25,3.48,3.44,3.48s2.65-1.85,2.65-3.06a3.43,3.43,0,0,0-1.61-2.7,3,3,0,0,1,2.26,2.45C184.43,183.13,182.24,185,180.17,185ZM128,184.61a1,1,0,0,1-.1-.39c-.08-.51-.73-3.5-1.49-6.74-.68-2.84-1.07-5-1.14-5.65h.12a13.79,13.79,0,0,0,1.72,2.21l1.53,1.69v2.44C128.56,183.25,128.15,184.37,128,184.61Zm114.6-1.28a2.39,2.39,0,0,1-.41-.33,1.67,1.67,0,0,1-.16-1.73,1.79,1.79,0,0,1,.31-.51c.19.31.62.31.92.31a.63.63,0,0,1,.69.49,1.46,1.46,0,0,1-.84,1.54A5.14,5.14,0,0,1,242.61,183.33Zm-61.47-1.05a.81.81,0,0,1-.54-.31c-.14-.17-.25-.31-.34-.44a1.55,1.55,0,0,0,.49-.21l0,0,0,0,0,0,0,0H181a.42.42,0,0,1,.32.16.64.64,0,0,1,.1.55C181.35,182.28,181.2,182.28,181.14,182.28Zm93.36-3c.41-.79.89-1.77,1.29-2.6a9.33,9.33,0,0,1-.53,1.94C275.11,178.6,274.88,178.7,274.5,179.24ZM269.65,175a2.46,2.46,0,0,0,.2-1.28,1.42,1.42,0,0,1,.07.43,1.64,1.64,0,0,1-.31.93Zm-114.81-.62a11.4,11.4,0,0,1-2.72-.38,8.42,8.42,0,0,1-4.84-2.4,4.11,4.11,0,0,1,.35.29c1.8,1.44,3.11,1.86,7.37,2.35l1,.08C155.57,174.34,155.2,174.36,154.84,174.36ZM260.78,172a37.34,37.34,0,0,0-11-2.68c-.32,0-.59-.05-.83-.08.42,0,1-.07,1.62-.07,2,0,4.59.12,6.47.27l-.13.68,1.74.66a22.43,22.43,0,0,1,4,1.94Zm7.57.48a5.73,5.73,0,0,0-1.48-1.88,60.93,60.93,0,0,0-7.78-4.2c.46.12,1,.27,1.44.43a44.9,44.9,0,0,1,4.92,1.87v.11c0,.19,0,.46,1.7,1.66a9.45,9.45,0,0,1,1.87,1.77.48.48,0,0,0-.18,0h-.5Zm1.85-2.75c-.31-.17-.75-.49-1-.65-.6-.43-1.28-.86-2-1.28A7.74,7.74,0,0,1,270.2,169.75Zm-103.26-.47a66.08,66.08,0,0,0,8.75-4.21,11.85,11.85,0,0,1,1.89-.89c-1,.44-2.72,1.47-2.81,1.52A45.31,45.31,0,0,1,166.94,169.28Zm-8.39-1c1.23-.27,2.66-.63,4.08-1-1.28.38-2.52.71-3.63.93Zm35.72-.48c-1.47-.81-3.14-1.84-4.55-2.75,1.36.77,1.58.77,1.7.77h.21l.17-.16c.37-.35,0-1.15-.25-1.68l.53.22a27.25,27.25,0,0,1,4.68,2.25,1.09,1.09,0,0,0,.07.61l-.73-.31a7.5,7.5,0,0,0-2.36-.8.6.6,0,0,0-.63.43C193,166.67,193.08,167,194.27,167.79Zm73.19-3.71A30.08,30.08,0,0,0,259.3,161l-.86-.17c.28,0,.56-.06.8-.08a20.23,20.23,0,0,1,4.69.56,7.41,7.41,0,0,1,3.14,2.32ZM145.58,153.23c.15-.57.28-1.16.4-1.78.84-4.21.58-7.63-.79-10.46-.5-1-.86-1.72-1.14-2.19l.19.29a10.8,10.8,0,0,1,2.07,5.5A18.37,18.37,0,0,1,145.58,153.23Zm131.8-1.56c0-1.87.08-6.76.16-8.89,0,.06.09.13.15.2.58.94,1.16,1.4,1.73,1.4.36,0,1-.2,1.23-1.52.35-1.47.1-3.27-.92-6.58l-1.07-4-1.45,4.08c0,.09-.07.18-.11.28a25,25,0,0,0,.58-12.34c-1-5.35-2.07-7.88-7-16.9L268.26,103l-.65-4.53c-.52-3.53-.95-5.26-1.61-6.59a7.53,7.53,0,0,0-.68-1.27,12.72,12.72,0,0,1,2.47,1.72c3.88,3.33,6.85,7.93,7.75,12,.28,1.47.47,2.45,1.65,2.45a5.4,5.4,0,0,0,3.27-2c1-1.27,1.44-3.53,1.27-6.38A10.59,10.59,0,0,0,279,91.36l-.31-.37c1.92.34,4.53,3,6.26,6.46a19.8,19.8,0,0,1,2.1,7.2,22.91,22.91,0,0,1-1.77,7.3c-1.59,3.36-4.63,5.7-6.38,5.7a1.14,1.14,0,0,1-1-.49c-.28-.42-.51-.66-.83-.66s-.58.14-.58.7a1.62,1.62,0,0,0,.88,1.4,3.59,3.59,0,0,0,1.77.42,5.09,5.09,0,0,0,2.47-.65l.7-.32,1.41,1.54c2.17,2.34,5.42,8.65,6,11.64.06.31.11.62.14.93l-.15-.57a36.5,36.5,0,0,0-3.44-8.29c-1-1.9-1.2-1.9-1.5-1.9h-.28l-.16.25c-.13.22-.24.41.9,2.72l-.09.08-.12.06-.1.25c-.16.5.39,1.62.73,2.25a33.17,33.17,0,0,1,2.81,7.66c-1.05-3.94-3.31-8.94-5.13-11-1-1.21-1.35-1.31-1.61-1.31h-.3l-.19.3c-.12.23-.28.52,1.14,2.61A37.61,37.61,0,0,1,287.59,137c-.11-.32-.23-.7-.35-1.13a35.16,35.16,0,0,0-4.44-9.64c-1.18-1.73-2-2.61-3.14-2.61a.63.63,0,0,0-.53.29c-.13.21-.53.86,1.9,5.71v0h-.3l-.12.1c-.44.26-.4.79.55,3.62,0,0,0,0,0,0l-.09-.05a.74.74,0,0,0-.44-.15h-.5v.5a1.62,1.62,0,0,0,.11.57l0,.06,0,.06a3.09,3.09,0,0,1-.08,1,7.89,7.89,0,0,0,.17,3.08,30.86,30.86,0,0,1,.65,4.21c.34,2.7.75,2.84,1,2.92l.08,0h.14l.18,0v.18c0,1.67.19,2.23.75,2.23h0c.07.78.21.88.6.88s.56-.39.68-.7c.28-.75.29-2.32,0-5.59a55.65,55.65,0,0,0-1.18-7.32,42.63,42.63,0,0,1,2,10c.16,2.31.09,2.56-.61,4.13-.65,1.29-1.38,1.87-1.81,1.87a.47.47,0,0,1-.39-.23,1.86,1.86,0,0,0-1.57-.67,6.11,6.11,0,0,0-2.79.86Zm-86.91-5.81-.22-.16h.34l.18-.23A.89.89,0,0,1,190.47,145.86Zm-25.72-14.07a3.79,3.79,0,0,1-2-.6,3.13,3.13,0,0,1-2.05-3.35c0-.94,0-1.9-1.16-1.9a3.17,3.17,0,0,1-.62-.14l1.11,0c.51,0,1,0,1.45,0s.93-.08,1.22-.08l.31,0a1.16,1.16,0,0,0,1.16.89c.11,0,.35,0,.6.66.47,1.42,2.18,2.28,4.56,2.28a12.14,12.14,0,0,0,2.62-.31h0l-.34.28a10.81,10.81,0,0,1-5.76,2.2A9.64,9.64,0,0,1,164.75,131.79Zm39.12-1.59a3.92,3.92,0,0,1-2.14-.38c-.36-.41-.39-.65-.37-.83.1-1.08,2.53-3.1,7-6.45a76.2,76.2,0,0,0,11.22-10.07A32.42,32.42,0,0,1,213,124.78c-1.86,2-5.11,4.53-6.57,5.06A8.47,8.47,0,0,1,203.87,130.2Zm88.5-1.83a7,7,0,0,0-.88-2.5c-.95-2-5.37-7.94-7.22-9.25a2.91,2.91,0,0,1,.26-.29,3.16,3.16,0,0,0,1.41,1.13c2,1.12,6,6.74,6.94,9.71a.75.75,0,0,1-.2.89ZM111.9,127.09a2.35,2.35,0,0,1-.62-.07c-1.46-.33-1.87-.59-2-.76s0-.05,0-.16a7,7,0,0,0,.15-.72,7.89,7.89,0,0,1,.8.35,14.28,14.28,0,0,0,3.12,1.23A11.89,11.89,0,0,1,111.9,127.09Zm11.47-1c-.28-.07-.63-.16-1-.28a11,11,0,0,1-2.07-.63c-1.48-.6-4-1.63-6.06-2.59,3.62,1.52,7.79,3.05,9,3.05h.15s0,.11,0,.31Zm170.12-1.41c-.23-.51-.5-1-.78-1.56a12.28,12.28,0,0,1,1,2.1C293.66,125,293.57,124.86,293.49,124.66Zm-181.44.21a6.57,6.57,0,0,1-2-.9.56.56,0,0,1-.14-.38A11,11,0,0,0,112.05,124.87Zm181.33-4a21.55,21.55,0,0,0-6.67-6.92l-.13-.1s0,0,0,0a4.13,4.13,0,0,1,.62.32A16.13,16.13,0,0,1,293.38,120.9Zm-59.75-1.47a41.81,41.81,0,0,0,4.28-5.1,42.79,42.79,0,0,0,5.93-13.71s.13-.61.18-.81c1,2.59-1.9,11.48-5.82,15.64A33.35,33.35,0,0,1,233.63,119.43Zm59.1-2.83c-.27-.24-.59-.57-1-1-.65-.69-1.47-1.5-2.2-2.15a21.38,21.38,0,0,1,1.89,1.69C292,115.79,292.45,116.26,292.73,116.6Zm.78-1.59c-.11-.12-.24-.29-.41-.51a1.34,1.34,0,0,0-.11-.14A2.68,2.68,0,0,1,293.51,115Zm-1-3.28a19.92,19.92,0,0,0-2.47-2,5.1,5.1,0,0,1-1.26-1.06l.32.07a14.31,14.31,0,0,1,3.39,2.72A.65.65,0,0,0,292.55,111.73Zm-98.16-9.57c-.45,0-.53,0-1-.76a1.86,1.86,0,0,0,.79.14,15.67,15.67,0,0,0,3.89-.7c5.73-1.77,12.46-8,15.65-14.45a8.67,8.67,0,0,0,1.29-5.5,18.16,18.16,0,0,0-.09-2.35,5.55,5.55,0,0,0,.2.62c.76,2.84-.17,7.42-2.46,11.9a21,21,0,0,1-7.7,7.78,34.23,34.23,0,0,1-9.48,3.25C195,102.13,194.65,102.16,194.39,102.16ZM241,99.91c0-.78,0-1.77,0-3.1,0-.54,0-1.27,0-2A25.48,25.48,0,0,1,241,99.91Zm36.4-.29a40.05,40.05,0,0,0-2.17-4.85,35.8,35.8,0,0,0-3.77-6,28.57,28.57,0,0,1,5.89,10.59A1.6,1.6,0,0,1,277.41,99.62ZM204.86,95A20.18,20.18,0,0,0,210.27,81a11,11,0,0,0-1.75-6.59l.63.29a6.55,6.55,0,0,1,3.64,3.72c.75,2.16.27,5-1.41,8.31A26.63,26.63,0,0,1,204.86,95ZM257.94,88a37,37,0,0,1-6.91-4.3c-1.95-1.62-2.34-1.62-2.56-1.62a.58.58,0,0,0-.54.33c-.14.27-.11.59.41,1.36-2.55-2.32-4.19-3.59-5.71-4.2a3.25,3.25,0,0,1-.69-.4l.09-.08a18.31,18.31,0,0,0,1.53-2.81l.68-1.31.23.49c1.77,4.05,6.46,8.14,12.86,11.21,3.7,1.74,5.86,2.78,7.26,3.51a.86.86,0,0,0-.64.52l-.15.28Zm24.28,1.91a1.71,1.71,0,0,1-1-.27,1.12,1.12,0,0,0,.18-.2,3.4,3.4,0,0,0,.35-2.72c-1.24-3.09-6.31-6.33-17.52-11.19-2.9-1.19-6.41-2.83-8-3.62a76.22,76.22,0,0,1-8.07-4.7A6.15,6.15,0,0,1,250.36,66a11.38,11.38,0,0,1,3.14-.47,5,5,0,0,1,1.58.14,3.75,3.75,0,0,1-.48.7c-.34.44-.41.44-.51.44a4.07,4.07,0,0,1-.86-.2,4.73,4.73,0,0,0-1.33-.26,1,1,0,0,0-1.12,1.16c0,.89,1.31,2,2.65,2.14a3.45,3.45,0,0,0,.75.08c2.52,0,5.19-2.24,5.19-4.37v-.21l.57.32A38.31,38.31,0,0,1,264.23,69c4.19,3.81,11.23,8.47,13.45,8.47,1.36,0,5.44,3.65,6.56,6.22.89,1.92.7,4.69-.38,5.7A2.86,2.86,0,0,1,282.22,89.94ZM214.7,77.74a6.86,6.86,0,0,0-.76-1.51,7.83,7.83,0,0,1,.69,1C214.64,77.32,214.66,77.5,214.7,77.74ZM233.44,71a3.68,3.68,0,0,1-.32-1.15c-.51-3.66-1.56-5.51-4.32-7.58l-.73-.52.46-.58a.85.85,0,0,0,0,.54,1.09,1.09,0,0,0,.58.65,8.77,8.77,0,0,1,3.58,4A10.85,10.85,0,0,1,233.44,71Zm5.05-8.3a22.61,22.61,0,0,1,1.68-2.09,14.45,14.45,0,0,1,8.27-4.54c1.51-.11,2.09-.31,2.27-.61a2.31,2.31,0,0,0,.1.28c.18.5.3.88.38,1.14l-.52-.14a3.8,3.8,0,0,0-1.32-.22,12.91,12.91,0,0,0-5.14,1.57A17.63,17.63,0,0,0,238.49,62.68Zm-57.35-1.2a.57.57,0,0,0,0-.24L181,61l.37-.16a.5.5,0,0,0,0,.24l.08.27Zm3-.3a.6.6,0,0,0,0-.23l0-.18,1.15-.38h0a.5.5,0,0,0,.18.31l-.91.33ZM258.47,57a26.26,26.26,0,0,1-1.92-6.12,24.2,24.2,0,0,0-6.46-12,25,25,0,0,1,5.06,5.81c1.92,3,2.57,5.07,2.89,9.17C258.15,55,258.32,56.16,258.47,57Zm-2.18-.22c-1.73-1.92-3.08-4.8-4.12-8.81a23.47,23.47,0,0,0-2.29-6.14,25.07,25.07,0,0,1,4.71,9.61A48.32,48.32,0,0,0,256.29,56.81Zm-5.88-2.48-.22-.32a15.25,15.25,0,0,1-1.72-5.8,25.89,25.89,0,0,0-.67-4.07,15.17,15.17,0,0,0-.72-2.31,15.89,15.89,0,0,1,3,9.6A14.4,14.4,0,0,0,250.41,54.33Zm-65.92-18.4c.62-.93,5.85-4,9.84-5.23a37.88,37.88,0,0,1,6.53-1.57,42,42,0,0,0-14.57,6A4.65,4.65,0,0,1,184.49,35.93Z"/></g></g></svg>