<svg xmlns="http://www.w3.org/2000/svg" viewBox="0 0 362 307"><defs><style>.cls-1{fill:#1a1a1a;}</style></defs><title>kowala</title><g id="Layer_2" data-name="Layer 2"><g id="Layer_1-2" data-name="Layer 1"><path class="cls-1" d="M145,131.58c4.56,9.74,13,17.65,22,22.33V109.34Z"/><polygon class="cls-1" points="219.54 229 231.51 229 225.53 211.85 219.54 229"/><polygon class="cls-1" points="308.73 211.85 302.75 229 314.71 229 308.73 211.85"/><path class="cls-1" d="M0,307H362V0H0Zm185.42-64h-10l-7.6-29.46L160.16,243h-9.95l-10-40h8.8l6.22,31.47,8-31.47h8.92l8.12,31.47L186.57,203h8.81Zm118.71-40h9.26l14.9,40h-8.57l-2.82-8H300.62l-2.88,8h-8.57ZM258,203h8v34h13v6H258Zm-21.48,40-2.82-8H217.41l-2.87,8H206l15-40h9.27l14.9,40Zm-49-185.41a54.25,54.25,0,1,1-54.25,54.25A54.31,54.31,0,0,1,187.49,57.59ZM90,212.13a19.18,19.18,0,0,1,7.31-7.4,21.51,21.51,0,0,1,20.65,0,19.18,19.18,0,0,1,7.31,7.4,22.88,22.88,0,0,1,0,21.49A19,19,0,0,1,118,241a21.44,21.44,0,0,1-20.65,0A19,19,0,0,1,90,233.62a22.88,22.88,0,0,1,0-21.49ZM43,203h8v17.9L66.25,203H76L58.83,222.66,76,243H66.2L51,224.7V243H43Z"/><path class="cls-1" d="M167,69.76a48,48,0,0,0-11.07,7.48L167,88.31Z"/><path class="cls-1" d="M151,82.75a46.63,46.63,0,0,0-8.66,41L167,98.8Z"/><path class="cls-1" d="M101.35,234.54a13,13,0,0,0,12.55,0,11.06,11.06,0,0,0,4.23-4.63,17.11,17.11,0,0,0,0-14.1,11.06,11.06,0,0,0-4.23-4.63,13,13,0,0,0-12.55,0,11.06,11.06,0,0,0-4.23,4.63,17.11,17.11,0,0,0,0,14.1A11.06,11.06,0,0,0,101.35,234.54Z"/><path class="cls-1" d="M199,66.56a46.82,46.82,0,0,0-23.95.26V90.7Z"/><path class="cls-1" d="M222.08,143.18a46.65,46.65,0,0,0-15.24-73.83L177.68,98.78Z"/><path class="cls-1" d="M175,156.85a46.6,46.6,0,0,0,41.53-8.51L175,106.83Z"/></g></g></svg>