<svg xmlns="http://www.w3.org/2000/svg" xmlns:xlink="http://www.w3.org/1999/xlink" viewBox="0 0 361.93 306.65"><defs><style>.cls-1{fill:#1a1a1a;}.cls-2{fill:url(#New_Gradient_Swatch_1);}.cls-3{fill:url(#New_Gradient_Swatch_1-2);}.cls-4{fill:url(#New_Gradient_Swatch_1-3);}.cls-5{fill:url(#New_Gradient_Swatch_1-4);}.cls-6{fill:url(#New_Gradient_Swatch_1-5);}.cls-7{fill:url(#New_Gradient_Swatch_1-6);}.cls-8{fill:url(#New_Gradient_Swatch_1-7);}.cls-9{fill:url(#New_Gradient_Swatch_1-8);}.cls-10{fill:url(#New_Gradient_Swatch_1-9);}.cls-11{fill:url(#New_Gradient_Swatch_1-10);}</style><linearGradient id="New_Gradient_Swatch_1" x1="-1457.82" y1="-246.01" x2="338.71" y2="146.26" gradientUnits="userSpaceOnUse"><stop offset="0" stop-color="#d3161a"/><stop offset="0.23" stop-color="#e2640f"/><stop offset="0.42" stop-color="#ffcd0b"/><stop offset="0.45" stop-color="#fdcd0c"/><stop offset="0.48" stop-color="#f6cb0f"/><stop offset="0.51" stop-color="#e9c814"/><stop offset="0.53" stop-color="#d7c41a"/><stop offset="0.55" stop-color="#bebd22"/><stop offset="0.57" stop-color="#9bb529"/><stop offset="0.59" stop-color="#68aa31"/><stop offset="0.6" stop-color="#4fa534"/><stop offset="0.64" stop-color="#3e9937"/><stop offset="0.72" stop-color="#1b853a"/><stop offset="0.78" stop-color="#057e3b"/><stop offset="0.8" stop-color="#0a7e3f"/><stop offset="0.83" stop-color="#157f4a"/><stop offset="0.86" stop-color="#1f815f"/><stop offset="0.91" stop-color="#2a857d"/><stop offset="0.95" stop-color="#3789a2"/><stop offset="1" stop-color="#478dcb"/></linearGradient><linearGradient id="New_Gradient_Swatch_1-2" x1="-1458.68" y1="-241.96" x2="337.81" y2="150.31" xlink:href="#New_Gradient_Swatch_1"/><linearGradient id="New_Gradient_Swatch_1-3" x1="-1455.39" y1="-257.08" x2="341.12" y2="135.19" gradientTransform="translate(120.19 -92.3) rotate(45.26)" xlink:href="#New_Gradient_Swatch_1"/><linearGradient id="New_Gradient_Swatch_1-4" x1="-1458.18" y1="-244.44" x2="338.36" y2="147.84" gradientTransform="translate(134.53 -96.59) rotate(45)" xlink:href="#New_Gradient_Swatch_1"/><linearGradient id="New_Gradient_Swatch_1-5" x1="-1486.79" y1="-113.27" x2="309.71" y2="279" xlink:href="#New_Gradient_Swatch_1"/><linearGradient id="New_Gradient_Swatch_1-6" x1="-1484.56" y1="-123.36" x2="311.91" y2="268.9" xlink:href="#New_Gradient_Swatch_1"/><linearGradient id="New_Gradient_Swatch_1-7" x1="-1481.65" y1="-136.87" x2="314.87" y2="255.4" xlink:href="#New_Gradient_Swatch_1"/><linearGradient id="New_Gradient_Swatch_1-8" x1="-1479.64" y1="-146.09" x2="316.88" y2="246.18" xlink:href="#New_Gradient_Swatch_1"/><linearGradient id="New_Gradient_Swatch_1-9" x1="-1477.61" y1="-155.37" x2="318.91" y2="236.9" xlink:href="#New_Gradient_Swatch_1"/><linearGradient id="New_Gradient_Swatch_1-10" x1="-1475.85" y1="-163.43" x2="320.67" y2="228.84" xlink:href="#New_Gradient_Swatch_1"/></defs><title>kowala</title><g id="Layer_2" data-name="Layer 2"><g id="Layer_1-2" data-name="Layer 1"><rect class="cls-1" width="361.93" height="306.65"/><path class="cls-2" d="M184.41,166.82a54.25,54.25,0,1,1,54.25-54.25A54.31,54.31,0,0,1,184.41,166.82Zm0-101a46.71,46.71,0,1,0,46.71,46.71A46.76,46.76,0,0,0,184.41,65.86Z"/><rect class="cls-3" x="164.14" y="66.16" width="7.85" height="94.16"/><rect class="cls-4" x="124.08" y="94.22" width="93.44" height="7.55" transform="translate(-19.03 150.35) rotate(-45.26)"/><rect class="cls-5" x="180.1" y="63.46" width="7.55" height="101.3" transform="translate(-26.83 163.43) rotate(-45)"/><path class="cls-6" d="M55.76,223.36,73,244H63.12l-15-18.58V244H40V203.4h8.12v18.24L63.18,203.4H73Z"/><path class="cls-7" d="M114.88,205.47a19.29,19.29,0,0,1,7.31,7.39,22.88,22.88,0,0,1,0,21.49,19.2,19.2,0,0,1-7.31,7.43,21.53,21.53,0,0,1-20.66,0,19.17,19.17,0,0,1-7.3-7.43,22.88,22.88,0,0,1,0-21.49,19.27,19.27,0,0,1,7.3-7.39,21.46,21.46,0,0,1,20.66,0Zm-16.6,6.44a11.12,11.12,0,0,0-4.23,4.63,17.11,17.11,0,0,0,0,14.1,11.09,11.09,0,0,0,4.23,4.64,13,13,0,0,0,12.54,0,11,11,0,0,0,4.23-4.64,17,17,0,0,0,0-14.1,11,11,0,0,0-4.23-4.63,13,13,0,0,0-12.54,0Z"/><path class="cls-8" d="M192.3,203.4l-10,40.62h-10l-7.6-29.46L157.09,244h-10l-9.95-40.62H146l6.22,31.47,8.05-31.47h8.92l8.12,31.47,6.21-31.47Z"/><path class="cls-9" d="M230.63,235.85H214.34L211.47,244h-8.58l15-40.16h9.27L242,244h-8.57Zm-2.19-6.16-6-17.15-6,17.15Z"/><path class="cls-10" d="M262.56,237.81H276.2V244H254.45V203.4h8.11Z"/><path class="cls-11" d="M313.83,235.85H297.55L294.67,244h-8.58l15-40.16h9.27L325.22,244h-8.57Zm-2.19-6.16-6-17.15-6,17.15Z"/></g></g></svg>