<svg xmlns="http://www.w3.org/2000/svg" viewBox="0 0 540 540"><defs><style>.cls-1{fill:#29353a;}</style></defs><title>kowala</title><g id="Layer_2" data-name="Layer 2"><g id="Layer_1-2" data-name="Layer 1"><path class="cls-1" d="M213.2,235.19C220,249.67,231,261.46,246,268.42V202.08Z"/><polygon class="cls-1" points="323.23 379 341.05 379 332.14 353.48 323.23 379"/><polygon class="cls-1" points="455.97 353.48 447.07 379 464.88 379 455.97 353.48"/><path class="cls-1" d="M0,539H540V0H0ZM272.45,401h-14.9l-11.31-43.85L234.85,401H220l-14.82-59h13.1l9.25,46.84,12-46.84h13.28l12.07,46.84L274.16,342h13.11Zm176.67-59h13.79l22.18,59H472.33l-4.2-12H443.9l-4.28,12H426.85ZM380,342h12v50h21v9H380Zm-31.5,59-4.2-12H320.06l-4.28,12H303l22.27-59h13.78l22.18,59Zm-73-275.95a80.75,80.75,0,1,1-80.74,80.75A80.83,80.83,0,0,1,275.52,125.05Zm-145.11,230a28.61,28.61,0,0,1,10.88-11,31.95,31.95,0,0,1,30.74,0,28.54,28.54,0,0,1,10.88,11,34.13,34.13,0,0,1,0,32A28.47,28.47,0,0,1,172,398.1a31.95,31.95,0,0,1-30.74,0,28.54,28.54,0,0,1-10.88-11.05,34.13,34.13,0,0,1,0-32ZM61,342H73v26.12L95.09,342h14.56L84,371l25.61,30H95L73,373.78V401H61Z"/><path class="cls-1" d="M246,143.17a70.55,70.55,0,0,0-16.48,11.13L246,170.78Z"/><path class="cls-1" d="M221.19,162.5a69.42,69.42,0,0,0-12.89,61l36.78-37.11Z"/><path class="cls-1" d="M147.33,388.42a19.35,19.35,0,0,0,18.67,0,16.44,16.44,0,0,0,6.29-6.89,25.4,25.4,0,0,0,0-21,16.44,16.44,0,0,0-6.29-6.89,19.35,19.35,0,0,0-18.67,0,16.37,16.37,0,0,0-6.29,6.89,25.29,25.29,0,0,0,0,21A16.37,16.37,0,0,0,147.33,388.42Z"/><path class="cls-1" d="M292.61,138.42a69,69,0,0,0-17.11-2.14A69.87,69.87,0,0,0,257,138.8v35.54Z"/><path class="cls-1" d="M327,252.44a69.44,69.44,0,0,0-22.68-109.88l-43.4,43.8Z"/><path class="cls-1" d="M257,272.79a70,70,0,0,0,18.51,2.52,69.16,69.16,0,0,0,43.28-15.18L257,198.34Z"/></g></g></svg>
