<svg xmlns="http://www.w3.org/2000/svg" xmlns:xlink="http://www.w3.org/1999/xlink" viewBox="0 0 203.61 212.13"><defs><style>.cls-1{fill:url(#New_Gradient_Swatch_1);}.cls-2{fill:url(#New_Gradient_Swatch_1-2);}.cls-3{fill:url(#New_Gradient_Swatch_1-3);}.cls-4{fill:url(#New_Gradient_Swatch_1-4);}</style><linearGradient id="New_Gradient_Swatch_1" x1="-359.2" y1="-59.09" x2="1437.33" y2="333.19" gradientUnits="userSpaceOnUse"><stop offset="0" stop-color="#d3161a"/><stop offset="0.23" stop-color="#e2640f"/><stop offset="0.42" stop-color="#ffcd0b"/><stop offset="0.45" stop-color="#fdcd0c"/><stop offset="0.48" stop-color="#f6cb0f"/><stop offset="0.51" stop-color="#e9c814"/><stop offset="0.53" stop-color="#d7c41a"/><stop offset="0.55" stop-color="#bebd22"/><stop offset="0.57" stop-color="#9bb529"/><stop offset="0.59" stop-color="#68aa31"/><stop offset="0.6" stop-color="#4fa534"/><stop offset="0.64" stop-color="#3e9937"/><stop offset="0.72" stop-color="#1b853a"/><stop offset="0.78" stop-color="#057e3b"/><stop offset="0.8" stop-color="#0a7e3f"/><stop offset="0.83" stop-color="#157f4a"/><stop offset="0.86" stop-color="#1f815f"/><stop offset="0.91" stop-color="#2a857d"/><stop offset="0.95" stop-color="#3789a2"/><stop offset="1" stop-color="#478dcb"/></linearGradient><linearGradient id="New_Gradient_Swatch_1-2" x1="-357.55" y1="-66.47" x2="1438.86" y2="325.78" xlink:href="#New_Gradient_Swatch_1"/><linearGradient id="New_Gradient_Swatch_1-3" x1="-361.72" y1="-47.26" x2="1434.56" y2="344.96" xlink:href="#New_Gradient_Swatch_1"/><linearGradient id="New_Gradient_Swatch_1-4" x1="-391.46" y1="88.7" x2="1405.05" y2="480.97" xlink:href="#New_Gradient_Swatch_1"/></defs><title>marshall</title><g id="Layer_2" data-name="Layer 2"><g id="Layer_1-2" data-name="Layer 1"><path class="cls-1" d="M0,0V70c11.84-.08,23.7.12,35.54-.12q19.47,0,38.92,0C75.8,71.43,77,73.1,78.2,74.71,86,84.77,93.64,94.79,101.36,104.88c.15.22.67.83.89.39,4.69-6.21,9.59-12.46,14.31-18.67,4.36-5.53,8.49-11.25,12.92-16.72,12.62,0,25.24,0,37.85,0,12.1.2,24.19.06,36.28.1V0ZM50.38,53.23c-2.56,0-5.13,0-7.7.07,0-7.88-.07-15.76,0-23.64h-.28c-2,7.9-4.32,15.74-6.45,23.61-2.1,0-4.2,0-6.3,0-2.13-8-4.36-15.81-6.51-23.76a48.05,48.05,0,0,0-.05,4.95c0,6.28,0,12.56,0,18.83-2.59,0-5.17,0-7.77,0,0-10.5,0-21,.05-31.53,4,.07,8,.06,12,0,1.8,7,3.57,14,5.4,20.94,1.4-4.35,2.25-8.89,3.5-13.29.77-2.54,1.15-5.13,2.06-7.63,4,.05,8,0,11.93,0C50.44,32.25,50.35,42.75,50.38,53.23Zm17.9,0-.24-2a13,13,0,0,1-3.61,2.14,13,13,0,0,1-6,.45,7,7,0,0,1-5-3.24,8.71,8.71,0,0,1-.48-6,6.52,6.52,0,0,1,4-3.76c3.35-1.34,7.14-.94,10.45-2.22a2.88,2.88,0,0,0,0-3A5.62,5.62,0,0,0,62.23,35a4.37,4.37,0,0,0-1.79,2.49c-2.31,0-4.62,0-6.94,0a8,8,0,0,1,2.6-5.43c3.2-2.34,6.86-2.5,10.69-2.24,2,.21,4,.48,5.64,1.76A6.23,6.23,0,0,1,75,36.65c.08,4.07,0,8.15,0,12.22a15.06,15.06,0,0,0,.8,4.41C73.33,53.22,70.81,53.25,68.28,53.22ZM94.34,36.91c-2.15-.52-4.5-.69-6.37.71a5.26,5.26,0,0,0-2,4.58q0,5.52,0,11c-2.51,0-5,0-7.54,0-.07-7.59,0-15.17,0-22.75,2.47-.2,5-.09,7.46-.09-.07,1.31-.09,2.62-.08,3.93a7.09,7.09,0,0,1,1.86-2.65C89.38,30,92,29.78,94.36,30,94.36,32.33,94.4,34.62,94.34,36.91Zm20.12,15a14.13,14.13,0,0,1-8.58,2,12.51,12.51,0,0,1-8-2.61,7.72,7.72,0,0,1-2.34-5.61c2.35.07,4.7,0,7,0a5.47,5.47,0,0,0,1,2.48,6.7,6.7,0,0,0,3,.85,6.82,6.82,0,0,0,3-.81,5.78,5.78,0,0,0,.62-2.16,4.26,4.26,0,0,0-1.74-1.32c-2.7-.87-5.59-1.15-8.26-2.09a6.2,6.2,0,0,1-3.9-3.5c-.76-2.36-.45-5.2,1.54-6.89,2.75-2.37,6.38-2.67,9.86-2.54,2.07.14,4.51.52,6.22,1.8a6.77,6.77,0,0,1,2.92,5.62c-2.25,0-4.49,0-6.74,0-.2-.53-.39-1.07-.58-1.62a5.38,5.38,0,0,0-5.26-.55c-.92.37-.94,1.26-.66,2.08a5,5,0,0,0,2.61,1.35c2.05.51,4.16.8,6.21,1.28a7.28,7.28,0,0,1,4.22,2.83C118.72,45.49,117.46,50.06,114.46,51.91Zm28.19,1.37c-2.49-.07-5-.08-7.48,0,0-4.69,0-9.39,0-14.08,0-1.38-1.06-3.25-2.62-3.23-1.22,0-2.69-.27-3.56.8-1.33,1.11-1.47,2.65-1.52,4.28,0,4.06,0,8.12,0,12.17-2.48,0-5,0-7.44,0-.23-8.76-.08-17.51-.13-26.28,0-1.76.15-3.51.16-5.27,2.47,0,4.94,0,7.42,0,0,3.87,0,7.73-.06,11.6a11.06,11.06,0,0,1,2.71-2.49,9.14,9.14,0,0,1,4.26-1.17,8.52,8.52,0,0,1,5.85,1.83c1.68,1.31,2.38,3.8,2.41,5.85Q142.67,45.33,142.65,53.28Zm17.53-.13c-.08-.64-.17-1.29-.26-1.93a11.49,11.49,0,0,1-4.14,2.3,12.89,12.89,0,0,1-6.67-.07,6.88,6.88,0,0,1-3.57-2.76,7.81,7.81,0,0,1-.83-5.1,6,6,0,0,1,2.66-4.09c2.94-1.65,6.27-1.8,9.54-2.27.86-.16,2.12-.34,2.68-1.08a2.64,2.64,0,0,0,0-2.28,4.84,4.84,0,0,0-5.6-.71,3.33,3.33,0,0,0-1.45,2.31c-2.33,0-4.65,0-7,0a7.25,7.25,0,0,1,2.61-5.56c2.75-2,6.26-2.32,9.55-2.18,2.3.11,5,.46,6.82,2a6.15,6.15,0,0,1,2.37,4.55c.18,4.45,0,8.91.13,13.36a11.27,11.27,0,0,0,.79,3.66C165.28,53.19,162.72,53.33,160.18,53.15Zm10.22.15q0-15.78,0-31.55,3.72,0,7.44,0c.07,10.49,0,21,0,31.49C175.38,53.23,172.89,53.21,170.4,53.3Zm10.31-.06c0-10.48,0-21,0-31.45,2.51,0,5,0,7.51-.07.08,10.52,0,21.05.06,31.56C185.74,53.22,183.22,53.24,180.71,53.24Z"/><path class="cls-2" d="M152.35,48.12c1.39,1.36,3.12,1.17,4.9.9a3.72,3.72,0,0,0,2.07-2.27,16.42,16.42,0,0,0,.53-4.08c-2.19.77-4.75.84-6.77,1.95C151.84,45.54,152.23,46.8,152.35,48.12Z"/><path class="cls-3" d="M60.14,46.66a2.44,2.44,0,0,0,2.4,2.5c1.47.05,2.75.23,3.9-.86,1.43-1.32,1.33-3.83,1.5-5.6-1.79.53-3.64.79-5.43,1.3C61.36,44.31,60.05,45.35,60.14,46.66Z"/><path class="cls-4" d="M132.26,191.65c-.07-7.86,0-15.72,0-23.58a11.44,11.44,0,0,0-.1-3c-6.17,8.85-12.43,17.71-18.62,26.56-7.73,0-15.46.09-23.19,0-5.66-8.3-11.58-16.47-17.27-24.75a9.57,9.57,0,0,0-1.37-1.73c.1,8.84,0,17.69,0,26.54H0v20.47H203.61V191.66Q167.94,191.66,132.26,191.65Z"/></g></g></svg>