<svg xmlns="http://www.w3.org/2000/svg" viewBox="0 0 323 307"><defs><style>.cls-1{fill:#1a1a1a;}</style></defs><title>marshall</title><g id="Layer_2" data-name="Layer 2"><g id="Layer_1-2" data-name="Layer 1"><path class="cls-1" d="M176.86,93.86c2.48-.1,4.95-.06,7.43,0,0-4,0-8.11,0-12.17.05-1.63.19-3.17,1.53-4.29.87-1.06,2.33-.77,3.55-.79,1.57,0,2.59,1.85,2.62,3.23,0,4.69,0,9.39,0,14.08,2.49-.11,5-.1,7.48,0q0-7.95,0-15.89c0-2-.74-4.54-2.41-5.86a8.58,8.58,0,0,0-5.85-1.82A9.11,9.11,0,0,0,187,71.44a11.06,11.06,0,0,0-2.71,2.49c.09-3.87,0-7.73.05-11.61-2.48,0-4.94,0-7.42,0,0,1.77-.18,3.52-.16,5.28C176.78,76.35,176.62,85.1,176.86,93.86Z"/><path class="cls-1" d="M245.09,93.84c-.08-10.52,0-21-.05-31.56-2.51.1-5,0-7.51.06,0,10.49,0,21,0,31.46C240.06,93.8,242.58,93.78,245.09,93.84Z"/><path class="cls-1" d="M163.45,89.62a6.66,6.66,0,0,1-2.94-.85,5.42,5.42,0,0,1-1-2.48c-2.35-.05-4.69,0-7-.06a7.67,7.67,0,0,0,2.34,5.61,12.43,12.43,0,0,0,8,2.62,14.17,14.17,0,0,0,8.59-2c3-1.84,4.26-6.41,2.21-9.36a7.41,7.41,0,0,0-4.22-2.84c-2.06-.47-4.16-.76-6.21-1.27a5,5,0,0,1-2.61-1.36c-.28-.81-.26-1.71.66-2.07a5.38,5.38,0,0,1,5.26.55c.18.55.38,1.08.57,1.62,2.25,0,4.5,0,6.75,0a6.75,6.75,0,0,0-2.93-5.62c-1.7-1.28-4.14-1.66-6.21-1.8-3.48-.13-7.11.17-9.87,2.54a6.4,6.4,0,0,0-1.53,6.89,6.18,6.18,0,0,0,3.89,3.5c2.67.94,5.57,1.22,8.26,2.09a4.26,4.26,0,0,1,1.74,1.32,5.43,5.43,0,0,1-.62,2.16A6.82,6.82,0,0,1,163.45,89.62Z"/><path class="cls-1" d="M135.25,93.83c2.52,0,5,0,7.55,0,0-3.68,0-7.36,0-11a5.31,5.31,0,0,1,2-4.58c1.87-1.4,4.23-1.23,6.38-.71,0-2.29,0-4.58,0-6.87-2.33-.27-5,0-6.75,1.67a6.9,6.9,0,0,0-1.86,2.66c0-1.31,0-2.62.08-3.93-2.48,0-5-.11-7.47.09C135.27,78.67,135.18,86.25,135.25,93.83Z"/><path class="cls-1" d="M205.94,94a12.93,12.93,0,0,0,6.68.07,11.49,11.49,0,0,0,4.14-2.3c.08.64.17,1.29.26,1.93,2.54.17,5.1,0,7.64.12a11.43,11.43,0,0,1-.8-3.65c-.08-4.45,0-8.91-.12-13.36a6.19,6.19,0,0,0-2.37-4.55c-1.85-1.51-4.52-1.86-6.82-2-3.3-.14-6.8.19-9.56,2.18a7.21,7.21,0,0,0-2.6,5.56c2.32,0,4.65,0,7,0a3.38,3.38,0,0,1,1.46-2.32,4.85,4.85,0,0,1,5.59.72,2.64,2.64,0,0,1,0,2.28c-.56.74-1.82.91-2.68,1.08-3.27.47-6.6.62-9.55,2.27a6,6,0,0,0-2.66,4.09,7.94,7.94,0,0,0,.83,5.1A6.88,6.88,0,0,0,205.94,94Zm4-8.84c2-1.1,4.57-1.17,6.77-1.94a16,16,0,0,1-.54,4.08,3.69,3.69,0,0,1-2.07,2.27c-1.78.27-3.5.46-4.89-.9C209.06,87.36,208.68,86.1,209.92,85.17Z"/><path class="cls-1" d="M234.71,93.81c0-10.5,0-21,0-31.49-2.48,0-5,0-7.45,0q0,15.78,0,31.56C229.73,93.77,232.22,93.79,234.71,93.81Z"/><path class="cls-1" d="M0,307H323V0H0ZM57,41H260v69.55c-12,0-24,.1-36.06-.1-12.61,0-25.12,0-37.73,0-4.43,5.47-8.51,11.19-12.88,16.71-4.71,6.22-9.58,12.47-14.27,18.68-.23.43-.73-.18-.88-.39-7.72-10.09-15.39-20.12-23.15-30.18-1.25-1.6-2.4-3.27-3.74-4.82-13,0-25.86,0-38.83,0-11.84.24-23.46,0-35.46.12Zm0,191.22h71.63c0-8.85,0-17.7-.07-26.54a9.41,9.41,0,0,1,1.34,1.73c5.7,8.28,11.6,16.45,17.27,24.75,7.72.13,15.45.05,23.18,0,6.19-8.85,12.45-17.71,18.61-26.57a11.11,11.11,0,0,1,.1,3c0,7.86-.26,15.72-.19,23.58,23.78,0,48.13,0,71.13,0V253H57Z"/><path class="cls-1" d="M115.32,94.32a11.09,11.09,0,0,0,9.55-2.58c.08.68.16,1.36.25,2,2.53,0,5,0,7.58.06a15.07,15.07,0,0,1-.81-4.42c0-4.06,0-8.14,0-12.21a6.18,6.18,0,0,0-2.58-5.08c-1.61-1.28-3.66-1.55-5.64-1.76-3.82-.26-7.48-.1-10.69,2.23A8,8,0,0,0,110.34,78c2.31,0,4.62,0,6.94,0a4.27,4.27,0,0,1,1.78-2.49,5.64,5.64,0,0,1,5.26.55,2.88,2.88,0,0,1,0,3c-3.31,1.28-7.11.88-10.45,2.22a6.53,6.53,0,0,0-4,3.75,8.62,8.62,0,0,0,.48,6A6.9,6.9,0,0,0,115.32,94.32Zm4-9.77c1.79-.5,3.64-.77,5.43-1.29-.17,1.77-.08,4.28-1.5,5.59-1.16,1.09-2.43.92-3.91.86A2.42,2.42,0,0,1,117,87.22C116.88,85.9,118.19,84.87,119.35,84.55Z"/><path class="cls-1" d="M80,93.82c0-6.27,0-12.55,0-18.83A43,43,0,0,1,80,70c2.15,7.95,4.38,15.8,6.5,23.76,2.11,0,4.21,0,6.31,0C95,86,97.27,78.11,99.29,70.21h.27c-.11,7.88,0,15.76,0,23.64,2.56-.09,5.13-.07,7.7-.07,0-10.48,0-21,0-31.47-4,0-8,0-11.93,0-.91,2.5-1.3,5.08-2.06,7.63-1.25,4.4-2.11,8.93-3.51,13.28-1.82-7-3.59-14-5.39-20.93-4,.06-8,.07-12,0-.09,10.5,0,21,0,31.53C74.78,93.78,77.37,93.8,80,93.82Z"/></g></g></svg>