<svg xmlns="http://www.w3.org/2000/svg" viewBox="0 0 540 540"><defs><style>.cls-1{fill:#29353a;}</style></defs><title>marshall</title><g id="Layer_2" data-name="Layer 2"><g id="Layer_1-2" data-name="Layer 1"><path class="cls-1" d="M296,174.16c4.14-.17,8.26-.09,12.4-.08q0-10.16,0-20.3c.08-2.72.32-5.29,2.55-7.15,1.44-1.78,3.89-1.3,5.93-1.32,2.61,0,4.31,3.07,4.36,5.38.08,7.82,0,15.66,0,23.48,4.16-.18,8.32-.16,12.48,0q0-13.25,0-26.51c-.06-3.41-1.22-7.56-4-9.76-2.52-2.34-6.42-3.08-9.75-3a15.25,15.25,0,0,0-7.12,2,18.52,18.52,0,0,0-4.51,4.15c.16-6.45,0-12.9.09-19.36-4.14,0-8.25,0-12.38,0,0,2.94-.31,5.86-.26,8.81C295.81,145,295.55,159.55,296,174.16Z"/><path class="cls-1" d="M409.77,174.13c-.14-17.54,0-35.1-.09-52.65-4.18.16-8.35,0-12.53.11,0,17.49,0,35,0,52.47C401.37,174.06,405.57,174,409.77,174.13Z"/><path class="cls-1" d="M273.59,167.09c-1.86.08-3.25-.74-4.91-1.43a8.93,8.93,0,0,1-1.74-4.13c-3.92-.08-7.84,0-11.76-.09a12.85,12.85,0,0,0,3.91,9.36c3.61,3.1,8.61,4.31,13.27,4.36,5,.21,10.06-.51,14.32-3.33,5-3.07,7.1-10.7,3.69-15.62a12.31,12.31,0,0,0-7.05-4.73c-3.43-.8-6.94-1.27-10.35-2.13a8.31,8.31,0,0,1-4.35-2.25c-.48-1.36-.45-2.86,1.09-3.46a8.94,8.94,0,0,1,8.77.92c.31.91.64,1.8,1,2.7,3.76,0,7.5-.07,11.26,0a11.28,11.28,0,0,0-4.88-9.38c-2.84-2.13-6.92-2.76-10.37-3-5.8-.21-11.86.29-16.45,4.23-3.31,2.82-3.84,7.55-2.56,11.5,1.14,3,3.59,4.76,6.5,5.83,4.45,1.57,9.27,2,13.77,3.49a7.08,7.08,0,0,1,2.91,2.21,9.59,9.59,0,0,1-1,3.59C276.91,166.4,275.46,167.19,273.59,167.09Z"/><path class="cls-1" d="M226.55,174.12c4.2-.09,8.39-.08,12.59-.06,0-6.14,0-12.28,0-18.42,0-2.95.86-5.86,3.35-7.63,3.12-2.35,7.05-2.06,10.64-1.18.08-3.83,0-7.65,0-11.47-3.88-.44-8.31-.06-11.26,2.8a11.56,11.56,0,0,0-3.1,4.42q0-3.29.13-6.55c-4.14,0-8.33-.19-12.45.14C226.58,148.82,226.44,161.47,226.55,174.12Z"/><path class="cls-1" d="M344.46,174.41a21.58,21.58,0,0,0,11.14.11c2.69-.65,4.74-2.2,6.9-3.83.15,1.07.29,2.15.44,3.23,4.23.28,8.5.05,12.74.2a19.11,19.11,0,0,1-1.33-6.1c-.14-7.42.09-14.86-.2-22.28a10.33,10.33,0,0,0-4-7.6c-3.08-2.51-7.54-3.09-11.37-3.28-5.5-.23-11.35.32-15.94,3.64a12.08,12.08,0,0,0-4.35,9.27c3.88,0,7.76,0,11.64,0,.44-1.59.91-3,2.43-3.86a8.1,8.1,0,0,1,9.33,1.19,4.44,4.44,0,0,1,0,3.8c-.94,1.24-3,1.53-4.48,1.8-5.45.79-11,1-15.92,3.8a10,10,0,0,0-4.44,6.82c-.29,2.77-.22,6.12,1.39,8.51A11.45,11.45,0,0,0,344.46,174.41Zm6.63-14.74c3.38-1.84,7.64-2,11.3-3.24a26.91,26.91,0,0,1-.9,6.81A6.15,6.15,0,0,1,358,167c-3,.46-5.85.77-8.16-1.5C349.67,163.32,349,161.22,351.09,159.67Z"/><path class="cls-1" d="M392.45,174.08c-.05-17.51.06-35-.06-52.53q-6.19.06-12.42,0,0,26.33,0,52.64C384.14,174,388.29,174,392.45,174.08Z"/><path class="cls-1" d="M0,538H540V0H0ZM96,85H435V202c-20-.07-40.16.17-60.33-.17-21,0-42,0-63,0-7.4,9.12-14.24,18.67-21.52,27.89-7.87,10.37-16,20.78-23.84,31.14-.37.73-1.23-.29-1.48-.65-12.87-16.82-25.68-33.55-38.61-50.33-2.09-2.68-4-5.47-6.24-8-21.63,0-43.15,0-64.8,0-19.74.4-39.15.06-59.15.2Zm0,320c40,0,79.62,0,119.5,0,0-14.75.05-29.51-.12-44.26a15.25,15.25,0,0,1,2.24,2.88c9.51,13.82,19.35,27.44,28.81,41.29,12.88.22,25.78.08,38.67.07,10.32-14.77,20.76-29.54,31-44.31.48,1.54.11,3.36.16,5,0,13.11-.26,26.23-.14,39.33,39.67.05,78.83,0,118.83,0v35H96Z"/><path class="cls-1" d="M193.3,174.93a21.54,21.54,0,0,0,9.93-.74c2.27-.68,4.1-2.21,6-3.57.13,1.14.27,2.28.41,3.41,4.21.05,8.42,0,12.64.1a25.38,25.38,0,0,1-1.35-7.37c0-6.78.07-13.59-.07-20.37a10.38,10.38,0,0,0-4.31-8.48c-2.69-2.14-6.1-2.58-9.41-2.94-6.38-.42-12.48-.17-17.83,3.74-2.79,2.33-3.87,5.54-4.32,9.06,3.85,0,7.71,0,11.57,0,.72-1.69,1.26-3.23,3-4.16a9.39,9.39,0,0,1,8.77.92c.93,2.09.87,2.84,0,4.94-5.52,2.13-11.85,1.46-17.44,3.7a10.9,10.9,0,0,0-6.65,6.26,14.39,14.39,0,0,0,.8,10.07A11.56,11.56,0,0,0,193.3,174.93ZM200,158.64c3-.85,6.07-1.29,9.06-2.16-.29,3-.13,7.14-2.5,9.33-1.93,1.82-4.06,1.52-6.52,1.44a4.06,4.06,0,0,1-4-4.17C195.91,160.89,198.09,159.16,200,158.64Z"/><path class="cls-1" d="M134.32,174.1c.05-10.47,0-20.94,0-31.42a75.88,75.88,0,0,1,.09-8.26c3.59,13.27,7.3,26.37,10.84,39.64,3.51,0,7,0,10.53,0,3.54-13.14,7.39-26.21,10.75-39.39l.46,0c-.19,13.14,0,26.28-.07,39.43,4.28-.15,8.56-.11,12.84-.12-.06-17.48.09-35-.08-52.48-6.64,0-13.27.06-19.91,0-1.51,4.17-2.15,8.49-3.43,12.74-2.09,7.33-3.51,14.89-5.84,22.15-3.05-11.62-6-23.28-9-34.92-6.68.11-13.41.12-20.09,0-.15,17.52,0,35.07-.07,52.59C125.68,174,130,174.06,134.32,174.1Z"/></g></g></svg>
