<svg xmlns="http://www.w3.org/2000/svg" xmlns:xlink="http://www.w3.org/1999/xlink" viewBox="0 0 323.25 306.65"><defs><style>.cls-1{fill:#1a1a1a;}.cls-2{fill:url(#New_Gradient_Swatch_1);}.cls-3{fill:url(#New_Gradient_Swatch_1-2);}.cls-4{fill:url(#New_Gradient_Swatch_1-3);}.cls-5{fill:url(#New_Gradient_Swatch_1-4);}</style><linearGradient id="New_Gradient_Swatch_1" x1="-302.55" y1="-18.79" x2="1493.97" y2="373.48" gradientUnits="userSpaceOnUse"><stop offset="0" stop-color="#d3161a"/><stop offset="0.23" stop-color="#e2640f"/><stop offset="0.42" stop-color="#ffcd0b"/><stop offset="0.45" stop-color="#fdcd0c"/><stop offset="0.48" stop-color="#f6cb0f"/><stop offset="0.51" stop-color="#e9c814"/><stop offset="0.53" stop-color="#d7c41a"/><stop offset="0.55" stop-color="#bebd22"/><stop offset="0.57" stop-color="#9bb529"/><stop offset="0.59" stop-color="#68aa31"/><stop offset="0.6" stop-color="#4fa534"/><stop offset="0.64" stop-color="#3e9937"/><stop offset="0.72" stop-color="#1b853a"/><stop offset="0.78" stop-color="#057e3b"/><stop offset="0.8" stop-color="#0a7e3f"/><stop offset="0.83" stop-color="#157f4a"/><stop offset="0.86" stop-color="#1f815f"/><stop offset="0.91" stop-color="#2a857d"/><stop offset="0.95" stop-color="#3789a2"/><stop offset="1" stop-color="#478dcb"/></linearGradient><linearGradient id="New_Gradient_Swatch_1-2" x1="-300.91" y1="-26.17" x2="1495.5" y2="366.07" xlink:href="#New_Gradient_Swatch_1"/><linearGradient id="New_Gradient_Swatch_1-3" x1="-305.07" y1="-6.97" x2="1491.2" y2="385.25" xlink:href="#New_Gradient_Swatch_1"/><linearGradient id="New_Gradient_Swatch_1-4" x1="-334.82" y1="128.99" x2="1461.7" y2="521.27" xlink:href="#New_Gradient_Swatch_1"/></defs><title>marshall</title><g id="Layer_2" data-name="Layer 2"><g id="Layer_1-2" data-name="Layer 1"><rect class="cls-1" width="323.25" height="306.65"/><path class="cls-2" d="M56.64,40.29v70c11.85-.09,23.7.11,35.54-.13h38.93c1.33,1.54,2.48,3.21,3.74,4.82,7.75,10.06,15.43,20.09,23.15,30.17.15.22.67.83.89.39,4.69-6.21,9.59-12.45,14.31-18.67,4.36-5.53,8.5-11.25,12.93-16.72,12.61,0,25.23,0,37.85,0,12.09.2,24.19.06,36.28.1v-70ZM107,93.52c-2.56,0-5.13,0-7.69.07,0-7.88-.07-15.76,0-23.63l-.28,0c-2,7.91-4.32,15.74-6.44,23.62-2.1,0-4.21,0-6.31,0-2.12-8-4.35-15.82-6.51-23.77a48.08,48.08,0,0,0,0,5c0,6.28,0,12.56,0,18.84-2.59,0-5.18,0-7.77,0,0-10.5,0-21,0-31.52,4,.06,8,.06,12,0,1.81,7,3.57,14,5.4,20.94,1.4-4.35,2.25-8.89,3.51-13.28.76-2.55,1.15-5.14,2.05-7.64,4,.05,8,0,11.94,0C107.08,72.54,107,83,107,93.52Zm17.9,0-.24-2a12.66,12.66,0,0,1-3.6,2.14,13,13,0,0,1-6,.45,6.91,6.91,0,0,1-5-3.24,8.65,8.65,0,0,1-.49-6,6.59,6.59,0,0,1,4-3.76c3.34-1.34,7.14-.94,10.45-2.21a2.88,2.88,0,0,0,0-3,5.59,5.59,0,0,0-5.25-.56,4.33,4.33,0,0,0-1.78,2.5c-2.32,0-4.63,0-6.94,0a8,8,0,0,1,2.59-5.43C116,70,119.6,69.85,123.43,70.1c2,.22,4,.48,5.64,1.76a6.2,6.2,0,0,1,2.58,5.08c.09,4.07,0,8.15,0,12.22a15.18,15.18,0,0,0,.8,4.42C130,93.51,127.45,93.54,124.92,93.52ZM151,77.21c-2.16-.53-4.51-.7-6.38.7a5.32,5.32,0,0,0-2,4.58q0,5.52,0,11c-2.51,0-5,0-7.54,0-.07-7.58,0-15.17-.05-22.75,2.47-.2,5-.08,7.46-.08-.07,1.3-.09,2.61-.07,3.92A7,7,0,0,1,144.25,72c1.77-1.72,4.43-1.94,6.76-1.67C151,72.63,151,74.91,151,77.21Zm20.12,15a14.18,14.18,0,0,1-8.59,2,12.42,12.42,0,0,1-8-2.61A7.69,7.69,0,0,1,152.22,86c2.36.08,4.7,0,7.05,0a5.38,5.38,0,0,0,1,2.48,6.81,6.81,0,0,0,2.94.86,7,7,0,0,0,3-.82,5.6,5.6,0,0,0,.62-2.16,4.26,4.26,0,0,0-1.74-1.32c-2.7-.87-5.59-1.15-8.26-2.09a6.13,6.13,0,0,1-3.89-3.5,6.4,6.4,0,0,1,1.53-6.89c2.75-2.36,6.39-2.66,9.86-2.54,2.08.15,4.52.53,6.22,1.81a6.72,6.72,0,0,1,2.93,5.62c-2.25,0-4.5,0-6.75,0-.2-.54-.39-1.08-.58-1.62a5.33,5.33,0,0,0-5.26-.55c-.92.36-.94,1.26-.65,2.07a5,5,0,0,0,2.61,1.35c2,.51,4.15.8,6.21,1.28a7.34,7.34,0,0,1,4.22,2.83C175.36,85.78,174.1,90.36,171.11,92.2Zm28.18,1.37c-2.49-.07-5-.08-7.47,0,0-4.69,0-9.39,0-14.08,0-1.38-1.06-3.25-2.62-3.22-1.22,0-2.69-.28-3.56.79-1.33,1.12-1.47,2.66-1.52,4.29,0,4.05,0,8.11,0,12.17-2.48,0-4.95-.06-7.43,0-.24-8.77-.09-17.51-.14-26.28,0-1.77.15-3.52.16-5.28,2.47,0,4.94,0,7.42,0-.05,3.87,0,7.74-.05,11.61a10.83,10.83,0,0,1,2.7-2.49A9.14,9.14,0,0,1,191,70a8.49,8.49,0,0,1,5.84,1.82c1.68,1.32,2.38,3.8,2.41,5.85Q199.31,85.63,199.29,93.57Zm17.53-.12c-.08-.65-.17-1.29-.25-1.94a11.31,11.31,0,0,1-4.15,2.3,12.79,12.79,0,0,1-6.67-.07A6.78,6.78,0,0,1,202.18,91a7.79,7.79,0,0,1-.83-5.09A6,6,0,0,1,204,81.8c3-1.65,6.28-1.81,9.55-2.28.86-.16,2.11-.34,2.68-1.08a2.68,2.68,0,0,0,0-2.28,4.86,4.86,0,0,0-5.6-.71,3.36,3.36,0,0,0-1.45,2.31c-2.33,0-4.65,0-7,0a7.24,7.24,0,0,1,2.61-5.55c2.75-2,6.26-2.32,9.55-2.19,2.3.12,5,.47,6.82,2a6.18,6.18,0,0,1,2.38,4.56c.17,4.44,0,8.91.12,13.36a11.47,11.47,0,0,0,.79,3.65C221.92,93.48,219.36,93.62,216.82,93.45Zm10.23.14q0-15.78,0-31.55,3.72,0,7.44,0c.07,10.49,0,21,0,31.48C232,93.52,229.54,93.5,227.05,93.59Zm10.3-.06c0-10.48,0-21,0-31.45,2.51,0,5,0,7.51-.07.08,10.52,0,21.05.06,31.57C242.38,93.51,239.87,93.54,237.35,93.53Z"/><path class="cls-3" d="M209,88.41c1.39,1.37,3.12,1.18,4.9.91A3.71,3.71,0,0,0,216,87,16.37,16.37,0,0,0,216.5,83c-2.2.77-4.75.85-6.78,2C208.48,85.83,208.87,87.1,209,88.41Z"/><path class="cls-4" d="M116.79,87a2.43,2.43,0,0,0,2.39,2.5c1.48,0,2.75.23,3.91-.86,1.42-1.32,1.33-3.83,1.49-5.59-1.79.52-3.63.78-5.42,1.29C118,84.6,116.69,85.64,116.79,87Z"/><path class="cls-5" d="M188.9,231.94c-.07-7.85,0-15.72,0-23.58a11.47,11.47,0,0,0-.1-3c-6.17,8.86-12.43,17.71-18.61,26.57-7.73,0-15.47.09-23.19-.05-5.67-8.3-11.58-16.46-17.28-24.75a10.37,10.37,0,0,0-1.36-1.73c.09,8.85,0,17.7,0,26.54H56.64v20.46H260.26V232Q224.58,231.95,188.9,231.94Z"/></g></g></svg>