<?xml version="1.0" encoding="UTF-8" standalone="no"?>
<svg
   xmlns:dc="http://purl.org/dc/elements/1.1/"
   xmlns:cc="http://creativecommons.org/ns#"
   xmlns:rdf="http://www.w3.org/1999/02/22-rdf-syntax-ns#"
   xmlns:svg="http://www.w3.org/2000/svg"
   xmlns="http://www.w3.org/2000/svg"
   xmlns:sodipodi="http://sodipodi.sourceforge.net/DTD/sodipodi-0.dtd"
   xmlns:inkscape="http://www.inkscape.org/namespaces/inkscape"
   viewBox="0 0 540 540"
   version="1.1"
   id="svg2352"
   sodipodi:docname="mobkoi.svg"
   inkscape:version="0.92.2 2405546, 2018-03-11">
  <metadata
     id="metadata2356">
    <rdf:RDF>
      <cc:Work
         rdf:about="">
        <dc:format>image/svg+xml</dc:format>
        <dc:type
           rdf:resource="http://purl.org/dc/dcmitype/StillImage" />
        <dc:title>kowala</dc:title>
      </cc:Work>
    </rdf:RDF>
  </metadata>
  <sodipodi:namedview
     pagecolor="#ffffff"
     bordercolor="#666666"
     borderopacity="1"
     objecttolerance="10"
     gridtolerance="10"
     guidetolerance="10"
     inkscape:pageopacity="0"
     inkscape:pageshadow="2"
     inkscape:window-width="3840"
     inkscape:window-height="2160"
     id="namedview2354"
     showgrid="false"
     inkscape:zoom="3.4647572"
     inkscape:cx="325.39472"
     inkscape:cy="261.50566"
     inkscape:window-x="7680"
     inkscape:window-y="2160"
     inkscape:window-maximized="0"
     inkscape:current-layer="svg2352"
     inkscape:snap-bbox="false"
     inkscape:snap-object-midpoints="true" />
  <defs
     id="defs2326">
    <style
       id="style2324">.cls-1{fill:#29353a;}</style>
  </defs>
  <title
     id="title2328">kowala</title>
  <path
     style="fill:#29353a"
     d="M 0 0 L 0 539 L 540 539 L 540 0 L 0 0 z M 101.24414 209.41211 C 108.04573 209.4091 114.84802 209.41302 121.59961 209.41602 C 135.10278 209.42042 148.6079 209.44122 162.09961 209.44922 L 162.09961 211.97461 C 135.88262 211.95815 109.67351 211.99013 83.464844 211.95703 C 83.473224 238.14904 83.482021 264.34895 83.457031 290.54102 C 82.607291 290.55782 81.750132 290.58466 80.900391 290.60156 C 80.891997 266.49223 80.898925 242.373 80.890625 218.26367 C 80.899125 215.27289 80.885257 212.42642 80.898438 209.45508 C 87.642213 209.42603 94.44255 209.41512 101.24414 209.41211 z M 229.14258 255.46875 L 229.14258 255.4707 C 234.16795 255.58092 239.11627 257.64376 242.50781 261.48633 C 247.5896 266.99297 248.33132 275.74914 244.73242 282.23047 C 241.52507 288.46195 234.25274 291.86876 227.39648 291.31055 C 219.23231 290.91905 211.9431 284.77943 210.66016 276.61523 C 209.03565 267.78461 214.29192 259.04423 222.84766 256.38672 C 224.5638 255.82858 226.34859 255.52831 228.13672 255.47461 C 228.47199 255.46261 228.80755 255.46075 229.14258 255.46875 z M 343.88672 255.47461 C 348.79829 255.55558 353.73538 257.48356 357.03906 261.10352 C 363.32881 267.45158 363.44627 278.46611 357.62305 285.16406 C 351.68319 292.13694 340.746 293.3012 333.18164 288.30273 C 326.85857 284.17899 323.95892 276.14142 325.875 268.87695 C 327.3079 262.96207 332.03145 258.17054 337.80469 256.37109 C 339.43753 255.83588 341.16186 255.54307 342.9043 255.48438 C 343.23101 255.47538 343.55929 255.46861 343.88672 255.47461 z M 270.73242 256.19531 C 273.98143 256.25367 277.24821 256.9959 279.50586 259.47852 C 282.90482 263.49392 282.46232 269.80043 277.60547 272.47461 C 279.43824 273.39933 281.16301 274.05777 282.4043 275.76562 C 284.21208 277.93997 284.14474 281.30509 283.54492 283.9043 C 282.31196 288.07803 278.16476 290.27848 274.04102 290.51172 C 268.13449 290.74502 262.20145 290.54502 256.29492 290.63672 C 256.27002 279.15684 256.2873 267.67658 256.2793 256.20508 C 261.10283 256.22978 265.91722 256.17841 270.73242 256.19531 z M 162.0918 256.20117 C 163.66632 256.19417 165.23812 256.19417 166.81055 256.20117 L 166.8125 256.20117 C 168.38493 256.20807 169.95673 256.22354 171.53125 256.24414 C 174.86357 263.80852 178.24437 271.35504 181.56836 278.92773 C 184.82569 271.33005 188.30073 263.83351 191.56641 256.24414 C 194.72378 256.19414 197.88169 256.19404 201.03906 256.21094 C 201.03906 267.68244 201.046 279.1535 201.0293 290.625 C 198.48841 290.617 195.93934 290.6081 193.39844 290.625 C 193.19017 283.92704 193.9144 277.06249 192.87305 270.43945 C 190.5321 277.35402 186.89955 283.80966 184.15039 290.57422 C 182.38426 290.59922 180.61913 290.6081 178.86133 290.625 C 175.77061 283.91043 172.77914 277.16184 169.70508 270.44727 C 169.59688 277.17021 169.65448 283.89424 169.64648 290.61719 C 167.13058 290.61719 164.615 290.61591 162.10742 290.63281 C 162.07402 279.15293 162.0998 267.68104 162.0918 256.20117 z M 317.74414 256.20117 C 319.09785 256.21697 320.72817 256.24716 322.3418 256.28906 C 318.40967 261.06261 314.65129 265.96758 310.74414 270.75781 C 310.16932 271.54919 309.32167 272.36759 309.08008 273.33398 C 309.20505 274.27532 310.09573 275.07444 310.62891 275.82422 C 314.686 280.72272 318.65178 285.70315 322.74219 290.56836 C 319.29325 290.63526 315.84348 290.65273 312.39453 290.55273 C 308.70399 285.64591 304.67168 280.99788 301.06445 276.04102 C 300.92285 280.90622 301.01631 285.76181 300.97461 290.62695 C 298.34209 290.61825 295.70727 290.6207 293.06641 290.5957 C 293.06641 279.14919 293.05947 267.6926 293.07617 256.24609 C 295.71703 256.20477 298.34937 256.18818 300.99023 256.20508 C 301.02353 261.52015 300.91645 266.83582 301.06641 272.14258 C 304.96521 266.74416 309.09771 261.52004 313.14648 256.23828 C 314.67934 256.21328 316.21128 256.19517 317.74414 256.20117 z M 371.23633 256.21094 C 373.87719 256.21094 376.51734 256.20352 379.1582 256.22852 C 379.1501 267.67503 379.16758 279.12135 379.14258 290.57617 C 376.51005 290.61817 373.87667 290.61895 371.24414 290.62695 C 371.21874 279.15545 371.22833 267.68244 371.23633 256.21094 z M 460.13281 256.34375 L 460.13281 256.3457 C 460.17441 283.2458 459.96281 310.84258 460.12109 337.73438 C 457.69841 337.77433 455.59366 337.65302 453.17773 337.66992 C 428.38529 337.62782 403.52291 337.70332 378.73047 337.63672 L 378.7168 335.17969 C 405.00045 335.04625 431.28471 335.11338 457.56836 335.14648 C 457.62666 308.88781 457.55986 282.62832 457.60156 256.36133 C 458.44296 256.36133 459.28307 256.35175 460.13281 256.34375 z M 228.82617 262.79297 C 227.83311 262.7796 226.83382 262.90655 225.86328 263.18359 C 218.92373 265.04133 216.3586 273.81426 220.23242 279.5625 C 223.26482 284.38603 230.18678 285.3705 234.71875 282.14648 C 239.48395 278.58925 240.36031 271.14147 236.57812 266.57617 C 234.72245 264.15191 231.80533 262.83297 228.82617 262.79297 z M 343.30859 262.80664 C 341.97516 262.84056 340.6435 263.12644 339.4043 263.67578 C 333.14787 266.46661 331.48248 274.80553 335.53125 280.12891 C 338.8719 284.66921 345.85235 285.28575 350.10938 281.72852 C 354.70798 278.00466 355.04232 270.49125 351.16016 266.14258 C 349.1842 263.8802 346.24212 262.73204 343.30859 262.80664 z M 267.72852 262.85742 C 266.52561 262.88051 265.34148 262.97475 264.32617 262.96875 C 264.15117 265.23469 264.25214 267.5172 264.24414 269.7832 C 266.76837 269.7499 269.54242 270.10812 272 269.5 C 274.22432 268.63357 274.37529 265.81687 273.20898 264.05078 C 271.79274 262.96774 269.73335 262.81872 267.72852 262.85742 z M 269.48633 276.39844 C 267.75769 276.36822 266.00602 276.49205 264.40234 276.49805 C 264.12743 278.939 264.25995 281.43747 264.25195 283.88672 C 267.35934 283.78675 270.62619 284.14465 273.68359 283.57812 C 276.5827 282.70339 277.01419 278.78 274.43164 277.23047 C 272.9196 276.61404 271.21497 276.42844 269.48633 276.39844 z "
     id="path2336" />
</svg>
