<svg xmlns="http://www.w3.org/2000/svg" xmlns:xlink="http://www.w3.org/1999/xlink" viewBox="0 0 974.76 556.67"><defs><style>.cls-1{fill:#ff3939;}.cls-2{fill:#051928;}.cls-3{fill:#f4aa4a;}.cls-4{opacity:0.3;}.cls-5{fill:#fff;}.cls-6{fill:url(#linear-gradient);}.cls-7{fill:url(#linear-gradient-2);}.cls-8{fill:url(#linear-gradient-3);}.cls-9{fill:url(#linear-gradient-4);}.cls-10{fill:url(#linear-gradient-5);}.cls-11{fill:#d6d7d8;}.cls-12{fill:url(#linear-gradient-6);}.cls-13{fill:url(#linear-gradient-7);}.cls-14{fill:url(#linear-gradient-8);}</style><linearGradient id="linear-gradient" x1="603.85" y1="730.74" x2="421.85" y2="242.74" gradientUnits="userSpaceOnUse"><stop offset="0.01" stop-color="#d7c41a"/><stop offset="0.5" stop-color="#0a7e3f"/><stop offset="1" stop-color="#478dcb"/></linearGradient><linearGradient id="linear-gradient-2" x1="319.69" y1="530.9" x2="485.69" y2="-123.1" xlink:href="#linear-gradient"/><linearGradient id="linear-gradient-3" x1="119.64" y1="570.77" x2="109.64" y2="170.77" xlink:href="#linear-gradient"/><linearGradient id="linear-gradient-4" x1="606.92" y1="313.62" x2="676.92" y2="469.62" gradientUnits="userSpaceOnUse"><stop offset="0.01" stop-color="#d7c41a"/><stop offset="0.45" stop-color="#e2640f"/><stop offset="1" stop-color="#d3161a"/></linearGradient><linearGradient id="linear-gradient-5" x1="533.72" y1="417.11" x2="662.4" y2="417.11" gradientUnits="userSpaceOnUse"><stop offset="0" stop-color="#d7c41a"/><stop offset="1" stop-color="#e2640f"/></linearGradient><linearGradient id="linear-gradient-6" x1="348.05" y1="737.09" x2="190.05" y2="313.08" xlink:href="#linear-gradient"/><linearGradient id="linear-gradient-7" x1="213.92" y1="646.45" x2="245.92" y2="330.45" gradientUnits="userSpaceOnUse"><stop offset="0" stop-color="#0a7e3f"/><stop offset="0.33" stop-color="#d7c41a"/><stop offset="1" stop-color="#e2640f"/></linearGradient><linearGradient id="linear-gradient-8" x1="278.19" y1="297.14" x2="384.19" y2="643.14" xlink:href="#linear-gradient-4"/></defs><title>mountains</title><g id="Layer_2" data-name="Layer 2"><g id="Layer_1-2" data-name="Layer 1"><path class="cls-1" d="M438.5,29.74a.41.41,0,0,1-.41.41.42.42,0,1,1,0-.83.41.41,0,0,1,.41.42"/><path class="cls-2" d="M438.12,30.15a.51.51,0,0,0,0,.13,1.13,1.13,0,0,1-.88-.86l.13,0a1,1,0,0,0,.77.76"/><path class="cls-2" d="M438.05,30.15l0,.13a1.13,1.13,0,0,0,.87-.86l-.13,0a1,1,0,0,1-.77.76"/><polygon class="cls-2" points="438.02 31.29 437.89 31.29 437.89 30.54 438.02 30.54 438.02 31.29"/><rect class="cls-2" x="438.17" y="30.54" width="0.13" height="0.76"/><polygon class="cls-1" points="438.26 29.74 438.13 29.74 438.05 29.73 437.92 29.73 437.82 30.65 438.36 30.65 438.26 29.74"/><path class="cls-3" d="M438.39,29.84a.33.33,0,1,1-.32-.32.32.32,0,0,1,.32.32"/><polygon class="cls-1" points="439.71 28.7 438.83 29.21 438.72 28.38 439.64 28.25 439.71 28.7"/><polygon class="cls-2" points="438.97 30.3 438.89 30.31 438.63 28.32 438.71 28.31 438.97 30.3"/><path class="cls-3" d="M437.44,29.53a.13.13,0,0,1-.15.09.12.12,0,0,1-.08-.15.11.11,0,0,1,.14-.09.12.12,0,0,1,.09.15"/><path class="cls-3" d="M439,29.54a.14.14,0,0,1-.15.09.12.12,0,0,1-.09-.15.11.11,0,0,1,.15-.09.13.13,0,0,1,.09.15"/><path class="cls-2" d="M438,29.81s0,0-.06,0a0,0,0,0,1,0-.06,0,0,0,0,1,.06,0,0,0,0,0,1,0,.06"/><path class="cls-2" d="M438.28,29.79a.06.06,0,0,1-.07,0s0,0,0-.06a.06.06,0,1,1,.11,0"/><g class="cls-4"><polygon class="cls-5" points="544.68 156.01 202.13 556.67 427.91 556.67 556.23 556.67 756 477.91 544.68 156.01"/></g><g class="cls-4"><polygon class="cls-5" points="327.3 84.39 36.55 556.67 160.72 556.67 289.04 556.67 554.7 441.02 327.3 84.39"/></g><g class="cls-4"><polygon class="cls-5" points="734.6 242.25 483.78 556.67 974.76 556.67 734.6 242.25"/></g><polygon class="cls-6" points="440.87 37.08 437.5 37.08 361.88 556.67 715.98 556.67 440.87 37.08"/><polygon class="cls-7" points="438.72 37.08 435.35 37.08 136.11 556.67 490.2 556.67 438.72 37.08"/><polygon class="cls-8" points="197.98 223.16 0 556.67 238.58 556.67 197.98 223.16"/><polygon class="cls-9" points="662.4 277.55 810.18 556.67 621.78 556.67 662.4 277.55"/><polygon class="cls-10" points="662.4 277.55 533.72 556.67 621.78 556.67 662.4 277.55"/><polygon class="cls-5" points="438.72 37.08 435.35 37.08 349.05 186.91 386.85 169.94 381.98 236.1 424.85 188.58 461.19 263.84 438.72 37.08"/><polygon class="cls-11" points="440.87 37.08 438.72 37.08 461.19 263.84 485.42 221.93 506.18 246.5 514.63 210.23 544.68 233.13 440.87 37.08"/><polygon class="cls-11" points="662.4 277.55 640.11 430.7 630.97 378.85 600.69 411.4 662.4 277.55"/><polygon class="cls-5" points="662.4 277.55 734.87 414.44 715.98 402.23 705.15 452.47 662.4 397.25 640.11 430.7 662.4 277.55"/><polygon class="cls-12" points="197.98 223.16 334.42 556.67 227.21 556.67 197.98 223.16"/><polygon class="cls-13" points="282.98 366.91 127.05 556.67 318.97 556.67 282.98 366.91"/><polygon class="cls-14" points="282.98 366.91 404.26 556.67 311.14 556.67 282.98 366.91"/><polygon class="cls-5" points="140.09 320.68 197.98 223.16 207.86 335.94 189.31 306.73 176.86 320.65 166.03 302.25 140.09 320.68"/><polygon class="cls-11" points="207.86 335.94 217.47 317.67 240.98 328.28 197.98 223.16 207.86 335.94"/><rect class="cls-5" x="416.7" y="7.21" width="3.32" height="20.69" transform="translate(122.15 313.52) rotate(-47.38)"/><rect class="cls-5" x="432" y="0.15" width="3.32" height="17.62" transform="translate(8.71 95.92) rotate(-12.75)"/><rect class="cls-5" x="443.36" y="10.86" width="17.22" height="3.33" transform="translate(175.46 370.26) rotate(-53.88)"/></g></g></svg>