<svg xmlns="http://www.w3.org/2000/svg" xmlns:xlink="http://www.w3.org/1999/xlink" viewBox="0 0 1006.84 577.69"><defs><style>.cls-1{fill:#ff3939;}.cls-2{fill:#051928;}.cls-3{fill:#f4aa4a;}.cls-4{opacity:0.3;}.cls-5{fill:#fff;}.cls-6{fill:url(#linear-gradient);}.cls-7{fill:url(#linear-gradient-2);}.cls-8{fill:url(#linear-gradient-3);}.cls-9{fill:url(#linear-gradient-4);}.cls-10{fill:url(#linear-gradient-5);}.cls-11{fill:#d6d7d8;}.cls-12{fill:url(#linear-gradient-6);}.cls-13{fill:url(#linear-gradient-7);}.cls-14{fill:url(#linear-gradient-8);}</style><linearGradient id="linear-gradient" x1="635.93" y1="730.74" x2="453.93" y2="242.74" gradientUnits="userSpaceOnUse"><stop offset="0.01" stop-color="#d7c41a"/><stop offset="0.5" stop-color="#0a7e3f"/><stop offset="1" stop-color="#478dcb"/></linearGradient><linearGradient id="linear-gradient-2" x1="351.77" y1="530.9" x2="517.77" y2="-123.1" xlink:href="#linear-gradient"/><linearGradient id="linear-gradient-3" x1="151.72" y1="570.77" x2="141.72" y2="170.77" xlink:href="#linear-gradient"/><linearGradient id="linear-gradient-4" x1="638.99" y1="313.62" x2="708.99" y2="469.62" gradientUnits="userSpaceOnUse"><stop offset="0.01" stop-color="#d7c41a"/><stop offset="0.45" stop-color="#e2640f"/><stop offset="1" stop-color="#d3161a"/></linearGradient><linearGradient id="linear-gradient-5" x1="565.79" y1="417.11" x2="694.47" y2="417.11" gradientUnits="userSpaceOnUse"><stop offset="0" stop-color="#d7c41a"/><stop offset="1" stop-color="#e2640f"/></linearGradient><linearGradient id="linear-gradient-6" x1="380.12" y1="737.09" x2="222.12" y2="313.08" xlink:href="#linear-gradient"/><linearGradient id="linear-gradient-7" x1="245.99" y1="646.45" x2="277.99" y2="330.45" gradientUnits="userSpaceOnUse"><stop offset="0" stop-color="#0a7e3f"/><stop offset="0.33" stop-color="#d7c41a"/><stop offset="1" stop-color="#e2640f"/></linearGradient><linearGradient id="linear-gradient-8" x1="310.27" y1="297.14" x2="416.27" y2="643.14" xlink:href="#linear-gradient-4"/></defs><title>Asset 1</title><g id="Layer_2" data-name="Layer 2"><g id="Layer_1-2" data-name="Layer 1"><path class="cls-1" d="M470.58,29.74a.41.41,0,1,1-.41-.42.41.41,0,0,1,.41.42"/><path class="cls-2" d="M470.2,30.15l0,.13a1.11,1.11,0,0,1-.87-.86l.13,0a1,1,0,0,0,.77.76"/><path class="cls-2" d="M470.13,30.15l0,.13a1.11,1.11,0,0,0,.88-.86l-.13,0a1,1,0,0,1-.77.76"/><polygon class="cls-2" points="470.09 31.29 469.96 31.29 469.96 30.54 470.09 30.54 470.09 31.29"/><rect class="cls-2" x="470.24" y="30.54" width="0.13" height="0.76"/><polygon class="cls-1" points="470.33 29.74 470.2 29.74 470.12 29.73 469.99 29.73 469.89 30.65 470.44 30.65 470.33 29.74"/><path class="cls-3" d="M470.47,29.84a.32.32,0,1,1-.32-.33.32.32,0,0,1,.32.33"/><polygon class="cls-1" points="471.79 28.7 470.9 29.21 470.79 28.38 471.71 28.25 471.79 28.7"/><polygon class="cls-2" points="471.05 30.3 470.96 30.31 470.7 28.32 470.78 28.31 471.05 30.3"/><path class="cls-3" d="M469.52,29.53a.13.13,0,0,1-.15.09.12.12,0,0,1,.06-.24.13.13,0,0,1,.09.15"/><path class="cls-3" d="M471.06,29.54a.12.12,0,0,1-.15.09.12.12,0,0,1-.09-.15.12.12,0,0,1,.24.06"/><path class="cls-2" d="M470,29.81a.05.05,0,0,1-.06,0,.05.05,0,0,1,0-.06,0,0,0,0,1,.06,0,.05.05,0,0,1,0,.06"/><path class="cls-2" d="M470.35,29.79a.05.05,0,0,1-.06,0,.05.05,0,0,1,0-.06.05.05,0,0,1,.06,0,.05.05,0,0,1,0,.06"/><g class="cls-4"><polygon class="cls-5" points="576.75 156.01 234.21 556.67 459.98 556.67 588.3 556.67 788.07 477.91 576.75 156.01"/></g><g class="cls-4"><polygon class="cls-5" points="359.37 84.39 68.62 556.67 192.79 556.67 321.11 556.67 586.77 441.02 359.37 84.39"/></g><g class="cls-4"><polygon class="cls-5" points="766.68 242.25 515.85 556.67 1006.84 556.67 766.68 242.25"/></g><polygon class="cls-6" points="472.94 37.08 469.57 37.08 393.96 556.67 748.05 556.67 472.94 37.08"/><polygon class="cls-7" points="470.79 37.08 467.42 37.08 168.18 556.67 522.28 556.67 470.79 37.08"/><polygon class="cls-8" points="230.05 223.16 32.08 556.67 270.66 556.67 230.05 223.16"/><polygon class="cls-9" points="694.47 277.55 842.25 556.67 653.85 556.67 694.47 277.55"/><polygon class="cls-10" points="694.47 277.55 565.79 556.67 653.85 556.67 694.47 277.55"/><polygon class="cls-5" points="470.79 37.08 467.42 37.08 381.13 186.91 418.93 169.94 414.06 236.1 456.92 188.58 493.26 263.84 470.79 37.08"/><polygon class="cls-11" points="472.94 37.08 470.79 37.08 493.26 263.84 517.49 221.93 538.26 246.5 546.71 210.23 576.75 233.13 472.94 37.08"/><polygon class="cls-11" points="694.47 277.55 672.18 430.7 663.05 378.85 632.76 411.4 694.47 277.55"/><polygon class="cls-5" points="694.47 277.55 766.95 414.44 748.05 402.23 737.22 452.47 694.47 397.25 672.18 430.7 694.47 277.55"/><polygon class="cls-12" points="230.05 223.16 366.49 556.67 259.29 556.67 230.05 223.16"/><polygon class="cls-13" points="315.06 366.91 159.13 556.67 351.05 556.67 315.06 366.91"/><polygon class="cls-14" points="315.06 366.91 436.34 556.67 343.21 556.67 315.06 366.91"/><polygon class="cls-5" points="172.16 320.68 230.05 223.16 239.94 335.94 221.39 306.73 208.94 320.65 198.11 302.25 172.16 320.68"/><polygon class="cls-11" points="239.94 335.94 249.54 317.67 273.06 328.28 230.05 223.16 239.94 335.94"/><path class="cls-5" d="M222.08,426.36H392.26a34.4,34.4,0,0,0-66.5-17.66,34.39,34.39,0,0,0-54.19,6.18,41.17,41.17,0,0,0-49.48,10.74Z"/><path class="cls-5" d="M642.29,90.48H812.47A34.41,34.41,0,0,0,746,72.83,34.39,34.39,0,0,0,691.77,79a41.17,41.17,0,0,0-49.48,10.74Z"/><rect class="cls-5" x="448.77" y="7.21" width="3.32" height="20.69" transform="translate(132.51 337.12) rotate(-47.38)"/><rect class="cls-5" x="464.08" y="0.15" width="3.32" height="17.62" transform="translate(9.5 102.99) rotate(-12.75)"/><rect class="cls-5" x="475.44" y="10.86" width="17.22" height="3.33" transform="translate(188.63 396.17) rotate(-53.88)"/><path d="M856.44,506.22a76.55,76.55,0,0,0-32.08,6.93,71.33,71.33,0,0,0-55.6-26.64A65.5,65.5,0,0,0,752,488.57v-4.11c-17-18.41-39-30.13-64.81-30.13a84.07,84.07,0,0,0-79,55.29,71.08,71.08,0,0,0-17.69-2.23,69.85,69.85,0,0,0-38.82,11.71,47.61,47.61,0,0,0-75.79,19c-1.14-.05-2.29-.09-3.44-.09a70.1,70.1,0,0,0-16.63,2,88.79,88.79,0,0,0-156.5-13.29,57.71,57.71,0,0,0-41.68,2.47,54.28,54.28,0,0,0-94.49,20.37,54.27,54.27,0,0,0-85.51,9.75,63.72,63.72,0,0,0-28-6.42c-20,0-38.8,9.09-49.66,23.37v1.4H933.15C930.29,536.69,897.05,506.22,856.44,506.22Z"/></g></g></svg>