<svg xmlns="http://www.w3.org/2000/svg" xmlns:xlink="http://www.w3.org/1999/xlink" viewBox="0 0 1209 585.69"><defs><style>.cls-1{fill:#ff3939;}.cls-2{fill:#051928;}.cls-3{fill:#f4aa4a;}.cls-4{opacity:0.3;}.cls-5{fill:#fff;}.cls-6{fill:url(#linear-gradient);}.cls-7{fill:url(#linear-gradient-2);}.cls-8{fill:url(#linear-gradient-3);}.cls-9{fill:url(#linear-gradient-4);}.cls-10{fill:url(#linear-gradient-5);}.cls-11{fill:#d6d7d8;}.cls-12{fill:url(#linear-gradient-6);}.cls-13{fill:url(#linear-gradient-7);}.cls-14{fill:url(#linear-gradient-8);}</style><linearGradient id="linear-gradient" x1="740.93" y1="730.74" x2="558.93" y2="242.74" gradientUnits="userSpaceOnUse"><stop offset="0.01" stop-color="#d7c41a"/><stop offset="0.5" stop-color="#0a7e3f"/><stop offset="1" stop-color="#478dcb"/></linearGradient><linearGradient id="linear-gradient-2" x1="456.77" y1="530.9" x2="622.77" y2="-123.1" xlink:href="#linear-gradient"/><linearGradient id="linear-gradient-3" x1="256.72" y1="570.77" x2="246.72" y2="170.77" xlink:href="#linear-gradient"/><linearGradient id="linear-gradient-4" x1="743.99" y1="313.62" x2="813.99" y2="469.62" gradientUnits="userSpaceOnUse"><stop offset="0.01" stop-color="#d7c41a"/><stop offset="0.45" stop-color="#e2640f"/><stop offset="1" stop-color="#d3161a"/></linearGradient><linearGradient id="linear-gradient-5" x1="670.79" y1="417.11" x2="799.47" y2="417.11" gradientUnits="userSpaceOnUse"><stop offset="0" stop-color="#d7c41a"/><stop offset="1" stop-color="#e2640f"/></linearGradient><linearGradient id="linear-gradient-6" x1="485.12" y1="737.09" x2="327.12" y2="313.08" xlink:href="#linear-gradient"/><linearGradient id="linear-gradient-7" x1="350.99" y1="646.45" x2="382.99" y2="330.45" gradientUnits="userSpaceOnUse"><stop offset="0" stop-color="#0a7e3f"/><stop offset="0.33" stop-color="#d7c41a"/><stop offset="1" stop-color="#e2640f"/></linearGradient><linearGradient id="linear-gradient-8" x1="415.27" y1="297.14" x2="521.27" y2="643.14" xlink:href="#linear-gradient-4"/></defs><title>mountains</title><g id="Layer_2" data-name="Layer 2"><g id="Layer_1-2" data-name="Layer 1"><path class="cls-1" d="M575.58,29.74a.42.42,0,1,1-.42-.42.42.42,0,0,1,.42.42"/><path class="cls-2" d="M575.2,30.15l0,.13a1.11,1.11,0,0,1-.87-.86l.13,0a1,1,0,0,0,.77.76"/><path class="cls-2" d="M575.13,30.15a.51.51,0,0,1,0,.13,1.14,1.14,0,0,0,.88-.86l-.13,0a1,1,0,0,1-.77.76"/><polygon class="cls-2" points="575.09 31.29 574.96 31.29 574.96 30.54 575.09 30.54 575.09 31.29"/><rect class="cls-2" x="575.24" y="30.54" width="0.13" height="0.76"/><polygon class="cls-1" points="575.33 29.74 575.2 29.74 575.12 29.73 574.99 29.73 574.89 30.65 575.44 30.65 575.33 29.74"/><path class="cls-3" d="M575.47,29.84a.33.33,0,0,1-.33.33.32.32,0,0,1-.32-.33.32.32,0,0,1,.32-.32.32.32,0,0,1,.33.32"/><polygon class="cls-1" points="576.79 28.7 575.9 29.21 575.79 28.38 576.71 28.25 576.79 28.7"/><polygon class="cls-2" points="576.05 30.3 575.97 30.31 575.7 28.32 575.78 28.31 576.05 30.3"/><path class="cls-3" d="M574.52,29.53a.13.13,0,0,1-.15.09.12.12,0,0,1-.09-.15.12.12,0,0,1,.15-.09.13.13,0,0,1,.09.15"/><path class="cls-3" d="M576.06,29.54a.13.13,0,0,1-.15.09.12.12,0,0,1,.06-.24.11.11,0,0,1,.09.15"/><path class="cls-2" d="M575,29.81s0,0-.06,0,0,0,0-.06a.05.05,0,0,1,.07,0s0,0,0,.06"/><path class="cls-2" d="M575.35,29.79a0,0,0,0,1-.06,0,0,0,0,0,1,0-.06.06.06,0,0,1,.06,0,.06.06,0,0,1,0,.07"/><g class="cls-4"><polygon class="cls-5" points="681.75 156.01 339.21 556.67 564.98 556.67 693.3 556.67 893.07 477.91 681.75 156.01"/></g><g class="cls-4"><polygon class="cls-5" points="464.37 84.39 173.62 556.67 297.79 556.67 426.11 556.67 691.77 441.02 464.37 84.39"/></g><g class="cls-4"><polygon class="cls-5" points="871.68 242.25 620.85 556.67 1111.84 556.67 871.68 242.25"/></g><polygon class="cls-6" points="577.94 37.08 574.57 37.08 498.96 556.67 853.05 556.67 577.94 37.08"/><polygon class="cls-7" points="575.79 37.08 572.42 37.08 273.18 556.67 627.28 556.67 575.79 37.08"/><polygon class="cls-8" points="335.05 223.16 137.07 556.67 375.66 556.67 335.05 223.16"/><polygon class="cls-9" points="799.47 277.55 947.25 556.67 758.85 556.67 799.47 277.55"/><polygon class="cls-10" points="799.47 277.55 670.79 556.67 758.85 556.67 799.47 277.55"/><polygon class="cls-5" points="575.79 37.08 572.42 37.08 486.13 186.91 523.93 169.94 519.06 236.1 561.92 188.58 598.26 263.84 575.79 37.08"/><polygon class="cls-11" points="577.94 37.08 575.79 37.08 598.26 263.84 622.49 221.93 643.26 246.5 651.71 210.23 681.75 233.13 577.94 37.08"/><polygon class="cls-11" points="799.47 277.55 777.18 430.7 768.05 378.85 737.76 411.4 799.47 277.55"/><polygon class="cls-5" points="799.47 277.55 871.95 414.44 853.05 402.23 842.22 452.47 799.47 397.25 777.18 430.7 799.47 277.55"/><polygon class="cls-12" points="335.05 223.16 471.49 556.67 364.29 556.67 335.05 223.16"/><polygon class="cls-13" points="420.06 366.91 264.13 556.67 456.05 556.67 420.06 366.91"/><polygon class="cls-14" points="420.06 366.91 541.34 556.67 448.21 556.67 420.06 366.91"/><polygon class="cls-5" points="277.17 320.68 335.05 223.16 344.94 335.94 326.39 306.73 313.94 320.65 303.11 302.25 277.17 320.68"/><polygon class="cls-11" points="344.94 335.94 354.54 317.67 378.06 328.28 335.05 223.16 344.94 335.94"/><path class="cls-5" d="M327.08,426.36H497.26a34.41,34.41,0,0,0-66.51-17.66,34.38,34.38,0,0,0-54.19,6.18,41.18,41.18,0,0,0-49.48,10.74Z"/><path class="cls-5" d="M747.29,90.48H917.47A34.4,34.4,0,0,0,851,72.83,34.4,34.4,0,0,0,796.77,79a41.17,41.17,0,0,0-49.48,10.75Z"/><rect class="cls-5" x="553.77" y="7.21" width="3.32" height="20.69" transform="translate(166.41 414.39) rotate(-47.38)"/><rect class="cls-5" x="569.08" y="0.15" width="3.32" height="17.62" transform="translate(12.09 126.16) rotate(-12.75)"/><rect class="cls-5" x="580.44" y="10.86" width="17.22" height="3.33" transform="translate(231.74 480.99) rotate(-53.88)"/><path d="M1209,585.69H0v-1.61c14.07-16.43,38.37-26.9,64.34-26.9a91.22,91.22,0,0,1,36.25,7.4c12.31-18.13,34.69-30.26,60.26-30.26,19.84,0,37.74,7.3,50.52,19,8-26.72,35.39-46.4,68-46.4,22,0,41.56,8.94,54.46,22.95a82.36,82.36,0,0,1,31.15-6,83.34,83.34,0,0,1,22.84,3.18c20.45-28.29,56.18-47,96.84-47,47.6,0,88.45,25.69,105.92,62.33a101.5,101.5,0,0,1,21.55-2.31c1.49,0,3,0,4.46.1,8.81-20.67,31.32-35.38,57.68-35.38a66.13,66.13,0,0,1,40.51,13.48A98.79,98.79,0,0,1,765,504.77,102.42,102.42,0,0,1,788,507.34c15.09-37.12,55.4-63.65,102.37-63.65,33.49,0,61.94,13.49,84,34.68v4.74A94.66,94.66,0,0,1,996,480.75c29.3,0,54.83,12,72,30.66a110,110,0,0,1,41.57-8C1162.23,503.43,1205.29,538.5,1209,585.69Z"/></g></g></svg>