<svg xmlns="http://www.w3.org/2000/svg" viewBox="0 0 227.42 227.42"><defs><style>.cls-1{fill:none;stroke:#fff;stroke-miterlimit:10;stroke-width:7px;}.cls-2{fill:#fff;}</style></defs><title>muscle</title><g id="Layer_2" data-name="Layer 2"><g id="Layer_1-2" data-name="Layer 1"><circle class="cls-1" cx="113.71" cy="113.71" r="110.21" transform="translate(-47.1 113.71) rotate(-45)"/><path class="cls-2" d="M93.73,39.06a3.35,3.35,0,0,0-2.53,1c-7,7.12-11,15.32-11.11,23.76S83.75,80.68,91.25,88a3.35,3.35,0,0,0,2.72.94l18.78-2.13a3.25,3.25,0,0,0,1.44-.52L123,80.57c5.37,16.51,11.07,35.86,18.47,51.33-5.3-2.79-9.91-4.73-14.6-5.46-6.46-1-12.71.67-19.69,5.12-7-12.77-17.11-19.47-28-21.25-11.84-1.93-24.33,1.63-35.5,7.71A3.37,3.37,0,0,0,41.94,121l-.19,50.22a3.34,3.34,0,0,0,1.13,2.53c15,13.23,33.4,12.87,51.94,6.3,32.93,12.65,64.28,8.74,92.45-12.16a3.28,3.28,0,0,0,1.28-2c4.92-22.42-2.8-53-19.51-78.72S126.22,40.41,93.73,39.06ZM95,45.86c29.05,1.81,52.84,20.89,68.46,45S186,143.56,182.25,163.2c-26.65,19.31-54.92,22.48-86.16,10.11a3.29,3.29,0,0,0-2.39,0c-17.3,6.37-32.21,7.05-45.24-3.64L48.64,123c9.78-5,20.24-7.56,29.47-6.06,9.78,1.6,18.48,7.45,24.79,21a3.35,3.35,0,0,0,4.45,1.63,4.08,4.08,0,0,0,.57-.34c7.59-5.57,12.37-7,17.93-6.12s12.39,4.54,22.45,10.37a3.35,3.35,0,0,0,4.52-4.69c-10-15.88-17.65-43-24.8-64.42a3.36,3.36,0,0,0-4.24-2.13,3.64,3.64,0,0,0-.77.37l-11.8,7.67L94.84,82.09c-5.71-6-8.14-12.13-8-18.15S89.56,51.74,95,45.86Z"/><path class="cls-2" d="M71.41,125.37A37.22,37.22,0,0,0,59,128a3.35,3.35,0,0,0,2.15,6.35l.14,0c10.08-3.66,12.81-3.55,23.73,1.43a3.35,3.35,0,1,0,2.9-6l-.12-.05C81.29,126.71,76.38,125.33,71.41,125.37Z"/></g></g></svg>