<?xml version="1.0" encoding="UTF-8" standalone="no"?>
<svg
   xmlns:dc="http://purl.org/dc/elements/1.1/"
   xmlns:cc="http://creativecommons.org/ns#"
   xmlns:rdf="http://www.w3.org/1999/02/22-rdf-syntax-ns#"
   xmlns:svg="http://www.w3.org/2000/svg"
   xmlns="http://www.w3.org/2000/svg"
   xmlns:sodipodi="http://sodipodi.sourceforge.net/DTD/sodipodi-0.dtd"
   xmlns:inkscape="http://www.inkscape.org/namespaces/inkscape"
   viewBox="0 0 540 540"
   version="1.1"
   id="svg10244"
   sodipodi:docname="niwa.svg"
   width="540"
   height="540"
   inkscape:version="0.92.2 2405546, 2018-03-11">
  <metadata
     id="metadata10248">
    <rdf:RDF>
      <cc:Work
         rdf:about="">
        <dc:format>image/svg+xml</dc:format>
        <dc:type
           rdf:resource="http://purl.org/dc/dcmitype/StillImage" />
        <dc:title>kowala</dc:title>
      </cc:Work>
    </rdf:RDF>
  </metadata>
  <sodipodi:namedview
     pagecolor="#ffffff"
     bordercolor="#666666"
     borderopacity="1"
     objecttolerance="10"
     gridtolerance="10"
     guidetolerance="10"
     inkscape:pageopacity="0"
     inkscape:pageshadow="2"
     inkscape:window-width="3840"
     inkscape:window-height="2075"
     id="namedview10246"
     showgrid="false"
     inkscape:zoom="2.3660442"
     inkscape:cx="111.19941"
     inkscape:cy="271.82836"
     inkscape:window-x="7680"
     inkscape:window-y="2196"
     inkscape:window-maximized="0"
     inkscape:current-layer="svg10244"
     inkscape:snap-grids="true"
     inkscape:snap-to-guides="false"
     inkscape:snap-page="true"
     fit-margin-top="0"
     fit-margin-left="0"
     fit-margin-right="0"
     fit-margin-bottom="0" />
  <defs
     id="defs10218">
    <style
       id="style10216">.cls-1{fill:#29353a;}</style>
  </defs>
  <title
     id="title10220">kowala</title>
  <path
     style="opacity:1;fill:#29353a;fill-opacity:1;stroke:#d40000;stroke-width:0;stroke-miterlimit:4;stroke-dasharray:none;stroke-dashoffset:0;stroke-opacity:1"
     d="M 5e-7,4.9999994e-7 V 540 H 540 V 4.9999994e-7 Z M 269.96289,72.810547 c 0.11074,-0.01151 0.22236,0.01313 0.33399,0.09766 9.72284,7.169682 18.77717,15.323534 26.48046,24.65625 11.04452,13.199323 19.61129,28.375003 25.8711,44.378903 15.0546,-10.60713 31.12814,-19.8666 48.24609,-26.72852 11.83388,-4.85926 24.20994,-8.2388 36.71094,-10.86132 3.03425,13.91022 3.3846,28.23965 3.08984,42.42773 -0.63721,20.50338 -3.30775,40.93785 -7.74219,60.96484 16.97489,-1.1058 34.08004,-0.48581 50.89454,2.13672 9.2677,1.37845 18.42734,3.48011 27.32226,6.42774 0.42048,0.16473 1.2737,0.44374 0.9707,1.07617 -5.30574,19.33343 -13.16021,38.05553 -24.10156,54.90039 -11.25302,17.43827 -25.63636,32.8308 -42.21679,45.31055 -11.66482,8.82122 -24.37705,16.23349 -37.73243,22.18945 -13.01336,5.76522 -26.61202,10.32126 -40.61718,12.94336 -2.9563,0.37235 -5.89617,1.02225 -8.88672,1.03125 -2.54451,0.009 -5.40442,-1.77782 -5.47852,-4.53906 -0.36413,-2.92596 1.66933,-5.29205 3.07813,-7.63282 23.55071,-35.24155 42.38371,-73.79568 54.17383,-114.56836 -17.20856,3.19904 -33.85849,9.23849 -49.33399,17.39649 -2.24107,1.15305 -4.56674,2.65189 -7.21094,2.30078 -2.27141,-0.0516 -4.04687,-2.03746 -4.39843,-4.1875 -0.39446,-3.01264 -0.007,-6.05027 0.24023,-9.05859 0.91897,-21.24462 -0.92886,-42.65978 -6.07422,-63.31055 -11.89325,10.3774 -22.89453,21.75313 -32.95117,33.91211 11.08354,14.82052 20.97645,30.59394 28.72266,47.42578 4.06166,8.88191 7.55481,18.04633 10.04296,27.49609 4.4041,16.26009 5.24613,33.9716 -0.52343,50.00586 -3.00398,8.41808 -8.07153,16.16028 -14.99414,21.86914 -17.8245,14.71649 -45.37188,15.56115 -64.3711,2.57032 -6.51124,-4.45612 -11.8294,-10.59988 -15.39258,-17.63086 -3.81024,-7.26937 -5.84809,-15.36062 -6.69335,-23.48828 -1.02257,-8.6435 -0.18237,-17.40451 1.46484,-25.91797 3.64119,-17.94197 11.03599,-34.90401 19.875,-50.85547 5.94728,-10.6028 12.62325,-20.78972 19.93164,-30.50391 0.33378,-0.44214 0.77897,-1.06609 0.18945,-1.50781 -9.90535,-11.96825 -20.74568,-23.18199 -32.50586,-33.33399 -5.13235,21.07082 -7.15599,42.91322 -5.93359,64.56055 0.14738,3.09112 0.86688,6.36054 -0.39453,9.31641 -0.67189,1.61687 -2.3709,2.63064 -4.09571,2.65234 -2.03298,0.21241 -3.9321,-0.66398 -5.6621,-1.61719 -15.84785,-8.51866 -32.95593,-14.78137 -50.6504,-18.11914 11.73852,40.72935 30.57685,79.21805 54.0625,114.4336 1.55184,2.54016 3.83028,5.20048 3.13672,8.4082 -0.58085,2.89951 -3.87409,4.22422 -6.5664,3.91211 -9.30238,-0.85395 -18.39959,-3.1867 -27.29883,-5.96094 C 150.42928,337.48968 120.32363,318.8188 97.726562,293.10938 78.510601,271.44862 65.19422,244.90713 57.794922,217 c 0.40357,-0.8236 1.530245,-0.7372 2.271484,-1.08398 14.092281,-4.59051 28.839539,-6.86155 43.582034,-8.04493 11.09697,-0.84528 22.25416,-0.84975 33.35547,-0.11718 -4.98497,-23.15191 -7.99251,-46.80649 -7.73243,-70.51758 -0.0303,-6.95771 0.35447,-13.91182 1.09571,-20.83008 0.47292,-3.97065 1.30038,-7.88764 1.83789,-11.8457 0.74992,-0.0299 1.50418,-0.0167 2.23242,0.1914 4.91994,1.22674 9.89097,2.24856 14.76367,3.66602 24.52603,6.87492 47.41833,18.82172 68.1211,33.54687 8.82556,-22.61788 22.43109,-43.585173 40.73242,-59.675778 3.51115,-3.155697 7.27426,-6.012398 10.98047,-8.929687 0.2731,-0.143056 0.59551,-0.514278 0.92773,-0.548828 z m 0.0781,21.060547 c -17.89819,15.644116 -30.71664,36.589266 -38.41993,58.957026 1.11403,1.17037 2.47267,2.08124 3.67774,3.15626 12.46631,10.57635 24.06663,22.16758 34.63476,34.63867 1.35721,-1.33945 2.52271,-2.84793 3.81446,-4.24805 10.62448,-12.10696 22.29271,-23.28567 34.70312,-33.55469 -2.74781,-7.66384 -5.94938,-15.17168 -9.8164,-22.3457 -7.30406,-13.7364 -16.9506,-26.26123 -28.59375,-36.603516 z m 122.96875,30.755856 c -5.68286,1.53927 -11.19295,3.66557 -16.65039,5.85938 -17.17431,7.096 -33.24357,16.68452 -48.10743,27.80273 5.99973,21.16226 8.9607,43.17039 8.9043,65.16016 15.25011,-6.49303 31.31079,-11.07507 47.6875,-13.61133 2.51806,-10.5031 4.46436,-21.13624 5.95508,-31.83008 2.33687,-17.67279 3.47236,-35.57803 2.21094,-53.38086 z m -246.10547,0.0469 c -1.30475,20.69844 0.35541,41.46574 3.5332,61.92578 l -0.61523,0.3125 c 0.36845,0 0.67132,-0.18047 0.91406,-0.44922 -0.082,0.63287 -0.0819,1.27338 0.0391,1.90625 1.23107,7.18703 2.69136,14.33436 4.35156,21.43945 16.3637,2.60085 32.44585,7.08714 47.67383,13.6543 0.078,-21.95986 2.83379,-43.97958 8.98047,-65.08984 -18.91251,-14.28734 -39.97915,-25.95622 -62.61914,-33.15625 -0.7369,-0.23407 -1.49923,-0.39126 -2.25781,-0.54297 z m 123.04492,93.4707 c -11.51268,15.99134 -21.49823,33.20888 -28.45117,51.68359 -3.42012,9.24214 -6.0626,18.83481 -6.99414,28.66993 -0.7239,7.91092 0.0355,15.98277 2.36328,23.58593 2.15438,6.99195 6.16756,13.58822 12.15429,17.92774 6.04654,4.39934 13.59934,6.60531 21.05469,6.48437 9.38517,0.12137 19.00334,-3.47684 25.36719,-10.50781 5.38767,-5.92561 8.20885,-13.72283 9.47461,-21.52539 1.56093,-8.78177 0.81665,-17.78558 -1.04297,-26.45508 -3.60261,-16.54576 -10.64774,-32.14241 -18.95312,-46.82422 -4.58141,-7.92826 -9.45843,-15.722 -14.97266,-23.03906 z m 150.33398,5.09375 c -7.10426,-0.0313 -14.20944,0.31829 -21.2832,0.94141 -10.27771,38.08515 -26.43358,74.46527 -46.86328,108.16797 12.74375,-3.97495 24.98646,-9.54571 36.5039,-16.29493 21.72144,-12.7355 40.59474,-30.39914 54.29688,-51.55273 7.54248,-11.491 13.42979,-24.00126 18.11133,-36.91016 -9.19011,-2.09803 -18.59291,-3.202 -27.98633,-3.86132 -4.25402,-0.31519 -8.51675,-0.47144 -12.7793,-0.49024 z m -298.71679,0.01 c -14.2977,-0.0545 -28.604147,1.33236 -42.583987,4.3125 6.138013,17.41661 14.895239,33.96684 26.343747,48.48437 10.42899,13.3116 23.03415,24.8936 37.05274,34.34375 14.0277,9.39775 29.35933,16.9443 45.50195,21.9336 -20.47737,-33.65979 -36.60616,-70.04895 -46.85352,-108.1211 -6.46433,-0.60686 -12.96201,-0.92842 -19.46093,-0.95312 z m -1.73633,161.33203 c 4.87065,-0.003 9.74439,0.1837 14.60742,0.39258 6.01664,0.39012 11.92026,2.68719 16.44531,6.70117 6.55849,6.24206 10.13071,15.27644 10.19141,24.27539 0.0785,5.49647 0.36405,10.98357 0.28125,16.48437 -0.20784,6.78823 0.0776,13.57311 0.004,20.36524 -0.14296,8.2187 0.16483,16.44928 -0.23829,24.66797 -0.0303,1.89863 -1.13028,3.78395 -2.89843,4.54687 -2.96973,0.6112 -6.28625,0.74982 -9.01758,-0.7539 -2.39279,-1.36978 -4.05612,-3.99704 -3.98242,-6.79297 -0.30341,-9.24603 -0.0173,-18.49964 -0.0996,-27.75 0.0131,-7.66818 -0.0218,-15.33182 -0.0391,-22.9961 -0.078,-3.02132 -0.005,-6.05675 -0.51562,-9.04297 -0.85827,-3.92338 -2.76561,-7.7497 -5.99024,-10.24218 -2.99965,-2.34988 -6.89368,-3.29124 -10.65624,-3.13477 -4.62953,-0.282 -9.27674,-0.31449 -13.90626,0.006 -4.61216,-0.12095 -9.17613,1.99337 -12.17578,5.47852 -2.856595,3.21638 -4.191211,7.53906 -4.291011,11.79101 -0.36411,8.93827 -0.134119,17.88988 -0.199219,26.83203 0,8.82557 0.004,17.65101 0,26.47657 -0.04335,2.09802 0.138141,4.36395 -0.96289,6.2539 -1.49115,2.85227 -4.76764,4.30588 -7.888672,4.29688 -2.049905,-0.0564 -4.504332,0.1936 -6.025391,-1.49219 -1.317766,-1.20939 -1.148904,-3.09841 -1.183594,-4.71094 -0.04777,-14.45207 -0.0085,-28.90535 -0.02148,-43.35742 -0.01735,-6.35908 0.03065,-12.72187 0.41211,-19.07227 0.628109,-7.03488 2.974096,-14.126 7.677734,-19.50976 5.417579,-6.10723 13.565933,-9.56855 21.710933,-9.46875 2.91781,-0.17393 5.83932,-0.24214 8.76172,-0.24414 z m 168.98047,0.0137 c 1.18714,0.0163 2.37107,0.10143 3.53711,0.33984 1.76034,0.3121 3.05961,1.95964 3.34961,3.67188 0.37279,2.44913 0.24838,4.94086 0.30468,7.41601 0.0215,15.45773 -0.0617,30.91966 0.0293,46.37696 0.43347,4.29574 -0.20484,8.80382 1.51172,12.88281 2.11535,5.68244 7.56439,9.98864 13.65039,10.43945 5.73444,0.3817 11.49126,0.26767 17.23047,-0.006 3.16003,0.005 6.23003,-1.21389 8.7832,-3.02148 3.763,-2.85227 5.77828,-7.50174 6.3418,-12.0918 0.54661,-11.68217 0.24271,-23.38642 0.32031,-35.08203 0.0304,-7.51213 -0.0892,-15.02888 0.0625,-22.54101 -0.20764,-3.44135 2.16223,-6.8749 5.49609,-7.82032 2.51849,-0.71954 5.27535,-0.7631 7.78516,0.0215 2.44048,1.15781 2.78287,4.14976 2.82617,6.54297 0.0347,14.58211 0.004,29.16788 0.0117,43.75 0,5.8428 0.0143,11.69471 -0.36719,17.52539 -0.3988,8.23604 -3.90088,16.26004 -9.74023,22.08984 -4.51681,4.14446 -10.48238,6.53705 -16.57227,6.99219 -6.32918,0.3252 -12.66996,0.48117 -19.00781,0.35156 -3.89217,-0.17339 -7.83666,-0.0704 -11.64648,-0.99805 -5.65251,-1.28309 -10.80775,-4.43072 -14.74805,-8.65234 -3.00831,3.90561 -7.43385,6.51651 -12.05469,8.06445 -5.24939,1.62989 -10.79401,1.34385 -16.21679,1.59961 -5.05866,0.0516 -10.1219,0.0554 -15.17579,-0.24414 -7.17446,-0.17772 -14.24412,-3.18243 -19.34179,-8.23242 -6.27282,-6.26805 -8.74734,-15.30486 -9.05078,-23.95703 -0.35154,-9.90058 0.0479,-19.80603 -0.0605,-29.71094 0,-10.12164 -0.002,-20.24792 -0.006,-30.36523 -0.0867,-1.99443 0.83696,-4.17344 2.82227,-4.88867 2.77425,-0.58953 5.79226,-0.69782 8.46289,0.39453 2.99488,1.14437 4.97093,4.35108 4.81054,7.53711 0.0824,10.68951 -0.003,21.38428 0.0234,32.07812 0.0867,8.53123 -0.3695,17.06923 0.20703,25.5957 0.43348,3.94506 2.20774,7.72433 4.98633,10.56836 2.82192,2.74347 6.68318,4.40382 10.61914,4.54688 4.47303,0.26045 8.96012,0.21664 13.43359,0.0957 2.60519,-0.16516 5.29612,-0.0176 7.75782,-1.04492 6.41544,-2.12403 10.31775,-8.96752 10.34375,-15.5 -0.0264,-3.17304 0.43643,-6.32544 0.28906,-9.49805 0.1691,-16.47683 -0.16432,-32.95176 0.13476,-49.42773 0.0447,-1.4309 0.029,-3.08751 1.14258,-4.1582 0.99265,-1.25318 2.65642,-1.51246 4.15625,-1.56446 1.181,-0.0391 2.37148,-0.0925 3.5586,-0.0762 z m 129.96289,0.002 h 0.002 c 3.17738,0.02 6.35431,0.10204 9.52539,0.29492 6.76223,-0.0173 13.54535,2.31823 18.63867,6.8086 6.38508,6.1727 9.95767,14.98131 10.10938,23.82422 0.0564,5.48345 0.42416,10.96143 0.38086,16.44922 -0.18672,6.07343 0.0772,12.14729 0.008,18.22851 -0.23839,6.19912 0.20853,12.41459 -0.14648,18.61719 0.10359,3.57183 0.35966,7.22189 -0.61133,10.70703 -0.58953,1.27441 -1.73468,2.4408 -3.16992,2.64453 -2.85227,0.46382 -5.98113,0.46771 -8.54297,-1.02734 -2.40143,-1.46559 -3.94121,-4.27726 -3.78907,-7.09961 -0.20415,-10.20358 -0.012,-20.41707 -0.0684,-30.625 -15.92588,-0.0477 -31.85103,-0.009 -47.77735,-0.0215 -0.0302,7.76354 0.0118,15.53095 0.008,23.29883 -0.052,3.47647 0.17748,6.97923 -0.37304,10.4336 -1.39146,3.13013 -4.55492,5.22876 -7.97461,5.28906 -2.21116,-0.0434 -4.88582,0.31088 -6.5586,-1.47461 -1.21847,-1.07935 -1.09643,-2.84302 -1.14843,-4.31641 -0.0396,-17.04858 -0.0314,-34.10224 -0.01,-51.15039 0.16472,-4.63385 -0.0733,-9.30795 0.66797,-13.89844 0.78501,-6.19437 3.16423,-12.28388 7.21289,-17.07812 4.26454,-4.86793 10.26835,-8.20595 16.66211,-9.22852 2.4409,-0.5028 4.95497,-0.356 7.42578,-0.60351 3.175,-0.052 6.35193,-0.0924 9.5293,-0.0723 z m -228.27735,0.01 c 1.28902,0.0189 2.5795,0.19892 3.83008,0.47851 1.70356,0.77158 2.72599,2.58374 2.61328,4.44336 0.15221,23.109 -0.0296,46.21717 0.0176,69.33008 0.009,5.29707 0.0912,10.60333 -0.0606,15.9043 0.004,3.05644 -2.11911,5.94788 -4.98828,6.95312 -2.28485,0.93629 -4.83487,0.79762 -7.23242,0.5293 -2.14571,-0.19507 -3.86504,-2.26836 -3.71289,-4.41016 -0.104,-19.3239 -0.0234,-38.65223 -0.0234,-57.97656 0.0478,-9.10298 -0.11155,-18.21538 0.0488,-27.31836 -0.16385,-3.42835 2.42343,-6.5918 5.6875,-7.44531 1.24407,-0.36434 2.53124,-0.50728 3.82031,-0.48828 z m 225.9336,16.47461 c -2.11142,-0.007 -4.22225,0.05 -6.33203,0.2207 -5.67852,-0.17773 -11.24902,3.02213 -14.04493,7.95508 -3.28575,5.42321 -2.50977,12.01076 -2.68359,18.07031 5.00663,-0.22973 10.01399,-0.0179 15.0293,-0.0351 2.58784,-0.14739 5.17496,0.0187 7.77148,-0.0117 2.89561,0.091 5.79189,-0.28184 8.69141,-0.0742 2.15481,0.21248 4.31394,-0.0999 6.47265,-0.0527 3.2554,-0.0473 6.5048,0.17858 9.75586,-0.0117 0.0299,-2.72222 -0.0599,-5.44032 -0.0898,-8.1582 -0.12571,-4.49515 -1.38274,-9.14565 -4.39062,-12.5918 -2.38412,-2.85226 -5.97319,-4.54308 -9.62305,-4.97656 -3.51684,-0.13248 -7.0376,-0.32218 -10.55664,-0.33398 z"
     id="rect11586"
     inkscape:connector-curvature="0" />
</svg>
