<?xml version="1.0" encoding="UTF-8" standalone="no"?>
<svg
   xmlns:dc="http://purl.org/dc/elements/1.1/"
   xmlns:cc="http://creativecommons.org/ns#"
   xmlns:rdf="http://www.w3.org/1999/02/22-rdf-syntax-ns#"
   xmlns:svg="http://www.w3.org/2000/svg"
   xmlns="http://www.w3.org/2000/svg"
   xmlns:sodipodi="http://sodipodi.sourceforge.net/DTD/sodipodi-0.dtd"
   xmlns:inkscape="http://www.inkscape.org/namespaces/inkscape"
   viewBox="0 0 540 540"
   version="1.1"
   id="svg10244"
   sodipodi:docname="niwa.svg"
   inkscape:version="0.92.2 2405546, 2018-03-11">
  <metadata
     id="metadata10248">
    <rdf:RDF>
      <cc:Work
         rdf:about="">
        <dc:format>image/svg+xml</dc:format>
        <dc:type
           rdf:resource="http://purl.org/dc/dcmitype/StillImage" />
      </cc:Work>
    </rdf:RDF>
  </metadata>
  <sodipodi:namedview
     pagecolor="#ffffff"
     bordercolor="#666666"
     borderopacity="1"
     objecttolerance="10"
     gridtolerance="10"
     guidetolerance="10"
     inkscape:pageopacity="0"
     inkscape:pageshadow="2"
     inkscape:window-width="3840"
     inkscape:window-height="2075"
     id="namedview10246"
     showgrid="false"
     inkscape:zoom="2.3660442"
     inkscape:cx="111.19941"
     inkscape:cy="271.82836"
     inkscape:window-x="7680"
     inkscape:window-y="2196"
     inkscape:window-maximized="0"
     inkscape:current-layer="svg10244"
     inkscape:snap-grids="true"
     inkscape:snap-to-guides="false"
     inkscape:snap-page="true" />
  <defs
     id="defs10218">
    <style
       id="style10216">.cls-1{fill:#29353a;}</style>
  </defs>
  <title
     id="title10220">kowala</title>
  <path
     style="opacity:1;fill:#29353a;fill-opacity:1;stroke:#d40000;stroke-width:0;stroke-miterlimit:4;stroke-dasharray:none;stroke-dashoffset:0;stroke-opacity:1"
     d="M 0 0 L 0 540 L 540 540 L 540 0 L 0 0 z M 276.56055 71.964844 C 276.67129 71.953335 276.78291 71.97797 276.89453 72.0625 C 286.61738 79.232182 295.67171 87.387987 303.375 96.720703 C 314.41952 109.92003 322.98433 125.09376 329.24414 141.09766 C 344.29874 130.49053 360.37228 121.23301 377.49023 114.37109 C 389.32411 109.51183 401.70017 106.13033 414.20117 103.50781 C 417.23542 117.41803 417.58773 131.74747 417.29297 145.93555 C 416.65576 166.43893 413.98522 186.8734 409.55078 206.90039 C 426.52566 205.79459 443.63081 206.41653 460.44531 209.03906 C 469.71301 210.41751 478.87266 212.51917 487.76758 215.4668 C 488.18806 215.63153 489.04128 215.90859 488.73828 216.54102 C 483.43254 235.87445 475.57807 254.59655 464.63672 271.44141 C 453.3837 288.87968 439.00035 304.2722 422.41992 316.75195 C 410.7551 325.57317 398.04093 332.98545 384.68555 338.94141 C 371.67219 344.70663 358.07547 349.26267 344.07031 351.88477 C 341.11401 352.25712 338.17414 352.90702 335.18359 352.91602 C 332.63908 352.9247 329.77722 351.13819 329.70312 348.37695 C 329.33899 345.45099 331.37245 343.08491 332.78125 340.74414 C 356.33196 305.50259 375.16692 266.94846 386.95703 226.17578 C 369.74848 229.37482 353.09855 235.41427 337.62305 243.57227 C 335.38198 244.72532 333.05436 246.22416 330.41016 245.87305 C 328.13875 245.82147 326.36523 243.83754 326.01367 241.6875 C 325.61921 238.67486 326.00488 235.63527 326.25195 232.62695 C 327.17092 211.38233 325.32505 189.96913 320.17969 169.31836 C 308.28644 179.69576 297.28516 191.06954 287.22852 203.22852 C 298.31206 218.04904 308.20496 233.82246 315.95117 250.6543 C 320.01283 259.53621 323.50599 268.70063 325.99414 278.15039 C 330.39824 294.41048 331.23831 312.12199 325.46875 328.15625 C 322.46477 336.57433 317.39917 344.31653 310.47656 350.02539 C 292.65206 364.74188 265.10469 365.58653 246.10547 352.5957 C 239.59423 348.13958 234.27607 341.99778 230.71289 334.9668 C 226.90265 327.69743 224.8648 319.60422 224.01953 311.47656 C 222.99696 302.83306 223.83716 294.07205 225.48438 285.55859 C 229.12556 267.61662 236.52036 250.65458 245.35938 234.70312 C 251.30665 224.10033 257.98263 213.91536 265.29102 204.20117 C 265.6248 203.75903 266.06999 203.13313 265.48047 202.69141 C 255.57512 190.72316 244.73479 179.50942 232.97461 169.35742 C 227.84226 190.42823 225.81862 212.27259 227.04102 233.91992 C 227.1884 237.01104 227.90789 240.2785 226.64648 243.23438 C 225.97459 244.85124 224.27364 245.86697 222.54883 245.88867 C 220.51584 246.10108 218.61867 245.22469 216.88867 244.27148 C 201.04082 235.75282 183.9308 229.48816 166.23633 226.15039 C 177.97484 266.87974 196.81317 305.36843 220.29883 340.58398 C 221.85067 343.12414 224.13106 345.78642 223.4375 348.99414 C 222.85665 351.89365 219.5634 353.21641 216.87109 352.9043 C 207.56871 352.05035 198.46955 349.7176 189.57031 346.94336 C 157.02498 336.64398 126.92129 317.97505 104.32422 292.26562 C 85.108258 270.60487 71.791876 244.06143 64.392578 216.1543 C 64.796148 215.3307 65.922824 215.41905 66.664062 215.07227 C 80.756344 210.48176 95.501648 208.20877 110.24414 207.02539 C 121.34111 206.18011 132.50025 206.17563 143.60156 206.9082 C 138.61659 183.75629 135.60906 160.10171 135.86914 136.39062 C 135.8388 129.43291 136.22165 122.48076 136.96289 115.5625 C 137.43581 111.59185 138.26522 107.6729 138.80273 103.71484 C 139.55265 103.68492 140.30692 103.69818 141.03516 103.90625 C 145.9551 105.13299 150.92613 106.15481 155.79883 107.57227 C 180.32486 114.44719 203.21715 126.39399 223.91992 141.11914 C 232.74548 118.50126 246.35101 97.533964 264.65234 81.443359 C 268.16349 78.287662 271.9266 75.432914 275.63281 72.515625 C 275.90591 72.372569 276.22833 71.999394 276.56055 71.964844 z M 276.63867 93.025391 C 258.74048 108.66951 245.92204 129.61661 238.21875 151.98438 C 239.33278 153.15475 240.68946 154.06365 241.89453 155.13867 C 254.36084 165.71503 265.96117 177.30625 276.5293 189.77734 C 277.88651 188.43789 279.05395 186.92942 280.3457 185.5293 C 290.97018 173.42234 302.63842 162.24363 315.04883 151.97461 C 312.30102 144.31077 309.09749 136.80293 305.23047 129.62891 C 297.92641 115.89251 288.28182 103.36768 276.63867 93.025391 z M 399.60742 123.78125 C 393.92456 125.32052 388.41448 127.44877 382.95703 129.64258 C 365.78273 136.73858 349.71347 146.3271 334.84961 157.44531 C 340.84934 178.60757 343.80835 200.6157 343.75195 222.60547 C 359.00206 216.11244 375.06274 211.5304 391.43945 208.99414 C 393.95751 198.49104 395.90381 187.8579 397.39453 177.16406 C 399.7314 159.49127 400.86884 141.58408 399.60742 123.78125 z M 153.50195 123.82812 C 152.1972 144.52657 153.85737 165.29582 157.03516 185.75586 L 156.41797 186.06836 C 156.78642 186.06836 157.08929 185.88594 157.33203 185.61719 C 157.25008 186.25006 157.25016 186.89057 157.37109 187.52344 C 158.60216 194.71047 160.06441 201.8578 161.72461 208.96289 C 178.08831 211.56374 194.17046 216.05003 209.39844 222.61719 C 209.47646 200.65733 212.23223 178.6376 218.37891 157.52734 C 199.4664 143.24 178.39976 131.57112 155.75977 124.37109 C 155.02287 124.13702 154.26053 123.97983 153.50195 123.82812 z M 276.54688 217.29883 C 265.03419 233.29017 255.04669 250.5077 248.09375 268.98242 C 244.67363 278.22455 242.0331 287.81722 241.10156 297.65234 C 240.37766 305.56326 241.13708 313.63512 243.46484 321.23828 C 245.61922 328.23023 249.63241 334.8265 255.61914 339.16602 C 261.66568 343.56536 269.21652 345.77328 276.67188 345.65234 C 286.05705 345.77371 295.67717 342.1755 302.04102 335.14453 C 307.42869 329.21892 310.24986 321.41975 311.51562 313.61719 C 313.07656 304.83542 312.33032 295.83161 310.4707 287.16211 C 306.86809 270.61635 299.82491 255.02165 291.51953 240.33984 C 286.93812 232.41158 282.0611 224.61589 276.54688 217.29883 z M 426.88086 222.39258 C 419.7766 222.36124 412.67142 222.71086 405.59766 223.33398 C 395.31995 261.41913 379.16408 297.79925 358.73438 331.50195 C 371.47813 327.527 383.71888 321.9582 395.23633 315.20898 C 416.95776 302.47348 435.83302 284.80789 449.53516 263.6543 C 457.07764 252.1633 462.96299 239.65304 467.64453 226.74414 C 458.45442 224.64611 449.05162 223.54213 439.6582 222.88281 C 435.40418 222.56762 431.14341 222.41138 426.88086 222.39258 z M 128.16406 222.40234 C 113.86636 222.34789 99.559918 223.7347 85.580078 226.71484 C 91.718091 244.13145 100.47532 260.68169 111.92383 275.19922 C 122.35282 288.51082 134.95797 300.09477 148.97656 309.54492 C 163.00426 318.94267 178.3359 326.48922 194.47852 331.47852 C 174.00115 297.81873 157.87041 261.42762 147.62305 223.35547 C 141.15872 222.74861 134.66298 222.42704 128.16406 222.40234 z M 126.42773 383.73438 C 131.29838 383.73166 136.17213 383.91807 141.03516 384.12695 C 147.0518 384.51707 152.95542 386.8161 157.48047 390.83008 C 164.03896 397.07214 167.61118 406.10457 167.67188 415.10352 C 167.75034 420.59999 168.03592 426.08709 167.95312 431.58789 C 167.74529 438.37612 168.03073 445.161 167.95703 451.95312 C 167.81408 460.17183 168.12187 468.4024 167.71875 476.62109 C 167.6884 478.51972 166.58846 480.407 164.82031 481.16992 C 161.85058 481.78112 158.53406 481.91778 155.80273 480.41406 C 153.40994 479.04428 151.74661 476.41898 151.82031 473.62305 C 151.5169 464.37702 151.803 455.12145 151.7207 445.87109 C 151.7338 438.20291 151.69894 430.53928 151.68164 422.875 C 151.60361 419.85368 151.67709 416.8202 151.16602 413.83398 C 150.30775 409.9106 148.39846 406.08232 145.17383 403.58984 C 142.17418 401.23996 138.28209 400.30056 134.51953 400.45703 C 129.89 400.17503 125.2428 400.14059 120.61328 400.46094 C 116.00111 400.33999 111.43715 402.4543 108.4375 405.93945 C 105.5809 409.15583 104.24628 413.47852 104.14648 417.73047 C 103.78237 426.66874 104.01237 435.62035 103.94727 444.5625 C 103.94727 453.38807 103.95127 462.2135 103.94727 471.03906 C 103.90392 473.13708 104.0854 475.40302 102.98438 477.29297 C 101.49322 480.14524 98.216735 481.59884 95.095703 481.58984 C 93.045798 481.53348 90.591371 481.7854 89.070312 480.09961 C 87.752546 478.89022 87.921409 476.99925 87.886719 475.38672 C 87.838949 460.93465 87.878204 446.48332 87.865234 432.03125 C 87.847888 425.67217 87.895885 419.30743 88.277344 412.95703 C 88.905454 405.92215 91.249487 398.83103 95.953125 393.44727 C 101.3707 387.34004 109.52102 383.88067 117.66602 383.98047 C 120.58383 383.80654 123.50533 383.73638 126.42773 383.73438 z M 295.4082 383.74805 C 296.59534 383.7643 297.77927 383.84948 298.94531 384.08789 C 300.70565 384.39999 302.00492 386.04753 302.29492 387.75977 C 302.66771 390.2089 302.54136 392.70063 302.59766 395.17578 C 302.61916 410.63351 302.53791 426.09543 302.62891 441.55273 C 303.06238 445.84847 302.42406 450.35656 304.14062 454.43555 C 306.25598 460.11799 311.70502 464.42419 317.79102 464.875 C 323.52546 465.2567 329.28227 465.14462 335.02148 464.87109 C 338.18151 464.87586 341.25152 463.6572 343.80469 461.84961 C 347.56769 458.99734 349.58296 454.34592 350.14648 449.75586 C 350.69309 438.07369 350.3892 426.36944 350.4668 414.67383 C 350.4972 407.1617 350.37562 399.64494 350.52734 392.13281 C 350.3197 388.69146 352.68958 385.25987 356.02344 384.31445 C 358.54193 383.59491 361.30074 383.54939 363.81055 384.33398 C 366.25103 385.49179 366.59342 388.48374 366.63672 390.87695 C 366.67142 405.45906 366.64044 420.04483 366.64844 434.62695 C 366.64844 440.46975 366.66271 446.32166 366.28125 452.15234 C 365.88245 460.38838 362.37841 468.41239 356.53906 474.24219 C 352.02225 478.38665 346.05864 480.77924 339.96875 481.23438 C 333.63957 481.55957 327.29879 481.71555 320.96094 481.58594 C 317.06877 481.41255 313.12232 481.51748 309.3125 480.58984 C 303.65999 479.30675 298.50671 476.15912 294.56641 471.9375 C 291.5581 475.84311 287.13256 478.45206 282.51172 480 C 277.26233 481.62989 271.7177 481.34385 266.29492 481.59961 C 261.23626 481.65119 256.17303 481.655 251.11914 481.35547 C 243.94468 481.17775 236.87501 478.17499 231.77734 473.125 C 225.50452 466.85695 223.03 457.81819 222.72656 449.16602 C 222.37502 439.26544 222.77246 429.35999 222.66406 419.45508 C 222.66406 409.33344 222.66416 399.20715 222.66016 389.08984 C 222.57347 387.09541 223.49711 384.91641 225.48242 384.20117 C 228.25667 383.61164 231.27468 383.50335 233.94531 384.5957 C 236.94019 385.74007 238.91625 388.94874 238.75586 392.13477 C 238.83826 402.82428 238.75134 413.5171 238.77734 424.21094 C 238.86404 432.74217 238.4098 441.28017 238.98633 449.80664 C 239.41981 453.7517 241.19211 457.53097 243.9707 460.375 C 246.79262 463.11847 250.65584 464.78077 254.5918 464.92383 C 259.06483 465.18428 263.55192 465.14047 268.02539 465.01953 C 270.63058 464.85437 273.3215 465.00195 275.7832 463.97461 C 282.19864 461.85058 286.099 455.00514 286.125 448.47266 C 286.09855 445.29962 286.56339 442.14722 286.41602 438.97461 C 286.58512 422.49778 286.25169 406.02285 286.55078 389.54688 C 286.59544 388.11597 286.57781 386.45936 287.69141 385.38867 C 288.68406 384.13549 290.34978 383.87622 291.84961 383.82422 C 293.03061 383.78512 294.22108 383.73175 295.4082 383.74805 z M 425.37109 383.75 L 425.37305 383.75 C 428.55043 383.77004 431.7254 383.85203 434.89648 384.04492 C 441.65871 384.02759 448.44379 386.36315 453.53711 390.85352 C 459.92219 397.02622 463.49282 405.83482 463.64453 414.67773 C 463.70088 420.16118 464.06869 425.64112 464.02539 431.12891 C 463.83867 437.20234 464.10456 443.27425 464.03516 449.35547 C 463.79677 455.55459 464.24368 461.77006 463.88867 467.97266 C 463.99226 471.54449 464.24833 475.1965 463.27734 478.68164 C 462.68781 479.95605 461.54266 481.12049 460.10742 481.32422 C 457.25515 481.78804 454.12629 481.79388 451.56445 480.29883 C 449.16302 478.83324 447.62325 476.01962 447.77539 473.19727 C 447.57124 462.99369 447.76333 452.7802 447.70703 442.57227 C 431.78115 442.52457 415.85405 442.56328 399.92773 442.55078 C 399.89753 450.31432 399.9415 458.08173 399.9375 465.84961 C 399.88549 469.32608 400.11497 472.82883 399.56445 476.2832 C 398.17299 479.41333 395.00758 481.51197 391.58789 481.57227 C 389.37673 481.52892 386.70403 481.88315 385.03125 480.09766 C 383.81278 479.01831 383.93481 477.25464 383.88281 475.78125 C 383.84321 458.73267 383.85145 441.67901 383.87305 424.63086 C 384.03777 419.99701 383.79977 415.32486 384.54102 410.73438 C 385.32603 404.54 387.70525 398.44854 391.75391 393.6543 C 396.01845 388.78637 402.02226 385.44835 408.41602 384.42578 C 410.85692 383.92298 413.37099 384.07173 415.8418 383.82422 C 419.0168 383.77222 422.19372 383.7299 425.37109 383.75 z M 197.09375 383.76172 C 198.38277 383.78063 199.67325 383.96064 200.92383 384.24023 C 202.62739 385.01181 203.64982 386.82202 203.53711 388.68164 C 203.68932 411.79064 203.50749 434.89881 203.55469 458.01172 C 203.56389 463.30879 203.64585 468.61505 203.49414 473.91602 C 203.49847 476.97246 201.37308 479.8639 198.50391 480.86914 C 196.21906 481.80543 193.67099 481.66676 191.27344 481.39844 C 189.12773 481.20337 187.40644 479.13203 187.55859 476.99023 C 187.45459 457.66633 187.53711 438.33605 187.53711 419.01172 C 187.58488 409.90874 187.4236 400.79829 187.58398 391.69531 C 187.42013 388.26696 190.00741 385.10156 193.27148 384.24805 C 194.51555 383.88371 195.80468 383.74272 197.09375 383.76172 z M 423.02734 400.23633 C 420.91592 400.22927 418.80314 400.2844 416.69336 400.45508 C 411.01484 400.27735 405.4463 403.47721 402.65039 408.41016 C 399.36464 413.83337 400.14062 420.42092 399.9668 426.48047 C 404.97343 426.25074 409.97883 426.46457 414.99414 426.44727 C 417.58198 426.29988 420.17106 426.46399 422.76758 426.43359 C 425.66319 426.52458 428.55751 426.15175 431.45703 426.35938 C 433.61184 426.57185 435.77098 426.25944 437.92969 426.30664 C 441.18509 426.25934 444.43644 426.48521 447.6875 426.29492 C 447.7174 423.57269 447.62756 420.8546 447.59766 418.13672 C 447.47195 413.64157 446.21297 408.99106 443.20508 405.54492 C 440.82097 402.69266 437.23189 401.00184 433.58203 400.56836 C 430.06519 400.43588 426.54638 400.24813 423.02734 400.23633 z "
     id="rect11586" />
</svg>
