<svg xmlns="http://www.w3.org/2000/svg" xmlns:xlink="http://www.w3.org/1999/xlink" viewBox="0 0 183.19 180.08"><defs><style>.cls-1{fill:url(#New_Gradient_Swatch_1);}.cls-2{fill:url(#New_Gradient_Swatch_1-2);}</style><linearGradient id="New_Gradient_Swatch_1" x1="-1204.95" y1="-204.79" x2="591.57" y2="187.48" gradientUnits="userSpaceOnUse"><stop offset="0" stop-color="#d3161a"/><stop offset="0.23" stop-color="#e2640f"/><stop offset="0.42" stop-color="#ffcd0b"/><stop offset="0.45" stop-color="#fdcd0c"/><stop offset="0.48" stop-color="#f6cb0f"/><stop offset="0.51" stop-color="#e9c814"/><stop offset="0.53" stop-color="#d7c41a"/><stop offset="0.55" stop-color="#bebd22"/><stop offset="0.57" stop-color="#9bb529"/><stop offset="0.59" stop-color="#68aa31"/><stop offset="0.6" stop-color="#4fa534"/><stop offset="0.64" stop-color="#3e9937"/><stop offset="0.72" stop-color="#1b853a"/><stop offset="0.78" stop-color="#057e3b"/><stop offset="0.8" stop-color="#0a7e3f"/><stop offset="0.83" stop-color="#157f4a"/><stop offset="0.86" stop-color="#1f815f"/><stop offset="0.91" stop-color="#2a857d"/><stop offset="0.95" stop-color="#3789a2"/><stop offset="1" stop-color="#478dcb"/></linearGradient><linearGradient id="New_Gradient_Swatch_1-2" x1="-1216.75" y1="-150.95" x2="579.81" y2="241.33" xlink:href="#New_Gradient_Swatch_1"/></defs><title>o2</title><g id="Layer_2" data-name="Layer 2"><g id="Layer_1-2" data-name="Layer 1"><g id="_000166ff" data-name="#000166ff"><path class="cls-1" d="M69.7,0a78.79,78.79,0,0,1,30.45,4.87,66,66,0,0,1,35.69,32.16,78.36,78.36,0,0,1,7.89,27.05,89.56,89.56,0,0,1,.43,14.18,79.08,79.08,0,0,1-4.24,22.07,72.43,72.43,0,0,1-19.17,29.52A68.75,68.75,0,0,1,91.06,146a77,77,0,0,1-24.84,2.09,72.14,72.14,0,0,1-24.54-6.2,68.9,68.9,0,0,1-23.39-17.41A73.84,73.84,0,0,1,2.16,92.82,82.1,82.1,0,0,1,0,75.58v-3A92.35,92.35,0,0,1,1.42,58.08a73.12,73.12,0,0,1,14-31.94A65.49,65.49,0,0,1,36.05,8.65,75,75,0,0,1,69.7,0m-.81,21.29a39.45,39.45,0,0,0-23.7,10.19A48.28,48.28,0,0,0,35,44.83a62.1,62.1,0,0,0-6.89,24.56,69.41,69.41,0,0,0,.58,15,63.13,63.13,0,0,0,5.58,18.42,46.67,46.67,0,0,0,9.54,13.29,38.58,38.58,0,0,0,14.86,8.92,44.8,44.8,0,0,0,15.81,2,41.66,41.66,0,0,0,14.48-3.19,40,40,0,0,0,17-14.07,59.85,59.85,0,0,0,9.85-26.7,65.27,65.27,0,0,0-5.58-36.54A49.46,49.46,0,0,0,100.7,33a39.5,39.5,0,0,0-15.22-9.65A41.32,41.32,0,0,0,68.89,21.33Z"/><path class="cls-2" d="M142.75,120.69a42.3,42.3,0,0,1,16.78-4.43,29.54,29.54,0,0,1,8.89.76,16.84,16.84,0,0,1,8,4.41,15.35,15.35,0,0,1,3.81,6.57,23.48,23.48,0,0,1,.68,9.36,26.74,26.74,0,0,1-2.56,8.08,58.65,58.65,0,0,1-9,12.73c-3.73,4.16-7.76,8.05-11.78,11.94,8.1,0,16.21,0,24.31,0a5.3,5.3,0,0,1,1.32.09V180c-.24,0-.49.07-.73.08H141.3V169.5c.94-.94,1.94-1.8,2.9-2.71,4.17-3.81,8.28-7.69,12.15-11.8s7.36-8.27,10-13.15a16.29,16.29,0,0,0,2.14-7.4,7.52,7.52,0,0,0-2-5.11,10.55,10.55,0,0,0-6.52-3,20.68,20.68,0,0,0-9.58,1.5,40.14,40.14,0,0,0-6.63,3.45C143.41,127.72,143.07,124.21,142.75,120.69Z"/></g></g></g></svg>