<svg xmlns="http://www.w3.org/2000/svg" viewBox="0 0 540 539"><defs><style>.cls-1{fill:#29353a;}</style></defs><title>o2</title><g id="Layer_2" data-name="Layer 2"><g id="Layer_1-2" data-name="Layer 1"><path class="cls-1" d="M151.08,296.88a96.18,96.18,0,0,0,19.68,27.44,79.63,79.63,0,0,0,30.7,18.43,93,93,0,0,0,32.65,4.18,86.42,86.42,0,0,0,29.9-6.59c14.25-6,26.39-16.43,35.21-29.06C310.6,295,317,275.71,319.54,256.14c3.34-25.54-.3-52.17-11.51-75.45a102,102,0,0,0-19.69-28,81.74,81.74,0,0,0-31.43-19.93,85.61,85.61,0,0,0-34.26-4.21,81.62,81.62,0,0,0-48.94,21.05,99.44,99.44,0,0,0-21.14,27.49,128.51,128.51,0,0,0-14.22,50.72,143.37,143.37,0,0,0,1.19,31.05A129.79,129.79,0,0,0,151.08,296.88Z"/><path class="cls-1" d="M0,539H540V0H0ZM428.2,326.14a34.93,34.93,0,0,1,16.6,9.11,31.61,31.61,0,0,1,7.85,13.58,48.32,48.32,0,0,1,1.42,19.33,55.14,55.14,0,0,1-5.29,16.68c-4.81,9.67-11.52,18.26-18.68,26.29-7.72,8.59-16,16.62-24.34,24.65,16.74-.06,33.13,0,49.86,0a8.22,8.22,0,0,1,2.38.19v20.28c-1,.06-.32.79-.82.79H373V434.52c2-1.94,3.59-3.72,5.58-5.61,8.61-7.86,16.9-15.87,24.9-24.37,7.69-8.34,15.09-17.07,20.45-27.14,2.43-4.74,4.41-9.88,4.37-15.28a15.61,15.61,0,0,0-4.1-10.56c-3.47-3.75-8.52-5.65-13.49-6.27a42.81,42.81,0,0,0-19.78,3.1,82.74,82.74,0,0,0-13.69,7.12c-.69-7.26-1.4-14.52-2.06-21.78a87.26,87.26,0,0,1,34.66-9.16A61.33,61.33,0,0,1,428.2,326.14ZM79,234.31c2-10,1.82-20,3.64-29.87a151.58,151.58,0,0,1,29.15-66,135.68,135.68,0,0,1,42.89-36.1c21.26-11.5,45.49-17.18,69.58-17.78,21.32-.67,42.93,2.42,62.91,10a136.27,136.27,0,0,1,73.74,66.42,161.68,161.68,0,0,1,16.28,55.86,183.43,183.43,0,0,1,.9,29.27,163.34,163.34,0,0,1-8.76,45.58,149.45,149.45,0,0,1-39.57,61A142.23,142.23,0,0,1,268.44,386a159.1,159.1,0,0,1-51.3,4.33,149.77,149.77,0,0,1-50.67-12.81,142,142,0,0,1-48.29-36,153.87,153.87,0,0,1-34-65.39C81.38,264.51,81,252.54,79,240.57Z"/></g></g></svg>