<svg xmlns="http://www.w3.org/2000/svg" viewBox="0 0 285 307"><defs><style>.cls-1{fill:#1a1a1a;}</style></defs><title>o2</title><g id="Layer_2" data-name="Layer 2"><g id="Layer_1-2" data-name="Layer 1"><path class="cls-1" d="M84.7,161.43a46.64,46.64,0,0,0,9.53,13.29,38.57,38.57,0,0,0,14.87,8.92,45,45,0,0,0,15.81,2,41.71,41.71,0,0,0,14.48-3.19,40,40,0,0,0,17.05-14.07,59.81,59.81,0,0,0,9.84-26.7,65.16,65.16,0,0,0-5.57-36.54,49.69,49.69,0,0,0-9.54-13.57A39.74,39.74,0,0,0,136,82a41.5,41.5,0,0,0-16.59-2,39.54,39.54,0,0,0-23.7,10.2,48.18,48.18,0,0,0-10.24,13.31A62.21,62.21,0,0,0,78.54,128a69.46,69.46,0,0,0,.58,15A62.86,62.86,0,0,0,84.7,161.43Z"/><path class="cls-1" d="M0,307H285V0H0ZM218.9,175.6a17,17,0,0,1,8,4.42,15.37,15.37,0,0,1,3.8,6.57,23.29,23.29,0,0,1,.69,9.36,27,27,0,0,1-2.56,8.08,58.89,58.89,0,0,1-9.05,12.73c-3.74,4.16-7.76,8.05-11.79,11.94,8.11,0,16.38,0,24.48,0a8,8,0,0,1,1.49.09v9.82c-1,0-.82.41-1.06.41H192V228.08c1-.93,1.82-1.8,2.79-2.71,4.17-3.81,8.22-7.69,12.1-11.8a64.5,64.5,0,0,0,9.92-13.15,16.11,16.11,0,0,0,2.13-7.39,7.57,7.57,0,0,0-2-5.12,10.62,10.62,0,0,0-6.54-3,20.65,20.65,0,0,0-9.57,1.5,40.06,40.06,0,0,0-6.63,3.44c-.33-3.51-.68-7-1-10.54A42.36,42.36,0,0,1,210,174.84,29.89,29.89,0,0,1,218.9,175.6ZM50,131.13c1-4.84.78-9.69,1.66-14.46A73.35,73.35,0,0,1,65.73,84.72,65.55,65.55,0,0,1,86.47,67.24a74.9,74.9,0,0,1,33.68-8.61,78.62,78.62,0,0,1,30.46,4.87,66,66,0,0,1,35.7,32.16,78.29,78.29,0,0,1,7.89,27.05,89.47,89.47,0,0,1,.43,14.17A78.86,78.86,0,0,1,190.39,159a72.3,72.3,0,0,1-19.16,29.52,68.89,68.89,0,0,1-29.7,16.12,77,77,0,0,1-24.84,2.09,72.38,72.38,0,0,1-24.53-6.2,68.81,68.81,0,0,1-23.39-17.41,74.48,74.48,0,0,1-16.38-31.67C51.05,145.76,51,140,50,134.16Z"/></g></g></svg>