<svg xmlns="http://www.w3.org/2000/svg" xmlns:xlink="http://www.w3.org/1999/xlink" viewBox="0 0 284.44 306.65"><defs><style>.cls-1{fill:#1a1a1a;}.cls-2{fill:url(#New_Gradient_Swatch_1);}.cls-3{fill:url(#New_Gradient_Swatch_1-2);}</style><linearGradient id="New_Gradient_Swatch_1" x1="-1154.78" y1="-146.47" x2="641.73" y2="245.8" gradientUnits="userSpaceOnUse"><stop offset="0" stop-color="#d3161a"/><stop offset="0.23" stop-color="#e2640f"/><stop offset="0.42" stop-color="#ffcd0b"/><stop offset="0.45" stop-color="#fdcd0c"/><stop offset="0.48" stop-color="#f6cb0f"/><stop offset="0.51" stop-color="#e9c814"/><stop offset="0.53" stop-color="#d7c41a"/><stop offset="0.55" stop-color="#bebd22"/><stop offset="0.57" stop-color="#9bb529"/><stop offset="0.59" stop-color="#68aa31"/><stop offset="0.6" stop-color="#4fa534"/><stop offset="0.64" stop-color="#3e9937"/><stop offset="0.72" stop-color="#1b853a"/><stop offset="0.78" stop-color="#057e3b"/><stop offset="0.8" stop-color="#0a7e3f"/><stop offset="0.83" stop-color="#157f4a"/><stop offset="0.86" stop-color="#1f815f"/><stop offset="0.91" stop-color="#2a857d"/><stop offset="0.95" stop-color="#3789a2"/><stop offset="1" stop-color="#478dcb"/></linearGradient><linearGradient id="New_Gradient_Swatch_1-2" x1="-1166.58" y1="-92.63" x2="629.98" y2="299.65" xlink:href="#New_Gradient_Swatch_1"/></defs><title>o2</title><g id="Layer_2" data-name="Layer 2"><g id="Layer_1-2" data-name="Layer 1"><rect class="cls-1" width="284.44" height="306.65"/><g id="_000166ff" data-name="#000166ff"><path class="cls-2" d="M119.87,58.36a78.79,78.79,0,0,1,30.45,4.87A66.11,66.11,0,0,1,186,95.39a78.34,78.34,0,0,1,7.88,27.05,89.56,89.56,0,0,1,.44,14.18,78.74,78.74,0,0,1-4.25,22.07,72.3,72.3,0,0,1-19.16,29.52,68.78,68.78,0,0,1-29.7,16.12,77,77,0,0,1-24.84,2.09,72.15,72.15,0,0,1-24.53-6.2,68.81,68.81,0,0,1-23.39-17.41,74,74,0,0,1-16.14-31.67,82.75,82.75,0,0,1-2.15-17.24v-3a92.35,92.35,0,0,1,1.42-14.47,73.12,73.12,0,0,1,14-31.94A65.49,65.49,0,0,1,86.22,67a75,75,0,0,1,33.65-8.61m-.82,21.29a39.51,39.51,0,0,0-23.7,10.19,48.67,48.67,0,0,0-10.24,13.31,62.25,62.25,0,0,0-6.88,24.56,69.41,69.41,0,0,0,.58,15,62.83,62.83,0,0,0,5.58,18.42,46.64,46.64,0,0,0,9.53,13.29,38.69,38.69,0,0,0,14.87,8.92,44.8,44.8,0,0,0,15.81,2,41.66,41.66,0,0,0,14.48-3.19,40,40,0,0,0,17-14.07,59.72,59.72,0,0,0,9.84-26.7,65.17,65.17,0,0,0-5.57-36.54,49.49,49.49,0,0,0-9.54-13.56,39.43,39.43,0,0,0-15.22-9.65A41.32,41.32,0,0,0,119.05,79.65Z"/><path class="cls-3" d="M192.92,179a42.26,42.26,0,0,1,16.78-4.43,29.57,29.57,0,0,1,8.89.76,16.84,16.84,0,0,1,8,4.41,15.33,15.33,0,0,1,3.8,6.57,23.3,23.3,0,0,1,.69,9.36,26.74,26.74,0,0,1-2.56,8.08,58.65,58.65,0,0,1-9.05,12.73c-3.74,4.16-7.76,8-11.79,11.94,8.11,0,16.21,0,24.32,0a5.34,5.34,0,0,1,1.32.09v9.82c-.25,0-.49.07-.73.08H191.47c0-3.53,0-7.05,0-10.58.93-.94,1.93-1.8,2.9-2.71,4.17-3.81,8.28-7.69,12.15-11.8s7.36-8.27,9.95-13.15a16.3,16.3,0,0,0,2.15-7.4,7.52,7.52,0,0,0-2-5.11,10.57,10.57,0,0,0-6.53-3,20.65,20.65,0,0,0-9.57,1.5,39.75,39.75,0,0,0-6.63,3.45C193.58,186,193.23,182.53,192.92,179Z"/></g></g></g></svg>