<?xml version="1.0" encoding="UTF-8" standalone="no"?>
<!-- Created with Inkscape (http://www.inkscape.org/) -->

<svg
   xmlns:dc="http://purl.org/dc/elements/1.1/"
   xmlns:cc="http://creativecommons.org/ns#"
   xmlns:rdf="http://www.w3.org/1999/02/22-rdf-syntax-ns#"
   xmlns:svg="http://www.w3.org/2000/svg"
   xmlns="http://www.w3.org/2000/svg"
   xmlns:sodipodi="http://sodipodi.sourceforge.net/DTD/sodipodi-0.dtd"
   xmlns:inkscape="http://www.inkscape.org/namespaces/inkscape"
   width="209.04552mm"
   height="209.0201mm"
   viewBox="0 0 209.04552 209.0201"
   version="1.1"
   id="svg1651"
   inkscape:version="0.92.3 (2405546, 2018-03-11)"
   sodipodi:docname="paul.svg">
  <defs
     id="defs1645" />
  <sodipodi:namedview
     id="base"
     pagecolor="#ffffff"
     bordercolor="#666666"
     borderopacity="1.0"
     inkscape:pageopacity="0.0"
     inkscape:pageshadow="2"
     inkscape:zoom="1.4"
     inkscape:cx="434.80292"
     inkscape:cy="378.12588"
     inkscape:document-units="mm"
     inkscape:current-layer="layer1"
     showgrid="false"
     inkscape:window-width="3840"
     inkscape:window-height="2097"
     inkscape:window-x="-8"
     inkscape:window-y="-8"
     inkscape:window-maximized="1"
     fit-margin-top="0"
     fit-margin-left="0"
     fit-margin-right="0"
     fit-margin-bottom="0" />
  <metadata
     id="metadata1648">
    <rdf:RDF>
      <cc:Work
         rdf:about="">
        <dc:format>image/svg+xml</dc:format>
        <dc:type
           rdf:resource="http://purl.org/dc/dcmitype/StillImage" />
        <dc:title></dc:title>
      </cc:Work>
    </rdf:RDF>
  </metadata>
  <g
     inkscape:label="Layer 1"
     inkscape:groupmode="layer"
     id="layer1"
     transform="translate(1123.9638,-738.33753)">
    <path
       inkscape:connector-curvature="0"
       style="opacity:1;fill:#000000;stroke:#ffffff;stroke-width:0;stroke-miterlimit:4;stroke-dasharray:none;stroke-opacity:1"
       d="m -1019.4275,738.33753 a 104.51041,104.51041 0 0 0 -104.5105,104.51042 104.51041,104.51041 0 0 0 24.244,66.78507 c 0.504,-1.12414 0.9663,-2.27416 1.3054,-3.50521 2.5576,-2.05317 5.5135,-3.33736 8.2088,-5.19297 4.3462,-2.54 8.5128,-5.34421 12.732,-8.08529 4.1275,-2.98803 8.6357,-6.42096 13.5217,-7.99434 1.9791,-0.72673 3.9264,-1.70354 5.8033,-2.67012 1.0795,-0.75495 2.0145,-1.76737 2.96,-2.68459 0.9031,-0.80786 2.0426,-0.8575 2.7481,-1.84175 0.6491,-0.88547 2.0249,-1.67226 3.1326,-1.4888 1.2948,0.43743 2.5999,-0.53605 3.7817,-1.0511 -0.3387,-0.98072 -0.9805,-1.82771 -1.2133,-2.88251 -0.6527,-1.64747 -0.4973,-3.2945 -0.6667,-5.009 -0.3774,-0.56444 -0.6777,-1.10451 -0.9105,-1.74304 -0.3845,0.0318 -0.8217,0.16936 -1.1886,0.0424 -0.3175,-0.94897 0.018,-1.85924 -0.5715,-2.75177 -0.12,-1.12888 0.4551,-2.38124 0.7126,-3.43958 -0.1411,-0.45507 -0.8748,-0.30295 -1.0547,-0.79685 -0.3563,-1.04068 1.3826,-1.00942 1.2521,-2.07481 -0.1235,-0.78669 -0.977,-1.42478 -1.4779,-2.01745 -0.01,0.52211 0,1.0405 -0.1023,1.55908 -0.5116,0.10936 -0.7941,-0.68799 -0.907,-1.06195 -0.5785,-2.12725 -0.4796,-4.47309 0.2119,-6.56859 -0.1341,-0.26104 -0.2751,-0.51865 -0.4232,-0.77618 0.1199,-0.62087 0.5781,-1.16753 0.7968,-1.76372 0.039,-0.51154 -0.035,-1.04452 -0.1622,-1.53841 -1.4182,-0.34219 -2.4055,-1.30178 -3.1569,-2.50475 -0.8679,-1.39348 -1.6831,-2.86419 -2.311,-4.38113 -1.5697,-5.45042 -2.3987,-11.32455 -1.5167,-16.96899 0.1375,-0.77964 0.335,-2.12731 1.1922,-2.44481 2.1872,-0.34219 3.3724,0.861 5.2069,1.63711 -0.1905,-0.42334 -0.568,-0.82211 -0.617,-1.28778 -0.1199,-1.65095 0.056,-3.27384 0.2888,-4.90719 0.2293,-1.43581 1.2349,-2.70908 1.3901,-4.14136 -0.4198,0.067 -0.8359,0.1551 -1.2557,0.2186 0.049,-0.39512 0.395,-0.73742 0.5818,-1.08314 -0.042,-0.70556 -0.3844,-1.32296 -0.2924,-2.05672 0.011,-1.143 0.6597,-1.84144 1.0583,-2.84686 0.1125,-0.68086 -0.071,-1.41428 -0.096,-2.1022 0.017,-0.63146 0.7163,-1.14328 0.7023,-1.7818 0.017,-1.26647 0.3986,-2.71635 1.3828,-3.58066 0.2375,-0.20175 0.5954,-0.36467 0.909,-0.3483 v 0 c 0.2443,0.0138 0.4618,0.1375 0.5726,0.43667 v 0 c 0.3175,0.68791 0.9136,1.14622 0.5819,1.96112 -0.6774,1.13594 -2.1586,2.02488 -2.6738,3.35483 -0.127,1.11125 0.194,2.03581 -0.4904,3.02359 -0.8466,1.09714 -1.0478,3.18926 0.1374,4.07469 2.2931,-0.23989 4.579,-0.45158 6.8792,-0.63149 2.0002,-1.13948 3.5663,-3.40811 5.4819,-4.69222 0.829,-0.62442 1.7996,-0.46885 2.7662,-0.35243 0.4516,0.0776 1.0085,0.17986 1.2061,0.64905 -0.4798,0.75848 -1.7635,0.92071 -2.5714,1.17823 -1.9014,0.40217 -3.7927,0.66674 -4.717,2.62464 -0.4762,0.0388 -0.7579,0.16937 -0.8429,0.38809 2.8434,0.0353 5.7114,0.0775 8.5478,0.28216 1.6793,0.42332 3.4045,0.41979 5.0731,0.87488 1.9615,0.50094 3.8801,1.11815 5.8663,1.52032 0.2892,0.13758 1.2237,0.10248 1.1607,0.5364 -0.3563,0.0247 -0.5152,0.11635 -0.4832,0.28215 0.5116,0.16934 1.0339,0.30322 1.556,0.4408 1.7286,0.58209 3.764,0.2153 5.5914,0.1447 3.1891,-0.57503 6.3924,-0.94161 9.6097,-1.26969 2.7976,0.0423 5.72199,-0.19755 8.46309,0.3669 0.7902,0.0811 1.545,-0.17992 2.3388,-0.0212 v -0.20826 c -0.6597,0.0988 -0.9594,-0.046 -0.9064,-0.43408 l 0.3457,-0.13746 c 3.1962,0.51506 6.32179,1.65089 9.48268,2.35645 l 0.20826,0.26096 c -0.1306,0.33161 -0.32801,0.54702 -0.58912,0.63872 -2.1131,-0.0635 -4.08182,-0.71251 -6.14902,-0.97358 l 0.081,0.21859 c 1.2946,0.60679 2.9106,0.65632 4.31807,0.86093 l 0.0491,0.34933 c -0.67378,0.13754 -1.33344,0.0703 -2.01437,0.0315 0.2752,0.94544 1.28439,0.29314 1.9441,0.27544 -0.0385,0.21873 -0.0775,0.44057 -0.12351,0.65577 0.8713,-0.1094 1.72144,-0.10199 2.59983,-0.0491 0.067,-0.7232 -0.21929,-1.64386 0.077,-2.2965 l 0.6351,-0.004 c 0.13409,2.06375 -0.20449,4.19789 -0.3633,6.26164 -0.1093,0.75494 -0.29665,1.93702 -0.96686,2.3921 -0.22231,-0.0564 -0.44432,-0.10977 -0.66662,-0.15917 -1.0795,0.46921 -1.76385,1.95793 -2.13424,3.01274 0.26109,-0.14112 0.50771,-0.31043 0.74052,-0.50798 0.94189,0.0282 1.76411,-0.6843 2.63549,-0.0387 0.6809,0.66675 1.12543,1.60183 1.30175,2.53317 0.17639,1.91558 0.33504,3.99332 -0.10594,5.87716 -0.27871,1.10772 -0.23606,2.21877 -0.57828,3.30884 -0.7902,2.27896 -0.66339,4.65346 -1.5136,6.9324 -0.5679,1.46755 -0.91368,2.89269 -1.85208,4.14858 -0.7938,1.03011 -1.75346,2.13778 -2.95636,2.68459 -0.088,0.99836 -0.018,2.00731 -0.1447,3.01274 -0.1129,1.00189 0.6107,1.77781 0.5787,2.80086 0.1059,1.41816 0.1625,2.51557 -1.2345,3.26699 -0.074,0.47978 0.5967,0.84686 0.6067,1.35133 0.028,0.70556 -0.4661,1.34714 -0.4341,2.0774 0,2.0955 -0.032,4.05007 -0.5504,6.09265 -0.4162,0.79728 -1.2489,1.35461 -1.6934,2.15542 -0.1725,0.99483 0.2681,2.01087 -0.1235,3.03393 -0.067,0.40216 -0.4338,0.93132 -0.261,1.32291 0.7514,0.52563 1.5876,1.06566 2.3849,1.51722 1.076,0.38452 2.4234,0.20093 3.49227,0.72657 0.86781,0.4833 1.62674,1.20643 2.27584,1.95079 0.889,1.38642 3.11828,1.16765 4.48707,1.89084 1.1924,0.93134 2.42726,1.8484 3.75378,2.57865 2.19779,1.15358 4.64264,1.8557 6.80164,3.0763 1.82391,1.00895 3.63009,1.87334 5.29167,3.17862 1.78501,1.39347 3.42511,2.93142 5.27719,4.24728 6.24417,4.24392 12.92257,8.84058 17.86144,14.59085 0.59269,0.67729 0.63828,1.81724 0.88524,2.66392 0.0703,0.34934 0.16375,0.68511 0.27025,1.01337 a 104.51041,104.51041 0 0 0 25.74263,-68.57928 104.51041,104.51041 0 0 0 -104.51041,-104.51042 z m 8.8692,25.29872 h 0.012 v 0 c 0.4316,0.005 0.8735,0.0711 1.3343,0.22323 1.0513,0.65264 1.5061,1.30923 1.605,2.56161 1.3689,-0.16581 3.5736,-0.69524 4.452,0.70176 -0.9102,-0.0423 -1.4428,0.5185 -2.0743,1.0759 -1.584,1.7145 -2.7902,3.98301 -3.083,6.31486 0.8431,-0.31398 1.3261,-1.76374 1.5131,-2.57865 0.6667,-1.524 1.6614,-3.0307 3.0055,-4.04318 0.5468,-0.37394 1.3373,-0.14457 1.6794,-0.81132 0.3739,-0.48329 0.6423,-1.344 1.2067,-1.60507 0.6494,-0.0246 0.2222,0.83937 0.099,1.1498 -0.949,1.8768 -1.8137,3.73954 -2.2298,5.82446 l 0.2826,-0.014 c 0.3563,-0.74438 0.568,-1.51712 0.8537,-2.28619 l 0.2574,-0.0243 c -0.6879,2.5541 -1.9757,5.02661 -1.8134,7.89821 -0.4834,0.14817 -0.1691,-1.26955 -0.3173,-1.5694 -0.5821,-0.1129 -0.4766,1.54482 -0.7482,1.93992 -0.3352,0.26813 -0.709,0.49768 -1.0088,0.8046 -0.314,0.28927 -0.3984,0.69813 -0.91,0.57465 -0.134,-1.1924 0.3207,-2.16556 0.5359,-3.29798 -0.2222,-0.0353 -0.3947,0.1089 -0.5147,0.42995 -0.508,0.9666 -0.6072,2.16291 -0.6702,3.23183 l -0.445,-0.032 c -0.562,-0.98425 -0.2826,-1.91198 0,-2.92798 0.8572,-2.5894 3.6618,-4.22627 4.3956,-6.69571 -0.561,0.56092 -0.9665,1.24868 -1.559,1.78488 -1.0867,1.15713 -2.3954,1.72193 -3.2386,3.10835 -0.6738,1.1924 -1.4535,2.29658 -0.8925,3.70417 -0.6915,0.0952 -0.3352,-0.47302 -0.4728,-0.92811 0.078,-0.88548 -0.6702,-1.32291 -0.7622,-2.13786 -0.2117,-1.98966 0.8857,-4.13432 1.9616,-5.75003 0.7867,-1.25941 1.9192,-2.06764 2.9316,-3.10835 l -0.032,-0.31729 c -0.2892,-0.12702 -0.6138,-0.1162 -0.9736,0.0284 -1.6546,0.6209 -2.9988,2.15905 -3.7114,3.74655 -1.009,2.31423 -1.1712,4.60722 -1.3405,7.0802 -0.2858,-0.1129 -0.4586,-0.33883 -0.5255,-0.67749 -0.6774,-2.20134 -2.0817,-3.97235 -2.6355,-6.25129 -0.3602,-1.15358 -0.3846,-2.33558 -0.2682,-3.52795 l 0.3317,-0.007 c -0.1305,2.06021 0.5574,3.84498 1.3829,5.68648 0.1516,0.254 0.3741,0.43037 0.6599,0.52917 -0.1588,-0.49038 -0.5507,-0.83601 -0.7095,-1.31932 -0.085,-0.47625 -0.071,-0.99806 -0.2434,-1.45312 -0.5926,-1.26296 -0.2819,-2.72706 -0.3948,-4.13464 -0.2363,0.0811 -0.4762,0.16542 -0.7127,0.25011 0.095,-0.32808 0.1834,-0.65582 0.2714,-0.98391 -1.6934,0.73729 -2.9069,2.79384 -3.1115,4.59298 -0.1588,0.78672 0.5714,0.96661 0.5824,1.64746 -0.9208,0.33515 -1.5491,-0.49038 -1.5911,-1.32292 -0.127,-1.5099 0.6103,-2.92444 1.5276,-4.06744 0.5467,-0.70204 1.351,-1.11114 1.8908,-1.8061 -1.4359,0.35984 -2.7483,-0.70202 -3.8737,0.18344 -1.3476,0.92075 -2.4975,2.52936 -2.7057,4.16978 0.8854,-0.27165 1.4888,-1.91897 2.4236,-1.94718 0.1446,0.50449 -0.5643,0.91676 -0.5643,1.44593 -0.1764,2.43064 0.3105,4.67119 1.0655,6.95719 -0.2081,0.19402 -0.4268,0.37748 -0.6527,0.55036 -0.1974,0.54327 0.8181,1.20282 0.4124,1.86603 -0.8361,0.57504 -1.2733,-0.49737 -1.559,-1.0971 -0.7303,-1.92265 -1.39,-4.07096 -1.263,-6.14175 -0.8679,0.60325 -1.5063,1.86624 -2.0531,2.76934 0.1694,0.74086 0.6314,0.25049 1.0583,0.10235 -0.3881,1.19237 -0.6773,2.47245 -0.3881,3.72483 l 0.3561,0.007 c 0.081,-0.77258 0.088,-1.56292 0.2118,-2.32492 0.2717,-0.20463 0.4584,-0.13396 0.5607,0.20825 0.4092,1.23474 1.1081,2.34604 2.05,3.23856 0.4657,0.44098 1.369,0.35626 1.6935,-0.22582 0.215,-0.40924 0,-0.84326 -0.071,-1.26659 0.3352,0.20812 0.5574,0.5049 0.8185,0.79065 1.4393,0.635 2.0921,2.13381 3.4432,2.95228 1.2912,1.53103 2.5611,3.05173 4.0075,4.44518 1.0901,1.14655 2.6846,1.90524 4.0851,2.61432 0.8642,0.45157 1.9369,0.56071 2.5719,1.27331 0.134,0.52211 -0.519,0.83967 -0.9529,0.67386 -1.6052,-0.34572 -3.2312,-0.37057 -4.8116,-0.86093 -3.422,-0.59972 -6.5302,-1.97907 -9.7229,-3.33726 -2.5223,-1.0936 -5.0267,-3.03368 -7.7184,-3.5946 -1.1359,-0.34925 -1.602,0.93144 -2.3358,1.53117 -0.6809,0.5362 -0.7407,1.30514 -1.1958,1.96834 -0.6703,0.80081 -1.7847,0.50075 -2.6913,0.50075 -0.053,0.62087 0.1587,1.30916 -0.3281,1.78541 -0.7972,0.8502 -1.5596,1.73197 -2.2935,2.63861 -0.1375,0.14816 -0.1834,0.34207 -0.1374,0.58549 0.4903,0.18697 1.1043,0.28925 1.4712,0.67025 0.1517,0.43391 0.261,0.88185 0.4057,1.3193 1.4781,0.40569 3.1889,0.39877 4.6317,1.02319 0.441,0.28575 0.7303,0.29652 0.5892,0.9033 -1.5629,-0.0811 -3.1257,-0.0566 -4.685,-0.14831 l 0.099,0.18345 c 1.0337,0.39158 2.1547,0.52927 3.2024,0.89969 2.3707,0.68086 4.4913,2.04257 6.5551,3.33726 0.4586,0.31044 0.8963,0.61352 1.2067,1.08624 -1.0054,-0.34925 -1.8167,-1.17823 -2.7869,-1.62626 -1.4499,-0.65263 -2.886,-1.42858 -4.3853,-1.94716 -1.4182,-0.37746 -2.9144,-0.51528 -4.3749,-0.57878 -1.0018,-0.10583 -1.95,0.59298 -2.8179,1.03043 -1.0548,0.62089 -2.583,1.58382 -3.0205,2.7621 0.5222,0.75142 1.6128,0.97397 1.941,1.88413 0.1551,0.61384 -0.635,1.01941 -1.0124,1.37924 -1.4112,1.05128 -2.4414,2.53651 -3.8489,3.56309 -1.0513,0.53269 -2.427,0.57152 -3.5806,0.73381 -1.0407,0.0988 -2.1096,0.40558 -3.1538,0.36328 -0.6496,-0.27164 -0.7446,-1.21026 -0.7127,-1.82056 0.2187,-0.87842 0.8816,-1.59796 1.0615,-2.51871 0.1632,-0.74083 -0.06,-1.58018 0.1731,-2.28926 0.6667,-1.04775 1.7279,-1.83461 2.3699,-2.89647 0.9243,-1.86972 2.3151,-3.53496 3.6204,-5.15421 0.2676,-0.48682 -0.4843,-0.45148 -0.5193,-0.89245 0.9772,-1.49225 2.6526,-2.55395 1.866,-4.59301 0.2363,-0.82195 2.2793,-1.28428 1.9301,-2.04276 -0.4233,-0.0317 -0.8433,-0.067 -1.2666,-0.10232 v -0.32091 c 0.5715,-0.0776 1.2171,-0.0706 1.7498,-0.28578 0.1869,-0.3316 0.4161,-0.60706 0.6806,-0.82579 0.561,0.0106 1.1424,1.01973 1.6645,0.71985 0.1306,-0.56795 -0.4511,-1.10397 -0.2853,-1.72132 0.5256,-0.0529 0.9634,0.67008 1.4573,0.86764 0.7549,-0.60367 1.0902,-0.42322 1.9968,-0.60669 0.092,-1.16416 -1.1117,-3.45053 0.081,-4.2478 0.2435,0.0847 0.3912,0.31406 0.4372,0.69506 0.2575,1.03362 0.6388,2.00049 1.3725,2.79776 l 0.215,-0.0532 c 0.829,-1.1571 1.5839,-2.38448 2.374,-3.56981 0.3634,-0.2998 0.9948,-0.1801 1.4464,-0.27181 0.017,-0.75493 -0.109,-1.60173 0.1132,-2.32492 0.187,-0.59621 0.8714,-0.65603 1.3229,-0.29972 0.1588,0.71967 0.1092,1.48535 0.3173,2.18385 0.194,0.68437 0.5892,1.27696 0.7938,1.95077 -0.5257,0.0705 -0.7126,-0.70226 -1.0088,-1.02679 -0.3493,0.21516 -0.6069,0.54723 -0.942,0.79062 -0.3034,0.20111 -1.1957,0.0703 -1.0899,0.56071 0.6774,0.11639 1.3366,0.0318 2.0175,0.0424 0.6174,0.22579 0.9317,0.72342 1.6443,0.57878 0.12,-0.44802 0.056,-1.06186 0.3597,-1.42524 0.3739,-0.22225 0.7868,-0.39542 1.1255,-0.66352 0.049,-0.29633 0.052,-0.60319 0.01,-0.91363 -0.2434,-0.06 -0.3879,0.11634 -0.4269,0.52554 -0.6703,-0.2046 -0.3884,-1.4601 -0.4304,-1.97869 -0.081,-0.80785 0.6246,-1.75011 0.2294,-2.45567 l -0.356,0.0175 c -0.5856,1.44285 -0.5224,2.89991 -0.399,4.42039 l -0.2537,-0.004 c 0.088,-1.3829 -0.085,-2.7269 0.247,-4.08863 -0.3139,-0.0317 -0.6244,-0.0638 -0.9384,-0.0956 0.074,-2.61763 0.9064,-5.35881 2.0706,-7.69773 -0.01,-0.83257 -0.984,-0.007 -1.2557,0.22222 -2.099,2.08492 -4.1879,5.21076 -4.0959,8.27286 -0.071,0.67382 0.5008,1.38975 0.321,2.00713 -0.5822,0.20108 -0.9209,-0.38431 -1.1256,-0.82529 -0.4374,-1.19943 -0.1548,-2.70581 0.2403,-3.8876 0.3034,-0.91723 0.9736,-1.55604 1.217,-2.49444 -1.2417,1.4605 -2.6353,3.54896 -2.4448,5.55625 0,0.84667 0.5046,1.38311 0.741,2.14511 0.1552,1.01248 -0.66,1.54527 -1.048,2.40604 -0.2258,0.37042 -0.3422,0.91681 -0.709,1.16375 -0.2576,-0.06 -0.4341,-0.26078 -0.5291,-0.59944 -0.8643,-2.54 -0.4025,-5.57753 0.1514,-8.14576 l -0.2047,0.0429 c -0.6915,1.37583 -0.9171,2.82945 -1.1994,4.3217 l -0.3385,0.0424 c -0.2576,-1.79213 0.7339,-3.87366 1.3689,-5.52111 -0.4726,0.18343 -0.7054,0.56449 -1.0159,0.93842 -2.1167,2.7023 -3.7045,5.8664 -4.5124,9.20721 -0.1164,0.54327 -0.476,0.89649 -0.8852,1.23867 -0.2857,-0.0106 -0.5715,-0.0285 -0.8573,-0.0532 -0.1623,0.37396 -0.2365,0.8854 -0.5504,1.15705 -0.6456,0.13052 -1.3193,0.11321 -1.9719,0.19791 -0.1941,0.36338 1e-4,0.60992 0.5751,0.73692 -0.1234,0.32456 -0.5188,0.5331 -0.7622,0.76946 -0.8043,0.56798 -1.0197,1.50286 -1.757,2.13786 -1.4887,1.36877 -2.681,2.9699 -3.8416,4.6209 -0.829,1.143 -1.1533,2.46947 -2.2082,3.46077 -0.3492,0.24695 -0.4307,1.02002 -0.8294,1.07642 0.1129,-0.62441 0.4729,-1.07961 0.7798,-1.61231 0.1023,-0.6985 -0.084,-1.47491 0.293,-2.06757 0.7973,-1.45344 1.9752,-2.74453 3.083,-3.96514 0.956,-1.04775 2.1522,-1.81695 3.1435,-2.81533 -0.1658,-0.2046 -0.3496,-0.41248 -0.5436,-0.62063 0.2822,-0.33867 0.8256,-0.63164 0.9384,-1.06556 -0.3845,-0.34925 -1.1884,-0.45831 -1.1534,-1.08624 0.3599,-1.07244 2.3706,-0.69162 2.7833,-1.41129 -0.042,-2.04258 -0.3563,-4.35666 0,-6.54741 0.2188,-0.60325 1.062,-0.83597 1.3477,-0.15864 0.1127,0.7761 -0.01,1.55924 -0.071,2.33886 l 0.2222,-0.0356 c 0.2188,-1.22414 0.6212,-2.41257 0.9069,-3.62614 0.134,-0.38803 0.3669,-1.31281 0.8713,-1.34101 0.045,0.2399 0.091,0.48358 0.1375,0.72348 0.388,0.0212 0.5081,-0.83273 0.801,-1.06556 1.3617,-0.68792 2.6494,-1.98583 4.1558,-2.57143 0.6844,-0.21871 1.3687,-0.43749 2.0531,-0.67387 0.2293,0.0811 0.4585,0.16232 0.6878,0.24701 0.6315,-0.40568 1.0935,-1.13286 1.7709,-1.4433 0.3492,0.0635 0.783,0.4022 1.0723,0.0424 1.0124,-0.94895 2.1416,-1.95752 3.3869,-2.58897 0.5821,-0.3175 1.129,-0.16944 1.7534,-0.10594 -0.2152,1.23825 -1.1752,2.28944 -1.2702,3.61942 l 0.233,-0.0496 c 0.7902,-2.00377 2.2504,-3.55216 4.0566,-4.6881 0.5503,-0.31398 1.0164,-0.64233 1.6867,-0.45889 1.2665,0.31049 2.5258,0.24328 3.8205,0.26098 0.9532,-0.34684 1.8545,-0.63891 2.8039,-0.62891 z m 0.1385,0.64698 c -0.7586,0.004 -1.5692,0.20426 -2.1027,0.53279 0.06,0.26811 0.1227,0.53277 0.1937,0.79738 -0.1833,-0.0106 -0.3669,-0.0246 -0.5503,-0.0352 -0.8255,0.91371 -0.3215,2.81855 -0.3845,3.98272 l 0.2507,-0.0279 c 0.2256,-1.68627 1.1498,-3.61968 2.9419,-4.05712 0.9172,-0.21166 1.2734,0.51517 2.0531,0.63511 0.127,-0.60677 -0.6981,-1.30882 -1.1637,-1.6087 -0.3467,-0.15337 -0.7831,-0.22108 -1.2382,-0.2191 z m -0.1096,2.03245 c -1.1991,0.53301 -1.7,2.70209 -1.8376,3.89433 -0.032,0.55737 -0.268,1.54834 0.3705,1.83761 0.2187,-1.49929 0.1906,-3.3863 0.8997,-4.74803 l 0.2822,-0.014 c -0.1058,0.78668 -0.3945,1.4851 -0.3385,2.2965 0.593,0.0953 0.4974,-0.94192 0.649,-1.30175 0.063,-0.64204 0.5639,-1.44613 -0.025,-1.96472 z m 7.6228,1.57613 c -0.6389,0.0225 -1.2745,0.91455 -1.6681,1.33789 -0.4763,0.6985 -1.3475,1.65089 -1.3265,2.51873 0.5715,0.0953 1.1289,-0.92798 1.4888,-1.30898 0.4974,-0.81489 1.4182,-1.6121 1.6335,-2.53989 -0.043,-0.007 -0.085,-0.01 -0.1277,-0.008 z m 2.7476,0.0966 v 0 c 0.052,0 0.1235,0.0135 0.21649,0.0444 1.2595,0.38454 2.6671,0.73771 3.7466,1.48209 1.3652,0.89254 2.5363,2.23636 3.6158,3.44992 2.0849,2.51177 4.0532,5.10125 6.057,7.67652 0.5362,0.73025 0.65653,1.50971 0.30022,2.35283 -0.65969,0.3669 -1.52067,-0.20436 -1.92286,0.51885 0.29639,0.9031 0.82555,1.70365 1.06193,2.63496 0.52922,2.16254 0.64892,4.35322 -0.19068,6.44871 0.87489,2.07787 1.54876,4.08167 1.54876,6.37119 -0.0529,0.381 0.3247,1.85249 -0.3421,1.74666 -0.10581,-1.397 0.14128,-3.19306 -0.41963,-4.49481 -0.49739,-0.66675 -0.89628,-1.28726 -1.16787,-2.08101 -0.92067,-2.36714 -2.73407,-4.17684 -3.84887,-6.38877 -0.2434,-0.32454 -0.1024,-1.55958 -0.5963,-1.45727 -0.4057,0.889 -0.6559,1.7675 -0.8041,2.73059 l -0.3142,0.007 c -0.01,-0.40921 -0.01,-0.815 -0.01,-1.22421 l -0.261,-0.032 c 0,0.7761 0.1233,1.60176 -0.028,2.36729 -0.7726,0.17286 -0.4696,-0.99829 -0.4796,-1.42162 0.4163,-2.87866 1.5981,-6.25482 3.8453,-8.2057 0.4163,-0.49041 -0.4762,-0.956 -0.8325,-0.5891 -1.009,0.762 -1.8173,1.85904 -2.3782,2.98791 -0.8996,1.82388 -1.5169,3.71497 -1.5379,5.76814 -0.6385,0.23989 -0.5006,-1.01251 -0.5116,-1.36528 0.1094,-1.99322 1.15,-3.5034 1.8697,-5.24259 -0.2364,0.004 -0.4345,0.14145 -0.5933,0.42013 -1.1393,1.85563 -2.194,3.86964 -2.0283,6.11333 -0.9277,0.22224 -0.9238,-0.96282 -0.818,-1.57665 1.0266,-3.35492 2.8364,-6.38559 6.1526,-7.88842 -0.2223,-0.79727 -0.9242,-1.57313 -1.3617,-2.28925 -1.1747,0.11993 -1.7078,1.25566 -2.2546,2.14817 -0.9666,1.82034 -1.753,3.68681 -2.0035,5.75056 -0.1023,0.46567 -0.2573,0.97021 -0.8465,0.69504 -0.1658,-0.42685 -0.2128,-0.85746 -0.1348,-1.29138 0.3985,-2.09902 1.6552,-3.77486 2.4737,-5.60223 l -0.2506,0.0708 c -1.3794,1.40055 -2.1491,3.10116 -2.6112,4.99557 -0.4093,-0.06 -0.8354,-0.0921 -1.1917,-0.32141 -0.3351,-1.07246 0.6068,-2.21158 0.6418,-3.34399 0.508,-2.22605 0.4271,-4.44863 0.6599,-6.69933 l 0.3277,-0.004 c -0.085,1.74977 -0.017,3.4535 0.2682,5.18211 l 0.2966,-0.0279 c 1.1359,-1.16065 2.2789,-2.03933 3.9052,-2.3921 l 0.025,-0.27855 c -0.889,-1.66865 -2.0182,-3.41514 -3.2494,-4.85447 -1.0513,-1.22063 -2.4303,-1.94688 -3.93669,-2.4443 -0.2113,-0.29633 -0.2412,-0.444 -0.086,-0.44701 z m -0.1612,1.03664 c -1.1959,3.45368 -2.4554,7.45749 -2.1415,11.14401 -0.2115,-0.10583 -0.346,-0.24683 -0.402,-0.42323 -0.2999,-1.69685 0.2928,-3.41124 0.5891,-5.08341 0.3175,-1.70037 0.9454,-3.27409 1.464,-4.91805 0.074,-0.29985 0.2364,-0.5394 0.4904,-0.71932 z m 1.04649,1.15446 c 0.038,-0.005 0.077,-0.004 0.1204,0.003 0.049,0.007 0.1,0.0209 0.156,0.0434 0.4057,0.3951 0.448,1.67883 -0.1023,1.81642 -0.025,-0.45511 -0.1657,-0.63482 -0.4232,-0.53951 -0.3316,0.56091 0.2397,1.43208 0.402,2.00712 l 0.307,0.004 c 0.025,-0.28927 0.05,-0.58198 0.068,-0.87125 l 0.2398,0.0279 c -0.1059,1.03013 -0.6174,1.82049 -0.3705,2.89647 l -0.2538,-0.0249 c 0.1341,-0.94192 -0.152,-1.75654 -0.4413,-2.63496 l -0.3349,-0.0284 c -0.37389,0.9878 0.3552,1.48907 0.3132,2.45568 0.028,1.08654 0.5725,1.85518 0.1772,2.99466 -0.2927,0.62793 -0.2407,1.16104 -0.1627,1.82779 l -0.2574,-0.0109 c 0.1055,-1.83446 0.126,-3.66858 -0.022,-5.50301 l -0.32759,0.0103 c -0.3599,2.56471 -0.2717,5.04491 -0.1024,7.62021 -0.1975,-0.0565 -0.3319,-0.22577 -0.3989,-0.508 -0.6385,-1.42521 -0.4231,-2.77633 -0.4341,-4.29326 0.2893,-2.32834 0.3741,-4.52634 1.28779,-6.72415 0.1377,-0.26199 0.2944,-0.53438 0.5597,-0.5669 z m -8.72299,0.98649 -0.2646,0.0568 c -0.7056,1.31236 -1.4078,2.89253 -1.3968,4.40594 0.067,0.28575 0.077,1.29847 0.5643,1.04799 0.011,-0.97366 -0.042,-1.91598 0.2434,-2.86493 0.1799,-0.9243 0.7443,-1.72157 0.8537,-2.64584 z m -8.4171,1.45728 v 0 c 0.3916,0.0106 0.5326,0.57861 0.709,0.8573 1.0725,2.43419 2.8964,4.62492 4.6638,6.59342 l 0.091,0.41597 c -0.3951,-0.0353 -0.6594,-0.23971 -0.9839,-0.44079 -0.2046,0.0352 -0.413,0.0738 -0.6212,0.11266 -1.6333,-2.17665 -3.3688,-4.81865 -3.8592,-7.53856 z m -2.1203,0.0135 0.2119,0.0708 c 0.3105,0.82902 0.5257,1.69339 0.8361,2.52593 0.4093,0.127 0.4799,-0.66326 0.6739,-0.91726 l 0.2041,0.0879 c 0.5962,1.42875 1.3446,2.83302 2.2371,4.09948 0.4092,0.60677 0.9065,1.07585 1.0935,1.8061 -0.7515,-0.78671 -1.697,-1.06559 -2.265,-2.04277 -1.8838,-1.30175 -2.8892,-3.36532 -2.9916,-5.63015 z m -15.9561,0.31419 c -0.9595,0.48329 -2.0566,1.48498 -2.173,2.61742 -0.1693,0.81844 -0.3918,1.62256 -0.5788,2.43396 l 0.1944,-0.0563 c 0.7126,-1.77097 1.6084,-3.35466 2.5574,-4.99505 z m -0.5462,5.66373 c 0.033,0 0.068,0.007 0.1054,0.0161 0.046,1.24177 0.067,2.48666 0.1023,3.72845 0.025,0.38452 -0.4695,0.82571 -0.7483,0.39532 -0.6562,-0.75846 -0.5818,-2.03531 -0.356,-2.94193 0.2117,-0.35719 0.3923,-1.21677 0.8966,-1.19788 z m -0.1556,0.96118 -0.3488,0.0352 c -0.1657,0.89252 -0.035,1.86285 0.085,2.75537 l 0.3349,-0.046 c 0.095,-0.89606 0.1227,-1.85906 -0.071,-2.74454 z m 45.34509,1.26039 v 0 c -0.3906,-0.0214 -0.7191,0.45405 -0.9519,0.79272 -0.8431,1.35112 -1.8764,2.93894 -2.0211,4.55112 0.3987,-0.0635 0.4233,-0.73382 0.5891,-1.04076 0.2223,-0.75846 0.8538,-1.45375 1.711,-1.19269 0.5787,0.80081 0.6137,1.93323 1.0511,2.8293 0.561,1.21001 1.1644,2.51542 1.98286,3.5667 l 0.23616,0.0527 c -0.22219,-2.59291 -0.66309,-5.87761 -2.53992,-7.82846 l -0.096,-0.41291 c 0.7197,-0.067 0.9915,0.94205 1.6159,0.86093 0.067,-0.67379 -0.7904,-1.44269 -1.1678,-1.96834 -0.1429,-0.14113 -0.2797,-0.20384 -0.4099,-0.21085 z m -1.2904,3.81992 c -0.3391,0.0706 -0.596,0.24657 -0.2961,0.57465 0.7408,0.55031 0.1441,2.29677 1.0403,2.65306 -0.2965,-1.06185 -0.3843,-2.19406 -0.7442,-3.22771 z m -50.38709,4.18735 c 0.1234,1.40407 -2.064,2.19759 -2.4309,3.4711 -0.141,0.58561 0.4731,1.29459 0.011,1.74615 -0.6456,0.762 -1.3196,1.49929 -1.9441,2.27893 -0.4409,0.30692 -0.8856,-0.33509 -0.7374,-0.75137 0.4022,-0.17991 0.833,-0.28891 1.1539,-0.59583 0,-0.63852 -0.9208,-0.44111 -1.3265,-0.39171 -0.049,-0.37748 0.3987,-0.7408 0.6139,-1.01596 1.4394,-1.56986 2.815,-3.29506 4.4096,-4.70617 z m -5.934,4.86844 c 0.7338,-0.0459 0.1485,1.12148 -0.3348,0.88159 -0.1341,-0.36336 -0.022,-0.65934 0.3348,-0.88159 z m 57.84919,2.18746 c 0.6879,0.37042 1.0618,1.2737 1.40403,1.94045 0.83611,1.88383 1.8025,3.8629 2.15181,5.90196 l 0.25064,0.06 c 0.053,-0.84314 -0.25477,-1.8309 -0.0114,-2.62465 l 0.30697,-0.0925 c 0.0106,1.51695 0.25768,2.98467 0.40928,4.48397 -0.2046,-0.0317 -0.342,-0.19399 -0.416,-0.4868 -0.16589,0.11994 -0.34602,0.27175 -0.54001,0.45166 -0.51496,-3.37585 -2.00327,-6.62854 -3.55532,-9.63404 z m -58.94629,1.25212 c -0.5044,0.11289 -0.3317,0.97361 -0.3457,1.36167 0.3563,-0.0141 0.899,-0.53632 0.91,-0.89968 -0.1587,-0.20461 -0.3456,-0.35968 -0.5643,-0.46199 z m 59.15759,0.23978 v 5.3e-4 c 0.9878,2.24719 2.05284,4.73797 2.22575,7.21093 -0.0459,0.7867 0.31033,1.61214 -0.67747,1.89084 -0.0916,0.27869 -0.1366,0.56796 -0.12663,0.87488 -0.46565,0.23635 -0.58945,-0.63856 -0.72345,-0.91726 -0.3281,-1.15358 -0.9312,-2.34985 -0.9772,-3.53518 l 0.293,0.032 c 0.321,0.85372 0.5893,1.72872 0.8821,2.5895 l 0.2398,0.031 c -0.2963,-1.27353 -0.78,-2.49049 -1.094,-3.76049 -0.3422,-1.41111 -0.974,-2.64591 -0.956,-4.13464 0.194,0.0705 0.3884,0.11303 0.586,0.12713 0.063,-0.28222 0.1729,-0.41988 0.3281,-0.40928 z m -41.85009,5.64875 c 0.503,0.0246 1.1475,0.35408 1.5555,0.36948 1.4145,0.85021 2.8049,1.87705 4.0255,3.00241 0.8009,0.75495 1.7674,1.25946 2.5823,1.99677 0.4692,0.4445 1.2275,0.62778 1.3085,1.33687 -0.8926,-0.26811 -1.7849,-0.61396 -2.5751,-1.10432 -0.081,-0.25752 -0.1587,-0.51133 -0.2398,-0.76533 -0.7796,-0.5715 -1.4782,-0.78325 -2.4448,-0.69505 -0.8854,-0.26106 -1.5168,-1.11845 -2.4375,-1.3901 0.2328,0.81846 1.185,1.08659 1.2945,1.95441 -1.5383,-0.59618 -2.7483,-2.025 -4.3393,-2.60708 -0.3316,-0.20109 -1.4006,0.0248 -1.2031,-0.54674 1.3688,-0.14111 2.1626,0.6528 3.3797,1.0232 -0.187,-0.381 -0.9067,-0.85022 -0.8077,-1.26297 0.3598,-0.10583 0.6841,-0.261 0.9699,-0.46561 -0.01,-0.70908 -1.2873,-0.42285 -1.7388,-0.42685 0.1177,-0.3387 0.3684,-0.43379 0.6702,-0.41909 z m -4.0752,0.22996 v 5.3e-4 c -0.8976,0.009 -1.874,0.50835 -2.2536,1.28622 0.8784,-0.23282 1.7322,-0.54009 2.607,-0.78703 l 0.024,-0.47232 c -0.123,-0.0199 -0.2495,-0.0284 -0.3777,-0.0274 z m 44.98689,0.0408 0.2682,0.0176 c -0.1164,1.17122 0.5113,2.1519 0.9452,3.21376 0.4974,1.21708 1.27714,2.25457 1.87685,3.41168 0.10581,0.36689 -0.33528,1.24164 -0.6563,1.43919 -0.84325,-0.41628 -1.68255,-0.92799 -2.35645,-1.59474 l 0.01,-0.49041 c 0.635,0.0247 1.246,0.22611 1.8847,0.21911 -0.3423,-0.63853 -0.9525,-1.15045 -1.1747,-1.82779 0.018,-0.49036 0.1795,-0.8923 -0.074,-1.35444 -0.4481,-1.00189 -0.6909,-1.93326 -0.7229,-3.03393 z m -37.32379,0.27182 c 0.6138,0.16933 1.0332,0.7477 1.5518,1.13223 2.2402,1.67216 4.7201,3.12553 7.059,4.59662 0.4269,0.32102 0.3315,0.69138 0.3215,1.15703 -0.2999,0.10935 -0.5433,0.0952 -0.7302,-0.0424 -2.3848,-1.72861 -4.7202,-3.48535 -6.9815,-5.36918 -0.4198,-0.41276 -1.0971,-0.87461 -1.2206,-1.47433 z m 14.0079,2.1239 v 5.3e-4 c 0.075,-10e-4 0.1614,0.0171 0.2615,0.0594 0.113,0.85725 -0.08,1.71486 0.036,2.57917 l -0.2258,0.003 c -0.042,-0.37395 0.3032,-1.4213 -0.3706,-1.26608 -0.2117,0.84314 -0.1128,1.74264 -0.3844,2.56109 -0.1412,0.34572 -0.1449,0.65622 -0.011,0.93844 0.9066,0.2152 2.0638,-0.14151 3.0127,-0.2191 3.1009,-0.83613 6.114,-0.81483 9.3313,-0.91003 2.31429,0.0988 4.73059,0.0213 6.99899,0.51522 l 0.056,0.35295 c -0.5433,0.18698 -1.1958,0.0385 -1.7637,0.0279 -2.4624,-0.14461 -4.94589,-0.0209 -7.40829,-0.0315 -3.5348,-0.0776 -7.2143,0.81846 -10.7632,1.24179 -1.1184,0.33515 -2.1592,0.13739 -3.3094,0.0739 l 0.042,-0.2961 c 1.143,-0.24695 2.3001,-0.20125 3.4396,-0.43408 0.3523,-1.21003 -0.014,-2.56127 0.3953,-3.81011 0.1698,-0.41055 0.1369,-1.37796 0.6625,-1.38596 z m -23.5277,3.76205 c -0.504,-5.3e-4 -1.0075,0.006 -1.5116,0.0191 -1.8379,0.0811 -3.7929,-0.30692 -5.4332,0.6103 -0.5858,0.59973 -1.5021,1.3901 -1.5131,2.28616 -0.3246,2.8963 -0.4868,6.20212 0.3493,9.02787 0.6033,1.09361 2.1341,1.70008 3.2665,2.06344 2.2119,0.70203 4.5303,1.33709 6.8445,1.54875 2.8786,-0.0247 5.5838,0.17292 8.3354,-0.46561 1.1642,-0.31397 1.4853,-1.20665 2.1203,-2.10271 1.3829,-1.99672 2.6318,-4.04983 3.5843,-6.28644 0.1552,-0.76905 0.053,-1.89087 -0.5716,-2.4412 -1.538,-1.12182 -3.3479,-1.91912 -5.0906,-2.66701 -3.343,-1.22546 -6.8537,-1.58967 -10.3802,-1.59267 z m -7.904,0.11834 v 5.2e-4 c -1.746,0.16573 -3.3935,-0.0106 -5.0937,0.44442 -0.056,1.96497 -0.6811,3.70037 -0.3741,5.72885 1.224,-0.0176 2.4412,-0.0598 3.6654,0.0284 0.028,-0.41627 0.029,-0.8292 0.018,-1.24902 -0.681,-0.10581 -1.3372,-0.0847 -2.0392,-0.1235 l 0.01,-0.34933 c 0.6421,-0.10936 1.2879,-0.0774 1.944,-0.13385 0.4239,-0.0847 0.3389,-0.72292 0.3809,-1.04748 -0.4092,-0.0988 -1.8979,0.23981 -1.6051,-0.53278 0.4656,-0.25752 1.6434,0.0599 1.6614,-0.65268 -0.6844,0.007 -1.3437,0.0594 -2.021,-0.0853 -0.2717,-0.79375 1.5663,-0.3562 1.9719,-0.3421 0.081,-0.5644 -0.9737,0.0565 -0.9317,-0.6103 0.2576,-0.56445 1.168,-0.19041 1.6619,-0.22221 0.2751,-0.23636 0.663,-0.49032 0.755,-0.85369 z m 7.8342,0.31367 c 1.5434,-0.008 3.0812,0.0705 4.5558,0.38447 1.7251,-0.0212 3.3018,0.50113 4.9774,0.98444 1.6581,0.49036 2.9705,1.4111 4.498,2.1978 0.7832,0.44097 1.5983,1.04778 1.5063,2.05672 -0.042,0.71614 -0.596,1.53126 -1.3931,1.08676 -1.4147,-1.2841 -2.4345,-3.06947 -3.7327,-4.44883 -0.8432,-0.64911 -2.0777,-0.84656 -3.0726,-1.21698 -1.5874,-0.55073 -3.1716,-0.37741 -4.8085,-0.54673 -1.6369,-0.27869 -3.337,-0.18013 -4.9914,-0.15193 -1.3088,0.68087 -2.4346,1.8875 -3.4153,2.97759 -1.182,2.24719 -1.5099,5.07311 -1.263,7.57784 0.2858,0.57851 0.8606,0.86412 1.418,1.13223 1.7921,0.81843 3.8171,1.25244 5.7397,1.67225 2.7517,0.55388 5.4892,0.45798 8.2796,0.46198 l -0.011,0.23306 c -1.6157,-0.10231 -3.1817,0.27144 -4.7904,0.13384 -3.63,0.0494 -7.5352,-0.89962 -10.6009,-2.87165 -1.1289,-1.74979 -0.7235,-3.91208 -0.907,-5.85236 -0.2575,-1.30881 0.01,-2.60373 0.4093,-3.85609 0.5362,-1.18534 1.7391,-1.79885 3.0091,-1.82005 1.4993,-0.0318 3.0491,-0.12636 4.5925,-0.13436 z m 17.5705,1.01028 c 0.2121,0.003 0.4359,0.043 0.6723,0.11885 0.247,0.4868 -1.5167,0.4834 -1.2733,-0.0176 0.1887,-0.0706 0.3889,-0.10428 0.601,-0.10128 z m 18.7048,0.33848 c -1.2934,0.002 -2.5883,0.0843 -3.8778,0.23513 -1.4111,0.0706 -2.7552,0.071 -4.0923,0.60719 l -0.053,0.28215 c 1.4641,0.34572 2.7089,-0.27537 4.1553,-0.21187 1.0972,0.0214 2.311,-0.23614 3.3729,0.0284 0.1587,0.24342 0.289,0.50084 0.3912,0.76895 -0.4021,0.0423 -0.5821,0.18352 -0.5431,0.43046 0.4375,0.0565 0.8713,0.067 1.2981,0.0388 -0.035,-0.47271 -0.035,-0.84654 0.1979,-1.27692 l 0.23979,-0.078 c 3.0692,1.28411 5.602,3.45053 7.6869,6.01875 0.1517,0.17639 0.2609,0.37382 0.3209,0.58549 -0.8502,-0.33867 -1.4252,-1.11474 -2.3001,-1.46399 -1.6404,-1.143 -3.5732,-1.72537 -5.1537,-2.94246 -1.58749,-0.6103 -3.46069,-0.73348 -5.12939,-0.49712 l 0.024,0.35295 c 0.6597,0.13406 1.3163,0.23278 1.9513,0.4656 -0.2152,0.64207 -1.0092,0.4972 -1.5384,0.4408 -1.5522,-0.28928 -3.0656,-0.74445 -4.639,-0.95963 -0.2857,-0.0953 -1.2488,-0.13052 -1.0407,-0.6103 0.4022,-0.10936 1.8135,-0.0809 1.6195,-0.76533 -0.3986,-0.0706 -0.8221,0.0882 -1.2242,0.16227 -0.1165,-0.19755 -0.2609,-0.34562 -0.4408,-0.44442 -1.397,0.3563 -2.1379,1.37573 -3.1962,2.19418 -0.7303,-0.1305 -1.7042,-0.38797 -2.4133,-0.0775 -0.1093,0.23987 0,0.43371 0.3385,0.58187 0.635,-0.0811 1.2457,-0.18702 1.8877,-0.10232 0.5115,0.27517 0.3143,1.06913 0.3773,1.55598 0.2434,2.58582 0.7164,5.02357 2.1275,7.24607 0.9278,0.98778 2.1587,1.88033 3.5098,2.13786 1.3583,0.29986 2.6532,0.65582 4.0608,0.59582 2.9986,-0.074 6.29369,0.10244 9.20039,-0.66662 1.1079,-0.23283 2.9704,-0.33495 3.5383,-1.47795 0.5327,-0.92781 1.3332,-1.73237 1.2098,-2.8577 -0.1165,-1.61925 0.4906,-2.95964 -0.91,-4.14497 -1.0125,0.76552 -0.028,1.1567 -0.039,2.03863 -0.5044,0.34925 -0.7058,-0.50404 -0.9457,-0.79685 -1.5381,-1.90146 -3.4567,-3.66908 -5.3335,-5.23895 -0.4162,-0.39511 -1.45,-0.63491 -1.3265,-1.3193 0.9419,-0.15522 1.9753,0.23989 2.9031,0.44803 1.7533,0.43039 3.5559,0.86046 4.9176,2.14457 0.3246,0.635 0.3776,1.44652 0.5576,2.14147 l 0.2857,0.0388 c 0.032,-1.18885 -0.1307,-2.87835 -1.4113,-3.38635 -1.3441,-0.64911 -2.649,-1.29111 -4.1413,-1.52394 -2.1141,-0.48499 -4.2656,-0.70156 -6.42129,-0.69763 v 0 z m -9.9214,0.78238 c -2.3069,0.187 -4.5189,0.65585 -6.861,0.3948 l 0.01,0.23978 c 0.882,-0.06 1.7608,-0.0706 2.6392,0.0388 l 0.01,0.31058 c -0.8007,0.0176 -1.5944,-0.0139 -2.3951,0.0496 l 0.01,0.32452 c 1.2418,0.1976 2.4874,0.19374 3.7398,0.0915 l -0.039,0.25063 c -0.448,0.0459 -2.2262,-0.41285 -1.9792,0.42323 1.143,0.20108 2.3315,0.16253 3.1218,-0.80408 0.4161,-0.55725 1.5594,-0.7129 1.7503,-1.3193 z m -19.5977,0.0181 v 0 c 0.274,0.002 0.5487,0.0126 0.8242,0.031 v 0 0.23306 c -0.882,0.0106 -1.7674,-0.0459 -2.6458,0 -1.3864,0.38453 -2.7059,0.63474 -3.9476,1.41438 -0.6386,0.36336 -1.0583,0.98446 -1.6898,1.35135 0.1552,-0.85373 1.1679,-1.47133 1.8805,-1.84175 1.7644,-0.81742 3.6476,-1.20306 5.5738,-1.18804 z m 44.68198,1.67431 c 0.2086,0.005 0.43178,0.0502 0.66818,0.13488 0.22569,0.44453 -1.48532,0.52189 -1.24902,-0.0284 0.1782,-0.0757 0.37225,-0.11145 0.58084,-0.10645 z m -46.42148,0.57258 c 0.079,7.9e-4 0.1605,0.006 0.2445,0.0139 1.9191,-0.0917 3.3191,1.41068 4.5997,2.62775 0.5397,0.64558 1.4432,1.22061 1.7043,2.03553 -0.254,-0.14464 -0.4909,-0.31732 -0.7132,-0.52193 -0.9066,0.44802 -1.6156,0.004 -2.42,-0.42685 -0.3781,-0.23284 -0.6103,-0.94907 -0.3881,-1.34772 0.7903,-0.003 1.3019,1.19607 2.0991,1.30896 l -0.028,-0.25735 c -0.829,-0.79022 -1.7958,-1.64418 -2.8964,-2.00401 -0.7373,-0.0247 -1.7992,0.12354 -2.5012,0.32815 -0.2857,0.10584 -0.434,0.27884 -0.448,0.51521 0.7549,-0.15872 1.3615,-0.41662 2.1094,-0.032 1.0584,0.34925 1.2248,1.96492 0.4558,2.68459 -0.508,0.60678 -1.3306,0.43041 -1.7926,1.07952 -0.4623,0.0459 -1.8907,0.34605 -1.8697,-0.37362 0.568,0.21868 1.0762,0.39469 1.6971,0.26769 0.1164,-0.508 -0.7519,-0.46922 -1.0553,-0.73381 -0.9595,-0.63147 -0.5927,-1.66494 -0.8573,-2.65978 -0.1623,-0.46566 0.3811,-0.77586 0.4801,-1.23094 -1.076,0.22225 -2.3251,1.02995 -3.0236,1.86604 -0.2787,0.43391 0.011,0.8642 0.4837,0.9524 -0.025,-0.42686 -0.2648,-0.74774 0.1338,-1.07229 0.3211,-0.23989 0.9385,-0.93475 1.3477,-0.68781 0.2329,0.381 -0.4199,0.79365 -0.5751,1.13584 -0.1552,0.38806 -0.2329,1.25238 -0.7762,1.26298 -0.4092,-0.20813 -1.1887,-0.54695 -1.2981,-1.0232 0.3104,-1.05128 1.4356,-1.92978 2.3528,-2.466 1.022,-0.5424 1.7465,-1.25847 2.9347,-1.24126 z m 14.8348,1.27485 c -0.3091,0.006 -0.6057,0.0971 -0.8491,0.31265 -1.6263,0.97368 -2.0255,2.49806 -3.0168,4.02559 -1.3511,2.27189 -2.3031,4.61411 -4.9842,5.58777 -3.2526,0.9278 -6.9144,0.4549 -10.234,0.4408 -3.175,-0.44803 -6.6076,-0.97694 -9.5074,-2.39158 -1.9227,-1.54164 -2.4352,-4.646 -4.3543,-6.26525 l -0.2992,0.0527 c -0.2083,1.06539 0.2824,2.4061 -0.1339,3.42563 -1.0055,0.4833 -2.1801,-0.61769 -3.1289,-0.9493 -0.7974,-0.29985 -2.2651,-1.26956 -3.0412,-0.69453 -0.5962,3.77472 -0.61,7.64424 -0.2077,11.44013 0.7724,2.91042 0.8992,6.38551 2.6737,8.88318 0.956,1.58044 1.7783,3.65802 3.7786,4.12016 0.5327,-0.24342 0.8036,-1.04734 1.1105,-1.53066 0.2117,-0.28221 0.2224,-1.04838 0.6351,-1.04438 -0.014,0.68792 0.1902,1.39334 0.098,2.07068 -0.3139,1.06891 -0.9026,1.95453 -1.3436,2.95641 -0.134,0.67028 0.2046,1.33709 0.3493,1.99677 -0.1517,1.01953 -0.6287,1.96127 -0.8015,2.98432 0.2328,-0.053 0.4694,-0.088 0.7023,-0.11266 0.353,0.9913 -0.3242,2.32094 0.099,3.34398 0.5256,0.47272 1.0301,0.97382 1.5699,1.42886 -0.1481,-0.74079 -0.7304,-1.04067 -1.1079,-1.66863 -0.2504,-1.31586 0.1835,-2.81146 0.6527,-4.04265 0.06,-0.22225 0.2085,-0.34594 0.4413,-0.37414 0.3705,0.762 0.5923,1.78155 1.1426,2.40244 0.4586,-0.20109 0.713,-0.53634 1.2387,-0.28939 0.7372,2.35655 0.5394,5.06961 0.5534,7.51789 0.9064,-0.13053 0.8083,-0.80428 0.8573,-1.52394 0.3986,-0.508 1.4217,-0.99146 1.7498,-0.25063 -0.4445,0.1905 -1.7108,0.46607 -1.5591,1.11518 0.7762,-0.0353 1.6014,-0.89987 2.3492,-0.64234 l 0.028,0.27854 c -0.9489,0.70204 -2.0142,1.203 -2.8644,2.05672 -1.1253,0.9772 -1.4428,2.22981 -2.0743,3.51038 -0.4515,-0.14462 -0.7055,-0.83602 -1.1994,-1.07591 -0.896,-1.49225 0.6493,-3.38354 0.5503,-5.00279 l -0.2434,0.0248 c -0.2681,1.39348 -1.1678,2.48033 -1.1678,4.02198 0.1516,0.5715 0.296,1.14632 0.4371,1.72134 1.0408,0.29281 1.0835,0.80445 1.401,1.71462 0.3528,0.0776 0.4584,-0.66658 0.6454,-0.88883 0.2257,-0.007 0.3603,0.20082 0.4093,0.62063 0.6103,0.11288 0.261,-1.11132 0.9348,-1.26297 -0.2293,0.69492 -0.5787,1.23839 -0.3529,2.00039 0.6773,0.0847 0.3424,-1.05875 0.988,-1.25625 0.24,0.9842 0.5644,1.88772 0.4905,2.92489 -0.6033,-0.22578 -1.2775,-0.27548 -1.5033,0.47594 0.042,0.79375 0.3664,1.54883 0.4305,2.34611 -0.487,0.0917 -0.4937,-0.64196 -0.6207,-0.9524 -0.4546,-1.28411 -0.071,-2.58928 -0.3597,-3.86281 h -0.3638 c -0.5574,3.21734 0.4516,6.35341 2.1555,9.05216 0.4304,0.6597 0.9493,0.49048 1.6231,0.53278 0.018,0.4198 -0.1167,0.85031 -0.1907,1.26659 0.8149,-0.0212 1.0372,-0.97375 1.6687,-1.32653 0.3003,-0.004 0.4203,0.21835 0.3493,0.67696 -0.2751,1.10067 -2.0322,2.42015 -3.1187,1.77457 -0.12,-0.52211 0.4869,-1.08648 0.6315,-1.60507 -0.9278,0.54679 -1.884,0.039 -2.8153,0.55759 -1.0125,0.53975 -2.0955,0.96301 -3.0903,1.52393 -0.6844,3.11151 -0.1023,5.96872 0.7338,8.9638 1.15,3.23145 2.6286,6.30784 4.6535,9.0842 2.8011,3.83116 5.3728,7.67649 8.509,11.25719 2.4413,2.87161 4.5327,5.55952 8.184,6.97063 2.4447,1.26647 5.0095,1.43949 7.613,2.22261 2.5788,0.23637 5.3873,0.19069 7.8708,-0.60306 3.3831,-1.5487 6.7451,-3.4963 9.5039,-6.01514 2.91039,-2.82927 5.36579,-6.04968 7.34839,-9.58805 2.988,-5.01297 5.489,-10.65056 6.4239,-16.43259 0.0881,-1.6122 0.40564,-3.66529 -0.3458,-5.14697 -1.7745,-1.32287 -3.6194,-2.70957 -5.5526,-3.77496 -1.2594,0.52564 -3.0446,1.14659 -3.6902,2.44481 -0.3064,0.57856 -0.2434,1.14663 -0.2434,1.77457 l -0.247,-0.0104 c 0.01,-0.79728 -0.07,-1.56322 0.3566,-2.27583 0.4056,-0.83961 1.0933,-1.42483 1.619,-2.16214 -0.1309,-0.68086 -0.2681,-1.32299 -0.1199,-2.01796 0.381,-1.63689 -0.064,-3.38339 -0.1799,-5.01675 -0.088,-0.6597 0.6526,-0.91014 1.1007,-1.19941 1.016,0.0423 1.8097,1.85557 0.5256,1.99316 0.06,0.39511 0.1378,0.78664 0.2258,1.17822 l 0.2326,-0.0176 c 0.3492,-0.87489 1.048,-1.72477 1.2914,-2.59261 -0.3387,-0.35983 -0.7301,-0.90697 -1.2134,-1.05161 -0.5503,0.17286 -0.6211,0.2048 -1.1079,-0.15503 -0.4869,0.0564 -1.09,0.43055 -1.5627,0.25063 -0.4727,-0.97367 -0.4907,-2.03242 -1.1116,-2.98845 0.8573,0.2046 1.0905,1.60534 1.4009,2.30735 0.8326,-0.0494 1.4743,-0.58576 2.388,-0.33176 0.6844,-0.004 1.3515,0.83993 1.9653,0.68472 0.5715,-2.02143 0.3599,-4.17706 0.9384,-6.17379 -0.1905,-0.44803 -0.5714,-0.93825 -0.4904,-1.43919 0.035,-0.82903 0.8643,-1.12902 1.062,-1.81694 0.3246,-1.73919 -0.7201,-3.07627 -0.1804,-4.80488 0.5327,-1.68275 0.3175,-3.15025 -0.4692,-4.69893 -0.4058,-0.67382 -0.1437,-1.05489 -0.01,-1.75338 -0.1058,-0.79375 -0.3953,-1.49925 -0.3493,-2.31769 0.5928,-0.10936 0.085,0.95243 0.6878,0.81132 0.5537,-1.70392 -0.078,-3.14316 0.067,-4.84002 0.1305,-0.60678 -0.6419,-1.43591 -0.2961,-1.95802 0.3104,-0.11642 0.5254,-0.28211 0.6419,-0.50436 -0.4019,-0.71966 -0.057,-1.20677 0.035,-1.94407 l 0.2155,-0.0315 c 0.067,0.36689 -0.324,1.4748 0.3674,1.24902 0.116,-0.53269 0.1161,-1.06179 0.095,-1.60507 h 0.2294 c -0.127,0.96661 0.088,1.77426 0.3137,2.69854 -0.067,1.08302 -0.5042,1.84853 -1.3332,2.52233 0.099,1.33703 0.6946,2.73395 0.6206,4.06745 -0.2434,0.2293 -0.7764,0.43403 -0.7514,0.81856 0.053,0.94544 0.1833,1.8448 -0.067,2.77967 0.187,0.4445 0.4165,0.86426 0.66,1.28054 l 0.1906,-0.0388 c 1.2065,-1.397 2.4691,-2.43061 2.9771,-4.29328 0.37042,-1.53458 0.87892,-3.09731 0.90691,-4.67775 0.10941,-1.96144 0.92401,-3.66177 0.63823,-5.65495 0.0564,-1.29472 -0.49718,-2.44107 -0.52916,-3.71812 l 0.24648,-0.0145 c 0.0881,0.3563 -0.26807,1.44676 0.37052,1.25626 0.053,-0.55386 0.0712,-1.10806 0.0992,-1.66192 h 0.30075 c 0.099,0.75496 0.0627,1.50281 0.0517,2.25775 l 0.24701,0.004 c -0.004,-1.397 0.51152,-2.67409 0.34573,-4.09226 l -0.29662,-0.11627 c -1.8415,1.28764 -3.25245,2.85376 -4.34965,4.81521 l -0.2186,0.0884 c 0.056,-1.03364 0.6735,-1.69358 1.2909,-2.45205 0.92433,-1.17828 2.18756,-2.10562 3.45047,-2.89233 0.29278,-0.58561 -0.0886,-1.52405 -0.35658,-2.07791 -0.46922,-0.45861 -1.46744,-0.14151 -1.98594,0.10542 -0.91728,0.5256 -1.94745,1.18895 -2.48715,2.12029 -0.2117,0.37394 -0.4161,0.53617 -0.7902,0.73018 0.06,-0.23987 0.095,-0.47944 0.106,-0.71933 -2.4413,0.4198 -4.8226,1.11479 -7.352,1.09709 -3.04099,-0.0106 -5.79989,0.32095 -8.78089,-0.43047 -2.4659,-0.72672 -4.7163,-1.92981 -5.8523,-4.36045 -0.5715,-1.44282 -1.0338,-2.93829 -1.5524,-4.40232 l -0.307,-0.25425 c 0.9102,2.36361 1.2632,5.00598 1.8594,7.4719 0.2012,0.75847 0.1271,1.50996 0.1731,2.28255 0.1728,0.78669 0.3033,1.56615 0.3173,2.37401 l -0.2543,-0.0139 c 0,-1.72857 -0.7832,-3.48534 -1.0795,-5.18573 -0.2223,-1.35467 -0.5604,-2.67063 -0.9167,-3.99356 -0.3704,-1.73566 -0.7375,-3.84547 -1.7746,-5.32008 -0.3924,-0.27993 -0.942,-0.5061 -1.4573,-0.4961 z m 11.5461,0.11834 v 5.3e-4 c 0.8063,0.0106 1.645,0.35447 2.3606,0.63821 2.1165,1.05481 4.09909,2.43444 5.79599,4.08192 0.9172,1.02658 2.1802,2.34239 2.0567,3.82405 l -0.261,-0.0393 c -0.4163,-1.47108 -1.1889,-2.61063 -2.3388,-3.60546 -0.6033,-0.49036 -1.2174,-1.24191 -1.98289,-1.45005 0.1763,0.74084 1.15719,1.17824 1.30539,1.99316 -0.822,0.62089 -1.85899,0.98457 -2.80449,1.37615 -2.3601,0.3422 -4.9635,-0.57504 -7.1401,-1.42524 l -0.056,-0.22582 c 1.3934,0.1905 2.6701,0.86042 4.0777,1.04386 1.3582,0.37042 3.3445,0.49038 4.4592,-0.50798 0.2752,-0.79022 -0.5465,-1.12136 -1.0862,-1.44591 -0.074,-0.38806 -0.1345,-0.77622 -0.1835,-1.16427 l -0.2682,0.0212 c -0.2928,1.016 -0.7339,1.97876 -1.651,2.57142 -0.8962,0.45156 -2.3392,0.20838 -2.7591,-0.80409 -0.4019,-0.8255 0,-1.57362 0.071,-2.45204 -0.3881,-0.0882 -0.5362,0.62465 -0.7549,0.86454 -0.3669,0.68439 -0.9634,0.62084 -1.616,0.83251 -0.501,0.3175 -0.7833,0.79013 -1.3653,0.97358 0.2046,-0.635 0.614,-1.11493 1.0832,-1.57354 1.1642,-1.1183 2.4557,-2.08816 3.962,-2.69493 l 0.042,-0.2682 c -1.778,-0.69499 -3.1675,0.83958 -4.4587,1.80971 -0.5115,0.3422 -1.0868,1.32634 -1.7394,1.25574 -0.021,-0.70203 0.2187,-1.42164 0.8573,-1.78853 1.0654,-0.61383 2.2258,-1.06903 3.33,-1.6123 0.3384,-0.16972 0.6985,-0.23393 1.0651,-0.22893 z m -44.1033,0.71934 c 0.1411,0.89253 1.6899,0.62093 2.3249,0.59273 l -0.018,0.23978 c -0.3668,0.0882 -1.4502,-0.26807 -1.2526,0.38809 0.7056,0.13758 2.2863,0.24028 2.0076,-0.92036 -1.0299,-0.0952 -2.0459,-0.0534 -3.0618,-0.30024 z m 46.2742,0.96996 c -0.078,-0.004 -0.1566,-0.004 -0.2336,5.3e-4 -0.926,0.0627 -1.733,0.84745 -1.5875,1.9296 0.2117,0.0318 0.3418,-0.13066 0.3948,-0.49403 l 0.2191,-0.0315 c 0.039,0.30339 0.074,0.60663 0.1127,0.91002 0.6738,0.11638 0.1869,-1.15354 0.956,-1.28054 0.3104,0.47625 0.2397,0.80761 0.1447,1.33325 0.2787,-0.0176 0.5572,-0.0422 0.8289,-0.0775 0.4233,-0.69846 0.6211,-1.53456 -0.1339,-2.09548 -0.2282,-0.1164 -0.4662,-0.1791 -0.7012,-0.1943 z m -27.1787,0.38138 c -0.321,0.20109 -0.755,0.87128 -0.6103,1.25935 0.6383,0.41979 1.4111,-1.17115 0.6103,-1.25935 z m -16.7556,0.89503 c -0.093,0.004 -0.1662,0.0318 -0.2062,0.0894 -0.4268,0.72672 0.8185,0.76888 1.2242,0.60307 0.1376,-0.29236 -0.6167,-0.71057 -1.018,-0.69247 z m 27.988,0.82217 v 5.3e-4 c 0.07,8e-4 0.1475,0.01 0.2325,0.0284 -0.06,1.19238 0,2.28939 -0.3101,3.39359 -0.5997,2.59997 -0.762,5.24615 -1.2629,7.84965 l -0.3881,0.20825 c 0.095,-2.38478 0.4937,-4.8368 0.91,-7.19336 -1.1324,0.7867 -1.8663,2.02853 -2.9952,2.79053 -0.8572,0.27869 -1.8663,0.63868 -2.7729,0.51521 -0.1658,-0.33514 -0.1021,-0.54713 0.1907,-0.64234 0.7091,-0.33513 1.3478,-0.71247 1.9828,-1.1746 1.0231,-0.62442 1.4955,-1.73572 2.2257,-2.70939 0.6738,-0.89606 1.1571,-1.89099 1.7498,-2.83291 0.079,-0.15878 0.2263,-0.23558 0.4377,-0.23358 z m -27.1095,0.69712 v 5.3e-4 c -0.09,-0.011 -0.1931,-2.6e-4 -0.3121,0.0372 -0.1305,0.29281 0.039,0.51459 0.5116,0.67334 -0.2364,0.762 -0.2542,1.12557 0.7054,1.00562 -0.2902,-0.49698 -0.2751,-1.63969 -0.9049,-1.71669 z m 40.8539,0.0656 c 0.1022,0.91722 1.3193,1.00546 2.0319,0.91726 l -0.053,-0.27492 c -0.6773,-0.18697 -1.3226,-0.3954 -1.9786,-0.64234 z m -43.2501,0.95395 v 0 c 0.052,-2.7e-4 0.1091,0.004 0.1721,0.0129 1.0618,1.03011 1.7851,2.76211 3.0587,3.65818 2.4588,1.03715 5.2457,1.47823 7.8527,1.99677 0.3634,0.0565 0.9277,0.50063 0.6243,0.90279 -1.0548,1.75331 -2.0213,3.48896 -2.6386,5.45393 -0.18,0.98778 -0.3282,2.53317 0.5855,3.22461 1.3723,1.04422 2.953,1.37226 4.6534,1.38286 0.9667,0.007 1.5166,0.71257 1.0227,1.62626 -1.5346,2.56117 -3.0727,5.07998 -4.0711,7.91631 -0.117,0.3175 -0.138,0.62436 -0.064,0.91364 0.4939,0.0529 0.925,-0.0491 1.3342,0.29662 -0.8008,0.75848 -1.5238,1.65426 -2.0282,2.63498 l 0.074,0.52555 c 0.5644,0.0282 1.0972,0.0388 1.6122,-0.2222 0.635,-0.30339 0.9838,-0.85686 1.647,-1.02268 -0.2751,0.74789 -0.6665,1.38629 -0.8429,2.17299 -0.2928,1.50988 -0.1512,2.91395 -0.1302,4.41679 -0.1482,0.39864 -0.6844,0.62457 -1.0159,0.86093 -0.5751,-0.0317 -0.9917,-0.55779 -1.6056,-0.62839 -0.5115,-0.127 -0.2786,-1.26983 -0.8537,-1.15342 0.067,0.45861 0.1757,0.9103 0.2537,1.36891 -0.018,0.44455 -0.4091,0.68427 -0.8289,0.52555 -0.8464,-1.54516 -0.6029,-3.05162 -0.8604,-4.68498 -0.3211,0.18697 -0.5047,0.4622 -0.9069,0.4904 -0.2928,-0.7761 0.9171,-1.27341 1.5027,-1.11466 0.3492,0.84314 0.4168,1.71455 0.5297,2.60708 l 0.3204,0.0139 c 0.078,-0.5609 0.06,-1.11813 0.035,-1.68258 h 0.2899 c -0.035,0.67381 -0.064,1.34373 -0.025,2.02107 l 0.3179,-0.003 c 0.021,-0.89253 0.063,-1.79932 -0.018,-2.69183 -0.2117,-0.48683 -0.9274,-0.77264 -1.3297,-1.12189 -0.508,0.11995 -1.1501,0.68443 -1.6086,0.22583 -0.494,-0.59973 -0.7622,-1.37594 -1.2666,-1.95803 -0.4869,-0.067 -0.8291,0.37066 -1.323,0.25425 -0.046,-1.19592 -0.2294,-1.75713 -0.8185,-2.78019 -0.381,-1.91558 0.413,-3.57352 -0.6418,-5.3268 -0.01,-0.78672 0.388,-1.48882 0.2646,-2.30374 -0.4939,-0.17639 -1.0477,0.26469 -1.5627,0.12712 -0.3458,-1.3441 0.5786,-3.0302 0.6526,-4.43073 -0.194,-0.78317 -0.6174,-0.84342 -1.3229,-0.90692 -0.5962,-0.68439 -0.9563,-1.7427 -1.1327,-2.62465 0.018,-0.22225 0.2151,-0.36708 0.5891,-0.43408 -0.2575,-0.89605 -1.3826,-2.0811 -0.9839,-3.14296 -0.4445,-1.07597 0.1586,-1.95106 -0.3106,-3.01997 0.4586,0.21519 0.6276,1.40089 0.9839,1.86655 -0.2293,-0.0776 -0.4582,-0.14154 -0.6945,-0.20154 -0.053,1.3194 1.0368,2.75565 1.6329,3.82457 -0.081,0.2293 -0.1653,0.45852 -0.2433,0.68782 0.2081,0.3422 0.3105,0.67374 0.3105,0.99477 l -0.5539,0.15503 c -0.081,0.99131 0.5927,1.70399 1.651,1.34772 0.067,-0.46919 -0.2577,-0.91358 -0.3317,-1.37925 0.081,-0.22576 0.1584,-0.45178 0.2294,-0.68109 -0.1444,-0.33514 -1.0302,-1.42171 -0.2294,-1.46761 0.6455,0.24695 0.7339,1.27375 1.3477,1.63711 -0.025,-0.254 -0.074,-0.49735 -0.1551,-0.73019 -1.076,-1.98963 -2.0603,-4.02536 -3.1822,-5.99033 -0.6703,-1.03011 0.1481,-1.81296 -0.2294,-2.93832 -0.046,-0.51594 -0.514,-1.49772 0.262,-1.50172 z m -6.6658,0.22272 v 0 c 0.3033,-0.003 0.6396,0.16901 0.9359,0.42478 1.1924,1.1183 2.4763,2.36047 3.2101,3.84214 0.3352,0.67733 0.8012,1.26301 1.1752,1.91565 -0.6632,1.40759 -0.7763,2.956 -1.3901,4.38474 -0.4485,0.8749 -0.067,1.57004 0.028,2.46962 l -0.4692,-0.004 c -0.3599,-1.50283 -0.1907,-2.89648 -0.1447,-4.40284 -0.4199,-0.06 -0.5928,0.56134 -0.8997,0.79065 -0.3987,0.17993 -0.8115,0.33822 -1.2243,0.4899 0.2646,-1.25941 0.8043,-2.45172 1.1359,-3.70055 0.1905,0.0494 0.3847,0.0988 0.5752,0.14469 0.01,-0.40923 0.1341,-0.5889 0.3705,-0.5395 0.014,0.30692 0.028,0.61353 0.042,0.92397 0.5503,-0.25752 1.2455,-0.94532 0.6951,-1.56269 -0.2293,0.0494 -0.4621,0.10253 -0.6914,0.15193 0.05,-0.2928 0.095,-0.58941 0.1338,-0.88574 -0.949,-1.10067 -1.8133,-2.34926 -2.928,-3.28765 -0.2258,-0.19757 -0.4658,-0.28967 -0.7198,-0.28267 -0.2116,2.02844 -0.081,4.13472 -0.049,6.17378 l -0.2615,0.004 c 0.028,-0.97367 -0.018,-1.82718 -0.2222,-2.77968 -0.056,-1.18182 -0.077,-2.46956 -0.042,-3.64784 0.1658,-0.44274 0.4366,-0.6197 0.74,-0.6227 z m 24.0709,0.0351 c 0.359,-0.0176 0.751,0.0774 0.6496,0.36845 -0.2328,0.17286 -1.3231,0.28604 -1.1467,-0.23254 0.078,-0.0741 0.2817,-0.12531 0.4971,-0.13591 z m -14.0663,0.79013 c -0.065,0.003 -0.1337,0.0107 -0.2067,0.0233 0.074,0.41627 0.1656,0.88541 0.6418,0.99477 0.8749,0.2293 1.7817,0.75113 2.6918,0.74053 0.1341,-0.44802 -0.7336,-0.49383 -1.0123,-0.64906 -1.0021,-0.16867 -1.1393,-1.15279 -2.1146,-1.10949 z m 40.7148,0.79582 c 0,10e-4 0,0.002 0,0.003 1.2011,0.48774 2.3638,0.31859 3.6354,0.32917 v 0.21911 c -0.7832,-0.0354 -1.5624,0.0239 -2.3456,0.003 -0.5211,-0.081 -1.0178,-0.008 -1.2898,-0.55087 0,-7.9e-4 0,-0.001 -0.01,-0.002 z m -2.1549,3.43597 0.016,0.28215 c 0.8432,0.31399 1.7145,0.35989 2.6035,0.38809 l 0.01,-0.25063 c -0.9631,0.15876 -1.7181,-0.21147 -2.6283,-0.41961 z m 3.5946,0.75861 -0.01,0.24649 c 0.8607,-0.0528 1.7075,-0.0808 2.5683,-0.003 v -0.23306 c -0.8572,0.0704 -1.7038,0.0391 -2.5611,-0.0104 z m -20.2561,4.95267 c -0.3986,1.61572 -1.9264,3.15774 -1.7818,4.87929 -0.039,1.0407 0.5114,1.84856 0.6666,2.82928 -0.4339,0.20108 -1.1075,0.0633 -1.3332,-0.37414 -0.4093,-0.67028 -0.3217,-1.64421 -0.2507,-2.3921 0.441,-1.93322 1.5028,-3.23828 2.4412,-4.89634 z m -29.8209,0.81132 c 0.076,-0.012 0.1651,0.0241 0.2718,0.13436 0.3069,0.98425 0.4376,2.06378 0.801,3.03392 0.2152,0.55739 0.5996,0.58922 1.1146,0.69505 -0.088,0.13406 -0.1903,0.26083 -0.2997,0.37723 -1.3864,-0.127 -1.5132,-2.61411 -1.6789,-3.64422 -0.2295,0.0176 -0.4554,0.0531 -0.6812,0.10956 0.1297,-0.20108 0.2435,-0.67 0.4724,-0.7059 z m 65.21509,0.51521 c 0.29351,-0.009 0.56664,0.0398 0.81805,0.14831 0.35981,1.28411 -0.54324,1.91922 -0.79375,3.01636 0.187,0.3069 0.47625,0.46909 0.32816,0.87126 -0.13756,0.32102 -0.31416,1.30153 -0.75866,1.23093 0.095,-0.41275 0.2053,-0.82542 0.3003,-1.23817 -0.2364,0.0282 -0.4727,0.0601 -0.709,0.0884 0.2222,-1.53106 1.32249,-2.52231 0.5147,-4.08864 0.1023,-0.0159 0.2022,-0.0254 0.3002,-0.0284 z m -21.68139,0.77515 c 0.1957,-0.002 0.3312,0.1069 0.4052,0.32918 0.5891,1.68275 1.3687,3.4608 1.4816,5.25291 0.078,0.81492 -1.1114,1.12193 -1.7359,0.98081 -0.3316,-0.57855 0.7797,-1.05144 0.7127,-1.67586 0.063,-1.64394 -0.9314,-3.27387 -1.0796,-4.84725 0.078,-0.0256 0.151,-0.039 0.216,-0.0398 z m -13.1263,4.624 c 0.21,-7.9e-4 0.4288,0.0596 0.6233,0.17467 0.2998,0.20461 1.2835,0.29662 1.2205,0.74466 -0.762,-0.16934 -2.1766,0.27858 -2.667,-0.37052 0.1477,-0.37483 0.4733,-0.54681 0.8232,-0.54881 z m 11.252,0.71159 v 0 c 0.1283,-2.6e-4 0.2591,0.0146 0.3923,0.0486 0.109,0.22576 0.1156,0.47654 0.021,0.74465 -0.6527,0.0247 -1.2419,-0.0245 -1.8169,0.35295 -1.3123,0.78669 -2.861,1.38638 -4.3956,1.48518 -0.5785,0.06 -1.1712,-0.39161 -1.3653,-0.91725 1.644,0.98425 3.154,0.17273 4.6849,-0.57516 0.7964,-0.37659 1.5818,-1.13695 2.4795,-1.13895 z m -34.5151,1.36477 c -1.3335,1.94028 -1.3198,3.93347 -1.6408,6.16655 0.6315,0.16228 -0.028,-0.97707 0.6315,-0.85007 -0.011,0.62089 0.233,1.5238 -0.3597,1.92598 -0.2504,-0.067 -0.3954,-0.19759 -0.4304,-0.38809 -0.3881,-2.27542 0.254,-4.52629 1.203,-6.57945 0.1764,-0.12347 0.3741,-0.21492 0.5964,-0.27492 z m 22.9164,2.82205 c -0.4445,1.23118 -1.2632,2.35284 -2.2087,3.2489 -0.5256,0.50447 -1.1527,0.1943 -1.7983,0.29662 -0.2505,0.29986 -0.3463,1.37586 -0.8155,1.26297 -0.06,-0.56443 0.2923,-1.13252 0.3633,-1.69343 -0.3316,0.16227 -0.6137,0.70195 -0.9947,0.64906 0.2576,-0.92782 0.924,-1.8061 1.4567,-2.59985 l 0.2434,-0.0599 c -0.1482,0.73025 -0.6874,1.23814 -0.7054,2.01073 0.508,-0.18345 0.5642,-0.88887 1.0087,-0.96997 l 0.1272,0.47594 c 0.381,-0.1905 0.621,-0.65232 0.9844,-0.90279 l 0.053,0.57155 c 0.9243,-0.21519 1.2455,-2.12047 2.2862,-2.28979 z m 14.5309,0.0248 c 0.9419,0.46919 1.6581,1.46059 2.3848,2.20142 0.8643,1.00542 1.8979,1.96828 2.5435,3.12539 0.2504,0.43392 0.2644,1.46746 -0.4976,1.13585 -1.5275,-1.48872 -2.9245,-3.17824 -4.1698,-4.91391 -0.4127,-0.0212 -0.8253,-0.0424 -1.2345,-0.0636 0.085,0.80785 0.5396,1.36507 0.9524,2.0283 -0.053,0.32102 -0.1194,0.64213 -0.1974,0.95963 0.1799,0.35277 0.4126,0.70195 0.5255,1.0759 -0.7479,0.11642 -0.8611,-0.60999 -1.2562,-1.08624 -0.4833,-0.84314 -1.2943,-1.69369 -1.4459,-2.6603 0.7337,0.19403 1.125,2.0994 2.021,2.05 -0.2963,-0.92781 -1.1042,-1.67606 -1.5063,-2.57917 0,-0.41275 0.1377,-0.83582 0.2506,-1.23093 0.575,0.10932 1.0584,0.0529 1.6299,-0.0424 z m -114.8385,0.0517 a 105.59818,105.59818 0 0 0 0.339,7.57887 105.22242,104.34837 0 0 1 -0.339,-7.57887 z m 101.5271,0.14676 v 0 c 0.1497,-0.0131 0.32,0.0343 0.5328,0.16123 0.1376,1.03011 -1.0687,2.10641 -0.8676,3.06597 l 0.2924,0.11627 c 0.7832,-0.43392 1.2137,-1.23111 1.8346,-1.84847 l 0.2997,0.0424 0.064,0.30334 c -0.4269,1.34055 -1.5909,2.52199 -2.5611,3.50624 -0.6562,0.60325 -1.5345,1.32995 -2.4588,1.40405 -0.8748,-0.003 -1.7782,-0.067 -2.6531,-0.15865 -0.3033,-0.0917 -0.4726,-0.26085 -0.5116,-0.50074 0.4058,-0.68792 0.9245,-1.53451 1.6795,-1.86965 1.5734,-0.79727 2.6066,-2.41673 3.6685,-3.73259 0.238,-0.27541 0.4307,-0.46696 0.6801,-0.48938 z m -3.8338,0.1509 c 0.7126,-0.0741 0.07,1.15009 -0.3917,0.91725 -0.1306,-0.31396 10e-5,-0.62092 0.3917,-0.91725 z m 13.0317,0.74414 c 0.3493,0.19754 0.5681,0.45146 0.7762,0.79013 0.8114,1.37936 1.8518,2.63918 2.8184,3.92328 0.2011,0.31397 0.6987,0.71251 0.54,1.11466 -0.4197,0.16582 -0.7056,-0.45862 -0.942,-0.71262 -1.1748,-1.61572 -2.3036,-3.33041 -3.1926,-5.11545 z m -2.9424,0.0248 v 5.3e-4 c -0.1517,0.89958 0.5499,1.72173 0.9803,2.46962 0.568,0.78669 0.7237,1.83095 1.3059,2.58588 0.5679,0.14464 1.0723,0.59586 0.2433,0.8816 -0.4728,-0.19401 -0.8225,-0.37755 -1.3446,-0.30695 -0.6632,-1.26294 -1.0893,-2.53261 -1.1033,-3.97547 l -0.3819,0.003 c -0.1906,1.46756 -0.4551,2.76258 -0.046,4.22661 -0.5044,0.067 -1.0476,-0.40253 -1.5415,-0.54364 -0.589,-0.16579 -0.5572,-0.64547 -0.416,-1.13584 0.4762,-1.15005 0.194,-2.33152 0.769,-3.4463 0.3775,-0.0952 0.7619,-0.17656 1.157,-0.23307 0.071,-0.30693 0.1974,-0.48324 0.3773,-0.52554 z m -30.5925,0.0139 v 0 c 0.6491,0.21872 0.6134,1.824 0.2289,2.34611 0.5679,0.77259 1.0617,1.32643 1.1467,2.36007 -0.5539,0.0459 -0.6172,-0.83614 -0.8288,-1.20303 -0.2823,-0.0353 -0.5751,-0.0107 -0.8785,0.0775 0.05,-0.73377 0.074,-1.45308 0,-2.18333 0.2222,0.0635 0.4444,0.11947 0.6702,0.16537 0.039,-0.51858 -0.2611,-1.04764 -0.3421,-1.5627 z m 28.1585,2.08515 c -0.028,1.28058 -0.6032,2.99866 -1.9684,3.40083 0.2081,-0.43039 0.4375,-0.84322 0.5716,-1.30535 -0.7056,0.14464 -1.1713,1.35467 -2.0392,1.36167 0.3916,-0.83256 1.3478,-1.42192 1.7746,-2.34972 0.1976,0.0176 0.3951,0.0357 0.5891,0.0568 0.374,-0.29634 0.5996,-1.11487 1.0723,-1.16427 z m 4.9542,0.21032 c 0.2,-0.004 0.3506,0.0886 0.4537,0.27647 0.8291,1.30881 1.5738,2.67382 2.3746,4.00027 0.3386,0.41275 0.7653,0.4059 1.2345,0.55759 0.4339,0.381 0.7235,0.91024 1.1503,1.30535 1.5558,1.18886 3.2982,2.38796 4.5646,3.89433 0.3454,0.34571 0.3354,0.68086 0.3354,1.13947 l -0.4832,0.046 c -0.9454,-1.62278 -2.297,-2.82922 -3.6623,-4.08864 -0.7584,-0.55739 -1.4745,-1.06541 -2.0918,-1.79214 -0.2082,0.0388 -0.3463,0.23315 -0.4093,0.5824 l -0.2398,0.0527 c -0.1764,-0.4057 -0.2434,-0.86411 -0.3669,-1.2945 -0.2857,-0.45155 -1.0652,-0.4273 -1.3157,-0.89297 -0.3916,-0.68086 -0.7726,-1.26629 -1.3053,-1.84485 -0.2646,-0.58914 -0.3603,-1.26979 -0.4553,-1.90479 0.078,-0.0229 0.1495,-0.0357 0.2165,-0.0367 z m -21.0684,0.0532 c 0.059,5.3e-4 0.1159,0.0129 0.1689,0.0398 0.2364,0.31397 -0.5683,1.13941 -0.8893,0.91364 -0.1976,-0.36733 0.3074,-0.95643 0.7204,-0.95343 z m 0.9415,0.39946 c -0.2117,0.83961 -1.0795,1.50991 -1.711,2.05672 -0.6632,0.44098 -1.2739,1.15725 -2.05,1.36891 0.5362,-1.00894 1.785,-1.33367 2.5223,-2.28617 0.3598,-0.30692 0.7448,-1.13546 1.2387,-1.13946 z m 4.4943,0.64233 -0.046,0.24702 c -0.9772,0.50447 -2.0039,0.97346 -2.9952,1.45676 0.035,-0.29986 0.1626,-0.50456 0.3778,-0.61392 0.8149,-0.4445 1.725,-1.00165 2.6634,-1.08986 z m -4.4592,0.49352 0.2295,0.0331 c 0.4798,0.99836 0.6701,2.16614 0.7865,3.25975 -0.194,-0.11994 -0.4023,-0.29981 -0.6176,-0.54674 -0.046,1.27 0.1592,2.48694 0.2791,3.73931 -0.4374,0.127 -0.6458,0.0174 -0.6248,-0.33538 -0.088,-0.67027 -0.084,-1.31574 -0.1162,-1.98954 -0.2046,0.0317 -0.4094,0.067 -0.614,0.10231 0.01,-0.87842 0.3563,-1.72175 0.3142,-2.59312 l -0.2821,0.007 c -0.049,0.42333 -0.1834,0.60674 -0.4057,0.54674 0.1376,-0.58208 0.1798,-1.19235 0.6243,-1.62626 0.2681,0.35983 0.2714,1.76032 0.8041,1.64745 0.063,-0.80434 -0.2185,-1.46466 -0.3773,-2.24431 z m 40.58359,0.0884 c 0.4939,0.43039 0.8396,1.05826 1.1994,1.60507 -0.1835,0.83608 -0.3,1.22785 0.095,2.04277 -0.6103,-0.1517 -0.7232,-1.01621 -1.3017,-1.02681 -0.7409,0.17991 -0.7018,1.66159 -1.6366,1.60869 0.01,-0.49037 0.3453,-0.55384 0.6557,-0.8537 0.2893,-0.52917 0.2011,-1.38617 0.6703,-1.78128 0.2152,0.0529 0.4304,0.10201 0.649,0.15141 0.046,-0.41981 -0.9662,-1.65795 -0.3312,-1.74615 z m -37.27419,1.5565 v 0 5.3e-4 c 0.816,-5.3e-4 0.9076,0.99091 1.8799,1.16685 3.0939,0.71261 6.6145,-0.007 9.8036,0.46922 1.8027,0.49742 3.817,0.21858 5.6761,0.23978 v 0.42685 c -1.3547,-0.0424 -2.7127,0.0348 -4.0638,-0.0181 -2.54,-0.42685 -5.225,-0.042 -7.7897,-0.0279 -1.7251,-0.0635 -3.3404,-0.039 -4.8855,-0.9245 -0.4481,-0.26811 -1.4395,-0.57161 -1.0232,-1.26658 0.1504,-0.0458 0.2816,-0.066 0.3979,-0.0661 z m -13.254,0.37672 v 0 c 0.021,0.5715 0.01,1.11813 0.1054,1.68258 l 0.2858,-0.0279 c 0.028,-0.37394 0.1343,-0.54715 0.3142,-0.52245 0,0.27516 0.017,0.54683 0.056,0.81494 0.5257,0.98777 0.2465,2.44141 0.3385,3.54913 -0.4022,-0.10583 -0.7194,-0.42692 -0.5747,-0.85731 0.2501,-0.92428 0.522,-1.72168 0.2362,-2.69182 -0.7126,0.0882 -0.2858,1.36922 -0.3917,1.87017 l -0.2997,0.063 c -1.0019,-0.55386 -0.3878,-1.91172 -0.4868,-2.836 -0.8537,-0.3422 -0.2079,-1.03738 0.4165,-1.04438 z m -4.3842,0.37517 c -0.4371,0.0543 -0.043,1.31134 0.01,1.57923 0.5639,0.17639 0.2461,-1.34373 0.091,-1.57303 -0.037,-0.008 -0.07,-0.0102 -0.099,-0.006 z m -0.6604,1.02991 v 5.3e-4 c -0.039,-10e-4 -0.083,-2.7e-4 -0.1308,0.006 -0.194,0.41981 -0.1023,0.60337 0.2822,0.55397 0.1728,-0.36423 0.1217,-0.55008 -0.1514,-0.56017 z m 11.868,1.46658 c 0.081,0.9913 0.1126,1.95786 0.01,2.94917 l 0.2434,0.007 c -0.057,-0.98777 -0.025,-1.96183 0.021,-2.94608 l -0.2713,-0.0103 z m 43.03399,0.30696 v 0 c 0.552,-0.0347 0.8452,0.36307 1.2279,0.77979 0.4798,0.42333 0.325,1.23467 0.293,1.80971 -0.4586,0.56796 -0.8535,1.28747 -1.4744,1.68259 -0.01,0.88546 0.1651,1.76364 0.1091,2.65616 0.067,0.31045 -0.1055,0.43776 -0.5183,0.37776 0.039,-1.66158 -0.2859,-3.17878 0.4056,-4.75217 0.1729,0.18698 0.3527,0.34232 0.5432,0.47284 0.4968,-0.51505 0.5986,-1.49565 0.013,-1.98954 -0.3704,-0.36689 -0.9207,-0.37388 -0.8537,-0.99477 0.09,-0.0238 0.1748,-0.0374 0.2538,-0.0424 z m -28.81779,0.33486 v 0 c 0.8679,0.0705 1.7215,0.25429 2.5611,0.48007 1.7181,0.45861 3.6408,0.38801 5.3976,0.22221 0.5398,-0.0212 1.1675,-0.14827 1.6826,0.0351 0.2046,0.94897 -0.4903,0.85368 -1.0971,1.19941 -0.6138,0.91369 -2.36,0.50089 -3.2913,0.38447 -0.2893,-0.37042 -0.4198,-1.11454 -0.8925,-1.25212 -1.4605,-0.19755 -2.8897,-0.65286 -4.3537,-0.84336 z m -2.5436,1.18494 c 0.039,-0.002 0.078,-0.001 0.1163,0.005 0.1164,0.38805 0.226,0.77967 0.307,1.18184 -0.2963,0.60678 -0.7971,1.28073 -1.478,1.47123 0.12,-0.381 0.4769,-0.64231 0.5509,-1.02682 -0.321,-0.33162 -0.5585,-0.16914 -0.957,-0.13384 0.1356,-0.48948 0.8696,-1.45656 1.4608,-1.49706 z m 30.75989,0.64337 c 0.4336,-0.0269 0.4031,1.00893 -0.093,0.8568 -0.1869,-0.27517 -0.1869,-0.55391 0,-0.83613 0.034,-0.0117 0.064,-0.0187 0.093,-0.0207 z m -36.25979,0.38757 c -0.6738,1.44286 -0.1305,2.60694 0.1659,4.04627 l 0.3349,0.0351 c 0.131,-0.86782 0.029,-1.78137 0.039,-2.65979 l 0.2331,-0.0109 c -0.025,0.7726 -0.067,1.55958 -0.025,2.33216 0.011,0.55386 0.5327,1.14618 0.3669,1.67535 -0.2928,0.13758 -0.5324,0.0777 -0.7193,-0.17983 -1.0019,-1.66511 -0.9422,-3.344 -0.8083,-5.21725 z m 9.1333,0.003 c 0.8996,0.25753 0.2789,1.40057 0.1483,1.99677 -0.1481,0.27869 -0.2258,1.101 -0.6738,0.9493 0.078,-0.4445 0.2041,-0.87832 0.2961,-1.3193 0,-0.42333 -0.6173,-0.65266 -0.9736,-0.67386 -0.4198,0.35984 -0.762,0.79721 -1.1819,1.15704 -0.1941,0.003 -0.3878,0.01 -0.5818,0.0139 -0.5892,0.88193 -1.6263,1.86641 -2.7482,1.88051 0.1235,-0.1658 0.2646,-0.30362 0.4269,-0.41651 1.3688,-0.87136 2.3741,-2.15212 3.1925,-3.52796 0.7338,0.0211 1.3547,0.0495 2.0955,-0.0599 z m -101.385,0.34778 a 105.59818,105.59818 0 0 0 0.677,4.86379 105.22242,104.34837 0 0 1 -0.677,-4.86379 z m 87.7817,1.03198 v 5.3e-4 c 0.7268,0.6985 1.1534,0.67348 2.0635,0.98392 l 0.081,0.31419 c -0.2575,1.77447 -0.8013,3.44643 -0.8113,5.26324 -0.039,0.83256 -0.8284,0.3951 -1.2552,0.16227 0.2575,2.46238 -0.1771,6.16332 1.9854,7.8884 -0.7161,-1.74977 -1.3438,-3.81008 -1.171,-5.72213 0.053,-0.33514 0.2185,-0.49417 0.4971,-0.48007 -0.2857,1.97555 0.3604,3.66582 1.1824,5.41207 l 0.2325,0.0915 c -0.035,-1.48872 -0.2892,-2.88223 0.081,-4.35684 l 0.2646,-0.004 c 0.2291,1.41463 0.031,2.82583 0.3101,4.21577 0.1446,0.27164 -0.046,1.2699 0.3845,1.1746 -0.021,-1.12536 -0.031,-2.2293 0.1343,-3.3476 0.074,-0.47979 0.3281,-0.87116 0.8749,-0.68419 0.078,1.651 0.028,3.27693 0.3809,4.91029 0.1658,0.50447 0.091,1.07263 0.6878,1.24902 -0.1872,-1.98261 -0.5321,-4.32163 -0.01,-6.27249 0.4515,-1.46755 0.6208,-2.85058 1.605,-4.09587 0.7338,-0.94899 1.7888,-2.2681 2.9988,-2.55385 -0.2822,1.01953 -2.6674,1.63661 -2.2758,3.06183 -0.3105,0.45861 -0.8216,0.83963 -0.8216,1.42524 l 0.2537,-0.0527 c 0.8607,-0.91722 1.6335,-1.80978 2.7094,-2.50476 0.4269,-0.1905 0.8117,0.51169 1.2562,0.55759 1.1642,-0.40922 2.0418,-1.182 3.0825,-1.77819 -0.4128,0.89605 -1.6749,1.46778 -2.4722,1.98283 -1.3229,0.74083 -2.4942,1.60862 -3.9899,1.97197 -0.5468,0.70203 -0.8754,1.40756 -1.7679,1.72858 -0.018,0.52211 0.2188,1.02314 0.3881,1.50998 0.4163,1.07598 0.5896,2.21896 0.9106,3.33727 0.3034,1.1183 0.183,2.29993 0.4124,3.45353 0.582,0.0176 1.4467,-0.28934 1.8277,0.28216 0.7938,1.01951 1.4218,2.22625 1.9333,3.40806 0.1411,0.39511 0.4197,0.87469 0.3069,1.29449 -0.2893,0.18698 -0.5367,0.13736 -0.7519,-0.15193 -0.9066,-1.27 -1.88,-3.19611 -3.3264,-3.90519 0.028,0.254 0.07,0.50443 0.1271,0.75138 0.6597,0.76552 1.3192,1.48178 1.8836,2.32492 0.2928,0.51151 1.2629,1.00891 0.6491,1.62626 -0.8255,0.41629 -1.8309,0.56113 -2.7445,0.61753 -0.7937,0.0423 -0.956,-0.81474 -1.7674,-0.70538 -1.3935,0.007 -2.7835,-0.16988 -4.177,-0.16588 -0.5292,0.17992 -0.6108,1.12509 -1.2423,0.51831 -0.448,-1.14652 -0.4828,-2.32797 -1.1601,-3.42511 -0.3634,-0.55386 -0.9733,-0.68472 -1.0723,-1.39733 -0.4939,-2.21897 0.6983,-4.27912 0.5219,-6.61097 -0.2117,-0.1658 -0.5149,-0.0918 -0.91,0.22221 0.1129,-1.016 0.1341,-2.03541 0.2858,-3.04788 0.1869,-1.41817 -0.046,-2.91425 0.3421,-4.28656 0.1267,-0.55033 -0.036,-1.15327 -0.022,-1.71772 -0.1516,-1.00894 1.7675,-1.41109 1.4465,-2.36006 -0.501,0.0917 -0.7158,0.55407 -1.2521,0.45527 -0.078,-0.28575 -0.1551,-0.57518 -0.2331,-0.86093 -0.7162,-0.2293 -1.7676,0.88566 -2.6319,0.94206 0.1834,-0.35277 0.353,-0.66019 0.7622,-0.77308 1.2206,-0.3704 1.9542,-1.23785 3.0019,-1.87637 z m 25.8351,0.68626 c 0.7509,0.69854 1.2306,1.78799 1.756,2.66599 0.1623,-0.067 0.3564,-0.23634 0.5751,-0.50798 0.057,0.50447 0.1086,1.00542 0.1866,1.50637 0.582,0.0282 0.6352,-0.46915 0.9844,-0.83251 1.083,-0.007 0.3457,1.36176 1.263,1.18184 0.18,-0.69144 0.2722,-1.29483 0.085,-2.00039 -0.1905,-0.508 0.1369,-0.98761 0.6661,-0.93121 0.6138,0.36688 0.8752,0.92064 1.2738,1.48156 0.5468,0.1799 1.4078,-0.16572 1.8206,0.2682 1.47099,2.12019 0.4231,3.95829 1.25209,6.13141 0.4371,1.26644 -0.1696,2.47971 0.4971,3.73207 0.046,1.70391 -0.092,3.41162 0.046,5.11907 -0.2117,-0.11289 -0.3454,-0.25773 -0.3984,-0.43408 -0.2611,-1.42875 0.155,-2.97388 -0.1556,-4.37441 -0.4762,-1.18886 -0.1792,-2.33215 -0.3591,-3.55276 l -0.35349,0.007 c -0.1796,0.91723 -0.06,1.80613 -0.1266,2.72335 -0.2081,0.50447 -0.47,0.89982 -0.385,1.47485 0.131,1.26295 -0.069,2.50823 0.057,3.76411 l -0.2294,-0.0176 c -0.025,-1.44635 0.092,-2.98103 -0.046,-4.39921 l -0.3457,-0.014 c -0.1901,0.74436 0.021,1.57675 -0.233,2.29288 -0.2225,0.508 -0.2396,0.87483 -0.1866,1.42162 l -0.2434,0.007 c 0.032,-0.53622 0.071,-0.9453 -0.187,-1.43919 -0.381,-0.88194 -0.12,-1.71844 -0.2646,-2.62155 l -0.3354,-0.0103 c -0.049,1.8415 -0.1486,3.66518 -0.039,5.50664 -0.8819,-0.14108 -0.2995,-1.71084 -1.0051,-1.62264 -0.1658,1.69686 -0.519,3.41504 -0.833,5.09426 l -0.448,0.0315 c -0.035,-0.41981 -0.091,-0.83257 -0.1762,-1.24179 -0.7303,-0.17639 -0.092,1.21739 -0.8538,0.84698 -0.074,-0.28222 -0.1475,-0.56485 -0.2186,-0.8506 -0.5609,-0.32455 -1.4039,-0.10924 -2.0531,-0.21859 -0.3878,1.18532 -0.2261,2.42022 -0.4588,3.60908 -0.561,1.30882 -1.7002,1.08675 -2.7198,0.45527 -0.5962,0.96309 -1.2311,1.6754 -2.42,1.7601 -0.5609,-0.11642 -0.4549,-0.96296 -0.3669,-1.37924 0.1235,-0.47625 0.1974,-1.29146 0.6842,-1.53841 0.6879,0 1.3405,0.11993 1.9932,-0.0212 0.4092,-1.41464 0.3882,-2.98797 0.9033,-4.35322 0.6738,-0.57856 1.6475,-1.22381 2.5647,-1.32964 0.081,-0.46919 0.042,-1.03738 0.2857,-1.45366 0.2716,-0.0847 0.5397,-0.16914 0.8114,-0.25735 0.2079,-1.29468 0.3561,-2.39545 0.1199,-3.70778 0.2362,-0.0141 0.3844,0.18342 0.4444,0.58911 0.6248,0.127 0.06,-1.32637 0.6878,-1.36167 0.261,-0.12347 0.4908,-0.0284 0.6883,0.27853 0.8396,2.16253 0.3491,4.25448 0.6666,6.40995 l 0.3633,0.007 c 0.1023,-1.06892 0.099,-2.14113 0.2507,-3.20652 0.1622,-2.27189 -0.1555,-4.86875 0.3348,-7.11947 0.056,-0.3175 0.1941,-0.4798 0.4093,-0.4904 0.053,0.94542 -0.3315,1.94732 -0.1587,2.86804 0.081,0.40919 0.2609,0.57909 0.5432,0.50849 0.1728,-1.11125 0.053,-2.28959 0.2258,-3.42201 0.067,-0.26105 0.057,-0.96657 0.4129,-0.99477 -0.056,0.52564 0.074,1.45302 0.801,1.24488 0.3387,-1.01246 0.049,-2.30353 -0.1519,-3.33364 -0.4304,-0.30692 -0.5256,0.53973 -0.6878,0.77256 -0.5538,0.34572 -0.9916,-0.14807 -1.556,-0.11627 -0.4728,1.08655 -0.9804,2.5857 -1.9999,3.27008 -0.4868,0.20462 -1.0866,0.18363 -0.8997,-0.52193 0.4551,-1.01952 0.8256,-2.00367 0.7162,-3.1502 -0.4691,0.0494 -0.7625,0.91357 -1.2386,0.48318 -0.3668,-1.75605 -1.6882,-3.05772 -2.2356,-4.68654 z m -17.9746,0.19069 c 0.1372,0.008 0.1962,0.13405 0.1762,0.37879 -0.3704,0.20814 -0.5399,0.11993 -0.508,-0.26459 0.139,-0.0807 0.2498,-0.1192 0.3318,-0.1142 z m 32.23889,2.21744 v 0 c 0.027,0.004 0.057,0.0162 0.089,0.0382 0.1936,0.43743 0.1021,1.10062 -0.05,1.54512 -0.4202,0.24806 -0.456,-1.63747 -0.04,-1.58336 z m -37.46649,1.77301 c 0.05,-0.006 0.1049,-10e-6 0.1649,0.0212 -0.4375,1.82033 -0.9348,3.54212 -0.7302,5.44359 l -0.2331,0.004 c 0.081,-1.56632 -0.3101,-2.97428 0.2155,-4.51239 0.1019,-0.27782 0.2309,-0.91451 0.5829,-0.95601 z m -7.368,0.32815 c 0.034,-0.003 0.07,-0.004 0.107,5.3e-4 -0.099,0.89957 -0.7763,1.59829 0.402,2.06395 0.3528,-0.21872 0.6173,-0.76913 1.0547,-0.71623 0.6703,0.0529 0.8435,0.6031 0.9245,1.1746 0.2188,2.53648 -0.4515,5.14349 -1.5663,7.40834 -0.5045,0.85018 -1.5517,0.6 -1.5027,-0.416 0.3245,-1.43934 0.6665,-2.87531 0.9699,-4.3217 0.2681,-0.85018 -1.0162,-1.15698 -1.5947,-1.35806 -0.4939,-1.02306 0.1804,-1.62979 0.4237,-2.60346 0.1786,-0.38364 0.2762,-1.18296 0.7819,-1.23196 z m 10.1968,0.83199 v 0 c 0.4072,0.0253 0.2883,1.2576 0.1162,1.47588 -0.4903,0.15523 -0.388,-1.24175 -0.2046,-1.46399 0.032,-0.01 0.061,-0.0139 0.088,-0.0119 z m -1.0904,0.34365 0.4367,0.0103 c 0.014,0.61736 0.036,1.23103 0.036,1.84485 l -0.4837,0.0109 c 0.025,-0.62442 0.025,-1.24163 0.011,-1.86604 z m 6.2193,0.18655 -0.261,0.078 c -0.2328,0.18345 -0.868,0.57843 -0.6987,0.93121 0.3633,0.15875 1.9087,-0.75171 0.9597,-1.00924 z m 7.1892,0.0558 c 0.044,-0.002 0.09,-0.002 0.138,0.001 -0.092,0.55386 -0.7197,0.93132 -0.8961,1.48518 -0.4375,1.29115 -0.3984,2.81482 0.1943,4.0566 -0.9817,-0.75143 -0.8576,-1.96831 -0.9916,-3.06545 h -0.3246 c -0.137,1.13595 -0.07,2.26127 -0.056,3.39721 l -0.2858,0.0951 c 0.1091,-1.34055 -0.1868,-2.76571 0.1271,-4.06746 0.2858,-0.29986 0.7089,-0.46921 0.9276,-0.81493 0.387,-0.47294 0.5136,-1.05417 1.1674,-1.08727 z m 18.36629,0.70642 0.353,0.17621 c 0.2475,1.22061 0.734,2.17664 0.2754,3.43958 -0.081,0.3175 -0.4835,1.4852 0.2326,1.24179 0,-0.60679 0.1236,-0.9028 0.3529,-0.8816 -0.12,0.89607 -0.078,1.78148 -0.064,2.68459 -0.01,0.61031 -0.3748,1.18166 -0.3498,1.78491 0.063,0.55386 0.2363,1.09021 0.3421,1.63349 l -0.4475,-0.0145 c -0.088,-1.46755 0.032,-2.95266 -0.042,-4.41316 -0.5997,-1.16769 -0.3425,-2.3281 -0.1343,-3.55224 -0.081,-0.71261 -0.3067,-1.41824 -0.5184,-2.0991 z m -44.32179,1.52652 c 0.039,1.43933 -0.1208,2.88219 0.01,4.31446 l -0.2367,0.004 c 0.1372,-1.43227 -0.018,-2.87875 0,-4.31808 z m 42.1064,0.23719 -0.3353,0.0139 c -0.3352,1.18534 0.014,2.42014 -0.5008,3.52434 -0.046,0.98072 -0.085,2.15913 0.095,3.11867 l 0.3457,-0.0248 c 0.1768,-0.99483 -0.045,-1.98242 0.1768,-2.96313 0.1866,-1.19239 0.2716,-2.46253 0.2185,-3.66903 z m 0.2786,0.70228 v 5.3e-4 c -0.025,1.02307 -0.1517,2.14108 0.021,3.14297 l 0.3565,-0.0315 c 0.1096,-0.97367 0.095,-2.13458 -0.021,-3.10472 z m -41.8998,0.1199 0.2372,0.004 c -0.074,1.3335 -0.106,2.66678 0.01,4.00028 l -0.2713,-0.004 c 0.113,-1.3335 0.1048,-2.66677 0.024,-4.00027 z m 22.7935,0.62063 c -0.078,0.4198 0.342,2.00423 -0.2119,2.03243 -0.1094,-0.635 -0.2325,-1.27729 -0.2785,-1.92288 z m -100.6869,0.0253 a 105.59818,105.59818 0 0 0 0.7663,3.15485 105.22242,104.34837 0 0 1 -0.7663,-3.15485 z m 107.8094,1.77405 0.275,0.0284 c 0.5075,0.96661 0.2753,1.85886 0.5575,2.87838 0.1835,0.5962 -0.2332,1.13966 -0.2082,1.77819 l -0.2155,0.0315 c 0.2963,-1.61925 0,-3.15017 -0.4088,-4.71651 z m -7.9891,0.32711 c 0.051,-0.01 0.1125,-5.3e-4 0.1855,0.0326 0.4409,2.43064 2.3319,4.10282 2.8329,6.45232 l -0.1943,-0.0563 c -0.6209,-1.96496 -2.2718,-3.16814 -2.928,-5.13664 -0.1235,-0.2346 -0.2552,-1.22511 0.1039,-1.29191 z m 17.5637,0.3111 v 5.2e-4 c -0.035,1.03717 -0.032,2.08513 0.021,3.12229 h 0.3281 c 0.061,-1.03364 0.096,-2.08504 -0.01,-3.11867 z m -16.448,0.0584 c 0.2778,-0.003 0.3289,0.17679 0.1529,0.53795 -0.388,0.0564 -0.4833,-0.11986 -0.2858,-0.52555 0.049,-0.007 0.093,-0.0119 0.1329,-0.0124 z m -2.3493,0.39119 v 0 c 0.053,0.006 0.1257,0.0339 0.2197,0.0868 0.2575,0.73025 0.7513,1.37928 0.896,2.13423 -0.4904,0.14109 -0.4057,-0.88531 -1.0795,-0.99115 0.035,1.26648 1.3191,2.15213 1.404,3.44682 l -0.2397,0.0527 c -0.7479,-0.76553 -1.3656,-1.67541 -2.0076,-2.53266 -0.2152,-0.61031 0.4271,-0.76225 0.8433,-0.96687 0.1108,-0.30559 -0.4109,-1.2758 -0.037,-1.2299 z m 16.2719,0.2527 -0.3457,0.0527 v 5.3e-4 c -0.2046,0.97367 0.149,2.09887 0.138,3.10782 -0.021,1.30527 0.2397,2.56468 0.2857,3.86643 0.6632,0.06 0.3919,-0.9986 0.4129,-1.39371 -0.1729,-1.61572 0.2147,-3.28091 0.2047,-4.9072 l -0.3178,0.0176 c -0.011,0.43392 -0.021,0.8679 -0.032,1.30535 l -0.3105,0.0176 c 0.01,-0.68439 0.099,-1.40736 -0.035,-2.06705 z m -31.6032,0.13952 c 0.149,0.005 0.2682,0.13342 0.3612,0.38655 0.4904,1.03011 -0.2612,2.33222 -0.4341,3.37292 -0.1477,1.23118 -0.091,2.5293 0.064,3.76049 0.1976,0.57503 0.3602,1.10398 0.3602,1.72134 0.8364,0.13406 0.2817,-0.79004 0.9203,-1.0511 l 0.5292,0.25063 c 0.127,1.34761 0.4589,2.6455 0.7023,3.97547 0.7091,0.21167 1.651,0.0742 2.1978,0.59273 0.4551,0.39858 1.0372,0.65646 1.3089,-0.0915 -0.2927,-0.5468 -1.235,-0.50833 -1.7394,-0.86816 -0.2434,-0.63853 0.2151,-1.11482 0.8677,-1.07952 1.1007,0.0176 2.4131,-0.17632 3.4432,0.24701 0.575,0.37042 0.339,0.74778 0.279,1.29811 0.8607,0.30339 1.4427,-0.22225 2.2929,-0.18345 0.688,-0.0706 1.2592,0.30062 1.9436,0.29663 l 0.042,0.21135 c -0.6491,-0.0599 -1.2558,-0.14793 -1.8872,0.092 -1.905,0.39863 -3.7607,0.65593 -5.7222,0.62063 v 0.339 c 2.9635,0.36336 6.0854,-0.0177 8.9887,-0.61392 l 0.01,0.23306 c -1.2488,0.1517 -2.4587,0.57123 -3.7181,0.70177 -1.7392,0.17639 -3.5104,0.20819 -5.2566,0.14469 -0.1235,0.4445 0.7443,0.5186 1.03,0.63149 2.413,0.46214 5.0556,0.0244 7.3804,-0.70229 0.6985,-0.19755 1.7038,-0.74772 2.3952,-0.35966 -0.025,1.02305 -1.824,1.55605 -2.6107,1.88412 l -0.024,0.26768 0.571,0.0708 c 2.0461,-0.78669 3.7326,-2.54348 5.0167,-4.27209 0.3916,-0.52212 0.3458,-2.02169 1.2842,-1.7818 -0.081,0.96661 -0.8431,1.7006 -0.956,2.69544 l 0.2361,-0.0176 c 0.3599,-0.80786 0.7268,-1.61233 1.062,-2.42724 0.1587,-0.25048 0.2967,-1.11848 0.7235,-0.88212 0.046,0.96308 0.6628,1.53501 0.1689,2.45928 -0.7443,1.62279 -1.8342,3.57672 -3.4323,4.47983 0.063,-0.56797 0.2962,-0.63487 -0.4093,-0.72657 0.2575,-0.82198 0.836,-1.42524 0.91,-2.3213 -0.3704,0.0494 -0.6101,0.50811 -0.8888,0.73742 -1.5099,1.3335 -2.9351,2.63153 -5.1082,2.08825 -2.2578,0.62794 -4.452,1.07622 -6.7733,0.33538 -1.2347,-0.51153 -2.5224,-0.79754 -2.5895,-2.39211 -0.6949,-0.47978 -1.7074,-0.33152 -2.36,-0.79013 -0.4094,-0.33514 -0.06,-0.82867 0.035,-1.22731 0.2117,-0.57856 0.028,-1.30225 0.014,-1.91255 -0.8537,0.35983 -1.072,0.064 -1.5942,-0.59221 -0.1694,-1.44287 -0.017,-2.9214 -0.1374,-4.37131 -0.4375,0.0317 -0.5151,0.91738 -0.7726,1.22783 -0.4445,0.75142 -1.2385,2.01788 -2.2686,1.40405 -0.1728,-0.635 0.3811,-1.34386 0.2506,-1.98592 -0.4975,-0.13758 -0.9384,0.67366 -1.3652,0.91002 0.328,-0.95956 1.2768,-1.71085 1.8835,-2.51871 0.8362,-0.60678 0.5964,0.67703 0.5824,1.10742 l 0.2114,-0.0739 c 0.3457,-0.91722 0.6458,-1.84875 1.0232,-2.75539 0.3457,-0.81491 0.4269,-1.79202 0.8961,-2.5399 0.022,-0.005 0.043,-0.006 0.062,-0.006 z m 23.7009,0.65836 c 0.025,0.002 0.051,0.008 0.078,0.017 0.2822,0.83961 0.5398,1.70755 0.755,2.56832 -0.2293,-0.24694 -0.4307,-0.41294 -0.6,-0.49764 -0.063,0.29986 -0.1801,0.45875 -0.3529,0.47645 0.056,-0.762 -0.5292,-1.46028 -0.2646,-2.14818 0.08,-0.29635 0.2094,-0.4337 0.3845,-0.416 z m 3.6411,1.42834 c -0.4692,0.84668 -0.9914,1.52731 -1.1643,2.51509 l -0.462,0.092 c 0.078,-0.52917 -0.039,-1.24214 0.2253,-1.70428 0.4974,-0.27164 0.9529,-0.5606 1.401,-0.90279 z m -5.5351,0.54312 c 0.4763,0.0141 0.6702,0.48703 0.91,0.82217 0.6386,1.03715 1.0589,2.16583 1.1219,3.38998 l 0.3209,0.0212 c 0.1129,-0.81844 -0.1059,-1.55919 -0.247,-2.35645 l 0.2543,-0.007 c 0.6455,0.94897 0.7021,2.40583 0.4093,3.49591 -0.12,0.27517 -0.1945,1.16062 -0.6496,0.95601 0.2928,-1.56279 -0.5711,-2.43748 -1.1638,-3.75687 l -0.2857,-0.0104 c 0.1058,0.91722 0.3669,1.77411 0.2749,2.7125 -0.7691,0.20108 0.035,-1.30863 -0.5928,-1.27693 0.01,0.32455 -0.028,0.63868 -0.1059,0.94207 -1.3048,0.32454 -1.9151,-1.86985 -1.3648,-2.77296 0.2611,-0.85022 0.6207,-1.02993 1.4568,-0.78652 0.1834,-0.41627 -0.2535,-0.94566 -0.3385,-1.37252 z m -6.9494,1.04851 c 0.4964,-0.0398 0.813,0.44602 1.1627,0.83871 0.4196,0.66323 1.1263,1.23494 0.4031,1.98283 -0.2293,-0.06 -0.4596,-0.11984 -0.6889,-0.17984 0.1166,0.56092 0.3569,0.92397 -0.021,1.45314 l -0.1902,-0.0103 c -0.4481,-0.99836 -1.5629,-1.55215 -0.7374,-2.6634 -0.085,-0.42687 -0.3174,-0.86127 -0.3034,-1.30225 0.1363,-0.0729 0.2601,-0.10985 0.3747,-0.11886 z m 20.4323,0.88109 c 0.2434,0.004 0.4836,0.0214 0.7235,0.0496 0.4198,0.99836 1.2662,2.44827 0.7653,3.52071 -0.3175,1.01953 -0.4235,1.96837 -1.0656,2.86442 -0.3245,0.38101 -0.8568,0.56463 -1.1637,0.96325 -0.374,0.42335 -0.5822,0.98782 -1.1219,1.18185 1.2908,-2.14489 1.4179,-4.43795 1.3829,-6.87917 0.3034,0.007 0.4691,0.15841 0.4971,0.45475 0.261,1.55575 -0.3423,2.84736 -0.4904,4.33255 0.2293,0.0776 0.4306,-0.0428 0.5999,-0.3638 0.695,-1.15359 0.5498,-2.85389 0.4868,-4.14858 0.014,-0.75848 -0.5219,-1.26651 -0.6139,-1.97559 z m -42.8728,0.29662 v 5.3e-4 c 0.3669,0.16227 0.416,0.78297 0.617,1.11104 0.1835,0.56797 0.9627,0.49018 1.2449,0.96997 0.039,0.29632 0.075,0.58941 0.1137,0.88573 0.4022,0.007 0.8075,0.007 1.2097,0.007 0.455,0.26811 0.5434,0.96667 0.8609,1.38648 0.7232,0.14464 1.5135,-1.13249 2.1766,-0.71623 0.3316,0.64559 0.2749,1.49557 0.6806,2.08824 0.4586,0.26105 1.2452,0.27897 1.3302,0.90692 -0.029,0.71614 -0.36,1.35799 0.014,1.98593 0.3916,0.63148 1.4253,0.42325 1.9544,0.89245 0.4904,0.62088 0.7446,1.29124 1.4325,1.75338 1.3653,0.93839 2.9877,1.38278 4.6317,1.46038 1.0759,0.0388 1.9721,-0.29635 3.0128,-0.10232 -0.2787,1.77095 -0.3846,3.52452 -0.4904,5.30252 -0.3105,2.74461 -0.7511,5.4787 -1.3049,8.18451 -0.06,0.61383 -0.092,1.26296 0.028,1.87327 1.3439,2.19075 1.5311,4.85028 2.6106,7.24917 0.1834,0.61031 0.7972,1.37606 0.6455,2.00401 -0.5256,0.19755 -0.9736,0.0776 -1.464,-0.14469 -2.3213,-0.98425 -4.6107,-2.37406 -6.304,-4.26848 -2.6282,-2.84337 -5.0234,-5.85978 -7.0766,-9.14414 -1.531,-2.01436 -3.0096,-4.06039 -4.4948,-6.10299 -1.2982,-1.63336 -2.2786,-3.53149 -2.9983,-5.48235 -1.3158,-3.17148 -2.413,-6.79451 -2.0955,-10.2588 0.194,-0.45507 0.8468,-0.63471 1.263,-0.84285 0.8008,-0.31397 1.5699,-0.76556 2.4024,-0.99838 z m 56.94171,0.37724 c 0,0.7232 0.64209,1.0652 1.12188,1.49913 1.06892,0.82197 2.20832,1.95445 3.61942,2.03915 l 0.0279,0.28939 c -0.45839,0.004 -0.9135,-0.0176 -1.3684,-0.0563 0.4092,0.66674 1.47436,0.85716 2.16577,1.13585 0.7126,-0.24694 0.21884,-0.74797 -0.26098,-0.8785 0.187,-0.17988 0.36004,-0.35968 0.51884,-0.54312 -0.64561,-0.52917 -1.67941,-0.37378 -2.34611,-0.8077 -1.0654,-0.82197 -2.16593,-2.30392 -3.47834,-2.67787 z m -61.95641,0.57929 c -0.9221,-0.0441 -1.8891,0.97469 -1.9141,1.80196 0.4233,0.35983 1.0656,-0.57506 1.556,-0.67386 -0.3563,0.59619 -0.9741,0.86099 -0.586,1.63711 0.381,0.007 0.9382,-0.28911 0.9772,-0.70539 0.1058,-0.61736 0.4835,-1.35512 0.3565,-1.97249 -0.127,-0.0533 -0.2579,-0.0813 -0.3896,-0.0873 z m 31.3257,0.0486 c 0.1447,-0.003 0.2949,0.0163 0.4501,0.0569 0.3916,1.24178 -0.2861,2.74454 -1.0728,3.70055 -0.321,0.3281 -0.7372,0.79705 -1.2418,0.72295 -0.1939,-0.36336 0.4201,-0.74065 0.5788,-1.0511 0.628,-0.94543 0.7618,-2.26131 0.8677,-3.35845 0.134,-0.0441 0.2734,-0.0678 0.418,-0.0708 z m 21.39819,0.36691 h 0.2573 c 0.9525,1.2065 0.5011,3.33755 -1.2593,3.55275 -0.3069,0.94897 -0.6911,1.80271 -1.3508,2.56471 -0.36339,0.0847 -0.73379,0.11963 -1.11829,0.10903 0.3528,-1.45345 0.3382,-2.57511 0.2253,-4.06383 l 0.3142,-0.0636 c 0.071,1.3335 0.053,2.56484 -0.2398,3.87366 l 0.2822,0.0703 c 1.01239,-0.76553 1.49619,-1.9298 1.43919,-3.1998 0.2469,0.12348 0.494,0.24705 0.7374,0.37052 1.457,-0.6985 1.0125,-1.96493 0.7126,-3.21376 z m -21.41629,0.0977 c -0.025,0.002 -0.053,0.008 -0.082,0.0191 -0.2011,0.2293 -0.2824,1.29803 0.2361,1.11104 0.1819,-0.19172 0.2276,-1.15476 -0.1534,-1.13017 z m 31.65031,1.03508 c 0.151,0.56092 0.15475,0.98396 0.0697,1.55546 0.3034,0.26106 0.61762,0.51184 0.92811,0.76584 1.3793,0.35983 2.79381,1.70351 4.20491,1.71411 0,-0.51505 -0.0845,-0.91341 -0.66299,-1.0263 -1.2242,-0.27161 -2.33204,-0.80793 -3.42564,-1.40766 l -0.01,-0.25063 0.63098,-0.0424 c -0.5398,-0.47625 -1.10731,-0.95567 -1.7353,-1.30844 z m 0.99785,2.3213 c -0.4939,-0.0177 -0.71266,0.0985 -0.65268,0.35605 1.01251,0.79022 2.21517,1.37231 3.36519,1.93322 0.0776,0.30689 -0.58886,0.55742 -0.80048,0.38809 -1.0337,-0.34572 -1.90537,-1.29461 -2.94608,-1.50275 -0.28569,0.63499 0.72705,0.99486 1.13276,1.26297 1.29109,0.60678 2.69851,1.88736 4.08141,2.11666 -0.007,-0.77611 8e-5,-1.55242 -0.0279,-2.32853 -1.23121,-0.6879 -3.31261,-1.05802 -4.15221,-2.22571 z m 0.98755,-1.07487 c -0.0739,0.004 -0.15761,0.0251 -0.2496,0.062 0.0811,0.35608 0.30001,0.46562 0.66302,0.33538 -0.0529,-0.2778 -0.19122,-0.41069 -0.41342,-0.39739 z m -22.33401,0.42995 v 5.3e-4 c 0.3368,-0.0119 0.6223,0.51915 0.8754,0.70745 1.0266,0.94897 1.2384,2.25071 0.6987,3.52071 0.025,0.889 1.3371,1.16082 0.9808,1.94046 -0.7232,0.18344 -0.741,-0.69153 -1.0444,-1.14309 -0.4833,0.0282 -0.8641,0.0462 -1.3157,-0.16898 -0.2963,0.067 -0.4725,0.32064 -0.5255,0.75809 0.2116,0.28575 0.589,0.45175 1.1358,0.49765 0.088,0.3563 0.084,0.73032 -0.018,1.12189 -0.6526,0.13407 -1.1644,-0.61394 -1.4784,-1.08314 -0.2928,-0.72673 0.2369,-1.22437 0.1519,-1.90169 -0.8502,-0.067 -2.7407,0.77643 -1.9435,1.90531 0.2046,0.508 0.8391,0.69833 1.1637,1.15342 -1.263,-0.25753 -1.5875,-0.89593 -2.0743,-1.98954 l -0.3137,-0.0248 c -0.1936,0.61031 -0.046,1.33706 -0.028,1.97559 l -0.2506,-0.0284 c 0.018,-0.635 0.1416,-1.33704 -0.01,-1.9544 l -0.3565,-0.007 c -0.113,0.80434 -0.074,1.59819 -0.084,2.40605 -0.5821,0.20108 -0.2855,-1.25606 -0.3845,-1.59473 -0.1869,0.0423 -0.3736,0.0848 -0.557,0.12712 0,-0.63147 0.018,-1.25618 0.067,-1.88412 0.9525,-0.15875 1.1325,0.77619 1.9544,0.75499 0.5856,-0.47978 0.9565,-1.03684 1.6656,-1.35082 0.5927,-0.32809 1.3863,-0.47323 1.6862,-1.13998 0.448,-0.80786 -0.2752,-1.77078 -0.1447,-2.55747 0.05,-0.0264 0.099,-0.0388 0.1473,-0.0408 z m -48.256,0.71107 v 5.3e-4 c -0.5545,0.004 -1.2412,0.83632 -1.0759,1.36529 0.3633,3.82412 1.0794,7.5813 2.3353,11.21843 1.6863,5.11528 3.6797,10.3153 6.8301,14.71797 0.2962,0.44803 0.3314,1.32603 -0.4377,1.08262 -1.6758,-1.86973 -2.9631,-4.17689 -4.2013,-6.35 -0.1306,-0.33163 -0.3598,-0.46543 -0.6879,-0.39842 -0.1305,0.69144 0.01,1.28039 -0.8929,1.39681 -1.083,-0.11642 -2.1837,-1.02643 -2.8469,-1.86604 -1.2524,-1.55928 -2.6635,-3.04796 -3.7641,-4.72012 -0.2046,-0.27514 -0.3877,-0.7056 -0.7193,-0.83613 0.01,1.34054 0.8499,2.25421 0.5147,3.6618 -0.9101,0.55386 -1.3301,-0.60323 -1.771,-1.17823 -1.1748,-2.07789 -2.7762,-3.83097 -4.0002,-5.87354 -0.6316,-0.98778 -1.4501,-1.84506 -2.1663,-2.76934 -0.2504,-0.24694 -0.5607,-0.7833 -0.9664,-0.49403 -3.3197,2.3354 -6.6039,4.70233 -10.0542,6.85075 -3.2913,1.73214 -6.5089,4.36057 -10.005,5.89163 -2.0496,1.14652 -4.1731,2.16621 -6.258,3.24218 -0.3351,0.1905 -0.4094,0.44075 -0.2295,0.74414 1.1747,0.43391 2.4623,0.55733 3.6618,0.93483 5.2705,1.56985 10.3645,4.02547 14.6296,7.5215 l 0.2434,0.3421 c -4.1205,-2.02848 -8.1171,-4.75923 -12.361,-6.52312 -2.0462,-0.75847 -4.0674,-1.50613 -6.2229,-1.88361 -0.4198,0.23989 -0.5009,0.96632 -0.7513,1.37202 -0.2364,0.65969 -0.9209,1.37975 -0.9209,2.07119 1.9227,1.48167 3.5522,3.24178 5.2632,4.95628 2.5537,2.52707 4.9949,5.1642 7.3282,7.89358 a 104.51041,104.51041 0 0 0 8.3334,6.11384 c -3.0766,-4.71585 -6.4865,-9.22231 -10.2211,-13.42864 -1.3053,-1.70039 -2.896,-2.98101 -4.5082,-4.35684 -0.5856,-0.37395 -1.1787,-0.45143 -1.6056,-1.01234 1.0619,0.31397 1.9652,0.87821 2.759,1.64021 0.9172,0.65264 1.6687,1.34042 2.4412,2.1518 3.9194,4.34623 7.7647,8.74182 11.2184,13.47257 0.6586,0.89973 1.2878,1.81802 1.8971,2.74815 a 104.51041,104.51041 0 0 0 29.4162,12.67054 c -0.7737,-2.71413 -1.5219,-5.43156 -2.2127,-8.15454 -0.4162,-1.65805 -0.9772,-3.35821 -1.1359,-5.0586 v -5.3e-4 l 0.247,0.004 c 0.1094,2.15547 1.058,4.34235 1.5731,6.43785 0.7447,2.30048 1.479,4.61913 2.206,6.94427 a 104.51041,104.51041 0 0 0 1.0026,0.25632 c -0.033,-0.19294 -0.066,-0.38586 -0.094,-0.57929 l 0.2259,0.0145 c 0.058,0.21388 0.1203,0.42964 0.1813,0.64492 a 104.51041,104.51041 0 0 0 1.6051,0.4098 c -0.015,-0.50667 0,-1.0072 0.1855,-1.49242 0.2044,-0.10186 0.3882,-0.14896 0.555,-0.15296 0.7226,-0.0178 1.13,0.76877 1.5513,1.37356 0.1749,0.29117 0.3451,0.58517 0.5163,0.87849 a 104.51041,104.51041 0 0 0 19.7063,1.9234 104.51041,104.51041 0 0 0 51.90481,-13.95057 c 2.97357,-5.93063 7.3929,-11.35217 11.91143,-16.09255 1.6651,-1.66158 3.21366,-3.37306 5.06222,-4.82297 1.1571,-1.0795 2.36342,-2.02102 3.85919,-2.58898 0.11993,0.11289 0.21902,0.24672 0.29662,0.39842 -1.1571,-0.0459 -2.09896,0.95279 -2.97034,1.61954 -3.09388,2.76576 -5.90939,5.89816 -8.58348,9.06611 -2.91055,3.55767 -5.65984,7.38399 -7.87186,11.44323 a 104.51041,104.51041 0 0 0 24.24295,-20.01945 c -0.32922,-1.15729 -0.53787,-2.35229 -0.61235,-3.58634 -1.03365,-1.524 -2.69513,-2.84376 -4.02508,-4.08554 -1.6863,-1.52047 -3.52073,-2.83607 -5.37279,-4.14135 -2.96688,-2.22602 -5.96924,-4.40288 -9.04544,-6.48074 -2.7623,-1.88383 -4.6532,-4.24716 -7.59542,-5.80998 -3.47128,-1.60514 -7.19979,-3.10801 -10.52648,-4.98833 -0.79729,-0.42332 -1.51735,-1.57363 -2.35696,-1.73943 0.0738,1.65453 0.21487,3.22124 -0.0532,4.87929 -1.0513,4.29684 -2.28933,8.43126 -4.67413,12.20597 -0.2399,-0.0282 -0.45879,-0.23637 -0.6563,-0.63148 l -0.34933,-0.29301 -0.33176,-0.3669 -0.69403,0.0527 c -0.22219,-0.5962 -0.66358,-1.00568 -1.07278,-1.47485 l 0.69504,0.0811 c -0.23284,-0.381 -0.47984,-0.75852 -0.67394,-1.16065 0.6173,0.0176 1.16754,0.56422 1.35815,1.12499 v 5.3e-4 l 0.42682,0.21187 c 0.51502,0.19402 1.14668,1.23448 1.65468,1.06867 0.254,-0.38453 -0.16203,-0.93492 -0.50072,-1.12189 -1.25942,-0.7867 -2.35303,-1.86982 -3.55953,-2.75177 -0.2064,-0.18521 -0.4008,-0.27102 -0.5819,-0.25632 -0.06,0.005 -0.1197,0.0213 -0.1767,0.0486 -0.3103,0.54305 0.7926,0.9133 0.9979,1.39629 v 5.3e-4 l -0.7127,-0.0176 c 0.2258,0.36324 0.4516,0.72601 0.6843,1.08572 v 5.3e-4 l -0.6843,-0.0176 c 0.1376,0.22578 0.2855,0.45161 0.4372,0.67386 l 0.3003,0.26097 c 0.448,0.37737 0.7584,0.89607 1.40715,0.84697 0.18341,0.31045 0.37007,0.61757 0.55708,0.92449 -0.60682,-0.21167 -1.00213,-0.26066 -1.55243,0.13798 -0.1905,0.52564 0.8928,0.82505 0.8398,1.30483 -0.1234,0.22932 -0.282,0.31361 -0.476,0.25011 -1.0231,-1.10418 -2.1841,-1.99941 -3.3553,-2.9378 l -0.2749,-0.0248 -0.042,0.28887 c 0.7479,1.29116 2.427,2.22637 3.1326,3.53518 -0.3458,-0.0564 -0.6276,-0.20842 -0.8428,-0.45889 -0.8149,-0.83256 -1.6545,-1.62962 -2.5859,-2.33164 -0.7655,0.95602 -1.2985,2.04243 -1.7182,3.18896 0.2222,0.89958 1.2417,1.67944 1.6862,2.43086 l -0.077,0.25373 c -0.2717,-0.007 -0.5432,-0.0214 -0.8077,-0.0496 -0.4304,-0.39864 -0.7903,-0.85009 -1.2418,-1.21698 -1.4358,0.46919 -2.2757,2.30689 -3.2034,3.42873 -1.0444,1.54516 -2.53639,2.75532 -3.57349,4.27932 0.2998,1.11478 1.2522,1.92241 1.49919,3.02308 -0.38449,-0.0247 -0.51149,-0.83251 -0.79379,-1.0971 -0.3457,-0.37746 -0.6207,-1.77807 -1.2945,-1.48879 l -0.064,0.59272 c -0.6561,-0.22931 -1.3159,0.41998 -1.1043,1.06557 0.5821,1.37936 0.917,2.81845 1.3544,4.24367 l -0.356,-0.16898 c -0.2011,-1.34056 -0.6775,-2.81195 -1.2878,-4.02198 -0.2469,-0.14463 -0.4761,-0.035 -0.6878,0.33538 0.6209,1.47461 0.5294,2.9528 1.048,4.43797 -0.2046,-0.004 -0.332,-0.15179 -0.385,-0.45165 -0.2116,-1.09714 -0.183,-2.1591 -0.6733,-3.1998 -0.1094,-0.3281 -0.3282,-0.44801 -0.6563,-0.36691 0.1662,1.34056 0.2391,2.64235 0.1901,4.01113 l -0.4123,0.004 c 0,-1.08303 0.2043,-2.35669 -0.1344,-3.38326 -0.896,-0.41628 -0.8039,0.75828 -0.7689,1.2945 -0.187,-0.0212 -0.3112,-0.19737 -0.3742,-0.52193 l -0.2821,-0.0424 c -0.2117,0.85019 -0.071,1.8097 -0.06,2.68459 l -0.247,-0.0145 c 0.042,-0.76906 0.1269,-1.51985 -0.067,-2.2748 l -0.3457,0.0104 c -0.2894,0.67381 -0.017,1.46424 -0.3033,2.16627 -0.1623,0.37042 0.085,0.83247 0.1478,1.21698 -1.404,0.5256 -2.7729,0.94187 -4.2334,1.28055 -1.6721,0.67034 -3.2735,0.4268 -5.0198,0.64905 -1.0195,0.51154 -1.0479,2.0393 -2.0851,2.32854 0.1905,-0.38801 0.822,-0.88901 0.6102,-1.32292 -0.8183,-0.17988 -0.9415,1.11457 -1.4283,1.21337 0.1093,-0.94544 0.829,-1.29127 1.3017,-2.03916 0.1411,-0.45509 -0.3919,-0.81099 -0.727,-0.39119 -1.0689,1.06539 -2.0846,2.13436 -3.0159,3.3197 l -0.011,0.27853 c 3.6477,0.3422 7.4648,0.37041 11.0525,-0.44803 0.8361,-0.0952 1.6863,-0.0496 2.526,-0.0672 0.071,0.27517 -0.021,0.43751 -0.2786,0.49041 -0.9595,0.32453 -1.9226,0.67717 -2.9104,0.91002 -1.4005,0.26111 -2.9282,0.22961 -4.3393,0.31781 -0.2152,1.49576 -0.3743,2.9242 -0.9493,4.34237 -1.2134,0.82903 -1.3652,-1.49184 -2.2153,-1.87637 0.4797,3.39373 1.1186,6.75216 1.6619,10.1353 0.074,0.52564 0.2008,1.20995 -0.092,1.6862 -0.9031,0.40215 -1.2419,-0.44463 -1.5523,-1.10432 -0.762,-2.00731 -1.3617,-4.0923 -1.9684,-6.14898 -0.7868,-2.59293 -2.3916,-5.05864 -2.8784,-7.72563 -2.6388,-0.48683 -5.1365,-1.1257 -7.5778,-2.27221 l 0.06,-0.22893 c 1.3688,-0.9913 2.4237,-2.44133 3.5032,-3.72897 0.7726,-0.0141 1.2276,-0.12694 1.9968,0.0811 0.011,-0.59266 -1.2702,-1.08994 -1.7359,-1.35805 -0.7021,0.44802 -1.0723,1.44983 -1.8097,1.95078 -0.328,-0.0179 -0.6594,-0.0179 -0.9875,-0.0109 0.2646,-0.56444 0.6804,-0.99132 1.1214,-1.42523 0.2046,0.0423 0.4093,0.0849 0.6139,0.13074 0.3249,-0.31746 0.7622,-0.82203 0.2579,-1.20303 -1.2877,-0.97366 -2.6106,-1.83823 -3.6655,-3.08353 -3.0198,-2.91748 -5.655,-6.14173 -8.0821,-9.56014 -1.8274,-2.91395 -4.3426,-5.37273 -6.0819,-8.38192 -0.9595,-1.68275 -1.9053,-3.35119 -2.5579,-5.18211 -0.261,-0.56797 -0.289,-1.23135 -0.8429,-1.57355 0.2576,-1.16064 -0.688,-1.82735 -0.2682,-2.94917 -0.635,-0.0423 -1.1853,0.56786 -1.7322,0.85007 -0.8255,0.57504 -1.8518,0.67024 -2.6773,1.19942 0.1411,1.07597 0.6207,2.2086 0.8253,3.30574 0.8431,3.51366 2.8714,6.5474 4.0038,9.90585 -0.5504,-0.3422 -0.8609,-1.22397 -1.2665,-1.74253 -2.9845,-5.35165 -4.6916,-11.34183 -4.7166,-17.48368 v -10e-4 c -0.036,-0.008 -0.072,-0.0115 -0.1085,-0.0114 z m 65.72979,14.10508 c -0.069,-0.3239 -0.3517,-0.75264 -0.6976,-0.75965 -0.08,-0.002 -0.163,0.0186 -0.248,0.0682 -0.201,0.46566 0.5752,0.8149 0.9456,0.69143 z m 0,-1.06867 c -0.075,-0.2624 -0.1843,-0.40515 -0.3281,-0.42685 -0.086,-0.013 -0.185,0.0174 -0.2961,0.0915 -0.028,0.36328 0.1797,0.4765 0.6242,0.33538 z m -64.17379,-12.64781 c -0.069,0.006 -0.1482,0.0246 -0.2362,0.0563 -0.3528,0.127 -1.0018,0.32837 -0.7725,0.82579 0.4198,0.0882 1.273,-0.11993 1.3859,-0.58911 -0.045,-0.21171 -0.169,-0.31051 -0.3772,-0.29301 z m 3.8023,0 c -0.4515,0.0353 -0.73,0.30719 -1.0934,0.54002 -1.1147,0.762 -2.3461,1.33675 -3.6866,1.55546 0.2928,1.02307 0.215,2.10969 0.6454,3.0763 1.4076,-0.15522 2.7728,-1.19226 3.9052,-1.98954 0.2716,-0.20814 0.3638,-0.44451 0.2718,-0.71262 -1.3018,0.44097 -2.3531,1.66517 -3.7889,1.99678 0.1023,-0.35278 0.6139,-0.49421 0.8961,-0.68471 0.9561,-0.54327 1.9193,-1.18174 2.7765,-1.86966 0.092,-0.24694 0.1301,-0.51472 0.1091,-0.80047 -1.3088,0.65971 -2.5079,1.7142 -4.0742,1.98231 l 0.064,-0.21497 c 1.3441,-0.54328 2.5997,-1.26287 3.6933,-2.21537 0.1902,-0.13758 0.2822,-0.35661 0.2822,-0.66353 z m -1.5332,0.007 c -0.4962,-2.6e-4 -1.6054,0.52349 -1.5854,1.01958 0.4234,0.06 1.8628,-0.46554 1.6758,-1.01234 -0.027,-0.005 -0.057,-0.007 -0.09,-0.007 z m -1.5854,1.01958 c -0.3457,-0.13053 -1.7568,0.0702 -1.6051,0.61702 0.4692,0.31397 1.3511,-0.17958 1.6051,-0.61702 z m 66.40417,1.03818 0.0351,0.26097 c 0.77261,0.61029 1.71781,0.99458 2.49391,1.59783 0.10199,0.12347 0.0706,0.31401 -0.0987,0.57154 0.56801,0.49036 1.21007,0.85402 1.87328,1.19269 -0.032,0.20108 -0.0631,0.3988 -0.0951,0.59635 0.9349,0.2928 0.42709,-1.25956 0.57877,-1.73581 -0.75139,-0.6738 -1.85258,-0.92102 -2.68509,-1.51722 -0.6209,-0.30337 -1.41079,-1.00515 -2.1022,-0.96635 z m -19.76677,0.0315 c -0.3069,0.1658 -0.4159,0.38475 -0.3209,0.65991 0.4833,0.38806 0.9877,-0.67401 0.3209,-0.65991 z m -8.5312,1.41594 v 0 c 0.072,0.005 0.1518,0.0202 0.2408,0.0475 0.1125,0.67028 0.1055,1.33701 0.1235,2.01435 0.5962,-0.17992 0.7302,-1.4564 1.0971,-1.97146 0.2258,-0.0459 0.4022,0.0632 0.5292,0.33125 0.4163,1.32644 -0.5397,2.88618 -0.3034,4.33255 l -0.2186,-0.0104 c 0.039,-0.87489 0.038,-1.74657 -0.068,-2.61793 -0.4586,-0.0141 -0.596,0.88224 -0.8676,1.1927 -0.3563,0.46567 -0.7901,1.54482 -1.4816,1.44952 0.1764,-0.84314 0.7405,-1.34047 0.5747,-2.2965 l -0.2822,0.0109 c -0.6173,0.84667 -1.5662,2.26447 -2.7445,2.24327 -0.035,-0.23989 -0.067,-0.47583 -0.095,-0.71572 0.2222,0.0776 0.4444,0.15495 0.6666,0.23254 1.263,-0.74789 1.9155,-2.68456 2.4164,-3.98631 0.061,-0.18523 0.1972,-0.27102 0.4119,-0.25632 z m 27.56777,1.74098 v 5.3e-4 c -0.0175,0.76906 1.54549,1.04052 1.5875,1.68258 l -0.55758,0.0181 c 0.10938,0.25753 0.21831,0.51133 0.32761,0.76533 0.6491,0.23989 1.02317,0.49373 1.40769,1.07228 v 0 l -0.66972,-0.0956 c 0.0917,0.27164 0.18352,0.5433 0.27853,0.81494 v 0 l -0.66249,-0.0491 c 0.18701,0.6738 0.84624,0.64202 1.04026,1.28054 -0.32102,-0.11994 -0.6491,-0.20112 -0.97721,-0.24702 0.032,0.22225 0.0642,0.44491 0.0992,0.66715 -0.27519,0.12347 -0.55422,0.22224 -0.83301,0.30334 -0.5715,-0.37042 -1.04402,-0.81522 -1.54146,-1.27383 l -0.6243,-0.0181 c 0.98069,1.25589 1.30176,2.51175 2.60705,3.41839 0.381,0.23636 0.79341,0.7338 1.24852,0.75499 0.4586,-1.04775 0.9212,-2.10262 1.36218,-3.15743 0.0882,-0.60325 -0.62476,-0.56056 -0.86815,-0.96273 0.31038,0.0494 0.6105,0.0455 0.90329,-0.0145 0.0811,-0.52564 -0.81846,-0.6314 -1.01957,-1.15704 0.33872,0.0847 1.53453,0.96664 1.42523,0.10232 -0.65969,-0.68439 -1.53088,-0.61038 -1.6614,-1.75338 0.80071,0.0106 1.03351,0.95274 1.9296,0.88574 0.4091,-0.32103 0.43731,-0.92442 -0.046,-1.18546 -0.86439,-0.67028 -1.68304,-1.1253 -2.81895,-0.99477 -0.7126,0.1517 -1.26251,-0.92081 -1.93633,-0.85731 z m -1.12548,4.92114 c -0.046,-0.31397 -0.1836,-0.5322 -0.4129,-0.65215 -0.7197,0.0423 -0.1269,0.9485 0.4129,0.65215 z m 2.83649,-0.7121 c -0.2399,-0.50447 -0.76922,-0.81457 -0.98443,-1.30845 0.2822,-0.0882 0.4904,-0.233 0.63148,-0.43408 -0.35629,-0.10936 -0.71234,-0.22577 -1.06503,-0.34571 -0.0893,-0.33073 -0.50091,-0.9874 -0.90951,-0.9431 -0.028,0.003 -0.055,0.009 -0.082,0.0186 -0.2576,0.56444 0.45498,1.10088 0.99118,0.92449 -0.14459,0.19755 -0.356,0.33853 -0.6382,0.42323 0.10589,0.35983 0.39857,0.67038 0.60669,0.98082 v 0 l -0.6594,-0.0775 c 0.10232,0.24697 0.20466,0.49368 0.30697,0.74414 0.56449,0.0882 0.86453,0.80786 1.37253,0.77256 -0.046,-0.24342 -0.092,-0.49039 -0.13798,-0.7338 z m -29.12478,-3.44527 c -0.04,0.003 -0.083,0.01 -0.1318,0.0202 -0.187,0.40571 -0.088,0.57111 0.2961,0.49351 0.1636,-0.36115 0.1113,-0.53296 -0.1643,-0.51366 z m -4.4959,4.55838 c 0.029,-0.002 0.06,2e-4 0.092,0.006 0.1736,2.20116 -0.1093,4.43023 -0.01,6.64197 -0.1061,2.0955 0.1804,4.19481 0.039,6.27972 l -0.3177,0.004 c -0.3351,-4.19101 -0.4132,-8.18111 -0.1768,-12.3827 0.04,-0.35467 0.1646,-0.53691 0.3695,-0.54881 z m 30.33979,0.016 -0.2233,0.0139 0.014,0.22221 0.2223,-0.0176 z m -19.00459,4.63227 c -0.1764,0.45509 -0.4583,0.83239 -0.7229,1.23455 -1.0407,1.50989 -1.7396,3.33352 -2.3358,5.05861 -0.6844,2.10255 -1.3758,4.28637 -1.6862,6.47712 -0.2081,0.97366 -0.091,1.86269 -0.8852,2.58589 -0.5395,0.06 -0.5965,-0.90383 -0.5225,-1.27072 0.4269,-1.90853 0.9667,-3.84797 1.6935,-5.66478 0.9807,-2.69875 2.1344,-5.51467 3.8313,-7.84655 0.1587,-0.2293 0.3668,-0.4189 0.6278,-0.57412 z m -68.2165,5.19917 c 1.5097,0.34948 2.8253,1.90184 4.0246,2.84013 1.9085,1.97553 3.7854,3.98587 5.4612,6.16603 3.2667,4.15221 6.4381,9.01751 7.9586,14.10457 l -0.2046,-0.0708 c -0.9419,-1.93322 -2.0884,-3.76084 -3.0127,-5.70818 -3.1009,-5.83492 -7.2567,-11.27847 -12.1109,-15.75872 -0.6209,-0.5715 -1.3193,-1.00865 -2.0743,-1.37201 z m 40.0296,7.46156 -0.1798,0.4377 c -0.8608,0.44802 -1.7248,0.93803 -2.6526,1.22731 -0.092,0.38808 -0.2929,0.50118 -0.5963,0.33538 -0.042,-0.35628 0.1554,-0.46591 0.5963,-0.33538 0.7762,-0.73378 1.8799,-1.18171 2.8324,-1.66501 z m 0.025,0.93689 v 0 c 0.068,0.005 0.1441,0.0332 0.2279,0.0827 0.046,0.36324 -0.1516,0.46906 -0.5922,0.31058 -0.092,0.35982 -0.3213,0.47962 -0.6987,0.35966 -0.095,0.39165 -0.2961,0.50101 -0.603,0.32815 -0.049,-0.35985 0.1514,-0.46926 0.603,-0.32815 0.1058,-0.35649 0.3352,-0.47582 0.6982,-0.35966 0.06,-0.24034 0.1592,-0.37049 0.2987,-0.39119 0.021,-0.003 0.043,-0.004 0.066,-0.002 z m -59.3638,3.1688 a 104.51041,104.51041 0 0 0 2.0877,2.26136 105.22242,104.34837 0 0 1 -2.0877,-2.26136 z m 63.2897,0.49816 c 0.2928,0.0953 0.5787,0.21494 0.8609,0.35605 0.063,0.4057 -0.6455,0.73044 -0.8924,0.98444 -0.046,-0.38806 -0.1908,-0.64557 -0.4377,-0.77257 0.1516,-0.1905 0.3105,-0.38098 0.4692,-0.56792 z m -1.4785,0.57464 v 5.3e-4 0 c -0.095,0.27517 -0.2013,0.54951 -0.3106,0.82114 l 0.7018,-0.0951 v 0 c -0.5151,0.66675 -0.9844,1.10045 -1.757,1.45676 0.2787,-0.33161 0.5189,-0.66656 0.7199,-1.0511 v 0 c -0.4477,0.0352 -0.6596,-0.0635 -0.6346,-0.29972 0.2857,-0.44436 0.7898,-0.68433 1.28,-0.83251 z m 7.1231,0.12506 c -0.045,1.27642 1.1082,2.06288 1.9828,2.78587 v 0.22221 c -0.7938,0.13053 -1.3936,1.44996 -1.6758,2.13786 0.6738,-0.0917 0.8466,-1.17847 1.404,-1.35134 0.6069,0.48684 -0.3106,1.02954 0.5819,1.1777 -0.049,0.31397 -0.1446,0.73465 -0.522,0.78755 -0.2433,-1.48168 -0.9596,0.66304 -1.4464,0.74414 -0.5957,-0.42686 0.2858,-0.94559 -0.6066,-1.02319 0.1587,-0.69144 0.3494,-1.36934 0.4304,-2.07843 -1.1112,0.44803 -1.6935,1.76122 -2.6355,2.53732 -0.2363,0.28223 -0.8076,0.61044 -0.6806,1.02319 0.2998,-0.0247 0.5961,-0.0885 0.8889,-0.1943 0.2469,0.87489 0.6986,0.82924 1.4676,0.74104 0.5398,0.34572 1.6297,0.76164 2.1167,0.16898 l 0.1198,0.48369 c 0.4092,0.067 0.822,0.11229 1.2382,0.0982 0.4269,-0.67379 0.8329,-1.24865 1.5384,-1.6614 v -0.69092 -5.3e-4 c -0.381,0.22578 -0.7586,0.45535 -1.1255,0.70229 l 0.1163,-0.66353 c -0.2856,0.0917 -0.5713,0.18012 -0.8604,0.27182 v 0 c 0.3598,-0.66675 1.0725,-1.71795 1.7957,-1.95079 l 0.028,0.58498 c 0.4551,-0.30692 0.9064,-0.62361 1.3509,-0.94464 -0.1803,0.51153 -0.1656,0.76849 0.011,1.28002 -0.2857,0.56797 -0.8394,1.00559 -1.3157,1.41129 -0.074,0.71966 -1.1538,1.14318 -1.0092,1.77818 0.4304,0.28575 0.868,-0.31404 1.1043,-0.61392 0.7938,-1.18179 1.7744,-2.19407 2.8257,-3.14657 1.7921,-0.0988 3.6582,0.19762 5.4715,-0.0987 0.5855,-0.46568 0.5504,-1.44021 0.6774,-2.13166 -1.2243,-0.0529 -0.3385,1.33084 -1.2593,1.68362 0.092,-0.42686 0.4198,-0.90735 0.2646,-1.33067 -0.762,-0.3916 -1.9158,-0.0812 -2.7766,-0.18707 -2.2613,-0.23637 -4.4486,-0.42986 -6.5334,-1.42472 -1.0219,-0.25719 -1.9697,-0.93962 -2.9668,-1.12758 z m 18.7074,0.34003 c -0.1691,0.87489 -0.1657,1.85889 -0.039,2.7373 l 0.3525,-0.0346 c 0.099,-0.85725 0.2372,-1.85894 0.015,-2.69855 l -0.3281,-0.004 z m -0.7302,0.35037 c -0.1443,0.75494 -0.1373,1.50659 -0.1023,2.26859 l -0.2331,-0.007 c 0.05,-0.64206 0.046,-1.26316 -0.067,-1.90169 -0.7653,0.0811 -0.8323,1.35828 -0.7513,1.93683 -0.1905,-0.0564 -0.3143,-0.23663 -0.3773,-0.54002 l -0.2682,-0.0212 c -0.1446,0.5715 -0.021,0.99854 0.4021,1.41129 0.5644,-0.0247 1.1289,-0.29277 1.651,-0.4868 0.2822,-0.8008 0.1451,-1.81697 0.064,-2.65307 l -0.3173,-0.007 z m -2.2438,1.05213 c -0.2523,0.0185 -0.3622,0.3178 -0.3312,0.89503 -0.194,0.0423 -0.3065,-0.13405 -0.3385,-0.52916 l -0.2543,-0.0145 c -0.314,0.61736 -0.8079,1.67222 -0.7369,2.34249 0.8217,0.0494 0.7477,-0.59658 0.7617,-1.1963 l 0.2155,-0.01 c 0,0.28223 0.025,0.56095 0.081,0.83612 l 0.31,-0.004 c 0.2399,-0.68439 0.6668,-1.59785 0.4093,-2.31046 -0.042,-0.009 -0.081,-0.0118 -0.1168,-0.009 z m -1.8283,0.71572 c -0.033,-0.003 -0.07,0.002 -0.1116,0.0165 -0.247,0.38452 -0.5822,1.115 -0.3705,1.55598 0.4001,0.27119 0.9679,-1.53211 0.4821,-1.57251 z m -10.7409,1.31619 c 0.356,-0.0276 0.3496,0.51706 -0.1091,0.69764 -0.3739,-0.0282 -0.4377,-0.21886 -0.1943,-0.57516 0.1197,-0.0787 0.2214,-0.11647 0.3034,-0.12248 z m -64.748,2.1916 a 104.51041,104.51041 0 0 0 2.4613,2.18436 105.22242,104.34837 0 0 1 -2.4613,-2.18436 z"
       id="path2281" />
  </g>
</svg>
