<svg xmlns="http://www.w3.org/2000/svg" xmlns:xlink="http://www.w3.org/1999/xlink" viewBox="0 0 618 618"><defs><style>.cls-1{fill:#fff;}.cls-2{fill:url(#linear-gradient);}</style><linearGradient id="linear-gradient" x1="-743.16" y1="687.83" x2="156.66" y2="249.92" gradientTransform="matrix(0.55, 0.55, 1.46, -1.46, -195.96, 1003.14)" gradientUnits="userSpaceOnUse"><stop offset="0" stop-color="#d3161a"/><stop offset="0.23" stop-color="#e2640f"/><stop offset="0.42" stop-color="#ffcd0b"/><stop offset="0.45" stop-color="#fdcd0c"/><stop offset="0.48" stop-color="#f6cb0f"/><stop offset="0.51" stop-color="#e9c814"/><stop offset="0.53" stop-color="#d7c41a"/><stop offset="0.55" stop-color="#bebd22"/><stop offset="0.57" stop-color="#9bb529"/><stop offset="0.59" stop-color="#68aa31"/><stop offset="0.6" stop-color="#4fa534"/><stop offset="0.64" stop-color="#3e9937"/><stop offset="0.72" stop-color="#1b853a"/><stop offset="0.78" stop-color="#057e3b"/><stop offset="0.8" stop-color="#0a7e3f"/><stop offset="0.83" stop-color="#157f4a"/><stop offset="0.86" stop-color="#1f815f"/><stop offset="0.91" stop-color="#2a857d"/><stop offset="0.95" stop-color="#3789a2"/><stop offset="1" stop-color="#478dcb"/></linearGradient></defs><title>paul</title><g id="Layer_2" data-name="Layer 2"><g id="svg8"><ellipse id="ellipse3882" class="cls-1" cx="305.33" cy="306.17" rx="304.27" ry="301.74"/><path id="path3381" class="cls-2" d="M309,0C138.34,0,0,138.34,0,309H0C0,479.66,138.34,618,309,618S618,479.66,618,309,479.66,0,309,0Zm.84,9.62c165.32,0,299.34,134,299.34,299.33h0a299.37,299.37,0,0,1-76.5,199.4,40.22,40.22,0,0,1-3.25-9c-.7-2.4-.83-5.64-2.51-7.56-14-16.3-32.93-29.33-50.63-41.36-5.25-3.73-9.9-8.09-15-12-4.71-3.7-9.83-6.15-15-9-6.12-3.46-13.05-5.45-19.28-8.72a81.22,81.22,0,0,1-10.64-7.31c-3.88-2.05-10.2-1.43-12.72-5.36a25.15,25.15,0,0,0-6.46-5.53c-3-1.49-6.84-1-9.89-2.05-2.26-1.28-4.63-2.82-6.76-4.31-.49-1.11.55-2.61.74-3.75,1.1-2.9-.14-5.78.35-8.6,1.26-2.27,3.62-3.85,4.8-6.11,1.47-5.79,1.57-11.33,1.56-17.27-.09-2.07,1.31-3.88,1.23-5.88,0-1.43-1.93-2.48-1.72-3.84,4-2.13,3.8-5.24,3.5-9.26.09-2.9-2-5.1-1.64-7.94s.16-5.71.41-8.54c3.41-1.55,6.13-4.69,8.38-7.61,2.66-3.56,3.64-7.59,5.25-11.75,2.41-6.46,2.05-13.2,4.29-19.66,1-3.09.85-6.24,1.64-9.38,1.25-5.34.8-11.22.3-16.65a13.79,13.79,0,0,0-3.69-7.19c-2.47-1.83-4.8.19-7.47.11a12.23,12.23,0,0,1-2.1,1.44c1-3,3-7.21,6-8.54.63.14,1.26.3,1.89.46,1.9-1.29,2.43-4.65,2.74-6.79.45-5.85,1.41-11.89,1-17.74h-1.8c-.84,1.85,0,4.46-.22,6.51a39.44,39.44,0,0,0-7.37.14c.13-.61.24-1.24.35-1.86-1.87,0-4.73,1.9-5.51-.78a21.82,21.82,0,0,0,5.71-.09l-.14-1c-4-.58-8.57-.72-12.24-2.44l-.23-.62c5.86.74,11.44,2.58,17.43,2.76a2.88,2.88,0,0,0,1.67-1.81l-.59-.74c-9-2-17.82-5.22-26.88-6.68l-1,.39c-.15,1.1.7,1.51,2.57,1.23v.59c-2.25-.45-4.39.29-6.63.06-7.77-1.6-16.06-.92-24-1-9.12.93-18.2,2-27.24,3.6-5.18.2-11,1.24-15.85-.41-1.48-.39-3-.77-4.41-1.25-.09-.47.36-.73,1.37-.8.18-1.23-2.47-1.13-3.29-1.52-5.63-1.14-11.07-2.89-16.63-4.31-4.73-1.29-9.62-1.28-14.38-2.48-8-.58-16.17-.7-24.23-.8.24-.62,1-1,2.39-1.1,2.62-5.55,8-6.3,13.37-7.44,2.29-.73,5.93-1.19,7.29-3.34-.56-1.33-2.14-1.62-3.42-1.84-2.74-.33-5.49-.77-7.84,1-5.43,3.64-9.87,10.07-15.54,13.3-6.52.51-13,1.11-19.5,1.79-3.36-2.51-2.79-8.44-.39-11.55,1.94-2.8,1-5.42,1.39-8.57,1.46-3.77,5.66-6.29,7.58-9.51.94-2.31-.75-3.61-1.65-5.56h0a1.76,1.76,0,0,0-1.63-1.24,3.94,3.94,0,0,0-2.58,1c-2.79,2.45-3.87,6.56-3.92,10.15,0,1.81-1.94,3.26-2,5.05.07,1.95.59,4,.27,6-1.13,2.85-3,4.83-3,8.07-.26,2.08.71,3.83.83,5.83-.53,1-1.51,2-1.65,3.07,1.19-.18,2.37-.43,3.56-.62-.44,4.06-3.29,7.67-3.94,11.74a64.83,64.83,0,0,0-.82,13.91c.14,1.32,1.21,2.45,1.75,3.65-5.2-2.2-8.56-5.61-14.76-4.64-2.43.9-3,4.72-3.38,6.93-2.5,16-.15,32.65,4.3,48.1a86.08,86.08,0,0,0,6.55,12.42c2.13,3.41,4.93,6.13,9,7.1a13.64,13.64,0,0,1,.46,4.36c-.62,1.69-1.92,3.24-2.26,5,.42.73.82,1.46,1.2,2.2a32.8,32.8,0,0,0-.6,18.62c.32,1.06,1.12,3.32,2.57,3a26.2,26.2,0,0,0,.29-4.42c1.42,1.68,3.84,3.49,4.19,5.72.37,3-4.56,2.93-3.55,5.88.51,1.4,2.59,1,3,2.26-.73,3-2.36,6.55-2,9.75,1.67,2.53.72,5.11,1.62,7.8,1,.36,2.28,0,3.37-.12a22.56,22.56,0,0,0,2.58,4.94c.48,4.86,0,9.53,1.89,14.2.66,3,2.48,5.39,3.44,8.17-3.35,1.46-7,4.22-10.72,3-3.14-.52-7,1.71-8.88,4.22-2,2.79-5.23,2.93-7.79,5.22-2.68,2.6-5.33,5.47-8.39,7.61a148.05,148.05,0,0,1-16.45,7.57c-13.85,4.46-26.63,14.19-38.33,22.66-12,7.77-23.77,15.72-36.09,22.92-7.64,5.26-16,8.9-23.27,14.72a74.38,74.38,0,0,1-4.43,11.55A299.34,299.34,0,0,1,10.51,309c0-165.31,134-299.33,299.33-299.33ZM332.06,83.3a22.67,22.67,0,0,0-7.95,1.78c-3.67,0-7.24.14-10.83-.74-1.9-.52-3.22.42-4.78,1.31A27.87,27.87,0,0,0,297,98.93l-.66.14c.27-3.77,3-6.75,3.6-10.26-1.77-.18-3.32-.59-5,.31a43.79,43.79,0,0,0-9.6,7.33c-.82,1-2.05.06-3-.12-1.92.88-3.23,3-5,4.1-.65-.24-1.3-.48-1.95-.7-1.94.67-3.88,1.29-5.82,1.91-4.27,1.66-7.92,5.33-11.78,7.28-.83.66-1.17,3.08-2.27,3l-.39-2c-1.43.08-2.09,2.71-2.47,3.81-.81,3.44-1.95,6.8-2.57,10.27l-.63.11a29.46,29.46,0,0,0,.2-6.63c-.81-1.92-3.2-1.26-3.82.45-1,6.21-.12,12.76,0,18.55-1.17,2-6.87,1-7.89,4-.1,1.78,2.18,2.08,3.27,3.07-.32,1.23-1.86,2.06-2.66,3,.55.59,1.07,1.18,1.54,1.76-2.81,2.83-6.2,5-8.91,8-3.14,3.46-6.48,7.12-8.74,11.24-1.07,1.68-.54,3.89-.83,5.87-.87,1.51-1.89,2.8-2.21,4.57,1.13-.16,1.36-2.36,2.35-3.06,3-2.81,3.91-6.57,6.26-9.81A79,79,0,0,1,238.87,152c2.09-1.8,2.7-4.45,5-6.06.69-.67,1.81-1.27,2.16-2.19-1.63-.36-2.18-1-1.63-2.08,1.85-.24,3.76-.2,5.59-.57.89-.77,1.1-2.22,1.56-3.28.81.07,1.62.13,2.43.16a6.38,6.38,0,0,0,2.51-3.52,69,69,0,0,1,12.79-26.09c.88-1.06,1.54-2.15,2.88-2.67-1.8,4.67-4.61,10.58-3.88,15.66l1-.12c.8-4.23,1.44-8.36,3.4-12.26l.58-.12c-1.57,7.28-2.88,15.89-.43,23.09a2.12,2.12,0,0,0,1.5,1.7c1-.7,1.37-2.24,2-3.29,1.1-2.44,3.41-4,3-6.83-.67-2.16-2.1-3.68-2.1-6.08-.54-5.69,3.41-11.61,6.93-15.75-.69,2.66-2.59,4.48-3.45,7.08-1.12,3.35-1.92,7.62-.68,11,.58,1.25,1.54,2.9,3.19,2.33.51-1.75-1.11-3.77-.91-5.68-.26-8.68,5.66-17.55,11.61-23.46.77-.65,3.54-3,3.56-.63a54,54,0,0,0-5.87,21.82l2.66.27c-.94,3.86-.45,7.67-.7,11.59l.72,0c-.35-4.31-.53-8.44,1.13-12.53l1-.05c1.12,2-.88,4.67-.65,7,.12,1.47-.68,5,1.22,5.61.11-1.16.52-1.66,1.21-1.49a8.63,8.63,0,0,1,0,2.59,28.11,28.11,0,0,1-3.19,1.88c-.86,1-.68,2.77-1,4-2,.41-2.91-1-4.66-1.64a36.41,36.41,0,0,1-5.72-.12c-.3-1.39,2.23-1,3.09-1.59s1.68-1.63,2.67-2.24c.84.92,1.37,3.11,2.86,2.91-.58-1.91-1.7-3.59-2.25-5.53s-.45-4.15-.9-6.19c-1.28-1-3.22-.84-3.75.85-.63,2-.27,4.45-.32,6.59-1.28.26-3.07-.08-4.1.77-2.24,3.36-4.38,6.84-6.73,10.12l-.61.15a17.54,17.54,0,0,1-3.89-7.93c-.13-1.08-.55-1.73-1.24-2-3.38,2.26,0,8.74-.23,12-2.57.52-3.52,0-5.66,1.72-1.4-.56-2.64-2.61-4.13-2.46-.47,1.75,1.18,3.27.81,4.88-1.48.85-3.13-2-4.72-2a8.28,8.28,0,0,0-1.93,2.34,21,21,0,0,1-5,.81v.91l3.59.29c1,2.15-4.8,3.46-5.47,5.79,2.23,5.78-2.52,8.79-5.29,13,.1,1.25,2.23,1.15,1.47,2.53-3.7,4.59-7.64,9.31-10.26,14.61-1.82,3-4.83,5.24-6.72,8.21-.66,2,0,4.39-.49,6.49-.51,2.61-2.39,4.65-3,7.14-.09,1.73.18,4.39,2,5.16,3,.12,6-.75,8.94-1,3.27-.46,7.17-.57,10.15-2.08,4-2.91,6.91-7.12,10.91-10.1,1.07-1,3.31-2.17,2.87-3.91-.93-2.58-4-3.21-5.5-5.34,1.24-3.34,5.57-6.07,8.56-7.83,2.46-1.24,5.15-3.22,8-2.92a58.24,58.24,0,0,1,12.4,1.64c4.25,1.47,8.32,3.67,12.43,5.52,2.75,1.27,5,3.62,7.9,4.61a11.45,11.45,0,0,0-3.42-3.08c-5.85-3.67-11.86-7.53-18.58-9.46-3-1.05-6.15-1.44-9.08-2.55l-.28-.52c4.42.26,8.85.19,13.28.42.4-1.72-.42-1.75-1.67-2.56-4.09-1.77-8.94-1.75-13.13-2.9-.41-1.24-.72-2.51-1.15-3.74-1-1.08-2.78-1.37-4.17-1.9a1.81,1.81,0,0,1,.39-1.66q3.12-3.85,6.5-7.48c1.38-1.35.78-3.3.93-5.06,2.57,0,5.73.85,7.63-1.42,1.29-1.88,1.46-4.06,3.39-5.58,2.08-1.7,3.4-5.33,6.62-4.34,7.63,1.59,14.73,7.09,21.88,10.19,9.05,3.85,17.86,7.76,27.56,9.46,4.48,1.39,9.09,1.46,13.64,2.44,1.23.47,3.08-.43,2.7-1.91-1.8-2-4.84-2.33-7.29-3.61-4-2-8.49-4.16-11.58-7.41A163.28,163.28,0,0,1,322.81,132c-3.83-2.32-5.68-6.57-9.76-8.37a11.46,11.46,0,0,0-2.32-2.24c.19,1.2.81,2.43.2,3.59a3.22,3.22,0,0,1-4.8.64,22.26,22.26,0,0,1-5.81-9.18c-.29-1-.82-1.17-1.59-.59-.35,2.16-.37,4.4-.6,6.59l-1,0c-.82-3.55,0-7.18,1.1-10.56-1.21.42-2.52,1.81-3-.29,1.55-2.56,3.36-6.14,5.82-7.85-.36,5.87,1.51,12,3.58,17.41.81,1.7,2.05,4.74,4.42,3.11,1.15-1.88-1.73-3.75-1.17-5.29.64-.49,1.26-1,1.85-1.56-2.14-6.48-3.52-12.83-3-19.72,0-1.5,2-2.67,1.6-4.1-2.65.08-4.36,4.75-6.87,5.52.59-4.65,3.85-9.21,7.67-11.82,3.19-2.51,6.91.5,11-.52-1.53,2-3.81,3.13-5.36,5.12-2.6,3.24-4.69,7.25-4.33,11.53.12,2.36,1.9,4.7,4.51,3.75,0-1.93-2.1-2.44-1.65-4.67.58-5.1,4-10.93,8.82-13-.25.93-.5,1.86-.77,2.79l2-.71c.32,4-.56,8.14,1.12,11.72a22.73,22.73,0,0,1,.69,4.12c.45,1.37,1.56,2.35,2,3.74a3.41,3.41,0,0,1-1.87-1.5c-2.34-5.22-4.29-10.28-3.92-16.12l-.94,0a25,25,0,0,0,.76,10c1.57,6.46,5.55,11.48,7.47,17.72a2.39,2.39,0,0,0,1.49,1.92c.48-7,.94-13.51,3.8-20.07,2-4.5,5.83-8.86,10.52-10.62a3.46,3.46,0,0,1,2.76-.08l.09.9c-2.87,3-6.08,5.24-8.31,8.81-3.05,4.58-6.16,10.66-5.56,16.3.26,2.31,2.38,3.55,2.16,6.06.39,1.29-.62,2.9,1.34,2.63-1.59-4,.62-7.12,2.53-10.5,2.39-3.93,6.1-5.53,9.18-8.81,1.68-1.52,2.83-3.47,4.42-5.06-2.08,7-10,11.64-12.46,19-.8,2.88-1.59,5.51,0,8.3l1.26.09c.18-3,.46-6.42,1.9-9.16.34-.91.83-1.32,1.46-1.22-.61,3.21-1.9,6-1.52,9.35,1.45.35,1.69-.81,2.58-1.63a30.09,30.09,0,0,1,2.86-2.28c.77-1.12.47-5.82,2.12-5.5.42.85-.47,4.87.9,4.45-.46-8.14,3.19-15.15,5.14-22.39l-.73.07c-.81,2.18-1.41,4.37-2.42,6.48l-.8,0c1.18-5.91,3.63-11.19,6.32-16.51.35-.88,1.56-3.33-.28-3.26-1.6.74-2.36,3.18-3.42,4.55-1,1.89-3.21,1.24-4.76,2.3a28.7,28.7,0,0,0-8.52,11.46c-.53,2.31-1.9,6.42-4.29,7.31a33.36,33.36,0,0,1,8.74-17.9c1.79-1.58,3.3-3.17,5.88-3-2.49-4-8.74-2.46-12.62-2-.28-3.55-1.57-5.41-4.55-7.26a12.34,12.34,0,0,0-3.78-.64Zm.39,1.84a8.59,8.59,0,0,1,3.51.62c1.32.85,3.66,2.84,3.3,4.56-2.21-.34-3.22-2.4-5.82-1.8-5.08,1.24-7.7,6.72-8.34,11.5l-.71.08c.18-3.3-1.25-8.7,1.09-11.29l1.56.1c-.2-.75-.38-1.5-.55-2.26a12.07,12.07,0,0,1,6-1.51Zm-.31,5.76c1.67,1.47.25,3.75.07,5.57-.43,1-.16,4-1.84,3.69-.16-2.3.66-4.28,1-6.51l-.8,0c-2,3.86-1.93,9.21-2.55,13.46-1.81-.82-1.14-3.63-1.05-5.21C327.32,98.56,328.74,92.41,332.14,90.9Zm21.61,4.46a2.19,2.19,0,0,1,.36,0c-.61,2.63-3.22,4.89-4.63,7.2-1,1.08-2.6,4-4.22,3.71-.06-2.46,2.41-5.16,3.76-7.14,1.11-1.2,2.92-3.73,4.73-3.8Zm7.79.28c-.44,0-.36.43.24,1.27a24.18,24.18,0,0,1,11.16,6.92,78.49,78.49,0,0,1,9.21,13.76l-.07.79c-4.61,1-7.85,3.5-11.07,6.79l-.84.07a68.78,68.78,0,0,1-.76-14.69l-.93,0c-.66,6.38-.43,12.68-1.87,19-.1,3.21-2.77,6.44-1.82,9.48a8.22,8.22,0,0,0,3.38.91,29.37,29.37,0,0,1,7.4-14.16l.71-.2c-2.32,5.18-5.88,9.93-7,15.88a6.68,6.68,0,0,0,.38,3.66c1.67.78,2.11-.65,2.4-2,.71-5.85,2.94-11.14,5.68-16.3,1.55-2.53,3.06-5.75,6.39-6.09,1.24,2,3.23,4.23,3.86,6.49-9.4,4.26-14.53,12.85-17.44,22.36-.3,1.74-.31,5.1,2.32,4.47-.47-6.36,2.52-12.07,5.75-17.33a2,2,0,0,1,1.68-1.19c-2,4.93-5,9.21-5.3,14.86,0,1-.36,4.55,1.45,3.87A37.57,37.57,0,0,1,380.8,138a24.1,24.1,0,0,1,6.74-8.47c1-1,3.54.28,2.36,1.67-6.37,5.53-9.72,15.1-10.9,23.26,0,1.2-.83,4.52,1.36,4,.43-2.17.08-4.51.08-6.71l.74.09c0,1.16,0,2.31,0,3.47l.89,0a28.71,28.71,0,0,1,2.28-7.74c1.4-.29,1,3.21,1.69,4.13,3.16,6.27,8.3,11.4,10.91,18.11a20.91,20.91,0,0,0,3.31,5.9c1.59,3.69.89,8.78,1.19,12.74,1.89.3.82-3.87,1-4.95,0-6.49-1.91-12.17-4.39-18.06,2.38-5.94,2-12.15.54-18.28-.67-2.64-2.17-4.91-3-7.47,1.14-2.05,3.58-.43,5.45-1.47a6.39,6.39,0,0,0-.85-6.67c-5.68-7.3-11.26-14.64-17.17-21.76-3.06-3.44-6.38-7.25-10.25-9.78-3.06-2.11-7-3.11-10.62-4.2a2,2,0,0,0-.61-.13Zm-.46,2.94a3.43,3.43,0,0,0-1.39,2c-1.47,4.66-3.25,9.12-4.15,13.94s-2.52,9.6-1.67,14.41a2.08,2.08,0,0,0,1.14,1.2c-.89-10.45,2.68-21.8,6.07-31.59Zm3,3.27h0c-.75.09-1.19.86-1.58,1.61-2.59,6.23-2.83,12.46-3.65,19.06,0,4.3-.58,8.13,1.23,12.17a1.74,1.74,0,0,0,1.13,1.44c-.48-7.3-.73-14.33.29-21.6l.93,0a112.8,112.8,0,0,1,.06,15.6l.73,0a8.74,8.74,0,0,1,.46-5.18c1.12-3.23-.42-5.41-.5-8.49.12-2.74-1.95-4.16-.89-7l.95.08c.82,2.49,1.63,4.8,1.25,7.47l.72.07c-.7-3.05.75-5.29,1.05-8.21l-.68-.08c-.05.82-.12,1.65-.19,2.47h-.87c-.46-1.63-2.08-4.1-1.14-5.69q1.1-.41,1.2,1.53c1.56-.39,1.44-4,.29-5.15a1.39,1.39,0,0,0-.44-.12,1,1,0,0,0-.35,0Zm-24.72,2.8c-.31,2.62-1.91,4.88-2.42,7.5-.81,2.69-.66,5.36-.69,8.12-1.38.71-1.41-2.16-1.6-3,0-4.29,2-8.77,4-12.49Zm-23.86,4.13c1.39,7.71,6.31,15.2,10.94,21.37l1.76-.32a6.2,6.2,0,0,0,2.79,1.25l-.26-1.18c-5-5.58-10.18-11.79-13.22-18.69-.5-.79-.9-2.4-2-2.43Zm-6,0a20,20,0,0,0,8.48,16c1.61,2.77,4.29,3.56,6.42,5.79-.53-2.07-1.94-3.4-3.1-5.12a61.17,61.17,0,0,1-6.34-11.62l-.58-.25c-.55.72-.75,3-1.91,2.6-.88-2.36-1.49-4.81-2.37-7.16Zm-45.23.89A110.41,110.41,0,0,0,257,123.87l-.55.16c.53-2.3,1.16-4.58,1.64-6.9C258.39,113.92,261.5,111.08,264.22,109.71Zm-1.55,16.05c-1.43-.05-1.94,2.38-2.54,3.4-.64,2.57-.85,6.19,1,8.34.79,1.22,2.19,0,2.12-1.12-.1-3.52-.16-7-.29-10.57A1.11,1.11,0,0,0,262.67,125.76Zm-.44,2.73a24.76,24.76,0,0,1,.2,7.78l-.95.13a25.29,25.29,0,0,1-.24-7.81Zm128.54,3.57a1.82,1.82,0,0,1,1.16.6c1.07,1.49,3.5,3.67,3.31,5.58-1.77.23-2.54-2.63-4.58-2.44l.27,1.17c5.32,5.53,6.57,14.84,7.2,22.19l-.67-.15a52.22,52.22,0,0,1-5.62-10.11c-1.24-2.54-1.34-5.75-3-8-2.43-.74-4.22,1.23-4.85,3.38-.47.87-.54,2.77-1.67,3,.41-4.57,3.34-9.07,5.73-12.9.66-1,1.59-2.31,2.7-2.25Zm-3.66,10.83c1,2.93,1.27,6.14,2.11,9.15-2.54-1-.85-6-3-7.52C385.42,143.59,386.15,143.09,387.11,142.89ZM244.28,154.76l-.71.1c-4.52,4-8.42,8.89-12.5,13.34-.61.78-1.88,1.81-1.74,2.88,1.15-.14,3.75-.7,3.76,1.11a10.7,10.7,0,0,1-3.27,1.69c-.42,1.18.84,3,2.09,2.13,1.77-2.21,3.68-4.3,5.51-6.46,1.31-1.28-.43-3.29,0-5,1-3.61,7.24-5.86,6.89-9.84Zm-16.82,13.8a1.92,1.92,0,0,0-1,2.5C227.88,171.74,229.54,168.43,227.46,168.56Zm164,6.2c4.4,8.52,8.62,17.74,10.08,27.31a16.72,16.72,0,0,1,1.53-1.28c.21.83.6,1.29,1.18,1.38-.43-4.25-1.13-8.41-1.16-12.71l-.87.26c-.69,2.25.18,5.05,0,7.44l-.71-.17c-1-5.78-3.73-11.39-6.1-16.73-1-1.89-2-4.45-4-5.5Zm-167.09,3.55a4.35,4.35,0,0,1,1.6,1.31,3.41,3.41,0,0,1-2.58,2.55c0-1.1-.45-3.54,1-3.86ZM392,179c-.44,0-.75.36-.93,1.16a6.1,6.1,0,0,1-1.66-.36c-.05,4.22,1.74,7.72,2.71,11.72.89,3.6,2.26,7.05,3.1,10.66l-.68-.09c-.83-2.44-1.59-4.92-2.5-7.34l-.83-.09c.13,3.36,1.84,6.75,2.77,10,.38.79.73,3.27,2.05,2.6a7.31,7.31,0,0,1,.36-2.48c2.8-.79,1.79-3.13,1.92-5.36-.49-7-3.51-14.07-6.31-20.44ZM273.41,195a1.69,1.69,0,0,0-1.9,1.19c1.28,0,4.91-.8,4.93,1.21a9.1,9.1,0,0,1-2.75,1.32c-.28,1.17,1.76,2.5,2.29,3.58-3.45-1.05-5.7-3.3-9.58-2.9-.56,1.62,2.47,1,3.41,1.55,4.51,1.65,7.94,5.7,12.3,7.39-.31-2.46-3-3.22-3.67-5.54,2.61.77,4.4,3.2,6.91,3.94a9.27,9.27,0,0,1,6.93,2c.23.72.45,1.44.68,2.17a30.46,30.46,0,0,0,7.3,3.13c-.23-2-2.38-2.53-3.71-3.79-2.31-2.09-5.05-3.52-7.32-5.66a71,71,0,0,0-11.41-8.51c-1.16-.05-3-1-4.41-1.05Zm-11.55.65a6.35,6.35,0,0,1,1.07.08l-.07,1.34c-2.48.7-4.9,1.57-7.39,2.23a7.36,7.36,0,0,1,6.39-3.65Zm127.52.12a21.71,21.71,0,0,0,2.05,8.6c.72,1.31.26,2.45.21,3.84.63,1.92,2.36,3.37,3.33,5.18-1.81,0-3.54-.55-5.34-.62l0,1.39a25.46,25.46,0,0,0,6.68,4.52c.91-.56,2.16-3,1.86-4.08-1.7-3.28-3.91-6.22-5.32-9.67-1.23-3-3-5.79-2.68-9.11Zm-105.8.77c.35,1.7,2.27,3,3.46,4.18,6.41,5.34,13,10.32,19.79,15.22a2.11,2.11,0,0,0,2.07.12c0-1.32.3-2.37-.91-3.28-6.63-4.17-13.66-8.29-20-13-1.47-1.09-2.66-2.73-4.4-3.21Zm39.71,6c-1.49,0-1.4,2.76-1.88,3.93-1.16,3.54-.12,7.37-1.12,10.8-3.23.66-6.51.53-9.75,1.23l-.12.84c3.26.18,6.21.74,9.38-.21,10.06-1.2,20.49-3.74,30.51-3.52,7,0,14-.32,21,.09,1.61,0,3.46.45,5-.08l-.16-1c-6.43-1.4-13.28-1.18-19.84-1.46-9.12.27-17.66.21-26.45,2.58-2.69.22-6,1.23-8.54.62a3.17,3.17,0,0,1,0-2.66c.77-2.32.49-4.87,1.09-7.26,1.91-.44.93,2.53,1.05,3.59h.64c-.33-2.45.22-4.88-.1-7.31a1.77,1.77,0,0,0-.74-.17Zm-66.7,10.66c10,0,20,1,29.43,4.52,4.94,2.12,10.07,4.38,14.43,7.56,1.77,1.56,2.06,4.74,1.62,6.92A100.69,100.69,0,0,1,291.91,250c-1.8,2.54-2.71,5.07-6,6-7.8,1.81-15.47,1.25-23.63,1.32a93.16,93.16,0,0,1-19.4-4.39c-3.21-1-7.55-2.75-9.26-5.85-2.37-8-1.91-17.38-1-25.59,0-2.54,2.63-4.78,4.29-6.48,4.65-2.6,10.19-1.5,15.4-1.73,1.43,0,2.86-.06,4.28-.06Zm-22.4.34h0c-.26,1-1.36,1.75-2.14,2.42-1.4.09-4-1-4.71.63-.12,1.89,2.87.13,2.64,1.73-1.15,0-6.36-1.28-5.59,1a25.55,25.55,0,0,0,5.73.24c-.05,2-3.39,1.12-4.71,1.85-.83,2.19,3.39,1.23,4.55,1.51-.12.92.12,2.73-1.08,3-1.86.16-3.69.07-5.51.38l0,1a57.86,57.86,0,0,1,5.78.35c0,1.19,0,2.36,0,3.54-3.47-.25-6.92-.13-10.39-.08-.87-5.75.9-10.67,1.06-16.24,4.82-1.29,9.49-.79,14.44-1.26Zm22.21.89c-4.38,0-8.77.29-13,.38a9.23,9.23,0,0,0-8.53,5.16c-1.14,3.55-1.89,7.22-1.16,10.93.52,5.5-.63,11.63,2.57,16.59,8.69,5.59,19.76,8.28,30.05,8.14,4.56.39,9-.67,13.58-.38l0-.66c-7.91,0-15.67.26-23.47-1.31-5.45-1.19-11.19-2.42-16.27-4.74-1.58-.76-3.21-1.57-4-3.21-.7-7.1.23-15.11,3.58-21.48,2.78-3.09,6-6.51,9.68-8.44,4.69-.08,9.51-.36,14.15.43,4.64.48,9.13,0,13.63,1.55,2.82,1.05,6.32,1.61,8.71,3.45,3.68,3.91,6.57,9,10.58,12.61,2.26,1.26,3.83-1.05,3.95-3.08.26-2.86-2.05-4.58-4.27-5.83-4.33-2.23-8.05-4.84-12.75-6.23s-9.22-2.85-14.11-2.79a60.16,60.16,0,0,0-12.91-1.09Zm49.8,2.86a4.57,4.57,0,0,0-1.7.29c-.69,1.42,4.31,1.43,3.61.05a6.48,6.48,0,0,0-1.91-.34Zm53,1a80.44,80.44,0,0,1,18.21,2c4.23.66,7.93,2.48,11.74,4.32,3.63,1.44,4.09,6.23,4,9.6l-.81-.11c-.51-2-.66-4.27-1.58-6.07-3.86-3.64-9-4.86-13.94-6.08-2.63-.59-5.56-1.71-8.23-1.27-.35,1.94,2.58,2.62,3.76,3.74a111.7,111.7,0,0,1,15.12,14.85c.68.83,1.25,3.25,2.68,2.26,0-2.5-2.76-3.61.11-5.78,4,3.36,2.25,7.16,2.58,11.75.35,3.19-1.92,5.47-3.43,8.1-1.61,3.24-6.89,3.53-10,4.19-8.24,2.18-17.58,1.68-26.08,1.89-4,.17-7.66-.84-11.51-1.69s-7.32-3.26-9.95-6.06c-4-6.3-5.34-13.21-6-20.54-.18-1.38.38-3.63-1.07-4.41a20.43,20.43,0,0,0-5.35.29q-1.43-.63-1-1.65c2-.88,4.77-.15,6.84.22,3-2.32,5.1-5.21,9.06-6.22a3.29,3.29,0,0,1,1.25,1.26,10.16,10.16,0,0,1,3.47-.46c.55,1.94-3.45,1.86-4.59,2.17-.59,1.36,2.14,1.46,2.95,1.73,4.46.61,8.75,1.9,13.15,2.72,1.5.16,3.75.57,4.36-1.25a37.39,37.39,0,0,0-5.53-1.32l-.07-1a30,30,0,0,1,14.54,1.41c4.48,3.45,10,5.1,14.61,8.34,2.48,1,4.11,3.19,6.52,4.15a4.38,4.38,0,0,0-.91-1.66c-5.91-7.28-13.09-13.42-21.79-17.06l-.68.22a6,6,0,0,0-.56,3.62,19,19,0,0,1-3.68-.11c-.11-.7.4-1.1,1.54-1.22a11.47,11.47,0,0,0-1.11-2.18c-3-.75-6.45,0-9.56-.08-4.1-.18-7.63,1.58-11.78.6l.15-.8c3.79-1.52,7.6-1.52,11.6-1.72a94.23,94.23,0,0,1,11-.67Zm-28.1,2.22h0c-.54,1.72-3.78,2.16-5,3.74-2.24,2.74-5.61,2.85-8.85,2.28-.7-2.37,4.34-1.07,5.61-1.2l.11-.71a44.22,44.22,0,0,1-10.6-.26l0-.92c2.27-.18,4.52-.09,6.79-.14l0-.88a39,39,0,0,0-7.48-.11l0-.68c6.64.74,12.91-.59,19.45-1.12Zm-55.56,0a36.54,36.54,0,0,0-15.81,3.37c-2,1.05-4.89,2.8-5.33,5.22,1.79-1,3-2.8,4.79-3.83,3.52-2.21,7.26-2.92,11.19-4,2.49-.13,5,0,7.5,0v-.66h0c-.79-.06-1.57-.09-2.35-.09Zm126.65,4.74a3.89,3.89,0,0,0-1.65.31c-.67,1.56,4.18,1.34,3.54.08a6.25,6.25,0,0,0-1.89-.39Zm-131.59,1.63c-3.37,0-5.43,2-8.32,3.52-2.6,1.52-5.79,4-6.67,7,.31,1.35,2.52,2.31,3.68,2.9,1.54,0,1.76-2.48,2.2-3.58s2.29-2.14,1.63-3.22c-1.16-.7-2.91,1.27-3.82,1.95-1.13.92-.45,1.83-.38,3a1.74,1.74,0,0,1-1.37-2.7,16.93,16.93,0,0,1,8.57-5.29c-.28,1.29-1.82,2.17-1.36,3.49.75,2.82-.29,5.75,2.43,7.54.86.75,3.32.64,3,2.08a8.16,8.16,0,0,1-4.81-.76c-.06,2,4,1.19,5.3,1.06,1.31-1.84,3.64-1.34,5.08-3.06,2.18-2,1.71-6.62-1.29-7.61-2.12-1.09-3.84-.36-6,.09a1.66,1.66,0,0,1,1.27-1.46,26,26,0,0,1,7.09-.93c3.12,1,5.86,3.44,8.21,5.68l.08.73c-2.26-.32-3.71-3.72-5.95-3.71a3.3,3.3,0,0,0,1.1,3.82c2.28,1.22,4.29,2.48,6.86,1.21a11,11,0,0,0,2,1.48c-.74-2.31-3.3-3.94-4.83-5.77-3.63-3.45-7.6-7.71-13-7.45a5.53,5.53,0,0,0-.69,0Zm42.05,3.61h0a7.23,7.23,0,0,1,4.13,1.41c2.94,4.18,4,10.16,5,15.08a115.23,115.23,0,0,1,2.6,11.32c.84,4.82,3.06,9.8,3.06,14.7l.72,0a33.94,33.94,0,0,0-.9-6.73c-.13-2.19.08-4.32-.49-6.47-1.69-7-2.69-14.48-5.27-21.18l.87.72c1.47,4.15,2.78,8.39,4.4,12.48,3.22,6.89,9.6,10.3,16.59,12.36,8.45,2.13,16.27,1.19,24.89,1.22,7.17,0,13.92-1.92,20.84-3.11a10.26,10.26,0,0,1-.3,2,4.64,4.64,0,0,0,2.24-2.07c1.53-2.64,4.45-4.52,7.05-6,1.47-.7,4.3-1.6,5.63-.3.76,1.57,1.84,4.23,1,5.89a37.28,37.28,0,0,0-9.78,8.2c-1.75,2.15-3.5,4-3.66,6.95l.62-.25a40.16,40.16,0,0,1,12.33-13.65l.84.33c.47,4-1,7.64-1,11.6h-.7a44.14,44.14,0,0,0-.15-6.4h-.85c-.08,1.57-.13,3.14-.28,4.71-1.81.54-.8-2.55-1.05-3.56l-.7,0c.09,3.62,1.66,6.87,1.5,10.54.81,5.65-1.5,10.47-1.81,16-.08,4.48-1.52,8.91-2.57,13.26-1.44,5.28-5,8.21-8.44,12.17l-.54.11a31.11,31.11,0,0,1-1.87-3.63c.71-2.65.34-5.2.19-7.88-.07-1.09,1.44-1.67,2.13-2.32.21-3.78-1.48-7.74-1.76-11.53a9.35,9.35,0,0,0,3.78-7.15c-.64-2.62-1.25-4.91-.89-7.65h-.65a17.78,17.78,0,0,1-.27,4.55c-2,.64-.85-2.5-1-3.54l-.61.09c-.26,2.09-1.24,3.47-.1,5.51a3.19,3.19,0,0,1-1.82,1.43c-1,1.48,1.21,3.83.84,5.55-.41,4.81,1.38,8.89-.19,13.72-1.71.4-.27-2.61-2-2.3-.13,2.32.69,4.32,1,6.57-.38,2-1.12,3.06,0,5a16.59,16.59,0,0,1,1.33,13.32c-1.53,4.9,1.43,8.69.51,13.62-.56,1.95-2.91,2.8-3,5.15-.23,1.42.85,2.81,1.39,4.08-1.64,5.66-1,11.77-2.66,17.5-1.74.44-3.63-2-5.57-1.94-2.59-.72-4.41.8-6.77.94-.88-2-1.54-6-4-6.54,1.76,2.71,1.81,5.71,3.15,8.47,1.34.51,3.05-.55,4.43-.71,1.38,1,1.58.93,3.14.44,1.37.41,2.48,2,3.44,3-.69,2.46-2.67,4.87-3.66,7.35l-.66.05c-.25-1.11-.47-2.22-.64-3.34,3.64-.39,1.39-5.53-1.49-5.65-1.27.82-3.37,1.53-3.12,3.4.33,4.63,1.59,9.58.51,14.22a14,14,0,0,0,.34,5.72c-1.49,2.09-3.44,3.75-4.59,6.13-1.21,2-1,4.19-1,6.45l.7,0c0-1.78-.18-3.39.69-5,1.83-3.68,6.89-5.44,10.46-6.93A141.1,141.1,0,0,1,394,408.78c2.13,4.2,1.23,10,1,14.59-2.65,16.39-9.74,32.37-18.21,46.58A118.71,118.71,0,0,1,356,497.13c-7.82,7.14-17.35,12.66-26.94,17-7,2.25-15,2.38-22.31,1.71-7.38-2.22-14.65-2.71-21.58-6.3-10.35-4-16.28-11.62-23.2-19.76-8.89-10.15-16.18-21.05-24.12-31.91a100.34,100.34,0,0,1-13.19-25.75c-2.37-8.49-4-16.59-2.08-25.41,2.82-1.59,5.89-2.79,8.76-4.32,2.64-1.47,5.35,0,8-1.58-.41,1.47-2.13,3.07-1.79,4.55,3.08,1.83,8.06-1.91,8.84-5,.2-1.3-.14-1.93-1-1.92-1.79,1-2.42,3.7-4.73,3.76a17,17,0,0,0,.54-3.59c-1.91-.12-3.38.36-4.6-1.51-4.83-7.65-7.69-16.54-6.11-25.66h1c.82,3.61-.27,7.31,1,11,.36.88.38,3,1.76,2.7-.18-2.26-1.1-4.4-1.22-6.65.64-2.13,2.55-2,4.26-1.35.21-2.94-.71-5.5-1.39-8.29-1.83.56-.88,3.8-2.8,3.56-.64-2.16.35-3.7,1-5.67-1.91.43-.92,3.9-2.65,3.58-.14-1.19-.52-1.78-1.16-1.76-.53.63-.83,2.74-1.83,2.52-.9-2.58-1-4-4-4.86q-.6-2.44-1.24-4.88c0-4.37,2.55-7.45,3.31-11.4l.69-.07c.28,4.59-4.1,10-1.56,14.18,1.4.68,2.12,2.64,3.4,3.05,1.79-3.63,2.69-7.18,5.88-9.95,2.41-2.42,5.43-3.84,8.12-5.83l-.08-.79c-2.12-.73-4.46,1.72-6.66,1.82-.43-1.84,3.16-2.62,4.42-3.16-.93-2.1-3.83-.73-5,.71-.14,2,.14,3.95-2.43,4.32,0-6.94.52-14.63-1.57-21.31-1.49-.7-2.21.25-3.51.82-1.56-1.76-2.19-4.65-3.24-6.81a1.35,1.35,0,0,0-1.25,1.06c-1.33,3.49-2.56,7.73-1.85,11.46,1.07,1.78,2.72,2.63,3.14,4.73-1.53-1.29-3-2.71-4.45-4.05-1.2-2.9.72-6.67-.28-9.48a17.16,17.16,0,0,0-2,.32c.49-2.9,1.84-5.57,2.27-8.46-.41-1.87-1.37-3.76-1-5.66,1.25-2.84,2.92-5.35,3.81-8.38.26-1.92-.32-3.92-.28-5.87-1.17,0-1.2,2.16-1.8,3-.87,1.37-1.64,3.65-3.15,4.34-5.67-1.31-8-7.2-10.71-11.68-5-7.08-5.39-16.93-7.58-25.18a124.42,124.42,0,0,1,.59-32.43c2.2-1.63,6.36,1.12,8.62,2,2.69.94,6,4.06,8.87,2.69,1.18-2.89-.21-6.69.38-9.71l.85-.15c5.44,4.59,6.89,13.39,12.34,17.76,8.22,4,17.95,5.51,26.95,6.78,9.41,0,19.79,1.38,29-1.25,7.6-2.76,10.3-9.4,14.13-15.84,2.81-4.33,3.94-8.65,8.55-11.41a3.67,3.67,0,0,1,2.41-.89Zm32.73.34a6.27,6.27,0,0,0-3,.65c-3.13,1.54-6.42,2.83-9.44,4.57a5.42,5.42,0,0,0-2.43,5.07c1.85.2,3.48-2.59,4.93-3.56,3.66-2.75,7.6-7.1,12.64-5.13l-.12.76a35.58,35.58,0,0,0-11.23,7.64,11,11,0,0,0-3.07,4.46c1.65-.52,2.45-1.86,3.87-2.76,1.85-.6,3.54-.42,4.58-2.36.62-.68,1-2.7,2.14-2.45-.21,2.49-1.34,4.61-.2,6.95,1.19,2.87,5.28,3.56,7.82,2.28,2.6-1.68,3.85-4.41,4.68-7.29l.76-.06c.14,1.1.31,2.2.52,3.3,1.53.92,3.86,1.86,3.08,4.1-3.16,2.83-8.79,2.49-12.64,1.44-4-.52-7.61-2.42-11.56-3l.16.64c6.17,2.41,13.55,5,20.24,4,2.68-1.11,5.62-2.14,7.95-3.9-.42-2.31-3.2-3.55-3.7-5.65,2.17.59,3.91,2.72,5.62,4.11A20.41,20.41,0,0,1,373.61,255l.74.11c.35-4.2-3.23-7.93-5.83-10.84a65.77,65.77,0,0,0-16.43-11.57,19.72,19.72,0,0,0-6.69-1.81Zm-125,2c2.88.7,5.76.58,8.68.85.79,3.29-3.69,3-5.69,2.61-.56-1.86,2.51-.85,3.55-1.1l.05-.68c-1.8.08-6.19.85-6.59-1.68Zm131.17,2.75a5,5,0,0,1,2,.55c2.14,1.59,1.58,4,.38,5.94-.77.1-1.56.17-2.35.22.27-1.49.47-2.43-.41-3.78-2.18.36-.8,4-2.71,3.63-.11-.86-.21-1.72-.32-2.58l-.62.09c-.15,1-.52,1.49-1.12,1.4a4.77,4.77,0,0,1,4.5-5.47,4.85,4.85,0,0,1,.66,0Zm-77,1.08c2.27.25.08,4.76-1.73,3.57C272.37,239.2,273.6,237.3,274.51,236.73ZM227,239.26c1.14,0,3.28,1.14,2.89,2-1.15.47-4.68.35-3.47-1.71a.68.68,0,0,1,.58-.26Zm79.34,2.33a1.25,1.25,0,0,0-1.24.67c-1.68,2.67-3.05,5.49-5,8-2.07,2.76-3.41,5.91-6.31,7.68a34.21,34.21,0,0,1-5.62,3.33c-.83.27-1,.87-.54,1.82,2.57.35,5.43-.67,7.86-1.46,3.2-2.16,5.28-5.68,8.49-7.91a154.42,154.42,0,0,0-2.58,20.39l1.1-.59c1.42-7.38,1.88-14.88,3.58-22.25.89-3.13.71-6.24.88-9.62a3.35,3.35,0,0,0-.66-.09Zm-76.85,2c1.79.22,1.75,3.46,2.57,4.87-2.72.34-2.67-.69-2-2.85-1.34-.45-1.82-1.08-1.45-1.91a2.06,2.06,0,0,1,.88-.11Zm115.81.19c1.86.7,3.69,1.29,5.61,1.82l.15.78c-2,.25-5.47,0-5.76-2.6Zm-122.6,2.7c-2.2,0-.87,2.79-.74,4.26,1.07,3.19-1.25,5.41.65,8.33,3.18,5.57,6,11.34,9,17a8.87,8.87,0,0,1,.44,2.07c-1.74-1-2-3.94-3.82-4.64-2.27.13.24,3.21.65,4.16-.2.65-.42,1.29-.65,1.93.21,1.32,1.13,2.58.94,3.91-3,1-4.91-1-4.68-3.82l1.57-.44a5.33,5.33,0,0,0-.88-2.82c.22-.65.46-1.3.69-1.95-1.69-3-4.78-7.1-4.63-10.84.67.17,1.32.35,2,.57-1-1.32-1.49-4.68-2.79-5.29,1.33,3-.38,5.51.88,8.56-1.13,3,2.06,6.37,2.79,8.91-1.06.19-1.62.6-1.67,1.23a16.9,16.9,0,0,0,3.21,7.44c2,.18,3.2.35,3.75,2.57-.21,4-2.83,8.75-1.85,12.56,1.46.39,3-.86,4.43-.36.35,2.31-.77,4.3-.75,6.53,3,5,.74,9.67,1.82,15.1a14.22,14.22,0,0,1,2.32,7.88c1.4.33,2.37-.91,3.75-.72,1.43,1.65,2.19,3.85,3.59,5.55,1.3,1.3,3.12-.3,4.56-.64,1.14,1,3.17,1.8,3.77,3.18a67,67,0,0,1,0,7.63h-.9a54.74,54.74,0,0,1,.07-5.73h-.82a26.21,26.21,0,0,1-.1,4.77l-.91,0a27.82,27.82,0,0,0-1.5-7.39c-1.66-.45-5.09,1-4.26,3.16,1.14-.08,1.66-.86,2.57-1.39.73,4.63,0,8.9,2.44,13.28a1.64,1.64,0,0,0,2.35-1.49c-.22-1.3-.53-2.58-.72-3.88,1.63-.33,1,2.91,2.42,3.27,1.74.2,2.92,1.69,4.55,1.78.94-.67,2.46-1.31,2.88-2.44-.06-4.26-.46-8.24.37-12.52.5-2.23,1.61-4,2.39-6.16-1.88.47-2.87,2-4.67,2.9a8.69,8.69,0,0,1-4.57.63l-.21-1.49a28.41,28.41,0,0,1,5.75-7.47c-1.16-1-2.38-.69-3.78-.84a4.31,4.31,0,0,1,.18-2.59c2.83-8,7.19-15.18,11.54-22.44,1.4-2.59-.16-4.59-2.9-4.61-4.82,0-9.3-1-13.19-3.92-2.59-2-2.17-6.34-1.66-9.14a71.63,71.63,0,0,1,7.48-15.46c.86-1.14-.74-2.4-1.77-2.56-7.39-1.47-15.29-2.72-22.26-5.66-3.61-2.54-5.66-7.45-8.67-10.37a2.93,2.93,0,0,0-.49,0Zm-18.89.63a2.28,2.28,0,0,0-2.1,1.77c-.1,3.34,0,7,.12,10.34a31.56,31.56,0,0,1,.63,7.88l.74,0c-.09-5.78-.46-11.75.14-17.5a2.93,2.93,0,0,1,2,.81c3.16,2.66,5.61,6.19,8.3,9.31-.11.84-.24,1.69-.38,2.52l2-.44c1.56,1.75-.41,3.7-2,4.43l-.12-2.61c-.67-.14-1,.36-1.05,1.52l-1.63-.41c-.94,3.54-2.47,6.92-3.22,10.49,1.17-.43,2.34-.87,3.47-1.38.87-.65,1.36-2.42,2.55-2.25-.13,4.27-.61,8.22.41,12.48l1.33,0c-.27-2.55-1.35-4.52-.08-7,1.74-4.05,2.06-8.44,3.94-12.43-1.06-1.85-2.38-3.51-3.33-5.43-2.08-4.2-5.72-7.72-9.1-10.89a4.26,4.26,0,0,0-2.65-1.21Zm68.23.1a2.55,2.55,0,0,0-1.41.39c-.5,1.47,2.59,1.15,3.25.66.29-.83-.82-1.1-1.84-1.05Zm-39.88,2.24c2.77-.12,3.16,2.67,6,3.15.79.44,3.25.57,2.87,1.84-2.58,0-5.15-1.45-7.63-2.1-1.35-.31-1.61-1.64-1.82-2.82a4.34,4.34,0,0,1,.58-.07Zm115.42,2.26c.77,1.55,2.18,1.34,3.66,1.57,2.22.06,4.43-.11,6.65,0v-.62c-3.61,0-6.91.45-10.32-.94Zm-6.11,9.74h0c2.58.59,4.72,1.64,7.45,1.19l0,.71a22.78,22.78,0,0,1-7.38-1.1Zm10.19,2.15h0a51.74,51.74,0,0,0,7.26,0v.66a47.82,47.82,0,0,0-7.28,0Zm-57.42,14-.73.13c-2.66,4.7-5.67,8.4-6.92,13.88-.2,2.12-.45,4.88.71,6.78a3.06,3.06,0,0,0,3.78,1.06c-.44-2.78-2-5.07-1.89-8-.41-4.88,3.92-9.25,5.05-13.83Zm-84.53,2.3c-.65.1-1,1.43-1.34,2a11.58,11.58,0,0,1,1.93-.31c.47,2.92.83,10,4.76,10.33a8,8,0,0,0,.85-1.07c-1.46-.3-2.55-.39-3.16-2-1-2.75-1.4-5.81-2.27-8.6-.3-.32-.56-.42-.77-.38Zm184.86,1.46a5,5,0,0,0-.85.08c2.29,4.44-.83,7.25-1.46,11.59l2-.25c-.27,1.17-.58,2.34-.85,3.51,1.26.2,1.76-2.58,2.15-3.49.42-1.14-.4-1.6-.93-2.47.71-3.11,3.27-4.91,2.25-8.55a5.27,5.27,0,0,0-2.32-.42Zm-61.46,2.19a2.12,2.12,0,0,0-.61.12c.42,4.46,3.24,9.08,3.06,13.74.19,1.77-3,3.11-2,4.75,1.77.4,5.14-.47,4.92-2.78-.32-5.08-2.53-10.12-4.2-14.89A1.17,1.17,0,0,0,333.12,283.57Zm-37.21,13.11a2.41,2.41,0,0,0-2.33,1.56c1.39,1.84,5.4.57,7.56,1.05.18-1.27-2.61-1.53-3.46-2.11a3.47,3.47,0,0,0-1.77-.5Zm31.9,2c-2.55,0-4.77,2.16-7,3.23-4.34,2.12-8.62,4.42-13.28,1.63a4,4,0,0,0,3.87,2.6A28.52,28.52,0,0,0,323.83,302c1.63-1.07,3.3-.93,5.15-1a2.65,2.65,0,0,0-.06-2.11,4.33,4.33,0,0,0-1.11-.14ZM230,302.57a5.34,5.34,0,0,0-1.69.78c-2.69,5.82-4.51,12.2-3.41,18.65a1.46,1.46,0,0,0,1.22,1.1c1.68-1.14,1-3.7,1-5.46-1.87-.36,0,2.87-1.79,2.41.91-6.33.87-12,4.65-17.48Zm65,8c-2.95.48-3.86,5.88-6.48,6.49l-.15-1.62c-1,.71-1.71,2-2.79,2.56l-.36-1.35c-1.26.23-1.42,2.23-2.86,2.75-.2,1.59-1.2,3.2-1,4.8,1.33.32,1.6-2.73,2.31-3.58,1.83-.29,3.61.59,5.1-.84A24.52,24.52,0,0,0,294.93,310.57Zm-12.64,8.83c0-2.19,1.58-3.63,2-5.7l-.69.17c-1.51,2.25-3.4,4.74-4.13,7.37,1.08.15,1.88-1.38,2.82-1.84Zm53.83-8.76a12.38,12.38,0,0,1-4.62.12,12.75,12.75,0,0,0-.71,3.49c1.14,2.56,3.43,4.68,4.27,7.31-2.54.14-3.65-5.26-5.73-5.81.43,2.74,2.73,5.15,4.1,7.54,1.12,1.35,1.44,3.41,3.56,3.08a19.53,19.53,0,0,0-1.49-3.05c.22-.9.41-1.81.56-2.72-1.17-1.88-2.46-3.46-2.7-5.75l3.5.18A104.87,104.87,0,0,0,348.68,329c2.16.94,2.12-2,1.41-3.22-1.83-3.28-4.76-6-7.21-8.86-2.06-2.1-4.09-4.91-6.76-6.24Zm-37.73.56c-.71.06-1.26.6-1.93,1.39-3,3.73-5.94,8.32-10.4,10.58-2.14.95-3.61,3.35-4.76,5.3a1.81,1.81,0,0,0,1.45,1.42c2.48.26,5,.44,7.52.45,2.62-.21,5.11-2.27,7-4,2.75-2.79,6.05-6.14,7.26-9.94l-.18-.86-.85-.12c-1.76,1.75-3,4-5.2,5.24l-.83-.33c-.57-2.72,2.85-5.77,2.46-8.69a2.53,2.53,0,0,0-1.51-.46Zm-10.87.43c-1.11.84-1.48,1.71-1.11,2.6C287.72,314.89,289.54,311.42,287.52,311.63Zm36.94,2.11a103.63,103.63,0,0,0,9.05,14.5c.67.72,1.48,2.49,2.67,2,.45-1.14-1-2.27-1.53-3.16a121.48,121.48,0,0,1-8-11.12A5.91,5.91,0,0,0,324.46,313.74Zm-8.34.07c-.51.12-.87.62-1.07,1.49a31.72,31.72,0,0,0-3.28.66c-1.63,3.16-.83,6.51-2.18,9.77-.4,1.39-.49,2.75,1.18,3.22,1.4.4,2.94,1.73,4.37,1.54-1.16-4.15-.41-7.82.13-12h1.08a24.24,24.24,0,0,0,3.13,11.27,6.82,6.82,0,0,1,3.81.87c2.35-.81.92-2.09-.69-2.5-1.65-2.14-2.09-5.1-3.7-7.33-1.22-2.12-3.21-4.45-2.78-7Zm-86.72,0c.23,1.46,1.08,3,1,4.43-.64-.13-1.27-.29-1.9-.47a35.55,35.55,0,0,1,0,6.19,6.13,6.13,0,0,1,2.49-.22c.6,1,.78,3.54,2.35,3.41-.24-2.93-1.64-4.5-3.25-6.69,1.09-1.48,1.19-6-.65-6.65Zm79.82,5.91c-1.34.14-2,2.46-3,3.3l-1.67-.16c-1.21,2.63-3.92,4.3-5,6.66,2.46,0,3.78-3.45,5.78-3.86a23.85,23.85,0,0,1-1.62,3.7c3.87-1.14,5.5-6,5.58-9.64Zm14,.59a2.39,2.39,0,0,0-.61.11,20.76,20.76,0,0,0,1.29,5.4,27.79,27.79,0,0,1,3.7,5.23c.71,1.32,2.92,1.25,3.73,2.53a29.71,29.71,0,0,0,1,3.67l.68-.15c.18-1,.57-1.54,1.16-1.65a32.65,32.65,0,0,0,5.93,5.08c3.87,3.57,7.7,7,10.38,11.59l1.37-.13c0-1.3,0-2.25-.95-3.23-3.59-4.27-8.53-7.67-12.94-11-1.21-1.12-2-2.62-3.26-3.7-1.33-.43-2.54-.41-3.5-1.58-2.27-3.76-4.38-7.63-6.73-11.34a1.35,1.35,0,0,0-1.29-.79Zm-59.72.15c-1.17,0-2.6,1.66-2,2.71.91.64,3.19-1.7,2.52-2.59a1,1,0,0,0-.48-.12Zm2.67,1.14c-1.4,0-2.49,2.36-3.51,3.23-2.09,2.7-5.63,3.62-7.15,6.48,2.2-.6,3.93-2.63,5.81-3.88,1.79-1.55,4.25-3.45,4.85-5.83ZM279,323.46c-2.66.25-5.24,1.83-7.55,3.09a2.07,2.07,0,0,0-1.07,1.74c2.81-1.37,5.72-2.7,8.49-4.13Zm-12.64,1.4c.45,2.21,1.25,4.08,1.07,6.36-1.51.32-1.52-3.65-2.28-4.67-1.26,1.23-1.38,3-1.77,4.61.63.17,1-.35,1.15-1.55l.8,0c.12,2.47-.87,4.86-.89,7.35l1.74-.29c.09,1.91.08,3.74.33,5.64-.06,1,.53,1.31,1.77.95a79.81,79.81,0,0,1-.79-10.6,7.91,7.91,0,0,0,1.75,1.55A28.49,28.49,0,0,0,267,325Zm115,.25c-1.8.25,1.07,3.76.94,4.95l-1.84-.43c-1.33,1.12-1.08,3.55-1.9,5.05-.88.85-1.84,1-1.86,2.42,2.65.15,2.54-4.05,4.64-4.56,1.64,0,2,2.48,3.69,2.91-1.12-2.31-.79-3.42-.27-5.79A21.52,21.52,0,0,0,381.35,325.11Zm-105.66,4.41a3.92,3.92,0,0,0-1.13.19c-1.18,2,1.63,2.83,2.9,3.59,4.38,2.51,9,2.44,13.85,2.62,7.27,0,14.88-1.13,22.08.08,3.83.15,7.68-.07,11.52.05v-1.21c-5.27-.06-11,.73-16.09-.68-9-1.35-19,.69-27.79-1.33-2.76-.5-3-3.31-5.33-3.31Zm-37.57,1.07c-1.77,0-3.6,2-1.18,3,.28,2.62-1.46,6.47,1.38,8l.85-.18c.3-1.42-.91-5.05,1.11-5.3a16.1,16.1,0,0,1-.16-2.31c-.51-.07-.81.42-.89,1.48l-.81.08a34.52,34.52,0,0,1-.3-4.77Zm2.16,5.52c.81,2.75,0,5-.67,7.63-.41,1.22.49,2.13,1.63,2.43-.26-3.14.53-7.26-1-10.06Zm-14.58-4.46h0a.7.7,0,0,1,.28,0c.44.65,1.34,5-.26,4.46-.15-.76-1.27-4.33,0-4.48Zm-1.88,2.92c.77,0,.92.55.43,1.59-1.09.14-1.35-.38-.8-1.57a2.42,2.42,0,0,1,.37,0Zm33.65,4.16.77,0a80.37,80.37,0,0,0-.06,8.36l-.69,0a45.78,45.78,0,0,0,0-8.36Zm122,.87a3.18,3.18,0,0,0-.72.12c-.19,1.76,1.37,1.78,2.42,2.82,1.66,1.4,1.37,4.18,0,5.64a9.07,9.07,0,0,1-1.54-1.34c-2,4.46-1,8.76-1.15,13.47,1.17.17,1.66-.19,1.47-1.07.16-2.53-.33-5-.31-7.53,1.76-1.12,2.88-3.16,4.18-4.77.09-1.63.53-3.93-.83-5.13-1.09-1.18-1.92-2.31-3.48-2.21Zm-81.69.95,0,.64c4.15.54,8.2,1.83,12.34,2.39,1.34.39,1.71,2.5,2.53,3.55,2.64.33,7.59,1.5,9.33-1.09,1.72-1,3.69-.71,3.11-3.4-1.46-.52-3.24-.16-4.77-.1-5,.47-10.43.67-15.3-.63a40.75,40.75,0,0,0-7.26-1.36Zm-7.21,3.35h0c-1.68.12-3.76,2.86-4.14,4.25,1.13-.1,1.8-.56,2.71.38-.21,1.09-1.22,1.83-1.56,2.91,1.93-.54,3.35-2.45,4.19-4.17-.23-1.14-.54-2.25-.87-3.35a1.83,1.83,0,0,0-.33,0Zm87.19,1.83a.65.65,0,0,0-.26.06,2,2,0,0,0,0,2.37c1.41.43,1.49-2.51.26-2.43ZM275,346.83l-1.17.06c-.38,5.31-.55,10.07,2.29,14.79a1.49,1.49,0,0,0,2,.51c.47-1.5-1-3.18-1-4.75-.12-2.19,0-4.42.07-6.61l-.66,0a54.16,54.16,0,0,1-.11,7.54l-.95-.1c-.84-4.08-2.38-7.38-.47-11.47Zm25.89,0a31.94,31.94,0,0,1-5.94.16,29.08,29.08,0,0,1-9.05,10,5.2,5.2,0,0,0-1.21,1.18c3.18,0,6.12-2.83,7.79-5.33.55,0,1.1,0,1.65,0,1.19-1,2.16-2.26,3.35-3.28,1,.06,2.75.71,2.76,1.91-.26,1.25-.62,2.48-.84,3.74,1.27.43,1.49-1.9,1.91-2.69.37-1.69,2.13-4.93-.42-5.66Zm-38.56,3.91c-3,1.81-5.05,4.27-8.51,5.32-1.16.32-1.64,1.19-2.16,2.19,2.45-.16,5.43-3.32,7.46-2.67l.66,2.44c1.52.28,2.13-1,3.55-1.29.91,2.69-4.53,3.83-4.1,6.69,0,1.6.42,3.31.06,4.87-1.1,3.89-.44,8.13-1,12.15-.43,2.87-.49,5.76-.81,8.64q1.68-1.33,2.58-.63c.5,6.61-2.88,12.45-1.48,18.74.28,2,2,2.39,3,4,1.92,3.11,2,6.46,3.29,9.71,1.79,1.72,2-1,3.52-1.47,3.95,0,7.89.49,11.84.47,2.3-.31,2.76,2.12,5,2a20.38,20.38,0,0,0,7.78-1.75c1.74-1.75-1-3.16-1.84-4.61a68.92,68.92,0,0,0-5.34-6.59,18.94,18.94,0,0,1-.36-2.13c4.1,2,6.86,7.46,9.43,11.07a1.41,1.41,0,0,0,2.13.43c.32-1.19-.47-2.55-.87-3.67a44.73,44.73,0,0,0-5.48-9.66c-1.08-1.62-3.53-.75-5.18-.8-.65-3.27-.31-6.62-1.17-9.79s-1.4-6.41-2.58-9.46a12.2,12.2,0,0,1-1.1-4.28c2.53-.91,3.46-2.91,5-4.9,4.24-1,7.56-3.49,11.31-5.59,2.26-1.46,5.84-3.08,7-5.62-2.95,1.69-5.44,3.88-8.74,5-1.26-.13-2.35-2.12-3.56-1.58-3.05,2-5.24,4.5-7.68,7.1l-.72.15c0-1.66,1.45-2.74,2.33-4-1.11-4,5.65-5.79,6.45-8.68-3.43.81-6.42,4.55-8.5,7.24-2.79,3.53-3.27,7.45-4.55,11.61-1.48,5.53-.5,12.16,0,17.78-1.69-.5-1.48-2.11-1.95-3.54-1-4.63-.86-9.24-1.08-13.92-1.55-.53-2.27.58-2.48,1.94a56.67,56.67,0,0,0-.38,9.48c-1.22.28-.68-2.55-1.09-3.32-.79-3.94-.23-7.94-.88-11.95h-.75c-1.05,4.18-.33,8.13-.23,12.35l-.66-.26c-2.33-4.95-4.16-9.74-3.35-15.34-.79,0-1.26.41-1.41,1.36-.49,5.42,1.29,11.26,3.32,16.22-6.13-4.89-4.9-15.38-5.63-22.36,1.21.66,3.45,1.9,3.56-.46,0-5.15,1.57-9.89,2.3-14.92l-.23-.89c-2.58-.88-3.79-.81-5.85-2.79Zm73.23,1.94c1.55,4.62,5.3,8.31,6.34,13.29,1.35,1.22,2.18-1.23,3.51-1.37.31,3.25-.74,6-2,8.93-.53,2,1.17,2.06,2.55,1.48,2.89-1.94,4.33-6.19,5.67-9.27,1.6-.09,2.84,1.31,4.41.33.46-.66.73-3.06,1.95-2.19.57,2.92,1.39,6.58.43,9.45-2.06.59-2.43-2-2.27-3.53-1,.08-1,2.08-1.17,2.82-.49,3.21-.15,6.55-.64,9.7-.8.2-1.31-.28-1.54-1.44-.49-2.61.6-5.45.45-8.13-.61,0-1,.49-1.16,1.39-1.39,6.38-.49,13.74-.95,20.18-.43,3-.42,6.06-.71,9.09l-1,0c-.9-6.11.49-12-1.89-18.17-.56-.87-1.21-1.14-1.95-.79-1.78.1-.18,4.22-1.95,3.86-.17-1.15-.59-1.71-1.26-1.67.67,3.72.25,6.84-.34,10.51l-2.3.73c-.69,1.18-.58,2.79-.81,4.12-2.6.3-5.36,2.13-7.27,3.77-1.46,3.87-1.4,8.33-2.56,12.34-1.85.4-3.7.06-5.65.06-1.38.7-1.59,3-1.94,4.36-.25,1.18-.55,3.58,1,3.91,3.37-.24,5.17-2.26,6.86-5,2.89,1.79,6.12,2.42,7.71-1.29.66-3.37.2-6.87,1.3-10.23,1.84.31,4.23-.3,5.82.62.2.81.41,1.61.62,2.41,2.16,1.05.35-2.9,2.42-2.4a29.53,29.53,0,0,1,.5,3.52L349,414c.89-4.76,1.89-9.63,2.36-14.44,2-.25.35,4.2,2.85,4.6-.31-5.22,0-10.39.11-15.61l1,0c.41,2.56-.33,4.93.75,7.43a7,7,0,0,1,.53,4.08l.69,0a7.14,7.14,0,0,1,.53-4c.72-2,.12-4.39.66-6.5l1,0c.39,4,.06,8.37.13,12.47l.65.05c-.36-3.56.21-7.09-.16-10.67-.24-1.63.5-2.75,1.09-4.18.19-2.6-.15-5.12.36-7.72l1,0c.51,3.46-.33,6.7,1,10.07.88,4-.3,8.35.44,12.4a2.13,2.13,0,0,0,1.13,1.23c-.39-4.84,0-9.68-.13-14.51-1.89-3.55-.17-7-1.41-10.58-2.35-6.16.62-11.37-3.55-17.38-1.17-1.23-3.61-.25-5.16-.76-1.13-1.59-1.87-3.16-3.61-4.2a1.84,1.84,0,0,0-1.89,2.64,10.51,10.51,0,0,1-.24,5.67c-2.6.51-.51-3.37-3.58-3.35-1,1-1.14,2.44-2.79,2.36-.22-1.42-.37-2.84-.53-4.27a4.72,4.72,0,0,1-1.63,1.44c-1.49-2.49-2.85-5.58-5-7.56Zm-50.95.54a1.88,1.88,0,0,0-.94.33q-.13,1.63,1.44.75c.06-.7-.11-1.06-.5-1.08ZM376,359.52c-1.18-.16-1.08,5.19.11,4.49a6.72,6.72,0,0,0,.14-4.38.53.53,0,0,0-.25-.11Zm-106.21,5h0c-1,.11-1.36,1.92-1.65,2.7-1.49,4.36-.38,8.36-.61,12.8l.66,0c-.58-5.39.83-10.27,2.07-15.43a1.15,1.15,0,0,0-.47-.06Zm-20.88.93c-1.44.14-1.71,2.41-2.22,3.5-.69,2.76-2.6,4.48-1.2,7.38,1.64.57,5.28,1.44,4.52,3.85-.86,4.1-1.83,8.17-2.75,12.25-.14,2.88,2.83,3.59,4.26,1.18,3.16-6.42,5.06-13.81,4.44-21-.23-1.62-.72-3.18-2.62-3.33-1.24-.15-2,1.41-3,2-3.34-1.32-1.42-3.3-1.14-5.85A1,1,0,0,0,248.87,365.47Zm28.9,2.36a.77.77,0,0,0-.25,0c-.52.63-.81,4.59.58,4.15.49-.62.82-4.12-.33-4.19Zm-3.09,1c0,1.77,0,3.52,0,5.29l1.37,0c0-1.74-.06-3.47-.1-5.22Zm17.63.53c2.69.73-1.69,3.31-2.72,2.86-.48-1,1.32-2.12,2-2.64Zm20.38.15c-1.86.1-2.22,1.74-3.31,3.09-.62,1-1.82,1.46-2.63,2.31-.89,3.69-.05,7.73-.36,11.53l.81-.27a72,72,0,0,1,.16-9.63h.92c.38,3.11,0,6.56,2.81,8.69a15.66,15.66,0,0,1-.55-11.5c.5-1.57,2.28-2.64,2.54-4.21Zm52.06,2a33,33,0,0,1,1.47,5.95c-.59,3.47-1.32,6.76.38,10.07.21,4.14-.13,8.35.12,12.51l1.27,0c-.3-1.54-.79-3.06-1-4.63s1-3.33,1-5.06a50.85,50.85,0,0,1,.18-7.61c-.65-.06-1,.78-1,2.5-2,.69-.89-2.62-.66-3.52,1.3-3.58-.08-6.29-.78-9.75Zm-126.28,4.32c-.05,4.08.39,8.18,0,12.24h.67c-.37-4.06.08-8.15,0-12.23Zm120,.68a53.24,53.24,0,0,1-.62,10.4c-.63,2.78,0,5.58-.5,8.4l-1,.07a40.85,40.85,0,0,1-.27-8.85c1.46-3.13.47-6.63,1.42-10Zm.79,2,1,0a40.45,40.45,0,0,1,.06,8.8l-1,.09c-.49-2.84-.13-6-.06-8.91Zm-118.77.34a78,78,0,0,1-.07,11.34h.77a79.48,79.48,0,0,1,0-11.34Zm64.61,1.76-1.39.31c.13,1.83.48,3.65.79,5.45C306.07,386.27,304.88,381.78,305.1,380.59Zm20.19,5.1c1.16,4.44,2,8.78,1.16,13.37l.61-.09c-.07-1.81,1.11-3.35.59-5-.8-2.89-.14-5.42-1.58-8.16Zm-22.65.92c-1,.19-.64,3-.29,3.67,1.86,5.58,6.54,9,8.3,14.56l.55.16c-1.42-6.66-6.78-11.4-8-18.29a.84.84,0,0,0-.53-.1Zm49.79.88,1,0a54.36,54.36,0,0,1,0,8.84h-.93c-.15-2.94-.16-5.91-.06-8.85Zm-46.62.17a1.76,1.76,0,0,0-.38,0c-.56,1.15-.29,1.65.81,1.49C306.74,388.16,306.59,387.65,305.81,387.66Zm-6.66,1.11c-1.06-.13.42,2.62.1,3.49,1.91.3,1.67,3.21,3.06,2.81-.41-2.14-1.81-4-2.54-6.05a1.92,1.92,0,0,0-.62-.25Zm.1,3.49c-1.18.58-3,1-2.39,2.74a70.61,70.61,0,0,0,5.69,7.18l.68-.15c-.24-3.67-3.88-6.18-4-9.77Zm46-2.77a28.52,28.52,0,0,1,.1,5.85l.88,0c0-1.25.06-2.48.09-3.71l.9,0c0,4.61-1.07,9.34-.58,13.92-.06,1.12.71,4.12-1.17,4-.13-3.69-.87-7.26-.81-11,0-2.86-1-6.05-.39-8.81h0Zm-89.57.39a.62.62,0,0,0-.19,0c-1.33,2.12-1.56,4.89-2.54,7.2-1.07,2.57-1.92,5.21-2.9,7.81l-.6.21c0-1.22.72-4.86-1.65-3.14-1.72,2.29-4.41,4.42-5.34,7.14,1.21-.67,2.46-3,3.87-2.58.37,1.82-1.2,3.83-.71,5.63,2.92,1.74,5.17-1.85,6.43-4,.73-.88,1-3.39,2.19-3.48.34,4.11-.09,8.3.39,12.39,1.48,1.86,2.1,2.7,4.52,1.68,0,1.73.56,3.78,0,5.42-.27,1.13-1.26,2.53-.1,3.48,1.85,1.3,4.72.88,6.69,2.24.19,4.52,3.84,5.33,7.34,6.78,6.58,2.1,12.8.83,19.2-.95,6.16,1.54,10.2-2.14,14.48-5.92.79-.65,1.47-1.95,2.52-2.09-.21,2.54-1.85,4.25-2.58,6.58,2,.26,1.34.45,1.16,2.06,4.53-2.56,7.62-8.1,9.73-12.7,1.4-2.62-.35-4.24-.48-7-1.21-.67-1.6,1.79-2,2.5-1,2.31-2,4.59-3,6.88l-.67.05c.32-2.82,2.48-4.9,2.71-7.64-2.66-.68-2.53,3.57-3.64,5.05-3.64,4.9-8.42,9.88-14.22,12.11l-1.62-.2.07-.76c2.23-.93,7.33-2.44,7.4-5.34-2-1.1-4.81.46-6.79,1-6.59,2.06-14.08,3.3-20.92,2-.81-.32-3.27-.53-2.92-1.79a109,109,0,0,0,14.9-.41c3.57-.37,7-1.56,10.54-2l0-.66c-8.23,1.69-17.08,2.77-25.48,1.74v-1a71.78,71.78,0,0,0,16.22-1.76c1.79-.68,3.51-.43,5.35-.26l-.12-.6c-1.94,0-3.56-1-5.51-.84-2.41-.11-4.06,1.38-6.5.52.17-1.56.84-2.63-.79-3.68-2.92-1.2-6.64-.65-9.76-.7-1.85-.1-3.15,1.25-2.46,3.06,1.43,1,4.1.91,4.93,2.46-.77,2.12-2.42,1.39-3.71.26-1.55-1.47-4.22-1.08-6.23-1.68-.69-3.77-1.63-7.45-2-11.27l-1.5-.71c-1.81.74-.24,3.36-2.61,3a14.82,14.82,0,0,0-1-4.88,44.22,44.22,0,0,1-.18-10.66c.49-3,2.62-6.64,1.23-9.56-.26-.72-.6-1.09-1-1.1Zm67.17,1.87c-.5-.05-.86.34-1.09,1.18-.75,1.95.91,3.93.75,6.09.49,0,.82-.5,1-1.35a6.53,6.53,0,0,1,1.7,1.41c-.61-2.44-1.34-4.9-2.14-7.28a.63.63,0,0,0-.22-.05Zm10.32,4.05a30.54,30.54,0,0,1-4,2.56c-.75,1.31-.42,3.33-.64,4.83l1.31-.26c.49-2.8,2-4.73,3.3-7.13Zm-15.69,1.54c.24,1.21,1.48,2.71,1,3.89-2.37-.69-3.39-.18-4.13,2.23-1.56,2.56.17,8.78,3.87,7.86a9.86,9.86,0,0,0,.3-2.67c1.78-.09-.5,4.19,1.68,3.62.26-2.66-.48-5.09-.78-7.69l.81,0c1.68,3.74,4.13,6.21,3.3,10.64,1.29.58,1.5-1.93,1.84-2.71.83-3.09.67-7.21-1.16-9.9l-.72,0c.4,2.26,1,4.35.7,6.67l-.91-.06a20.21,20.21,0,0,0-3.18-9.6c-.68-.95-1.23-2.3-2.58-2.34Zm-19.7,3a2.73,2.73,0,0,0-1.06.33c0,1.25.62,2.49.86,3.7-2.34,3.15.82,4.72,2.09,7.55l.54,0c1.07-1.5.39-2.53.06-4.12l1.95.51c2.05-2.12.05-3.74-1.14-5.62-1-1.12-1.89-2.5-3.3-2.38Zm57.92,2.5c.26,2,1.78,3.45,1.74,5.6.18,3.67.59,8.49-1.38,11.76-.48.91-1.05,1.25-1.7,1,.42-4.21,2.13-7.87,1.39-12.28a1.29,1.29,0,0,0-1.41-1.29c.1,6.92-.26,13.42-3.92,19.5,1.53-.55,2.12-2.15,3.18-3.35.87-1.13,2.38-1.65,3.3-2.73,1.82-2.54,2.12-5.23,3-8.12,1.42-3-1-7.15-2.17-10a20,20,0,0,0-2-.14Zm-121.53.84a73.46,73.46,0,0,0-6.81,2.83c-1.18.59-3,1.1-3.58,2.39-.9,9.82,2.21,20.09,5.94,29.08a56.25,56.25,0,0,0,8.5,15.54c4.21,5.79,8.4,11.59,12.74,17.3A174.71,174.71,0,0,0,271,496.71c4.8,5.37,11.29,9.31,17.87,12.1a5.08,5.08,0,0,0,4.15.41c.43-1.78-1.31-4-1.83-5.68-3.06-6.8-3.59-14.34-7.4-20.55a18.53,18.53,0,0,1-.08-5.31c1.57-7.67,2.82-15.42,3.7-23.2.3-5,.6-10,1.39-15-2.95-.55-5.49.4-8.54.29a25.12,25.12,0,0,1-13.13-4.14c-1.95-1.31-2.67-3.21-4.06-5-1.5-1.33-4.43-.74-5.54-2.53s-.12-3.6,0-5.63c-.24-1.78-2.47-1.83-3.77-2.57-1.15-1.68-1-4.09-1.93-5.92-1.88-1.18-4.12,2.44-6.17,2-.9-1.19-1.15-3.17-2.44-3.93-1.14,0-2.29,0-3.43,0-.11-.84-.21-1.67-.32-2.51-.8-1.36-3-1.14-3.53-2.75-.57-.93-.71-2.69-1.75-3.15Zm161.41,1.07h0c3.72,1.06,6.84,5.26,9.86,7.59,1.89,1.23,4.82.79,6.65,2.29-.45.52-.94,1-1.47,1.54,1.36.37,2.76,1.79.74,2.49-2-.79-5-1.33-6.14-3.22,1.29.11,2.58.17,3.88.16l-.08-.82c-4-.24-7.23-3.46-10.26-5.79-1.36-1.23-3.18-2.19-3.18-4.24ZM220,406.36a2.88,2.88,0,0,1,1.1.25c.36,1.75-.71,3.84-1,5.59-.11,1.18-1.69,2-2.77,2-1.1-2.2.65-2.95,1.66-4.64-1.39.28-3.21,2.93-4.41,1.91.07-2.35,2.81-5.24,5.43-5.11Zm88.79.14a3.61,3.61,0,0,0-1.18.2c-.3,3.11-.68,6.84-2.46,9.52-.45.88-2.19,1.95-1.64,3,1.43.21,2.61-1.12,3.52-2.05,2.23-2.71,4.15-7,3-10.49a4.45,4.45,0,0,0-1.28-.16Zm60.66,1c.85,3.54,2.11,7.13-2,9.11l-2.09-1.06a10.49,10.49,0,0,1-4.08,9.08l-.8-.2a39.27,39.27,0,0,0,.68-11l-.89.18a33.77,33.77,0,0,1-.64,11.52,12.37,12.37,0,0,0,3.17-.31,20.1,20.1,0,0,0,3.83-7.27c5-.61,6.27-6.65,3.57-10.07Zm-60.71.27h0c1.08-.07.95,2.66.44,3.21-1.47.53-1.24-2.5-.67-3.15l.23-.06Zm89.72,2.94a29.52,29.52,0,0,1,4.92,3.71l-1.79.12,0,.71a36.89,36.89,0,0,0,9.71,4c1.64.32,1.88,1.45,1.88,2.91-4,0-8-3.84-11.92-4.86,2.38,3.31,8.28,4.36,11.77,6.31.08,2.2.06,4.4.08,6.6-3.92-.65-7.91-4.28-11.57-6-1.15-.76-4-1.78-3.21-3.58,3,.59,5.42,3.28,8.35,4.26.6.48,2.49-.23,2.27-1.1a53.38,53.38,0,0,1-9.54-5.48c-.17-.73.45-1.06,1.85-1-.88-.72-1.77-1.43-2.63-2.17a9.81,9.81,0,0,0-.2-4.41Zm5.63,3.53c.63,0,1,.34,1.17,1.13-1,.37-1.65,0-1.88-1a2.12,2.12,0,0,1,.71-.18Zm-63.31,1.22a.94.94,0,0,0-.42.11c-.37,2.23,1.68,5,.41,7.25-.85,1.89-3.1,2.3-4.78,3.23-2,.89-3.06,2.47-4.72,3.83-2.33.06-2.84-2.59-5.54-2.14-.14,1.78-.18,3.55-.19,5.34l1.58-.36c.28,1-.56,5.09,1.09,4.52a51.77,51.77,0,0,1,.24-6.82l1,0c.43,1.75.08,3.74,0,5.54l.71.08c-.05-1.81-.47-3.87.08-5.6l.89.08c1.38,3.1,2.3,4.9,5.88,5.63-.92-1.29-2.72-1.82-3.3-3.26-2.26-3.2,3.1-5.6,5.51-5.41.24,1.92-1.26,3.33-.43,5.39.89,1.33,2.34,3.46,4.19,3.08a6.36,6.36,0,0,0,.05-3.18,4.27,4.27,0,0,1-3.22-1.42c.15-1.24.65-2,1.49-2.14a6.9,6.9,0,0,0,3.73.47c.86,1.28.91,3.76,3,3.24,1-2.21-2.71-3-2.78-5.5a8.46,8.46,0,0,0-2-10c-.72-.53-1.53-2-2.48-2Zm-136.79,2h0a1.1,1.1,0,0,1,.31,0h0a102.77,102.77,0,0,0,13.37,49.56c1.15,1.47,2,4,3.59,4.94-3.21-9.52-9-18.12-11.35-28.08-.58-3.11-1.94-6.32-2.34-9.37,2.34-1.5,5.25-1.77,7.59-3.4,1.55-.8,3.11-2.53,4.91-2.41-1.19,3.18,1.49,5.07.76,8.36,1.57,1,1.65,2.85,2.39,4.46a92.78,92.78,0,0,0,7.25,14.69c4.93,8.53,12.06,15.5,17.24,23.76a191.24,191.24,0,0,0,22.91,27.1c3,3.53,6.74,6,10.39,8.74,1.43,1.08.19,2.51-.73,3.41l-1.74-.37a14.29,14.29,0,0,0-3.18,4c.93,0,1.87,0,2.8,0,2.09-1.42,3.14-4.26,5.13-5.53,1.32.76,5,2.17,4.92,3.85-2.18-.59-3.47-.27-5.66-.23-3.06,3.65-6,7.76-9.93,10.57l-.17.65a86.24,86.24,0,0,0,21.48,6.44c1.38,7.56,5.93,14.55,8.16,21.9,1.72,5.83,3.42,11.74,5.58,17.43.88,1.87,1.84,4.27,4.4,3.13.83-1.35.47-3.29.26-4.78-1.54-9.59-3.35-19.11-4.71-28.73,2.41,1.09,2.84,7.67,6.28,5.32,1.63-4,2.08-8.07,2.69-12.31,4-.25,8.33-.16,12.3-.9,2.8-.66,5.53-1.66,8.25-2.58.73-.15,1-.61.79-1.39-2.38,0-4.79-.08-7.16.19-10.17,2.32-21,2.24-31.33,1.27l0-.79a104.26,104.26,0,0,1,8.55-9.41,1.18,1.18,0,0,1,2.06,1.11c-1.34,2.12-3.38,3.1-3.69,5.78,1.38-.28,1.73-4,4.05-3.44.6,1.23-1.19,2.65-1.73,3.75,2.94-.82,3-5.15,5.91-6.6,4.95-.63,9.49.06,14.23-1.84a94.74,94.74,0,0,0,12-3.63c-.18-1.09-.88-2.4-.42-3.45.81-2,0-4.23.86-6.14l1,0a20.81,20.81,0,0,1,.19,6.45l.7,0c0-2.48-.43-5.2.17-7.61l.8.12c.18.92.53,1.42,1.06,1.48-.1-1.52-.36-4.85,2.18-3.67,1,2.91.38,6.52.38,9.59h1.17a70.56,70.56,0,0,0-.54-11.37,1.4,1.4,0,0,1,1.86,1c1.39,2.95,1.31,6,1.91,9.07.15.85.51,1.27,1.09,1.28-1.47-4.21-1.21-8.4-3-12.58.6-1.05,1.25-1.36,1.95-.95a39.45,39.45,0,0,1,3.65,11.4l1,.48a123.66,123.66,0,0,0-3.84-12,2.46,2.46,0,0,1,3.13-3l.18-1.68c1.91-.82,2.69,3.15,3.67,4.22.8.75,1.16,3,2.25,3.11-.7-3.12-3.4-5.41-4.25-8.57,2.94-4.32,7.17-7.75,10.13-12.13,2.63-3.18,5-8.39,9.08-9.72,1.28,1,2.3,2.32,3.52,3.45.75.08,1.52.12,2.29.14l.22-.72c-1.26-2.13-4.15-4.34-4.78-6.89a31.62,31.62,0,0,1,4.87-9,65.59,65.59,0,0,1,7.33,6.61,3.86,3.86,0,0,0,2.39,1.3c-2-3.71-6.76-6.36-8.88-10l.12-.82.78.07a84.65,84.65,0,0,1,9.51,8.33c.55.18,1-.06,1.35-.71.15-1.36-2.92-2.21-2.38-3.7,1.56-1.13,2.68-1,4.4-.39-.53-.87-1.06-1.74-1.58-2.62-1.84.14-2.72-1.33-4-2.4l-.85-.74c-.43-.63-.85-1.27-1.24-1.91-1.05.35-3.25-.64-2.68-2a1.39,1.39,0,0,1,.7-.2c1,0,1.79,1.24,2,2.16l1.94.05h0c-.66-1-1.3-2-1.94-3.07-1.26.4-1.85.08-1.77-1a1.22,1.22,0,0,1,.84-.26c.41.06.72.46.93,1.21l2,0h0c-.58-1.37-3.71-2.42-2.83-4a1.29,1.29,0,0,1,.5-.14,2.26,2.26,0,0,1,1.65.73c3.42,2.5,6.52,5.57,10.09,7.8,1,.53,2.14,2.09,1.42,3.18-1.44.47-3.23-2.48-4.69-3l-1.21-.6h0a4.62,4.62,0,0,0-3.85-3.19c.55,1.14,1.25,2.21,1.91,3.29l-2-.23a14,14,0,0,1,3,4.18l2-.15.94,1,1,.83c.56,1.12,1.18,1.71,1.86,1.79,6.76-10.7,10.27-22.42,13.25-34.6.76-4.7.36-9.14.15-13.83,2.38.47,4.42,3.73,6.68,4.93,9.43,5.33,20,9.59,29.84,14.14,8.34,4.43,13.7,11.13,21.53,16.47,8.72,5.89,17.23,12.06,25.64,18.37a160.21,160.21,0,0,1,15.23,11.74c3.77,3.52,8.48,7.26,11.41,11.58a48.35,48.35,0,0,0,4,16.51,299.33,299.33,0,0,1-75.4,59.28c.31-.71.62-1.41.94-2.11,6.73-14,15.94-27.16,25.79-39.2a253.65,253.65,0,0,1,24.33-25.7c2.47-1.89,5.14-4.72,8.42-4.59a4.11,4.11,0,0,0-.84-1.13,33.57,33.57,0,0,0-10.94,7.33c-5.24,4.11-9.63,9-14.35,13.68-14.46,15.17-28.57,32.8-36.82,52.19-.27.65-.53,1.32-.79,2q-10.93,5.74-22.32,10.56l.07-1a8.75,8.75,0,0,0-1,0h0a8.07,8.07,0,0,0-2.91.55,53,53,0,0,0-12.4,7A293.57,293.57,0,0,1,253.5,602.79c-1.29-2.22-2.59-4.44-3.91-6.64-1.19-1.72-2.35-3.95-4.4-3.9a3.71,3.71,0,0,0-1.57.44c-1,2.5-.37,5.15-.43,7.8-1.19-.3-2.38-.6-3.57-.92-.55-1.88-1.08-3.77-1.59-5.64l-.64,0c.26,1.8.59,3.59,1,5.37l-2.32-.59q-3.68-11.83-7.46-23.54c-1.46-5.94-4.15-12.14-4.46-18.25h-.7c.45,4.82,2,9.64,3.22,14.34,2.28,9,4.78,18,7.36,26.93a299.48,299.48,0,0,1-81.4-34.92q-4-6.47-8.45-12.6c-9.79-13.41-20.69-25.87-31.8-38.19a46.72,46.72,0,0,0-6.92-6.1,18.92,18.92,0,0,0-7.82-4.65c1.21,1.59,2.89,1.81,4.55,2.87,4.57,3.9,9.08,7.53,12.78,12.35A325.26,325.26,0,0,1,147,559.8q-10.52-6.88-20.44-14.63A370.62,370.62,0,0,0,99.5,515.25c-4.85-4.86-9.47-9.85-14.92-14.05,0-2,1.94-4,2.61-5.88.71-1.15.94-3.2,2.13-3.88,6.11,1.07,11.84,3.18,17.64,5.33,12,5,23.36,12.75,35,18.5l-.69-1c-12.09-9.91-26.53-16.87-41.47-21.32-3.4-1.07-7-1.42-10.38-2.65a1.37,1.37,0,0,1,.65-2.11C96,485.17,102,482.28,107.85,479c9.91-4.34,19-11.8,28.36-16.71,9.78-6.09,19.09-12.79,28.5-19.41,1.15-.82,2,.7,2.74,1.4,2,2.62,4.35,5.05,6.14,7.85,3.47,5.79,8,10.76,11.34,16.65,1.25,1.63,2.44,4.9,5,3.33,1-4-1.44-6.57-1.46-10.37.94.37,1.46,1.59,2,2.37,3.12,4.74,7.12,9,10.67,13.38,1.88,2.38,5,5,8.07,5.28,2.56-.33,2.16-2,2.53-3.95a1.57,1.57,0,0,1,1.95,1.12c3.51,6.16,7.16,12.7,11.91,18,2.18.69,2.08-1.79,1.24-3.06-8.93-12.48-14.58-27.22-19.36-41.72a136.54,136.54,0,0,1-6.62-31.8c-.47-1.5,1.48-3.86,3.05-3.87Zm4.41,1.11a.92.92,0,0,1,1.07.83c-.32,1.33-2.74,1.92-3.93,1.67-.65-1.41,1.19-2,2.19-2.34a2.39,2.39,0,0,1,.67-.16Zm10.78,0a2.12,2.12,0,0,1-.8,1.88,36.79,36.79,0,0,1-10.47,6.28l-.18.61c4.44-.76,7.84-3.75,11.55-5.62A5.33,5.33,0,0,1,219,424a60.54,60.54,0,0,1-7.87,5.3c-.8.54-2.25.94-2.54,1.94,4.07-.94,7.05-4.41,10.74-5.66a1.71,1.71,0,0,1-.77,2c-3.21,2.26-7.08,5.2-11.07,5.64-1.22-2.74-1-5.82-1.83-8.72a26,26,0,0,0,10.45-4.41c1-.66,1.82-1.43,3.1-1.53Zm-4.35,0a1.06,1.06,0,0,1,.26,0c.53,1.55-3.55,3-4.75,2.86-.72,1.24-3.22,2.64-4.55,1.75-.43-1.55,3.57-2.12,4.55-1.75-.06-1.4,3.09-2.89,4.49-2.89Zm183.74,5.83c2-.11,4.2,1.88,6,2.74,2.36,1.69,5.48,2.39,7.61,4.3-.43,1.35,1,5.75-1.64,4.92l.27-1.69a26.11,26.11,0,0,1-5.31-3.38c.48-.73.57-1.27.28-1.62-2.2-1.71-4.88-2.8-7.07-4.53Zm-56,.09c1.89,0,.46,3-.91,1.87C341.34,425.65,341.65,425,342.52,424.56Zm-24.18,4a1,1,0,0,0-1.17.73c-1.42,3.69-3.27,9.18-6.85,11.3l-1.89-.66c.08.68.17,1.35.27,2,3.34.06,6-4,7.78-6.36l.8,0c.47,2.71-1.13,4.12-1.63,6.51,2,.27,3.19-2.79,4.2-4.11.77-.88,1.16-3.42,2.46-3.38a44.85,44.85,0,0,1,.19,7.42l.62,0c-.67-4.1,2-8.52.86-12.28-.36-.76-.86-1.07-1.5-.94-1,1.46-1.42,5.08-3.11,5.59a40.35,40.35,0,0,0-.35-5.71,2.75,2.75,0,0,0-.68-.14Zm78.14,4.93c1.91-.18,3.47,2.87,5.49,2.44,3.22-.37,5.54.91,8,2.81a2,2,0,0,1,.13,3.37c-2.54.19-3.2-2.49-5.47-2.52.37,3.24,2.84,3,4.71,5,.31,2.45-3.08-.05-4-.29.57,1.49,3.12,1.79,2.89,3.28a7.09,7.09,0,0,1-2.56.05c.69,1.14,2.71,1,2.46,2.72-1.25,3-2.56,6-3.86,8.95-1.29-.06-2.46-1.47-3.54-2.14-3.7-2.57-4.61-6.13-7.39-9.69-1.53.84-3.21-1.72-1.17-1.84a2.29,2.29,0,0,1,1.17,1.84l1.77.06a32.86,32.86,0,0,0,4.37,3.61,18.12,18.12,0,0,0,2.36-.86c-.1-.63-.19-1.26-.28-1.89a13.09,13.09,0,0,1,2.77.7c-.55-1.81-2.42-1.72-2.95-3.63l-1.61.06.39,2.08c-1.44.1-2.29-1.94-3.89-2.19l-.87-2.11,1.87.22h0a11.18,11.18,0,0,1-1.72-2.78,3.34,3.34,0,0,0,1.81-1.2c-1.52.5-3.54-1-2.81-2.62a1,1,0,0,1,.23-.06c1.16-.12,2.33,1.74,2.58,2.68,1,.34,2,.67,3,1l-.93-2.17,1.58-.05c-.12-1.82-4.55-2.59-4.5-4.77Zm4.85,11.94,1.88.14h0c-.27-.77-.53-1.54-.79-2.31l1.9.27h0a7.11,7.11,0,0,0-4-3,3.29,3.29,0,0,1-1.79,1.23c.61,1.4,2.11,2.28,2.79,3.71Zm-82.56-9.77c.78-.05.93.43.47,1.46-1.09.22-1.37-.25-.84-1.4l.37-.06ZM306,448.59c-.58,0-.94.55-1,1.56a253.81,253.81,0,0,0,.5,35.1h.9c.4-5.91-.41-11.86-.11-17.8-.28-6.27.52-12.59,0-18.83a1.18,1.18,0,0,0-.26,0Zm86,.05,0,.62-.63.05,0-.63Zm-53.87,13.13a5.6,5.6,0,0,0-1.78,1.63c-4.81,6.61-8.08,14.59-10.86,22.24a105.41,105.41,0,0,0-4.8,16.05c-.21,1-.05,3.78,1.48,3.61,2.25-2.05,1.92-4.57,2.51-7.33a110.4,110.4,0,0,1,4.78-18.36c1.69-4.89,3.67-10.06,6.62-14.34a18.87,18.87,0,0,0,2.05-3.5ZM144.79,476.51l.12.57a23.71,23.71,0,0,1,5.88,3.88,169.63,169.63,0,0,1,34.33,44.67c2.62,5.52,5.87,10.71,8.54,16.19l.58.2c-4.31-14.42-13.3-28.22-22.56-40a206.86,206.86,0,0,0-15.48-17.47C152.8,481.9,149.07,477.5,144.79,476.51Zm113.47,21.15c-2.7,1.37-5.83,2.64-8,4.72a47,47,0,0,0,7.52-3.48Zm-8,4.72c-1.25-.37-1.81-.06-1.69.95C249.4,503.8,250,503.48,250.23,502.38Zm8.1-2.07h-.18c-.4.06-.68.43-.85,1.11,1.25.45,1.81.15,1.68-.88a1.63,1.63,0,0,0-.65-.24Zm-1,1.12a1.37,1.37,0,0,0-2,1C256.39,502.79,257,502.45,257.3,501.43Zm-2,1q-1.92-.6-1.71.93Q254.91,504.12,255.32,502.45Zm14.14,8.26c-.45.53-.9,1.07-1.33,1.61a2.59,2.59,0,0,1,1.24,2.19c.7-.72,2.71-1.64,2.53-2.79a17.69,17.69,0,0,0-2.44-1Zm-4.19,1.63a6.32,6.32,0,0,0-3.63,2.36q-.11,1,1.8.84h0a16.38,16.38,0,0,1-2,3,12.39,12.39,0,0,0,5-4.12h0l-2,.26c.31-.77.61-1.54.88-2.32Zm20.18.35h0c2.83.53,5.52,2.47,8.42,3.2,5.91,2.82,12.11,3.36,18.52,4,2.44.3,5.71-.57,7.87.54.44,1.2-.49,2.56-.75,3.77,2.61-1,.1-4.93,3.57-4.78-.36,2-.26,4.73-1.92,6-5.14.84-10.43,0-15.51.28a49.2,49.2,0,0,0-8,8.92c-.67.85-1.91,2.55-3.13,1.74-.41-1.8,2.65-3,2.86-5a12.89,12.89,0,0,0-4.36,4.71,18,18,0,0,1-3.51-.28l-.34-1.37c-1.38,1.68-4.47.5-6-.48-2.18.25-3.46.38-4.16-2.1a9.73,9.73,0,0,1-2.52.55c-.36-1.17,1.26-2.1,1.93-2.9,2.67-2.2,4.32-5.93,7.47-7.2a53.68,53.68,0,0,1-1.22,5.9c2.53.22,0,1.69,1.72,2.9,1.38-.23,3.41-6.31,4.1-2.11,1.07-.15,1.34-1.35,1.48-2.24-2.53-.42.07-1.95-1.65-3.33-1.58.49-2.07,3.57-4,3.83.8-1.95,2.5-5.69,4.75-6.06v-.63c-2.48-2.05-5.75-4.28-5.62-7.9Zm11.92,18.71a14.2,14.2,0,0,0,3.73-4,4.54,4.54,0,0,1,0-3.63q-1.89,1.37-3.83,2.67l-.08-1.65c-2.05.66-4.07,3.64-5.09,5.53h0l2.44-.77-.33,1.88c1-.7,2.11-1.35,3.19-2h0Zm41.12-17.74h.93c.63,2.38.24,5.22,0,7.65l-1,.09a24.06,24.06,0,0,1,.11-7.76Zm-2.07,1h0l.9,0c.23,2.37.62,5.25-.18,7.52a16.15,16.15,0,0,1-4.68,1.38,3.76,3.76,0,0,1-1.14-4l.76.06c.18.86.53,1.37,1.07,1.53-.23-1.64,0-5.26,2.13-5.49a21.16,21.16,0,0,1,.19,5.39l.66,0a27.15,27.15,0,0,1,.29-6.43Zm-6.36,3a1,1,0,0,1,.33,0c.73,2-.48,4.61-1.16,6.55h-.88a11.76,11.76,0,0,1-.23-2.37l-.61,0c0,1.7.17,3.53-2.16,3.39-.2-1.9,1.2-4.89,2.09-6.64l.72,0q.13,1.68,1,1.5c-.09-1.64.22-2.49.94-2.54Zm-5.18,2c1.37.11-.24,5.22-1.37,4.46-.6-1.25.35-3.32,1.05-4.41a.63.63,0,0,1,.32-.05Zm-30.45,3.73a1.87,1.87,0,0,0-.86.35c-.69,1-.51,1.55.55,1.63C295.42,524.85,295.44,523.31,294.43,523.39Zm131.46,61.16q-3.09,1.43-6.21,2.78c1-.54,2-1.06,3-1.55A16.11,16.11,0,0,1,425.89,584.55Z"/></g></g></svg>