<svg xmlns="http://www.w3.org/2000/svg" viewBox="0 0 395.26 390.33"><title>paul</title><g id="Layer_2" data-name="Layer 2"><g id="Layer_1-2" data-name="Layer 1"><path d="M177.93,151.88h-5.84a46.69,46.69,0,0,1-6.24-1,40.86,40.86,0,0,0,8.49.9h.5q.75.06,1.5.06c1.13,0,2.26-.09,3.36-.18s2.19-.17,3.29-.17c.37,0,.75,0,1.12,0l.51,0,.07-1.48h-4.47a59.85,59.85,0,0,1-12-.9l-.19,0a53.55,53.55,0,0,1-10.83-3.16,5.15,5.15,0,0,1-2.47-1.88,26.24,26.24,0,0,1,2.38-14.26,25.22,25.22,0,0,1,6.33-5.57l1.39,0c1,0,1.92,0,2.88,0a29.5,29.5,0,0,1,5.19.37c1.07.11,2.09.14,3.09.18a20.58,20.58,0,0,1,6.15.85c.58.22,1.22.41,1.86.6a12.31,12.31,0,0,1,4,1.69c1,1.08,2,2.39,3,3.66a35.67,35.67,0,0,0,4.24,4.93l0,0,.05,0a2.22,2.22,0,0,0,1.1.31c1.37,0,2.27-1.44,2.35-2.82.2-2.25-1.59-3.56-3.18-4.45-.86-.45-1.68-.91-2.49-1.37s-1.62-.91-2.44-1.33a40.12,40.12,0,0,1,7.32,4c1,.85,1.2,2.74.92,4.18a67.6,67.6,0,0,1-6.88,12c-.25.36-.48.72-.71,1.07-.84,1.33-1.51,2.37-3.12,2.81A44,44,0,0,1,177.93,151.88Zm.83-6.94a2.21,2.21,0,0,0-1.28.4l-.09.08,0,.12a1,1,0,0,0,.1.89,1.56,1.56,0,0,0,1.33.5,2.91,2.91,0,0,0,1.56-.38l.12-.09,0-.14a.89.89,0,0,0-.1-.84,1.77,1.77,0,0,0-1.47-.54Zm-5-2.47a1.23,1.23,0,0,0,.34.91,2.35,2.35,0,0,0,1.74.52,13.39,13.39,0,0,0,1.68-.14l.41-.06.23,0,.13-.18a2.74,2.74,0,0,1,1.52-.92,4,4,0,0,0,1.93-1.14,3.83,3.83,0,0,0,.95-3.57,3.17,3.17,0,0,0-2.06-2.43,3.57,3.57,0,0,0-1.32-.4,17,17,0,0,1,2.47-.21H182a8.53,8.53,0,0,1,1.78.85h-.38l-.15.26a2.73,2.73,0,0,0,.93,3.28l.3.17a6.78,6.78,0,0,0,3.17,1.1,3.59,3.59,0,0,0,1.39-.28,7.45,7.45,0,0,0,1.22.86l1.12.63-.4-1.22a7.42,7.42,0,0,0-2.24-2.94,12.55,12.55,0,0,1-1.15-1.17l-.6-.58c-2.3-2.21-4.9-4.7-8.38-4.7h-.35a2.59,2.59,0,0,0-.44,0h0a8.05,8.05,0,0,0-4.5,1.62c-.46.28-.92.58-1.43.84-1.5.88-4.1,2.7-4.8,5.08l0,.13,0,.13c.24,1.06,1.62,1.74,2.52,2.19l.37.18h.12c1.19,0,1.54-1.32,1.78-2.18a5.89,5.89,0,0,1,.18-.58,2.83,2.83,0,0,1,.44-.57,2.49,2.49,0,0,0,.81-1.49l.05.17a8.6,8.6,0,0,1,.21,1.71c.09,1.34.18,2.73,1.65,3.7a3,3,0,0,0,1.05.46l.38.12a6.48,6.48,0,0,1-2.22-.56l-.66-.26ZM181,126.71a25.55,25.55,0,0,0-10.81,2.35c-1.53.8-3.58,2.06-3.92,3.94l-.2,1.06.94-.54a9.57,9.57,0,0,0,1.7-1.36,8.77,8.77,0,0,1,1.57-1.26,21.07,21.07,0,0,1,6.14-2.32l1.35-.36c.47,0,1,0,1.44,0l1.56,0,1.59,0h.95l0-1.41-.47,0c-.55,0-1.1-.06-1.64-.07ZM162.72,150c-1.3-.36-2.55-.75-3.74-1.13-2-.65-4.9-1.76-6-3.71A37.43,37.43,0,0,1,151.88,133a10.86,10.86,0,0,0,.18,1.38c.09,1,.1,2,.11,3.11,0,2.87.06,5.83,1.72,8.41l.06.09.09.06A34.66,34.66,0,0,0,162.72,150Zm10.53-13.87a1,1,0,0,0-.13-.31l-.07-.11-.1-.06a1.19,1.19,0,0,0-.58-.17,10.33,10.33,0,0,1,1.36-.63A2.22,2.22,0,0,0,173.25,136.14Zm-20.93-8.22c0-1.38,1.31-2.66,2.35-3.7l.39-.39a11.56,11.56,0,0,1,5.68-1.11h1l-2.58.08a6.84,6.84,0,0,0-6.28,3.82,26.27,26.27,0,0,0-.72,2.67Zm25.71-4.6c-.3,0-.61,0-.92,0H177c-.44-.09-.9-.18-1.36-.25C176.43,123.12,177.24,123.21,178,123.32Z"/><path d="M150.72,145.83c-.32,0-.38-.09-.38-.09s-.06-.28.11-.88c0,.09.05.18.07.27C150.58,145.38,150.65,145.61,150.72,145.83Zm-.67-2a1.14,1.14,0,0,1-.53-.34h0A.66.66,0,0,1,150.05,143.8Z"/><path d="M179.73,140.36a2.68,2.68,0,0,1,.84-1.53.36.36,0,0,1,.06.28C180.6,139.65,180.09,140.35,179.73,140.36Z"/><path d="M148.47,136.68l.48,0a.69.69,0,0,1-.14.49,1,1,0,0,1-.4.28Z"/><path d="M191.4,230.36a6.17,6.17,0,0,1,.81-.68l.15-.11.27-.08.07,0A3.08,3.08,0,0,1,191.4,230.36Z"/><path d="M233.76,141.59a3,3,0,0,0-.46-2.31l-.18-.28-.32.05c-1.1.19-1.29,1.18-1.41,1.84l-.15-1.19-1,.14a2.72,2.72,0,0,1,.44-.76,2.93,2.93,0,0,1,2-1h.39a3,3,0,0,1,1.16.33c.89.67,1,1.74.18,3.15Z"/><path d="M233.23,156.64v.48a31.84,31.84,0,0,1,5,0v-.46A34.21,34.21,0,0,1,233.23,156.64Z"/><path d="M149,141c-.61,0-1-.16-1-.27s0-.11,0-.22a2.51,2.51,0,0,1,1.29.47l-.31,0Z"/><path d="M226.26,155.58l0,.39a15.26,15.26,0,0,0,5,.6l0-.38c-1.87.31-3.33-.61-5.1-.61Z"/><path d="M215.73,335.06a6.74,6.74,0,0,1,.48-1.8v.32C216.19,334.62,216.11,335,215.73,335.06Zm1.93-1c0-.25,0-.5,0-.77v-.52l-1.23,0c.12-.28.26-.58.41-.9a.92.92,0,0,0,.9.73.75.75,0,0,0,.21,0l.24,0C218,333,217.84,333.54,217.66,334Zm.64-2.2a4.24,4.24,0,0,1,0-.57A2.73,2.73,0,0,1,218.3,331.82Z"/><path d="M220.29,333.91a2,2,0,0,1-.57-1.16,1.32,1.32,0,0,0,.7.51l.75.22-.11-.77a4.58,4.58,0,0,1,.46-2.86l.1-.11a14.15,14.15,0,0,1,0,2.93l0,.4.76.23A8.38,8.38,0,0,1,220.29,333.91Zm2.79-1.76c0-.73,0-1.37,0-1.91A11.07,11.07,0,0,1,223.08,332.15Z"/><path d="M224.49,331.4a15.61,15.61,0,0,1,.06-2.57A14.81,14.81,0,0,1,224.49,331.4Z"/><path d="M154,149c-.5-.18-1-.37-1.53-.5s-.62-.4-.77-1a2.45,2.45,0,0,1,1.58.86A6.3,6.3,0,0,0,154,149Z"/><path d="M203.91,256.7a2.44,2.44,0,0,1,0-.6C203.94,256.28,203.93,256.5,203.91,256.7Z"/><path d="M259.62,287.22c-.13-.45-.31-.83-.56-.87a.64.64,0,0,0-.51.18C258.5,287.15,258.92,287.37,259.62,287.22Z"/><path d="M148.93,133.93c-.86-.05-1.79-.07-2.86-.07-.9,0-1.79,0-2.68,0h-.66a23.24,23.24,0,0,1,.34-6.3c.19-1.26.37-2.56.44-3.91a28.32,28.32,0,0,1,5.9-.58c.82,0,1.67,0,2.52-.09-.16.15-.34.3-.52.44l-.16.13c-.26,0-.5,0-.74-.07a7.89,7.89,0,0,0-1.09-.1,1.64,1.64,0,0,0-1.66.9l0,.08v.09a1.42,1.42,0,0,0,0,.47h-.3a2,2,0,0,0-1.64.56,1.07,1.07,0,0,0-.1,1l.09.27.28.06a10.32,10.32,0,0,0,1.95.2,3.55,3.55,0,0,0-1.39.3l-.16.09-.07.17a1.17,1.17,0,0,0,.07,1.11c.36.52,1.15.59,1.87.59H149l.47,0c0,.55-.06,1-.3,1.08-.43,0-.91,0-1.38.07a17.6,17.6,0,0,0-2.38.19l-.41.07,0,1.57.48,0,1.28,0c.75,0,1.47,0,2.2.13C149,133,149,133.46,148.93,133.93Z"/><path d="M194.63,342.87a2.88,2.88,0,0,1,.77-1,4.69,4.69,0,0,0,1-1.43l.3-.23a11.47,11.47,0,0,0,.95-.82,26.41,26.41,0,0,0-1.83,2.41l-.05.06C195.56,342.15,195,342.84,194.63,342.87Zm-1.8-.36a12.5,12.5,0,0,1-1.71-.14l-.39-1.58-.63.76a1.22,1.22,0,0,1-1,.4,5,5,0,0,1-2.44-.83l-.15-.09-.17,0c-.39,0-.73.08-1,.08-.58,0-1-.08-1.28-1.16l-.15-.51-.5.18a5.79,5.79,0,0,1-.93.25,6.07,6.07,0,0,1,.57-.56c.19-.18.37-.35.51-.51a13.9,13.9,0,0,0,1.93-2.09,12.06,12.06,0,0,1,2.15-2.23c-.12.69-.29,1.36-.46,2.07-.07.31-.35,1.49-.35,1.49l.57.05a1.34,1.34,0,0,1,.41.08s-.05.09-.06.15a1.46,1.46,0,0,0,.58,1.66l.17.12.21,0c.56-.09,1-.73,1.49-1.48.18-.25.44-.64.63-.85a4.26,4.26,0,0,1,.11.47l.07.48.49-.06a1.62,1.62,0,0,0,.47-.15l-.4.58h1a5.13,5.13,0,0,0,1.13-.14l-.07,1.71.82-.55a10,10,0,0,1,1.57-.88v.07l-.09.06a8.74,8.74,0,0,0-3,3.16Zm5.79-4.19a8.27,8.27,0,0,0,.65-1.05l.09-.19-.07-.2a2.67,2.67,0,0,1-.11-2.15l.54-1.51-1.3.94c-.62.45-1.27.89-1.92,1.33l-.06-1.14-.62.2a3.07,3.07,0,0,0-.75.37,1.42,1.42,0,0,0,0-.36.92.92,0,0,0-.92-.76h-.09a1.7,1.7,0,0,0-.83.32l-.08.05,0,.08a1.37,1.37,0,0,0-.28,1.33,1,1,0,0,0,.89.55c-.34.38-.65.78-.93,1.16a3.71,3.71,0,0,0,.12-.6l.08-.49-.49-.08c-.33-.05-.4-.12-.4-.12s0-.17.06-.26a1.65,1.65,0,0,0-.55-1.8l-.21-.16-.26.08a1.22,1.22,0,0,0-.33.14,2,2,0,0,1,1.09-.7l.43-.07,0-1.09-.71-.58c-1.4-1.13-2.85-2.3-3.1-3.94a17.77,17.77,0,0,1,2.29.93,16.55,16.55,0,0,0,2.81,1.1c3.86,1.85,7.91,2.27,12.19,2.72l.55.05a6.57,6.57,0,0,0,.91.05c.38,0,.78,0,1.19,0s.79,0,1.18,0a4.76,4.76,0,0,1,1.73.25,2.88,2.88,0,0,1-.29,1.23,5.78,5.78,0,0,0-.29.89l-.14.67c-.62.05-1.28.07-2,.07h0c-.87,0-1.74,0-2.61-.06s-1.74-.05-2.6-.05c-.56,0-1.11,0-1.66,0h-.17l-.13.12C200.36,336.53,199.44,337.44,198.62,338.32Zm12.8-3a2.21,2.21,0,0,0,1.29-2.15c.07-.6.12-.89.38-1,0,.11,0,.22,0,.33a4.53,4.53,0,0,1-.9,2.76c-.27.05-.54.08-.83.11Z"/><path d="M214.35,334a4.1,4.1,0,0,1,.41-1.31A4.88,4.88,0,0,1,214.35,334Z"/><path d="M230.9,144.32a3.21,3.21,0,0,1-.72-.24Z"/><path d="M233.74,154.83a26.85,26.85,0,0,1-6.05-.91l-1.1-.25a12.77,12.77,0,0,1-6.54-4c-2.79-4.41-3.59-9.43-4-13.75a7,7,0,0,1,0-.81,2.92,2.92,0,0,0-.69-2.42l.16-.13c.59-.45,1.12-.94,1.64-1.41a10.71,10.71,0,0,1,4.17-2.7,1.8,1.8,0,0,1,.5.58l.18.3.34-.06.65-.14a7.12,7.12,0,0,1,.94-.19,6.14,6.14,0,0,1-1.74.39,6.88,6.88,0,0,0-.84.13l-.23.07-.09.22a1,1,0,0,0,0,.88c.31.58,1.16.74,1.85.87l.45.1c1.88.27,3.66.68,5.38,1.08,1.2.28,2.44.57,3.68.8l.27,0a9.81,9.81,0,0,0,1.1.08,2,2,0,0,0,2.18-1.3l.15-.46-.45-.17a19.84,19.84,0,0,0-2.92-.74c.67-.06,1.35-.09,2-.09a18.88,18.88,0,0,1,6.58,1.12,32.49,32.49,0,0,0,5.33,3.09,35.51,35.51,0,0,1,4.62,2.58l.05,0,0,0a8.7,8.7,0,0,1,2.14,1.36,10.08,10.08,0,0,0,2.32,1.48l.94.37-.27-1a3.52,3.52,0,0,0-.73-1.32c-.36-.45-.73-.89-1.1-1.32,1,1,1.85,2,2.65,3a3.23,3.23,0,0,1,.31.52c.32.61.71,1.37,1.48,1.37a1.31,1.31,0,0,0,.72-.25l.21-.15v-.26a3.82,3.82,0,0,0-.52-1.79c-.32-.65-.48-1,.08-1.5,1.47,1.44,1.39,3,1.3,4.92a17.13,17.13,0,0,0,0,2.49c.16,1.5-.64,2.71-1.48,4-.28.42-.56.84-.8,1.27-.82,1.64-3.3,2.06-5.3,2.4-.44.08-.86.15-1.23.23-4.42,1.16-9.29,1.2-14,1.23-1.26,0-2.51,0-3.74,0Zm7.72-12.38c.32.26.64.55.95.84s.65.6,1,.87a13.45,13.45,0,0,1,4.37,6.73l.09.31,1.35.2.05-.53c.24-2.93-2-5.44-3.83-7.46l-.29-.33a45.37,45.37,0,0,0-11.38-8l-.17-.07a13.5,13.5,0,0,0-4.62-1.22h0a5,5,0,0,0-2.29.5c-.76.37-1.54.73-2.33,1.08-1.38.63-2.81,1.28-4.15,2.06a4.14,4.14,0,0,0-1.91,3.91v.44l.44,0h.18c1,0,1.83-.86,2.56-1.63a6.77,6.77,0,0,1,1-.89c.43-.32.84-.66,1.26-1,1.67-1.36,3.41-2.77,5.36-2.77a3.81,3.81,0,0,1,.95.12,25.17,25.17,0,0,0-7.31,5.11,7.87,7.87,0,0,0-2.23,3.25l-.3.92.92-.29a4.06,4.06,0,0,0,1.33-.74l.3,1.21.24.09c3.64,1.42,7.87,2.94,12,2.94A14.49,14.49,0,0,0,237,148h.06l.95-.38a20.46,20.46,0,0,0,4.66-2.37l.24-.19-.05-.3A4.7,4.7,0,0,0,241.46,142.45ZM230,148.81a2.54,2.54,0,0,0,2.33,1.24l.53.06h.72l1.48,0,1.45,0h1l.52,0,0-1.42h-.7c-.52,0-1,0-1.53,0l-1.43,0a9.22,9.22,0,0,1-3.71-.64l-1.3-.56Zm4.7-2.48a14,14,0,0,1-2.29-.2,4.55,4.55,0,0,0,1.18-.39,8.15,8.15,0,0,0,3.15-4.33l.21,1.21,0,.22.61.35c1.07.61,1.72,1.05,1.51,1.85A6.94,6.94,0,0,1,234.7,146.33Zm-6.08-1c-.53-.15-1.06-.32-1.57-.49a23.69,23.69,0,0,0-4-1l-.49-.06.32-.29a7.12,7.12,0,0,1,.87-.71c.28-.09.55-.15.81-.21a3.24,3.24,0,0,0,2.52-1.58,2.61,2.61,0,0,0,.3-.46,5,5,0,0,0,.17,3.47A3.35,3.35,0,0,0,228.62,145.3Zm-17.37-12.66c-.22-.12-.29-.21-.3-.24a3.52,3.52,0,0,1,1.14-.16,9.38,9.38,0,0,1,1.56.16,19.81,19.81,0,0,0-2.08.2Zm49.07-.7c-2.7-2.54-6.22-3.41-9.62-4.24l-.14,0c-.42-.09-.84-.2-1.27-.32a14.4,14.4,0,0,0-3.6-.63,5.92,5.92,0,0,0-1,.08l-.35.06-.06.34c-.23,1.26,1,1.93,1.81,2.41a5.31,5.31,0,0,1,.91.6l1,.81a34.48,34.48,0,0,0-7.3-4.21l-.17-.07-.83.27-.1.17a4,4,0,0,0-.47,2.24h-.24l-.23-.61a7.94,7.94,0,0,0-.81-1.59l-.1-.16-.19,0a9.54,9.54,0,0,0-2.34-.25c-.69,0-1.41,0-2.09.1s-1.34.08-2,.08h-.67a19.53,19.53,0,0,0-3,.32,16.66,16.66,0,0,1-2.79.31,7.55,7.55,0,0,1-.83,0,22.86,22.86,0,0,1,6.14-.84l.93,0a67.18,67.18,0,0,1,7.5-.46h.11a54.62,54.62,0,0,1,12.22,1.34,27.44,27.44,0,0,1,7.73,2.83l.19.09a3.22,3.22,0,0,1,1.67,1.53Z"/><path d="M216.7,48.26a8.77,8.77,0,0,1,.05-1.5c0-.22.05-.43.06-.62.08-.66.2-1.38.36-2.09-.17,1-.27,2.1-.37,3.14C216.77,47.55,216.73,47.91,216.7,48.26Zm3.2-8.34-1,0a3.77,3.77,0,0,1,.84-.77,2,2,0,0,1,0,1.55C219.79,40.66,219.9,39.92,219.9,39.92Z"/><path d="M215,42.58c-.13-1.78-.28-3.79.55-4.93l1.51.09-.18-.67c-.1-.38-.2-.77-.29-1.16a8.24,8.24,0,0,1,3.51-.79h0a5.44,5.44,0,0,1,2.19.39,5.24,5.24,0,0,1,1.89,2,7.18,7.18,0,0,1-.72-.39,3.88,3.88,0,0,0-2.06-.72,3.18,3.18,0,0,0-.74.09c-3,.74-4.83,3.52-5.65,6.26A.57.57,0,0,0,215,42.58Z"/><path d="M169.48,57.62c.08-.34.16-.68.23-1A5.83,5.83,0,0,1,172,53C171.07,54.56,170.24,56.07,169.48,57.62Z"/><path d="M200.1,390.33A194.26,194.26,0,0,1,75.48,345.25l.65-.67c-4.8-5.66-9.84-11.11-15-16.2-.61-.6-1.21-1.21-1.8-1.82a87.13,87.13,0,0,0-8.24-7.66,6.18,6.18,0,0,1,.91-2,9.2,9.2,0,0,0,.81-1.55,6.66,6.66,0,0,0,.46-1.05A3.44,3.44,0,0,1,54,313a70.35,70.35,0,0,1,11.77,3.59,131,131,0,0,1,14.11,7.3c3.2,1.82,6.51,3.71,9.8,5.33l.63-.74-.51-.72,0,0A81.23,81.23,0,0,0,61.17,313c-1.06-.34-2.17-.57-3.24-.8a27.76,27.76,0,0,1-3.64-.94.35.35,0,0,1,0-.24c0-.12.16-.24.37-.36l3.83-1.95c2.74-1.38,5.57-2.81,8.3-4.34a81.17,81.17,0,0,0,11.31-6.51c2.77-1.79,5.38-3.48,8.07-4.9,5.76-3.59,11.35-7.53,16.75-11.34l2.79-2a.32.32,0,0,1,.17-.07c.21,0,.53.38.75.63l.32.34c.44.58,1,1.19,1.46,1.8a36.06,36.06,0,0,1,2.67,3.48c1.12,1.87,2.42,3.65,3.68,5.37a61.22,61.22,0,0,1,4.06,6c.2.27.35.52.52.78.58.91,1.29,2,2.46,2a2.15,2.15,0,0,0,1.14-.36l.18-.11,0-.2a7.74,7.74,0,0,0-.42-4.39c-.14-.46-.28-.92-.39-1.38.11.17.21.33.32.47a65.22,65.22,0,0,0,4.93,6.31c.8.95,1.6,1.9,2.38,2.86,1.32,1.67,3.55,3.55,5.85,3.8h.12c1.8-.23,1.94-1.39,2.06-2.41,0-.1,0-.21,0-.31s.3.14.43.47l.34.6c2.34,4.1,4.75,8.35,7.9,11.86l.09.1.13,0a2.08,2.08,0,0,0,.62.11,1.16,1.16,0,0,0,1.08-.63,2.5,2.5,0,0,0-.28-2.33c-6.24-8.72-10.16-19.25-13.18-28.41a92.07,92.07,0,0,1-4.51-21.63v-.05l0,0a1.49,1.49,0,0,1,.36-1.15,2.27,2.27,0,0,1,1-.79,71.12,71.12,0,0,0,9.2,33.59,12.42,12.42,0,0,1,.8,1.27,6.18,6.18,0,0,0,1.83,2.29l1.18.74-.45-1.32a75.64,75.64,0,0,0-3.46-8.16,57.68,57.68,0,0,1-4.28-11c-.18-1-.48-2-.76-2.93a25.78,25.78,0,0,1-.79-3.11,13.6,13.6,0,0,1,2.1-.87,11.32,11.32,0,0,0,2.84-1.3,8.65,8.65,0,0,0,1-.64,5.8,5.8,0,0,1,1.4-.82,5.15,5.15,0,0,0,.38,2.53,4.32,4.32,0,0,1,.32,2.48l-.08.35.3.19a3,3,0,0,1,1.06,1.77,7.56,7.56,0,0,0,.39,1.06,63.38,63.38,0,0,0,5,10.08,73.49,73.49,0,0,0,6.33,8.83,81.78,81.78,0,0,1,5.47,7.44c2.81,3.95,5.59,7.54,8.41,10.82l-1,.5c-.36.19-.73.37-1.11.55a18.71,18.71,0,0,0-4.29,2.57,2.68,2.68,0,0,0-.45-.05,1.08,1.08,0,0,0-.83.33,1.22,1.22,0,0,0-.24,1l0,.25.23.12a1.47,1.47,0,0,0,.71.21,1.14,1.14,0,0,0,1.09-.9c.56-.19,1.12-.41,1.66-.65l0,0a1.18,1.18,0,0,0-.23,1l0,.24.22.12a1.46,1.46,0,0,0,.74.22,1.08,1.08,0,0,0,1-.71h.17a1.27,1.27,0,0,0,1.16-.68,1.42,1.42,0,0,0,.34,0,1,1,0,0,0,.77-.32,1.17,1.17,0,0,0,.23-1l0-.24-.21-.13a1.52,1.52,0,0,0-.66-.22h-.28l.24-.12.83-2q3.56,4.13,7.22,7.66a31.77,31.77,0,0,0,5.74,5l1.41,1.05c.23.18.24.31.24.36,0,.24-.19.59-.6,1l-1.19-.25-.19.18a10.37,10.37,0,0,0-2.28,2.91l-.34.73.8,0h.72c.39,0,.78,0,1.16,0h.17l.14-.09a8.56,8.56,0,0,0,1.9-2,7.89,7.89,0,0,1,1.36-1.57l.42.21a11.7,11.7,0,0,1,1.93,1.14,7.4,7.4,0,0,0-.83-.05c-.34,0-.67,0-1,0l-1,.05h-.23l-.14.18c-.39.46-.78.94-1.17,1.42a31.6,31.6,0,0,1-5.53,5.72l-.15.11-.26,1,.37.18a58.1,58.1,0,0,0,14.48,4.38,41.31,41.31,0,0,0,3.06,8.5,54.21,54.21,0,0,1,2.46,6.19l.27.92c1.08,3.65,2.19,7.42,3.56,11l.1.23c.51,1.09,1.14,2.44,2.53,2.44a2.51,2.51,0,0,0,1.05-.25l.14-.06.08-.13a5,5,0,0,0,.28-3.38l0-.22c-.4-2.48-.82-4.93-1.24-7.39-.6-3.47-1.21-7-1.74-10.59l.32.61c.57,1.12,1.16,2.28,2.31,2.28a2.14,2.14,0,0,0,1.21-.44l.12-.08.06-.14a30.94,30.94,0,0,0,1.75-7.66l.07-.47c.66,0,1.35-.06,2-.09a41.57,41.57,0,0,0,6-.51c1.63-.38,3.21-.93,4.74-1.45l1-.33a1.13,1.13,0,0,0,.76-.51,1.26,1.26,0,0,0,.1-1l-.09-.38h-2.4a25.28,25.28,0,0,0-2.94.13,56.55,56.55,0,0,1-12.66,1.3c-2.55,0-5.21-.13-8.12-.39a70.65,70.65,0,0,1,5.63-6.17c.1-.12.2-.22.32-.22a.27.27,0,0,1,.21.12.36.36,0,0,1,.06.3,9.31,9.31,0,0,1-1,1.18,4.89,4.89,0,0,0-1.59,2.92l-.08.69.67-.14c.61-.12.94-.71,1.27-1.27s.61-1,1-1.09a3.57,3.57,0,0,1-.63,1,5.13,5.13,0,0,0-.57.83l-.49,1,1.07-.3c1.25-.35,1.84-1.42,2.41-2.46a4.73,4.73,0,0,1,1.65-2.05c1.09-.13,2.16-.17,3.2-.21a19,19,0,0,0,6.57-1.07A63.6,63.6,0,0,0,226,334l.39-.15-.07-.4a6,6,0,0,0-.19-.76,2.17,2.17,0,0,1-.13-1.32,6.25,6.25,0,0,0,.33-2.31,7.82,7.82,0,0,1,.1-1.4,13.67,13.67,0,0,1,0,3.07l-.06,1.1,1.51.09v-.54c0-.46,0-.93-.06-1.4a17.69,17.69,0,0,1,0-2.82,1.11,1.11,0,0,0,.88.61l.59.07,0-.6c0-.56-.11-1.75.2-2.08a.16.16,0,0,1,.15-.06,1,1,0,0,1,.24,0,14.17,14.17,0,0,1,.22,4.4c0,.61-.05,1.21-.05,1.78v.51l1.78,0v-.47a47.72,47.72,0,0,0-.3-7.29.63.63,0,0,1,.23.36,12.71,12.71,0,0,1,1,4.14c.09.66.17,1.33.3,2,.2,1.1.86,1.27,1.23,1.28H235l-.24-.67a21.91,21.91,0,0,1-.86-3.89,21.15,21.15,0,0,0-1.08-4.5c.16-.23.29-.32.37-.32h0a26.34,26.34,0,0,1,2.37,7.49l0,.26,2,.93-.34-1.08c-.24-.79-.46-1.59-.69-2.38a51.53,51.53,0,0,0-1.95-5.9,1.09,1.09,0,0,1,.19-.95,1.16,1.16,0,0,1,1.33-.45l.59.21.15-1.38c.35.16.72,1,1,1.53a5.15,5.15,0,0,0,.71,1.25,3,3,0,0,1,.47.81c.31.67.65,1.43,1.4,1.47l.67,0-.15-.64a9.76,9.76,0,0,0-1.53-3.16A11.2,11.2,0,0,1,238.1,318a38.35,38.35,0,0,1,3.25-3.84,37.46,37.46,0,0,0,3.55-4.26c.48-.57,1-1.27,1.47-2,1.23-1.8,2.5-3.65,4.22-4.35a14,14,0,0,1,1.16,1.15c.33.34.66.68,1,1l.12.11.17,0c.52.06,1.06.09,1.6.1H255l.33-1.07-.11-.19a13,13,0,0,0-1.37-1.76,8.37,8.37,0,0,1-1.81-2.67,21.4,21.4,0,0,1,2.9-5.51,45.44,45.44,0,0,1,4.56,4.17,3.14,3.14,0,0,0,1.92,1l1,.16-.48-.89a15.19,15.19,0,0,0-3.19-3.64,19,19,0,0,1-2.59-2.75l.26.2a51.1,51.1,0,0,1,5.75,5.09l.09.1.12,0a1.44,1.44,0,0,0,.4.06,1.25,1.25,0,0,0,1.12-.78l.05-.09v-.1c.08-.7-.49-1.17-1-1.59-.35-.29-.61-.52-.66-.7a1.94,1.94,0,0,1,1.11-.37,4,4,0,0,1,1.27.28l1.32.46-1.39-2.28.3,0,.48.53.64.54c.46.88,1,1.34,1.62,1.41l.31,0,.17-.26c4.46-7.07,6.87-14.63,9.12-23.81a36.88,36.88,0,0,0,.18-8.19l0-.65a9.26,9.26,0,0,1,1.79,1.46,10,10,0,0,0,2,1.62c4.66,2.63,9.77,4.9,14.71,7.1,1.93.86,3.84,1.71,5.72,2.58a45.12,45.12,0,0,1,8.49,6.29,66.79,66.79,0,0,0,6.16,4.93c5.33,3.6,11.06,7.71,17.51,12.55a108.48,108.48,0,0,1,10.38,8c.57.53,1.18,1.07,1.8,1.63a37.15,37.15,0,0,1,5.85,6.08c0,.76.14,1.56.26,2.45a196.57,196.57,0,0,1-42.88,39.46,152.13,152.13,0,0,1,12.95-18.18,175.61,175.61,0,0,1,16.59-17.52l.93-.75c1.35-1.11,2.76-2.26,4.34-2.26l1,0-.39-.76a3.44,3.44,0,0,0-.68-.91l-.23-.21-.29.11a23.65,23.65,0,0,0-7.65,5.12,79.74,79.74,0,0,0-7.64,7.15c-.72.73-1.44,1.48-2.18,2.21-10,10.49-17.29,20.17-22.28,29.59A194.34,194.34,0,0,1,200.1,390.33Zm-39.69-9.44a3.17,3.17,0,0,0-1.29.35l-.17.09-.07.18a8.55,8.55,0,0,0-.39,3.41l0,.37.36.09c1.9.46,3.83.91,5.71,1.31l1.12.24-1-1.7-.84-1.43-.35-.52c-.75-1.12-1.59-2.39-3-2.39h-.06Zm-5.82,1.69q.1.74.24,1.47l0,.32,1.8.45-.4-1.42c-.09-.33-.19-.66-.28-1l-.09-.35L154.5,382ZM145,357.24a45.54,45.54,0,0,0,1.58,7.47c.22.81.44,1.61.64,2.41,1.21,4.8,2.61,9.93,4.39,16.17l.08.27,2.47.63-.27-.85c-1.57-5-3-9.54-4.39-13.82-.32-1.31-.75-2.7-1.16-4a34.9,34.9,0,0,1-1.86-8.31l0-.47-1.5,0ZM59.09,319.75a5,5,0,0,0,2.12,1.5,10,10,0,0,1,1.12.58l.91.78a50,50,0,0,1,7.7,7.55,223,223,0,0,1,20.11,26.47l.06.1.09.06c1.27.79,2.55,1.56,3.83,2.33l.68-.7c-1.32-2-2.66-4-4-5.8a322.76,322.76,0,0,0-21.78-26.15,32.1,32.1,0,0,0-4.81-4.25,13.25,13.25,0,0,0-5.5-3.25l-1.46-.43ZM91.41,303l.22.1a16,16,0,0,1,3.9,2.58,115.75,115.75,0,0,1,23.37,30.42c.93,2,2,3.92,3,5.8,1,1.71,1.92,3.47,2.78,5.24l.09.19,1.52.52-.28-.93c-2.53-8.45-7.6-17.45-15.52-27.51a143.92,143.92,0,0,0-10.61-12c-.67-.53-1.3-1.09-2-1.69-1.79-1.61-3.82-3.43-6.08-3.95l-.77-.18Zm80.45,26.37a5.14,5.14,0,0,1-1,1.52l.59.78a13.06,13.06,0,0,0,3.78-2.72l.83-.83-1.58,0a2.53,2.53,0,0,0,.43-1.22v-.66l-.64.1a5.42,5.42,0,0,0-3.14,1.81l-.06.1,0,.12a.89.89,0,0,0,.23.67A1.5,1.5,0,0,0,171.86,329.35Zm4.77-4-.92,1.11-.38.48.55.28c.12.06.47.24.58,1.11l.12,1,.73-.75a4.3,4.3,0,0,1,.52-.41c.66-.47,1.48-1.06,1.35-1.92l0-.26-.23-.11a11.64,11.64,0,0,0-1.74-.72l-.32-.11Zm-9.58-5.91-.33,0h-.15l.92-.46A1.38,1.38,0,0,0,167.05,319.4Zm1.61-1.1a1.73,1.73,0,0,0-.29.41h-.14a1.4,1.4,0,0,0-.5.09Zm-121.9-2.53A194.23,194.23,0,0,1,4.94,195.17C4.94,87.55,92.49,0,200.1,0S395.26,87.55,395.26,195.17a193,193,0,0,1-40.78,119.25,5.41,5.41,0,0,0-1-2c-9.85-11.46-23.64-20.83-34.72-28.36-2.13-1.52-4.16-3.23-6.13-4.88-1.32-1.11-2.68-2.25-4.07-3.34a55.25,55.25,0,0,0-8.12-5c-.73-.39-1.47-.78-2.2-1.19a61.17,61.17,0,0,0-7.09-3.25c-2-.83-4.14-1.69-6.11-2.72a54.2,54.2,0,0,1-7.2-4.95,14.32,14.32,0,0,0-3.64-1.16c-2-.44-4-.87-4.94-2.38a17.51,17.51,0,0,0-4.59-3.95,11.58,11.58,0,0,0-3.94-.9,13.34,13.34,0,0,1-2.9-.54C256.48,249,255,248,253.42,247a2.68,2.68,0,0,1,.28-1.22,5.79,5.79,0,0,0,.3-.95,7.74,7.74,0,0,0,.24-3.54,9.51,9.51,0,0,1,0-2.26,11.32,11.32,0,0,1,1.51-1.88,10.53,10.53,0,0,0,1.74-2.23l0,0,0-.06a46.58,46.58,0,0,0,1.08-11.93A5.09,5.09,0,0,1,259,221a6,6,0,0,0,.44-2.16,2.74,2.74,0,0,0-.71-1.56,2.56,2.56,0,0,1-.45-.75c2.75-1.64,2.57-4.08,2.38-6.66a7.41,7.41,0,0,0-.61-2.75,5.63,5.63,0,0,1-.52-2.58,30.64,30.64,0,0,0,.18-3.29c0-.75,0-1.53.08-2.28a17.48,17.48,0,0,0,5.65-5.23,21.59,21.59,0,0,0,2.93-6.15c.23-.66.47-1.34.73-2a34,34,0,0,0,1.57-7,36.4,36.4,0,0,1,1.37-6.42,18.69,18.69,0,0,0,.67-3.59,21.58,21.58,0,0,1,.47-2.86c.85-3.63.59-7.54.22-11.56a10,10,0,0,0-2.68-5.22,3,3,0,0,0-1.92-.67,7,7,0,0,0-1.76.3,6.19,6.19,0,0,1-1.67.3h-.19l-.24.13-.05,0c.73-1.65,1.76-3.32,3.13-4,.37.08.75.17,1.12.27l.21.05.19-.13c1.52-1,1.89-3.6,2.09-5,.09-1.11.19-2.2.3-3.29a54.83,54.83,0,0,0,.41-9l0-.47-2,0-.09.2-.08-.1-.17,0c-1.87-.41-3.75-.92-5.61-1.43a4.14,4.14,0,0,0,1.17-3.09c-.5-1-1-1.85-1.53-2.68-.33-.55-.66-1.1-1-1.67a.83.83,0,0,0,.32.06,1.16,1.16,0,0,0,.52-.14l.28-.14v-.31a4.56,4.56,0,0,1,.15-1.29c1.58-.59,1.5-1.93,1.43-3a8.35,8.35,0,0,1,0-1c-.32-4.53-2.1-9-3.74-12.8a53.59,53.59,0,0,1,4.91,14.65l.14.93.7-.64c.17-.16.34-.31.5-.44a1.28,1.28,0,0,0,.93.63l.64.1-.06-.64c-.09-.84-.19-1.68-.29-2.52a53.54,53.54,0,0,1-.5-6.12v-.67l-.81.24a.57.57,0,0,0,.11-.11c.52-.56.41-1.67.32-2.66a5.51,5.51,0,0,1,0-.84c0-4.4-1.17-8.15-3-12.42,1.4-3.63,1.5-7.75.32-12.61a17.06,17.06,0,0,0-1.15-3c-.32-.67-.61-1.31-.85-2,.2-.25.49-.33,1-.33h.92a3,3,0,0,0,1.5-.33l.15-.08.07-.16a4.87,4.87,0,0,0-.64-5L264.42,63c-3-3.9-6.15-7.94-9.37-11.82l-.26-.29a36.44,36.44,0,0,0-6.86-6.49,23.16,23.16,0,0,0-6.57-2.76l-.53-.16-.05-.12h-.34c-.32,0-.84,0-1,.41s.09.69.31.94c.07.09.16.19.24.31h0l-.61.43a2.86,2.86,0,0,0-1.14,1.68c-.27.83-.56,1.69-.84,2.54a51.61,51.61,0,0,0-2,7c-.14.79-.31,1.58-.48,2.37a19.64,19.64,0,0,0-.66,7.66,1.91,1.91,0,0,0,1,1.18l.8.4-.08-.88c-.6-7,1.82-14.73,4.13-21.4l.26-.77a15.35,15.35,0,0,1,7,4.53,53.45,53.45,0,0,1,6.16,9.19v0a15.13,15.13,0,0,0-7.27,4.49,47.34,47.34,0,0,1-.43-9.42l0-.53-1.62,0,0,.44c-.16,1.53-.25,3.06-.33,4.54a50.13,50.13,0,0,1-.94,8.39,9.08,9.08,0,0,1-.68,2.7,6.27,6.27,0,0,0-.56,4l.06.17.15.1a5.18,5.18,0,0,0,2.21.66l.71.1c0,.13,0,.26-.08.39a5.12,5.12,0,0,0,.29,2.78l.07.19.18.08a2,2,0,0,0,.8.2,1.66,1.66,0,0,0,.33,0c-.28.74-.54,1.51-.79,2.31-.1.57-.32,2.3.45,3.21a1.52,1.52,0,0,0,1.2.55,2.49,2.49,0,0,0,.53-.07l.42-.1,0-.42a16.16,16.16,0,0,1,2.19-8.66,16.78,16.78,0,0,0-1.73,6.16c0,.14,0,.27,0,.42a3.67,3.67,0,0,0,.49,2.51,1,1,0,0,0,.72.31,1.29,1.29,0,0,0,.46-.09l.32-.12v-.35a24.74,24.74,0,0,1,2.93-11,16,16,0,0,1,4.46-5.62.51.51,0,0,1,.36-.15.77.77,0,0,1,.65.33s0,.1-.08.24c-5.39,4.68-7.09,12.86-7.57,16.16,0,.23,0,.43,0,.66a3.16,3.16,0,0,0,.33,2.34,1.12,1.12,0,0,0,.86.36,1.84,1.84,0,0,0,.39,0l.32-.07.06-.32a9.44,9.44,0,0,0,.15-1.76l1,0,.06-.41a19.38,19.38,0,0,1,1.26-4.56c.06.26.11.6.14.83a3.32,3.32,0,0,0,.42,1.48,44.19,44.19,0,0,0,3.31,5.27,34.39,34.39,0,0,1,4.09,7,14.54,14.54,0,0,0,2.29,4.1,15.8,15.8,0,0,1,.69,5.83c0,.94,0,1.83.06,2.67l0,.39.39.07h.17l-.08.24a6.22,6.22,0,0,0-.19,2.12,61.6,61.6,0,0,0-2.91-7.32l-.6-1.32-.27-.54c-.61-1.23-1.37-2.76-2.67-3.46l-1.42-.77.74,1.44c.37.71.74,1.43,1.11,2.18l-.23,0a1,1,0,0,0-1,.75,4.77,4.77,0,0,1-.62-.17l-.66-.24v.7a17.4,17.4,0,0,0,1.13,5.62c.26.82.53,1.66.74,2.52.13.53.28,1.06.43,1.59l-1.09-.12,0,.58c0,.1,0,.2,0,.3l-1.31-.09,0,.55a15.3,15.3,0,0,0,1.44,6.07,2.47,2.47,0,0,1,.17,1.63c0,.25-.06.5-.07.77v.09l0,.09a7.56,7.56,0,0,0,1.35,2.23l.44.59-.94-.14a12.21,12.21,0,0,0-1.73-.22l-.51,0,0,1.67.16.16a15.14,15.14,0,0,0,2.78,2.13A94,94,0,0,0,251.52,123l-.14,0-.89.35-.08-.53-.33-.07a55.47,55.47,0,0,0-10.45-.91c-1.07,0-2.15,0-3.21-.1l-2.17.06c-5.5.14-10.69.27-16.06,1.72-.52,0-1.17.14-1.79.24a16.92,16.92,0,0,1-2.67.3,4.87,4.87,0,0,1-.89-.07,1.81,1.81,0,0,1,.12-1.19,11.87,11.87,0,0,0,.47-2.84q0-.65.12-1.26c0,.22,0,.44-.05.57a5.79,5.79,0,0,0,0,.89l0,.44H215l-.08-.56a14,14,0,0,1,0-2.43,13.83,13.83,0,0,0,0-2.57l0-.28-.26-.11a1.72,1.72,0,0,0-.7-.16h0c-1.12,0-1.36,1.27-1.54,2.18a5.46,5.46,0,0,1-.19.81,12.92,12.92,0,0,0-.47,4,13.59,13.59,0,0,1-.24,3.1c-1,.17-1.94.25-2.89.34a26.49,26.49,0,0,0-3.48.44l-.34.08-.16,1.06a11.25,11.25,0,0,1-1.23-.21,1.17,1.17,0,0,0,.6-.44.83.83,0,0,0,0-.82l-.1-.19-.18-.06a2.4,2.4,0,0,0,.54-.14l.33-.12v-.34c0-.14,0-.27,0-.4a2.3,2.3,0,0,0-.84-2.25c-1-.66-2.06-1.29-3.09-1.93-3.55-2.2-7.23-4.48-10.59-7-.32-.24-.61-.51-.91-.78a5.64,5.64,0,0,0-2.27-1.5l-.79-.22.17.8a5.2,5.2,0,0,0,1.92,2.58c.21.19.41.36.58.54,1.82,1.51,3.71,3,5.78,4.62l-1.05-.74a22.56,22.56,0,0,1-2.53-2A49.5,49.5,0,0,0,183,110l-.11-.07h-.13a5.7,5.7,0,0,1-1.24-.31,7.29,7.29,0,0,0-1.77-.41h-.14a1.62,1.62,0,0,0-1.66,1.15l-.23.66h.7c.2,0,.45,0,.72,0s.69-.06,1.05-.06c.64,0,.91.1,1,.22a5.87,5.87,0,0,1-1.44.63l-.27.08-.07.28a1.65,1.65,0,0,0,.41,1.37l-.34-.17a8.91,8.91,0,0,0-4-1.15c-.22,0-.44,0-.67,0l-.17,0a3.81,3.81,0,0,0,1.51-1.29l.14-.22-.1-.24c-.5-1.18-1.83-1.41-2.71-1.56l-.3,0a17.48,17.48,0,0,0-2.17-.18,5.17,5.17,0,0,0-3.28,1,34.94,34.94,0,0,0-4.9,4.29,29.45,29.45,0,0,1-5.58,4.71c-4.22.33-8.6.73-13,1.2a3.81,3.81,0,0,1-1.21-2.42,6.59,6.59,0,0,1,1.19-4.66,6.62,6.62,0,0,0,1-4.27c0-.57,0-1.16.05-1.77a11.87,11.87,0,0,1,2.78-3.61,15.93,15.93,0,0,0,2.35-2.76,3.3,3.3,0,0,0-.57-3.33,7.9,7.9,0,0,1-.54-.94,1.65,1.65,0,0,0-1.54-1.13h-.11a3.25,3.25,0,0,0-2,.8c-2.52,2.21-2.84,5.85-2.86,7.31a3,3,0,0,1-.61,1.52,4,4,0,0,0-.75,1.93c0,.51.07,1,.12,1.48a9.44,9.44,0,0,1,.08,2.48,17.64,17.64,0,0,1-.8,1.63,8.52,8.52,0,0,0-1.27,4,6.64,6.64,0,0,0,.29,2.49,12.14,12.14,0,0,1,.27,1.39c-.1.16-.21.32-.32.48a3.87,3.87,0,0,0-.8,1.67l-.08.66.66-.1,1.32-.23.43-.08a16.44,16.44,0,0,1-1.22,3.36,16.28,16.28,0,0,0-1.36,4,44.79,44.79,0,0,0-.57,9.62,3.4,3.4,0,0,0,.47,1.34l-1.22-.65c-1.93-1-3.75-2-6.2-2a10,10,0,0,0-1.52.13c-2,.71-2.4,3.25-2.69,4.94l0,.2c-1.54,9.84-.54,21,2.95,33.12a57.69,57.69,0,0,0,4.54,8.62,10.56,10.56,0,0,0,6.13,5,8.62,8.62,0,0,1,.23,2.46,10.67,10.67,0,0,1-.63,1.27,7.63,7.63,0,0,0-.91,2.16l0,.19.1.16c.25.43.48.86.71,1.3a22.87,22.87,0,0,0-.35,12.82c.49,1.63,1.18,2.44,2.05,2.44a1.36,1.36,0,0,0,.29,0l.33-.07.06-.32a12.08,12.08,0,0,0,.18-1.88l0,0a5.92,5.92,0,0,1,1.87,2.72c.08.65-.37,1-1.11,1.5s-1.78,1.21-1.3,2.61a2,2,0,0,0,1.37,1.11,1.36,1.36,0,0,1,.62.32c-.13.52-.3,1.06-.47,1.61a12.81,12.81,0,0,0-.88,5.06v.12l.07.1a5.23,5.23,0,0,1,.69,2.84,8.44,8.44,0,0,0,.36,2.38l.08.23.23.08a2.47,2.47,0,0,0,.84.13,7.46,7.46,0,0,0,1.07-.1l.23,0a15.9,15.9,0,0,0,1.61,3c.08.89.12,1.79.16,2.66a21.43,21.43,0,0,0,1.15,7.06,14.33,14.33,0,0,0,1.34,3.33c.31.61.6,1.2.85,1.81q-.57.27-1.14.57a10.05,10.05,0,0,1-4.24,1.44,3.71,3.71,0,0,1-1.16-.18,4.24,4.24,0,0,0-.81-.08,8,8,0,0,0-5.83,3.14,6.38,6.38,0,0,1-2.71,1.94,10.38,10.38,0,0,0-2.54,1.55c-.4.38-.78.76-1.16,1.14a36,36,0,0,1-4.54,4,100,100,0,0,1-11.13,5.12c-8.83,2.84-17.19,8.92-24.57,14.27l-1.76,1.28-5,3.23c-6.38,4.18-13,8.5-19.69,12.42-2.2,1.52-4.51,2.85-6.74,4.13a70.79,70.79,0,0,0-9.23,6l-.13.1,0,.16A44.32,44.32,0,0,1,46.76,315.77Zm111-225.45a.36.36,0,0,1-.05.1l-.48.59a52.21,52.21,0,0,0-6.55,9.42,17.78,17.78,0,0,1-2.26,2.78,19.39,19.39,0,0,0-2.3,2.79l0,0,0,.06a7.78,7.78,0,0,0-.24,2.54,7.77,7.77,0,0,1-.11,1.95,8.79,8.79,0,0,1-1,2.47,10.29,10.29,0,0,0-1,2.4c-.07,1.07,0,3.41,1.67,4.11l.09,0h.49a22.16,22.16,0,0,0,3.55-.39c.73-.12,1.5-.25,2.23-.32l1.52-.19a16.54,16.54,0,0,0,5.6-1.28,30.52,30.52,0,0,0,3.9-3.58,31.38,31.38,0,0,1,3.63-3.38c.2-.18.4-.34.6-.5.78-.61,1.86-1.46,1.55-2.69a5.07,5.07,0,0,0-2.25-2.44,7,7,0,0,1-1.43-1.17c1-2.17,4.16-4,5.54-4.85.32-.16.68-.36,1.05-.56a8.27,8.27,0,0,1,3.76-1.38h.34A40.07,40.07,0,0,1,183.87,98a58.79,58.79,0,0,1,5.8,2.52c.87.42,1.75.83,2.62,1.23a16.17,16.17,0,0,1,2.31,1.4,13.65,13.65,0,0,0,3.14,1.77l1.39.48-.81-1.23a8.37,8.37,0,0,0-2.48-2.24l-.45-.29c-3.88-2.44-7.9-5-12.4-6.25a30,30,0,0,0-3-.83c-.24-.06-.49-.11-.73-.18l1.94,0c1.41,0,2.87,0,4.3.13l.42,0,.09-.41a1.57,1.57,0,0,0-.94-2l-.41-.24a21.89,21.89,0,0,0-5.58-1.37c-1.15-.18-2.24-.34-3.28-.61-.1-.3-.18-.6-.27-.89-.14-.48-.28-1-.44-1.42l0-.1-.08-.08a5.31,5.31,0,0,0-2.3-1.17l-.45-.15a.64.64,0,0,1,.17-.43c1.49-1.84,3-3.55,4.44-5.11a3.44,3.44,0,0,0,.77-2.81c0-.16,0-.32,0-.48l.64,0c.41,0,.84.05,1.26.05a3.93,3.93,0,0,0,3.22-1.25,9.2,9.2,0,0,0,.85-1.64,4.85,4.85,0,0,1,1.39-2.1,9.62,9.62,0,0,0,1.23-1.32c.7-.86,1.36-1.66,2.27-1.66a2,2,0,0,1,.57.09c3.28.69,6.44,2.45,9.49,4.15,1.77,1,3.61,2,5.42,2.8l1.08.46c5.95,2.54,11.57,4.94,17.88,6A32.82,32.82,0,0,0,228.45,84c1.24.17,2.52.34,3.77.61a1.53,1.53,0,0,0,.59.1,2,2,0,0,0,1.58-.74,1.43,1.43,0,0,0,.26-1.28l0-.12-.08-.09a7.49,7.49,0,0,0-3.31-1.84,13.19,13.19,0,0,1-1.81-.74l-.59-.29c-2.48-1.25-5.3-2.67-7.2-4.68a105.69,105.69,0,0,1-7.42-8.2l-.38-.45-.07,0a13.15,13.15,0,0,1-2.9-2.61,11.91,11.91,0,0,0-3.74-3.09l-.22-.26A6.21,6.21,0,0,0,205.5,59l-.93-.57.17,1.07q.06.35.15.69a2.05,2.05,0,0,1,0,1.46,1.55,1.55,0,0,1-1.38.71,1.67,1.67,0,0,1-1-.29,1.61,1.61,0,0,0,.63.12,2,2,0,0,0,1.16-.4l.09-.06.06-.09a2.46,2.46,0,0,0-.36-2.61,2.49,2.49,0,0,1-.42-1c.41-.32.8-.65,1.16-1l.23-.22-.1-.31a33.67,33.67,0,0,1-2-13.29,2.14,2.14,0,0,1,.49-1.07,2.19,2.19,0,0,0,.58-1.9l-.1-.38h-.39c-1.21,0-2.08,1.09-2.93,2.11a11.63,11.63,0,0,1-1,1.14,12.23,12.23,0,0,1,4.82-6.64,2.82,2.82,0,0,1,1.86-.62,10.4,10.4,0,0,1,1.83.23,12.37,12.37,0,0,0,2.23.27c-.26.24-.54.47-.83.71a11.41,11.41,0,0,0-1.92,1.83c-2.25,2.81-3.29,5.58-3.06,8.24.07,1.53,1.08,3.17,2.78,3.17a2.81,2.81,0,0,0,1-.18l.33-.12v-.36A2.73,2.73,0,0,0,207.9,48a1.59,1.59,0,0,1-.45-1.41,11.66,11.66,0,0,1,4.76-8c-.08.26-.37,1.29-.37,1.29h-.44l0,.44a17.33,17.33,0,0,0,.54,7A30.44,30.44,0,0,0,214.63,54,37.08,37.08,0,0,1,217,59.45a2.07,2.07,0,0,0,1.31,1.63l.63.25.05-.68c.32-4.69.62-9.12,2.56-13.56a13.29,13.29,0,0,1,6.91-7,2.38,2.38,0,0,1,.89-.19,1.47,1.47,0,0,1,.36,0V40c-.54.55-1.12,1.08-1.67,1.59A21.58,21.58,0,0,0,224.14,46c-2.92,4.37-4.22,8.23-3.88,11.47a5,5,0,0,0,.81,2,3.19,3.19,0,0,1,.67,2v.1l0,.09a2.06,2.06,0,0,1,0,.71,1.55,1.55,0,0,0,.27,1.16,1.09,1.09,0,0,0,.82.31l.34,0,.63-.09-.23-.59c-.9-2.25.13-4,1.32-6.1l.38-.65a13.82,13.82,0,0,1,3.55-3.6,22.56,22.56,0,0,0,2.65-2.33h0c-.59.77-1.25,1.52-1.92,2.3-1.75,2-3.56,4.13-4.42,6.72l-.05.17c-.56,2-1.08,3.87.08,5.91l.13.23,1.63.12,0-.51a20.38,20.38,0,0,1,.7-4.72,10.73,10.73,0,0,0-.43,4l0,.34.34.09a1.82,1.82,0,0,0,.45,0,1.69,1.69,0,0,0,1.39-.85,2.55,2.55,0,0,1,.38-.43,8.21,8.21,0,0,1,1.24-1l.69-.52.05,0,0-.06a4.88,4.88,0,0,0,.47-1.78c0-.21.08-.51.13-.8a2.69,2.69,0,0,0,.36,1.86.74.74,0,0,0,.56.24,1,1,0,0,0,.28,0l.37-.12,0-.39c-.22-3.89,1-7.47,2.16-10.93.47-1.38.95-2.8,1.34-4.22l.18-.7-1.4.14a66.47,66.47,0,0,1,2.8-6.13l.09-.22c.28-.66.69-1.65.27-2.29a1.06,1.06,0,0,0-.95-.44h-.11l-.15,0a4.92,4.92,0,0,0-1.88,2.21,8.05,8.05,0,0,1-.64,1.05,1.37,1.37,0,0,1-.83.71l-.37-.59c-.87-1.38-2.39-2-4.66-2a24.66,24.66,0,0,0-3.42.32l-.53.08a6.06,6.06,0,0,0-3.29-4.83l0,0-.06,0a8.85,8.85,0,0,0-2.74-.46h0a15.84,15.84,0,0,0-5.52,1.22H213a24.18,24.18,0,0,1-5.91-.48,3.13,3.13,0,0,0-.86-.12,5,5,0,0,0-2.49.89l-.29.17a20.74,20.74,0,0,0-6.39,6.08l.06-.12a12.63,12.63,0,0,0,1.22-3.27l.09-.53-.53-.06-.59-.07a10.86,10.86,0,0,0-1.28-.1,3.66,3.66,0,0,0-1.82.44A30.58,30.58,0,0,0,187.55,42c-.13.16-.21.18-.3.18a2.38,2.38,0,0,1-.68-.18,3.68,3.68,0,0,0-.67-.21l-.15,0-.15.07a7.83,7.83,0,0,0-2.09,1.62,10.61,10.61,0,0,1-1.2,1.07l-1.26-.45-.17.06c-1.28.44-2.57.85-3.85,1.27l-.11,0a22.51,22.51,0,0,0-4.81,2.87,25.84,25.84,0,0,1-3.32,2.15l0,0,0,0a3,3,0,0,0-.72,1.14l-.19.38-.19-1-.43,0c-1.21.06-1.73,1.67-2,2.64L165,54c-.23,1-.47,1.86-.72,2.76l-.27,1a9.83,9.83,0,0,0-.09-1.08v-.07l0-.06a1.72,1.72,0,0,0-1.59-1.1,2.15,2.15,0,0,0-2,1.44,42.64,42.64,0,0,0-.18,9.43c.06,1.12.12,2.22.14,3.27a4.09,4.09,0,0,1-1.94.7c-1.38.28-2.94.61-3.42,2l0,.07v.06c-.06,1.15.9,1.65,1.61,2l.51.28a4.51,4.51,0,0,1-.84.86,7.31,7.31,0,0,0-.75.72l-.28.34.3.32c.26.28.51.56.74.83-.77.74-1.61,1.43-2.42,2.11a31,31,0,0,0-3.36,3l-.07.07a42.36,42.36,0,0,0-6,7.71,5.13,5.13,0,0,0-.55,2.84,12.27,12.27,0,0,1-.06,1.24c-.11.2-.23.39-.35.58A7.55,7.55,0,0,0,142.27,98l-.12.68.68-.09c.7-.1,1-.76,1.3-1.35a2.58,2.58,0,0,1,.53-.83,14,14,0,0,0,2.83-4.13,20.84,20.84,0,0,1,1.56-2.69,54.8,54.8,0,0,1,7.38-8.88,9,9,0,0,0,1.64-2.06,6.8,6.8,0,0,1,1.72-2c.19-.18.36-.31.52-.44a3.25,3.25,0,0,0,1.14-1.29l.2-.54-.56-.12c-.71-.16-.84-.36-.86-.4a.19.19,0,0,1,0-.08c.42,0,.83-.07,1.24-.1a17,17,0,0,0,2.33-.26l.13,0,.1-.09a3.81,3.81,0,0,0,1-1.77,3,3,0,0,1,.11-.32c.43,0,.87.06,1.31.07h.19l.15-.12a4.86,4.86,0,0,0,1.88-2.68,46.77,46.77,0,0,1,8.65-17.65c.1-.11.36-.44.39-.47-1.17,2.91-2.39,6.15-2,9.12l.07.49,1.5-.19.22-1.18c.26-1.38.51-2.73.87-4-.66,4.1-.86,8.43.44,12.26a1.92,1.92,0,0,0,1.39,1.49l.21,0,.18-.12a3.7,3.7,0,0,0,1.17-1.68,5,5,0,0,1,.36-.73,9,9,0,0,1,.91-1.49,4.58,4.58,0,0,0,1.18-3.51,9.77,9.77,0,0,0-.68-1.64,5.41,5.41,0,0,1-.75-2.44A10.14,10.14,0,0,1,184,51.37c-.62,2.1-1.07,4.84-.23,7.13.26.58.93,2,2.2,2a1.87,1.87,0,0,0,.61-.11l.25-.08.07-.25a3.91,3.91,0,0,0-.28-2.33,4.32,4.32,0,0,1-.33-1.65c-.14-4.88,2.78-10.74,7.8-15.73,1-.84,1.42-1,1.57-1a.46.46,0,0,0,0,.1,37.11,37.11,0,0,0-4,15l0,.47,1.73.17a24.17,24.17,0,0,0-.32,4.77c0,.88,0,1.79-.05,2.68l0,.53,1.57,0,0-.55c-.24-2.86-.35-5.45.62-8h0a4,4,0,0,1-.27,2,6.05,6.05,0,0,0-.35,2.25,6.56,6.56,0,0,1,0,.86c-.06,1.26-.15,3,1.21,3.4l.33.11a11.33,11.33,0,0,1-1,.59l-.78.43-.07.05-.06.06a3.84,3.84,0,0,0-.65,2.07c0,.2,0,.39-.08.57h-.06a2.57,2.57,0,0,1-1.37-.54,5.72,5.72,0,0,0-1.16-.6l-.08,0h-.34l-1,0-1,0h-.13a2.18,2.18,0,0,0,.88-.29,8.21,8.21,0,0,0,.87-.74c.19-.18.38-.36.57-.51l.17.31c.38.66.85,1.49,1.77,1.49h.19l.59-.08-.17-.56a15.26,15.26,0,0,0-.78-1.89,11.94,11.94,0,0,1-.76-1.88,11.51,11.51,0,0,1-.35-2.24,16.89,16.89,0,0,0-.26-2l0-.17-.14-.11a2.4,2.4,0,0,0-1.5-.54A1.88,1.88,0,0,0,187.32,58a10.53,10.53,0,0,0-.26,3.36c0,.29,0,.58,0,.86l-.49,0a3.4,3.4,0,0,0-2.13.55l-.06,0,0,.07c-.53.79-1.05,1.6-1.57,2.4-.93,1.43-1.89,2.91-2.89,4.31a11.63,11.63,0,0,1-2.32-5,1.85,1.85,0,0,0-1.17-1.7l-.23-.08L176,63c-1.82,1.22-1.26,3.73-.77,5.94a14.57,14.57,0,0,1,.4,2.29l-.86.11a4.43,4.43,0,0,0-2.57.9,5.46,5.46,0,0,1-.74-.59,3.18,3.18,0,0,0-1.93-1h-.15l-.35,0-.08.33a3.22,3.22,0,0,0,.29,2.08,3.56,3.56,0,0,1,.28,1,3,3,0,0,1-1-.62,3,3,0,0,0-1.74-.87h-.18l-.14.12a5.92,5.92,0,0,0-1.35,1.58,9,9,0,0,1-2.13.36l-1,.1-.43.06,0,1.52.46,0,2,.17a4.61,4.61,0,0,1-1.52,1.21c-1,.61-2,1.23-2.24,2.14l-.05.16.06.16c1.05,2.72-.36,4.42-2,6.4a25.17,25.17,0,0,0-1.57,2l-.09.14V89a1.51,1.51,0,0,0,.84,1.14A1.44,1.44,0,0,1,157.72,90.32ZM151.6,94a5.38,5.38,0,0,1-1.27.63l-.63.26-.19.09-.07.2a1.79,1.79,0,0,0,.27,1.61,1.46,1.46,0,0,0,1.16.67,1.3,1.3,0,0,0,.75-.25l.06,0,0-.06c.76-.95,1.58-1.89,2.37-2.79l1.39-1.61a2.23,2.23,0,0,0,.24-2.35,2.7,2.7,0,0,1-.16-1.24,6.84,6.84,0,0,1,2.16-2.65c1.34-1.22,2.72-2.47,2.56-4.24l0-.53-1.16.17-.11.1a73.17,73.17,0,0,0-6.21,6.49c-.79.9-1.58,1.79-2.38,2.66a4.47,4.47,0,0,1-.34.4,7.17,7.17,0,0,0-.59.71h-1a1,1,0,0,1-.3.6.44.44,0,0,1-.26.15v1a1.39,1.39,0,0,0,1-.45,1.9,1.9,0,0,0,.19-.21,1.09,1.09,0,0,0,0,.18l.06.49.76-.1a7.43,7.43,0,0,1,1-.09C151.35,93.76,151.53,93.85,151.6,94ZM172.34,61.9c-1,0-1.51,1.13-1.85,2a4.58,4.58,0,0,1-.29.62l0,.06,0,.08c-.31,1.22-.84,4.26.8,6.15a1.08,1.08,0,0,0,.92.51,1.31,1.31,0,0,0,.95-.45,1.62,1.62,0,0,0,.45-1.19q0-1.29-.06-2.61c0-1.53-.08-3.07-.13-4.6l0-.38L172.7,62a1.2,1.2,0,0,0-.31,0Zm69.45-16.35h-.16c-.8.1-1.2.86-1.47,1.36a37.27,37.27,0,0,0-2.26,10.7c-.09.83-.18,1.66-.29,2.51,0,.68,0,1.28,0,1.87a14.49,14.49,0,0,0,.92,6.71A1.55,1.55,0,0,0,239.59,70l.68.2-.05-.71a78.23,78.23,0,0,1,0-12.71,83.4,83.4,0,0,1-.09,8.59l0,.51,1.59.07-.06-.59a5.4,5.4,0,0,1,.27-3.27,6.63,6.63,0,0,0,0-4c-.08-.37-.17-.75-.23-1.14l1.45.14-.15-.68a6.59,6.59,0,0,1,.29-3.34,13.33,13.33,0,0,0,.44-2.11l0-.49-1.48-.17s-.07,1-.09,1.26l-.09-.22c-.14-.34-.29-.7-.4-1l.48-.12a1.56,1.56,0,0,0,1.06-1.21,3.66,3.66,0,0,0-.63-3.16l-.07-.06-.09,0a1.66,1.66,0,0,0-.42-.12Zm-32,16.53a8.41,8.41,0,0,0,2.62,2.51A11.49,11.49,0,0,1,214.19,66l1.32,1.38L215,65.57a5.16,5.16,0,0,0-.48-1.23c.33.47.67.92,1,1.36l.19.25,1.31-.24.1.06a4,4,0,0,0,1.87.77l.68.06-.36-1.6-.09-.1c-3.44-3.84-6.92-8-8.95-12.65-.11-.18-.18-.34-.26-.5-.29-.61-.68-1.44-1.56-1.46l-.61,0,.11.61c.73,4.09,2.89,8.07,5.18,11.48l-.32-.45a41.8,41.8,0,0,1-4.29-7.86l-.07-.18-.94-.41-.24.31a3,3,0,0,0-.39.84,4.76,4.76,0,0,1-.23.56c-.22-.63-.42-1.27-.62-1.9-.25-.82-.51-1.67-.82-2.49l-.09-.22-1.32-.45,0,.73A14.12,14.12,0,0,0,209.78,62.08ZM262.88,292a4.74,4.74,0,0,1-.88-.74c-.2-.2-.4-.39-.61-.57l-.53-.46-.3-.46H261l.35.4c.14.17.29.33.43.49A11.24,11.24,0,0,1,262.88,292Zm5.2-.07a4.41,4.41,0,0,1-1.21-.93,4.89,4.89,0,0,0-1.45-1.11l-.51-.27a2.15,2.15,0,0,0-.35-.81,30.11,30.11,0,0,0,2.63,1.89,1.91,1.91,0,0,1,.86,1.05A.67.67,0,0,1,268.08,291.92Zm-6.36-3.05a1.86,1.86,0,0,1-.7-.85l.36.05c.15.31.32.61.49.9Zm-2.67-.1a1.3,1.3,0,0,1-.76-.44l0-.06h0A1.36,1.36,0,0,1,259.05,288.77Zm4-1.22a3.31,3.31,0,0,0-1.23-.3h-.38a4.52,4.52,0,0,0-1.07-1.17c-.6-.52-.89-.82-.86-1.05h.07a1,1,0,0,1,.66.31c1,.71,1.88,1.47,2.76,2.19Zm3.14-156.39a1,1,0,0,0,.09.17,1.37,1.37,0,0,0,.95.53l-1.18.08Zm3.8.73c-.49,0-1,0-1.45,0a1.45,1.45,0,0,0,1-.57.8.8,0,0,0,0-.79l-.09-.17-.21-.08h0a2.29,2.29,0,0,0,.59-.33l.06.84C269.94,131.15,270,131.53,270,131.89ZM266.2,130l.59.08a2.19,2.19,0,0,0-.33.12l-.18.07,0,.08Zm-65.64-5.09c-.05-.87-1.19-1.07-1.9-1.19a4.61,4.61,0,0,1-.65-.15l0,0-.06,0c-2.47-.5-4.93-1.18-7.31-1.85-1.34-.37-2.68-.74-4-1.09a37.16,37.16,0,0,0-5.14-.9,42.12,42.12,0,0,1-4.69-.79c-4.78-.36-9.36-.47-14.64-.54l0-.07c1.57-3.31,4.72-4,8.06-4.65l.74-.16,1.13-.31a14.21,14.21,0,0,0,2.49-.82l-.08.23a1,1,0,0,0,.07.91c.31.49,1,.55,1.65.61a2.91,2.91,0,0,1,.82.13,18.49,18.49,0,0,1,4.31,2.57,19,19,0,0,0,4.18,2.52l.78.31-.1-.83a3.91,3.91,0,0,0-1.41-2.33h0q.27.18.54.39a8,8,0,0,0,2.47,1.39l.09,0h.09l.74,0a5.72,5.72,0,0,1,3.53,1.19l.47,1.5.16.1a21.42,21.42,0,0,0,5.11,2.2l.73.21-.09-.75a2.43,2.43,0,0,0-.9-1.61c1.43,1.08,3,2.2,4.6,3.39l.06,0h-.25a3.42,3.42,0,0,0-1.28.23l-.19.07Zm49.09-.44a2.83,2.83,0,0,0,.59-.15l.09,0s0,.07,0,.11Zm-52.87-4a5.65,5.65,0,0,1-.9-.66l-.65-.56c.61.48,1.25,1,1.9,1.45Zm64.39-5.61a10.37,10.37,0,0,1-1.15-3.63,25,25,0,0,0,1,3.15C261.05,114.52,261.11,114.68,261.17,114.84Zm-13.29-41.9a34,34,0,0,1,3.61-9.55c.11-.17.23-.38.35-.58.86-1.46,1.75-3,3.33-3.28.23.35.48.71.74,1.07a13,13,0,0,1,1.53,2.56A20.78,20.78,0,0,0,247.88,72.94Zm-2.45-2.29a19.57,19.57,0,0,1,2.85-5.93l-.39.72A37.17,37.17,0,0,0,245.43,70.65Zm-44.27-10.1a14.69,14.69,0,0,1-2.57-4.69c-.25-.84-.76-1-1-1a1.36,1.36,0,0,0-.82.32l-.16.12,0,.2c-.15.92-.22,1.87-.28,2.79l0,.45a14.89,14.89,0,0,1,.93-5.74l.31-.95-.95.33a4.63,4.63,0,0,0-.65.29,1.74,1.74,0,0,1-.6.25h0a.43.43,0,0,1-.1-.19c.14-.23.28-.48.42-.72a19.23,19.23,0,0,1,2.49-3.61,32.69,32.69,0,0,0,2.51,11l.11.24C200.83,59.93,201,60.24,201.16,60.55Zm40.37-5.29a7.78,7.78,0,0,0-.41-1.43,3.32,3.32,0,0,1-.33-1.87A12.18,12.18,0,0,1,241.53,55.26Zm-16.7-1.9a22.81,22.81,0,0,1,5.66-10.81l.29-.25c1-.9,1.87-1.67,3.18-1.67h.25a4,4,0,0,0-1.58.57,20.34,20.34,0,0,0-6,8A10,10,0,0,1,224.83,53.36Zm16.7-3.71Zm-.14-.57h0Zm-27-.91a18.25,18.25,0,0,1-1.38-7.8l0-.55h0l.39-.14c0,.65,0,1.3,0,1.94a12.45,12.45,0,0,0,.77,5.6A4.56,4.56,0,0,1,214.38,48.17Z"/><path d="M263.65,276.44A1.23,1.23,0,0,1,263,276a.55.55,0,0,1-.11-.29A2.06,2.06,0,0,1,263.65,276.44Z"/><path d="M264.39,84.09a40.48,40.48,0,0,1-3.22-6,12.78,12.78,0,0,1-.79-2.33,9.89,9.89,0,0,0-1.31-3.27l-.1-.14-.16,0a3.19,3.19,0,0,0-.85-.13,2.77,2.77,0,0,0-2,.9,42,42,0,0,1,2.38-4.16l.22-.36c.33-.47.9-1.3,1.38-1.3a.79.79,0,0,1,.49.27c.13.19.37.48.63.79a8.12,8.12,0,0,1,1.38,2,4.06,4.06,0,0,1-.5-.45,2.77,2.77,0,0,0-1.9-1h-.18l-.56,0,.34,1.49.09.1C262.86,73.68,263.89,79.05,264.39,84.09Z"/><path d="M256.89,75.23c1.44,1.07.28,4.45,2,5.14-.58-2.06-.75-4.25-1.45-6.25C256.81,74.25,256.31,74.59,256.89,75.23Z"/><path d="M222.13,57a3.71,3.71,0,0,0-.07-.44,11.22,11.22,0,0,1,.37-2.74,17.87,17.87,0,0,0-.27,3.42Q222.15,57.09,222.13,57Z"/><path d="M229.42,48.44a10.13,10.13,0,0,1,1.78-3.07l.63-.87c.09-.1.25-.27.41-.47a7.39,7.39,0,0,1,1.91-1.76,12.39,12.39,0,0,1-1.59,2.31,20.39,20.39,0,0,0-1.23,1.67c-.18.2-.37.46-.59.74A6.86,6.86,0,0,1,229.42,48.44Z"/><path d="M171.83,67.83a15.59,15.59,0,0,1-.07-2.36A14.93,14.93,0,0,1,171.83,67.83Z"/><path d="M269.06,259.69a1.6,1.6,0,0,0-.48.12c.15.69.58.91,1.28.65C269.76,259.93,269.49,259.67,269.06,259.69Z"/><path d="M141.67,259.1c-.19-.58.08-.91.56-1.47a7,7,0,0,0,.68-.91l.41-.69c-.06.28-.15.56-.23.84a10.67,10.67,0,0,0-.34,1.32C142.71,258.6,142.16,259,141.67,259.1ZM140,257.41a3.61,3.61,0,0,1,3-2.64,3.74,3.74,0,0,1,.42,0,3.17,3.17,0,0,1-.1,1l-1,.2a4,4,0,0,0-1.41.82A4.35,4.35,0,0,1,140,257.41Z"/><path d="M168.83,111.77a4.89,4.89,0,0,1,3-1.07h.2v.08c-.65.19-1.3.4-2,.6Z"/><path d="M274.06,262.13l-.88-.3a11,11,0,0,1-1.93-.78l1.05,0h.42l-.15.15.85.23a1.29,1.29,0,0,1,.83.56h0A.79.79,0,0,1,274.06,262.13Zm-1.13-2.42a3.79,3.79,0,0,1,.86.3c-.18.19-.37.39-.58.59l-.17.17Zm-3.86-1.49c-.77-.51-1.52-1.11-2.26-1.71-.36-.29-.71-.58-1.06-.85l-.57-.47A4.93,4.93,0,0,1,264,254a15.87,15.87,0,0,1,3.65,2.91C268.13,257.35,268.6,257.81,269.07,258.22Z"/><path d="M134.85,272l.62-.15a13.19,13.19,0,0,0,4.27-2.14,17.2,17.2,0,0,1,2.34-1.42,1.37,1.37,0,0,1-.21.19l-.5.35c-2,1.4-4.19,3-6.45,3.35Zm-.1-.33a15,15,0,0,1-.43-2.37l.55-.1a16.12,16.12,0,0,0,5.72-2.55q.79-.5,1.56-.93a2.48,2.48,0,0,1-.1.39,40.64,40.64,0,0,1-5.2,3.5c-.18.11-.35.2-.53.29-.55.28-1.24.63-1.44,1.33Zm-.5-2.89c-.07-.54-.16-1.07-.28-1.61a18.7,18.7,0,0,0,6.81-3c.15-.09.3-.2.44-.3a5.17,5.17,0,0,1,.74-.46.76.76,0,0,1-.18.18,25,25,0,0,1-7.05,4.24l-.23.09Z"/><path d="M137.59,264a5.14,5.14,0,0,1,1.45-.71A4.56,4.56,0,0,1,137.59,264Z"/><path d="M133.72,263.91c.12-.27.78-.51,1.13-.63l.11,0a1.21,1.21,0,0,1,.33-.08h0c.06,0,.1,0,.12,0A2.2,2.2,0,0,1,133.72,263.91Z"/><path d="M146,100.26c0-.51,0-1.15.17-1.37a2.9,2.9,0,0,1,.58.48A2.21,2.21,0,0,1,146,100.26Z"/><path d="M134.12,265.54a3,3,0,0,1,1.25-.42,2.45,2.45,0,0,1-1.21.42Z"/><path d="M211.69,131a10.46,10.46,0,0,1-1.32-.09,2.5,2.5,0,0,1,.72-.08,12.81,12.81,0,0,1,1.38.1h.15A6.81,6.81,0,0,1,211.69,131Zm2.55-1.54-.64.05c-1.08.09-2.08.13-3,.13l-1.2,0h2.18l0-1.1c1.34-.1,2.67-.26,4-.41.79-.09,1.59-.19,2.4-.27l-.66.35a5,5,0,0,0-1.84,1.29,4.05,4.05,0,0,1-1.31,1.05Z"/><path d="M210.73,274.32l-.25,0q-.54,1.18.57,1C211.37,274.62,211.27,274.29,210.73,274.32Z"/><path d="M268.87,289.9a4.57,4.57,0,0,1-1.09-.74,8.62,8.62,0,0,0-.77-.58,11,11,0,0,1-3.2-3.88c-.35-.59-.7-1.18-1.12-1.79h0a20.84,20.84,0,0,0,2.91,2.38l.19.13.22-.06a13.46,13.46,0,0,0,1.68-.62l.35-.15s-.13-.78-.16-1A8.2,8.2,0,0,1,269,284l1,.35-.3-1a2.72,2.72,0,0,0-1.17-1.46,4.24,4.24,0,0,1-.4-.31l1.09.08-.53-1.52.7.1.06.16a2.87,2.87,0,0,0,1.25,1.28,4.93,4.93,0,0,1,.53.37h-.27a4.62,4.62,0,0,1-.74-.06l-1.06-.17.55.92a2.41,2.41,0,0,0,1,.83c.51.27.63.37.61.65C270.52,286.12,269.69,288,268.87,289.9Zm-3.17-8.21-.35-.3a3.67,3.67,0,0,0-1.29-.85l-.2-.5,1.28.1-.3-.75a4,4,0,0,0-.77-1.21l-.17-.19a2.57,2.57,0,0,0,.68-.47l.93.31a2.72,2.72,0,0,1-.38.16l-.53.16.22.52a5.09,5.09,0,0,0,1.05,1.41l.41.45-.79,0Zm6.47-1.05a5.2,5.2,0,0,1-1.31-.54,4.15,4.15,0,0,0-.84-.37l-.2-.05-.17-.26a5.34,5.34,0,0,0-2.77-2.19l-.26-.62.86,0,0-.52a1.65,1.65,0,0,0-.63-1.12,1.89,1.89,0,0,0,.53.08,1.58,1.58,0,0,0,.38,0,6.25,6.25,0,0,1,.64,0,7,7,0,0,1,4.41,1.87.82.82,0,0,1,.5.65,1,1,0,0,1-.3.76,2.34,2.34,0,0,1-1.5-.76,3.16,3.16,0,0,0-2-1h-.56l.06.57a3.29,3.29,0,0,0,2.06,2.76,5.93,5.93,0,0,1,1.17.8Z"/><path d="M168.83,213.75h.47a54.38,54.38,0,0,1,0-5.71l-.52,0h0A31.23,31.23,0,0,1,168.83,213.75Z"/><path d="M238.79,239.13c0-.27,0-.53,0-.8C238.8,238.6,238.79,238.87,238.79,239.13Z"/><path d="M274.75,270a17.33,17.33,0,0,1-4.32-2.24,27,27,0,0,0-2.88-1.69,5.89,5.89,0,0,0-.54-.31,3.51,3.51,0,0,1-1.4-1A11.45,11.45,0,0,1,268,266a12.9,12.9,0,0,0,2.64,1.42,1.14,1.14,0,0,0,.6.15,2,2,0,0,0,1.47-.66,1,1,0,0,0,.19-.82l-.06-.22-.21-.1c-.93-.46-1.86-.91-2.76-1.39.75.35,1.55.66,2.35,1a23.9,23.9,0,0,1,2.49,1.06c0,1,0,1.93,0,2.9Zm-6.65-6.59c-.55-.34-1.09-.7-1.6-1.08a2.48,2.48,0,0,1,.4,0A5.82,5.82,0,0,0,268.1,263.39Zm-1.73-1h0Z"/><path d="M274.77,264.56a12.47,12.47,0,0,1-4-1.66,16.34,16.34,0,0,0-3.41-1.58L267,261l-1.14-.94a7.68,7.68,0,0,0,0-1.78c.49.34,1,.72,1.41,1.09l-.5,0,.05,1.26.25.13a26,26,0,0,0,6.77,2.78A.93.93,0,0,1,274.77,264.56Z"/><path d="M273.86,273.24a18,18,0,0,1-3.22-2,1.16,1.16,0,0,0-.06-1.3l0-.05,0,0-.4-.29c.46.24.94.46,1.41.68a11.86,11.86,0,0,1,2.51,1.41,7.16,7.16,0,0,0,0,1.12c0,.16,0,.36,0,.56Z"/><path d="M236.75,245.21a37.48,37.48,0,0,1,0-4.37,6.2,6.2,0,0,0,.38-1.15c0,.4-.11.8-.17,1.2a13.66,13.66,0,0,0-.21,3.12C236.75,244.42,236.76,244.81,236.75,245.21Z"/><path d="M234.43,247.58a38.87,38.87,0,0,0-.17-6.1l-.82-.06v0c0,2,.25,4.13.35,6.13Z"/><path d="M145.55,205.2c-.37.81-.2,1.17.55,1.07.33-.7.23-1.06-.29-1.08Z"/><polygon points="260.4 283.22 260.42 283.65 260.85 283.61 260.83 283.19 260.4 283.22"/><path d="M261,281.94a.66.66,0,0,1-.17-.12.43.43,0,0,1-.12-.19h0A.91.91,0,0,1,261,281.94Z"/><path d="M229.23,253.06a34.12,34.12,0,0,1-.28-4.18,12.85,12.85,0,0,0-.1-1.63l.69,0c0,.27,0,.54-.08.81a28.46,28.46,0,0,0-.15,5.69.43.43,0,0,1,0,0C229.28,253.53,229.25,253.29,229.23,253.06Z"/><path d="M147.28,203.21a.43.43,0,0,0-.19,0c-.85.11-.09,2.54,0,3.06C148.2,206.6,147.58,203.65,147.28,203.21Z"/><path d="M207.54,328.92c-1.56,0-3.22-.08-4.95-.24-1.76-.53-3.53-.92-5.24-1.29a36.72,36.72,0,0,1-9.38-3c-6.52-2.52-10.52-7.25-14.75-12.25l-1-1.14c-4.61-5.26-8.5-10.7-12.62-16.45-1.27-1.77-2.55-3.56-3.85-5.34a67.61,67.61,0,0,1-8.95-17.48c-1.76-6.3-2.62-11.35-1.46-16.88,1-.54,2-1,3-1.5s1.85-.86,2.76-1.34a4.88,4.88,0,0,1,2.46-.46,9.53,9.53,0,0,0,1.75-.14h0a3.22,3.22,0,0,0-.7,2.3l0,.21.18.11a3,3,0,0,0,1.52.4,6.18,6.18,0,0,0,5.27-4.15,1.86,1.86,0,0,0-.26-1.56,1.13,1.13,0,0,0-.89-.37h-.13l-.13.06a4.72,4.72,0,0,0-1.36,1.31,4.06,4.06,0,0,1-1,1,7.06,7.06,0,0,0,.22-1.78l0-.45-.45,0h-1.27a1.48,1.48,0,0,1-1.49-.72c-3.42-5.43-4.91-11.19-4.23-16.31a17.28,17.28,0,0,1,.07,2.2,13.15,13.15,0,0,0,.5,4.49,4.84,4.84,0,0,1,.14.49c.14.62.39,1.66,1.37,1.66l.25,0,.44-.08,0-.45a14.25,14.25,0,0,0-.43-2.29,13.39,13.39,0,0,1-.4-2.18,1,1,0,0,1,1.08-.78,3.52,3.52,0,0,1,1.15.25l.48.18c0,.66,0,1.3,0,1.92a37.32,37.32,0,0,1,0,5l-.05.5,1.43.12c0,.25-.1,1.27-.1,1.27l1.62,0,0-.55a54.75,54.75,0,0,1,0-7.68l0-.52-1.41,0c0-.45,0-.9,0-1.38v-.48h-1.23a18.59,18.59,0,0,0-.68-3.49c-.1-.36-.19-.73-.28-1.1l-.13-.51-.51.15a2.1,2.1,0,0,0-1.25,1.7,4.89,4.89,0,0,1-.15.48,4.87,4.87,0,0,1,.48-2.14c.11-.27.22-.55.31-.85l.28-.84-.86.2c-1,.21-1.18,1.16-1.33,1.79,0,.08,0,.17-.07.27a1.11,1.11,0,0,0-1.08-.83H150l-.17.18a3.22,3.22,0,0,0-.42.81,3.07,3.07,0,0,1-.19.44c-.44-1.35-.79-2.34-2.56-2.93-.14-.58-.29-1.17-.44-1.75a4.44,4.44,0,0,0,.42.92l.08.13.13.07a3.24,3.24,0,0,1,1,.94,3.29,3.29,0,0,0,1.4,1.17l.41.13.19-.39c.31-.62.57-1.23.84-1.83a12.35,12.35,0,0,1,3.06-4.82,19.34,19.34,0,0,1,3.45-2.57c.69-.44,1.4-.89,2.07-1.39l.23-.17-.11-1.14-.31-.1a2.19,2.19,0,0,0-.73-.12,2.54,2.54,0,0,0-.61.07l.31-.14-.2-.46a1.65,1.65,0,0,0-1.59-1,3.78,3.78,0,0,0-2.66,1.41l-.09.12,0,.68c0,1-.09,1.55-.64,1.81,0-.66,0-1.33,0-2,0-4.06.08-8.26-1.11-12.07l-.07-.21-.19-.09a2.05,2.05,0,0,0-.9-.22,2.63,2.63,0,0,0-1.35.47L149,204a11.61,11.61,0,0,1-1.22-2.58c-.21-.56-.43-1.14-.68-1.66l-.16-.32-.35,0a1.43,1.43,0,0,0-1.28,1.09,23.32,23.32,0,0,0-1.2,4.07,5.32,5.32,0,0,0-.2-2.29l-.13-.37-.39,0-.67.09c.16-.69.38-1.36.6-2a19.26,19.26,0,0,0,.81-3v-.1l0-.09c-.08-.38-.2-.76-.31-1.14a5.35,5.35,0,0,1-.37-2.47c.29-.67.63-1.32,1-2a21.14,21.14,0,0,0,1.64-3.78A9.41,9.41,0,0,0,146,185a13.42,13.42,0,0,1-.11-1.64v-.51h-.51c-.89,0-1.17.89-1.37,1.55a2.83,2.83,0,0,1-.26.67c-.19.3-.35.61-.52.93a4.88,4.88,0,0,1-1.3,1.81c-2.91-.77-4.44-3.49-5.91-6.12-.31-.55-.61-1.09-.92-1.6-2.4-3.37-3.22-7.72-4-11.92-.33-1.72-.67-3.5-1.11-5.16a85,85,0,0,1,.38-21.75,1.55,1.55,0,0,1,.71-.15,9.18,9.18,0,0,1,3.31,1.11c.46.22.88.42,1.24.55a12.08,12.08,0,0,1,1.7.84,7.69,7.69,0,0,0,3.49,1.27,3,3,0,0,0,1.27-.28l.17-.09.07-.18a8.66,8.66,0,0,0,.28-4,13.2,13.2,0,0,1,0-2.42,20,20,0,0,1,3.88,5.75c1.19,2.3,2.42,4.67,4.39,6.25l0,0,0,0c5.49,2.67,11.92,3.74,18.58,4.68,1.62,0,3.19.07,4.84.13s3.57.13,5.36.13a35.21,35.21,0,0,0,9.84-1.13c4.63-1.68,6.67-5.28,8.83-9.1.37-.65.74-1.3,1.13-2,.53-.82,1-1.66,1.42-2.47,1.13-2.07,2.1-3.87,4.25-5.16a2.11,2.11,0,0,1,1.4-.53,4.55,4.55,0,0,1,2.46.82c1.72,2.51,2.46,6,3.1,9.11l.2.95a77.36,77.36,0,0,1,1.78,7.72c.22,1.27.58,2.57.93,3.82a23.47,23.47,0,0,1,1.15,6.15v.47l1.51.08v-.54a23.68,23.68,0,0,0-.63-4.7c0-.36,0-.8,0-1.24a12.58,12.58,0,0,0-.31-3.2c-.36-1.48-.68-3-1-4.53-.1-.51-.21-1-.32-1.54l.36.92c2,4.21,5.67,7,11.67,8.75a36.51,36.51,0,0,0,9.21,1c1.24,0,2.49,0,3.75-.06s2.58-.06,3.9-.06h.48A50.83,50.83,0,0,0,255,157.06c1.09-.22,2.18-.44,3.27-.64a5.13,5.13,0,0,1-.13.66l-.27,1.08,1-.51a3.72,3.72,0,0,0,1.73-1.61c1-1.68,2.89-2.92,4.64-3.93a6.13,6.13,0,0,1,2.27-.59,1.44,1.44,0,0,1,.92.26c.89,1.88.89,2.86.7,3.38a26,26,0,0,0-6.68,5.64l-.3.36c-1.13,1.38-2.2,2.68-2.31,4.67l0,.79,1.31-.53.09-.15a27,27,0,0,1,8.06-9l0,0a14.25,14.25,0,0,1-.27,3.68s-.1-.54-.1-.54h-1.47l0,.51v0l-1.38-.08V161a17,17,0,0,0,.53,3.41,14,14,0,0,1,.49,3.74,18,18,0,0,1-.55,6.53,29.23,29.23,0,0,0-.68,4.41,31,31,0,0,1-1.26,7.05c-.17.64-.33,1.28-.49,1.92-.74,2.74-2.35,4.48-4.21,6.5l-1.24,1.36a17.28,17.28,0,0,1-.95-1.88,14.11,14.11,0,0,0,.16-4.43l-.06-.94c0-.25.38-.53.74-.77a3.74,3.74,0,0,0,.56-.43l.14-.13v-.2a17,17,0,0,0-.62-4.68,27.35,27.35,0,0,1-.56-3,6.38,6.38,0,0,0,2.57-4.85v-.08l0-.07a13.84,13.84,0,0,1-.61-4.76l.16-.62h-1.61l0,.34h-1.25l-.06.43a8.28,8.28,0,0,1-.21,1.06,3.75,3.75,0,0,0,.07,2.71,2,2,0,0,1-.85.53l-.15.06-.09.13a2.72,2.72,0,0,0,.16,2.5,2.92,2.92,0,0,1,.34,1.46,19.88,19.88,0,0,0,.14,3.91,14.62,14.62,0,0,1,0,4.43c-.07-.42-.28-1-1-1l-.24,0-.39.07,0,.39a10.51,10.51,0,0,0,.38,3c.1.48.22,1,.29,1.49-.05.25-.11.49-.17.7a3.37,3.37,0,0,0,.27,3,10.83,10.83,0,0,1,.86,8.7,7.32,7.32,0,0,0-.33,2.26,4.14,4.14,0,0,1-.08-3.16l.09-.44-.51-.8a11.58,11.58,0,0,0-2-2.59l-.17-.15-.22,0a.92.92,0,0,0-.73.47c-.31.58.08,1.39.49,2.24.07.14.16.32.24.5l-.68-.17-.19.17a3.78,3.78,0,0,0-1,2.27,6.34,6.34,0,0,1-.35,1.26l-.39.3a1.88,1.88,0,0,0-1,1.65v.48l.6,0c1.24,0,1.77-1,2.19-1.89.29-.56.56-1.09.94-1.23.29,0,.51.31.82.74a2.81,2.81,0,0,0,1.53,1.23l.53.14c.08.63.2,1.25.33,1.86a10.6,10.6,0,0,1,.26,4.17,3.48,3.48,0,0,1-.84,1.22A3.61,3.61,0,0,0,255,216a3.81,3.81,0,0,0,.66,2.34c.09.17.18.34.26.51a32.46,32.46,0,0,0-.89,5.92,34.55,34.55,0,0,1-.79,5.54,3.82,3.82,0,0,1-1.33-.58,4.38,4.38,0,0,0-2-.78,4,4,0,0,0-1-.13,6.86,6.86,0,0,0-2.07.41,10,10,0,0,1-1.28.33l-.26-.75c-.5-1.47-1.12-3.31-2.66-3.67l-1.22-.29.69,1a10.65,10.65,0,0,1,1.23,3.15,13.7,13.7,0,0,0,.89,2.59l.09.18.18.07a1.93,1.93,0,0,0,.73.13,5.24,5.24,0,0,0,1.56-.33,6,6,0,0,1,.79-.22l.35.23-.27,0-.13.09-.51.3c-.86.48-2,1.14-1.85,2.51.06.87.17,1.79.29,2.69a20,20,0,0,1,.07,6.86,9.28,9.28,0,0,0,.18,3.9c-.33.45-.7.88-1.06,1.3l-.65.76,0-.23c-.08-.4-.18-.81-.27-1.21a17.2,17.2,0,0,1-.39-1.92,5.16,5.16,0,0,1,.32-1.59,6.69,6.69,0,0,0,.36-1.8v-.8a28.52,28.52,0,0,1,.13-4.35l.07-.51-.52,0a1,1,0,0,0-.83.41c0-.08.14-.49.14-.49.72-2,.29-3.61-.16-5.34-.13-.5-.26-1-.37-1.55l0-.24-2-1,.39,1.27a20.87,20.87,0,0,1,.93,3.76l-.06.39c-.38,2.16-.77,4.4.33,6.63.07,1.32.05,2.67,0,4,0,1.47,0,3,.05,4.48l0,.45,1.58,0a9.35,9.35,0,0,0-1,1.66,7.32,7.32,0,0,0-.75,4q0,.33,0,.66v.48l1.48.07v-1.07a5.06,5.06,0,0,1,.42-2.66c1.05-2.12,3.89-3.28,6.18-4.22l.5-.2a95.19,95.19,0,0,1,10.16,6.91l.24.18c1.1,2.28.87,5.34.67,8.05,0,.54-.08,1.07-.11,1.57-1.59,9.87-5.76,20.52-12.38,31.62A80.79,80.79,0,0,1,235.83,316a69.92,69.92,0,0,1-18.28,11.56,33.32,33.32,0,0,1-10,1.37Zm-54.78-77a19.79,19.79,0,0,0-3,1.19c-.58.27-1.15.54-1.73.76a6.07,6.07,0,0,1-.59.27,3.7,3.7,0,0,0-2.14,1.64l0,.07V256c-.52,5.72.78,12.12,4.1,20.12a39,39,0,0,0,5.88,10.75l.93,1.27c2.53,3.48,5.13,7.06,7.78,10.55a118.87,118.87,0,0,0,13.75,17.76,34.22,34.22,0,0,0,12.39,8.39,4.83,4.83,0,0,0,2,.52,3.46,3.46,0,0,0,1.21-.23l.25-.09.06-.26a4.57,4.57,0,0,0-.74-3,8.9,8.9,0,0,1-.52-1.2,43.24,43.24,0,0,1-2-6.13,31.35,31.35,0,0,0-3-8,12.06,12.06,0,0,1,0-3.39c1.08-5.3,1.93-10.65,2.52-15.86.2-3.37.41-6.83.95-10.26l.08-.48-.48-.09a8.28,8.28,0,0,0-1.43-.12,17.36,17.36,0,0,0-2.07.16,17.7,17.7,0,0,1-2.09.16h-.33a16.64,16.64,0,0,1-8.71-2.74,6.72,6.72,0,0,1-1.82-2.09c-.26-.39-.53-.8-.85-1.21a3.31,3.31,0,0,0-.5-.36,4.79,4.79,0,0,1,1.41.48c.25,2.82,2.39,3.66,4.46,4.46l.86.35a16.41,16.41,0,0,0,5.09.78,31.16,31.16,0,0,0,8.23-1.38,8.51,8.51,0,0,0,1.91.23c3.32,0,5.79-2.19,8.19-4.3l.13-.12a6.2,6.2,0,0,0,.56-.58l0-.05a11.52,11.52,0,0,1-.64,1.33,10.78,10.78,0,0,0-.82,1.85l-.18.57.59.07a4,4,0,0,1,.5.09.44.44,0,0,1,0,.1,5.22,5.22,0,0,0-.12.67l-.11,1,.85-.48c3.36-1.9,5.53-6,6.87-8.91a3.89,3.89,0,0,0,.07-3.33,6.68,6.68,0,0,1-.36-1.67v-.28l-.24-.13a1,1,0,0,0-.52-.14c-.73,0-1.06.77-1.3,1.41l-.37-.1a2.12,2.12,0,0,0-.49-.06c-1.31,0-1.71,1.36-2,2.45a4.92,4.92,0,0,1-.49,1.25,30,30,0,0,1-5.33,5.67,2.43,2.43,0,0,0,.51-1.38v-.3l-.26-.15a2.66,2.66,0,0,0-1.34-.33,6.35,6.35,0,0,0-2,.4l.15-1.52-.67.14a61,61,0,0,1-12.45,1.45c-.44,0-.87,0-1.3,0a54.27,54.27,0,0,0,7.62-1.12,4.7,4.7,0,0,1,1.71-.3,14.06,14.06,0,0,1,1.42.09l1.05.1L193.4,267H193a6.32,6.32,0,0,1-1.61-.28,6.73,6.73,0,0,0-1.82-.31,2.55,2.55,0,0,0-.39,0h-.13a6.64,6.64,0,0,0-1.8.3,5.87,5.87,0,0,1-1.41.24,2.74,2.74,0,0,1-.5,0l0-.16a2,2,0,0,0-.86-2.42,7.59,7.59,0,0,0-1-.32h.88l.27,0a1.85,1.85,0,0,1,1.18.57,2.86,2.86,0,0,0,1.87.82h.13a13.85,13.85,0,0,0,5.52-1.25l.07,0,.06-.06a1.49,1.49,0,0,0,.33-1.9c.06.1.13.19.2.29a1.54,1.54,0,0,0,1.24.72,1.73,1.73,0,0,0,.9-.29l.16-.11,0-.18a3.72,3.72,0,0,0-.41-2.32c-.07-.17-.14-.33-.2-.49A30.94,30.94,0,0,0,192,253a2.27,2.27,0,0,0-2-.87c-.34,0-.69,0-1,.07l-.5,0c-.14-.85-.19-1.72-.25-2.56a17.86,17.86,0,0,0-.49-3.75c-.23-.81-.42-1.62-.61-2.42a30.67,30.67,0,0,0-1.17-4.1c-.06-.17-.12-.35-.19-.53a7.38,7.38,0,0,1-.52-1.88,6.68,6.68,0,0,0,2.71-2.55c.16-.23.32-.46.5-.7a22.45,22.45,0,0,0,5.91-2.78c.59-.35,1.17-.71,1.78-1,.34-.22.7-.43,1.07-.65,1.51-.9,3.23-1.91,3.93-3.42l.65-1.43-1.35.78c-.7.4-1.37.84-2,1.27a17.8,17.8,0,0,1-3.76,2.1,3,3,0,0,1-.72-.46,2.29,2.29,0,0,0-1.38-.67,1.1,1.1,0,0,0-.5.11,19.62,19.62,0,0,0-3.63,3.07l.23-.33-.06-.23c-.34-1.22.64-2.06,2.17-3.22a5.47,5.47,0,0,0,2.24-2.44l.22-.82-.82.2c-2.4.56-4.4,2.94-6.09,5.13a15.57,15.57,0,0,0-2.65,6.15c-.17.64-.34,1.29-.55,1.94-.86,3.25-.54,7-.2,10.36a4.85,4.85,0,0,0-.16-.63,39.2,39.2,0,0,1-.63-7.09c0-.76,0-1.52-.08-2.29l0-.34-.32-.11a2,2,0,0,0-.67-.12c-.89,0-1.5.67-1.68,1.84-.13.87-.2,1.72-.25,2.58-.07-.85-.08-1.7-.1-2.59a28,28,0,0,0-.27-3.95l-.07-.43-1.33,0-.09.37a20.12,20.12,0,0,0-.28,6.35l0,.57a21.6,21.6,0,0,1-1.57-4.78l1.27,0-.06-.55c-.34-3.22.38-6.17,1.15-9.3l.36-1.51-.42-.16a1.53,1.53,0,0,0-.41-.07h-.14c-.88.11-1.21,1.17-1.43,1.87,0,.11-.07.22-.11.31a9.85,9.85,0,0,0-.42,1.77.76.76,0,0,1,0-.15,33,33,0,0,1,.89-6.54c.24-1.17.5-2.38.67-3.61l0-.12-.28-.8-1.13-.37a9.1,9.1,0,0,1-3-1.38l-.24-.17-.27.13a16.42,16.42,0,0,0-2.38,1.53,10.94,10.94,0,0,1-3.36,1.91,2.8,2.8,0,0,0-1.78,1.67L164,222l.89-.05a6.56,6.56,0,0,0,2.62-1.07,5.24,5.24,0,0,1,2.05-.86l.45,1.64.31.06a1.61,1.61,0,0,0,.37,0,2.45,2.45,0,0,0,1.4-.53l.23-.15a4.26,4.26,0,0,1-1.12,1.14c-.87.71-1.85,1.52-1.66,2.76a9.15,9.15,0,0,0,.06,1.24,6.34,6.34,0,0,1,0,1.9,19,19,0,0,0-.51,5,26.18,26.18,0,0,1-.17,3.32c-.17,1.16-.26,2.34-.34,3.49-.06.81-.12,1.62-.21,2.42l0,.37a1,1,0,0,0-.66-.27h0l-.21,0-.21,0-.12.19a11,11,0,0,0-1.15,3,13.77,13.77,0,0,1-.62,2c-.47,1.12-.88,2.27-1.28,3.39l-.12.33a1.25,1.25,0,0,0-.31-.71.84.84,0,0,0-.65-.29,1.79,1.79,0,0,0-1,.41l-.06,0,0,.06c-.37.5-.81,1-1.27,1.49a10.63,10.63,0,0,0-2.46,3.53l-.42,1.23,1.14-.63a5.08,5.08,0,0,0,1-.87,4,4,0,0,1,.92-.79,6.47,6.47,0,0,1-.27,1.19,4,4,0,0,0-.24,2.25l.06.2.17.1a2.52,2.52,0,0,0,1.32.39c1.82,0,3.09-2.14,3.76-3.29a3.38,3.38,0,0,0,.5-1.06l.14-.36c0,.89,0,1.79,0,2.67a38.19,38.19,0,0,0,.17,4.65l0,.14.09.11c.77,1,1.3,1.64,2.29,1.64a2.49,2.49,0,0,0,.73-.11c0,.15,0,.3,0,.45a5.63,5.63,0,0,1-.08,2.4,5.43,5.43,0,0,1-.19.57,5.3,5.3,0,0,0-.25.82,9.13,9.13,0,0,1,.15-1.07,10.55,10.55,0,0,0,.17-1.32c-.17-1.25-1.19-1.6-2-1.88a4.78,4.78,0,0,1-.71-.28,5.92,5.92,0,0,1-.62-1.89,7.46,7.46,0,0,0-.61-2l-.06-.12-.12-.08a1.59,1.59,0,0,0-.82-.23,3.79,3.79,0,0,0-2,.85,3.53,3.53,0,0,1-1.42.72,6.42,6.42,0,0,1-.4-.83,3.66,3.66,0,0,0-1.29-1.81l-.12-.07h-2l-.18-1.39-.05-.09a2.8,2.8,0,0,0-1.4-1c-.53-.22-.86-.38-1-.75l0,0,0-.05a3.72,3.72,0,0,1-.29-.71A2.49,2.49,0,0,0,153.1,252l-.17-.07Zm71,39.8a4.2,4.2,0,0,0-1.38,1.26c-3.37,4.63-5.67,10.34-7.48,15.32a71.37,71.37,0,0,0-3.3,11A3.62,3.62,0,0,0,212,322a1.18,1.18,0,0,0,1,.47h.14l.16,0,.13-.11a5.76,5.76,0,0,0,1.65-3.92,13.43,13.43,0,0,1,.21-1.35,74.92,74.92,0,0,1,3.26-12.51,40.57,40.57,0,0,1,4.46-9.68l.27-.4a10.4,10.4,0,0,0,1.19-2.09L225,291ZM202,282.66c-.38,0-1,.25-1.18,1.51a172.56,172.56,0,0,0,.34,24.09l0,.47,1.54,0,0-.46a59.19,59.19,0,0,0,0-6.39c-.07-1.9-.15-3.87,0-5.79-.09-2,0-3.95,0-5.86a62,62,0,0,0,0-7.08l0-.38-.38-.07a.86.86,0,0,0-.22,0H202Zm7.29-7.67a4.84,4.84,0,0,1-.56,1.91,8.57,8.57,0,0,0-.6,1.71l-.11.52.53.08h.23c1.22,0,2-1.26,2.62-2.27.18-.28.33-.55.49-.75a4.25,4.25,0,0,0,.56-1,6.51,6.51,0,0,1,.31-.67,32.83,32.83,0,0,1,0,4.14l0,.5,1.54.07-.1-.61a10.75,10.75,0,0,1,.36-3.83c.12-.52.23-1,.31-1.57L216,273c0,.14,0,.29,0,.42,0,.91-.06,1.87.39,2.33a.86.86,0,0,0,.63.26,1.23,1.23,0,0,0,.36-.06l.33-.12V275l1.37.15v-.57c0-.35,0-.7-.07-1.06a10.16,10.16,0,0,1,0-2.06c.89,2,1.71,3.19,4.17,3.7l1.25.25-.74-1a4.92,4.92,0,0,0-1.16-1.08,2.83,2.83,0,0,1-1-1.06l0,0,0-.05a1.13,1.13,0,0,1-.15-1.25,4.33,4.33,0,0,1,3-1.65,5,5,0,0,1-.21.91,3.43,3.43,0,0,0-.05,2.46l0,.05,0,0c.59.88,1.57,2.35,3,2.35a1.87,1.87,0,0,0,.4,0l.3-.06.08-.3a4.73,4.73,0,0,0,0-2.42l-.08-.35-.36,0a2.68,2.68,0,0,1-1.71-.62c.1-.52.3-.71.46-.78a4.19,4.19,0,0,0,1.74.32h.56a4.84,4.84,0,0,1,.22.55c.28.71.66,1.69,1.72,1.69a2,2,0,0,0,.48-.06l.24-.06.1-.22c.51-1.12-.27-1.87-.9-2.47a2.52,2.52,0,0,1-.95-1.41,6.36,6.36,0,0,0-1.69-7.28,2.56,2.56,0,0,1-.39-.41,2.27,2.27,0,0,0-1.78-1.09H225v.2l-.05,0-.08.27a5.25,5.25,0,0,0,.3,2.27,3.27,3.27,0,0,1,.11,2.52,3.43,3.43,0,0,1-2,1.54c-.34.15-.68.3-1,.48a7.51,7.51,0,0,0-2.27,1.73c-.27.27-.56.55-.87.81a2.19,2.19,0,0,1-1.19-.62,3.05,3.05,0,0,0-2-.87,2.81,2.81,0,0,0-.49.05l-.39.06,0,.39c0,.55-.07,1.11-.09,1.65,0-.14-.07-.27-.11-.4-.39-.85-.93-1-1.31-1a1.43,1.43,0,0,0-.29,0l-.19,0-.12.16a7.46,7.46,0,0,0-.74,1.67,10.81,10.81,0,0,1-.5,1.27,20.58,20.58,0,0,0-.22-2.81l-.06-.31-.29-.09a2.48,2.48,0,0,0-.57-.11h-.13a1.19,1.19,0,0,0-1.19.85l-.22.58c-.87,2.3-2.06,5.42-4.05,6.75l-1.82-.64.09.8c.06.47.12.93.19,1.4l.06.42h.43C206.23,279.13,208.05,276.68,209.27,275Zm25.3-19.84c.06,4.32-.09,8.88-2.61,13.07l-.72,1.2,1.32-.47a3.86,3.86,0,0,0,1.81-1.66,7.3,7.3,0,0,1,.57-.77,4.73,4.73,0,0,1,1.07-.9,5.5,5.5,0,0,0,1.19-1,10.25,10.25,0,0,0,1.5-3.33,19.59,19.59,0,0,1-.54,5.72l-.15.6.9,0a9.13,9.13,0,0,0,2-.23l.15,0,.11-.12a13.16,13.16,0,0,0,2.62-4.6,4.22,4.22,0,0,0,3.21-2.78,4.64,4.64,0,0,0-.78-4.65l-.15-.16h-1.38l.23.81c.68,2.31,1,4-.94,5.1l-.43-.26a7.94,7.94,0,0,0-.78-.46l-.76-.38,0,.85a6.57,6.57,0,0,1-2.21,5.41,28.61,28.61,0,0,0,.34-7l0-.57-.71.13c.72-1.86-.32-4.14-1.16-6l-.43-1-.11-.27-.29,0a14.52,14.52,0,0,0-1.45-.1h-.58l.07.57a6.25,6.25,0,0,0,.63,1.84,4.39,4.39,0,0,1,.56,1.92l0,.56c.12,2.35.27,5.28-.9,7.23a1.54,1.54,0,0,1-.14.23c.11-.71.26-1.41.41-2.09a14.64,14.64,0,0,0,.44-5.66,1.36,1.36,0,0,0-1.45-1.29l-.52,0Zm-20.93,6.75c-1,.5-1.25,1.75-1.46,2.76-.05.19-.08.38-.13.54a3.86,3.86,0,0,0,.18,2.67,1.41,1.41,0,0,0,.92.62l.06,0h.08c2.28-.16,3.61-1.4,4.81-3.23a5.56,5.56,0,0,0,2.64.79,3.09,3.09,0,0,0,2.93-2.15l0-.05v-.06a21.82,21.82,0,0,0,.31-3,16.59,16.59,0,0,1,.45-3.55c.24,0,.47,0,.66,0h1a3.87,3.87,0,0,1,1.51.21c.12.48.25,1,.37,1.43l.06.22.21.11a1.49,1.49,0,0,0,.63.17c.75,0,.88-.72.92-1.18.07.44.12.89.16,1.36l0,.49,1.75-.12.34-1.82c.45-2.33.9-4.72,1.2-7.1.11.82.29,2,1.52,2.21l.62.1,0-.62c-.13-2.13-.1-4.28-.05-6.4a5.61,5.61,0,0,0,.33,1.06,4,4,0,0,1,.33,2.41l0,.69,1.55,0-.05-.54a4.36,4.36,0,0,1,.33-2.5,6,6,0,0,0,.29-1.64c0,.84,0,1.68,0,2.5,0,1,0,2,0,3.06v.45l1.5.12-.06-.6a28.23,28.23,0,0,1-.05-3.56,29.35,29.35,0,0,0-.06-3.74,3.48,3.48,0,0,1,.46-2.05c.09-.18.17-.37.25-.56l0-.08v-.08c.05-.7,0-1.4,0-2.07,0-.51,0-1,0-1.49,0,.3,0,.6,0,.89a11.3,11.3,0,0,0,.6,4.42,17.12,17.12,0,0,1,.15,4.16,18.63,18.63,0,0,0,.12,4.22,1.94,1.94,0,0,0,1,1.19l.81.43-.07-.91c-.16-2-.13-4-.1-6,0-1.29,0-2.61,0-3.92v-.12l-.06-.11a7,7,0,0,1-.58-3.71,9.4,9.4,0,0,0-.35-3.45,14,14,0,0,1-.71-5c0-2.24-.06-4.55-1.78-7a2.37,2.37,0,0,0-1.85-.67l-.63,0-.58,0a2.4,2.4,0,0,1-.58,0l-.36-.54a6.65,6.65,0,0,0-2.15-2.32l-.1-.06h-.32a1.67,1.67,0,0,0-1.42.72,1.9,1.9,0,0,0-.18,1.77,6.31,6.31,0,0,1-.09,3.22c-.07,0-.12-.15-.21-.58-.13-.65-.35-1.73-1.83-1.73h-.21l-.16.15a4.84,4.84,0,0,0-.57.76c-.22.35-.36.55-.56.64q-.13-1-.24-2l-.18-1.57-.75.94a5,5,0,0,1-.56.6l-.49-.88a15.45,15.45,0,0,0-2.74-4l-.82.53a21.86,21.86,0,0,0,2,4,16.37,16.37,0,0,1,2.28,5l0,.16.13.11a1.24,1.24,0,0,0,.84.36,1.92,1.92,0,0,0,1.26-.69l.17-.16a12.66,12.66,0,0,1-1.38,5.08,1.59,1.59,0,0,0,.13,1.46,1.31,1.31,0,0,0,1.1.48,3.21,3.21,0,0,0,1.16-.26c1.91-1.27,2.94-3.72,3.76-5.69.08-.2.16-.4.25-.59a3.64,3.64,0,0,1,.72.19,3.64,3.64,0,0,0,1.17.25,1.93,1.93,0,0,0,1.06-.31l.09-.06.06-.08a2.87,2.87,0,0,0,.31-.7c.05-.13.13-.36.21-.53a13.18,13.18,0,0,1,.31,5.46.39.39,0,0,1-.33-.15,2.63,2.63,0,0,1-.34-1.76l.07-.6-.6,0c-.94.07-1.09,1.21-1.18,1.89,0,.16,0,.31-.07.41a25.59,25.59,0,0,0-.23,3.44c0,.93,0,1.81-.14,2.68a2,2,0,0,1-.15-.45,9.16,9.16,0,0,1,.12-2.93,12.88,12.88,0,0,0,.2-2.56l0-.49-.49,0c-.39,0-1.06.22-1.26,1.37a40.32,40.32,0,0,0-.57,8.77c0,1.78,0,3.46-.09,5.08-.17,1.21-.24,2.48-.31,3.7,0,.29,0,.58,0,.87-.07-1-.08-2-.08-3a21.31,21.31,0,0,0-1.08-7.9v-.05l0,0a1.59,1.59,0,0,0-1.34-.87,1.31,1.31,0,0,0-.54.11c-1,.12-1,1.23-1,1.9v.14a1.11,1.11,0,0,0-1-.55h-.59l.06.59a19,19,0,0,1-.19,6.71l-1.46.46-.1.17a5.2,5.2,0,0,0-.52,2.16c0,.16,0,.32,0,.47a11.49,11.49,0,0,0-4.86,2.64l-.1.08,0,.12a22.88,22.88,0,0,0-1,4.76,32.2,32.2,0,0,1-.63,3.42,6.16,6.16,0,0,1-1,.07c-.39,0-.78,0-1.17-.05s-.85,0-1.29,0h-.12Zm-9.75-8a3.13,3.13,0,0,0-1,.17l-.31.1,0,.32c-.2,2-.44,4.53-1.6,6.28a2.88,2.88,0,0,1-.46.57c-.47.51-1.11,1.2-.69,2l.12.22.25,0,.28,0a3.69,3.69,0,0,0,2.44-1.44l.12-.13c1.55-1.88,3-5,2.2-7.67l-.09-.26-.27-.07a3.49,3.49,0,0,0-.94-.13h-.06Zm8.31,1.25c.9,1.64,1.67,3.06,1.28,5.15l-.07.39.36.16a1,1,0,0,0,.45.1c.88,0,1.15-1.06,1.34-1.75a2.4,2.4,0,0,1,.13-.46c.59-2.18.55-5.22-.84-7.26l-.15-.22-1.35,0,.1.57.18.94v0a16.19,16.19,0,0,0-1.59-3.35c-.1-.14-.18-.27-.26-.39a2.41,2.41,0,0,0-1.91-1.44l-.63,0,.13.62a4.73,4.73,0,0,0,.37,1,4.27,4.27,0,0,1,.34.91,3.49,3.49,0,0,0-.68-.07c-1.34,0-1.86,1-2.17,2a5,5,0,0,0,.25,4.55,2.72,2.72,0,0,0,2.36,1.59,2.13,2.13,0,0,0,.61-.08l.09,0a1,1,0,0,0,.23.45.91.91,0,0,0,.67.27,1.22,1.22,0,0,0,.37-.05l.34-.09,0-.34a14.5,14.5,0,0,0-.29-3.76.09.09,0,0,1,0-.05Zm-16.48-2.33c-1.14,1.71-.23,2.93.58,4a8.13,8.13,0,0,1,.93,1.45l.12.28,1,0,.16-.22a2.55,2.55,0,0,0,.33-2.41l.8.21.2-.21c1.43-1.49.5-2.76-.25-3.79-.13-.17-.25-.35-.37-.52l.31.32,1.15-.26,0-.43a7.81,7.81,0,0,0-1.45-3.55c-.21-.34-.41-.66-.59-1a1,1,0,0,0,.74.34,1.15,1.15,0,0,0,.31,0l.43-.13-.08-.45a10.2,10.2,0,0,0-1-2.59,14.54,14.54,0,0,1-.74-1.62l-.06-.18L198,242a1.84,1.84,0,0,0-.62-.23h-.1a.68.68,0,0,0-.56.26c-.28.37-.14.9,0,1.56a7,7,0,0,1,.17.73l-.12.06c-.75.32-2,.88-1.51,2.32l0,.07,0,.06.78,1.06c.58.79,1.18,1.6,1.81,2.38a2.15,2.15,0,0,0-1.44-.61h-.15a2.45,2.45,0,0,0-.92.29l-.25.14v.29a5.26,5.26,0,0,0,.35,1.77C195.59,252.35,195.66,252.57,195.72,252.79Zm3.89-12.5a.91.91,0,0,0-.67.54,4,4,0,0,0,.12,2.68,18.45,18.45,0,0,0,2.87,5,17.24,17.24,0,0,1,2.77,4.88l.08.25,1.44.42-.18-.82a21,21,0,0,0-2.74-6.17,27.29,27.29,0,0,1-2.2-4.35,1,1,0,0,0,.82.33,1.89,1.89,0,0,0,.32,0l.26,0,.11-.24a1.41,1.41,0,0,0,.12-1.35.78.78,0,0,0-.29-.28l.88-.53s0-1.18,0-1.64c0-1-.05-2,0-3a5.52,5.52,0,0,0,1.91,4.09l.75-.61a10,10,0,0,1-.35-7.41,3.57,3.57,0,0,1,.76-1.16,3.54,3.54,0,0,0,1-1.73l.09-.54-.55,0h-.32a2.6,2.6,0,0,0-2.13,1.57,5.48,5.48,0,0,1-.5.72,3.13,3.13,0,0,1-.92.85,6.19,6.19,0,0,0-.85.7l-.09.1,0,.13a13.61,13.61,0,0,0-.3,3.43l-1.83.4,0,.43c.08,1.1.28,2.19.46,3.25l.05.31-.17-.07a1.14,1.14,0,0,0-.49-.12h0Zm20.68,6.37a22,22,0,0,1-2.65,1.71l-.13.06-.07.13A5,5,0,0,0,217,251c0,.38,0,.75-.06,1.07l-.11.7,1.93-.39.06-.33a10.52,10.52,0,0,1,1.58-3.66c.21-.34.42-.69.62-1.06Zm-4.92,3.22,1.55-.23,0-.44a4.5,4.5,0,0,1,.24-1.38,3.71,3.71,0,0,0,.14-2.2,11.41,11.41,0,0,1-.31-2.21,8.35,8.35,0,0,0-.8-3.45l-.13-.24-1.52-.16.19.7a20.65,20.65,0,0,1,.84,8.57c-.39-1.53-.86-3.1-1.39-4.68l-.08-.24-.24-.08-.26-.05h0c-.48,0-1,.21-1.25,1.17a3.77,3.77,0,0,0,.19,2.56,4.56,4.56,0,0,1,.3,1.7l0,.59.59-.06a1.08,1.08,0,0,0,.89-.64,6.43,6.43,0,0,1,.54.53l.7-.38Zm-52.48-24.06c-1.07.11-1.44,1.24-1.7,2.06-.08.23-.15.45-.23.62a9.56,9.56,0,0,1-.58,1.58,4.19,4.19,0,0,0-.24,3.89l.09.19.6.2c1.67.54,2.64,1,2.38,1.88-.42,2-.86,3.89-1.3,5.8-.2.88-.4,1.75-.59,2.62a2.41,2.41,0,0,0,.56,1.85,1.81,1.81,0,0,0,1.32.56,2.34,2.34,0,0,0,2-1.24,28.36,28.36,0,0,0,3.1-14.66c-.1-.73-.36-2.59-2.25-2.73h-.15a2.3,2.3,0,0,0-1.61.94c-.14.14-.26.27-.39.38-1-.46-.84-.94-.53-2a8.49,8.49,0,0,0,.32-1.38l.05-.5-.5,0h-.3Zm17.19,2.79c0,1.32,0,2.49,0,3.59l0,.53,2,0v-.5c0-.46,0-.92,0-1.39a.91.91,0,0,0,.8.52.93.93,0,0,0,.29,0l.15,0,.09-.13a4.07,4.07,0,0,0,.22-3,.91.91,0,0,0-.8-.61h-.06a1,1,0,0,0-.3,0l-.14.05-.09.11a1.4,1.4,0,0,0-.23.49l-1.84,0Zm-.57-15.48,0,.45c-.27,3.89-.33,7.12,1.64,10.4a1.53,1.53,0,0,0,1.27.73,1.75,1.75,0,0,0,.77-.19l.2-.09.06-.21a3.29,3.29,0,0,0-.33-2.18,3.85,3.85,0,0,1-.36-1.22c-.06-1.17,0-2.36,0-3.5l0-1.54-1.47.07v.47c0,.54,0,1.09,0,1.64,0,.78,0,1.57,0,2.34l-.15-.6c-.51-2.06-1-3.83,0-5.92l.35-.75Zm70.29,8.62c-.66,0-1,.75-1,2.06h1a2.34,2.34,0,0,1,.19-1.12.24.24,0,0,1-.16.06Zm1.5-6.77a18.9,18.9,0,0,0-.32,5.31c0,.81.06,1.65,0,2.49v.44l.44.06a2.19,2.19,0,0,0,.42,0,1.16,1.16,0,0,0,1-.39A1.11,1.11,0,0,0,253,222a19.89,19.89,0,0,0-.1-2.9c-.05-.64-.11-1.3-.11-2a9.91,9.91,0,0,0,2.05-2.28c.23-.32.45-.64.69-.93l.1-.13s0-.49.05-.66c.09-1.13.21-2.54-.77-3.41l-.18-.2a3.25,3.25,0,0,0-2.41-1.44h-.16a3.15,3.15,0,0,0-.58.09l-.34.09,0,.34a1.79,1.79,0,0,0,1.14,1.88,3.52,3.52,0,0,1,.66.46,1.83,1.83,0,0,1,.62,1.33,2.57,2.57,0,0,1-.39,1.48,6.15,6.15,0,0,1-.59-.56l-.52-.56-.31.7c0,.09-.08.18-.11.27h-.59a.62.62,0,0,1-.1.37v1A1,1,0,0,0,251.3,215ZM194,213.44a19.17,19.17,0,0,1-6,6.67,3.86,3.86,0,0,0-1,.93l-.6.81h1c2.25,0,4.33-1.87,5.59-3.65l1,0,.14-.11a16.21,16.21,0,0,0,1.18-1.16c.32-.33.62-.65.95-.94.52.08,1.17.39,1.22.74s-.15.66-.23,1c-.12.51-.24,1-.33,1.53l-.08.42.41.14a1.13,1.13,0,0,0,.36.06c.87,0,1.17-1,1.37-1.64a2.56,2.56,0,0,1,.18-.5l0-.06v-.07c.05-.22.14-.48.23-.76.29-.91.66-2,.22-2.87a1.67,1.67,0,0,0-1.08-.82l-.11,0h-.1a15.2,15.2,0,0,1-2.22.15l-1.46,0-.59,0Zm-6.67,4a1.74,1.74,0,0,0-.87.29l-.22.13,0,.26a1.27,1.27,0,0,0,.24,1,.83.83,0,0,0,.63.27,1.76,1.76,0,0,0,.85-.28l.24-.13,0-.27a1.29,1.29,0,0,0-.24-1,.8.8,0,0,0-.57-.28Zm33.89-11a23.17,23.17,0,0,0,3.61,3l.26.19.34.32a33,33,0,0,1,6.62,7.46l.16.27,1.71-.16v-.46a3.16,3.16,0,0,0-.8-2.56,43.81,43.81,0,0,0-7.4-6.46c-.5-.38-1-.75-1.5-1.13a10.65,10.65,0,0,1-1-1.14,10.41,10.41,0,0,0-1.22-1.37l-.08-.07-.1,0c-.24-.08-.47-.13-.7-.19a2.35,2.35,0,0,1-1.46-.73c-.58-1-1.18-2-1.78-3.05-.89-1.54-1.82-3.13-2.78-4.65a1.4,1.4,0,0,0-1.28-.77,2,2,0,0,0-.59.09l-.41.12.08.56a14.3,14.3,0,0,0,.9,3.7l0,.07.06.06a18.38,18.38,0,0,1,2.46,3.49,2.85,2.85,0,0,0,1.53,1.1,2.46,2.46,0,0,1,1,.59c.07.25.13.51.19.77a11,11,0,0,0,.52,1.73l.16.37,1.2-.26L221,207A1.74,1.74,0,0,1,221.21,206.46Zm-31.33,8.44a3.52,3.52,0,0,1-.38.61,4,4,0,0,0-.59,1.06l-.27.88.89-.24a5.78,5.78,0,0,0,3.18-3.12l.07-.15,0-.17c-.17-.85-.41-1.65-.61-2.33l-.09-.3-.31,0-.24,0h-.1c-1.42.1-3,2.18-3.28,3.27l-.19.69.72-.06.54-.08a3.8,3.8,0,0,1,.43,0A.45.45,0,0,1,189.88,214.9Zm-29.81-6.71c.08.69.13,1.38.17,2.05a14.36,14.36,0,0,0,1.45,6.39l.09.17.17.06a1.79,1.79,0,0,0,.68.13,1.58,1.58,0,0,0,1.6-1.59v-.06s0-.18-.05-.25a1.17,1.17,0,0,0,.59.35,3.89,3.89,0,0,1,1.43.58,4,4,0,0,0,1.77.65h.18l.14-.1c.15-.11.33-.21.51-.32a3.54,3.54,0,0,0,1.64-1.58l0-.09v-.09c0-.64,0-1.28,0-1.91a28.8,28.8,0,0,1,.29-6.55,13.64,13.64,0,0,1,.95-2.56c.23-.51.46-1,.66-1.57l.33-.89-.92.23a5.22,5.22,0,0,0-2,1.15,6.31,6.31,0,0,1-1.27.86,3.75,3.75,0,0,1-1.53.4l.7-.19a8,8,0,0,0,2.9-1.78c.42-.35.82-.67,1.22-.94l.42-.36a15.35,15.35,0,0,0,2.13-2.07l.07.33q.12.58.27,1.14a1.79,1.79,0,0,0-.21-.39l-.34-.45-.41.39a5,5,0,0,0-1.21,2.78c0,.21-.09.41-.13.62l-.12.47.47.13a1.45,1.45,0,0,0,.28,0,.9.9,0,0,0,.61-.22c-.06.39-.14.79-.21,1.2a12.16,12.16,0,0,0-.32,2.44v.6l1.22-.21c0,.17,0,.33,0,.5a28,28,0,0,0,.19,2.84,1.13,1.13,0,0,0,.28.86,1.1,1.1,0,0,0,.84.32,2.53,2.53,0,0,0,.72-.11l.4-.12,0-.41c-.06-.63-.13-1.25-.2-1.86-.16-1.43-.32-2.79-.35-4.17a4,4,0,0,0,.45.31l.86.54-.1-1a19.94,19.94,0,0,0-1.58-6.49l-.11-.24-1.1-.15a4.61,4.61,0,0,0,.74-1.53l.15-.63h-.64a1.6,1.6,0,0,0-.94.33,1,1,0,0,0-.16-.83l-.07-.09-.1-.06a1.27,1.27,0,0,0-.55-.13h0a2.2,2.2,0,0,0-1.71,1.1,1.52,1.52,0,0,0-.12,1.49l.06.1.09.07a.93.93,0,0,0,.54.16,1.31,1.31,0,0,0,.53-.12,2.09,2.09,0,0,1-.28.3l0,0,0,0a9.73,9.73,0,0,1-2.24,1.9,7.72,7.72,0,0,0-2.7,2.6l-.49.92H166l-.06-.45a19.15,19.15,0,0,1,3.76-4.84l.41-.38-.43-.36a3.18,3.18,0,0,0-2.18-.65h-.3a2.52,2.52,0,0,1,.16-1.13c1.85-5.25,4.6-9.83,7.51-14.69l.34-.57a2.65,2.65,0,0,0,.13-2.67,2.84,2.84,0,0,0-2.53-1.24,13.81,13.81,0,0,1-8.72-2.58c-1.17-.88-1.49-2.82-.95-5.76a49.13,49.13,0,0,1,5-10.41,1.2,1.2,0,0,0,.14-1.22,2.38,2.38,0,0,0-1.7-1.28l-2.22-.43a65.44,65.44,0,0,1-12.83-3.38,15.35,15.35,0,0,1-3.36-4,20.29,20.29,0,0,0-2.47-3.22l-.12-.11h-.07a.75.75,0,0,0-.49-.22,1.26,1.26,0,0,0-1.06.45c-.49.61-.28,1.58-.09,2.43a7.29,7.29,0,0,1,.14.75v.06l0,.06a4.81,4.81,0,0,1,0,2.44,4.41,4.41,0,0,0,.47,3.46c1.26,2.22,2.47,4.57,3.65,6.85l1.38,2.68a2.21,2.21,0,0,0-.58-.34l-.1,0h-.11a1.1,1.1,0,0,0-1,.55,1.15,1.15,0,0,0-.11.45l0-.07c-.23-.42-.51-.88-.8-1.35-1-1.63-2.1-3.45-2.28-5.16l.67.2,1.55.53-1-1.3a6.39,6.39,0,0,1-.67-1.47c-.37-1-.72-2-1.43-2.3l-1.2-.57.53,1.22a5.33,5.33,0,0,1,.28,2.72,6.62,6.62,0,0,0,.25,2.95c-.47,1.54.38,3.09,1.13,4.46a14.09,14.09,0,0,1,.65,1.28,1.31,1.31,0,0,0-1,1.14v.07l0,.07a12.2,12.2,0,0,0,2.31,5.32l.13.15h.2c1.32.12,1.81.22,2.1,1.31a16.05,16.05,0,0,1-.67,3.23c-.49,1.84-1,3.74-.57,5.44l.07.28.28.08a2.51,2.51,0,0,0,.55.07A4.71,4.71,0,0,0,150,182a3.74,3.74,0,0,1,.91-.18h0a4.33,4.33,0,0,1,0,.72l-1,.28a4.25,4.25,0,0,0-1.31.61l-.11.08-.06.12c-2.26,4.88-3,9.15-2.37,13a1.45,1.45,0,0,0,1.2,1.16l.22.06.19-.13a2.22,2.22,0,0,0,.93-1.53c0,.6,0,1.17-.09,1.69l0,.72.69-.2a3.72,3.72,0,0,1,1.08-.16h.15c.06.14.11.3.17.47.26.8.62,1.89,1.69,1.89h.12l.5,0,0-.5a7.84,7.84,0,0,0-2-4.38l-.14-.19a5.56,5.56,0,0,0,.24-3.66,1.85,1.85,0,0,0-1.12-1.33l-.78-.26.13.81a7.78,7.78,0,0,0,.33,1.26,8.06,8.06,0,0,1,.29,1.06l-.63-.16-.71-.21v.13l-.27,0-.28,0a1,1,0,0,0-.26,0,.88.88,0,0,1,0-.16c.39-3.3.76-6.41,2.79-9.37l.43-.62c0,.28-.12.56-.18.85a8.45,8.45,0,0,0-.29,2.05V186l.07.12c1.17,1.94,1.09,3.86,1,5.89a17.36,17.36,0,0,0,.18,4.28l0,.08,0,.07a9.19,9.19,0,0,1,1.52,5.16V202l.37.08a1.74,1.74,0,0,0,.45.06,3.12,3.12,0,0,0,1.2-.31,2.43,2.43,0,0,1,.79-.24,12.47,12.47,0,0,1,1.08,1.71,12.73,12.73,0,0,0,1.23,1.92,1.63,1.63,0,0,0,1.21.52,4.09,4.09,0,0,0,1.6-.47,4.71,4.71,0,0,1,.59-.25c.24.18.51.35.77.52a4.09,4.09,0,0,1,1.42,1.23l0,.33h-1.15l0,.52c0,.48,0,.92,0,1.32a12.59,12.59,0,0,0-.79-3l-.1-.23-.23-.06a2.29,2.29,0,0,0-.6-.08,3.5,3.5,0,0,0-2.71,1.29,1.7,1.7,0,0,0-.21,1.63l.14.35.37,0A2.35,2.35,0,0,0,160.07,208.19Zm35.82,2,.42.06a42.89,42.89,0,0,1,4.24.82c1.37.3,2.78.62,4.2.81.31.1.58.67.83,1.22a5.27,5.27,0,0,0,.57,1l.13.17.21,0,.77.11a19.12,19.12,0,0,0,2.76.27,3.76,3.76,0,0,0,3.25-1.24,6.81,6.81,0,0,1,.74-.31c.85-.31,1.92-.71,1.53-2.5l-.06-.27-.26-.1a4.25,4.25,0,0,0-1.46-.21c-.4,0-.81,0-1.21.06s-.53,0-.78.06c-1.78.16-3.23.24-4.56.24a21.91,21.91,0,0,1-5.75-.66,28,28,0,0,0-5.05-.94l-.56-.05Zm-39.77,1.18a1.59,1.59,0,0,0,.1,1.28,2.14,2.14,0,0,0,1.37,1l.68.18-.06-.7c-.05-.65,0-1.37,0-2.12a10.36,10.36,0,0,0-.65-4.88,10.6,10.6,0,0,1-.09-1.42v-.43l-.46-.07h-.1a.84.84,0,0,0-.74.39c0-.43,0-.87,0-1.31l0-.79V202h-.49a2.16,2.16,0,0,0-2.08,1.47,1.29,1.29,0,0,0,.8,1.39,12.43,12.43,0,0,1-.1,1.41c-.16,1.46-.37,3.28,1.28,4.19l.16.09.74-.15C156.34,210.53,156.12,211.33,156.12,211.33Zm57-4.66,1.84,0h.52l0-1.83h-.91c-.87,0-1.76,0-2.65.06s-1.8.06-2.7.06a18.68,18.68,0,0,1-5.1-.57,37.78,37.78,0,0,0-5.72-.36c-1,0-2.09,0-3.13.05s-2.07,0-3.1,0a32,32,0,0,1-7.08-.64,2.86,2.86,0,0,1-1.68-1.11,2.79,2.79,0,0,0-2-1.16h-.12a4,4,0,0,0-.91.15l-.19.06-.1.17a1.59,1.59,0,0,0-.21,1.25c.23.8,1.13,1.25,1.86,1.62q.28.14.51.27c2.85,1.63,5.77,1.73,8.85,1.83l.86,0c1.58,0,3.18-.09,4.74-.17s3.38-.16,5.06-.16a31.17,31.17,0,0,1,5.23.38c.8,0,1.53,0,2.27,0h1.92Zm-1.43-4.3a4.22,4.22,0,0,1,1.68.47l.48.19L214,203c1-.35,1.2-.86,1.18-1.23,0-.69-.8-1.16-1.52-1.38a11,11,0,0,1-1.14-2.31,12.09,12.09,0,0,0-1.28-2.57l-.53-.85c-.73-1.16-1.49-2.35-1.29-3.56l.13-.74-.73.17a1.45,1.45,0,0,0-1,1.06c-.62.1-1.27.24-2,.42l-.22.05-.1.2a8.48,8.48,0,0,0-.8,2.88s0-.61,0-.61l-.56.06c-.8.09-1.27.83-1.68,1.49a5.92,5.92,0,0,1-.52.74l-1.28-.11-.14.32a9.22,9.22,0,0,1-1.73,2.28,9.6,9.6,0,0,0-1.71,2.27l-.34.72h.79a3.89,3.89,0,0,0,2.64-1.57l.24-.24-.48,1-.5,1,1.09-.32c2.21-.65,3.5-2.87,4-5.22a7.83,7.83,0,0,1-.51,2,2.72,2.72,0,0,0,0,2.06,1.75,1.75,0,0,0,1.13.81,6,6,0,0,1,1,.45,4.42,4.42,0,0,0,1.92.64l.26,0,.58-.07-.16-.56a15.51,15.51,0,0,1-.07-6.68,18,18,0,0,0,2.11,6.56l.17.31.34,0Zm-22-6.42a9.84,9.84,0,0,1-1.56,1c-1.64.72-2.74,2.58-3.46,3.81l-.09.16,0,.18a1.67,1.67,0,0,0,1.34,1.36,46.27,46.27,0,0,0,5.28.33c1.94-.15,3.67-1.52,5.11-2.85,1.9-1.92,4.24-4.3,5.1-7l0-.13-.22-1.06-1.18-.16-.17.17c-.43.43-.81.89-1.18,1.34a9.09,9.09,0,0,1-2.07,2l-.07,0a5.5,5.5,0,0,1,.8-2.37,5.89,5.89,0,0,0,.93-3.29l0-.24-.2-.12a2.38,2.38,0,0,0-1.2-.39h-.14a2.59,2.59,0,0,0-1.65,1.12c-.39.48-.77,1-1.15,1.46l-.78,1A15,15,0,0,0,194.9,189l.29-.8-.84.13c-1.28.21-2,1.45-2.73,2.55a6.93,6.93,0,0,1-1.19,1.6l-.11-1.22-.71.48a6.17,6.17,0,0,0-.94.9q-.19.22-.39.42l-.17-.65-.46.08a1.34,1.34,0,0,0-.69.35,6.79,6.79,0,0,0,.68-1.77l.16-.78-1.42.35-.57.84a16,16,0,0,0-2.43,4.51l-.16.55.57.08H184a1.54,1.54,0,0,0,.93-.35,4.62,4.62,0,0,0-.31,1.92l0,.35.34.08.25,0c.86,0,1.21-1,1.48-1.8a6.64,6.64,0,0,1,.27-.69l.32,0,.61,0,.63,0A3.08,3.08,0,0,0,189.7,196Zm24.48-4.78a69,69,0,0,0,6.23,10c.13.15.23.29.34.44.39.54.87,1.2,1.62,1.2a1.2,1.2,0,0,0,.45-.09l.2-.08.08-.2c.34-.85-.29-1.61-.74-2.16l-.27-.33a1.81,1.81,0,0,0,.8.17l.38,0,.57-.09-.17-.55a8.14,8.14,0,0,0-.74-1.58l-.23-.42c.14-.59.26-1.16.35-1.72l0-.18-.1-.16c-.14-.23-.28-.44-.42-.66a7.94,7.94,0,0,1-1.25-2.48l1.53.08a71.52,71.52,0,0,0,8,9.4l.06.06.08,0a1.87,1.87,0,0,0,.72.17,1.13,1.13,0,0,0,1-.59,2.83,2.83,0,0,0-.13-2.49,25.59,25.59,0,0,0-3.59-4.59c-.47-.51-1-1-1.39-1.55s-.73-.77-1.08-1.16a13.3,13.3,0,0,0-3.7-3.22l-.15-.08-.16,0a11.5,11.5,0,0,1-1.84.19,5.44,5.44,0,0,1-1.14-.11l-.45-.08-.21.73a7.66,7.66,0,0,0-.42,2.24v.1l0,.09a9.42,9.42,0,0,0,.47.89,2,2,0,0,0-.88-.55l-.74-.19.12.76a9.85,9.85,0,0,0,1.91,3.86l.55.81a48.2,48.2,0,0,1-3.36-4.85,4.55,4.55,0,0,0-1.69-1.71l-1.42-.81Zm-30.72,5.92a12.92,12.92,0,0,0-4.84,1.89l-.52.28a1.9,1.9,0,0,0-1,1.57l-.1.91.82-.4,2-1c1.28-.61,2.56-1.22,3.8-1.86l.22-.11.26-1.37Zm6-7.13c0,.34-.43.88-.64.88v1a2,2,0,0,0,1.64-1.87Zm13.08-5.8a3.28,3.28,0,0,0,2.91,2.11h.25a20.07,20.07,0,0,0,8.73-2.95,4.74,4.74,0,0,1,2.73-.6l.89,0,.11-.32a2.29,2.29,0,0,0-.06-1.82l-.1-.21-.22-.06a3.8,3.8,0,0,0-.89-.11,6.94,6.94,0,0,0-3.58,1.43c-.5.31-1,.6-1.44.83l-.34.16c-1.87.92-3.63,1.78-5.44,1.78h0a5.35,5.35,0,0,1-2.83-.81l-1.21-.73Zm18-14.34a1.71,1.71,0,0,0-.57.1l-.38.12,0,.4a20,20,0,0,0,1,4.17,15.34,15.34,0,0,1,1.06,5.16c0,.42-.31.83-.66,1.23-.5.58-1.18,1.38-.66,2.29l.11.19.22.05a3.38,3.38,0,0,0,.74.07,3.87,3.87,0,0,0,2.73-1,1.9,1.9,0,0,0,.5-1.48,30.37,30.37,0,0,0-2.23-8.44c-.22-.63-.45-1.25-.67-1.86a1.27,1.27,0,0,0-1.24-1h0Zm-27.39-3.94-.12.21c-.46.8-.93,1.57-1.39,2.32a23,23,0,0,0-3.39,7.3c-.15,1.54-.34,3.56.54,5a2.41,2.41,0,0,0,2.16,1.14,2.61,2.61,0,0,0,1.06-.22l.35-.16-.06-.37a13.13,13.13,0,0,0-.64-2.28,8.53,8.53,0,0,1-.65-3.11c-.16-1.92.78-3.68,1.78-5.54a16.89,16.89,0,0,0,1.66-3.82l.18-.74Zm4.6,15.6a3.67,3.67,0,0,1,.82.07l.53.12.07-.54c.14-1-1-1.37-1.84-1.64a4.69,4.69,0,0,1-.74-.28,2.78,2.78,0,0,0-1.47-.43,2.15,2.15,0,0,0-2.08,1.38l-.1.26.17.23a3.09,3.09,0,0,0,2.57.9c.36,0,.73,0,1.09,0S197.44,181.48,197.75,181.48Zm63.84-3.78c-.1.41-.2.81-.29,1.21l-.12.52.57.09h.12c1,0,1.38-1.26,1.67-2.19.07-.2.12-.38.17-.51a1.64,1.64,0,0,0-.4-1.77l-.15-.2a8.83,8.83,0,0,1,.74-1.72,5.18,5.18,0,0,0,.74-4.17l-.07-.23-.21-.1a4.17,4.17,0,0,0-1.66-.33h-.14a3.66,3.66,0,0,0-.65.06l-.68.1.31.62c.94,1.81.43,3.12-.2,4.78a12.72,12.72,0,0,0-.84,2.84l-.1.65,1.31-.16ZM136.2,169.93c.31,2.38.84,6.35,3.58,6.6l.24,0,.17-.18a6.49,6.49,0,0,0,.63-.8l.41-.62-1-.19c-.91-.18-1.29-.28-1.56-1a24.83,24.83,0,0,1-.89-3.26c-.19-.86-.39-1.74-.65-2.59l0-.11-.08-.09a1.15,1.15,0,0,0-.83-.42h-.14c-.57.09-.84.71-1.06,1.2-.07.15-.13.29-.19.39l-.69,1.07,1.23-.31c.25-.06.51-.11.77-.15Zm1.84-6.18a24,24,0,0,0,.37,7l.09.38,1.86,0-.06-.56a13.32,13.32,0,0,0-.24-1.41,4.25,4.25,0,0,1,.13-3.1,26.91,26.91,0,0,0,1.3-4.16,24.28,24.28,0,0,1,1.4-4.35l.11-.24-.12-.22c-.31-.54-.65-1.05-1-1.57a20.24,20.24,0,0,1-1.28-2.12c-1.41-2.85-3.8-5.22-6.33-7.59a3.44,3.44,0,0,0-2.14-1,2,2,0,0,0-1.92,1.53l0,.08v.08c-.06,2.17,0,4.63.09,7.11a22.16,22.16,0,0,1,.43,5.35l0,.52,1.53,0V159c0-.88,0-1.77-.06-2.66a79.62,79.62,0,0,1,.1-8.74,1.68,1.68,0,0,1,.62.37,30.71,30.71,0,0,1,4,4.4c.48.59,1,1.18,1.44,1.75-.06.49-.14,1-.22,1.48l-.1.57a1.12,1.12,0,0,0-.65.88l-1-.27-.13.48c-.27,1-.63,2.06-1,3.07a32.85,32.85,0,0,0-1.23,4.13l-.19.88.85-.31c.77-.29,1.6-.6,2.4-1l.05,0,0,0a3.5,3.5,0,0,0,.69-.79,2.44,2.44,0,0,1,.22-.31C138.07,163.2,138.06,163.48,138,163.75Zm61.89-12.62a101,101,0,0,0-1.54,12.71l0,.88,1.74-.93,0-.23c.43-2.22.73-4.49,1-6.68.38-2.81.77-5.71,1.42-8.52a19.62,19.62,0,0,0,.55-5c0-.54,0-1.09.06-1.65l0-.42-.41-.09a2.86,2.86,0,0,0-.55-.07h0a1.37,1.37,0,0,0-1.31.73c-.39.62-.78,1.3-1.17,2a33.48,33.48,0,0,1-2.17,3.43c-.42.56-.79,1.13-1.15,1.69a10.22,10.22,0,0,1-3,3.44,22.39,22.39,0,0,1-3.79,2.25,1.19,1.19,0,0,0-.75.65,1.52,1.52,0,0,0,.14,1.27l.12.24.26,0a5.52,5.52,0,0,0,.81.06,14.94,14.94,0,0,0,4.47-1l.39-.13.06,0a18.22,18.22,0,0,0,3-2.79C198.72,152.33,199.3,151.7,199.93,151.13Zm-15.5,120.8a21.19,21.19,0,0,1-4-.36,3.91,3.91,0,0,0-.49-.14l-.2-.05,1.74,0c2.48,0,4.87-.12,7.1-.34a33.65,33.65,0,0,0,3.83-.71,32.72,32.72,0,0,1,3.39-.66l.37,0-.7.25c-.34.12-.67.24-1,.32A34.09,34.09,0,0,1,184.43,271.93Zm-6.22-3.45a2.14,2.14,0,0,1-1.17-.63,4.84,4.84,0,0,0-3-1c-.41-.05-.81-.1-1.17-.18-.13-.68-.27-1.37-.41-2.05a49.06,49.06,0,0,1-.89-5.29l0-.29-1.48-.7-.2.08a1.77,1.77,0,0,0-1,1.55,2.24,2.24,0,0,1-.09.4,11.38,11.38,0,0,0-.69-2.9,30,30,0,0,1-.11-7.11,13.76,13.76,0,0,1,.49-1.84c.49-1.6,1.05-3.4.3-5a2.08,2.08,0,0,0-.12-.3l.5-.39a1.69,1.69,0,0,1,1-.49h0a21.94,21.94,0,0,1-.63,5.46,16.9,16.9,0,0,0-.39,7.13,3.14,3.14,0,0,0,1.3,2,4.12,4.12,0,0,1,.85.87,13.2,13.2,0,0,1,1.41,3.88,21.74,21.74,0,0,0,.79,2.67l0,.1.08.08a1.31,1.31,0,0,0,2.26-.28,2.2,2.2,0,0,1,.59-.59c.79,0,1.56,0,2.32.07l-.85,0h-.44a2.19,2.19,0,0,0-1.86.89,2,2,0,0,0-.16,1.89l.06.14.12.08a5,5,0,0,0,1.61.67,3.34,3.34,0,0,1,1.48.67C178.49,268.48,178.29,268.48,178.21,268.48Zm15.23-6.91c-.16-.19-.33-.37-.48-.52a4.87,4.87,0,0,1-.64-.76,36,36,0,0,0-3.06-3.84l-.56-.66a2,2,0,0,1,0-.24,19.37,19.37,0,0,1,4.17,5.07Zm7.48-19.38c-.11-.35-.21-.71-.29-1.08l.37,0a.91.91,0,0,0,.68-.33.44.44,0,0,0,.08-.11l0,.35-.2,0-.26,0-.12.24A2.08,2.08,0,0,0,200.92,242.19ZM174.61,242c-1.38-2.6-1.52-6.11-1.65-9.3,0-.88-.07-1.72-.12-2.51a3,3,0,0,0,1.09.27,1.19,1.19,0,0,0,1.23-1.07,15.58,15.58,0,0,0-.1,2.72h-.24a1.4,1.4,0,0,0-1.47,1.36A21.24,21.24,0,0,0,174.61,242Zm-17.85-.36a42.37,42.37,0,0,1,0-4.51c0-.22,0-.45,0-.68C156.84,238.23,156.84,240,156.76,241.59Zm93.72-4.17c-.06-.33-.12-.65-.17-1a1.69,1.69,0,0,0,1.22-1.75,3.45,3.45,0,0,0-1.75-2.71,3.32,3.32,0,0,0,1-.21,5,5,0,0,1,1.57,1.38l.23.25a14,14,0,0,1-1.23,2.44C251.05,236.37,250.75,236.89,250.48,237.42Zm-75.3-2.63Zm-29.25-11.38a9.75,9.75,0,0,1,.84-3.63,9,9,0,0,0-.62,4.46C146.08,224,146,223.68,145.93,223.41Zm9.34-6.81a6.08,6.08,0,0,1,1.23-.58l-.38.18C155.83,216.35,155.54,216.49,155.27,216.6Zm-11.2-7.95a4.8,4.8,0,0,1-.16-2.09,9.22,9.22,0,0,0,.15,2Zm12.7-.25a7.06,7.06,0,0,1,0-1.12A4.67,4.67,0,0,1,156.77,208.4Zm-8.31-38.48a1.54,1.54,0,0,1-1.18-.49,2.12,2.12,0,0,1-.51-1.42l1.08-.3v-.38a4.07,4.07,0,0,0-.56-2l.42-1.17a5.42,5.42,0,0,0,.81,1.75l.22.36c-.12.37-.25.74-.38,1.11l0,.12,0,.13a5.64,5.64,0,0,0,.34,1.15,4.32,4.32,0,0,1,.31,1.06A2.11,2.11,0,0,1,148.46,169.92ZM139,156.23l-.25,0,1-.22a.82.82,0,0,1,.08.55,2,2,0,0,1-.76,1.05Z"/><path d="M227,266.72a1,1,0,0,0-.62,1.28C227.29,268.75,228.26,266.7,227,266.72Z"/><path d="M3.27,223.68c-.51-3.13-1-6.28-1.31-9.43C2.32,217.4,2.76,220.55,3.27,223.68Z"/><path d="M.66,203.61q-.6-7.32-.66-14.69Q.06,196.29.66,203.61Z"/><path d="M354.48,323.13a33.46,33.46,0,0,1-1.32-5.44l.82-1c.1.47.2.93.32,1.35a22,22,0,0,0,1.26,4Z"/><path d="M303.22,363.61c.38-.78.79-1.57,1.23-2.42l1.81-1.15c-.53.94-1,1.8-1.41,2.64Z"/></g></g></svg>