<svg xmlns="http://www.w3.org/2000/svg" xmlns:xlink="http://www.w3.org/1999/xlink" viewBox="0 0 403.31 403.32"><defs><style>.cls-1{fill:url(#linear-gradient);}.cls-2{fill:url(#linear-gradient-2);}</style><linearGradient id="linear-gradient" x1="55.66" y1="83.83" x2="1239.67" y2="1391.84" gradientUnits="userSpaceOnUse"><stop offset="0" stop-color="#d3161a"/><stop offset="0.23" stop-color="#e2640f"/><stop offset="0.42" stop-color="#ffcd0b"/><stop offset="0.45" stop-color="#fdcd0c"/><stop offset="0.48" stop-color="#f6cb0f"/><stop offset="0.51" stop-color="#e9c814"/><stop offset="0.53" stop-color="#d7c41a"/><stop offset="0.55" stop-color="#bebd22"/><stop offset="0.57" stop-color="#9bb529"/><stop offset="0.59" stop-color="#68aa31"/><stop offset="0.6" stop-color="#4fa534"/><stop offset="0.64" stop-color="#3e9937"/><stop offset="0.72" stop-color="#1b853a"/><stop offset="0.78" stop-color="#057e3b"/><stop offset="0.8" stop-color="#0a7e3f"/><stop offset="0.83" stop-color="#157f4a"/><stop offset="0.86" stop-color="#1f815f"/><stop offset="0.91" stop-color="#2a857d"/><stop offset="0.95" stop-color="#3789a2"/><stop offset="1" stop-color="#478dcb"/></linearGradient><linearGradient id="linear-gradient-2" x1="77.29" y1="64.26" x2="1261.29" y2="1372.26" xlink:href="#linear-gradient"/></defs><title>paul</title><g id="Layer_2" data-name="Layer 2"><g id="Layer_1-2" data-name="Layer 1"><path id="path2530" class="cls-1" d="M221.38,39.87a15.34,15.34,0,0,0-5.44,1.22,32.69,32.69,0,0,1-7.4-.51c-1.3-.36-2.2.28-3.27.89a19,19,0,0,0-7.86,9.09l-.46.09c.19-2.58,2.05-4.61,2.47-7-1.21-.13-2.27-.41-3.4.2a30.21,30.21,0,0,0-6.57,5c-.56.7-1.4,0-2.08-.08-1.31.6-2.21,2-3.43,2.8-.44-.17-.89-.33-1.33-.48-1.33.46-2.66.88-4,1.3-2.92,1.14-5.42,3.65-8.06,5-.56.45-.8,2.11-1.55,2.06l-.27-1.4c-1,.06-1.42,1.85-1.68,2.6-.56,2.35-1.34,4.66-1.76,7l-.43.07a20.3,20.3,0,0,0,.13-4.54c-.55-1.31-2.18-.86-2.61.31-.69,4.25-.08,8.73,0,12.69-.8,1.4-4.7.66-5.4,2.74-.07,1.22,1.49,1.43,2.24,2.1-.22.85-1.28,1.41-1.82,2.07.37.4.73.81,1.05,1.2-1.92,1.94-4.24,3.43-6.09,5.46a42.32,42.32,0,0,0-6,7.69c-.73,1.14-.37,2.65-.57,4a10,10,0,0,0-1.51,3.13c.78-.11.93-1.61,1.61-2.09,2-1.92,2.67-4.49,4.28-6.71a53.73,53.73,0,0,1,7.45-9c1.43-1.23,1.84-3,3.4-4.15.48-.46,1.24-.86,1.48-1.49-1.11-.25-1.49-.72-1.11-1.43,1.26-.16,2.57-.13,3.82-.38.61-.53.75-1.52,1.06-2.24.56,0,1.11.08,1.67.1a4.32,4.32,0,0,0,1.71-2.4A47.28,47.28,0,0,1,178.44,57a5.07,5.07,0,0,1,2-1.82c-1.23,3.2-3.15,7.23-2.66,10.7l.66-.08c.55-2.89,1-5.71,2.33-8.37l.39-.09c-1.07,5-2,10.87-.29,15.79a1.43,1.43,0,0,0,1,1.16c.72-.47.94-1.53,1.38-2.25.75-1.67,2.33-2.7,2-4.67-.46-1.47-1.44-2.51-1.44-4.15-.37-3.89,2.34-7.94,4.74-10.77-.47,1.82-1.77,3-2.36,4.83-.76,2.29-1.31,5.21-.46,7.54.39.85,1.05,2,2.18,1.6.35-1.2-.76-2.59-.62-3.89-.18-5.94,3.87-12,7.94-16,.52-.44,2.42-2,2.43-.43a36.78,36.78,0,0,0-4,14.92l1.82.19c-.65,2.64-.31,5.24-.48,7.92h.49c-.24-3-.36-5.77.77-8.57l.69,0c.77,1.37-.6,3.19-.44,4.76.08,1-.47,3.44.83,3.83.08-.79.36-1.13.83-1a6.16,6.16,0,0,1,0,1.77A19.82,19.82,0,0,1,196,71.14c-.59.7-.47,1.9-.7,2.76-1.38.28-2-.68-3.19-1.12a24.32,24.32,0,0,1-3.91-.08c-.2-1,1.53-.7,2.11-1.09s1.15-1.11,1.83-1.53c.58.63.94,2.13,2,2-.4-1.31-1.17-2.45-1.54-3.78s-.31-2.84-.62-4.23a1.56,1.56,0,0,0-2.56.58,16.89,16.89,0,0,0-.22,4.5c-.88.18-2.1,0-2.8.53-1.54,2.3-3,4.68-4.61,6.92l-.41.1a12,12,0,0,1-2.66-5.42,1.45,1.45,0,0,0-.85-1.35c-2.31,1.55,0,6-.16,8.24-1.75.35-2.4,0-3.87,1.17-1-.38-1.8-1.78-2.82-1.68-.32,1.2.8,2.24.55,3.34-1,.58-2.14-1.38-3.23-1.4a6,6,0,0,0-1.32,1.6,14.13,14.13,0,0,1-3.39.56v.62l2.45.2c.68,1.47-3.28,2.36-3.74,4,1.52,4-1.72,6-3.62,8.9.07.85,1.53.79,1,1.73-2.53,3.14-5.23,6.37-7,10-1.24,2.06-3.3,3.58-4.59,5.61-.45,1.38,0,3-.34,4.44-.35,1.79-1.63,3.18-2.06,4.88-.06,1.19.13,3,1.39,3.53,2,.08,4.09-.51,6.11-.7,2.24-.32,4.9-.39,6.94-1.42,2.73-2,4.73-4.87,7.46-6.91.73-.7,2.26-1.48,2-2.67-.63-1.77-2.75-2.2-3.76-3.66.85-2.28,3.81-4.15,5.86-5.35,1.68-.85,3.52-2.2,5.46-2a39.77,39.77,0,0,1,8.48,1.13c2.9,1,5.69,2.5,8.5,3.77,1.88.87,3.45,2.47,5.4,3.15a7.84,7.84,0,0,0-2.34-2.1c-4-2.51-8.11-5.15-12.71-6.47-2-.72-4.2-1-6.2-1.75l-.2-.35c3,.18,6.06.13,9.09.28.27-1.17-.29-1.19-1.15-1.75-2.79-1.21-6.11-1.19-9-2-.28-.85-.5-1.72-.79-2.56a7.74,7.74,0,0,0-2.85-1.3,1.24,1.24,0,0,1,.26-1.13c1.43-1.76,2.9-3.47,4.45-5.12.94-.92.53-2.25.64-3.46,1.75,0,3.91.59,5.21-1,.89-1.28,1-2.77,2.32-3.81s2.33-3.65,4.53-3c5.22,1.09,10.07,4.85,15,7,6.19,2.63,12.21,5.3,18.85,6.47,3.06,1,6.21,1,9.32,1.67.84.32,2.11-.3,1.85-1.31-1.23-1.38-3.31-1.59-5-2.47-2.71-1.37-5.8-2.84-7.91-5.07a111,111,0,0,1-7.77-8.61c-2.62-1.59-3.89-4.49-6.68-5.73a7.91,7.91,0,0,0-1.58-1.53c.13.82.55,1.66.13,2.46a2.2,2.2,0,0,1-3.28.44,15.34,15.34,0,0,1-4-6.28c-.2-.67-.56-.8-1.09-.41-.24,1.48-.25,3-.41,4.51h-.69a13.6,13.6,0,0,1,.75-7.22c-.83.28-1.72,1.23-2.05-.2,1.06-1.75,2.3-4.2,4-5.37-.25,4,1,8.18,2.45,11.91.55,1.16,1.4,3.24,3,2.12.79-1.28-1.18-2.56-.8-3.62.44-.33.86-.69,1.27-1.06A34.24,34.24,0,0,1,204,49.68c0-1,1.37-1.82,1.09-2.8-1.81,0-3,3.25-4.69,3.77a12.33,12.33,0,0,1,5.24-8.08c2.18-1.72,4.73.34,7.51-.35-1.05,1.34-2.61,2.14-3.66,3.5-1.78,2.21-3.21,5-3,7.88.09,1.61,1.3,3.21,3.09,2.57,0-1.32-1.44-1.67-1.13-3.2.4-3.49,2.75-7.47,6-8.9-.17.64-.34,1.27-.53,1.91l1.39-.49c.21,2.73-.39,5.57.76,8a14.73,14.73,0,0,1,.47,2.81c.31.94,1.07,1.61,1.38,2.56a2.27,2.27,0,0,1-1.28-1c-1.6-3.57-2.93-7-2.68-11h-.64a17,17,0,0,0,.52,6.84c1.07,4.42,3.79,7.85,5.1,12.12a1.64,1.64,0,0,0,1,1.31c.33-4.79.65-9.23,2.6-13.72a13.79,13.79,0,0,1,7.19-7.26,2.4,2.4,0,0,1,1.89-.06l.06.62c-2,2-4.15,3.58-5.68,6-2.08,3.13-4.21,7.29-3.8,11.15.18,1.58,1.63,2.43,1.48,4.14.26.88-.43,2,.91,1.8-1.09-2.73.43-4.87,1.73-7.18,1.64-2.69,4.17-3.78,6.28-6,1.15-1,1.94-2.38,3-3.46-1.42,4.78-6.86,8-8.52,13-.55,2-1.09,3.77,0,5.68l.87.06a15.43,15.43,0,0,1,1.3-6.26c.23-.63.56-.9,1-.84-.41,2.2-1.3,4.09-1,6.4,1,.24,1.16-.56,1.77-1.12a21.15,21.15,0,0,1,2-1.56c.53-.76.33-4,1.45-3.76.29.59-.32,3.33.62,3.05-.32-5.57,2.18-10.36,3.51-15.31l-.5,0c-.55,1.49-1,3-1.65,4.43l-.55,0a44.29,44.29,0,0,1,4.32-11.29c.24-.6,1.07-2.27-.19-2.23-1.09.51-1.61,2.18-2.34,3.11-.66,1.3-2.19.85-3.25,1.58A19.65,19.65,0,0,0,228.64,56c-.36,1.58-1.3,4.39-2.93,5a22.83,22.83,0,0,1,6-12.24c1.22-1.08,2.25-2.17,4-2.08-1.71-2.71-6-1.69-8.63-1.36a5.68,5.68,0,0,0-3.11-5,8.67,8.67,0,0,0-2.59-.43Zm.27,1.25a6,6,0,0,1,2.4.43c.9.58,2.5,1.94,2.25,3.11-1.51-.23-2.2-1.64-4-1.23-3.47.85-5.26,4.6-5.7,7.87l-.48.05c.12-2.26-.86-6,.74-7.72l1.07.07c-.14-.51-.26-1-.38-1.55A8.47,8.47,0,0,1,221.65,41.12Zm-.22,3.94c1.15,1,.18,2.56,0,3.81-.29.7-.11,2.71-1.26,2.52-.1-1.57.46-2.92.66-4.45l-.55,0c-1.37,2.64-1.32,6.3-1.74,9.2-1.24-.56-.78-2.48-.72-3.56.27-2.31,1.24-6.52,3.56-7.55Zm14.78,3.06a1,1,0,0,1,.25,0c-.42,1.8-2.2,3.34-3.17,4.92-.7.74-1.78,2.73-2.88,2.54,0-1.68,1.64-3.53,2.57-4.88C233.74,49.89,235,48.16,236.21,48.12Zm5.33.18c-.3,0-.25.3.16.87a16.44,16.44,0,0,1,7.63,4.74,53.11,53.11,0,0,1,6.3,9.41l0,.54c-3.15.68-5.36,2.38-7.57,4.63l-.57.06a47.6,47.6,0,0,1-.52-10h-.63c-.46,4.36-.3,8.67-1.28,13-.07,2.19-1.9,4.4-1.25,6.48a5.6,5.6,0,0,0,2.31.62,20.13,20.13,0,0,1,5.06-9.68l.49-.14c-1.59,3.54-4,6.79-4.8,10.86a4.49,4.49,0,0,0,.27,2.5c1.14.54,1.44-.44,1.64-1.34a31.94,31.94,0,0,1,3.88-11.15c1.06-1.73,2.09-3.93,4.37-4.16.85,1.38,2.21,2.89,2.64,4.43-6.43,2.92-9.94,8.79-11.93,15.29-.2,1.19-.21,3.49,1.59,3.06C249,83.92,251,80,253.21,76.42a1.34,1.34,0,0,1,1.15-.81C253,79,251,81.9,250.74,85.77c0,.68-.25,3.11,1,2.64a25.74,25.74,0,0,1,3-11.18,16.56,16.56,0,0,1,4.61-5.79c.69-.71,2.42.19,1.61,1.14-4.35,3.78-6.64,10.33-7.45,15.91,0,.82-.57,3.09.93,2.75a24.15,24.15,0,0,0,.05-4.58l.51.06c0,.79,0,1.58,0,2.37h.61a19.34,19.34,0,0,1,1.56-5.3c.95-.19.68,2.2,1.15,2.83C260.47,90.9,264,94.4,265.77,99a14.38,14.38,0,0,0,2.27,4c1.08,2.52.6,6,.81,8.71,1.29.2.56-2.65.66-3.39,0-4.43-1.3-8.32-3-12.35,1.63-4.06,1.4-8.3.37-12.5-.46-1.8-1.48-3.35-2.06-5.1.78-1.41,2.45-.3,3.73-1a4.37,4.37,0,0,0-.58-4.56c-3.89-5-7.7-10-11.74-14.88a37.94,37.94,0,0,0-7-6.69c-2.09-1.44-4.82-2.13-7.26-2.87a1.44,1.44,0,0,0-.42-.09Zm-.32,2a2.37,2.37,0,0,0-.95,1.4,80.81,80.81,0,0,0-2.83,9.53c-.58,3.24-1.73,6.56-1.15,9.85a1.41,1.41,0,0,0,.78.82C236.46,64.77,238.91,57,241.22,50.31Zm2,2.24h0c-.51.06-.82.59-1.08,1.1-1.77,4.26-1.94,8.52-2.5,13,0,2.94-.39,5.56.84,8.33a1.19,1.19,0,0,0,.78,1,71.48,71.48,0,0,1,.19-14.77l.64,0a76,76,0,0,1,0,10.67l.5,0a6,6,0,0,1,.32-3.54c.76-2.21-.29-3.7-.35-5.81.08-1.87-1.33-2.84-.6-4.76l.64.06a10.79,10.79,0,0,1,.86,5.1L244,63c-.48-2.08.52-3.62.72-5.61l-.46-.06c0,.56-.09,1.13-.14,1.69h-.59c-.32-1.11-1.42-2.8-.78-3.89.5-.18.77.17.82,1,1.07-.27,1-2.76.2-3.52a1.42,1.42,0,0,0-.3-.09Zm-16.91,1.91c-.21,1.79-1.3,3.34-1.65,5.13a19.56,19.56,0,0,0-.47,5.55c-.95.49-1-1.47-1.1-2,0-2.93,1.34-6,2.71-8.54ZM210,57.29c.95,5.27,4.31,10.39,7.48,14.61l1.2-.22a4.3,4.3,0,0,0,1.91.86l-.18-.81c-3.42-3.82-7-8.06-9-12.78C211.06,58.41,210.79,57.31,210,57.29Zm-4.11,0a13.74,13.74,0,0,0,5.8,10.92c1.1,1.89,2.93,2.43,4.39,4-.36-1.42-1.33-2.33-2.12-3.5a42.27,42.27,0,0,1-4.34-7.95l-.39-.17c-.38.49-.52,2-1.31,1.78-.6-1.62-1-3.29-1.62-4.9ZM175,57.92a74.92,74.92,0,0,0-5,9.69l-.37.1c.36-1.57.79-3.13,1.12-4.71C171,60.8,173.13,58.86,175,57.92Zm-1.06,11c-1,0-1.33,1.63-1.74,2.32-.43,1.76-.58,4.24.69,5.71.54.83,1.5,0,1.45-.77-.06-2.41-.1-4.82-.19-7.23a.76.76,0,0,0-.21,0Zm-.3,1.86a17,17,0,0,1,.14,5.32l-.65.09a17.41,17.41,0,0,1-.17-5.34Zm87.9,2.45a1.19,1.19,0,0,1,.79.41c.73,1,2.39,2.5,2.26,3.81-1.21.16-1.73-1.8-3.13-1.67l.19.8c3.63,3.78,4.49,10.15,4.92,15.18l-.46-.11a35.79,35.79,0,0,1-3.84-6.91c-.85-1.74-.92-3.93-2-5.48-1.66-.51-2.89.84-3.32,2.31-.32.59-.37,1.89-1.14,2,.28-3.13,2.28-6.21,3.92-8.83C260.13,74.09,260.77,73.17,261.53,73.21ZM259,80.61c.7,2,.87,4.2,1.45,6.26-1.74-.69-.58-4.08-2-5.15C257.87,81.09,258.37,80.75,259,80.61Zm-97.66,8.12-.49.07c-3.09,2.73-5.76,6.08-8.55,9.12-.41.53-1.28,1.24-1.19,2,.79-.1,2.57-.48,2.57.76a7.37,7.37,0,0,1-2.23,1.15c-.29.81.57,2,1.43,1.46,1.21-1.51,2.51-2.94,3.77-4.42.89-.87-.3-2.25,0-3.38.72-2.47,5-4,4.72-6.73Zm-11.51,9.43a1.33,1.33,0,0,0-.65,1.71C150.14,100.34,151.28,98.08,149.85,98.16Zm-.53,3.89a2.72,2.72,0,0,0-1.77.68c-1.91,1.67-2.65,4.48-2.68,6.94,0,1.23-1.33,2.23-1.36,3.45a20.7,20.7,0,0,1,.18,4.08c-.77,1.94-2,3.3-2.05,5.51-.18,1.42.49,2.62.57,4a6.91,6.91,0,0,0-1.13,2.1c.81-.12,1.62-.3,2.43-.42-.3,2.77-2.25,5.24-2.69,8a44.58,44.58,0,0,0-.56,9.51,9.13,9.13,0,0,0,1.2,2.5c-3.56-1.5-5.86-3.84-10.1-3.17-1.66.61-2,3.22-2.31,4.74-1.71,10.94-.1,22.32,2.94,32.89a59.3,59.3,0,0,0,4.48,8.49,10,10,0,0,0,6.12,4.85,9.44,9.44,0,0,1,.32,3c-.43,1.15-1.32,2.21-1.55,3.42.29.5.56,1,.82,1.5a22.44,22.44,0,0,0-.41,12.73c.22.73.77,2.27,1.76,2.06a18,18,0,0,0,.2-3c1,1.15,2.62,2.38,2.86,3.91.25,2.06-3.12,2-2.43,4,.35,1,1.78.66,2.05,1.55-.5,2-1.61,4.47-1.38,6.66,1.14,1.73.49,3.5,1.11,5.34a5.79,5.79,0,0,0,2.3-.09,15.3,15.3,0,0,0,1.76,3.38c.33,3.33,0,6.52,1.3,9.71.45,2,1.69,3.69,2.35,5.59-2.29,1-4.82,2.88-7.33,2-2.15-.36-4.82,1.17-6.07,2.88-1.37,1.91-3.58,2-5.33,3.57a49.62,49.62,0,0,1-5.74,5.21,102,102,0,0,1-11.25,5.17c-9.47,3.05-18.21,9.71-26.21,15.5C83.54,295.64,75.47,301.08,67,306c-5.22,3.6-11,6.09-15.91,10.07a46.88,46.88,0,0,1-2.65,7.06A203.29,203.29,0,0,0,77.31,351.4q-7.12-8.4-15-16.17a107.74,107.74,0,0,0-10.2-9.61c0-1.34,1.33-2.73,1.79-4,.48-.79.64-2.19,1.45-2.66a69.06,69.06,0,0,1,12.07,3.65c8.22,3.42,16,8.71,24,12.65l-.48-.67A81.45,81.45,0,0,0,62.59,320c-2.33-.73-4.82-1-7.1-1.81a.93.93,0,0,1,.44-1.44c4-2.09,8.16-4.06,12.13-6.29,6.78-3,13-8.06,19.4-11.41,6.68-4.17,13.05-8.76,19.49-13.28.78-.56,1.38.48,1.87,1,1.39,1.79,3,3.46,4.2,5.37,2.37,4,5.47,7.36,7.75,11.39.86,1.11,1.67,3.35,3.43,2.28.65-2.73-1-4.5-1-7.1.64.26,1,1.09,1.39,1.62,2.13,3.24,4.87,6.13,7.3,9.15,1.28,1.63,3.42,3.39,5.51,3.62,1.76-.23,1.48-1.37,1.74-2.71a1.08,1.08,0,0,1,1.33.77c2.4,4.22,4.9,8.69,8.14,12.31,1.49.47,1.43-1.23.85-2.1-6.1-8.53-10-18.61-13.24-28.52a93.42,93.42,0,0,1-4.52-21.75c-.33-1,1-2.64,2.08-2.65h0l.21,0h0a70.22,70.22,0,0,0,9.15,33.88c.78,1,1.38,2.72,2.45,3.38-2.19-6.51-6.13-12.39-7.76-19.2-.4-2.12-1.33-4.32-1.6-6.41,1.6-1,3.59-1.21,5.19-2.32,1.06-.55,2.13-1.73,3.36-1.65-.82,2.18,1,3.47.52,5.72,1.07.66,1.13,1.95,1.63,3.05a63.71,63.71,0,0,0,5,10c3.37,5.84,8.25,10.6,11.79,16.25a130.14,130.14,0,0,0,15.66,18.53c2.05,2.42,4.61,4.09,7.11,6,1,.74.13,1.71-.5,2.33l-1.19-.25a9.51,9.51,0,0,0-2.17,2.76c.63,0,1.27,0,1.91,0,1.43-1,2.15-2.91,3.51-3.78.9.52,3.38,1.48,3.36,2.63a12,12,0,0,0-3.87-.16c-2.09,2.5-4.14,5.31-6.79,7.23l-.11.44a58.49,58.49,0,0,0,14.68,4.41c1,5.17,4.06,9.95,5.58,15,1.18,4,2.34,8,3.82,11.91.6,1.28,1.26,2.92,3,2.14.56-.92.32-2.25.18-3.27-1.06-6.55-2.3-13.06-3.23-19.64,1.65.75,1.95,5.24,4.3,3.64a35.2,35.2,0,0,0,1.84-8.42,69.82,69.82,0,0,0,8.41-.62c1.91-.45,3.78-1.13,5.64-1.76.5-.1.68-.42.54-.95-1.63,0-3.27-.06-4.9.13-6.95,1.59-14.35,1.53-21.42.87l0-.54a72.76,72.76,0,0,1,5.85-6.44.81.81,0,0,1,1.41.76c-.92,1.45-2.31,2.12-2.53,3.95.95-.19,1.19-2.7,2.77-2.35.41.84-.81,1.82-1.18,2.57,2-.56,2.06-3.52,4-4.52,3.39-.43,6.49,0,9.73-1.26a63.59,63.59,0,0,0,8.21-2.48c-.13-.74-.6-1.64-.29-2.36.55-1.36,0-2.89.59-4.2l.67,0a14.49,14.49,0,0,1,.13,4.41l.48,0a21,21,0,0,1,.11-5.2l.55.08c.12.63.36,1,.72,1-.06-1-.24-3.31,1.5-2.51.65,2,.26,4.46.26,6.56h.8a49,49,0,0,0-.37-7.77,1,1,0,0,1,1.27.71c.95,2,.89,4.08,1.3,6.2.11.58.35.87.75.88-1-2.88-.83-5.75-2-8.61.41-.71.85-.92,1.33-.64a27,27,0,0,1,2.5,7.79l.69.33a85.55,85.55,0,0,0-2.63-8.23,1.68,1.68,0,0,1,2.14-2.06l.13-1.15c1.3-.56,1.84,2.15,2.51,2.88.54.52.79,2.08,1.53,2.13-.47-2.13-2.32-3.7-2.9-5.86,2-2.95,4.9-5.3,6.92-8.29,1.8-2.18,3.43-5.74,6.21-6.65.88.71,1.58,1.59,2.41,2.36.51.06,1,.08,1.57.1l.15-.5c-.86-1.45-2.84-3-3.27-4.71a21.37,21.37,0,0,1,3.33-6.18,44.74,44.74,0,0,1,5,4.52,2.62,2.62,0,0,0,1.64.89c-1.37-2.54-4.63-4.35-6.08-6.85l.09-.56.53.05a57.69,57.69,0,0,1,6.5,5.69c.38.12.68,0,.92-.48.11-.93-2-1.51-1.62-2.53a2.77,2.77,0,0,1,3-.27c-.37-.6-.73-1.19-1.08-1.79-1.26.09-1.86-.91-2.73-1.65l-.58-.5c-.3-.43-.58-.87-.85-1.31-.72.24-2.22-.43-1.83-1.34a1,1,0,0,1,.48-.13c.67,0,1.22.85,1.35,1.47l1.33,0h0c-.46-.7-.89-1.4-1.33-2.11-.86.27-1.27.06-1.21-.65a.88.88,0,0,1,.57-.18c.28.05.49.32.64.83l1.38,0h0c-.4-.93-2.54-1.65-1.93-2.7a1,1,0,0,1,.34-.1,1.6,1.6,0,0,1,1.13.5c2.33,1.71,4.45,3.81,6.9,5.33.65.37,1.46,1.43,1,2.18-1,.32-2.21-1.7-3.21-2.07l-.83-.41h0a3.14,3.14,0,0,0-2.63-2.18,25.23,25.23,0,0,0,1.3,2.25l-1.34-.16a9.6,9.6,0,0,1,2.08,2.86l1.34-.11.65.72.67.56c.39.77.81,1.17,1.27,1.23,4.63-7.32,7-15.33,9.07-23.66a45.34,45.34,0,0,0,.1-9.46c1.62.32,3,2.55,4.57,3.37,6.44,3.65,13.67,6.56,20.4,9.67,5.7,3,9.37,7.61,14.72,11.26,6,4,11.78,8.25,17.53,12.56a111.4,111.4,0,0,1,10.42,8c2.58,2.41,5.8,5,7.8,7.92a32.86,32.86,0,0,0,1.94,9.28c.63-.66,1.25-1.32,1.87-2a21.39,21.39,0,0,1-1.37-4.21c-.48-1.64-.57-3.85-1.72-5.16-9.57-11.15-22.51-20.06-34.62-28.28-3.59-2.55-6.77-5.53-10.23-8.24-3.22-2.53-6.72-4.2-10.25-6.16-4.19-2.36-8.93-3.72-13.19-6a54.5,54.5,0,0,1-7.27-5c-2.66-1.4-7-1-8.7-3.66a17.19,17.19,0,0,0-4.41-3.79c-2.07-1-4.69-.66-6.77-1.4-1.55-.88-3.17-1.92-4.62-2.94-.34-.76.37-1.79.5-2.57.76-2-.09-4,.24-5.88.86-1.55,2.48-2.63,3.28-4.18a45.89,45.89,0,0,0,1.07-11.81c-.06-1.41.9-2.66.84-4,0-1-1.32-1.69-1.17-2.62,2.7-1.46,2.59-3.59,2.39-6.33.06-2-1.34-3.49-1.12-5.43s.11-3.91.28-5.84c2.33-1.06,4.19-3.21,5.73-5.21,1.82-2.43,2.49-5.19,3.59-8,1.65-4.42,1.4-9,2.93-13.44.67-2.11.58-4.26,1.12-6.41.86-3.65.55-7.68.21-11.39a9.3,9.3,0,0,0-2.53-4.91c-1.68-1.25-3.28.13-5.1.07a8.19,8.19,0,0,1-1.44,1c.72-2,2.05-4.93,4.14-5.84.43.09.86.2,1.29.31,1.3-.89,1.66-3.18,1.87-4.64.31-4,1-8.14.71-12.14h-1.23c-.58,1.27,0,3-.15,4.45a27.35,27.35,0,0,0-5,.1c.09-.42.16-.85.24-1.27-1.28,0-3.24,1.3-3.77-.54a14.54,14.54,0,0,0,3.9-.06l-.09-.68c-2.73-.39-5.86-.49-8.37-1.66l-.16-.43c4,.51,7.82,1.77,11.92,1.89a2,2,0,0,0,1.14-1.24l-.4-.5C265.25,133.15,259.19,131,253,130l-.67.26c-.1.76.48,1,1.75.84v.41c-1.54-.31-3,.2-4.53,0-5.31-1.09-11-.63-16.4-.71-6.24.63-12.45,1.35-18.63,2.46-3.54.14-7.49.85-10.84-.28-1-.27-2-.53-3-.85-.06-.33.25-.5.94-.55.12-.84-1.69-.77-2.25-1-3.85-.78-7.57-2-11.37-3-3.23-.88-6.58-.87-9.83-1.69-5.5-.4-11.06-.48-16.57-.55.16-.42.71-.68,1.63-.75,1.79-3.8,5.46-4.31,9.15-5.09,1.56-.5,4-.81,5-2.28-.38-.91-1.46-1.11-2.34-1.26-1.87-.23-3.75-.53-5.36.68-3.71,2.49-6.75,6.89-10.63,9.1q-6.68.51-13.33,1.22c-2.3-1.72-1.91-5.77-.27-7.9,1.33-1.91.71-3.71,1-5.86,1-2.58,3.87-4.3,5.19-6.5.64-1.58-.52-2.47-1.13-3.8h0a1.21,1.21,0,0,0-1.11-.85ZM262,102.4c3,5.83,5.9,12.13,6.9,18.68a11.94,11.94,0,0,1,1-.88c.15.57.41.88.81,1-.29-2.91-.77-5.75-.79-8.69l-.6.17c-.47,1.54.12,3.46,0,5.09l-.48-.12c-.68-3.95-2.55-7.78-4.17-11.43-.67-1.3-1.39-3-2.72-3.77Zm-114.25,2.43a3,3,0,0,1,1.09.9,2.33,2.33,0,0,1-1.76,1.74C147.08,106.72,146.75,105.05,147.73,104.83Zm114.66.47c-.3,0-.51.24-.63.79a4.24,4.24,0,0,1-1.14-.25c0,2.89,1.19,5.28,1.86,8,.6,2.46,1.54,4.82,2.12,7.29l-.47-.06c-.57-1.67-1.09-3.37-1.71-5l-.57-.07c.09,2.3,1.26,4.62,1.9,6.86.26.54.5,2.23,1.4,1.77a5,5,0,0,1,.25-1.69c1.91-.54,1.22-2.14,1.31-3.67C266.37,114.48,264.31,109.65,262.39,105.3Zm-81.11,11a1.15,1.15,0,0,0-1.3.81c.87,0,3.35-.55,3.37.82a6.43,6.43,0,0,1-1.88.91c-.2.8,1.2,1.71,1.56,2.45-2.36-.72-3.9-2.26-6.55-2-.38,1.11,1.69.67,2.33,1.06,3.09,1.13,5.43,3.9,8.41,5.06-.21-1.69-2.05-2.21-2.51-3.79,1.79.52,3,2.19,4.73,2.69a6.34,6.34,0,0,1,4.74,1.35c.16.49.31,1,.46,1.48a21.17,21.17,0,0,0,5,2.14c-.15-1.37-1.62-1.73-2.53-2.59-1.58-1.43-3.45-2.4-5-3.87a48.54,48.54,0,0,0-7.8-5.82C183.5,116.93,182.25,116.29,181.28,116.25Zm-7.9.44a6,6,0,0,1,.73,0l-.05.92c-1.69.48-3.35,1.07-5.05,1.52A5.05,5.05,0,0,1,173.38,116.69Zm87.2.08a14.79,14.79,0,0,0,1.4,5.88c.49.9.18,1.68.14,2.63.43,1.31,1.62,2.3,2.28,3.54-1.24,0-2.42-.38-3.65-.43l0,1a17.47,17.47,0,0,0,4.56,3.09,3.7,3.7,0,0,0,1.28-2.79c-1.17-2.25-2.68-4.26-3.64-6.62-.84-2-2.06-4-1.83-6.23Zm-72.35.53c.24,1.16,1.55,2.06,2.37,2.86,4.38,3.65,8.91,7,13.53,10.4a1.43,1.43,0,0,0,1.41.09c0-.91.21-1.63-.62-2.25-4.53-2.85-9.34-5.67-13.68-8.91C190.23,118.75,189.42,117.63,188.23,117.3Zm27.15,4.11c-1,0-.95,1.89-1.28,2.69-.8,2.42-.08,5-.77,7.39-2.21.45-4.45.36-6.67.84l-.08.57c2.23.13,4.25.51,6.42-.14,6.88-.82,14-2.56,20.86-2.41,4.77,0,9.59-.22,14.36.06a10.32,10.32,0,0,0,3.42,0l-.11-.69c-4.4-.95-9.08-.8-13.57-1-6.23.18-12.07.14-18.08,1.76-1.84.15-4.09.84-5.84.42a2.12,2.12,0,0,1,0-1.81c.52-1.59.33-3.33.74-5,1.31-.3.64,1.73.72,2.46H216c-.23-1.68.15-3.34-.07-5a1.38,1.38,0,0,0-.51-.12Zm-45.6,7.3a58.09,58.09,0,0,1,20.12,3.08,50.33,50.33,0,0,1,9.86,5.17c1.22,1.07,1.41,3.24,1.11,4.74a68,68,0,0,1-7,12.18c-1.23,1.74-1.85,3.47-4.1,4.08-5.34,1.23-10.58.85-16.16.9a63.74,63.74,0,0,1-13.27-3c-2.19-.71-5.16-1.88-6.33-4-1.62-5.48-1.31-11.89-.68-17.5,0-1.74,1.8-3.27,2.94-4.43,3.18-1.78,7-1,10.53-1.19,1,0,2,0,2.93,0Zm-15.32.23c-.18.7-.93,1.19-1.47,1.65-1,.06-2.72-.66-3.22.43-.08,1.29,2,.09,1.81,1.18-.79,0-4.35-.87-3.82.67a17.06,17.06,0,0,0,3.91.16c0,1.38-2.31.77-3.22,1.27-.57,1.5,2.32.84,3.11,1-.08.63.09,1.87-.73,2-1.28.11-2.53,0-3.77.26l0,.68a36.77,36.77,0,0,1,4,.24c0,.81,0,1.61,0,2.42-2.37-.17-4.73-.09-7.1-.06-.6-3.93.61-7.29.72-11.1C147.88,128.92,151.07,129.26,154.46,128.94Zm15.18.6c-3,0-6,.2-8.9.26a6.34,6.34,0,0,0-5.83,3.53,15,15,0,0,0-.8,7.48c.36,3.76-.43,7.95,1.76,11.34a38,38,0,0,0,20.55,5.57c3.12.26,6.15-.46,9.28-.26l0-.45c-5.41,0-10.72.17-16-.9a54.86,54.86,0,0,1-11.13-3.24,5.31,5.31,0,0,1-2.75-2.2A26.85,26.85,0,0,1,158.25,136c1.9-2.12,4.08-4.46,6.62-5.78a53,53,0,0,1,9.68.3c3.17.33,6.24,0,9.32,1.06,1.93.72,4.32,1.1,5.95,2.36,2.52,2.67,4.5,6.13,7.24,8.62,1.54.86,2.62-.72,2.7-2.11.18-1.95-1.4-3.13-2.92-4-3-1.53-5.51-3.31-8.72-4.26s-6.3-1.95-9.65-1.91a41.69,41.69,0,0,0-8.83-.75Zm34.06,2a3.18,3.18,0,0,0-1.16.2c-.48,1,2.94,1,2.46,0A4.88,4.88,0,0,0,203.7,131.5Zm36.26.66a54.94,54.94,0,0,1,12.44,1.35,28.71,28.71,0,0,1,8,3c2.48,1,2.8,4.26,2.74,6.57l-.56-.08a20.58,20.58,0,0,0-1.08-4.15c-2.64-2.49-6.13-3.32-9.53-4.15-1.8-.41-3.8-1.17-5.63-.87-.24,1.32,1.77,1.79,2.57,2.55a76.39,76.39,0,0,1,10.34,10.16c.47.57.86,2.22,1.84,1.54,0-1.71-1.89-2.46.07-3.95,2.72,2.3,1.54,4.9,1.76,8,.24,2.18-1.31,3.74-2.34,5.54-1.1,2.21-4.71,2.41-6.86,2.86-5.63,1.49-12,1.15-17.83,1.29a30,30,0,0,1-7.87-1.15,13.24,13.24,0,0,1-6.81-4.15c-2.73-4.3-3.65-9-4.12-14-.12-.95.26-2.48-.73-3a14,14,0,0,0-3.66.2c-.65-.29-.87-.66-.66-1.13,1.38-.6,3.27-.1,4.68.15,2.05-1.58,3.49-3.56,6.2-4.25a2.27,2.27,0,0,1,.85.86,6.94,6.94,0,0,1,2.37-.31c.38,1.32-2.36,1.27-3.13,1.48-.41.93,1.46,1,2,1.18,3,.42,6,1.3,9,1.86,1,.11,2.57.39,3-.85a26.1,26.1,0,0,0-3.79-.9l0-.69a20.38,20.38,0,0,1,9.94,1c3.06,2.36,6.81,3.48,10,5.7,1.69.68,2.81,2.18,4.46,2.84a3,3,0,0,0-.63-1.14,38.65,38.65,0,0,0-14.89-11.66l-.47.15a4.06,4.06,0,0,0-.38,2.47,12.54,12.54,0,0,1-2.52-.07q-.12-.72,1.05-.84A8.32,8.32,0,0,0,239,134c-2.06-.51-4.42,0-6.54,0-2.81-.13-5.22,1.08-8.06.41l.11-.55c2.59-1,5.19-1,7.93-1.18A65.27,65.27,0,0,1,240,132.16Zm-19.22,1.51c-.37,1.18-2.59,1.48-3.4,2.56-1.53,1.88-3.83,2-6.05,1.56-.48-1.62,3-.73,3.84-.82l.08-.49a30.31,30.31,0,0,1-7.25-.17l0-.63c1.56-.13,3.09-.06,4.65-.1l0-.6a26.43,26.43,0,0,0-5.11-.07l0-.47c4.54.51,8.82-.4,13.3-.77Zm-38,0a25.19,25.19,0,0,0-10.82,2.3c-1.38.72-3.34,1.92-3.64,3.57,1.22-.71,2-1.91,3.27-2.62,2.41-1.51,5-2,7.66-2.74,1.7-.09,3.41,0,5.12,0v-.45h0c-.53,0-1.07-.06-1.6-.06Zm86.6,3.25a2.64,2.64,0,0,0-1.13.2c-.46,1.07,2.86.92,2.42.06A3.75,3.75,0,0,0,269.35,137Zm-90,1.11c-2.31,0-3.71,1.35-5.69,2.4-1.78,1-4,2.74-4.56,4.78.21.92,1.72,1.58,2.51,2,1.06,0,1.21-1.69,1.51-2.44s1.56-1.47,1.11-2.21c-.79-.47-2,.87-2.61,1.34-.77.63-.31,1.25-.26,2.08a1.19,1.19,0,0,1-.94-1.85,11.63,11.63,0,0,1,5.86-3.62c-.19.89-1.24,1.49-.93,2.39.52,1.93-.19,3.93,1.67,5.16.58.51,2.27.43,2,1.42a5.67,5.67,0,0,1-3.29-.52c0,1.39,2.73.81,3.62.72.9-1.26,2.5-.91,3.48-2.09,1.49-1.4,1.17-4.53-.88-5.2-1.45-.75-2.63-.25-4.09.06a1.13,1.13,0,0,1,.87-1,17.92,17.92,0,0,1,4.84-.64,16,16,0,0,1,5.62,3.89l.05.5c-1.54-.22-2.53-2.55-4.07-2.54a2.26,2.26,0,0,0,.76,2.61c1.55.84,2.93,1.7,4.69.83a7.39,7.39,0,0,0,1.38,1c-.51-1.58-2.26-2.69-3.3-3.94-2.49-2.36-5.2-5.28-8.92-5.1l-.47,0Zm28.75,2.47h0a5,5,0,0,1,2.83,1c2,2.86,2.72,6.95,3.43,10.31a75.46,75.46,0,0,1,1.78,7.74c.58,3.3,2.09,6.7,2.09,10l.5,0a22.94,22.94,0,0,0-.62-4.6,21.88,21.88,0,0,0-.33-4.43c-1.16-4.78-1.84-9.9-3.61-14.48l.6.49c1,2.84,1.9,5.74,3,8.54,2.2,4.71,6.56,7,11.34,8.45,5.78,1.45,11.13.81,17,.83,4.9,0,9.52-1.31,14.25-2.12a7.4,7.4,0,0,1-.2,1.39,3.17,3.17,0,0,0,1.53-1.41c1-1.81,3-3.1,4.82-4.11,1-.48,2.94-1.1,3.85-.21.52,1.08,1.26,2.89.69,4a25.25,25.25,0,0,0-6.69,5.61c-1.2,1.47-2.39,2.74-2.5,4.75l.42-.17a27.47,27.47,0,0,1,8.43-9.34l.58.23c.32,2.75-.68,5.22-.67,7.93h-.48a30.38,30.38,0,0,0-.1-4.37h-.58c-.06,1.07-.09,2.14-.2,3.22-1.23.37-.54-1.75-.71-2.44l-.48,0c.06,2.48,1.13,4.7,1,7.21.56,3.86-1,7.16-1.23,11-.06,3.06-1,6.09-1.76,9.07-1,3.61-3.43,5.61-5.77,8.32l-.37.07a20.75,20.75,0,0,1-1.28-2.48,16.52,16.52,0,0,0,.13-5.39c-.05-.74,1-1.14,1.46-1.58.14-2.59-1-5.3-1.21-7.89a6.38,6.38,0,0,0,2.59-4.89,13.41,13.41,0,0,1-.61-5.23h-.44a12,12,0,0,1-.19,3.11c-1.34.44-.58-1.71-.71-2.42l-.42.06c-.18,1.43-.85,2.38-.07,3.77a2.18,2.18,0,0,1-1.24,1c-.67,1,.83,2.62.57,3.79-.28,3.29,1,6.08-.13,9.39-1.17.27-.18-1.79-1.33-1.58-.09,1.59.47,3,.68,4.5-.26,1.35-.77,2.09,0,3.4a11.36,11.36,0,0,1,.91,9.1c-1.05,3.35,1,5.95.35,9.32-.39,1.33-2,1.91-2.06,3.52-.16,1,.58,1.92,1,2.79-1.12,3.87-.71,8-1.82,12-1.19.31-2.48-1.33-3.81-1.32-1.77-.49-3,.55-4.63.64-.6-1.36-1.05-4.07-2.71-4.47,1.2,1.85,1.23,3.9,2.15,5.79.92.35,2.09-.38,3-.48.94.69,1.08.63,2.15.3.93.28,1.69,1.34,2.35,2-.47,1.68-1.83,3.32-2.5,5l-.46,0c-.17-.75-.32-1.51-.43-2.28,2.49-.27.95-3.78-1-3.86-.87.56-2.31,1-2.14,2.32.23,3.17,1.09,6.55.35,9.73a9.57,9.57,0,0,0,.24,3.91c-1,1.43-2.36,2.56-3.14,4.19-.83,1.38-.68,2.86-.69,4.41l.48,0a6.72,6.72,0,0,1,.47-3.44c1.25-2.52,4.71-3.72,7.15-4.74a96.16,96.16,0,0,1,10.76,7.32c1.46,2.87.84,6.85.67,10-1.81,11.21-6.66,22.14-12.45,31.86a81.18,81.18,0,0,1-14.24,18.58,71.45,71.45,0,0,1-18.42,11.66c-4.82,1.54-10.26,1.63-15.26,1.17-5.05-1.52-10-1.85-14.76-4.31-7.07-2.73-11.13-7.94-15.86-13.51-6.08-6.94-11.06-14.39-16.49-21.82a68.37,68.37,0,0,1-9-17.61c-1.62-5.8-2.75-11.34-1.43-17.37,1.93-1.09,4-1.91,6-3,1.81-1,3.66,0,5.46-1.08-.28,1-1.46,2.1-1.22,3.11,2.1,1.26,5.51-1.3,6-3.44.14-.88-.09-1.32-.68-1.31-1.22.68-1.65,2.53-3.23,2.57a12.1,12.1,0,0,0,.37-2.45c-1.31-.08-2.31.24-3.15-1-3.3-5.24-5.25-11.32-4.17-17.55h.7c.56,2.47-.18,5,.7,7.49.24.6.26,2,1.2,1.84-.12-1.54-.75-3-.83-4.55.43-1.45,1.74-1.36,2.91-.92a17.94,17.94,0,0,0-1-5.67c-1.25.39-.6,2.6-1.92,2.44-.43-1.48.24-2.53.69-3.88-1.31.29-.63,2.67-1.81,2.45-.1-.81-.36-1.22-.8-1.2-.36.43-.56,1.87-1.25,1.72-.61-1.77-.7-2.76-2.71-3.33-.28-1.11-.56-2.22-.85-3.33,0-3,1.74-5.1,2.26-7.8l.47,0c.2,3.14-2.8,6.81-1.06,9.7,1,.47,1.45,1.81,2.32,2.09,1.23-2.49,1.84-4.91,4-6.81,1.65-1.65,3.72-2.62,5.56-4l-.06-.54c-1.45-.5-3.05,1.17-4.55,1.24-.3-1.26,2.16-1.79,3-2.16-.64-1.44-2.62-.5-3.39.49-.1,1.39.09,2.7-1.66,2.95,0-4.75.35-10-1.08-14.57-1-.48-1.51.17-2.4.56-1.06-1.21-1.49-3.18-2.21-4.66a.94.94,0,0,0-.86.73c-.91,2.38-1.75,5.28-1.26,7.83.73,1.22,1.86,1.8,2.14,3.24-1-.89-2-1.86-3-2.77-.82-2,.49-4.56-.19-6.48a10.66,10.66,0,0,0-1.36.21c.33-2,1.26-3.8,1.55-5.78-.28-1.28-.93-2.57-.67-3.87a48.52,48.52,0,0,0,2.6-5.73,36.29,36.29,0,0,0-.19-4c-.8,0-.82,1.48-1.23,2-.6.93-1.12,2.49-2.16,3-3.87-.9-5.47-4.93-7.32-8-3.44-4.84-3.69-11.58-5.18-17.22a85.25,85.25,0,0,1,.4-22.17c1.51-1.12,4.35.76,5.9,1.34,1.84.64,4.11,2.78,6.06,1.84.81-2-.14-4.57.26-6.64l.58-.1C148,147,149,153,152.7,156c5.62,2.75,12.27,3.77,18.43,4.64,6.43,0,13.53.94,19.84-.85,5.19-1.89,7-6.43,9.66-10.84,1.92-3,2.69-5.91,5.84-7.8A2.49,2.49,0,0,1,208.12,140.54Zm22.38.23a4.35,4.35,0,0,0-2.06.44c-2.14,1-4.39,1.93-6.46,3.12a3.72,3.72,0,0,0-1.66,3.47c1.26.14,2.38-1.77,3.37-2.43,2.51-1.88,5.2-4.86,8.64-3.51l-.08.52a24.55,24.55,0,0,0-7.68,5.22,7.57,7.57,0,0,0-2.1,3.05c1.13-.35,1.68-1.27,2.65-1.88,1.26-.41,2.42-.29,3.13-1.62.43-.46.71-1.84,1.47-1.67-.15,1.7-.92,3.15-.14,4.75.81,2,3.61,2.43,5.35,1.56a8.33,8.33,0,0,0,3.2-5l.52,0c.09.75.21,1.51.35,2.26,1.05.63,2.64,1.27,2.11,2.8-2.16,1.94-6,1.7-8.65,1-2.72-.36-5.2-1.66-7.9-2l.11.44c4.22,1.65,9.27,3.43,13.84,2.76a24.72,24.72,0,0,0,5.44-2.66c-.29-1.58-2.19-2.43-2.54-3.87,1.49.41,2.68,1.86,3.85,2.81a13.92,13.92,0,0,1,4.53,7l.51.08c.24-2.87-2.21-5.43-4-7.42A45.24,45.24,0,0,0,235.08,142,13.59,13.59,0,0,0,230.5,140.77ZM145,142.16a39.44,39.44,0,0,0,5.94.58c.54,2.25-2.53,2-3.89,1.79-.39-1.28,1.71-.59,2.43-.76l0-.46C148.29,143.36,145.29,143.89,145,142.16Zm89.7,1.88a3.44,3.44,0,0,1,1.36.38c1.46,1.08,1.08,2.7.26,4.06-.53.07-1.07.11-1.61.15a3,3,0,0,0-.28-2.59c-1.49.25-.55,2.71-1.85,2.49-.08-.59-.15-1.18-.22-1.77l-.43.06c-.1.71-.35,1-.76,1a3.27,3.27,0,0,1,3.08-3.74Zm-52.68.74c1.55.17.05,3.25-1.19,2.44C180.56,146.47,181.41,145.17,182,144.78Zm-32.48,1.73c.78,0,2.24.78,2,1.35-.78.32-3.2.24-2.37-1.17A.51.51,0,0,1,149.55,146.51Zm54.25,1.6a.84.84,0,0,0-.85.45c-1.15,1.83-2.08,3.75-3.39,5.49s-2.33,4-4.31,5.25a23.35,23.35,0,0,1-3.85,2.28c-.57.18-.69.6-.37,1.25,1.76.23,3.72-.46,5.38-1,2.19-1.48,3.61-3.89,5.8-5.41a105.81,105.81,0,0,0-1.76,13.94l.75-.4c1-5.05,1.29-10.18,2.45-15.22a28.94,28.94,0,0,0,.6-6.58A2.48,2.48,0,0,0,203.8,148.11Zm-52.55,1.35c1.22.15,1.19,2.36,1.76,3.33-1.86.23-1.83-.48-1.37-1.95-.92-.31-1.25-.74-1-1.31A1.48,1.48,0,0,1,151.25,149.46Zm79.19.13c1.27.48,2.52.88,3.84,1.24l.1.53C233,151.54,230.64,151.36,230.44,149.59Zm-83.83,1.85c-1.51,0-.6,1.91-.51,2.91.73,2.18-.85,3.7.44,5.69,2.18,3.81,4.09,7.76,6.17,11.61a6.08,6.08,0,0,1,.3,1.42c-1.19-.71-1.36-2.7-2.61-3.18-1.55.09.17,2.2.45,2.85q-.21.66-.45,1.32c.14.9.77,1.76.64,2.67-2,.69-3.35-.69-3.2-2.61l1.08-.3a3.76,3.76,0,0,0-.6-1.93c.15-.44.31-.89.47-1.33-1.16-2.07-3.27-4.86-3.17-7.41.46.11.9.24,1.35.39-.69-.91-1-3.2-1.91-3.62.91,2.07-.26,3.77.6,5.85-.77,2.06,1.41,4.36,1.91,6.09-.72.13-1.11.42-1.14.85a11.52,11.52,0,0,0,2.19,5.08c1.37.13,2.19.24,2.57,1.76-.15,2.72-1.94,6-1.27,8.59,1,.27,2.08-.59,3-.25.24,1.58-.52,2.94-.51,4.47,2,3.4.51,6.61,1.24,10.32a9.69,9.69,0,0,1,1.59,5.39c1,.23,1.62-.62,2.56-.49,1,1.13,1.5,2.63,2.46,3.8.89.88,2.13-.21,3.12-.44.78.67,2.16,1.23,2.58,2.17a47.84,47.84,0,0,1,0,5.22h-.62c-.07-1.32,0-2.62,0-3.92h-.56a17.76,17.76,0,0,1-.07,3.26l-.62,0a19.28,19.28,0,0,0-1-5.05c-1.14-.31-3.48.65-2.92,2.16.78,0,1.14-.59,1.76-.95.5,3.17,0,6.08,1.67,9.08a1.12,1.12,0,0,0,1.6-1c-.15-.89-.36-1.76-.49-2.65,1.12-.23.67,2,1.66,2.23,1.19.14,2,1.16,3.11,1.22.64-.46,1.68-.89,2-1.67,0-2.91-.32-5.63.25-8.56a32.17,32.17,0,0,1,1.64-4.21c-1.29.32-2,1.39-3.2,2a5.84,5.84,0,0,1-3.12.43l-.15-1a19.31,19.31,0,0,1,3.94-5.1c-.8-.67-1.63-.47-2.59-.58a3,3,0,0,1,.12-1.77c1.94-5.5,4.92-10.38,7.9-15.34.95-1.77-.11-3.14-2-3.16a14.41,14.41,0,0,1-9-2.68c-1.77-1.34-1.48-4.33-1.13-6.25a48.86,48.86,0,0,1,5.11-10.57c.59-.78-.5-1.64-1.21-1.75-5.05-1-10.45-1.86-15.22-3.87-2.47-1.74-3.87-5.09-5.93-7.09a1.27,1.27,0,0,0-.33,0Zm-12.92.43a1.55,1.55,0,0,0-1.44,1.2c-.07,2.29,0,4.78.08,7.07a21.7,21.7,0,0,1,.44,5.39h.5a101.51,101.51,0,0,1,.1-12,2,2,0,0,1,1.39.55c2.16,1.81,3.84,4.23,5.68,6.37-.08.57-.17,1.15-.26,1.72l1.34-.3c1.07,1.2-.28,2.53-1.35,3,0-.6,0-1.2-.08-1.79q-.69-.15-.72,1.05l-1.11-.29c-.65,2.42-1.69,4.74-2.2,7.18.8-.3,1.6-.6,2.37-1,.59-.45.93-1.65,1.74-1.54-.09,2.92-.42,5.63.28,8.54h.91c-.18-1.75-.92-3.09-.05-4.79,1.19-2.77,1.41-5.77,2.69-8.5-.72-1.26-1.63-2.4-2.28-3.71-1.42-2.87-3.91-5.28-6.22-7.45A2.86,2.86,0,0,0,133.69,151.87Zm46.65.07a1.78,1.78,0,0,0-1,.26c-.34,1,1.77.78,2.22.45C181.8,152.08,181,151.9,180.34,151.94Zm-27.26,1.53c1.89-.09,2.16,1.82,4.1,2.15.54.3,2.22.39,2,1.26-1.76,0-3.52-1-5.22-1.44-.92-.21-1.1-1.12-1.24-1.93A2.85,2.85,0,0,1,153.08,153.47ZM232,155c.53,1.06,1.49.91,2.5,1.07,1.52,0,3-.07,4.55,0v-.43c-2.47,0-4.73.31-7.06-.64Zm-4.18,6.66h0c1.77.4,3.23,1.12,5.1.81l0,.49a15.64,15.64,0,0,1-5-.75Zm7,1.47a34.21,34.21,0,0,0,5,0v.45a33.11,33.11,0,0,0-5,0Zm-39.26,9.6-.5.09c-1.82,3.21-3.88,5.74-4.74,9.49-.13,1.45-.3,3.34.49,4.64a2.09,2.09,0,0,0,2.58.72c-.3-1.9-1.36-3.47-1.29-5.48C191.79,178.86,194.75,175.87,195.53,172.74Zm-57.81,1.57c-.44.07-.66,1-.91,1.37a7.41,7.41,0,0,1,1.32-.21c.32,2,.56,6.82,3.25,7.06a5.17,5.17,0,0,0,.58-.73c-1-.2-1.74-.27-2.16-1.35-.7-1.88-1-4-1.55-5.88A.66.66,0,0,0,137.72,174.31Zm126.41,1-.58.06c1.57,3-.57,4.95-1,7.92l1.38-.17c-.19.8-.4,1.6-.59,2.4.87.14,1.21-1.76,1.47-2.39.29-.78-.27-1.09-.63-1.68.48-2.13,2.23-3.36,1.54-5.85A3.66,3.66,0,0,0,264.13,175.31Zm-42,1.5a1.72,1.72,0,0,0-.42.08c.28,3.05,2.21,6.21,2.09,9.4.13,1.21-2,2.12-1.38,3.25,1.21.27,3.51-.33,3.36-1.91-.22-3.47-1.73-6.92-2.87-10.18A.79.79,0,0,0,222.11,176.81Zm-25.45,9a1.62,1.62,0,0,0-1.59,1.06c1,1.26,3.69.39,5.17.72.12-.87-1.79-1.05-2.37-1.44A2.25,2.25,0,0,0,196.66,185.78Zm21.81,1.38c-1.74,0-3.26,1.47-4.8,2.2-3,1.45-5.9,3-9.08,1.12a2.75,2.75,0,0,0,2.64,1.78,19.64,19.64,0,0,0,8.52-2.88,6.31,6.31,0,0,1,3.52-.69,1.75,1.75,0,0,0,0-1.44,2.82,2.82,0,0,0-.76-.09Zm-66.9,2.64a3.67,3.67,0,0,0-1.15.53c-1.84,4-3.09,8.35-2.34,12.76a1,1,0,0,0,.84.75c1.15-.78.67-2.53.7-3.73-1.28-.25,0,2-1.23,1.64C149,197.43,149,193.56,151.57,189.8ZM196,195.27c-2,.33-2.64,4-4.43,4.44l-.1-1.11c-.71.49-1.17,1.38-1.91,1.75l-.25-.92c-.86.16-1,1.52-2,1.88-.14,1.09-.82,2.19-.71,3.28.91.22,1.1-1.87,1.58-2.45,1.25-.19,2.47.41,3.49-.57A16.78,16.78,0,0,0,196,195.27Zm-8.64,6c0-1.5,1.08-2.48,1.36-3.9l-.47.12a19,19,0,0,0-2.82,5C186.16,202.67,186.7,201.62,187.35,201.31Zm36.81-6a8.62,8.62,0,0,1-3.16.08,8.62,8.62,0,0,0-.49,2.39c.78,1.75,2.35,3.2,2.92,5-1.74.09-2.49-3.6-3.92-4,.3,1.88,1.87,3.52,2.81,5.16.76.92,1,2.33,2.43,2.11a13,13,0,0,0-1-2.09q.22-.93.39-1.86c-.8-1.29-1.69-2.37-1.85-3.93l2.39.12a71.5,71.5,0,0,0,8.09,9.53c1.47.64,1.45-1.36,1-2.21-1.25-2.24-3.26-4.1-4.93-6C227.37,198.15,226,196.23,224.16,195.32Zm-222.6.1q.06,7.35.66,14.69Q1.62,202.77,1.56,195.42Zm196.8.28c-.49.05-.86.42-1.32,1-2.06,2.55-4.06,5.69-7.11,7.24-1.47.65-2.47,2.29-3.26,3.62a1.23,1.23,0,0,0,1,1c1.7.18,3.45.3,5.14.31s3.5-1.55,4.77-2.72c1.88-1.91,4.14-4.2,5-6.8l-.13-.59-.58-.08c-1.2,1.2-2,2.74-3.56,3.58l-.56-.22c-.39-1.86,1.95-4,1.68-5.94A1.76,1.76,0,0,0,198.36,195.7Zm-7.44.3c-.76.57-1,1.17-.76,1.77C191.06,198.23,192.3,195.85,190.92,196Zm25.26,1.44a71.08,71.08,0,0,0,6.19,9.91c.46.5,1,1.71,1.83,1.39.31-.78-.66-1.56-1-2.16a83.93,83.93,0,0,1-5.46-7.61A4,4,0,0,0,216.18,197.44Zm-5.7.05c-.35.08-.59.42-.73,1a20.17,20.17,0,0,0-2.24.45c-1.12,2.16-.57,4.45-1.49,6.68-.28,1-.34,1.88.8,2.2,1,.27,2,1.18,3,1-.79-2.84-.28-5.34.09-8.19h.74a16.56,16.56,0,0,0,2.14,7.71,4.58,4.58,0,0,1,2.6.6c1.61-.56.63-1.43-.47-1.71-1.13-1.47-1.43-3.49-2.53-5-.83-1.45-2.19-3-1.9-4.78Zm-59.3,0c.16,1,.74,2,.66,3-.43-.09-.86-.2-1.3-.32a24,24,0,0,1,0,4.24,4.19,4.19,0,0,1,1.7-.16c.41.72.54,2.42,1.61,2.34-.17-2-1.12-3.08-2.22-4.58.74-1,.81-4.12-.45-4.55Zm54.58,4.05c-.91.09-1.35,1.68-2.08,2.25l-1.14-.11c-.83,1.8-2.68,2.94-3.44,4.56,1.68,0,2.59-2.36,4-2.64a17.13,17.13,0,0,1-1.1,2.53C204.59,207.37,205.71,204,205.76,201.56Zm9.61.4a2.3,2.3,0,0,0-.42.07,13.78,13.78,0,0,0,.88,3.7,19.06,19.06,0,0,1,2.53,3.57c.48.91,2,.86,2.55,1.73a20.17,20.17,0,0,0,.71,2.51l.46-.1c.13-.68.39-1.05.8-1.13a22,22,0,0,0,4.05,3.48c2.65,2.44,5.27,4.78,7.1,7.92l.94-.09a2.67,2.67,0,0,0-.65-2.21c-2.46-2.92-5.83-5.24-8.85-7.55-.83-.76-1.39-1.79-2.23-2.53-.91-.29-1.74-.28-2.39-1.08-1.56-2.57-3-5.21-4.61-7.75A.93.93,0,0,0,215.37,202Zm-40.84.11c-.8,0-1.78,1.13-1.4,1.85.62.43,2.18-1.17,1.72-1.78A.71.71,0,0,0,174.53,202.07Zm1.82.77c-1,0-1.7,1.62-2.4,2.21-1.43,1.85-3.85,2.48-4.89,4.43,1.51-.41,2.69-1.8,4-2.65C174.26,205.77,175.94,204.47,176.35,202.84Zm8.71,1.25c-1.81.17-3.58,1.25-5.16,2.11a1.41,1.41,0,0,0-.73,1.19c1.92-.94,3.91-1.85,5.8-2.83Zm-8.64.95a15.08,15.08,0,0,1,.73,4.35c-1,.22-1-2.49-1.56-3.19-.86.84-.94,2-1.21,3.15.43.12.69-.24.79-1.06h.55c.08,1.69-.6,3.32-.61,5l1.19-.19c.06,1.3,0,2.55.22,3.85,0,.69.37.9,1.21.65a54.76,54.76,0,0,1-.54-7.25,5.3,5.3,0,0,0,1.2,1.06,19.76,19.76,0,0,0-1.52-6.31Zm78.66.17c-1.23.17.74,2.58.65,3.39l-1.26-.3c-.91.77-.74,2.43-1.3,3.46-.6.58-1.26.7-1.27,1.65,1.81.1,1.73-2.77,3.17-3.12,1.12,0,1.34,1.7,2.52,2-.76-1.58-.54-2.34-.18-4A14.68,14.68,0,0,0,255.08,205.21Zm-72.25,3a2.69,2.69,0,0,0-.77.13c-.8,1.35,1.12,1.93,2,2.45,3,1.72,6.12,1.67,9.47,1.8,5,0,10.17-.78,15.1,0,2.61.1,5.25,0,7.87,0v-.83c-3.6,0-7.5.5-11-.47-6.18-.92-13,.48-19-.91-1.89-.34-2.06-2.26-3.64-2.26h0Zm-25.69.73c-1.21,0-2.46,1.36-.8,2,.19,1.79-1,4.42.94,5.49l.58-.12c.21-1-.62-3.45.76-3.63a10.27,10.27,0,0,1-.11-1.57c-.35,0-.55.28-.61,1l-.55.05A25.26,25.26,0,0,1,157.14,209Zm1.48,3.77c.55,1.89,0,3.43-.46,5.22-.28.84.34,1.46,1.12,1.66C159.1,217.47,159.64,214.65,158.62,212.73Zm-10-3a.41.41,0,0,1,.19,0c.3.44.92,3.39-.18,3.05-.1-.52-.86-3,0-3.06Zm-1.28,2c.53,0,.62.38.29,1.09-.75.1-.92-.26-.55-1.07l.26,0Zm23,2.85.52,0a54.36,54.36,0,0,0,0,5.71l-.47,0a31.12,31.12,0,0,0,0-5.71Zm83.41.59a3.23,3.23,0,0,0-.5.08c-.13,1.21.94,1.22,1.66,1.93a2.76,2.76,0,0,1,0,3.86,6,6,0,0,1-1-.92c-1.34,3.05-.71,6-.79,9.21.8.12,1.14-.13,1-.73.11-1.73-.23-3.43-.21-5.15,1.2-.76,2-2.16,2.85-3.26.06-1.11.37-2.69-.56-3.51-.75-.8-1.31-1.58-2.38-1.51Zm-55.86.65v.44c2.84.37,5.61,1.25,8.44,1.63.91.27,1.17,1.71,1.73,2.43,1.8.23,5.19,1,6.38-.74,1.17-.67,2.52-.49,2.13-2.33a9.19,9.19,0,0,0-3.27-.07,30.37,30.37,0,0,1-10.46-.43,28,28,0,0,0-5-.93Zm-4.93,2.3h0c-1.15.08-2.57,2-2.84,2.9.78-.07,1.24-.38,1.86.26-.14.74-.84,1.25-1.07,2a5.21,5.21,0,0,0,2.87-2.85c-.16-.78-.37-1.54-.6-2.29a.81.81,0,0,0-.22,0Zm59.62,1.25a.39.39,0,0,0-.18,0,1.35,1.35,0,0,0,0,1.62c1,.29,1-1.72.18-1.66Zm-70.29.75-.8,0c-.26,3.63-.37,6.88,1.57,10.11a1,1,0,0,0,1.4.35c.32-1-.7-2.18-.72-3.25-.08-1.5,0-3,.05-4.52l-.45,0a37,37,0,0,1-.07,5.16l-.65-.07c-.58-2.79-1.63-5-.33-7.84Zm17.71,0a21.26,21.26,0,0,1-4.06.12,19.92,19.92,0,0,1-6.19,6.84,3.5,3.5,0,0,0-.83.8c2.17,0,4.19-1.93,5.33-3.64l1.13,0c.81-.7,1.47-1.54,2.29-2.24.69,0,1.88.49,1.88,1.31-.17.85-.42,1.69-.57,2.55.87.3,1-1.3,1.31-1.84.25-1.15,1.45-3.37-.29-3.87Zm-196.52.68q.54,4.73,1.31,9.42Q4.07,225.48,3.52,220.75Zm170.15,2c-2,1.23-3.45,2.92-5.82,3.63-.79.22-1.12.82-1.47,1.5,1.67-.11,3.71-2.27,5.1-1.82l.45,1.67c1,.19,1.45-.71,2.43-.89.62,1.84-3.1,2.62-2.81,4.58a16.86,16.86,0,0,1,0,3.33c-.75,2.66-.3,5.56-.66,8.31-.29,2-.34,3.93-.55,5.9.76-.61,1.35-.75,1.76-.43.34,4.52-2,8.52-1,12.82.19,1.38,1.37,1.63,2.08,2.7,1.31,2.13,1.38,4.42,2.25,6.64,1.22,1.18,1.38-.65,2.4-1,2.7,0,5.4.34,8.1.32,1.57-.21,1.89,1.45,3.43,1.37a13.9,13.9,0,0,0,5.32-1.2c1.19-1.2-.7-2.16-1.26-3.15a49.26,49.26,0,0,0-3.65-4.51,11.55,11.55,0,0,1-.25-1.45c2.8,1.37,4.69,5.1,6.45,7.57a1,1,0,0,0,1.45.29c.22-.81-.32-1.74-.59-2.51a30.31,30.31,0,0,0-3.75-6.6c-.73-1.11-2.41-.52-3.54-.55-.45-2.24-.21-4.53-.8-6.7s-1-4.38-1.76-6.46a8.47,8.47,0,0,1-.76-2.93c1.73-.62,2.37-2,3.43-3.35,2.9-.71,5.17-2.39,7.73-3.82,1.55-1,4-2.11,4.79-3.85-2,1.16-3.71,2.66-6,3.45-.86-.09-1.61-1.45-2.43-1.08a28.86,28.86,0,0,0-5.26,4.85l-.49.11c0-1.14,1-1.88,1.6-2.77-.76-2.76,3.86-4,4.41-5.93-2.35.55-4.39,3.11-5.82,5-1.9,2.41-2.23,5.09-3.11,7.94-1,3.78-.34,8.31,0,12.16-1.15-.35-1-1.45-1.33-2.43a56.11,56.11,0,0,1-.74-9.51c-1.06-.37-1.55.39-1.7,1.32a39.12,39.12,0,0,0-.26,6.49c-.83.19-.46-1.75-.74-2.27-.54-2.7-.16-5.43-.6-8.18h-.52c-.71,2.86-.22,5.56-.15,8.45l-.45-.18c-1.6-3.39-2.85-6.66-2.29-10.49-.54,0-.87.28-1,.93-.33,3.71.88,7.7,2.27,11.09-4.19-3.34-3.35-10.52-3.85-15.29.83.45,2.36,1.3,2.44-.31,0-3.53,1.07-6.77,1.57-10.21l-.16-.61c-1.76-.6-2.59-.55-4-1.9Zm50.08,1.33c1.06,3.15,3.62,5.68,4.33,9.08.92.84,1.49-.84,2.4-.94a11.81,11.81,0,0,1-1.39,6.11c-.36,1.37.8,1.41,1.75,1,2-1.32,3-4.23,3.87-6.34,1.1-.06,1.95.9,3,.23.31-.45.5-2.09,1.33-1.5.39,2,.95,4.5.3,6.46-1.41.41-1.66-1.39-1.55-2.41-.69.05-.68,1.42-.81,1.93-.33,2.19-.1,4.48-.43,6.63-.55.14-.9-.19-1.06-1-.33-1.79.41-3.73.31-5.56-.42,0-.68.33-.79.95-.95,4.36-.34,9.39-.65,13.8-.29,2.06-.29,4.14-.49,6.21h-.7c-.62-4.18.34-8.23-1.29-12.42-.39-.6-.83-.78-1.34-.54-1.21.06-.12,2.88-1.33,2.63-.12-.78-.4-1.17-.86-1.14a20.2,20.2,0,0,1-.23,7.19l-1.58.5a8.57,8.57,0,0,0-.55,2.82,10.25,10.25,0,0,0-5,2.57c-1,2.65-1,5.7-1.75,8.44a17.84,17.84,0,0,1-3.87,0c-.94.48-1.08,2.06-1.32,3s-.38,2.45.71,2.68c2.3-.17,3.53-1.55,4.69-3.41,2,1.22,4.18,1.65,5.27-.89.45-2.3.14-4.69.89-7,1.26.21,2.89-.21,4,.42l.42,1.65c1.48.72.24-2,1.66-1.64a21.18,21.18,0,0,1,.34,2.41l.87-.07c.61-3.25,1.29-6.58,1.61-9.87,1.37-.17.24,2.87,2,3.14-.21-3.56,0-7.1.08-10.67l.65,0c.28,1.75-.23,3.37.51,5.08a4.69,4.69,0,0,1,.36,2.79h.48a4.84,4.84,0,0,1,.36-2.76c.49-1.38.08-3,.45-4.44l.67,0c.27,2.75,0,5.72.09,8.52l.44,0c-.24-2.44.15-4.85-.11-7.3a5.18,5.18,0,0,1,.75-2.86,44.43,44.43,0,0,1,.24-5.28h.69c.35,2.37-.23,4.58.7,6.89.6,2.71-.21,5.71.3,8.48a1.45,1.45,0,0,0,.77.84c-.27-3.31,0-6.62-.09-9.92-1.29-2.43-.12-4.78-1-7.24-1.61-4.21.42-7.77-2.43-11.88-.8-.84-2.47-.18-3.53-.52a8.68,8.68,0,0,0-2.47-2.88,1.26,1.26,0,0,0-1.29,1.81,7.31,7.31,0,0,1-.16,3.88c-1.78.35-.35-2.31-2.45-2.29-.68.7-.78,1.67-1.91,1.61-.15-1-.25-1.94-.36-2.92a3.23,3.23,0,0,1-1.12,1C226.13,227.54,225.2,225.43,223.75,224.08Zm-34.84.37a1.24,1.24,0,0,0-.65.22q-.09,1.11,1,.51C189.29,224.71,189.17,224.46,188.91,224.45Zm62.49,4.3c-.81-.11-.74,3.55.07,3.06a4.52,4.52,0,0,0,.1-3A.34.34,0,0,0,251.4,228.75Zm-72.63,3.43h0c-.68.08-.93,1.32-1.13,1.86-1,3-.26,5.71-.41,8.74h.45c-.4-3.68.57-7,1.41-10.55a.72.72,0,0,0-.32,0Zm-14.28.64c-1,.09-1.17,1.64-1.51,2.39-.48,1.88-1.78,3.06-.82,5,1.12.39,3.61,1,3.09,2.63-.59,2.81-1.25,5.59-1.88,8.38-.1,2,1.93,2.45,2.91.81a27.78,27.78,0,0,0,3-14.36c-.16-1.11-.5-2.18-1.8-2.28-.84-.1-1.36,1-2,1.39-2.28-.9-1-2.26-.78-4Zm19.77,1.61a.5.5,0,0,0-.17,0c-.36.43-.56,3.14.39,2.84.34-.42.57-2.81-.22-2.86Zm-2.12.67c0,1.21,0,2.4,0,3.61l.94,0c0-1.19,0-2.38-.07-3.57Zm12.06.36c1.84.5-1.16,2.26-1.86,1.95-.33-.68.9-1.45,1.35-1.8Zm13.93.11c-1.26.06-1.51,1.19-2.26,2.1-.42.67-1.24,1-1.8,1.58-.61,2.53,0,5.29-.24,7.89l.55-.19a48.18,48.18,0,0,1,.11-6.58h.63c.26,2.13,0,4.48,1.92,5.94a10.74,10.74,0,0,1-.38-7.86c.35-1.08,1.56-1.81,1.74-2.88Zm35.6,1.37a22.53,22.53,0,0,1,1,4.06c-.4,2.38-.9,4.63.26,6.89.14,2.83-.09,5.71.08,8.55l.87,0c-.21-1.05-.54-2.09-.66-3.16s.65-2.28.67-3.46a34.81,34.81,0,0,1,.13-5.21q-.68-.06-.69,1.71c-1.38.47-.61-1.79-.45-2.41.89-2.44,0-4.3-.53-6.66Zm-86.35,3c0,2.79.27,5.59,0,8.37h.46c-.25-2.78.05-5.57,0-8.36Zm82.06.45a36.92,36.92,0,0,1-.42,7.12c-.43,1.9,0,3.81-.35,5.74l-.67,0a28.41,28.41,0,0,1-.18-6c1-2.14.32-4.53,1-6.83Zm.54,1.36.69,0a27.54,27.54,0,0,1,0,6l-.69.06A32.68,32.68,0,0,1,240,241.71Zm-81.22.24a52.76,52.76,0,0,1,0,7.75h.52a55.69,55.69,0,0,1,0-7.75Zm44.19,1.2-1,.21a35.66,35.66,0,0,0,.55,3.73C203.61,247,202.79,244,203,243.15Zm-195.17,0c.46,2.05,1,4.08,1.49,6.12C8.74,247.28,8.24,245.25,7.78,243.2Zm209,3.44a20.67,20.67,0,0,1,.79,9.14l.42-.06c-.05-1.24.76-2.29.41-3.45-.55-2-.1-3.7-1.09-5.58Zm-15.48.63c-.7.13-.45,2-.21,2.51,1.28,3.81,4.48,6.14,5.68,10l.38.11c-1-4.55-4.64-7.79-5.5-12.5A.54.54,0,0,0,201.27,247.27Zm34,.61H236a37,37,0,0,1,0,6.05h-.64c-.1-2-.11-4,0-6.05Zm-31.88.11-.26,0c-.38.79-.2,1.13.55,1,.35-.7.25-1.05-.29-1Zm-4.55.76c-.73-.09.28,1.79.07,2.38,1.3.21,1.14,2.2,2.09,1.92-.28-1.46-1.24-2.72-1.74-4.13a1.07,1.07,0,0,0-.42-.17Zm.07,2.38c-.81.4-2.06.69-1.64,1.88a48.63,48.63,0,0,0,3.89,4.9l.47-.1C201.5,255.3,199,253.59,199,251.13Zm31.46-1.89a19.06,19.06,0,0,1,.07,4l.6,0c0-.85,0-1.69.06-2.53l.62,0c0,3.15-.73,6.37-.39,9.51-.05.76.48,2.81-.81,2.7-.08-2.52-.59-5-.55-7.5,0-2-.66-4.13-.27-6h0Zm-61.25.27a.25.25,0,0,0-.12,0c-.91,1.45-1.07,3.34-1.74,4.92-.73,1.76-1.31,3.56-2,5.34l-.41.15c0-.84.49-3.33-1.13-2.15-1.18,1.56-3,3-3.65,4.88.82-.46,1.68-2,2.64-1.76.26,1.24-.82,2.62-.48,3.85,2,1.19,3.53-1.27,4.39-2.72.5-.61.65-2.32,1.5-2.39.23,2.82-.06,5.68.27,8.48,1,1.27,1.43,1.84,3.09,1.15,0,1.18.38,2.58,0,3.7-.18.78-.86,1.73-.07,2.38,1.27.89,3.23.6,4.58,1.53.13,3.09,2.62,3.65,5,4.64,4.5,1.44,8.75.57,13.13-.65,4.21,1.05,7-1.46,9.9-4.05.54-.44,1-1.33,1.72-1.43-.14,1.74-1.26,2.91-1.76,4.5,1.36.18.91.31.79,1.41,3.1-1.75,5.21-5.54,6.65-8.68,1-1.79-.24-2.9-.32-4.77-.83-.46-1.1,1.23-1.41,1.71-.65,1.58-1.36,3.14-2.06,4.71l-.45,0c.22-1.93,1.69-3.35,1.85-5.22-1.82-.47-1.73,2.44-2.49,3.45-2.49,3.35-5.76,6.75-9.72,8.28l-1.11-.14.05-.52c1.52-.63,5-1.67,5.06-3.65-1.34-.75-3.29.31-4.65.7-4.5,1.41-9.62,2.26-14.3,1.36-.56-.22-2.24-.36-2-1.22a73.73,73.73,0,0,0,10.19-.29c2.44-.25,4.79-1.06,7.21-1.36l0-.45a54.58,54.58,0,0,1-17.42,1.19v-.65A49.14,49.14,0,0,0,191,274.57a8,8,0,0,1,3.66-.18l-.08-.41c-1.33,0-2.44-.71-3.77-.57-1.65-.08-2.77.94-4.44.36.11-1.07.57-1.8-.54-2.52-2-.82-4.55-.45-6.68-.48-1.26-.07-2.15.85-1.68,2.09,1,.7,2.8.63,3.37,1.69-.52,1.45-1.65.95-2.54.17-1.06-1-2.88-.74-4.26-1.15-.47-2.57-1.11-5.09-1.36-7.7l-1-.49c-1.24.51-.17,2.3-1.79,2a10.06,10.06,0,0,0-.69-3.34,30.07,30.07,0,0,1-.13-7.28c.34-2,1.79-4.55.84-6.54-.18-.49-.41-.74-.7-.75Zm45.94,1.27q-.51,0-.75.81c-.51,1.33.62,2.69.51,4.16.34,0,.56-.34.69-.92a4.3,4.3,0,0,1,1.16,1c-.42-1.67-.92-3.36-1.46-5l-.15,0Zm7.05,2.77a19.28,19.28,0,0,1-2.71,1.75c-.51.9-.29,2.28-.44,3.31l.9-.18C220.23,256.51,221.24,255.19,222.15,253.55Zm-10.72,1c.16.83,1,1.86.65,2.66-1.62-.47-2.32-.12-2.82,1.53-1.07,1.75.11,6,2.64,5.37a6.82,6.82,0,0,0,.21-1.82c1.22-.06-.34,2.86,1.15,2.47a24.31,24.31,0,0,0-.54-5.25l.56,0c1.15,2.55,2.82,4.25,2.25,7.28.89.39,1-1.32,1.26-1.86a8.77,8.77,0,0,0-.79-6.77h-.49a14.71,14.71,0,0,1,.48,4.57l-.63,0a13.79,13.79,0,0,0-2.17-6.57C212.72,255.55,212.35,254.63,211.43,254.6Zm-13.48,2a1.72,1.72,0,0,0-.72.23,11.24,11.24,0,0,0,.59,2.52c-1.6,2.16.56,3.23,1.43,5.16l.36,0c.74-1,.27-1.73,0-2.81l1.33.35c1.4-1.45,0-2.56-.78-3.85-.68-.76-1.29-1.7-2.26-1.62Zm39.61,1.71c.18,1.37,1.22,2.35,1.19,3.82.12,2.51.4,5.81-.94,8.05-.33.62-.72.85-1.17.7.29-2.88,1.46-5.38,1-8.4a.88.88,0,0,0-1-.88c.07,4.73-.18,9.18-2.68,13.34,1.05-.38,1.45-1.47,2.17-2.29s1.63-1.13,2.26-1.87c1.24-1.74,1.45-3.58,2.07-5.56,1-2.07-.67-4.88-1.49-6.82A13,13,0,0,0,237.56,258.35Zm-83.1.57a48.67,48.67,0,0,0-4.66,1.94c-.81.4-2.07.75-2.45,1.63-.61,6.71,1.51,13.74,4.06,19.88A38.48,38.48,0,0,0,157.23,293c2.88,4,5.74,7.93,8.71,11.83a118.82,118.82,0,0,0,13.72,17.72,34.19,34.19,0,0,0,12.22,8.28,3.47,3.47,0,0,0,2.83.28c.3-1.22-.89-2.7-1.25-3.89-2.09-4.64-2.45-9.8-5.06-14.05a12.61,12.61,0,0,1-.05-3.63c1.07-5.24,1.92-10.54,2.53-15.86.2-3.45.41-6.85,1-10.28-2-.38-3.76.27-5.84.2a17.17,17.17,0,0,1-9-2.83c-1.33-.9-1.83-2.2-2.78-3.4-1-.91-3-.51-3.78-1.73s-.09-2.46,0-3.85c-.17-1.22-1.69-1.25-2.58-1.76-.79-1.15-.68-2.8-1.32-4-1.29-.8-2.82,1.67-4.22,1.39-.62-.81-.79-2.16-1.67-2.69-.78,0-1.56,0-2.34,0-.08-.57-.15-1.14-.22-1.72-.55-.92-2.06-.77-2.42-1.88-.39-.63-.48-1.84-1.19-2.15Zm110.37.73h0c2.54.73,4.68,3.6,6.74,5.19,1.3.84,3.3.54,4.55,1.57-.31.35-.64.7-1,1,.93.25,1.89,1.22.51,1.7-1.34-.54-3.41-.91-4.2-2.2a26.09,26.09,0,0,0,2.65.11l-.05-.56c-2.74-.16-4.94-2.36-7-3.95-.93-.84-2.17-1.51-2.17-2.91Zm-120.09,1.12a2.47,2.47,0,0,1,.75.17c.25,1.2-.48,2.63-.69,3.83-.07.8-1.15,1.38-1.89,1.36-.75-1.5.44-2,1.13-3.17-.95.19-2.19,2-3,1.31A4,4,0,0,1,144.74,260.77Zm60.72.1a2.46,2.46,0,0,0-.81.14c-.21,2.12-.47,4.67-1.68,6.51-.31.6-1.5,1.33-1.13,2,1,.15,1.79-.76,2.41-1.4,1.53-1.85,2.84-4.76,2.08-7.17A3,3,0,0,0,205.46,260.87Zm41.47.71c.59,2.42,1.45,4.88-1.38,6.23l-1.43-.72a7.13,7.13,0,0,1-2.79,6.2l-.54-.13a27,27,0,0,0,.46-7.51l-.61.12a23.17,23.17,0,0,1-.43,7.88,8.61,8.61,0,0,0,2.16-.21,13.67,13.67,0,0,0,2.62-5c3.41-.42,4.29-4.55,2.44-6.89Zm-41.51.19h0c.74,0,.65,1.82.3,2.19-1,.36-.85-1.71-.46-2.15a.34.34,0,0,1,.16,0Zm61.35,2a20.31,20.31,0,0,1,3.36,2.54l-1.22.08,0,.49a25.48,25.48,0,0,0,6.64,2.73c1.12.22,1.29,1,1.29,2-2.74,0-5.48-2.63-8.15-3.33,1.62,2.27,5.66,3,8,4.32.06,1.5,0,3,.06,4.51-2.68-.44-5.41-2.92-7.91-4.1-.79-.52-2.75-1.22-2.2-2.45,2,.4,3.71,2.24,5.71,2.91.41.33,1.71-.15,1.55-.75a36.38,36.38,0,0,1-6.52-3.75c-.11-.5.31-.72,1.27-.69-.6-.49-1.21-1-1.8-1.48a6.7,6.7,0,0,0-.14-3Zm3.85,2.42c.43,0,.7.23.8.77-.7.25-1.13,0-1.28-.65A1.6,1.6,0,0,1,270.62,266.19Zm-43.29.83a.84.84,0,0,0-.29.08c-.25,1.53,1.15,3.4.28,5-.58,1.29-2.12,1.57-3.26,2.21-1.38.61-2.1,1.69-3.23,2.62-1.6,0-1.94-1.77-3.79-1.46-.1,1.21-.12,2.42-.13,3.65l1.08-.25c.19.66-.38,3.48.74,3.09a36.3,36.3,0,0,1,.17-4.66h.69a14.57,14.57,0,0,1,0,3.79l.49.06a12,12,0,0,1,0-3.83l.61,0c.95,2.12,1.57,3.36,4,3.86-.63-.88-1.86-1.25-2.25-2.23-1.55-2.19,2.12-3.83,3.76-3.7.17,1.31-.86,2.28-.29,3.69.61.91,1.6,2.36,2.87,2.1a4.48,4.48,0,0,0,0-2.18,2.87,2.87,0,0,1-2.2-1q.15-1.28,1-1.47a4.73,4.73,0,0,0,2.55.33c.58.87.62,2.57,2,2.21.69-1.51-1.85-2-1.9-3.76A5.77,5.77,0,0,0,229,268.4c-.49-.37-1.05-1.4-1.7-1.37Zm-90.52,2.14a.62.62,0,0,1,.73.56c-.22.91-1.87,1.32-2.69,1.15-.44-1,.82-1.36,1.5-1.61A1.74,1.74,0,0,1,136.81,269.16Zm7.37,0a1.43,1.43,0,0,1-.55,1.28,25.19,25.19,0,0,1-7.16,4.3l-.12.41c3-.52,5.36-2.56,7.9-3.84a3.79,3.79,0,0,1-.21,1.55,41,41,0,0,1-5.39,3.63c-.54.37-1.53.64-1.73,1.32,2.78-.64,4.82-3,7.34-3.87a1.17,1.17,0,0,1-.52,1.38c-2.2,1.55-4.85,3.56-7.58,3.86-.83-1.87-.68-4-1.25-6a17.85,17.85,0,0,0,7.15-3A4.41,4.41,0,0,1,144.18,269.16Zm-3,0h.17c.37,1.06-2.43,2.08-3.25,2-.49.85-2.2,1.8-3.11,1.19-.29-1.06,2.44-1.45,3.11-1.19,0-1,2.12-2,3.08-2Zm125.64,4c1.34-.08,2.87,1.28,4.07,1.87,1.62,1.16,3.75,1.64,5.21,2.94-.3.92.69,3.93-1.12,3.37l.18-1.16a17.87,17.87,0,0,1-3.63-2.31c.33-.5.39-.87.19-1.11-1.5-1.17-3.34-1.91-4.83-3.1Zm-38.32.06c1.3,0,.32,2-.62,1.28C227.73,274,227.94,273.54,228.53,273.22ZM212,276a.7.7,0,0,0-.8.5c-1,2.52-2.24,6.28-4.69,7.73l-1.29-.45c.06.46.12.92.19,1.38,2.28.05,4.12-2.7,5.32-4.35l.54,0c.32,1.86-.77,2.82-1.11,4.46,1.34.18,2.18-1.91,2.87-2.81.53-.61.79-2.34,1.68-2.32a29.72,29.72,0,0,1,.13,5.08l.43,0c-.46-2.8,1.39-5.83.59-8.4-.25-.52-.59-.73-1-.64-.71,1-1,3.47-2.13,3.82a26.78,26.78,0,0,0-.24-3.9,1.74,1.74,0,0,0-.46-.1Zm53.43,3.38c1.31-.13,2.37,2,3.76,1.66,2.2-.25,3.78.63,5.46,1.93a1.34,1.34,0,0,1,.09,2.3c-1.74.13-2.19-1.7-3.74-1.72.25,2.21,1.94,2.07,3.22,3.4.21,1.67-2.11,0-2.76-.2.39,1,2.13,1.22,2,2.24a4.67,4.67,0,0,1-1.75,0c.47.78,1.86.7,1.68,1.87-.85,2-1.75,4.09-2.64,6.12-.88,0-1.68-1-2.42-1.47-2.53-1.75-3.15-4.19-5.05-6.62-1.05.57-2.19-1.19-.8-1.27a1.61,1.61,0,0,1,.8,1.27l1.21,0a22.17,22.17,0,0,0,3,2.47,12.49,12.49,0,0,0,1.61-.59c-.07-.43-.13-.86-.19-1.29a9,9,0,0,1,1.89.48c-.37-1.24-1.65-1.18-2-2.48l-1.1,0c.09.47.18.95.26,1.42-1,.07-1.56-1.33-2.66-1.5-.19-.48-.39-1-.59-1.44l1.28.15h0a7.83,7.83,0,0,1-1.18-1.9,2.27,2.27,0,0,0,1.24-.82c-1,.34-2.42-.7-1.92-1.79l.16,0c.79-.08,1.59,1.19,1.76,1.83.68.23,1.37.46,2.06.67l-.63-1.49,1.08,0c-.08-1.24-3.11-1.77-3.08-3.26Zm3.32,8.16,1.28.09h0l-.54-1.58,1.3.19h0a4.83,4.83,0,0,0-2.73-2.08,2.21,2.21,0,0,1-1.22.84c.42,1,1.44,1.56,1.91,2.54Zm-56.46-6.68c.54,0,.64.29.32,1-.74.15-.93-.17-.57-.95A1.29,1.29,0,0,1,212.29,280.82Zm-8.72,8.83c-.4,0-.64.38-.71,1.07a173.19,173.19,0,0,0,.34,24h.61c.28-4-.28-8.11-.07-12.17-.19-4.29.35-8.61,0-12.87a.55.55,0,0,0-.18,0Zm58.82,0,0,.42-.43,0,0-.43Zm-36.84,9a3.87,3.87,0,0,0-1.22,1.12c-3.28,4.52-5.52,10-7.42,15.21a71.08,71.08,0,0,0-3.28,11c-.15.71,0,2.58,1,2.46,1.54-1.4,1.31-3.13,1.71-5a77.06,77.06,0,0,1,3.27-12.56,40.78,40.78,0,0,1,4.53-9.8A12.76,12.76,0,0,0,225.55,298.66ZM93.33,308.74l.08.39a16.51,16.51,0,0,1,4,2.66,116.06,116.06,0,0,1,23.47,30.55c1.79,3.77,4,7.31,5.84,11.06l.4.14c-3-9.86-9.1-19.29-15.43-27.34a141.15,141.15,0,0,0-10.58-11.95C98.8,312.43,96.25,309.42,93.33,308.74Zm77.59,14.47c-1.85.93-4,1.8-5.49,3.22a32.3,32.3,0,0,0,5.14-2.38Zm-5.49,3.22c-.86-.25-1.24,0-1.16.65C164.86,327.4,165.25,327.18,165.43,326.43Zm179.75-3.05a23,23,0,0,0-7.48,5,112.52,112.52,0,0,0-9.82,9.35c-9.35,9.81-18.49,21.14-24.22,33.56,1-.58,2.09-1.18,3.13-1.78a138.89,138.89,0,0,1,16.57-24.66A173.81,173.81,0,0,1,340,327.29c1.69-1.29,3.52-3.22,5.76-3.14A2.91,2.91,0,0,0,345.18,323.38ZM171,325h-.13c-.27,0-.46.29-.58.75.85.31,1.24.11,1.15-.6A1.13,1.13,0,0,0,171,325Zm-.71.76a.94.94,0,0,0-1.35.7C169.64,326.71,170.08,326.48,170.26,325.78Zm-1.35.7c-.88-.27-1.27-.06-1.17.64C168.33,327.45,168.72,327.24,168.91,326.48ZM61.05,326c.83,1.08,2,1.23,3.11,2,3.13,2.67,6.21,5.15,8.74,8.44A222.78,222.78,0,0,1,93,362.86c1.26.79,2.54,1.56,3.82,2.32-1.27-1.95-2.59-3.88-4-5.77A328.79,328.79,0,0,0,71.13,333.3a31.74,31.74,0,0,0-4.73-4.17A12.82,12.82,0,0,0,61.05,326Zm117.53,6.18c-.31.36-.62.73-.92,1.1a1.77,1.77,0,0,1,.85,1.5c.48-.5,1.86-1.12,1.73-1.91A11.88,11.88,0,0,0,178.58,332.13Zm-2.87,1.11a4.33,4.33,0,0,0-2.48,1.62c0,.45.36.65,1.23.58h0a11.28,11.28,0,0,1-1.4,2,8.5,8.5,0,0,0,3.41-2.82h0l-1.36.18c.21-.52.42-1.05.6-1.59Zm13.8.24h0c1.93.37,3.77,1.69,5.76,2.19,4,1.93,8.28,2.3,12.66,2.76,1.67.21,3.91-.39,5.38.37.3.82-.33,1.75-.51,2.57,1.78-.68.07-3.36,2.44-3.26-.24,1.34-.18,3.23-1.31,4.13-3.52.58-7.13,0-10.61.19a33.78,33.78,0,0,0-5.48,6.1c-.45.58-1.3,1.75-2.14,1.19-.28-1.23,1.82-2.05,2-3.44a8.78,8.78,0,0,0-3,3.22,12.81,12.81,0,0,1-2.4-.19l-.23-.94c-1,1.15-3.06.34-4.11-.33-1.49.17-2.36.26-2.84-1.44a6.56,6.56,0,0,1-1.72.38c-.25-.8.86-1.43,1.32-2,1.82-1.51,3-4.05,5.1-4.92a34.7,34.7,0,0,1-.83,4c1.73.15,0,1.15,1.18,2,.94-.15,2.33-4.31,2.8-1.44.73-.1.92-.92,1-1.53-1.73-.29,0-1.34-1.13-2.28-1.08.33-1.41,2.44-2.72,2.62.55-1.33,1.71-3.89,3.25-4.14v-.44c-1.69-1.4-3.93-2.92-3.84-5.4Zm8.15,12.8a9.78,9.78,0,0,0,2.55-2.74,3.1,3.1,0,0,1,0-2.48c-.86.62-1.74,1.24-2.62,1.83l0-1.13c-1.41.45-2.79,2.49-3.48,3.78h0l1.66-.53-.22,1.29c.71-.48,1.44-.93,2.18-1.36h0Zm28.12-12.14h.63a14.37,14.37,0,0,1,0,5.23l-.68.07a16.6,16.6,0,0,1,.08-5.31Zm-1.42.68h0l.62,0c.15,1.62.42,3.59-.13,5.14a10.61,10.61,0,0,1-3.2.94,2.57,2.57,0,0,1-.78-2.73l.52,0c.13.59.37.94.73,1-.15-1.12,0-3.59,1.46-3.75a14.25,14.25,0,0,1,.13,3.69h.45a19.08,19.08,0,0,1,.2-4.4Zm-4.35,2a.93.93,0,0,1,.23,0c.5,1.38-.33,3.15-.79,4.48h-.61a8.8,8.8,0,0,1-.15-1.62l-.42,0c0,1.16.12,2.41-1.48,2.31-.13-1.29.82-3.34,1.43-4.53l.49,0c.07.77.29,1.11.66,1-.06-1.12.15-1.7.64-1.74Zm-3.54,1.39c.94.08-.16,3.57-.94,3.05-.41-.86.24-2.27.72-3A.45.45,0,0,1,216.47,338.25Zm-20.82,2.55a1.2,1.2,0,0,0-.59.24c-.47.69-.35,1.06.38,1.11C196.33,341.8,196.34,340.75,195.65,340.8Zm-48.57,22.88h0a66.63,66.63,0,0,0,2.2,9.8c1.37,5.4,2.85,10.78,4.39,16.16L155,390q-2.16-6.93-4.38-13.81c-1-4.06-2.84-8.3-3.05-12.48ZM162,387.89a2.52,2.52,0,0,0-1.07.3,7.89,7.89,0,0,0-.36,3.2q2.85.69,5.7,1.31c-.42-.72-.83-1.44-1.26-2.15C164.17,389.38,163.38,387.86,162,387.89ZM156.65,389c.06.48.15,1,.23,1.45l.65.16-.45-1.58Z"/><path class="cls-2" d="M201.66,403.32C90.46,403.32,0,312.85,0,201.66S90.46,0,201.66,0,403.31,90.46,403.31,201.66,312.85,403.32,201.66,403.32ZM201.66,6C93.77,6,6,93.77,6,201.66S93.77,397.32,201.66,397.32s195.66-87.77,195.66-195.66S309.55,6,201.66,6Z"/></g></g></svg>