<svg xmlns="http://www.w3.org/2000/svg" viewBox="0 0 236.26 236.26"><title>planning</title><g id="Layer_2" data-name="Layer 2"><g id="Layer_1-2" data-name="Layer 1"><path d="M155.7,50.53a30.51,30.51,0,0,0-3.57-.2A31.93,31.93,0,0,0,148.68,114a31.93,31.93,0,1,0,7-63.47Zm-2.63,10.74.7-6.32a2.14,2.14,0,0,1,2.33-1.86A2.1,2.1,0,0,1,158,55.42l-.7,6.31a2.11,2.11,0,0,1-2.09,1.88l-.23,0A2.1,2.1,0,0,1,153.07,61.27Zm-28,19.91a2.11,2.11,0,0,1-1.87-2.33A2.13,2.13,0,0,1,125.55,77l6.31.7a2.11,2.11,0,0,1-.23,4.2h-.23Zm27.62,21.73-.7,6.31a2.1,2.1,0,0,1-2.09,1.87h-.24a2.11,2.11,0,0,1-1.86-2.33l.7-6.31a2.11,2.11,0,0,1,4.19.47Zm16.9-28.86-.07-4-35.65,30a2.1,2.1,0,0,1-3-.25,2.11,2.11,0,0,1,.25-3l35-29.51-3.53-.27a2.11,2.11,0,0,1,.32-4.21l8.22.62a2.1,2.1,0,0,1,1.26.14,2.14,2.14,0,0,1,1.24,1.89l.13,8.47a2.1,2.1,0,0,1-2.08,2.14A2.13,2.13,0,0,1,169.61,74.05Zm11.61,11.21a2.12,2.12,0,0,1-2.1,1.88h-.23l-6.32-.7a2.11,2.11,0,0,1-1.86-2.33A2.14,2.14,0,0,1,173,82.24l6.31.7A2.12,2.12,0,0,1,181.22,85.26Z"/><path d="M152.23,126.56a45,45,0,0,1-4.9-.27A44.24,44.24,0,0,1,115,106.2c-3.53,2.69-16.52,14.15-10.08,32.31a51.64,51.64,0,0,1-2.57,40.7l17.49,22.43,58.28-45.44-14.7-18.84a66.14,66.14,0,0,1-6.31,4.51,2,2,0,0,1-1.11.32,2.11,2.11,0,0,1-1.12-3.9,61.74,61.74,0,0,0,6-4.26l-5.93-7.6C154,126.49,153.12,126.56,152.23,126.56Zm-34.4,16.82a2.1,2.1,0,0,1-1.93,1.25,2.16,2.16,0,0,1-.85-.18c-2.66-1.18-5.39-2.5-7.71-3.65A2.11,2.11,0,0,1,109.2,137c2.29,1.12,5,2.42,7.56,3.57A2.12,2.12,0,0,1,117.83,143.38Zm14.22,5.83H132l-1.11-.07a35.34,35.34,0,0,1-7.69-1.58,2.11,2.11,0,1,1,1.25-4,30.62,30.62,0,0,0,6.77,1.4c.32,0,.65,0,1,.06a2.11,2.11,0,0,1-.1,4.22Zm17.25-3.29a43.67,43.67,0,0,1-8.46,2.6,1.9,1.9,0,0,1-.41,0,2.1,2.1,0,0,1-.4-4.17,39.87,39.87,0,0,0,7.64-2.36,2.11,2.11,0,0,1,1.63,3.89Z"/><path d="M76.57,76.3a12.43,12.43,0,0,0-1.49-.1,12,12,0,0,0-9.4,19.3c3.11,4,16.08,8.38,23.31,10.46-.26-7.52-1.35-21.17-4.46-25.15A11.85,11.85,0,0,0,76.57,76.3ZM76.5,92.41a4,4,0,0,1-2.15-7.69,4,4,0,0,1,4.92,2.77A4,4,0,0,1,76.5,92.41Z"/><path d="M75.43,88.34h-.06a.23.23,0,0,0-.16.27l.31-.08.12,0h0A.24.24,0,0,0,75.43,88.34Z"/><path d="M75.21,88.63a.24.24,0,0,0,.28.15.21.21,0,0,0,.15-.27l-.12,0Z"/><path d="M118.13,0A118.13,118.13,0,1,0,236.26,118.13,118.26,118.26,0,0,0,118.13,0Zm78.09,87.13a44.36,44.36,0,0,1-36.43,38.75l22.92,29.38a2.1,2.1,0,0,1-.37,3l-61.59,48a2.14,2.14,0,0,1-1.3.45,2.09,2.09,0,0,1-1.66-.81L26.93,89.41a2.1,2.1,0,0,1,.37-3l61.59-48a2.1,2.1,0,0,1,3,.36l19.89,25.5a44.28,44.28,0,0,1,84.48,22.86Z"/><path d="M156.6,42.43A40.07,40.07,0,1,0,192,86.67,39.79,39.79,0,0,0,156.6,42.43Zm31.52,43.8a36.15,36.15,0,1,1-7.71-26.56A35.83,35.83,0,0,1,188.12,86.23Z"/><path d="M100.92,139.92c-.33-.94-.6-1.86-.85-2.76-.09,0-.19,0-.29-.07-3-1.43-5.38-2.51-7.58-3.41a2.11,2.11,0,1,1,1.6-3.91c1.62.67,3.36,1.44,5.32,2.34-1.81-16.76,10.76-27.34,13.72-29.58a44.07,44.07,0,0,1-4.67-25.14A44.83,44.83,0,0,1,110,68.88L89.82,43,31.55,88.47l32.31,41.42a20.84,20.84,0,0,1,3.76-2.28,2.11,2.11,0,1,1,1.74,3.84,16.23,16.23,0,0,0-2.91,1.76l33,42.27A48.14,48.14,0,0,0,100.92,139.92ZM87.06,129.53a2.12,2.12,0,0,1-2,1.58,2,2,0,0,1-.54-.07,30.36,30.36,0,0,0-7.69-1.1h0l-.09-4.22h0A34.25,34.25,0,0,1,85.55,127,2.1,2.1,0,0,1,87.06,129.53ZM62.36,98.1a16.17,16.17,0,0,1,25.5-19.89c5.07,6.5,5.4,28.08,5.42,30.52a2.09,2.09,0,0,1-2.11,2.13,1.88,1.88,0,0,1-.53-.07C88.28,110.18,67.43,104.6,62.36,98.1Z"/><polygon points="75.52 88.54 75.64 88.51 75.64 88.51 75.52 88.54"/></g></g></svg>