<svg xmlns="http://www.w3.org/2000/svg" xmlns:xlink="http://www.w3.org/1999/xlink" viewBox="0 0 713 629.15"><defs><style>.cls-1{fill:url(#New_Gradient_Swatch_1);}.cls-2{fill:url(#New_Gradient_Swatch_1-2);}.cls-3{fill:url(#New_Gradient_Swatch_1-3);}.cls-4{fill:url(#New_Gradient_Swatch_1-4);}.cls-5{fill:url(#New_Gradient_Swatch_1-5);}.cls-6{fill:url(#New_Gradient_Swatch_1-6);}.cls-7{fill:url(#New_Gradient_Swatch_1-7);}.cls-8{fill:url(#New_Gradient_Swatch_1-8);}.cls-9{fill:url(#New_Gradient_Swatch_1-9);}.cls-10{fill:url(#New_Gradient_Swatch_1-10);}.cls-11{fill:url(#New_Gradient_Swatch_1-11);}.cls-12{fill:url(#New_Gradient_Swatch_1-12);}.cls-13{fill:url(#New_Gradient_Swatch_1-13);}.cls-14{fill:url(#New_Gradient_Swatch_1-14);}.cls-15{fill:url(#New_Gradient_Swatch_1-15);}</style><linearGradient id="New_Gradient_Swatch_1" x1="-117.23" y1="142.19" x2="1418.92" y2="886.26" gradientUnits="userSpaceOnUse"><stop offset="0" stop-color="#d3161a"/><stop offset="0.23" stop-color="#e2640f"/><stop offset="0.42" stop-color="#ffcd0b"/><stop offset="0.45" stop-color="#fdcd0c"/><stop offset="0.48" stop-color="#f6cb0f"/><stop offset="0.51" stop-color="#e9c814"/><stop offset="0.53" stop-color="#d7c41a"/><stop offset="0.55" stop-color="#bebd22"/><stop offset="0.57" stop-color="#9bb529"/><stop offset="0.59" stop-color="#68aa31"/><stop offset="0.6" stop-color="#4fa534"/><stop offset="0.64" stop-color="#3e9937"/><stop offset="0.72" stop-color="#1b853a"/><stop offset="0.78" stop-color="#057e3b"/><stop offset="0.8" stop-color="#0a7e3f"/><stop offset="0.83" stop-color="#157f4a"/><stop offset="0.86" stop-color="#1f815f"/><stop offset="0.91" stop-color="#2a857d"/><stop offset="0.95" stop-color="#3789a2"/><stop offset="1" stop-color="#478dcb"/></linearGradient><linearGradient id="New_Gradient_Swatch_1-2" x1="-15.82" y1="-67.85" x2="1520.33" y2="676.23" xlink:href="#New_Gradient_Swatch_1"/><linearGradient id="New_Gradient_Swatch_1-3" x1="2.74" y1="-106.17" x2="1538.89" y2="637.9" xlink:href="#New_Gradient_Swatch_1"/><linearGradient id="New_Gradient_Swatch_1-4" x1="5.9" y1="-112.84" x2="1542.26" y2="631.33" xlink:href="#New_Gradient_Swatch_1"/><linearGradient id="New_Gradient_Swatch_1-5" x1="-0.38" y1="-99.85" x2="1535.97" y2="644.32" xlink:href="#New_Gradient_Swatch_1"/><linearGradient id="New_Gradient_Swatch_1-6" x1="11.72" y1="-124.87" x2="1548.12" y2="619.32" xlink:href="#New_Gradient_Swatch_1"/><linearGradient id="New_Gradient_Swatch_1-7" x1="-5.97" y1="-88.25" x2="1530.28" y2="655.87" xlink:href="#New_Gradient_Swatch_1"/><linearGradient id="New_Gradient_Swatch_1-8" x1="2.8" y1="-106.31" x2="1538.97" y2="637.78" xlink:href="#New_Gradient_Swatch_1"/><linearGradient id="New_Gradient_Swatch_1-9" x1="-13.45" y1="-72.75" x2="1522.71" y2="671.33" xlink:href="#New_Gradient_Swatch_1"/><linearGradient id="New_Gradient_Swatch_1-10" x1="-12.7" y1="-74.36" x2="1523.58" y2="669.78" xlink:href="#New_Gradient_Swatch_1"/><linearGradient id="New_Gradient_Swatch_1-11" x1="-12.56" y1="-74.6" x2="1523.6" y2="669.48" xlink:href="#New_Gradient_Swatch_1"/><linearGradient id="New_Gradient_Swatch_1-12" x1="-25.81" y1="-47.21" x2="1510.32" y2="696.85" xlink:href="#New_Gradient_Swatch_1"/><linearGradient id="New_Gradient_Swatch_1-13" x1="-20.9" y1="-57.36" x2="1515.23" y2="686.7" xlink:href="#New_Gradient_Swatch_1"/><linearGradient id="New_Gradient_Swatch_1-14" x1="-24.84" y1="-49.17" x2="1511.21" y2="694.86" xlink:href="#New_Gradient_Swatch_1"/><linearGradient id="New_Gradient_Swatch_1-15" x1="-24.16" y1="-50.7" x2="1512.08" y2="693.42" xlink:href="#New_Gradient_Swatch_1"/></defs><title>planning</title><g id="Layer_2" data-name="Layer 2"><g id="Layer_1-2" data-name="Layer 1"><path class="cls-1" d="M713,629.15H0v-515H713Zm-706-7H706v-501H7Z"/><circle cx="359.01" cy="113.71" r="110.21"/><path class="cls-2" d="M359,227.42A113.71,113.71,0,1,1,472.72,113.71,113.84,113.84,0,0,1,359,227.42ZM359,7A106.71,106.71,0,1,0,465.72,113.71,106.83,106.83,0,0,0,359,7Z"/><path class="cls-3" d="M386.19,113.77a33.88,33.88,0,0,0,3.61.2,32.68,32.68,0,1,0-3.61-.2ZM361.11,78.14a28.87,28.87,0,0,1,28.61-25.68,29.27,29.27,0,0,1,3.23.18,28.84,28.84,0,1,1-31.84,25.5Z"/><path class="cls-4" d="M406.5,83a1.92,1.92,0,0,0,1.69,2.11l5.7.63h.21a1.91,1.91,0,0,0,.21-3.8l-5.7-.63A1.94,1.94,0,0,0,406.5,83Z"/><path class="cls-5" d="M371.21,81a1.91,1.91,0,0,0,.2-3.81l-5.7-.62a1.92,1.92,0,0,0-2.1,1.68,1.9,1.9,0,0,0,1.68,2.1L371,81Z"/><path class="cls-6" d="M392.26,64.45h.21a1.9,1.9,0,0,0,1.89-1.7l.63-5.7a1.89,1.89,0,0,0-1.68-2.1,1.93,1.93,0,0,0-2.11,1.68l-.63,5.7A1.92,1.92,0,0,0,392.26,64.45Z"/><path class="cls-7" d="M388.56,97.85a1.92,1.92,0,0,0-2.1,1.69l-.63,5.7a1.89,1.89,0,0,0,1.68,2.1h.21a1.91,1.91,0,0,0,1.9-1.69l.63-5.7A1.92,1.92,0,0,0,388.56,97.85Z"/><path class="cls-8" d="M370.56,97.17a1.89,1.89,0,0,0,2.68.23l32.21-27.14.06,3.63a1.94,1.94,0,0,0,1.94,1.88,1.91,1.91,0,0,0,1.87-1.94l-.12-7.65a1.91,1.91,0,0,0-1.11-1.71,1.87,1.87,0,0,0-1.14-.12l-7.43-.56a1.91,1.91,0,1,0-.28,3.8l3.18.24L370.79,94.48A1.91,1.91,0,0,0,370.56,97.17Z"/><path class="cls-9" d="M358.7,193a1.88,1.88,0,0,0,2.67.33L417,149.93a1.9,1.9,0,0,0,.72-1.27,1.93,1.93,0,0,0-.39-1.41l-20.7-26.54a40,40,0,1,0-43.4-55.66l-18-23a1.91,1.91,0,0,0-2.67-.33L277,85.09a1.91,1.91,0,0,0-.34,2.67Zm38.85-64.91a54.86,54.86,0,0,1-5.37,3.84,1.91,1.91,0,0,0,1,3.53,2,2,0,0,0,1-.29,60,60,0,0,0,5.7-4.08l13.27,17-52.64,41.05-15.81-20.27a46.59,46.59,0,0,0,2.33-36.76c-5.82-16.41,5.91-26.75,9.1-29.19a40,40,0,0,0,29.23,18.15,41.51,41.51,0,0,0,4.43.24c.8,0,1.59-.06,2.39-.11Zm-30.4-75A36.2,36.2,0,1,1,353.8,77.33,36,36,0,0,1,367.15,53.06Zm-33.71-7.19,18.21,23.35A40.41,40.41,0,0,0,350,76.91a39.91,39.91,0,0,0,4.22,22.71c-2.68,2-14,11.58-12.4,26.72-1.77-.82-3.33-1.51-4.8-2.11a1.91,1.91,0,0,0-1.45,3.53c2,.81,4.17,1.79,6.85,3.08a2.61,2.61,0,0,0,.27.06c.22.82.46,1.64.76,2.49a43.45,43.45,0,0,1-1.36,32.13l-29.78-38.19a15.22,15.22,0,0,1,2.63-1.59,1.9,1.9,0,1,0-1.57-3.47,18.91,18.91,0,0,0-3.4,2.06L280.8,86.92Z"/><path class="cls-10" d="M317,88a3.6,3.6,0,1,0,2.5-4.44A3.6,3.6,0,0,0,317,88Zm3.53-.77a.23.23,0,0,1-.25-.14l.39-.11A.2.2,0,0,1,320.49,87.2Zm-.25-.14a.2.2,0,0,1,.14-.25h.05a.21.21,0,0,1,.2.15l-.39.11Z"/><path class="cls-11" d="M334.17,107.08a1.94,1.94,0,0,0,1.66-.34,1.94,1.94,0,0,0,.73-1.52c0-2.2-.32-21.7-4.9-27.57a14.61,14.61,0,1,0-23,18C313.21,101.49,332,106.53,334.17,107.08ZM309.43,85.31a10.8,10.8,0,0,1,10.69-9.47,12.22,12.22,0,0,1,1.35.08A10.71,10.71,0,0,1,328.65,80c2.81,3.6,3.8,15.92,4,22.72-6.54-1.89-18.25-5.85-21.06-9.45A10.74,10.74,0,0,1,309.43,85.31Z"/><path class="cls-12" d="M329.58,121.69a31,31,0,0,0-8-1.12h0l.09,3.81h0a27.29,27.29,0,0,1,6.95,1,2.14,2.14,0,0,0,.49.07,1.91,1.91,0,0,0,.48-3.75Z"/><path class="cls-13" d="M385.69,135.3a36.19,36.19,0,0,1-6.9,2.13,1.9,1.9,0,0,0,.37,3.77l.37,0a39.87,39.87,0,0,0,7.64-2.36,1.9,1.9,0,1,0-1.48-3.51Z"/><path class="cls-14" d="M357.77,134c-2.34-1-4.76-2.21-6.82-3.23a1.91,1.91,0,1,0-1.69,3.42c2.1,1,4.56,2.23,7,3.3a2,2,0,0,0,.77.16,1.91,1.91,0,0,0,.78-3.65Z"/><path class="cls-15" d="M371.67,138l-.89-.06a27.72,27.72,0,0,1-6.11-1.26,1.9,1.9,0,1,0-1.12,3.64,32,32,0,0,0,6.94,1.42c.33,0,.67.05,1,.06h.09a1.9,1.9,0,0,0,.09-3.8Z"/></g></g></svg>