<?xml version="1.0" encoding="UTF-8" standalone="no"?>
<svg
   xmlns:dc="http://purl.org/dc/elements/1.1/"
   xmlns:cc="http://creativecommons.org/ns#"
   xmlns:rdf="http://www.w3.org/1999/02/22-rdf-syntax-ns#"
   xmlns:svg="http://www.w3.org/2000/svg"
   xmlns="http://www.w3.org/2000/svg"
   xmlns:sodipodi="http://sodipodi.sourceforge.net/DTD/sodipodi-0.dtd"
   xmlns:inkscape="http://www.inkscape.org/namespaces/inkscape"
   viewBox="0 0 227.42 227.42"
   version="1.1"
   id="svg3575"
   sodipodi:docname="braintrust.svg"
   inkscape:version="0.92.2 2405546, 2018-03-11">
  <metadata
     id="metadata3579">
    <rdf:RDF>
      <cc:Work
         rdf:about="">
        <dc:format>image/svg+xml</dc:format>
        <dc:type
           rdf:resource="http://purl.org/dc/dcmitype/StillImage" />
        <dc:title>braintrust</dc:title>
      </cc:Work>
    </rdf:RDF>
  </metadata>
  <sodipodi:namedview
     pagecolor="#ffffff"
     bordercolor="#666666"
     borderopacity="1"
     objecttolerance="10"
     gridtolerance="10"
     guidetolerance="10"
     inkscape:pageopacity="0"
     inkscape:pageshadow="2"
     inkscape:window-width="3840"
     inkscape:window-height="2075"
     id="namedview3577"
     showgrid="false"
     inkscape:pagecheckerboard="true"
     inkscape:zoom="5.8015016"
     inkscape:cx="143.79225"
     inkscape:cy="101.16179"
     inkscape:window-x="0"
     inkscape:window-y="36"
     inkscape:window-maximized="0"
     inkscape:current-layer="svg3575" />
  <defs
     id="defs3565">
    <style
       id="style3563">.cls-1{fill:none;stroke:#fff;stroke-miterlimit:10;stroke-width:7px;}.cls-2{fill:#fff;}</style>
  </defs>
  <title
     id="title3567">braintrust</title>
  <g
     id="g4156">
    <path
       transform="rotate(-45)"
       id="circle3569"
       d="M 110.21016,160.81038 A 110.21,110.21 0 0 1 1.5778505e-4,271.02038 110.21,110.21 0 0 1 -110.20984,160.81038 110.21,110.21 0 0 1 1.5778505e-4,50.60038 110.21,110.21 0 0 1 110.21016,160.81038 Z"
       style="fill:none;stroke:#ffffff;stroke-width:7px;stroke-miterlimit:10" />
    <path
       d="m 85.923806,37.41034 a 2.223445,2.223445 0 0 0 -1.441353,0.498373 l -65.210294,50.8216 a 2.223445,2.223445 0 0 0 -0.39084,3.17635 L 115.08171,215.24459 a 2.2128572,2.2128572 0 0 0 1.75774,0.85819 2.2657963,2.2657963 0 0 0 1.37725,-0.47562 l 65.21032,-50.8216 a 2.223445,2.223445 0 0 0 0.39083,-3.17635 l -24.26722,-31.10798 a 46.967629,46.967629 0 0 0 38.57113,-41.027849 h 0.0434 A 46.882926,46.882926 0 0 0 108.71867,65.290256 L 87.658803,38.291281 A 2.223445,2.223445 0 0 0 85.923806,37.41034 Z m 65.481214,4.495694 a 42.425448,42.425448 0 0 1 0.002,0 42.425448,42.425448 0 0 1 0.53353,0.0021 42.425448,42.425448 0 0 1 4.23306,0.258493 42.128989,42.128989 0 0 1 37.48134,46.840822 42.425448,42.425448 0 1 1 -42.24999,-47.101382 z m -65.938227,0.862329 21.367987,27.402222 a 47.465257,47.465257 0 0 0 -1.93766,9.009999 46.660581,46.660581 0 0 0 4.94444,26.618466 c -3.134,2.37168 -16.443654,13.57369 -14.527256,31.3189 -2.075215,-0.95291 -3.917827,-1.76801 -5.633056,-2.47739 a 2.2365218,2.2365218 0 1 0 -1.69364,4.14001 c 2.329323,0.9529 4.849312,2.09656 8.025662,3.61062 0.105879,0.0741 0.210762,0.0724 0.306052,0.0724 0.264696,0.95291 0.552219,1.92882 0.901618,2.92406 a 50.96983,50.96983 0 0 1 -1.557153,37.64886 L 60.723938,138.2822 a 17.184053,17.184053 0 0 1 3.081226,-1.86322 2.2340328,2.2340328 0 1 0 -1.842532,-4.06556 22.065045,22.065045 0 0 0 -3.980776,2.41329 L 23.771988,90.911986 Z m 65.942357,3.29629 a 38.275017,38.275017 0 1 0 38.13688,42.47541 37.936207,37.936207 0 0 0 -8.1642,-28.119796 38.275017,38.275017 0 0 0 -29.9706,-14.355614 38.275017,38.275017 0 0 1 -0.002,0 z m 0.031,4.464675 a 32.303479,32.303479 0 0 1 3.78018,0.212997 h -0.0206 a 33.806952,33.806952 0 1 1 -7.41148,67.199655 33.806952,33.806952 0 0 1 3.65198,-67.412652 z m 3.9787,2.913722 a 2.2657963,2.2657963 0 0 0 -0.0951,0.0021 2.2657963,2.2657963 0 0 0 -2.14652,1.976948 l -0.74239,6.691841 a 2.223445,2.223445 0 0 0 2.02245,2.477387 h 0.24402 a 2.2340328,2.2340328 0 0 0 2.21268,-1.991422 l 0.74239,-6.679434 a 2.223445,2.223445 0 0 0 -2.0121,-2.467048 2.2657963,2.2657963 0 0 0 -0.22541,-0.01038 z m 7.34325,10.296254 a 2.2351678,2.2351678 0 0 0 -0.24609,4.462606 l 3.73676,0.285376 -37.05742,31.244442 a 2.2340328,2.2340328 0 0 0 -0.26469,3.176352 2.223445,2.223445 0 0 0 3.17635,0.26469 l 37.74603,-31.763491 0.0744,4.235134 h 0.0206 a 2.2552085,2.2552085 0 0 0 2.19201,2.138245 2.223445,2.223445 0 0 0 2.20236,-2.264389 l -0.13856,-8.968639 a 2.2657963,2.2657963 0 0 0 -1.31314,-2.001763 2.223445,2.223445 0 0 0 -1.33381,-0.146823 l -8.70394,-0.657604 a 2.2351678,2.2351678 0 0 0 -0.0909,-0.0041 z m -92.749022,9.766863 a 17.120526,17.120526 0 0 0 -0.589362,0.0083 A 17.120526,17.120526 0 0 0 56.393651,101.109 c 5.368029,6.88209 27.442914,12.78953 29.941643,13.43539 a 1.9905127,1.9905127 0 0 0 0.562478,0.0744 2.2128572,2.2128572 0 0 0 2.233377,-2.25612 c -0.02118,-2.58343 -0.37049,-25.431473 -5.738521,-32.313564 a 17.120526,17.120526 0 0 0 -13.37955,-6.542927 z m -0.153027,4.415044 a 13.160677,13.160677 0 0 1 1.577835,0.105465 12.546582,12.546582 0 0 1 8.428907,4.774865 c 3.292818,4.213958 4.445812,18.666769 4.721095,26.628809 -7.654993,-2.20226 -21.385931,-6.84073 -24.678746,-11.075862 a 12.7054,12.7054 0 0 1 9.950909,-20.433277 z m 53.214199,0.83131 a 2.2552085,2.2552085 0 0 0 -0.12821,0.0041 2.2552085,2.2552085 0 0 0 -2.13618,1.970743 2.2340328,2.2340328 0 0 0 1.97902,2.467049 l 6.70219,0.761 h 0.24402 a 2.2340328,2.2340328 0 0 0 0.24401,-4.446063 l -6.68151,-0.742389 a 2.2552085,2.2552085 0 0 0 -0.22334,-0.01447 z m 50.23845,5.554477 a 2.2657963,2.2657963 0 0 0 -0.0807,0.0021 2.2657963,2.2657963 0 0 1 -0.002,0 2.2657963,2.2657963 0 0 0 -2.13825,1.987287 2.2340328,2.2340328 0 0 0 1.96867,2.467048 l 6.69184,0.740321 h 0.24402 a 2.2446207,2.2446207 0 0 0 2.22303,-1.989354 h 0.0207 a 2.2446207,2.2446207 0 0 0 -2.02244,-2.456709 l -6.67944,-0.742389 a 2.2657963,2.2657963 0 0 0 -0.2254,-0.0083 z M 70.343978,86.788521 a 4.2351333,4.2351333 0 0 0 -1.255237,0.153027 4.2351333,4.2351333 0 0 0 2.276797,8.141465 4.2351333,4.2351333 0 0 0 2.932334,-5.209132 4.2351333,4.2351333 0 0 0 -3.953894,-3.08536 z M 149.76721,103.8221 a 2.2340328,2.2340328 0 0 0 -2.16926,1.89217 l -0.74239,6.6815 a 2.2340328,2.2340328 0 0 0 1.96868,2.46705 h 0.25435 a 2.223445,2.223445 0 0 0 2.21269,-1.98109 l 0.7424,-6.68149 a 2.2340328,2.2340328 0 0 0 -2.26647,-2.37814 z m -37.63852,5.8626 a 46.840575,46.840575 0 0 0 34.2285,21.2708 47.64525,47.64525 0 0 0 5.18845,0.28538 c 0.94232,0 1.87479,-0.0729 2.88063,-0.13649 l 6.27826,8.04634 a 65.369283,65.369283 0 0 1 -6.3527,4.51018 2.2340328,2.2340328 0 0 0 1.18699,4.12967 2.1175667,2.1175667 0 0 0 1.17459,-0.33915 70.02793,70.02793 0 0 0 6.6815,-4.77487 l 15.56329,19.94732 -61.70515,48.11054 -18.518378,-23.74818 a 54.675571,54.675571 0 0 0 2.721398,-43.09165 c -6.818562,-19.22752 6.93512,-31.36176 10.67262,-34.20989 z m -40.510863,20.66696 0.09512,4.46881 a 32.144662,32.144662 0 0 1 8.143532,1.16425 2.1175667,2.1175667 0 0 0 0.57075,0.0744 2.2446207,2.2446207 0 0 0 2.117575,-1.67297 2.223445,2.223445 0 0 0 -1.598522,-2.68004 36.263329,36.263329 0 0 0 -9.328461,-1.3545 z m 33.413713,11.71486 a 2.2397459,2.2397459 0 0 0 -1.01329,4.25169 c 2.45638,1.2176 5.34578,2.6156 8.16214,3.86497 a 2.286972,2.286972 0 0 0 0.89956,0.19025 2.223445,2.223445 0 0 0 2.04312,-1.32348 2.2446207,2.2446207 0 0 0 -1.13116,-2.97576 c -2.71049,-1.2176 -5.58037,-2.59435 -8.00499,-3.7802 a 2.2397459,2.2397459 0 0 0 -0.95331,-0.22747 2.2397459,2.2397459 0 0 1 -0.002,0 z m 42.56228,5.36631 a 2.2340328,2.2340328 0 0 0 -0.87475,0.14475 42.213691,42.213691 0 0 1 -8.08976,2.50013 2.223445,2.223445 0 0 0 0.42393,4.41504 2.0116883,2.0116883 0 0 0 0.43427,0 46.237068,46.237068 0 0 0 8.95622,-2.75242 v -0.0434 a 2.2340328,2.2340328 0 0 0 -0.84991,-4.26408 z m -26.49855,1.61506 a 2.2340328,2.2340328 0 0 0 -0.28538,4.42745 37.417403,37.417403 0 0 0 8.14147,1.67296 l 1.17666,0.0744 h 0.0517 l 0.0744,0.031 a 2.2346599,2.2346599 0 0 0 0.10546,-4.46674 c -0.37058,-0.0635 -0.71998,-0.0641 -1.05879,-0.0641 a 32.419946,32.419946 0 0 1 -7.16747,-1.48271 2.2340328,2.2340328 0 0 0 -0.81477,-0.19232 2.2340328,2.2340328 0 0 0 -0.22334,0 z"
       style="opacity:1;fill:#ffffff;fill-opacity:1;fill-rule:nonzero;stroke:#d40000;stroke-width:0;stroke-miterlimit:4;stroke-dasharray:none;stroke-dashoffset:0;stroke-opacity:1"
       id="path3500"
       inkscape:connector-curvature="0" />
  </g>
</svg>
