<svg xmlns="http://www.w3.org/2000/svg" viewBox="0 0 476 307"><defs><style>.cls-1{fill:#1a1a1a;}</style></defs><title>samlabs</title><g id="Layer_2" data-name="Layer 2"><g id="Layer_1-2" data-name="Layer 1"><path class="cls-1" d="M0,307H476V0H0Zm335.71-56c-9.91.81-20,.05-29.93.38,0-19.18,0-38.36,0-57.54,9.25.14,18.52-.22,27.76.13,6.84.14,12.42,5.5,13.8,12,1.4,5.54-1.33,10-5.26,13.65,2.64,2.16,5.55,3.89,7.06,7.06C353.84,236.49,346.73,249.9,335.71,251Zm72.56-7c-8.86,10.41-26.8,10.94-36.19,1-3.45-3.63-4.05-7.94-5.07-12.63,4.47,0,8.94-.07,13.39,0,1.63,2.83,2.26,5.55,5.81,6.43,3.74.73,10,.78,12-3.33,1.27-2.27-.88-4.67-3.07-5.29-7.24-1.95-15-1.1-21.49-5.65-7.9-5.5-7.47-19.09-.68-25.34,8.57-8,24.11-8.49,32.79-.46,3.88,3.48,4.57,7.86,5.81,12.63-4.54.05-9,.06-13.57,0-2.1-6.5-10.24-7.55-15-3.69-2.64,2.45-1.64,6.06,1.66,7.14,7.42,2,14.72,1.29,21.38,5.89C413.37,225.63,413.85,237.48,408.27,244ZM303.17,48a64.19,64.19,0,0,1,54.89,33c11.45-19.88,31.89-32.67,55-33q-.06,59.25,0,118.5-54.91-.06-109.85,0Q303.14,107.27,303.17,48ZM273.08,251.39c-1.2-2.89-2.36-5.82-3.52-8.71q-10.14.09-20.26,0c-1.18,2.9-2.34,5.82-3.52,8.72-4.8,0-9.6,0-14.41.08,7.83-19.38,15.29-39,23.29-58.3a82.06,82.06,0,0,1,9.54-.17q12,29.25,24.1,58.42Q280.68,251.29,273.08,251.39ZM177.82,99.21A55,55,0,0,1,271.58,62.4a53.83,53.83,0,0,1,16.07,38.34q0,32.85,0,65.75c-11.19,0-22.37,0-33.57,0q.06-5,.1-10.07-21.5,0-43,0,0,5.06.1,10.11c-11.23-.06-22.46,0-33.69,0C177.93,144.07,177.47,121.63,177.82,99.21Zm13.49,94.61c-.07,14.87,0,29.74,0,44.63,8.21,0,16.68,0,24.68,0v12.95c-13-.08-25.51,0-38.25,0-.06-19.14.11-38.3-.13-57.43ZM79,119.72c-13.53-8.88-20.75-26.33-16.44-42.09,2-8.36,7.31-15.33,14.14-20.47,12.17-9.1,28.66-11.93,43.53-10.35,14.09,1.67,27.9,7.43,36.34,19.27,4.53,6.19,6.11,13.29,6.92,20.76-12.55,0-25.13.19-37.66-.29,7.52,1.8,14.6,3.68,20.9,8.4,12.72,9,19.46,26,15.2,41.21-2.45,9.53-8.84,17.34-17.06,22.57-9.77,6.12-21.13,8.48-32.51,8.8-15.32-.31-31.59-4.95-42-16.77-6-6.61-8.71-15-9.2-23.85,12.55.09,25.09-.1,37.63.25C91.71,125.3,85.1,124,79,119.72Z"/><path class="cls-1" d="M333.83,227.55c-4.8-.76-9.86-.29-14.73-.38,0,3.85,0,7.7,0,11.55,5-.07,10.23.46,15.13-.43C338.18,236.35,338.19,229,333.83,227.55Z"/><path class="cls-1" d="M331.51,214.69a4.63,4.63,0,0,0,.1-8.56c-4.11-.51-8.36-.24-12.49-.22,0,3,0,6,0,9A104.79,104.79,0,0,0,331.51,214.69Z"/><path class="cls-1" d="M254,230.37c3.66,0,7.31,0,11,0q-2.87-7.59-5.52-15.27Q256.79,222.75,254,230.37Z"/></g></g></svg>