<svg xmlns="http://www.w3.org/2000/svg" xmlns:xlink="http://www.w3.org/1999/xlink" viewBox="0 0 351.91 205.71"><defs><style>.cls-1{fill:url(#New_Gradient_Swatch_1);}.cls-2{fill:url(#New_Gradient_Swatch_1-2);}.cls-3{fill:url(#New_Gradient_Swatch_1-3);}.cls-4{fill:url(#New_Gradient_Swatch_1-4);}.cls-5{fill:url(#New_Gradient_Swatch_1-5);}.cls-6{fill:url(#New_Gradient_Swatch_1-6);}.cls-7{fill:url(#New_Gradient_Swatch_1-7);}</style><linearGradient id="New_Gradient_Swatch_1" x1="-718.2" y1="-107.51" x2="1078.32" y2="284.76" gradientUnits="userSpaceOnUse"><stop offset="0" stop-color="#d3161a"/><stop offset="0.23" stop-color="#e2640f"/><stop offset="0.42" stop-color="#ffcd0b"/><stop offset="0.45" stop-color="#fdcd0c"/><stop offset="0.48" stop-color="#f6cb0f"/><stop offset="0.51" stop-color="#e9c814"/><stop offset="0.53" stop-color="#d7c41a"/><stop offset="0.55" stop-color="#bebd22"/><stop offset="0.57" stop-color="#9bb529"/><stop offset="0.59" stop-color="#68aa31"/><stop offset="0.6" stop-color="#4fa534"/><stop offset="0.64" stop-color="#3e9937"/><stop offset="0.72" stop-color="#1b853a"/><stop offset="0.78" stop-color="#057e3b"/><stop offset="0.8" stop-color="#0a7e3f"/><stop offset="0.83" stop-color="#157f4a"/><stop offset="0.86" stop-color="#1f815f"/><stop offset="0.91" stop-color="#2a857d"/><stop offset="0.95" stop-color="#3789a2"/><stop offset="1" stop-color="#478dcb"/></linearGradient><linearGradient id="New_Gradient_Swatch_1-2" x1="-713.75" y1="-127.9" x2="1082.76" y2="264.38" xlink:href="#New_Gradient_Swatch_1"/><linearGradient id="New_Gradient_Swatch_1-3" x1="-707.09" y1="-158.36" x2="1089.41" y2="233.91" xlink:href="#New_Gradient_Swatch_1"/><linearGradient id="New_Gradient_Swatch_1-4" x1="-729.68" y1="-54.99" x2="1066.85" y2="337.29" xlink:href="#New_Gradient_Swatch_1"/><linearGradient id="New_Gradient_Swatch_1-5" x1="-739.03" y1="-12.12" x2="1057.49" y2="380.15" xlink:href="#New_Gradient_Swatch_1"/><linearGradient id="New_Gradient_Swatch_1-6" x1="-736.09" y1="-25.65" x2="1060.45" y2="366.62" xlink:href="#New_Gradient_Swatch_1"/><linearGradient id="New_Gradient_Swatch_1-7" x1="-732.88" y1="-40.31" x2="1063.64" y2="351.97" xlink:href="#New_Gradient_Swatch_1"/></defs><title>samlabs</title><g id="Layer_2" data-name="Layer 2"><g id="Layer_1-2" data-name="Layer 1"><path class="cls-1" d="M59.09.41C73.18,2.08,87,7.84,95.43,19.69c4.53,6.19,6.11,13.28,6.92,20.75-12.55,0-25.13.2-37.66-.28,7.52,1.8,14.6,3.67,20.9,8.4,12.72,9,19.46,26,15.2,41.21C98.34,99.29,92,107.1,83.73,112.34c-9.77,6.12-21.13,8.47-32.52,8.79-15.31-.3-31.58-4.95-42-16.76-6-6.62-8.7-15-9.19-23.86,12.55.09,25.08-.1,37.63.25C30.57,78.9,24,77.65,17.86,73.32,4.33,64.45-2.89,47,1.42,31.24,3.47,22.87,8.73,15.9,15.56,10.77,27.72,1.67,44.21-1.16,59.09.41Z"/><path class="cls-2" d="M210.44,16A53.8,53.8,0,0,1,226.5,54.35q0,32.85,0,65.75-16.77,0-33.56,0c0-3.36.07-6.71.1-10.07q-21.49,0-43,0l.09,10.12c-11.22-.06-22.45,0-33.68,0,.33-22.41-.13-44.85.22-67.26A55,55,0,0,1,210.44,16Z"/><path class="cls-3" d="M242,1.62a64.2,64.2,0,0,1,54.89,33c11.45-19.88,31.88-32.67,55-33q-.06,59.27,0,118.51-54.92-.07-109.85,0Q242,60.87,242,1.62Z"/><path class="cls-4" d="M344.58,152.26c3.88,3.48,4.57,7.85,5.81,12.63-4.54,0-9.05.06-13.57,0-2.1-6.51-10.24-7.56-15.05-3.69-2.64,2.45-1.64,6.06,1.67,7.14,7.42,2,14.72,1.29,21.38,5.89,7.41,5,7.89,16.82,2.31,23.31-8.86,10.42-26.8,10.94-36.19,1-3.45-3.63-4.05-7.94-5.07-12.63,4.47,0,8.94-.06,13.39,0,1.62,2.83,2.26,5.55,5.8,6.42,3.74.73,10,.78,12-3.32,1.27-2.28-.88-4.68-3.07-5.3-7.24-1.94-15-1.1-21.49-5.64-7.91-5.51-7.48-19.09-.68-25.34C320.36,144.69,335.9,144.22,344.58,152.26Z"/><path class="cls-5" d="M116.46,147.52c4.58-.05,9.14-.07,13.71-.1-.07,14.87,0,29.74,0,44.63,8.21,0,16.44,0,24.64,0V205c-12.74-.08-25.46,0-38.2,0C116.5,185.8,116.7,166.65,116.46,147.52Z"/><path class="cls-6" d="M193.52,146.77c-8,19.26-15.46,38.92-23.29,58.29q7.2-.17,14.41-.08c1.18-2.89,2.34-5.82,3.51-8.71q10.13.12,20.27,0c1.16,2.9,2.32,5.82,3.51,8.72q7.62-.1,15.23,0-12.1-29.19-24.1-58.42A77.83,77.83,0,0,0,193.52,146.77Zm-.66,37.2q2.8-7.64,5.46-15.3,2.67,7.68,5.52,15.27Z"/><path class="cls-7" d="M288,180.31c-1.51-3.16-4.42-4.9-7.06-7.06,3.93-3.61,6.66-8.11,5.26-13.64-1.38-6.53-7-11.89-13.8-12-9.24-.35-18.52,0-27.76-.13.08,19.19,0,38.37,0,57.55,10-.34,20,.43,29.93-.38C285.59,203.5,292.7,190.09,288,180.31Zm-30-20.8c4.13,0,8.38-.29,12.48.22a4.62,4.62,0,0,1-.09,8.56,104.79,104.79,0,0,1-12.41.24C258,165.52,258,162.52,258,159.51Zm15.12,32.38c-4.9.89-10.14.37-15.12.43,0-3.85,0-7.7,0-11.55,4.87.1,9.93-.38,14.73.39C277.05,182.62,277,190,273.1,191.89Z"/></g></g></svg>