<svg xmlns="http://www.w3.org/2000/svg" xmlns:xlink="http://www.w3.org/1999/xlink" viewBox="0 0 476.22 306.65"><defs><style>.cls-1{fill:#1a1a1a;}.cls-2{fill:url(#New_Gradient_Swatch_1);}.cls-3{fill:url(#New_Gradient_Swatch_1-2);}.cls-4{fill:url(#New_Gradient_Swatch_1-3);}.cls-5{fill:url(#New_Gradient_Swatch_1-4);}.cls-6{fill:url(#New_Gradient_Swatch_1-5);}.cls-7{fill:url(#New_Gradient_Swatch_1-6);}.cls-8{fill:url(#New_Gradient_Swatch_1-7);}</style><linearGradient id="New_Gradient_Swatch_1" x1="-656.82" y1="-61.38" x2="1139.69" y2="330.89" gradientUnits="userSpaceOnUse"><stop offset="0" stop-color="#d3161a"/><stop offset="0.23" stop-color="#e2640f"/><stop offset="0.42" stop-color="#ffcd0b"/><stop offset="0.45" stop-color="#fdcd0c"/><stop offset="0.48" stop-color="#f6cb0f"/><stop offset="0.51" stop-color="#e9c814"/><stop offset="0.53" stop-color="#d7c41a"/><stop offset="0.55" stop-color="#bebd22"/><stop offset="0.57" stop-color="#9bb529"/><stop offset="0.59" stop-color="#68aa31"/><stop offset="0.6" stop-color="#4fa534"/><stop offset="0.64" stop-color="#3e9937"/><stop offset="0.72" stop-color="#1b853a"/><stop offset="0.78" stop-color="#057e3b"/><stop offset="0.8" stop-color="#0a7e3f"/><stop offset="0.83" stop-color="#157f4a"/><stop offset="0.86" stop-color="#1f815f"/><stop offset="0.91" stop-color="#2a857d"/><stop offset="0.95" stop-color="#3789a2"/><stop offset="1" stop-color="#478dcb"/></linearGradient><linearGradient id="New_Gradient_Swatch_1-2" x1="-652.38" y1="-81.77" x2="1144.14" y2="310.51" xlink:href="#New_Gradient_Swatch_1"/><linearGradient id="New_Gradient_Swatch_1-3" x1="-645.71" y1="-112.23" x2="1150.79" y2="280.04" xlink:href="#New_Gradient_Swatch_1"/><linearGradient id="New_Gradient_Swatch_1-4" x1="-668.3" y1="-8.86" x2="1128.22" y2="383.42" xlink:href="#New_Gradient_Swatch_1"/><linearGradient id="New_Gradient_Swatch_1-5" x1="-677.66" y1="34.01" x2="1118.87" y2="426.28" xlink:href="#New_Gradient_Swatch_1"/><linearGradient id="New_Gradient_Swatch_1-6" x1="-674.71" y1="20.48" x2="1121.82" y2="412.75" xlink:href="#New_Gradient_Swatch_1"/><linearGradient id="New_Gradient_Swatch_1-7" x1="-671.5" y1="5.82" x2="1125.01" y2="398.1" xlink:href="#New_Gradient_Swatch_1"/></defs><title>samlabs</title><g id="Layer_2" data-name="Layer 2"><g id="Layer_1-2" data-name="Layer 1"><rect class="cls-1" width="476.22" height="306.65"/><path class="cls-2" d="M120.46,46.54c14.1,1.67,27.9,7.43,36.35,19.28,4.53,6.19,6.11,13.28,6.92,20.75-12.55,0-25.13.2-37.67-.28,7.53,1.8,14.6,3.67,20.9,8.4,12.73,9,19.47,26,15.21,41.21-2.45,9.52-8.84,17.33-17.07,22.56-9.76,6.13-21.12,8.48-32.51,8.8-15.31-.3-31.59-4.95-42-16.76-6-6.62-8.7-15-9.19-23.86,12.55.09,25.08-.1,37.63.25C92,125,85.33,123.78,79.24,119.45,65.7,110.58,58.48,93.13,62.79,77.37,64.85,69,70.11,62,76.93,56.9,89.1,47.8,105.59,45,120.46,46.54Z"/><path class="cls-3" d="M271.82,62.13a53.84,53.84,0,0,1,16.06,38.35q0,32.85,0,65.75-16.77,0-33.56,0,0-5,.1-10.07-21.51,0-43,0l.09,10.12c-11.23-.06-22.46,0-33.69,0,.34-22.41-.12-44.85.23-67.26a55,55,0,0,1,93.76-36.82Z"/><path class="cls-4" d="M303.4,47.75a64.2,64.2,0,0,1,54.89,33c11.45-19.88,31.89-32.67,55-33q-.07,59.27,0,118.51-54.92-.07-109.86,0Q303.39,107,303.4,47.75Z"/><path class="cls-5" d="M406,198.39c3.88,3.48,4.56,7.85,5.8,12.62q-6.79.08-13.56,0c-2.1-6.51-10.24-7.56-15.05-3.69-2.64,2.45-1.64,6.06,1.67,7.14,7.41,2,14.71,1.29,21.38,5.88,7.41,5,7.89,16.83,2.3,23.32-8.85,10.42-26.8,10.94-36.18,1-3.45-3.63-4.06-7.94-5.07-12.63,4.46,0,8.93-.06,13.39,0,1.62,2.83,2.26,5.55,5.8,6.42,3.74.73,10,.78,12-3.32,1.28-2.28-.87-4.68-3.07-5.3-7.23-1.94-15-1.1-21.48-5.65-7.91-5.5-7.48-19.08-.69-25.33C381.74,190.82,397.27,190.35,406,198.39Z"/><path class="cls-6" d="M177.83,193.65c4.59-.05,9.15-.07,13.71-.1-.06,14.87,0,29.74,0,44.63,8.21,0,16.43,0,24.64,0v12.94c-12.74-.08-25.46,0-38.2,0C177.88,231.93,178.07,212.78,177.83,193.65Z"/><path class="cls-7" d="M254.89,192.9c-8,19.26-15.46,38.92-23.28,58.29q7.2-.16,14.41-.08c1.18-2.89,2.34-5.82,3.51-8.71q10.12.1,20.27,0c1.16,2.9,2.32,5.82,3.51,8.72q7.6-.1,15.22,0Q276.44,222,264.44,192.73A78,78,0,0,0,254.89,192.9Zm-.65,37.2q2.79-7.64,5.46-15.3,2.67,7.68,5.52,15.27Z"/><path class="cls-8" d="M349.34,226.44c-1.51-3.16-4.42-4.9-7.07-7.06,3.94-3.61,6.67-8.11,5.27-13.64-1.38-6.53-7-11.89-13.81-12-9.24-.35-18.51,0-27.75-.13.08,19.19,0,38.37,0,57.55,10-.34,20,.43,29.93-.38C347,249.63,354.08,236.22,349.34,226.44Zm-30-20.8c4.13,0,8.38-.29,12.48.22a4.63,4.63,0,0,1-.09,8.56,104.79,104.79,0,0,1-12.41.24C319.34,211.65,319.36,208.65,319.36,205.64ZM334.48,238c-4.9.89-10.15.37-15.12.43,0-3.85,0-7.7,0-11.55,4.87.1,9.93-.38,14.73.39C338.42,228.75,338.41,236.08,334.48,238Z"/></g></g></svg>