<svg xmlns="http://www.w3.org/2000/svg" viewBox="0 0 540 540"><defs><style>.cls-1{fill:#29353a;}</style></defs><title>samlabs</title><g id="Layer_2" data-name="Layer 2"><g id="Layer_1-2" data-name="Layer 1"><path class="cls-1" d="M0,539H539V0H0ZM379.86,381.55c-11.21.92-22.61.06-33.88.44,0-21.71.06-43.43,0-65.14,10.46.16,20.95-.25,31.41.15,7.74.16,14.06,6.22,15.63,13.61,1.58,6.26-1.51,11.36-6,15.44,3,2.45,6.28,4.41,8,8C400.39,365.11,392.34,380.29,379.86,381.55Zm82.13-8c-10,11.79-30.33,12.38-40.95,1.1-3.91-4.11-4.6-9-5.75-14.3,5.06,0,10.12-.07,15.16,0,1.84,3.21,2.55,6.29,6.57,7.28,4.23.82,11.36.88,13.54-3.77,1.44-2.57-1-5.29-3.48-6-8.18-2.2-17-1.24-24.32-6.39-8.94-6.23-8.46-21.61-.77-28.68,9.7-9.09,27.29-9.61,37.12-.52,4.39,3.94,5.17,8.89,6.57,14.29-5.13.05-10.24.08-15.36,0-2.37-7.37-11.59-8.55-17-4.18-3,2.77-1.85,6.86,1.89,8.08,8.39,2.25,16.66,1.46,24.2,6.67C467.77,352.82,468.31,366.23,462,373.58ZM343,151.79a72.66,72.66,0,0,1,62.13,37.39c13-22.5,36.09-37,62.25-37.39q-.07,67.08,0,134.13-62.16-.07-124.34,0Q343,218.86,343,151.79ZM309,382c-1.35-3.28-2.67-6.59-4-9.87q-11.48.11-22.94,0c-1.32,3.28-2.64,6.59-4,9.87-5.44-.06-10.88,0-16.31.09,8.85-21.93,17.3-44.18,26.35-66a88.58,88.58,0,0,1,10.81-.2Q312.47,349,326.2,382,317.58,381.87,309,382ZM201.16,209.74a62.11,62.11,0,0,1,37.1-54.49c23-10.37,51.27-5.14,69,12.81a60.94,60.94,0,0,1,18.18,43.41q0,37.17,0,74.42-19,0-38,0c0-3.8.07-7.6.11-11.4q-24.33,0-48.66,0c0,3.81.07,7.63.11,11.44-12.71-.07-25.42,0-38.13-.05C201.28,260.5,200.76,235.11,201.16,209.74Zm15.26,107.07q-.1,25.26-.17,50.52c9.29,0,19.75,0,27.75,0V382c-15-.09-28.69,0-43.1,0-.08-21.67.21-43.35-.06-65C206,316.87,211.25,316.85,216.42,316.81ZM89.3,232.94c-15.32-10-23.49-29.79-18.61-47.63C73,175.84,79,168,86.69,162.14c13.78-10.3,32.44-13.5,49.28-11.72,15.95,1.89,31.57,8.41,41.13,21.82,5.13,7,6.92,15,7.83,23.49-14.2,0-28.44.22-42.63-.32,8.52,2,16.53,4.16,23.66,9.5,14.4,10.23,22,29.47,17.21,46.65-2.77,10.78-10,19.62-19.32,25.54-11,6.94-23.9,9.6-36.79,10-17.34-.34-35.76-5.6-47.57-19-6.82-7.49-9.84-17-10.4-27,14.2.11,28.39-.11,42.59.29C103.69,239.26,96.2,237.84,89.3,232.94Z"/><path class="cls-1" d="M377.74,355c-5.44-.86-11.16-.33-16.67-.43q0,6.53,0,13.07c5.63-.08,11.57.52,17.12-.49C382.66,365,382.67,356.66,377.74,355Z"/><path class="cls-1" d="M375.11,340.44a5.24,5.24,0,0,0,.11-9.69c-4.65-.58-9.45-.27-14.13-.25,0,3.4,0,6.8,0,10.21C365.73,340.71,370.48,341,375.11,340.44Z"/><path class="cls-1" d="M287.39,358.19q6.21,0,12.42,0c-2.16-5.72-4.23-11.48-6.25-17.28C291.54,346.67,289.49,352.43,287.39,358.19Z"/></g></g></svg>
