<svg xmlns="http://www.w3.org/2000/svg" xmlns:xlink="http://www.w3.org/1999/xlink" viewBox="0 0 272.87 306.65"><defs><style>.cls-1{fill:#1a1a1a;}.cls-2{fill:url(#New_Gradient_Swatch_1);}.cls-3{fill:url(#New_Gradient_Swatch_1-2);}.cls-4{fill:url(#New_Gradient_Swatch_1-3);}.cls-5{fill:url(#New_Gradient_Swatch_1-4);}.cls-6{fill:url(#New_Gradient_Swatch_1-5);}.cls-7{fill:url(#New_Gradient_Swatch_1-6);}.cls-8{fill:url(#New_Gradient_Swatch_1-7);}.cls-9{fill:url(#New_Gradient_Swatch_1-8);}.cls-10{fill:url(#New_Gradient_Swatch_1-9);}.cls-11{fill:url(#New_Gradient_Swatch_1-10);}.cls-12{fill:url(#New_Gradient_Swatch_1-11);}.cls-13{fill:url(#New_Gradient_Swatch_1-12);}.cls-14{fill:url(#New_Gradient_Swatch_1-13);}.cls-15{fill:url(#New_Gradient_Swatch_1-14);}.cls-16{fill:url(#New_Gradient_Swatch_1-15);}.cls-17{fill:url(#New_Gradient_Swatch_1-16);}.cls-18{fill:url(#New_Gradient_Swatch_1-17);}.cls-19{fill:url(#New_Gradient_Swatch_1-18);}.cls-20{fill:url(#New_Gradient_Swatch_1-19);}.cls-21{fill:url(#New_Gradient_Swatch_1-20);}.cls-22{fill:url(#New_Gradient_Swatch_1-21);}</style><linearGradient id="New_Gradient_Swatch_1" x1="-20.75" y1="124.94" x2="1775.77" y2="517.22" gradientUnits="userSpaceOnUse"><stop offset="0" stop-color="#d3161a"/><stop offset="0.23" stop-color="#e2640f"/><stop offset="0.42" stop-color="#ffcd0b"/><stop offset="0.45" stop-color="#fdcd0c"/><stop offset="0.48" stop-color="#f6cb0f"/><stop offset="0.51" stop-color="#e9c814"/><stop offset="0.53" stop-color="#d7c41a"/><stop offset="0.55" stop-color="#bebd22"/><stop offset="0.57" stop-color="#9bb529"/><stop offset="0.59" stop-color="#68aa31"/><stop offset="0.6" stop-color="#4fa534"/><stop offset="0.64" stop-color="#3e9937"/><stop offset="0.72" stop-color="#1b853a"/><stop offset="0.78" stop-color="#057e3b"/><stop offset="0.8" stop-color="#0a7e3f"/><stop offset="0.83" stop-color="#157f4a"/><stop offset="0.86" stop-color="#1f815f"/><stop offset="0.91" stop-color="#2a857d"/><stop offset="0.95" stop-color="#3789a2"/><stop offset="1" stop-color="#478dcb"/></linearGradient><linearGradient id="New_Gradient_Swatch_1-2" x1="-12.2" y1="85.81" x2="1784.32" y2="478.08" xlink:href="#New_Gradient_Swatch_1"/><linearGradient id="New_Gradient_Swatch_1-3" x1="-35.96" y1="194.6" x2="1760.59" y2="586.88" xlink:href="#New_Gradient_Swatch_1"/><linearGradient id="New_Gradient_Swatch_1-4" x1="-35.1" y1="190.7" x2="1761.31" y2="582.95" xlink:href="#New_Gradient_Swatch_1"/><linearGradient id="New_Gradient_Swatch_1-5" x1="-32.04" y1="176.7" x2="1764.43" y2="568.96" xlink:href="#New_Gradient_Swatch_1"/><linearGradient id="New_Gradient_Swatch_1-6" x1="-34.22" y1="186.65" x2="1762.31" y2="578.92" xlink:href="#New_Gradient_Swatch_1"/><linearGradient id="New_Gradient_Swatch_1-7" x1="-33.55" y1="183.57" x2="1763" y2="575.85" xlink:href="#New_Gradient_Swatch_1"/><linearGradient id="New_Gradient_Swatch_1-8" x1="-33.01" y1="181.11" x2="1763.48" y2="573.38" xlink:href="#New_Gradient_Swatch_1"/><linearGradient id="New_Gradient_Swatch_1-9" x1="-31.12" y1="172.44" x2="1765.46" y2="564.72" xlink:href="#New_Gradient_Swatch_1"/><linearGradient id="New_Gradient_Swatch_1-10" x1="-30.44" y1="169.36" x2="1766.06" y2="561.63" xlink:href="#New_Gradient_Swatch_1"/><linearGradient id="New_Gradient_Swatch_1-11" x1="-29.75" y1="166.21" x2="1766.72" y2="558.48" xlink:href="#New_Gradient_Swatch_1"/><linearGradient id="New_Gradient_Swatch_1-12" x1="-38.12" y1="204.55" x2="1758.33" y2="596.81" xlink:href="#New_Gradient_Swatch_1"/><linearGradient id="New_Gradient_Swatch_1-13" x1="-36.66" y1="197.82" x2="1759.84" y2="590.09" xlink:href="#New_Gradient_Swatch_1"/><linearGradient id="New_Gradient_Swatch_1-14" x1="-41.61" y1="220.49" x2="1754.88" y2="612.76" xlink:href="#New_Gradient_Swatch_1"/><linearGradient id="New_Gradient_Swatch_1-15" x1="-40.8" y1="216.8" x2="1755.74" y2="609.08" xlink:href="#New_Gradient_Swatch_1"/><linearGradient id="New_Gradient_Swatch_1-16" x1="-40.21" y1="214.01" x2="1756.44" y2="606.31" xlink:href="#New_Gradient_Swatch_1"/><linearGradient id="New_Gradient_Swatch_1-17" x1="-39.26" y1="209.68" x2="1757.38" y2="601.98" xlink:href="#New_Gradient_Swatch_1"/><linearGradient id="New_Gradient_Swatch_1-18" x1="-37.48" y1="201.68" x2="1758.89" y2="593.92" xlink:href="#New_Gradient_Swatch_1"/><linearGradient id="New_Gradient_Swatch_1-19" x1="-39.56" y1="211.27" x2="1756.55" y2="603.45" xlink:href="#New_Gradient_Swatch_1"/><linearGradient id="New_Gradient_Swatch_1-20" x1="-35.76" y1="193.79" x2="1760.63" y2="586.04" xlink:href="#New_Gradient_Swatch_1"/><linearGradient id="New_Gradient_Swatch_1-21" x1="-35.22" y1="191.31" x2="1761.21" y2="583.57" xlink:href="#New_Gradient_Swatch_1"/></defs><title>schibsted</title><g id="Layer_2" data-name="Layer 2"><g id="Layer_1-2" data-name="Layer 1"><rect class="cls-1" width="272.87" height="306.65"/><path class="cls-2" d="M115.05,133.34a13.34,13.34,0,0,1,7.06,5.35c2.19,3.23,2.89,7.43,2.91,11.27,11.61.06,23.24,0,34.86,0a33,33,0,0,1-3.17,10.74,29.54,29.54,0,0,1-11.14,12.1,33.65,33.65,0,0,1-18.24,4.81c-6.84,0-14-1.62-19.71-5.5a27.72,27.72,0,0,1-12.13-24.29,20,20,0,0,1,2.43-8.62,13.21,13.21,0,0,1,6.94-5.89A16,16,0,0,1,115.05,133.34Z"/><path class="cls-3" d="M60.1,40.29H216.85v102c-6.23,0-12.46,0-18.69,0,.1-1.71.43-3.41.51-5.13.41-5.72-.68-11.73-2.09-17.26A164.2,164.2,0,0,0,184.89,90q-2.05-4.23-4.1-8.46c-2-4.23-4.42-8.81-5.35-13.42-.5-2.63-.7-5.65.65-8.07,2-4,8.3-4.37,10.86-.81,1.94,2.81,1.92,6.31,2.11,9.58h8.85c0-4.88,0-9.78,0-14.67A50.46,50.46,0,0,0,186,51.46a68.58,68.58,0,0,0-19.92.86c-6.46,1.34-12.92,4-17.63,8.79a26.72,26.72,0,0,0-7.33,14,37.67,37.67,0,0,0,0,14.66,68.38,68.38,0,0,0,4.6,13.68c3.79,8.65,8.62,17.27,11.62,26.2a49.38,49.38,0,0,1,2.65,12.6c-3.9,0-7.81,0-11.72,0a32.89,32.89,0,0,0-5-14.71,26.19,26.19,0,0,0-11.75-9.64,33.62,33.62,0,0,0-15.89-2.45A33.27,33.27,0,0,0,99.3,121a29,29,0,0,0-10.57,13.27,35.05,35.05,0,0,0-2.31,14.76,39.05,39.05,0,0,0,5.68,19.34,35.42,35.42,0,0,0,15.43,13.28,56.29,56.29,0,0,0,23.16,4.66,87.45,87.45,0,0,0,23.22-2.77,71.93,71.93,0,0,0,26.69-13A49.14,49.14,0,0,0,196.05,150c6.93,0,13.87,0,20.8,0v47.13q-78.36,0-156.75,0Z"/><path class="cls-4" d="M69.54,215.42c-1.21-.3-2.81-.59-3.71-1.5a2.25,2.25,0,0,1,.66-3.48,5.59,5.59,0,0,1,4.65,0,4.72,4.72,0,0,1,1.92,1.81c.29.14.76-.21,1-.3.78-.36,1.57-.67,2.32-1.08A7.91,7.91,0,0,0,74.19,208c-2-1.45-4.43-1.54-6.76-1.34-2.48.35-4.92,1.69-5.77,4.18-.7,2.07-.35,5,1.5,6.36,2.33,1.83,6.16,1.61,8.58,3a2.32,2.32,0,0,1,.13,3.85c-2.33,1.52-6.19,1-7.71-1.45-.2-.25-.35-.72-.63-.87-1.14.45-2.3.88-3.42,1.38a6.22,6.22,0,0,0,3,3.9,11.47,11.47,0,0,0,7.07,1.26,8.43,8.43,0,0,0,4.72-2.08,6.23,6.23,0,0,0,.46-8.38C73.73,216.13,71.69,216,69.54,215.42Z"/><path class="cls-5" d="M91.92,220.72a4.14,4.14,0,0,1-1.14,3,5.14,5.14,0,0,1-6.2.13,3.72,3.72,0,0,1-1.48-3c0-2.35,0-4.69,0-7a3.82,3.82,0,0,1,3-3.52,4.82,4.82,0,0,1,5.09,1.46,4.67,4.67,0,0,1,.72,2.45h3.78a7.56,7.56,0,0,0-1.18-4.55,8.31,8.31,0,0,0-6.93-3.11A8.68,8.68,0,0,0,81,209.12a7.36,7.36,0,0,0-1.92,5c0,2.35,0,4.7,0,7a6.64,6.64,0,0,0,2.37,5.2,10.3,10.3,0,0,0,9.94,1.36,6.62,6.62,0,0,0,3.93-4.11,11.83,11.83,0,0,0,.36-2.91Z"/><path class="cls-6" d="M162.37,223.87c.78-2.4.18-5.53-2.12-6.9s-5.45-1.3-7.84-2.55a2.12,2.12,0,0,1-1.17-2.42,2.64,2.64,0,0,1,2.21-1.94,5.65,5.65,0,0,1,4.33.81,7,7,0,0,1,1.3,1.51c1.08-.5,2.18-1,3.27-1.46a6.9,6.9,0,0,0-3.22-3.53,11,11,0,0,0-5.84-.73,6.86,6.86,0,0,0-5.63,4c-.84,2.28-.45,5.44,1.77,6.81s5.09,1.47,7.39,2.35a3.35,3.35,0,0,1,1.7,1.35,2.35,2.35,0,0,1-.78,3c-2.8,1.69-6.86.76-8.17-2.39-1.21.47-2.41,1-3.63,1.42a7,7,0,0,0,3.23,4,11.84,11.84,0,0,0,7.5,1.09A7.09,7.09,0,0,0,162.37,223.87Z"/><path class="cls-7" d="M111.14,206.89c0,2.88,0,5.75,0,8.63H102.8c0-2.87,0-5.75,0-8.63-1.33,0-2.67,0-4,0-.08,7,0,14.12,0,21.18,1.36,0,2.71,0,4.07,0,0-3,0-6,0-9h8.33c0,3,0,6,0,9,1.31,0,2.62,0,3.93,0,0-7.06,0-14.12,0-21.18Q113.12,206.91,111.14,206.89Z"/><path class="cls-8" d="M123.75,228c0-7,0-14.09,0-21.13-1.35,0-2.69,0-4,0,0,7.06,0,14.12,0,21.18C121.06,228,122.41,228.09,123.75,228Z"/><path class="cls-9" d="M143.6,218.65a5.74,5.74,0,0,0-2.51-1.85,4.59,4.59,0,0,0,2.6-2.8,6.23,6.23,0,0,0-.42-4.47c-1.35-2.38-4.32-2.7-6.78-2.64-2.72,0-5.45,0-8.16,0,0,7,0,14.08,0,21.11,3.14.09,6.28,0,9.42.05a7.17,7.17,0,0,0,4.94-1.63A6.08,6.08,0,0,0,143.6,218.65Zm-7.11-8.33a4.06,4.06,0,0,1,2.77.75,2.6,2.6,0,0,1-1,4.28c-1.91.49-4,.15-6,.25,0-1.74,0-3.49,0-5.24C133.67,210.3,135.08,210.34,136.49,210.32Zm3.68,13a3.19,3.19,0,0,1-2.76,1.3c-1.71,0-3.42,0-5.13,0,0-1.88,0-3.75,0-5.63,1.39,0,2.79,0,4.18,0a5.35,5.35,0,0,1,3.13.6A3,3,0,0,1,140.17,223.32Z"/><path class="cls-10" d="M170.12,228.07q2,0,3.93,0c0-5.91,0-11.83,0-17.74,2,0,4.06,0,6.09,0,0-1.15,0-2.3,0-3.45-5.36,0-10.74,0-16.09,0-.06,1.13,0,2.26-.05,3.38,2,.08,4,0,6,0C170.15,216.23,170.05,222.15,170.12,228.07Z"/><path class="cls-11" d="M197.24,228c0-1.16,0-2.32,0-3.48H186.45V219h9.47v-3.51c-3.16,0-6.31,0-9.47,0v-5.11c3.55,0,7.1,0,10.66,0,.06-1.19,0-2.37,0-3.56-4.9.06-9.8,0-14.7,0,0,7,0,14.08,0,21.11C187.33,228.08,192.29,228.07,197.24,228Z"/><path class="cls-12" d="M213.9,208.55a9.08,9.08,0,0,0-5.29-1.65c-2.78,0-5.55,0-8.32,0,0,7,0,14.09,0,21.14,2.78.08,5.56,0,8.35,0a8.57,8.57,0,0,0,6.36-2.65,7.64,7.64,0,0,0,1.88-4v-7.81A7.24,7.24,0,0,0,213.9,208.55Zm-1.05,12.62a4,4,0,0,1-3.63,3.3c-1.62.15-3.27,0-4.9.07V210.41a34.64,34.64,0,0,1,5.2.17,3.88,3.88,0,0,1,3.35,3.57C212.87,216.49,212.92,218.84,212.85,221.17Z"/><path class="cls-13" d="M144.67,244.32v1.15c1.78,0,3.57-.05,5.36,0a42.94,42.94,0,0,1-.13,4.4,4.07,4.07,0,0,1-3.06,2.95,7.16,7.16,0,0,1-5.77-.79,5.19,5.19,0,0,1-2-4.3c0-2.24,0-4.48,0-6.73a5.12,5.12,0,0,1,2.46-4.41,6.75,6.75,0,0,1,6.92.37c1.37,1.11,1.48,2.62,1.39,4.27h1.22c0-1.59,0-3-1-4.32-1.87-2.36-5.68-2.79-8.33-1.68a6.19,6.19,0,0,0-3.83,5.46c0,2.34,0,4.69,0,7a6.27,6.27,0,0,0,1.34,4.3,6.69,6.69,0,0,0,4.29,2.12h2.4a7.43,7.43,0,0,0,3.4-1.25,4.43,4.43,0,0,0,1.87-3.64c0-1.66,0-3.31,0-5Z"/><path class="cls-14" d="M178.36,234.79a7.78,7.78,0,0,0-5.88,1.29,6.24,6.24,0,0,0-2.38,5v7.33a5.4,5.4,0,0,0,1.58,3.92,6.91,6.91,0,0,0,4,1.89H178a6.78,6.78,0,0,0,4.14-2.05,6.9,6.9,0,0,0,1.66-4.67c0-1.94,0-3.88,0-5.81a7.48,7.48,0,0,0-.93-4.18A6.18,6.18,0,0,0,178.36,234.79Zm4.17,13.27a5.13,5.13,0,0,1-3.51,4.72c-2.32.75-5.43.27-6.86-1.89-1-1.48-.85-3-.84-4.66s0-3.26,0-4.89a5.51,5.51,0,0,1,1.86-4.25,5.91,5.91,0,0,1,4.56-1.2,5.61,5.61,0,0,1,3.55,1.6,5.23,5.23,0,0,1,1.27,3.85C182.53,243.58,182.58,245.82,182.53,248.06Z"/><path class="cls-15" d="M74.8,235.08c-2,3.52-4.16,7-6.21,10.51a.51.51,0,0,1-.37.29c-2.16-3.61-4.37-7.19-6.52-10.8q-.69,0-1.38,0c0,6.25,0,12.51,0,18.76h1.15V237.33a10.19,10.19,0,0,1,1.3,1.95c1.68,2.81,3.4,5.6,5.06,8.42l1-.07c2-3.55,4.24-7,6.24-10.54.11,5.59,0,11.19,0,16.79l1.14,0c0-6.25,0-12.5,0-18.75C75.77,235.09,75.28,235.08,74.8,235.08Z"/><path class="cls-16" d="M91.58,236.15l0-1.09c-3.75,0-7.5,0-11.24,0-.09,6.24,0,12.54,0,18.79H91.58l0-1.08c-3.38,0-6.76,0-10.13,0,0-2.72,0-5.45,0-8.17,2.69,0,5.39,0,8.08,0v-1.09c-2.69,0-5.39,0-8.08,0,0-2.47,0-4.94,0-7.41Z"/><path class="cls-17" d="M102,235.08c-2.19,0-4.38,0-6.57,0,0,6.25,0,12.5,0,18.76,2.29.05,4.6,0,6.89,0a6,6,0,0,0,4.86-2.17,6.4,6.4,0,0,0,1.24-4c0-2.14,0-4.28,0-6.42a6.18,6.18,0,0,0-1.54-4.57A6.49,6.49,0,0,0,102,235.08Zm5.19,12.68a5,5,0,0,1-1.8,4,6.21,6.21,0,0,1-4,1c-1.61,0-3.22,0-4.83,0,0-5.53,0-11.07,0-16.6,1.7,0,3.41,0,5.12,0a5.87,5.87,0,0,1,4,1.2,5.1,5.1,0,0,1,1.52,4Z"/><path class="cls-18" d="M122.92,235c-2.32,6.23-4.71,12.63-7,18.86l1.25,0c.77-2.21,1.62-4.4,2.39-6.62h7.7c.79,2.19,1.65,4.37,2.38,6.58.43,0,.88.06,1.31.08-2.23-6.3-4.61-12.56-6.83-18.86A9.31,9.31,0,0,0,122.92,235Zm-3,11.14c1.16-3.14,2.25-6.34,3.54-9.42,1.09,3.15,2.28,6.27,3.37,9.43C124.55,246.13,122.25,246.16,120,246.16Z"/><path class="cls-19" d="M166.33,243.37a5.83,5.83,0,0,0-.75-6.7,6.46,6.46,0,0,0-4.64-1.6c-2,0-4,0-5.95,0,0,6.25,0,12.51,0,18.76h1.25c0-2.62-.05-5.25,0-7.87,1.43.05,2.86,0,4.28,0,2,2.63,4,5.24,6,7.86H168c-2-2.64-4-5.27-6-7.9A5.72,5.72,0,0,0,166.33,243.37ZM156.23,245c-.07-2.93,0-5.88,0-8.81,1.48,0,3,0,4.43,0a5.85,5.85,0,0,1,4.06,1.42c1.25,1.21,1.31,3.41.73,4.94a3.78,3.78,0,0,1-2.92,2.22C160.47,245.12,158.3,244.83,156.23,245Z"/><path class="cls-20" d="M113.12,235.08H112v18.8c.39,0,.77,0,1.16,0C113.09,247.59,113.13,241.33,113.12,235.08Z"/><path class="cls-21" d="M199.79,235.11c.06,4.32,0,8.64,0,12.95a4.79,4.79,0,0,1-1.89,4,6.56,6.56,0,0,1-5.22.82,4.63,4.63,0,0,1-3.05-2.09,6.46,6.46,0,0,1-.77-3.37V235.08h-1.14c0,4.43,0,8.86,0,13.29a5.57,5.57,0,0,0,2.07,4.43,7.68,7.68,0,0,0,3.27,1.38h2.3a6.7,6.7,0,0,0,4.18-2,6,6,0,0,0,1.4-4.11v-13Z"/><path class="cls-22" d="M211.05,235.08c-2.06,0-4.13,0-6.19,0q0,9.4,0,18.8c.38,0,.77,0,1.16,0,0-2.54,0-5.08,0-7.62,2.64-.1,5.94.44,8.25-1.06,2.88-1.71,3.21-6.24.86-8.52A6,6,0,0,0,211.05,235.08Zm2.18,9.38c-2.07,1-5,.61-7.22.7,0-3,0-6,0-9,1.67,0,3.36,0,5,0a4.51,4.51,0,0,1,4,2.67C215.86,240.85,215.32,243.49,213.23,244.46Z"/></g></g></svg>