<svg xmlns="http://www.w3.org/2000/svg" xmlns:xlink="http://www.w3.org/1999/xlink" viewBox="0 0 156.75 213.88"><defs><style>.cls-1{fill:url(#New_Gradient_Swatch_1);}.cls-2{fill:url(#New_Gradient_Swatch_1-2);}.cls-3{fill:url(#New_Gradient_Swatch_1-3);}.cls-4{fill:url(#New_Gradient_Swatch_1-4);}.cls-5{fill:url(#New_Gradient_Swatch_1-5);}.cls-6{fill:url(#New_Gradient_Swatch_1-6);}.cls-7{fill:url(#New_Gradient_Swatch_1-7);}.cls-8{fill:url(#New_Gradient_Swatch_1-8);}.cls-9{fill:url(#New_Gradient_Swatch_1-9);}.cls-10{fill:url(#New_Gradient_Swatch_1-10);}.cls-11{fill:url(#New_Gradient_Swatch_1-11);}.cls-12{fill:url(#New_Gradient_Swatch_1-12);}.cls-13{fill:url(#New_Gradient_Swatch_1-13);}.cls-14{fill:url(#New_Gradient_Swatch_1-14);}.cls-15{fill:url(#New_Gradient_Swatch_1-15);}.cls-16{fill:url(#New_Gradient_Swatch_1-16);}.cls-17{fill:url(#New_Gradient_Swatch_1-17);}.cls-18{fill:url(#New_Gradient_Swatch_1-18);}.cls-19{fill:url(#New_Gradient_Swatch_1-19);}.cls-20{fill:url(#New_Gradient_Swatch_1-20);}.cls-21{fill:url(#New_Gradient_Swatch_1-21);}</style><linearGradient id="New_Gradient_Swatch_1" x1="-80.85" y1="84.65" x2="1715.66" y2="476.92" gradientUnits="userSpaceOnUse"><stop offset="0" stop-color="#d3161a"/><stop offset="0.23" stop-color="#e2640f"/><stop offset="0.42" stop-color="#ffcd0b"/><stop offset="0.45" stop-color="#fdcd0c"/><stop offset="0.48" stop-color="#f6cb0f"/><stop offset="0.51" stop-color="#e9c814"/><stop offset="0.53" stop-color="#d7c41a"/><stop offset="0.55" stop-color="#bebd22"/><stop offset="0.57" stop-color="#9bb529"/><stop offset="0.59" stop-color="#68aa31"/><stop offset="0.6" stop-color="#4fa534"/><stop offset="0.64" stop-color="#3e9937"/><stop offset="0.72" stop-color="#1b853a"/><stop offset="0.78" stop-color="#057e3b"/><stop offset="0.8" stop-color="#0a7e3f"/><stop offset="0.83" stop-color="#157f4a"/><stop offset="0.86" stop-color="#1f815f"/><stop offset="0.91" stop-color="#2a857d"/><stop offset="0.95" stop-color="#3789a2"/><stop offset="1" stop-color="#478dcb"/></linearGradient><linearGradient id="New_Gradient_Swatch_1-2" x1="-72.3" y1="45.52" x2="1724.21" y2="437.79" xlink:href="#New_Gradient_Swatch_1"/><linearGradient id="New_Gradient_Swatch_1-3" x1="-96.06" y1="154.31" x2="1700.48" y2="546.59" xlink:href="#New_Gradient_Swatch_1"/><linearGradient id="New_Gradient_Swatch_1-4" x1="-95.2" y1="150.41" x2="1701.21" y2="542.66" xlink:href="#New_Gradient_Swatch_1"/><linearGradient id="New_Gradient_Swatch_1-5" x1="-92.14" y1="136.4" x2="1704.33" y2="528.67" xlink:href="#New_Gradient_Swatch_1"/><linearGradient id="New_Gradient_Swatch_1-6" x1="-94.32" y1="146.36" x2="1702.2" y2="538.63" xlink:href="#New_Gradient_Swatch_1"/><linearGradient id="New_Gradient_Swatch_1-7" x1="-93.65" y1="143.28" x2="1702.9" y2="535.56" xlink:href="#New_Gradient_Swatch_1"/><linearGradient id="New_Gradient_Swatch_1-8" x1="-93.11" y1="140.82" x2="1703.38" y2="533.08" xlink:href="#New_Gradient_Swatch_1"/><linearGradient id="New_Gradient_Swatch_1-9" x1="-91.23" y1="132.14" x2="1705.35" y2="524.43" xlink:href="#New_Gradient_Swatch_1"/><linearGradient id="New_Gradient_Swatch_1-10" x1="-90.55" y1="129.07" x2="1705.95" y2="521.34" xlink:href="#New_Gradient_Swatch_1"/><linearGradient id="New_Gradient_Swatch_1-11" x1="-89.85" y1="125.92" x2="1706.62" y2="518.18" xlink:href="#New_Gradient_Swatch_1"/><linearGradient id="New_Gradient_Swatch_1-12" x1="-98.22" y1="164.26" x2="1698.23" y2="556.52" xlink:href="#New_Gradient_Swatch_1"/><linearGradient id="New_Gradient_Swatch_1-13" x1="-96.76" y1="157.53" x2="1699.73" y2="549.8" xlink:href="#New_Gradient_Swatch_1"/><linearGradient id="New_Gradient_Swatch_1-14" x1="-101.71" y1="180.2" x2="1694.77" y2="572.47" xlink:href="#New_Gradient_Swatch_1"/><linearGradient id="New_Gradient_Swatch_1-15" x1="-100.91" y1="176.51" x2="1695.64" y2="568.79" xlink:href="#New_Gradient_Swatch_1"/><linearGradient id="New_Gradient_Swatch_1-16" x1="-100.31" y1="173.72" x2="1696.34" y2="566.02" xlink:href="#New_Gradient_Swatch_1"/><linearGradient id="New_Gradient_Swatch_1-17" x1="-99.36" y1="169.39" x2="1697.28" y2="561.69" xlink:href="#New_Gradient_Swatch_1"/><linearGradient id="New_Gradient_Swatch_1-18" x1="-97.59" y1="161.38" x2="1698.79" y2="553.62" xlink:href="#New_Gradient_Swatch_1"/><linearGradient id="New_Gradient_Swatch_1-19" x1="-99.66" y1="170.97" x2="1696.45" y2="563.16" xlink:href="#New_Gradient_Swatch_1"/><linearGradient id="New_Gradient_Swatch_1-20" x1="-95.87" y1="153.5" x2="1700.53" y2="545.75" xlink:href="#New_Gradient_Swatch_1"/><linearGradient id="New_Gradient_Swatch_1-21" x1="-95.33" y1="151.02" x2="1701.11" y2="543.27" xlink:href="#New_Gradient_Swatch_1"/></defs><title>schibsted</title><g id="Layer_2" data-name="Layer 2"><g id="Layer_1-2" data-name="Layer 1"><path class="cls-1" d="M55,93.05a13.25,13.25,0,0,1,7,5.34c2.2,3.24,2.9,7.44,2.92,11.27,11.61.07,23.24,0,34.85,0a33.08,33.08,0,0,1-3.16,10.74,29.6,29.6,0,0,1-11.14,12.1,33.83,33.83,0,0,1-18.25,4.81c-6.83,0-14-1.62-19.71-5.5a27.73,27.73,0,0,1-12.12-24.29,19.86,19.86,0,0,1,2.43-8.62A13.18,13.18,0,0,1,44.75,93,16,16,0,0,1,55,93.05Z"/><path class="cls-2" d="M0,0H156.75V102c-6.23,0-12.46,0-18.69,0,.09-1.72.42-3.41.51-5.13.41-5.72-.68-11.74-2.1-17.27a163.79,163.79,0,0,0-11.68-29.9q-2.06-4.23-4.1-8.47c-2-4.22-4.43-8.8-5.35-13.41-.51-2.63-.71-5.65.65-8.07,2-4,8.3-4.37,10.85-.82,1.95,2.82,1.92,6.31,2.12,9.58,2.95,0,5.89,0,8.84,0,0-4.89,0-9.78,0-14.67a51.06,51.06,0,0,0-11.89-2.67A68.53,68.53,0,0,0,106,12c-6.46,1.34-12.93,4-17.63,8.79a26.78,26.78,0,0,0-7.34,14,37.72,37.72,0,0,0,0,14.67,69,69,0,0,0,4.59,13.68c3.79,8.64,8.63,17.27,11.62,26.2A49.85,49.85,0,0,1,99.92,102c-3.91,0-7.82,0-11.72,0a32.78,32.78,0,0,0-5-14.71A26.16,26.16,0,0,0,71.5,77.61a33.62,33.62,0,0,0-15.89-2.45A33.23,33.23,0,0,0,39.2,80.75,29,29,0,0,0,28.62,94a34.89,34.89,0,0,0-2.3,14.76A39.08,39.08,0,0,0,32,128.12,35.4,35.4,0,0,0,47.42,141.4c7.15,3.3,15.34,4.62,23.16,4.65a86.94,86.94,0,0,0,23.22-2.77,71.61,71.61,0,0,0,26.69-13A49.22,49.22,0,0,0,136,109.68c6.93,0,13.86,0,20.8,0v47.13q-78.37,0-156.75,0Z"/><path class="cls-3" d="M9.43,175.13c-1.2-.31-2.8-.59-3.71-1.5a2.27,2.27,0,0,1,.67-3.49,5.63,5.63,0,0,1,4.65,0A4.78,4.78,0,0,1,13,172c.29.14.76-.22,1-.3.77-.36,1.56-.68,2.31-1.08a7.84,7.84,0,0,0-2.24-2.89c-1.95-1.44-4.42-1.54-6.75-1.33-2.49.35-4.92,1.69-5.77,4.18-.7,2.07-.35,5,1.5,6.36,2.33,1.82,6.16,1.6,8.57,3a2.31,2.31,0,0,1,.13,3.85c-2.33,1.51-6.18,1-7.7-1.46-.2-.25-.35-.72-.63-.86-1.14.45-2.3.87-3.43,1.38a6.26,6.26,0,0,0,3,3.9A11.47,11.47,0,0,0,10.09,188a8.37,8.37,0,0,0,4.72-2.09,6.2,6.2,0,0,0,.45-8.37C13.63,175.84,11.58,175.72,9.43,175.13Z"/><path class="cls-4" d="M31.81,180.43a4.17,4.17,0,0,1-1.13,3,5.16,5.16,0,0,1-6.2.13,3.7,3.7,0,0,1-1.48-3c0-2.34,0-4.69,0-7A3.8,3.8,0,0,1,26,170a4.83,4.83,0,0,1,5.1,1.46,4.54,4.54,0,0,1,.71,2.44h3.79a7.53,7.53,0,0,0-1.19-4.54,8.27,8.27,0,0,0-6.92-3.11,8.65,8.65,0,0,0-6.56,2.55,7.29,7.29,0,0,0-1.92,5v7a6.66,6.66,0,0,0,2.36,5.2,10.32,10.32,0,0,0,10,1.36,6.59,6.59,0,0,0,3.92-4.12,11.3,11.3,0,0,0,.36-2.9C34.35,180.42,33.08,180.43,31.81,180.43Z"/><path class="cls-5" d="M102.27,183.58c.78-2.41.18-5.53-2.13-6.9s-5.44-1.3-7.83-2.55a2.12,2.12,0,0,1-1.17-2.42,2.65,2.65,0,0,1,2.2-2,5.67,5.67,0,0,1,4.34.82A7,7,0,0,1,99,172.09c1.09-.5,2.19-1,3.28-1.47A6.87,6.87,0,0,0,99,167.1a10.89,10.89,0,0,0-5.84-.73,6.86,6.86,0,0,0-5.63,4c-.85,2.27-.45,5.43,1.77,6.81s5.09,1.46,7.39,2.34a3.32,3.32,0,0,1,1.69,1.35,2.35,2.35,0,0,1-.77,3c-2.8,1.69-6.86.76-8.18-2.39-1.21.47-2.41,1-3.63,1.41a7.07,7.07,0,0,0,3.24,4,11.75,11.75,0,0,0,7.49,1.08A7.06,7.06,0,0,0,102.27,183.58Z"/><path class="cls-6" d="M51,166.6c0,2.87,0,5.75,0,8.63H42.7V166.6c-1.34,0-2.68,0-4,0-.09,7,0,14.12,0,21.18,1.35,0,2.71,0,4.07,0-.06-3,0-6,0-9H51c0,3,0,6,0,9,1.31,0,2.62,0,3.92,0,.06-7.06,0-14.12,0-21.17Z"/><path class="cls-7" d="M63.65,187.72c0-7,0-14.09,0-21.13-1.35,0-2.69,0-4,0,0,7.05,0,14.11,0,21.17C61,187.73,62.3,187.8,63.65,187.72Z"/><path class="cls-8" d="M83.5,178.36A5.79,5.79,0,0,0,81,176.51a4.59,4.59,0,0,0,2.6-2.8,6.26,6.26,0,0,0-.42-4.48c-1.35-2.38-4.32-2.69-6.78-2.63-2.73,0-5.45,0-8.17,0,0,7,0,14.08,0,21.11,3.14.09,6.28,0,9.42,0a7.11,7.11,0,0,0,4.94-1.62A6.08,6.08,0,0,0,83.5,178.36ZM76.39,170a4,4,0,0,1,2.76.75,2.59,2.59,0,0,1-1,4.28c-1.91.49-4,.15-6,.25,0-1.75,0-3.5,0-5.24C73.57,170,75,170.05,76.39,170Zm3.68,13a3.18,3.18,0,0,1-2.77,1.29c-1.7,0-3.42,0-5.12,0,0-1.87,0-3.75,0-5.62,1.39-.05,2.78,0,4.18,0a5.37,5.37,0,0,1,3.13.61A3,3,0,0,1,80.07,183Z"/><path class="cls-9" d="M110,187.77c1.31,0,2.62,0,3.92,0,.06-5.91,0-11.82,0-17.73,2,0,4.06,0,6.09,0,0-1.15,0-2.3,0-3.45-5.35,0-10.74,0-16.09,0,0,1.12,0,2.25,0,3.38,2,.07,4,0,6,0C110.05,175.94,110,181.86,110,187.77Z"/><path class="cls-10" d="M137.14,187.72c0-1.16,0-2.31,0-3.47H126.35c0-1.83,0-3.66,0-5.5h9.47v-3.5c-3.16,0-6.32,0-9.47,0,0-1.71,0-3.41,0-5.12,3.55,0,7.1,0,10.65,0a35.23,35.23,0,0,0,0-3.56c-4.89.06-9.8,0-14.69,0,0,7,0,14.08,0,21.11C127.22,187.79,132.19,187.78,137.14,187.72Z"/><path class="cls-11" d="M153.8,168.25a9.19,9.19,0,0,0-5.3-1.65c-2.77,0-5.54,0-8.31,0-.06,7,0,14.09,0,21.13,2.78.09,5.57,0,8.35,0a8.49,8.49,0,0,0,6.36-2.64,7.73,7.73,0,0,0,1.89-4v-7.81A7.32,7.32,0,0,0,153.8,168.25Zm-1.06,12.63a3.93,3.93,0,0,1-3.63,3.3c-1.62.14-3.26,0-4.89.06V170.11a36.07,36.07,0,0,1,5.2.18,3.89,3.89,0,0,1,3.35,3.56C152.76,176.19,152.81,178.54,152.74,180.88Z"/><path class="cls-12" d="M84.56,204v1.14c1.79,0,3.58,0,5.37,0-.09,1.45.1,3-.13,4.4a4.07,4.07,0,0,1-3.06,2.95,7.15,7.15,0,0,1-5.78-.8,5.18,5.18,0,0,1-2-4.29c0-2.24,0-4.49,0-6.73a5.12,5.12,0,0,1,2.46-4.41,6.72,6.72,0,0,1,6.92.37c1.37,1.11,1.47,2.61,1.38,4.26L91,201c0-1.59,0-3-1-4.33-1.88-2.35-5.68-2.78-8.33-1.67a6.19,6.19,0,0,0-3.84,5.46c0,2.34,0,4.68,0,7a6.27,6.27,0,0,0,1.34,4.3,6.67,6.67,0,0,0,4.29,2.11h2.39a7.37,7.37,0,0,0,3.4-1.24A4.45,4.45,0,0,0,91.06,209c0-1.65,0-3.3,0-5Z"/><path class="cls-13" d="M118.25,194.5a7.79,7.79,0,0,0-5.88,1.28,6.3,6.3,0,0,0-2.37,5v7.33a5.41,5.41,0,0,0,1.57,3.92,6.89,6.89,0,0,0,4,1.88h2.31a6.74,6.74,0,0,0,4.14-2,7,7,0,0,0,1.66-4.67c0-1.94,0-3.88,0-5.82a7.5,7.5,0,0,0-.93-4.18A6.15,6.15,0,0,0,118.25,194.5Zm4.18,13.27a5.13,5.13,0,0,1-3.52,4.72c-2.31.75-5.43.27-6.85-1.89-1-1.48-.85-3-.84-4.66v-4.89a5.49,5.49,0,0,1,1.85-4.25,5.9,5.9,0,0,1,4.57-1.2,5.51,5.51,0,0,1,3.54,1.6,5.14,5.14,0,0,1,1.27,3.85C122.43,203.29,122.48,205.53,122.43,207.77Z"/><path class="cls-14" d="M14.7,194.79c-2,3.52-4.17,7-6.21,10.5a.5.5,0,0,1-.38.29C6,202,3.75,198.4,1.6,194.79c-.47,0-.93,0-1.39,0,0,6.25,0,12.5,0,18.76H1.38c0-5.51,0-11,0-16.55a10.58,10.58,0,0,1,1.3,2c1.68,2.81,3.4,5.59,5.06,8.42l.95-.07c2-3.55,4.24-7,6.24-10.54.1,5.59,0,11.19,0,16.78h1.15c0-6.25,0-12.5,0-18.75Z"/><path class="cls-15" d="M31.48,195.85c0-.35,0-.72,0-1.08-3.74,0-7.49,0-11.23,0-.1,6.24,0,12.54,0,18.79H31.48c0-.36,0-.73,0-1.09-3.37,0-6.75,0-10.13,0v-8.17c2.7,0,5.39,0,8.09,0v-1.1c-2.7,0-5.39,0-8.09,0v-7.42C24.7,195.85,28.09,195.86,31.48,195.85Z"/><path class="cls-16" d="M41.87,194.78c-2.19,0-4.38,0-6.57,0,0,6.26,0,12.51,0,18.76,2.3.06,4.6,0,6.9,0A6,6,0,0,0,47,211.41a6.35,6.35,0,0,0,1.24-3.94c0-2.14,0-4.28,0-6.42a6.17,6.17,0,0,0-1.54-4.57A6.56,6.56,0,0,0,41.87,194.78Zm5.19,12.69a4.94,4.94,0,0,1-1.81,4,6.25,6.25,0,0,1-4,1c-1.61,0-3.23,0-4.84,0,.06-5.53,0-11.07,0-16.61,1.71,0,3.42,0,5.12,0a5.89,5.89,0,0,1,4,1.2,5.15,5.15,0,0,1,1.52,4Z"/><path class="cls-17" d="M62.82,194.73c-2.33,6.23-4.71,12.62-7,18.85l1.25,0c.77-2.22,1.61-4.41,2.39-6.62,2.57,0,5.13,0,7.7,0,.79,2.19,1.64,4.37,2.37,6.58l1.32.08C68.59,207.3,66.22,201,64,194.74A9.14,9.14,0,0,0,62.82,194.73Zm-3,11.14c1.16-3.14,2.25-6.34,3.54-9.42,1.09,3.15,2.28,6.27,3.36,9.43C64.45,205.84,62.15,205.87,59.85,205.87Z"/><path class="cls-18" d="M106.22,203.08a5.84,5.84,0,0,0-.74-6.71,6.52,6.52,0,0,0-4.64-1.59c-2,0-4,0-6,0,0,6.26,0,12.52,0,18.77h1.25c0-2.62,0-5.25,0-7.87,1.43.05,2.85,0,4.28,0q3,3.95,6,7.85h1.48c-2-2.64-4-5.27-6.06-7.9A5.73,5.73,0,0,0,106.22,203.08Zm-10.09,1.58c-.07-2.93,0-5.87,0-8.81,1.47,0,3,0,4.42,0a5.85,5.85,0,0,1,4.07,1.41c1.24,1.22,1.3,3.42.72,4.95a3.76,3.76,0,0,1-2.91,2.22C100.37,204.83,98.2,204.54,96.13,204.66Z"/><path class="cls-19" d="M53,194.78H51.87v18.8l1.16,0C53,207.29,53,201,53,194.78Z"/><path class="cls-20" d="M139.69,194.82c.06,4.32,0,8.64,0,13a4.76,4.76,0,0,1-1.89,4,6.61,6.61,0,0,1-5.22.83,4.66,4.66,0,0,1-3.05-2.1,6.41,6.41,0,0,1-.78-3.36q0-6.18,0-12.38h-1.15c0,4.43,0,8.86,0,13.29a5.54,5.54,0,0,0,2.06,4.42,7.49,7.49,0,0,0,3.27,1.38h2.31a6.74,6.74,0,0,0,4.18-2,6.06,6.06,0,0,0,1.4-4.11c0-4.33,0-8.66,0-13Z"/><path class="cls-21" d="M151,194.79c-2.07,0-4.13,0-6.2,0v18.8l1.17,0c0-2.54,0-5.08,0-7.61,2.65-.11,5.95.44,8.26-1.07,2.88-1.71,3.21-6.24.86-8.51A6,6,0,0,0,151,194.79Zm2.18,9.37c-2.07,1-5,.62-7.23.71v-9c1.68,0,3.36,0,5,0a4.55,4.55,0,0,1,4,2.68C155.76,200.56,155.22,203.19,153.13,204.16Z"/></g></g></svg>