<svg xmlns="http://www.w3.org/2000/svg" viewBox="0 0 538 538"><defs><style>.cls-1{fill:#29353a;}</style></defs><title>schibsted</title><g id="Layer_2" data-name="Layer 2"><g id="Layer_1-2" data-name="Layer 1"><path class="cls-1" d="M201.1,445c-3.37,0-6.74,0-10.11,0,0,10.93.07,21.86,0,32.78,3.18.15,6.37,0,9.55.08,2.83,0,5.57-.28,7.89-2a9.75,9.75,0,0,0,3.57-7.93V455.2c0-2.95-.7-5.85-3-7.88S203.92,445.06,201.1,445Z"/><path class="cls-1" d="M0,538H538V0H0Zm150.9-58.09-2.26,0c-.06-11,.12-22.08-.1-33.12-3.94,7-8.32,13.8-12.31,20.8l-1.87.14c-3.28-5.57-6.67-11.08-10-16.61a21,21,0,0,0-2.57-3.87c0,10.87,0,21.78,0,32.66h-2.26c0-12.34,0-24.68,0-37,.9,0,1.82,0,2.73,0,4.25,7.12,8.59,14.19,12.86,21.3a1,1,0,0,0,.74-.57c4-6.94,8.23-13.79,12.26-20.73,1,0,1.9,0,2.85,0C150.84,455.24,150.92,467.57,150.9,479.91Zm-2.59-54.58a16.58,16.58,0,0,1-9.31,4.11c-4.83.48-9.7,0-14-2.48a12.35,12.35,0,0,1-6-7.7c2.22-1,4.51-1.84,6.77-2.72.55.28.84,1.21,1.23,1.7,3,4.88,10.62,5.86,15.21,2.87a4.57,4.57,0,0,0-.26-7.6c-4.76-2.8-12.32-2.37-16.92-6-3.64-2.75-4.34-8.48-3-12.55,1.68-4.92,6.49-7.56,11.39-8.25,4.59-.41,9.48-.23,13.33,2.63,2.11,1.47,3.2,3.51,4.42,5.7-1.48.8-3,1.42-4.56,2.12-.58.17-1.5.87-2.07.6-1.09-1.46-2-2.83-3.8-3.58-2.77-1.2-6.45-1.46-9.17,0-2.45,1.3-3.33,4.82-1.31,6.88,1.78,1.81,4.93,2.36,7.32,3,4.24,1.18,8.27,1.4,11.5,4.76C153.21,413.27,152.88,421.34,148.31,425.33ZM177,459.55v2.15c-5,0-10.59,0-15.91,0,0,5.38,0,10.76,0,16.13,6.67,0,13.35.07,20,0,0,.71.07,2.18.09,2.18H158.89c.05-11-.11-24.8.08-37.11,7.39,0,14.79,0,22.18-.06,0,.71,0,1.42.07,2.13-6.69,0-13.38,0-20.07,0,0,4.88-.06,9.75-.06,14.63C166.41,459.57,172,459.59,177,459.55Zm3.91-31.19c-6.25,2.44-14.36,1.65-19.62-2.69a13.13,13.13,0,0,1-4.67-10.26c0-4.63,0-9.26,0-13.88a14.46,14.46,0,0,1,3.8-9.92c3.26-3.55,8.21-5.13,12.94-5,5.13-.08,10.6,1.49,13.67,5.8,1.93,2.69,2.28,6.62,2.33,8.62h-7.47c-.23,0-.29-3-1.41-4.49-2.14-3-6.69-3.71-10-2.71a7.64,7.64,0,0,0-5.93,7c-.08,4.63,0,9.31,0,13.93a7.36,7.36,0,0,0,2.93,6c3.51,2.51,8.91,2.7,12.23-.25,1.77-1.63,2.08-3.69,2.24-6,2.51,0,5,0,7.5,0a22.6,22.6,0,0,1-.71,5.73A13.05,13.05,0,0,1,180.91,428.36Zm33.44,39.5a12.62,12.62,0,0,1-2.44,7.79,11.89,11.89,0,0,1-9.6,4.28c-4.53,0-9.07.05-13.61-.05.08-12.34,0-24.69.06-37,4.31-.05,8.63,0,13,0,3.43,0,7.18.76,9.62,3.35s3,5.68,3,9C214.35,459.42,214.39,463.64,214.35,467.86ZM221,479.94V442.85l2.49,0c0,12.35-.16,24.7-.09,37.05C222.64,479.89,221,479.92,221,479.94ZM227.58,429c-2.58,0-5.16-.05-7.74,0-.11-5.93,0-11.88-.05-17.82H203.36c0,5.91-.06,11.82,0,17.72-2.67.14-5.36,0-8,.07,0-13.93-.1-27.89.06-41.81,2.64.1,5.28,0,7.92,0,0,5.68,0,11.35,0,17h16.43c0-5.68,0-11.36,0-17q3.9,0,7.81,0C227.62,401.13,227.68,415.07,227.58,429Zm28.69,50.81c-1.43-4.36-3.13-8.67-4.68-13-5.07,0-10.13,0-15.2,0-1.53,4.37-3.19,8.7-4.71,13.06l-2.47.06c4.56-12.3,9.27-24.93,13.85-37.21a16.33,16.33,0,0,1,2.32,0c4.39,12.43,9.08,24.78,13.5,37.22C258,479.93,257.14,479.88,256.27,479.81Zm-19.58-92.6c2.65,0,5.29,0,7.95,0,.09,13.9,0,27.81.06,41.7-2.66.16-5.32,0-8,.11C236.62,415.07,236.69,401.13,236.69,387.21Zm17,41.68c.13-13.88,0-27.77.07-41.66,5.36-.05,10.74,0,16.12,0,4.85-.12,10.72.5,13.37,5.2a12.31,12.31,0,0,1,.84,8.82,9.12,9.12,0,0,1-5.14,5.54c1.93.94,3.72,1.81,4.95,3.65,3.16,4.55,2.45,11.73-1.87,15.35a14.09,14.09,0,0,1-9.74,3.21C266.06,428.91,259.86,429.07,253.66,428.89Zm41.44,48.92a11.32,11.32,0,0,1-6.72,2.19h-4.72a10.86,10.86,0,0,1-8.47-3.92c-2.07-2.39-2.66-5.25-2.65-8.35.06-4.62,0-9.18.06-13.8a12.2,12.2,0,0,1,7.56-10.75c5.23-2.19,12.75-1.32,16.45,3.33,2.1,2.53,2.11,5.4,2,8.54l-2.42,0c.18-3.26,0-6.22-2.73-8.42-3.56-2.75-9.81-3-13.66-.72a10.13,10.13,0,0,0-4.86,8.7c0,4.43,0,8.86,0,13.27a10.18,10.18,0,0,0,3.91,8.48c3.21,2.29,7.68,2.52,11.4,1.57a8,8,0,0,0,6-5.82c.46-2.83.1-5.81.27-8.68-3.53-.16-7.58,0-10.58-.07V461h12.79c0,3,0,6.44,0,9.71A8.58,8.58,0,0,1,295.1,477.81Zm-.23-50.68a13.87,13.87,0,0,1-6.38-7.88c2.4-.91,4.78-1.87,7.16-2.8,2.59,6.22,10.6,8.06,16.13,4.72a4.64,4.64,0,0,0,1.53-5.85,6.53,6.53,0,0,0-3.34-2.66c-4.55-1.74-10.47-2-14.58-4.63-4.4-2.71-5.17-8.95-3.5-13.45,1.83-4.65,6.37-7.1,11.11-7.82,3.74-.37,8.1-.3,11.52,1.43a13.63,13.63,0,0,1,6.36,7c-2.15,1-4.32,1.9-6.46,2.89a13.8,13.8,0,0,0-2.56-3,11.14,11.14,0,0,0-8.56-1.61A5.21,5.21,0,0,0,299,397.3a4.2,4.2,0,0,0,2.31,4.77c4.72,2.47,10.9,2.26,15.46,5s5.74,8.87,4.2,13.62c-1.7,4.89-6.37,7.68-11.26,8.56S299.27,429.62,294.87,427.13Zm34.2,52.8c-3.95-5.15-7.92-10.31-11.82-15.49-2.81-.1-5.63,0-8.44-.09-.14,5.17-.07,10.36,0,15.54h-2.48c.09-12.34,0-24.69.06-37,3.91-.05,7.83,0,11.75,0,3.27,0,6.75.77,9.15,3.14,3.4,3.29,3.68,9.23,1.48,13.23-1.88,3.23-5.14,4.6-8.69,5.13q6,7.8,12,15.59Zm7.05-86c-4,0-7.94.11-11.91,0,.12-2.22,0-4.45.09-6.68,10.57-.08,21.19,0,31.76,0,0,2.27.05,4.54,0,6.81-4-.06-8,0-12,0,0,11.66.05,23.34-.06,35-2.57,0-5.16,0-7.74,0C336.08,417.32,336.27,405.64,336.12,394Zm27,73.32a13.05,13.05,0,0,1-3.27,9,11,11,0,0,1-8.17,3.77h-4.56a10.75,10.75,0,0,1-7.86-3.45,10.42,10.42,0,0,1-3.12-7.61c0-4.82,0-9.58,0-14.41a12.32,12.32,0,0,1,4.69-9.75c3.26-2.55,7.61-3.08,11.61-2.53,3.53.53,6.93,2.16,8.86,5.29,1.59,2.49,1.83,5.38,1.84,8.26C363.14,459.62,363.19,463.45,363.15,467.28Zm23.85-63V412H368.44v10.44c7.09,0,14.18-.22,21.26-.19,0,2.29,0,4.46,0,6.75-9.77.12-19.57.08-29.34-.05.12-13.88,0-27.81.06-41.69,9.67-.08,19.35,0,29-.08.11,2.34.12,4.68,0,7-7-.11-14,0-21-.05,0,3.36-.07,6.73-.06,10.09C374.61,404.26,382,404.23,387,404.25Zm7.31,72.06a11.08,11.08,0,0,1-8.24,3.69h-4.56a10,10,0,0,1-6.45-2.46,10.72,10.72,0,0,1-4.07-8.6c0-8.74,0-17.42,0-26.15.75,0,1.5,0,2.25,0q0,12.21,0,24.45a12.65,12.65,0,0,0,1.53,6.64,9.16,9.16,0,0,0,6,4.14,13,13,0,0,0,10.31-1.62,9.48,9.48,0,0,0,3.73-8c-.05-8.51.05-17-.06-25.56l2.31-.08c0,8.55,0,17,0,25.51A11.56,11.56,0,0,1,394.31,476.31Zm29-13.56c-4.56,3-11.06,1.89-16.28,2.1,0,5,0,10,0,15-.77,0-1.53,0-2.29.06q0-18.56,0-37.1c4.07,0,8.14,0,12.22,0a11.68,11.68,0,0,1,8,3.1C429.67,450.43,429,459.38,423.32,462.75ZM428,415.89a11.71,11.71,0,0,1-3.5,7.87A16.59,16.59,0,0,1,412.06,429c-5.5-.06-10.94.09-16.43-.08.11-13.9,0-27.81.1-41.71,5.47.05,10.95,0,16.42,0a17.51,17.51,0,0,1,10.25,3.25,12.59,12.59,0,0,1,5.6,10ZM119,60H428V259.64c-11,.06-24.37-.05-36.66.05.18-3.38,1-6.72,1.11-10.11.8-11.29-1.29-23.17-4.08-34.08-5.43-20.35-13.74-40.16-23-59q-4.06-8.35-8.09-16.71c-4-8.34-8.72-17.38-10.54-26.47-1-5.19-1.39-11.15,1.28-15.93,3.89-7.91,16.38-8.62,21.43-1.6,3.84,5.55,3.79,12.45,4.18,18.9,5.81,0,11.63,0,17.45,0,0-9.65.05-19.31-.05-29a99.77,99.77,0,0,0-23.46-5.26c-13-1.18-26.47-.94-39.3,1.71s-25.51,8-34.79,17.35A52.81,52.81,0,0,0,279,127.16,74.37,74.37,0,0,0,279,156.1c1.87,9.24,5.3,18.38,9.07,27,7.48,17.07,17,34.09,22.93,51.7a97.76,97.76,0,0,1,5.24,24.87c-7.71,0-15.42,0-23.12,0-1.13-10.27-4-20.37-9.79-29a51.52,51.52,0,0,0-23.18-19,69.08,69.08,0,0,0-63.74,6.19A57.34,57.34,0,0,0,175.57,244,69.19,69.19,0,0,0,171,273.09c.53,13.46,4,26.72,11.21,38.17a69.91,69.91,0,0,0,30.44,26.22c14.1,6.51,30.27,9.12,45.71,9.18a171.85,171.85,0,0,0,45.82-5.47c19-4.95,37.36-13.4,52.68-25.7C370.32,304.71,381,291,387.18,274.87c13.67.06,27.82,0,40.82,0v93c-103,0-207,0-309,0ZM316,274.9a64.6,64.6,0,0,1-6.25,21.19,58.4,58.4,0,0,1-22,23.89,66.65,66.65,0,0,1-36,9.48c-13.49,0-27.61-3.2-38.89-10.85a54.7,54.7,0,0,1-23.93-47.93,39.17,39.17,0,0,1,4.8-17A26,26,0,0,1,207.41,242a31.63,31.63,0,0,1,20.12,0,26.25,26.25,0,0,1,13.93,10.54c4.33,6.39,5.71,14.67,5.75,22.25C270.12,275,293.07,274.86,316,274.9Z"/><path class="cls-1" d="M414,394.49c-3.33-.6-6.88-.26-10.26-.35V422c3.22-.07,6.46.16,9.66-.12,3.54-.51,6.73-2.75,7.17-6.51.13-4.62,0-9.26,0-13.87C420.52,397.76,417.44,395.22,414,394.49Z"/><path class="cls-1" d="M417,445c-3.32-.11-6.65,0-9.95,0q0,8.9,0,17.78c4.46-.17,10.17.65,14.25-1.39s5.19-7.11,3.67-11.08A8.91,8.91,0,0,0,417,445Z"/><path class="cls-1" d="M326.93,457.51c1.14-3,1-7.36-1.43-9.76-2.05-2.1-5.19-2.72-8-2.79s-5.82,0-8.74,0c0,5.79-.08,11.6.07,17.38,4.07-.24,8.36.33,12.36-.45C323.69,461.3,326,460.06,326.93,457.51Z"/><path class="cls-1" d="M261.55,404.39c3.88-.18,8.08.48,11.84-.49,3.58-1,4.55-6,1.91-8.44-1.58-1.35-3.46-1.46-5.45-1.48-2.79,0-5.57-.05-8.34.08C261.61,397.5,261.53,401,261.55,404.39Z"/><path class="cls-1" d="M351.26,444.44a11.62,11.62,0,0,0-9,2.37,10.85,10.85,0,0,0-3.67,8.39c0,3.22,0,6.43,0,9.65s-.28,6.28,1.66,9.2c2.81,4.27,9,5.2,13.53,3.73a10.13,10.13,0,0,0,6.94-9.32c.1-4.42,0-8.84,0-13.27.05-2.76-.5-5.53-2.5-7.58A11,11,0,0,0,351.26,444.44Z"/><path class="cls-1" d="M276,412.22c-1.81-1.22-4.09-1.23-6.18-1.2-2.76.05-5.51-.06-8.25,0-.14,3.7,0,7.41-.07,11.1,3.37.07,6.75,0,10.12,0,2,0,4.35-.75,5.45-2.55C278.46,417.38,278.25,413.88,276,412.22Z"/><path class="cls-1" d="M237.2,464.7c4.54,0,9.08-.05,13.63,0-2.14-6.24-4.49-12.4-6.64-18.62C241.64,452.2,239.49,458.51,237.2,464.7Z"/></g></g></svg>