<svg xmlns="http://www.w3.org/2000/svg" viewBox="0 0 273 307"><defs><style>.cls-1{fill:#1a1a1a;}</style></defs><title>schibsted</title><g id="Layer_2" data-name="Layer 2"><g id="Layer_1-2" data-name="Layer 1"><path class="cls-1" d="M101.66,236.42H96.54c0,5.54,0,11.08,0,16.61,1.61.08,3.22,0,4.83,0a6.28,6.28,0,0,0,4-1,4.94,4.94,0,0,0,1.8-4v-6.41a5.08,5.08,0,0,0-1.52-4A5.87,5.87,0,0,0,101.66,236.42Z"/><path class="cls-1" d="M0,307H273V0H0Zm76.22-52.87H75.08c0-5.59.06-11.19,0-16.78-2,3.56-4.22,7-6.24,10.54l-1,.07c-1.66-2.83-3.38-5.62-5.06-8.42a10.26,10.26,0,0,0-1.3-2v16.55H60.33c0-6.25,0-12.5,0-18.75l1.38,0c2.15,3.61,4.36,7.19,6.52,10.79a.49.49,0,0,0,.37-.29c2-3.52,4.17-7,6.21-10.5.48,0,1,0,1.45,0C76.19,241.63,76.23,247.88,76.22,254.13Zm-1.31-27.66a8.37,8.37,0,0,1-4.72,2.09,11.47,11.47,0,0,1-7.07-1.26,6.24,6.24,0,0,1-3-3.91c1.12-.5,2.28-.92,3.42-1.37.28.14.43.61.63.86,1.52,2.47,5.38,3,7.71,1.46a2.32,2.32,0,0,0-.13-3.85c-2.42-1.43-6.25-1.21-8.58-3-1.85-1.4-2.2-4.29-1.5-6.36.85-2.49,3.29-3.83,5.77-4.18,2.33-.21,4.8-.11,6.76,1.33a8,8,0,0,1,2.24,2.89c-.75.4-1.54.72-2.32,1.08-.29.08-.76.44-1,.3a4.65,4.65,0,0,0-1.92-1.81,5.63,5.63,0,0,0-4.65,0,2.25,2.25,0,0,0-.66,3.48c.9.92,2.5,1.2,3.71,1.51,2.15.59,4.19.71,5.83,2.41A6.21,6.21,0,0,1,74.91,226.47ZM90,243.81v1.09c-3,0-5.64,0-8.34,0,0,2.73-.12,5.45-.12,8.17,3.38,0,6.69-.05,10.07-.08,0,.36,0,1,0,1H80.27c0-6,0-12.48,0-18.72,3.74,0,7.49.06,11.24,0l0,1.1H81.42c0,2.48.24,4.95.24,7.42C84.36,243.82,87,243.83,90,243.81ZM91.43,228a10.3,10.3,0,0,1-9.94-1.36,6.67,6.67,0,0,1-2.37-5.2c0-2.35,0-4.69,0-7a7.34,7.34,0,0,1,1.92-5,8.68,8.68,0,0,1,6.56-2.55c2.6,0,5.37.68,6.93,2.86a8.08,8.08,0,0,1,1.18,4.3H91.93c-.12,0-.15-1.46-.72-2.2-1.08-1.51-3.39-1.85-5.09-1.34a3.89,3.89,0,0,0-3,3.59c0,2.34,0,4.72,0,7.06a3.76,3.76,0,0,0,1.48,3,5.16,5.16,0,0,0,6.2-.12,4.16,4.16,0,0,0,1.14-3h3.8a11.75,11.75,0,0,1-.36,2.9A6.63,6.63,0,0,1,91.43,228Zm16.94,20a6.38,6.38,0,0,1-1.24,3.95,6,6,0,0,1-4.86,2.17c-2.29,0-4.6,0-6.89,0,0-6.25,0-12.51,0-18.76,2.19,0,4.38,0,6.57,0a6.54,6.54,0,0,1,4.87,1.7,6.17,6.17,0,0,1,1.54,4.57C108.37,243.75,108.39,245.89,108.37,248Zm3.63,6.13v-18.8h1.13c0,6.26,0,12.51,0,18.77C112.77,254.12,112,254.13,112,254.15Zm3.08-25.82q-2,0-3.93,0c-.05-3,0-6,0-9H102.8c0,3,0,6,0,9-1.36.07-2.71,0-4.07,0,0-7.06-.05-14.14,0-21.19,1.34.05,2.68,0,4,0,0,2.88,0,5.75,0,8.63h8.33c0-2.88,0-5.76,0-8.64h4C115.1,214.21,115.13,221.27,115.08,228.33Zm14.54,25.75c-.73-2.21-1.59-4.39-2.38-6.59-2.57,0-5.13,0-7.7,0-.77,2.21-1.62,4.4-2.39,6.61l-1.25,0c2.31-6.23,4.7-12.63,7-18.85a9.31,9.31,0,0,1,1.18,0c2.22,6.3,4.6,12.56,6.83,18.86Zm-9.93-46.93c1.34,0,2.68,0,4,0,0,7,0,14.09,0,21.13-1.34.08-2.69,0-4,.05C119.66,221.27,119.69,214.21,119.69,207.15Zm8.6,21.13c.07-7,0-14.07,0-21.11,2.71,0,5.44,0,8.16,0,2.46-.05,5.43.26,6.78,2.64a6.24,6.24,0,0,1,.42,4.47,4.6,4.6,0,0,1-2.6,2.81,5.66,5.66,0,0,1,2.51,1.85,6.06,6.06,0,0,1-.95,7.77,7.12,7.12,0,0,1-4.94,1.63C134.57,228.29,131.43,228.37,128.29,228.28Zm21,24.69a5.61,5.61,0,0,1-3.4,1h-2.4a5.41,5.41,0,0,1-4.29-1.9,6,6,0,0,1-1.34-4.19c0-2.34,0-4.63,0-7a6.15,6.15,0,0,1,3.83-5.43c2.65-1.11,6.46-.67,8.33,1.69,1.07,1.28,1.07,2.74,1,4.33h-1.22c.09-1.65,0-3.15-1.39-4.26a6.7,6.7,0,0,0-6.92-.37,5.12,5.12,0,0,0-2.46,4.41c0,2.24,0,4.49,0,6.72a5.17,5.17,0,0,0,2,4.3,7.12,7.12,0,0,0,5.77.8,4.07,4.07,0,0,0,3.06-3,43.15,43.15,0,0,0,.3-4.4c-1.79-.08-4.2,0-5.2,0V245h6.16c0,1,0,3,0,4.65A3.86,3.86,0,0,1,149.29,253Zm-.12-25.58a7.06,7.06,0,0,1-3.23-4c1.22-.46,2.42-.94,3.63-1.42,1.31,3.16,5.37,4.09,8.17,2.4a2.37,2.37,0,0,0,.78-3,3.35,3.35,0,0,0-1.7-1.35c-2.3-.88-5.3-1-7.39-2.34s-2.61-4.54-1.77-6.81a6.82,6.82,0,0,1,5.63-4,11,11,0,0,1,5.84.72,6.93,6.93,0,0,1,3.22,3.53c-1.09.49-2.19,1-3.27,1.47a7,7,0,0,0-1.3-1.51,5.65,5.65,0,0,0-4.33-.82,2.65,2.65,0,0,0-2.21,2,2.13,2.13,0,0,0,1.17,2.42c2.39,1.25,5.52,1.14,7.84,2.54s2.9,4.5,2.12,6.91a7.06,7.06,0,0,1-5.7,4.33A11.84,11.84,0,0,1,149.17,227.39Zm17.33,26.75c-2-2.61-4-5.22-6-7.85-1.42,0-2.85,0-4.28,0-.07,2.62,0,5.25,0,7.87H155c0-6.25,0-12.51,0-18.77,2,0,4,0,5.95,0a6.5,6.5,0,0,1,4.64,1.59,5.85,5.85,0,0,1,.75,6.71,5.71,5.71,0,0,1-4.4,2.59c2,2.64,4,5.27,6,7.9Zm3.58-43.56c-2,0-4,0-6,0,.06-1.13,0-2.26.05-3.39,5.35,0,10.73,0,16.09,0,0,1.16,0,2.31,0,3.46-2,0-4.06,0-6.09,0,0,5.91,0,11.82,0,17.73q-2,0-3.93,0C170.05,222.42,170.15,216.5,170.08,210.58Zm13.69,37.15a6.37,6.37,0,0,1-1.66,4.45A5.45,5.45,0,0,1,178,254h-2.31a5.36,5.36,0,0,1-4-1.66,5.19,5.19,0,0,1-1.58-3.81v-7.28a6.23,6.23,0,0,1,2.38-4.94,7.82,7.82,0,0,1,5.88-1.27,6.21,6.21,0,0,1,4.49,2.68,7.54,7.54,0,0,1,.93,4.19C183.77,243.85,183.79,245.79,183.77,247.73ZM196,215.79V219h-9.55v5.65c3.59,0,7.18.07,10.77.08,0,1.16,0,2.35,0,3.52-5,.05-9.91.08-14.86,0,.06-7,0-14.06,0-21.1,4.9,0,9.8,0,14.7,0,0,1.19.06,2.38,0,3.56-3.56-.05-7.11,0-10.66,0,0,1.71,0,3.41,0,5.12Zm3.56,36.43a5.55,5.55,0,0,1-4.18,1.78h-2.3a4.91,4.91,0,0,1-3.27-1.16,5.34,5.34,0,0,1-2.07-4.31c0-4.43,0-8.81,0-13.24.38,0,.76,0,1.14,0v12.4a6.42,6.42,0,0,0,.77,3.36,4.66,4.66,0,0,0,3.05,2.11,6.6,6.6,0,0,0,5.22-.83,4.76,4.76,0,0,0,1.89-4c0-4.32,0-8.63,0-13l1.17,0v12.89A5.74,5.74,0,0,1,199.56,252.22Zm14.7-6.79c-2.31,1.51-5.61,1-8.25,1.07,0,2.53,0,5.07,0,7.61l-1.16,0q0-9.41,0-18.8c2.06,0,4.13,0,6.19,0a5.88,5.88,0,0,1,4.07,1.57C217.47,239.19,217.14,243.72,214.26,245.43ZM217,221.69a6.14,6.14,0,0,1-2,4,8.59,8.59,0,0,1-6.4,2.65c-2.78,0-5.59.05-8.37,0,.06-7,0-14.09,0-21.13,2.77,0,5.54,0,8.31,0a9.4,9.4,0,0,1,5.37,1.65,6.59,6.59,0,0,1,3,5.07ZM60,41H217V142.52c-6,0-12.54,0-18.76,0,.09-1.71.38-3.4.47-5.12.41-5.72-.7-11.74-2.12-17.27a163.1,163.1,0,0,0-11.69-29.9c-1.37-2.82-2.75-5.64-4.11-8.47-2-4.23-4.42-8.81-5.35-13.41-.5-2.63-.7-5.65.65-8.07,2-4,8.3-4.37,10.86-.82,2,2.82,1.92,6.31,2.11,9.58h8.85c0-4.89,0-9.78,0-14.67A50.48,50.48,0,0,0,186,51.72a68.24,68.24,0,0,0-19.92.87c-6.46,1.34-12.92,4-17.63,8.79a26.69,26.69,0,0,0-7.33,14,37.72,37.72,0,0,0,0,14.67,68.6,68.6,0,0,0,4.6,13.68c3.79,8.64,8.62,17.27,11.62,26.19a49.47,49.47,0,0,1,2.65,12.6c-3.9,0-7.81,0-11.72,0a32.89,32.89,0,0,0-5-14.71,26.19,26.19,0,0,0-11.75-9.64,35,35,0,0,0-32.3,3.14,29,29,0,0,0-10.57,13.27,35,35,0,0,0-2.31,14.75,39,39,0,0,0,5.68,19.34A35.45,35.45,0,0,0,107.53,182c7.14,3.3,15.33,4.62,23.16,4.65a87,87,0,0,0,23.22-2.77,71.76,71.76,0,0,0,26.69-13,49.47,49.47,0,0,0,15.53-20.58c6.93,0,13.87,0,20.87,0v47.13c-52,0-105,0-157,0Zm99.88,109.25A33.1,33.1,0,0,1,156.71,161a29.6,29.6,0,0,1-11.14,12.1,33.82,33.82,0,0,1-18.24,4.81c-6.84,0-14-1.62-19.71-5.5a27.72,27.72,0,0,1-12.13-24.29,20,20,0,0,1,2.43-8.63,13.25,13.25,0,0,1,6.94-5.89,16.08,16.08,0,0,1,10.19,0,13.27,13.27,0,0,1,7.06,5.34c2.19,3.24,2.89,7.43,2.91,11.27C136.63,150.28,148.26,150.23,159.88,150.25Z"/><path class="cls-1" d="M209.52,210.85a33.37,33.37,0,0,0-5.2-.18V224.8c1.63,0,3.28.08,4.9-.06a4,4,0,0,0,3.63-3.3c.07-2.34,0-4.69,0-7A3.87,3.87,0,0,0,209.52,210.85Z"/><path class="cls-1" d="M211.05,236.43c-1.68-.05-3.37,0-5,0q0,4.51,0,9c2.26-.08,5.15.33,7.22-.7s2.63-3.6,1.86-5.62A4.53,4.53,0,0,0,211.05,236.43Z"/><path class="cls-1" d="M165.42,242.78c.58-1.53.52-3.73-.73-4.95a5.85,5.85,0,0,0-4.06-1.41c-1.48,0-2.95,0-4.43,0,0,2.94,0,5.88,0,8.81,2.07-.12,4.24.17,6.27-.23A3.75,3.75,0,0,0,165.42,242.78Z"/><path class="cls-1" d="M132.29,215.87c2-.1,4.09.24,6-.25a2.6,2.6,0,0,0,1-4.28,4,4,0,0,0-2.77-.75c-1.41,0-2.82,0-4.22,0C132.32,212.37,132.28,214.12,132.29,215.87Z"/><path class="cls-1" d="M177.74,236.16a5.87,5.87,0,0,0-4.56,1.2,5.49,5.49,0,0,0-1.86,4.25c0,1.63,0,3.25,0,4.89s-.14,3.18.84,4.66c1.43,2.16,4.54,2.63,6.86,1.89a5.13,5.13,0,0,0,3.51-4.72c.05-2.24,0-4.49,0-6.73a5.2,5.2,0,0,0-1.27-3.84A5.56,5.56,0,0,0,177.74,236.16Z"/><path class="cls-1" d="M139.62,219.83a5.36,5.36,0,0,0-3.13-.61c-1.39,0-2.79,0-4.18,0-.06,1.87,0,3.75,0,5.62,1.71,0,3.42,0,5.13,0a3.2,3.2,0,0,0,2.76-1.29A3,3,0,0,0,139.62,219.83Z"/><path class="cls-1" d="M120,246.42c2.3,0,4.6,0,6.91,0-1.09-3.16-2.28-6.28-3.37-9.43C122.2,240.09,121.11,243.29,120,246.42Z"/></g></g></svg>