<svg xmlns="http://www.w3.org/2000/svg" viewBox="0 0 539 538"><defs><style>.cls-1{fill:#29353a;}.cls-2{fill:#282828;}</style></defs><title>scytale</title><g id="Layer_2" data-name="Layer 2"><g id="Layer_1-2" data-name="Layer 1"><path class="cls-1" d="M0,0V538H539V0ZM58.69,297.78c-13.83,0-22-9.09-22.94-24.6l13.34-.38c.64,6.93,2.82,13.33,9.74,13.33,6.28,0,8.33-5.51,8.33-10.64,0-5.39-3.07-10.26-8.33-15.52l-9.62-10.39c-7.43-7.3-12-14.71-12-24,0-12,7.31-22.06,21.92-22.06,10.9,0,20.14,5.77,21,23.72l-12.69.38c-.9-7.69-3.21-12.56-9-12.56-5.26,0-8.08,3.71-8.08,9.48,0,5.26,4.74,10.13,9.24,15l8.83,9.24C76.51,257,81,264.83,81,274.7,81,287.91,72.8,297.78,58.69,297.78ZM152,236H138V225.65c0-5.77-3.22-9.61-9.37-9.61-6.93,0-9.63,4.35-9.63,10.39v48.33c0,6.8,3.48,10.52,9.76,10.52,6,0,9.24-4,9.24-9.49V266h14v10.56c0,13.08-9.89,21.29-23.1,21.29-14.36,0-24.9-7.62-24.9-22.24V225.87c0-13.85,10.79-22.15,24.9-22.15,13.21,0,23.1,7.86,23.1,20.39Zm67.13,62H204.92l-12.81-38.15L173.64,205h15.09L200,241.92,210.91,205h13.75l-18.33,54.15h0v.8ZM297,217H279v81H265V217H249V205h48Zm59.83,81-4.63-24H332.84l-4.35,24H315.16l18.59-93h19.48l18,93ZM438,298H398V205h14v80h26Zm65,0H461V205h42v12H478v27h20v12H478v29h25Z"/><polygon class="cls-1" points="342.48 222 335.17 261 349.89 261 349.9 261 342.86 222 342.48 222"/><polygon class="cls-2" points="206.33 259.15 224.66 205 224.6 205 206.32 259.1 206.33 259.15"/></g></g></svg>