<svg xmlns="http://www.w3.org/2000/svg" viewBox="0 0 227.42 227.42"><defs><style>.cls-1{fill:none;stroke:#fff;stroke-miterlimit:10;stroke-width:7px;}.cls-2{fill:#fff;}</style></defs><title>stewardship</title><g id="Layer_2" data-name="Layer 2"><g id="Layer_1-2" data-name="Layer 1"><circle class="cls-1" cx="113.71" cy="113.71" r="110.21" transform="translate(-47.1 113.71) rotate(-45)"/><path class="cls-2" d="M107.69,40.12A13.32,13.32,0,0,0,94.42,53.39C72,59.05,55.09,78.72,53.2,103.17H46.31a1.71,1.71,0,0,0-.32,0,3.31,3.31,0,0,0-3,3.32V118.1a3.32,3.32,0,0,0,3.32,3.32H169.08a3.32,3.32,0,0,0,3.32-3.32V106.49a3.31,3.31,0,0,0-3.32-3.32h-6.89C160.3,78.72,143.38,59.05,121,53.39A13.32,13.32,0,0,0,107.69,40.12Zm0,6.64a6.5,6.5,0,0,1,6.49,5.39,50.28,50.28,0,0,0-13,0A6.5,6.5,0,0,1,107.69,46.76Zm0,11.61c25.15,0,45.72,19.21,47.91,44.8H59.79C62,77.58,82.55,58.37,107.69,58.37ZM49.62,109.8H165.76v5H49.62Zm59.73,16.6a8.34,8.34,0,0,0-8.29,8.29,8.14,8.14,0,0,0,2.69,6.12,9.94,9.94,0,0,0,5.08,2.13h.11l9,1.14-8,2L79.13,128.68a3.47,3.47,0,0,0-.78-.37,8.73,8.73,0,0,0-2.18-.25,8.27,8.27,0,0,0-5.08,14.82l0,.06,32.93,24.31a3.37,3.37,0,0,0,2,.63H131.8l35.78,17.88a3.32,3.32,0,0,0,4.46-1.45,3.28,3.28,0,0,0,.36-1.5V143a3.3,3.3,0,0,0-2.18-3.11l-36.5-13.28a3.38,3.38,0,0,0-1.14-.2Zm0,6.63H132l33.75,12.29v32.1L134.09,161.6a3.32,3.32,0,0,0-1.51-.36h-25.4L75.13,137.65l0-.05a1.58,1.58,0,0,1-.57-1.25,1.61,1.61,0,0,1,1.66-1.66h.1l31.42,17.84a3.37,3.37,0,0,0,2.49.31l26.55-6.64a3.32,3.32,0,0,0-.41-6.48l-26.5-3.37h0a4.13,4.13,0,0,1-1.76-.62c-.24-.2-.32-.18-.32-1A1.62,1.62,0,0,1,109.35,133Z"/></g></g></svg>