<?xml version="1.0" encoding="UTF-8" standalone="no"?>
<!-- Created with Inkscape (http://www.inkscape.org/) -->

<svg
   xmlns:dc="http://purl.org/dc/elements/1.1/"
   xmlns:cc="http://creativecommons.org/ns#"
   xmlns:rdf="http://www.w3.org/1999/02/22-rdf-syntax-ns#"
   xmlns:svg="http://www.w3.org/2000/svg"
   xmlns="http://www.w3.org/2000/svg"
   xmlns:xlink="http://www.w3.org/1999/xlink"
   xmlns:sodipodi="http://sodipodi.sourceforge.net/DTD/sodipodi-0.dtd"
   xmlns:inkscape="http://www.inkscape.org/namespaces/inkscape"
   width="585.97375mm"
   height="496.81226mm"
   viewBox="0 0 585.97375 496.81226"
   version="1.1"
   id="svg6528"
   inkscape:version="0.92.2 2405546, 2018-03-11"
   sodipodi:docname="cto.svg">
  <defs
     id="defs6522">
    <linearGradient
       id="a-62"
       x1="1.2438999"
       x2="2.2439001"
       y1="594.59003"
       y2="594.59003"
       gradientTransform="matrix(656.07301,371.17128,207.0419,-365.96206,-120613.48,218514.46)"
       gradientUnits="userSpaceOnUse">
      <stop
         stop-color="#DF1F1B"
         offset="0"
         id="stop338-9">
        <animate
           attributeName="stop-color"
           dur="10s"
           repeatCount="indefinite"
           values="#DF1F1B;#EA7D1A;#FFCD03; #81B725; #FFCD03;#EA7D1A;#DF1F1B" />
      </stop>
      <stop
         stop-color="#EA7D1A"
         offset=".5537"
         id="stop340-1">
        <animate
           attributeName="stop-color"
           dur="10s"
           repeatCount="indefinite"
           values="#EA7D1A;#FFCD03;#81B725; #079239; #81B725;#FFCD03;#EA7D1A;" />
      </stop>
      <stop
         stop-color="#FFCD03"
         offset="1"
         id="stop342-2">
        <animate
           attributeName="stop-color"
           dur="10s"
           repeatCount="indefinite"
           values="#FFCD03;#81B725;#079239; #3F95D1; #079239;#81B725;#FFCD03" />
      </stop>
    </linearGradient>
    <linearGradient
       inkscape:collect="always"
       xlink:href="#a-62"
       id="linearGradient6505"
       gradientUnits="userSpaceOnUse"
       gradientTransform="matrix(387.37629,219.15695,122.24726,-216.08118,-73385.214,127928.22)"
       x1="1.2438999"
       y1="594.59003"
       x2="2.2439001"
       y2="594.59003" />
  </defs>
  <sodipodi:namedview
     id="base"
     pagecolor="#ffffff"
     bordercolor="#666666"
     borderopacity="1.0"
     inkscape:pageopacity="0.0"
     inkscape:pageshadow="2"
     inkscape:zoom="0.29445801"
     inkscape:cx="1217.4993"
     inkscape:cy="1028.7517"
     inkscape:document-units="mm"
     inkscape:current-layer="layer1"
     showgrid="false"
     fit-margin-top="0"
     fit-margin-left="0"
     fit-margin-right="0"
     fit-margin-bottom="0"
     inkscape:window-width="1899"
     inkscape:window-height="2057"
     inkscape:window-x="9603"
     inkscape:window-y="2202"
     inkscape:window-maximized="0" />
  <metadata
     id="metadata6525">
    <rdf:RDF>
      <cc:Work
         rdf:about="">
        <dc:format>image/svg+xml</dc:format>
        <dc:type
           rdf:resource="http://purl.org/dc/dcmitype/StillImage" />
        <dc:title></dc:title>
      </cc:Work>
    </rdf:RDF>
  </metadata>
  <g
     inkscape:label="Layer 1"
     inkscape:groupmode="layer"
     id="layer1"
     transform="translate(227.61877,87.879435)">
    <path
       inkscape:connector-curvature="0"
       style="fill:url(#linearGradient6505);stroke-width:0.48508132"
       d="m 140.24255,-87.878237 c -2.51333,0.009 -4.27493,0.0587 -4.37131,0.15502 -0.0859,0.0859 0.3783,0.69046 1.03145,1.34361 2.03425,2.03424 2.85528,5.87986 1.87174,8.76638 -0.46837,1.37464 -2.25279,3.43493 -2.97503,3.43493 -0.5057,0 -0.52117,0.15031 0.16693,-1.64436 0.46738,-1.21901 0.54991,-1.88643 0.43201,-3.49229 -0.27644,-3.76645 -2.1586,-5.78395 -5.62808,-6.03218 -2.2733,-0.16267 -1.95144,-0.32118 -9.5653,4.71083 -6.95338,4.59552 -14.92676,9.43917 -28.428242,17.26872 -6.05552,3.5116 -6.94917,4.18322 -11.46392,8.61962 -4.68669,4.60534 -5.89674,6.60217 -4.00079,6.60217 1.80438,0 2.91071,1.44476 2.60192,3.39826 -0.24175,1.52918 -2.08034,5.26034 -3.43959,6.97992 -1.21613,1.5385 -4.07731,3.92551 -4.43796,3.70263 -0.1238,-0.0765 0.34793,-0.84032 1.04852,-1.69759 2.08465,-2.55093 4.95482,-9.00658 4.29688,-9.66452 -0.81825,-0.81825 -5.16009,1.63042 -9.39011,5.2958 -1.42616,1.23581 -3.96497,5.24142 -4.53927,7.16235 -0.47742,1.59678 -0.3709,2.21752 0.77568,4.53202 1.26359,2.55064 3.1637,4.53258 4.89839,5.10874 1.99641,0.66312 4.77125,0.39878 6.78616,-0.64596 4.95411,-2.56873 6.11757,-3.4317 10.42003,-7.73182 9.75789,-9.75251 22.165182,-19.91632 30.087572,-24.64707 1.46482,-0.87469 3.51431,-2.11138 4.55425,-2.74815 5.99083,-3.66821 16.84716,-6.5432 28.067,-7.43315 2.87814,-0.22828 6.86491,-0.24979 14.02345,-0.0754 l 10.00196,0.24339 0.84855,0.86868 c 0.81221,0.83134 0.82431,0.87503 0.2744,1.02267 -0.316,0.0848 -4.76756,0.15676 -9.8919,0.1602 -10.22324,0.007 -18.65199,0.49133 -23.79546,1.3684 -6.25047,1.06582 -12.61311,2.8221 -15.89979,4.38835 -4.94665,2.35736 -12.10329,7.41823 -18.53584,13.10825 -8.130382,7.19191 -19.975412,18.59905 -23.521562,22.65183 -1.45058,1.65788 -4.9211,5.34694 -7.71218,8.19796 -2.79112,2.85099 -4.88988,5.0803197 -4.66382,4.9542197 0.22609,-0.1261 0.93224,-0.5817997 1.5689,-1.0128497 4.05292,-2.74416 8.20251,-3.40069 9.52863,-1.50741 0.56642,0.80867 0.51686,1.60607 -0.19069,3.0623597 -0.80121,1.64912 -1.3376,1.66828 -0.96377,0.0346 0.42463,-1.8555997 0.18717,-2.1723897 -1.52082,-2.0303597 -1.88997,0.15716 -4.40936,1.4198897 -7.63003,3.8245797 -3.29589,2.46089 -5.63941,4.76332 -6.01877,5.9128 -0.40926,1.24012999 -0.3974,3.60315 0.0249,4.89583 0.48837,1.49558 1.98163,3.76486 2.91299,4.42661 1.35659,0.9638 2.91004,1.47682 4.95577,1.63711 2.60038,0.20373 3.9683,-0.31499 6.65025,-2.5213 7.80021,-6.41683001 24.270922,-18.2752197 35.075372,-25.2532297 3.25366,-2.10138 7.84325,-4.61857 12.46849,-6.83834 3.01093,-1.44503 3.86455,-2.00311 5.51492,-3.60495 2.09267,-2.03116 3.73097,-2.8523 6.67917,-3.34762 0.82894,-0.13925 2.67856,-0.49951 4.11035,-0.80045 1.43182,-0.30096 3.713,-0.67167 5.06944,-0.82425 1.35647,-0.15259 4.30197,-0.53017 6.54535,-0.83871 3.3289,-0.45783 5.52045,-0.56126 11.92022,-0.55861 8.42203,0.003 12.25872,0.2916 13.48496,1.01595 0.75729,0.44735 0.76097,0.46217 0.21601,0.84389 -0.46173,0.32337 -1.73405,0.35623 -7.5918,0.19637 -7.53589,-0.20569 -16.47497,0.1447 -20.73828,0.81285 -1.35644,0.21259 -3.57605,0.52639 -4.93249,0.69763 -3.83104,0.48368 -6.74725,1.08397 -7.94682,1.63557 -0.6292,0.28927 -0.88717,0.51388 -0.60565,0.52711 1.45184,0.0683 4.197,2.15115 5.28703,4.01111 1.28474,2.19229 1.9725,6.02531 1.47794,8.23775 -0.31792,1.42216 -1.42224,2.84581 -2.2076,2.84581 -0.43112,0 -0.42725,-0.0786 0.0511,-1.01698 0.92202,-1.80848 0.53519,-5.06048 -0.93327,-7.84603 -1.22957,-2.33247 -3.04361,-3.53291 -6.05906,-4.00958 -1.33943,-0.21172 -1.43701,-0.181 -3.05356,0.97256 -0.9184,0.65534 -3.57222,2.19688 -5.89732,3.42564 -5.48455,2.89832 -7.67247,4.22319 -14.19035,8.59223 -9.19528,6.1637097 -12.33633,8.3846997 -27.228832,19.2535997 l -5.12992,3.74446 0.76739,0.46665 c 1.18341,0.7195603 1.55803,1.9015903 1.16272,3.6680003 -0.28358,1.26719 -1.75893,4.16761 -2.50733,4.9294 -0.55703,0.56697 -0.50609,-0.1288 0.13383,-1.82883 0.90313,-2.39943 1.13826,-4.29332 0.6191,-4.98779 -0.38833,-0.51954 -0.44231,-0.50943 -2.25724,0.41134 -1.78001,0.90305 -1.8973,1.02487 -2.74971,2.86131 -3.18082,6.85284 -1.963,10.01033 4.81367,12.4835 3.23405,1.18025 5.41052,1.18528 9.96217,0.0233 1.93627,-0.49435 4.42317,-1.25998 5.5263,-1.7017 1.10313,-0.44172 2.1137,-0.80306 2.24584,-0.80306 0.1321,0 1.28291,-0.6753 2.557482,-1.50067 1.27458,-0.82534 3.30407,-1.93016 4.5098,-2.45514 8.61595,-3.75142 10.55135,-4.69967 14.11232,-6.91484 3.96518,-2.4666 11.09231,-6.5875703 13.4276,-7.7638503 0.67824,-0.3416 1.72617,-0.96255 2.32905,-1.38028 2.04859,-1.41949 8.08077,-2.96061 13.97537,-3.57034001 1.50718,-0.15589 3.91208,-0.51567 5.34387,-0.79944 1.43182,-0.28374 5.87105,-1.14706999 9.86502,-1.91822999 3.99397,-0.77115 8.74117,-1.70098 10.54976,-2.06652 8.48868,-1.71575 13.36998,-2.30839 14.64871,-1.77872 0.45876,0.19002 0.83407,0.43857 0.83407,0.55242 0,0.39826 -2.82607,1.41772 -5.30717,1.91464 -2.95862,0.59256 -6.30259,1.0301 -10.44951,1.36683 -1.65785,0.13462 -3.93906,0.43172 -5.06944,0.66043 -1.13035,0.22867999 -3.78161,0.54781999 -5.89164,0.70899999 -3.7587,0.28713 -9.06203,1.23018 -11.78327,2.09548001 -5.0564,1.60779 -23.90103,12.3479203 -32.60937,18.5849103 -1.50714,1.07945 -3.22982,2.26076 -3.8282,2.62515 -0.59841,0.36438 -1.89323,1.39231 -2.87735,2.28462 -0.98411,0.89233 -2.07303,1.80888 -2.41998,2.03658 l -0.63098,0.41391 1.0418,0.57981 c 1.27312,0.70853 2.00091,2.07044 2.00091,3.74809 0,1.65555 -0.63701,3.71573 -1.40094,4.52892 -0.70962,0.75533 -1.4876,0.88691 -1.2268,0.20722 0.094,-0.24497 0.35267,-1.4868 0.57463,-2.75952 0.51937,-2.97844 0.22455,-3.71457 -1.71773,-4.28964 -1.59023,-0.47085 -1.80917,-0.37192 -4.07054,1.84587 -2.02647,1.98739 -2.3655,3.02908 -1.6216,4.97697 0.57459,1.50461 2.45009,3.42577 4.14599,4.24675 1.78221,0.86275 5.43468,1.0288 9.03357,0.41084 3.69024,-0.63362 9.83072,-2.012 11.19827,-2.51354 0.61381,-0.22508 2.28735,-0.71501 3.71915,-1.08884 4.40859,-1.15104 8.96307,-2.81035 13.41419,-4.88754 6.04385,-2.82049 6.50269,-2.94794 10.20556,-2.83033 2.08663,0.0663 3.80177,0.29443 5.2529,0.69869 2.09354,0.58319 7.94102,1.22269 11.27271,1.23248 1.9798,0.006 3.98034,-0.64442 10.88462,-3.53727 9.77265,-4.09466 11.44838,-4.73374 11.44838,-4.36716 0,0.5828 -2.48898,2.66682 -4.92942,4.1274 -1.25913,0.75358 -2.63425,1.71825 -3.05562,2.14352 -0.92181,0.9303 -1.22373,2.27742 -0.79891,3.56465 0.35695,1.08156 2.50198,3.19916 4.57128,4.51239 l 1.40457,0.89141 0.57052,2.44689 c 1.56644,6.71661 7.76579,19.32056 12.95011,26.32964 2.73503,3.69768 9.0274,9.55061 11.77396,10.95179 1.29749,0.66194 7.54139,2.24653 11.76724,2.98588 7.8023,1.36506 16.83583,2.2384 23.36086,2.25877 2.52449,0.008 4.58988,0.11877 4.58988,0.24649 0,0.30848 -3.21897,1.24825 -5.61723,1.6397 -2.52061,0.41127 -10.66695,0.40005 -14.74224,-0.0201 -1.77811,-0.18322 -3.28859,-0.2771 -3.35691,-0.20878 -0.0683,0.0683 1.015,0.97491 2.40761,2.01488 1.39263,1.03997 3.86426,3.17788 5.49269,4.75112 5.45944,5.2745 8.42029,9.299597 24.30704,33.046037 12.70823,18.99544 16.21351,24.02046 20.61993,29.55686 3.30745,4.1556 8.67659,10.24181 12.80181,14.5128 5.38578,5.57601 14.81728,13.17738 19.56676,15.76959 1.68005,0.91696 3.14081,1.6701 3.2463,1.6738 0.61569,0.0206 7.17,-8.60774 13.21316,-17.39429 8.42899,-12.25542 13.09071,-20.62678 16.98242,-30.49685 6.57698,-16.68039 8.66481,-34.94778 6.19238,-54.178087 -2.21014,-17.19038 -7.9593,-31.28071 -12.42144,-30.44362 -0.8024,0.15054 -1.43304,-0.18032 -6.09733,-3.20289 -9.72669,-6.3032 -21.73239,-14.69234 -27.92592,-19.51302 -4.34213,-3.37971 -11.53501,-9.72519 -17.53796,-15.47194 C 285.30691,8.5491527 281.68379,5.7901827 277.2952,4.0274227 c -2.01425,-0.80906 -9.7413,-4.38165001 -12.1548,-5.61982 -0.90429,-0.46393 -2.90838,-1.78689 -4.454,-2.9404 l -2.81016,-2.09754 -2.29857,-4.5211697 c -2.96262,-5.82782 -4.53766,-9.48917 -7.12877,-16.57313 -1.15658,-3.16201 -2.59713,-6.8752 -3.20083,-8.25169 -2.62162,-5.97773 -9.85946,-16.49558 -15.82282,-22.99293 -0.9683,-1.055 -2.34667,-2.7853 -3.06285,-3.84471 -0.71617,-1.0594 -1.4965,-2.08733 -1.73426,-2.28463 -0.37052,-0.30752 -0.45617,-0.2635 -0.59997,0.30954 -0.23365,0.93086 0.33369,3.82897 1.07953,5.51542 0.34324,0.77611 0.83534,2.04849 1.094,2.82724 0.25865,0.77874 0.95139,2.16027 1.53942,3.07009 0.58804,0.90982 1.75263,3.13018 2.58744,4.93405 1.34334,2.90277 1.51638,3.47822 1.50792,5.00798 -0.0111,1.95977 -0.44704,3.87774 -1.51464,6.66107 -0.98113,2.55792 -1.05476,5.95757 -0.18965,8.76899 0.32464,1.055 0.66992,2.53534 0.7674,3.28972 0.21052,1.62909 -0.31581,6.42429 -0.85577,7.79746 -0.20979,0.5335 -0.68506,2.26478 -1.05677,3.8473 -0.75298,3.2058497 -2.72794,9.2587997 -3.1626,9.6934597 -0.46976,0.46977 -0.33872,-0.60716 0.66818,-5.49629 2.20562,-10.7096197 2.46907,-14.5004697 1.23558,-17.7617197 -1.60673,-4.2481 -1.74474,-7.04911 -0.54054,-10.96108 1.45304,-4.72046 1.07669,-6.91761 -2.27738,-13.29015 -2.77476,-5.27185 -4.2455,-9.27788 -4.43383,-12.07831 -0.19437,-2.89005 -0.64556,-6.77604 -1.01545,-8.74779 -1.02774,-5.47838 -6.75367,-12.10569 -12.07627,-13.97643 -3.32052,-1.16708 -6.21175,-1.295 -17.60201,-0.77875 -6.42263,0.29107 -8.19134,0.26453 -17.94878,-0.26821 -5.95326,-0.32504 -13.59856,-0.71659 -16.98967,-0.87024 -4.13562,-0.18737 -10.41278,-0.28712 -14.60169,-0.27284 z m -65.757242,3.01739 c -0.82389,0.006 -2.24761,2.44877 -7.7711,13.33407 l -4.33462,8.54313 0.58343,1.18496 c 0.68837,1.39685 1.64643,4.53205 2.82671,9.25317 0.64452,2.57818 1.0161,3.56217 1.52341,4.03231 0.36904,0.34202 0.85149,0.55242 1.07228,0.46767 0.62905,-0.24135 16.55977,-19.46777 18.02061,-21.74854 0.76386,-1.19258 0.34743,-2.00681 -1.91047,-3.7362 -2.99107,-2.29098 -9.39374,-9.70667 -9.39374,-10.87996 0,-0.29067 -0.22273,-0.45352 -0.61651,-0.45061 z m -47.93867,17.05218 c -2.0714,-0.0122 -4.19203,0.0417 -6.36551,0.16124 -9.71155,0.53422 -16.1032524,1.51236 -25.3695164,3.88297 -3.887655,0.9946 -4.79298,1.35684 -10.6871816,4.27363 -3.541819,1.75268 -6.655197,3.37677 -6.91896,3.60908 -0.425424,0.37467 -0.479558,1.0166 -0.479558,5.6875 0,5.71887 0.26469,7.83559 1.680501,13.42089 3.598254,14.195 7.394179,24.17906 11.020531,28.9889397 4.8676716,6.45626 8.4122686,9.01036 23.297804,16.78604 4.69189,2.4508903 8.66487,4.4678903 8.82891,4.4824403 0.16407,0.0145 1.11003,-0.99756 2.10219,-2.24949 2.13056,-2.6885103 6.43057,-6.8710403 8.23879,-8.0134603 0.70389,-0.44471 1.27852,-0.87029 1.27587,-0.94567 -0.003,-0.0754 -0.71104,-0.43429 -1.57509,-0.7979 -3.65448,-1.53790001 -10.0375,-5.42261 -13.41157,-8.16229 -1.86338,-1.51308 -7.92499,-6.9435997 -10.5352904,-9.4381697 -5.0442,-4.82055 -9.000488,-11.49215 -9.000488,-15.17841 0,-3.23347 2.859987,-4.76893 5.562468,-2.98638 3.25311,2.1458 9.0655804,8.90072 12.4436704,14.46166 1.29728,2.13555 2.83795,5.68351 2.62051,6.03527 -0.18362,0.29711 -0.65338,-0.21031 -5.5454,-5.99291 -3.4726,-4.10478 -8.7476004,-9.45421 -9.3229354,-9.45421 -0.581184,0 -0.124143,1.85122 1.014915,4.11036 1.43335,2.84279 3.72674,5.8047 7.5845704,9.79578 5.44066,5.6285897 8.71038,8.1076797 16.74419,12.6943097 7.83066,4.47066 8.82518,4.70112 13.39453,3.10575999 5.15144,-1.79858999 10.63842,-2.66323999 14.69369,-2.31562999 3.03536,0.26019 2.76918,0.42089 4.74337,-2.86494 0.72443,-1.20571 2.06132,-3.1169 2.97141,-4.24728 0.91003,-1.1303497 1.77596,-2.3636297 1.92391,-2.7403897 0.14793,-0.3768 0.33986,-2.50381 0.42633,-4.72686 0.13062,-3.35836 0.0923,-4.04207 -0.22686,-4.04471 -0.8115,-0.006 -3.28652,-1.37888 -4.49895,-2.49648 -2.59752,-2.39429 -3.56557,-5.41692 -2.76108,-8.61965 0.60968,-2.42716 2.02941,-5.17621 3.5419,-6.85848 1.10873,-1.23317 1.22774,-1.49323 1.12707,-2.45671 -0.0619,-0.59259 -0.248,-2.37228 -0.41394,-3.95481 -0.54084,-5.1577 -2.39628,-12.97757 -3.37601,-14.22908 -0.47323,-0.60454 -7.10091,-3.6972 -10.2867,-4.80023 -7.43345,-2.57365 -15.486,-3.86865 -24.46209,-3.92173 z m -59.179858,1.57716 c -1.707145,0 -3.264213,0.8949 -5.285453,3.03754 -1.78038,1.8873 -3.89612,4.98812 -11.66235,17.09301 -2.18538,3.40625 -5.87129,8.74795 -8.19071,11.87061 -2.31942,3.12264 -4.38483,6.07431 -4.58991,6.55929 -0.89472,2.11593 -0.21797,3.62498 1.99781,4.454 6.06412,2.26888 25.1654,6.92285 37.500564,9.13691 2.477161,0.44463 3.538008,0.53202 3.760496,0.30954 0.08401,-0.084 -0.212354,-1.10141 -0.658865,-2.26084 -1.168347,-3.03385 -2.58789,-7.81024 -3.680936,-12.38427 -2.725367,-11.40408 -3.316711,-17.60507 -2.736268,-28.68508 l 0.246512,-4.70823 -1.763712,-1.78956 c -1.939793,-1.96861 -3.18569,-2.63292 -4.937178,-2.63292 z m 44.229868,7.31686 v 0 h 0.003 c 0.20608,-0.006 0.41301,0.0452 0.59428,0.15296 l 0.003,0.003 c 0.26202,0.15777 0.44135,0.41812 0.49866,0.71366 0,0.007 -8e-5,0.0119 0.003,0.0185 0.005,0.0284 0.0106,0.057 0.014,0.0863 l 0.77256,7.50755 -2.08516,0.82992 -0.68987,-6.70036 -0.003,-0.0169 -7.3928324,2.94867 0.135916,0.0228 c 2.518596,0.69448 5.460366,1.98353 8.0041764,4.35528 0.13324,0.12411 0.26646,0.25148 0.39841,0.38137 l 9.84591,-3.92224 c 0.31547,-0.12536 0.67212,-0.0963 0.96324,0.0791 0.29007,0.17467 0.48046,0.47588 0.51367,0.81131 l 0.98806,10.07793 c 0.007,0.0791 0.005,0.15706 -0.005,0.23357 l 0.003,-0.004 c -0.0185,0.15243 -0.0696,0.29684 -0.1483,0.42532 -0.11819,0.19328 -0.29761,0.34885 -0.51988,0.4377 l -9.47849,3.77494 c -0.31464,0.12592 -0.6708,0.0984 -0.96118,-0.0765 h -0.003 c -0.28948,-0.17436 -0.47963,-0.47229 -0.51416,-0.80563 l -0.77878,-7.53497 1.01545,-0.40462 0.15192,-0.0599 0.909,-0.36227 0.52295,4.97284 0.0703,0.67541 0.11213,1.08055 7.39646,-2.94658 -0.0538,-0.003 c -2.70079,-0.39968 -5.93289,-1.89875 -8.52713,-4.7439 l -1.83451,0.73123 c -0.11877,0.0257 -0.22868,0.0722 -0.32917,0.13177 l -7.6429404,3.04374 c -0.06914,0.0276 -0.140044,0.0467 -0.211878,0.0594 -0.01508,0.003 -0.03066,0.004 -0.04548,0.007 -0.02926,0.004 -0.05937,0.006 -0.08837,0.008 -0.01482,0.003 -0.02881,0.003 -0.04339,0.003 -0.02275,0 -0.04522,-0.003 -0.06771,-0.003 -0.01799,-0.003 -0.03577,-0.003 -0.05323,-0.005 -0.0098,0 -0.01984,-0.003 -0.02998,-0.003 -0.04069,-0.005 -0.08094,-0.014 -0.120385,-0.0238 -0.03212,-0.008 -0.06353,-0.018 -0.09406,-0.0284 -0.01931,-0.007 -0.03908,-0.0116 -0.05789,-0.0196 -0.0077,-0.003 -0.01799,-0.006 -0.0254,-0.01 -0.04323,-0.0185 -0.08554,-0.0403 -0.126074,-0.0646 -0.01535,-0.009 -0.0291,-0.0198 -0.04392,-0.029 -0.01349,-0.009 -0.0268,-0.0193 -0.04083,-0.0274 -0.0127,-0.009 -0.02461,-0.0183 -0.03617,-0.0274 -0.146341,-0.11737 -0.256831,-0.27075 -0.324538,-0.44339 -0.03514,-0.0901 -0.05972,-0.18484 -0.06924,-0.28319 l -0.07856,-0.7984 -0.909003,-9.27952 c -0.02355,-0.23651 0.03363,-0.46691 0.151951,-0.65993 0.118163,-0.19282 0.297603,-0.348 0.520382,-0.43666 l 9.4784854,-3.77548 c 0.11758,-0.0469 0.24038,-0.072 0.3638,-0.0765 z m 30.15216,1.62936 c 0.20659,-0.007 0.4136,0.0455 0.59531,0.15348 l 0.003,0.003 c 0.26202,0.15777 0.44191,0.41915 0.49919,0.71469 0,0.007 -8e-5,0.0109 0.003,0.0175 0.005,0.0284 0.01,0.0569 0.013,0.0863 l 0.77306,7.50755 -2.08512,0.83045 -0.6899,-6.70037 -0.003,-0.0172 -7.39284,2.94867 0.13539,0.0228 c 2.51859,0.69447 5.46087,1.98352 8.00468,4.35528 0.13325,0.12411 0.26593,0.25151 0.39791,0.38139 l 9.84591,-3.92173 c 0.31546,-0.12536 0.67315,-0.0968 0.96428,0.0785 0.29006,0.17468 0.47992,0.47535 0.51315,0.81079 l 0.98806,10.07796 c 0.007,0.0791 0.005,0.15756 -0.004,0.23407 l 0.003,-0.004 c -0.0185,0.1524 -0.0701,0.29681 -0.14882,0.42529 -0.11819,0.19328 -0.29708,0.34885 -0.51935,0.4377 l -9.47849,3.77494 c -0.31464,0.12589 -0.6708,0.0984 -0.96118,-0.0765 h -0.003 c -0.28945,-0.17436 -0.47966,-0.47228 -0.51419,-0.80563 l -0.77928,-7.53496 1.01545,-0.40463 0.15192,-0.0605 0.9095,-0.36174 0.52298,4.97285 0.0703,0.6754 0.11163,1.08056 7.39645,-2.94659 -0.0532,-0.003 c -2.70079,-0.39968 -5.93288,-1.89876 -8.52712,-4.7439 l -1.83452,0.73122 c -0.11877,0.0257 -0.22921,0.0722 -0.32969,0.13177 l -7.64245,3.04374 c -0.0691,0.0276 -0.14002,0.0468 -0.21185,0.0594 -0.0151,0.003 -0.0307,0.004 -0.0455,0.007 -0.0293,0.004 -0.0594,0.006 -0.0884,0.008 -0.0148,0.003 -0.0289,0.003 -0.0434,0.003 -0.0228,0 -0.0457,-0.003 -0.0682,-0.003 -0.018,-0.003 -0.0358,-0.003 -0.0532,-0.004 -0.01,0 -0.0193,-0.003 -0.0295,-0.003 -0.0407,-0.005 -0.0815,-0.014 -0.12092,-0.0238 -0.0321,-0.008 -0.0635,-0.0185 -0.0941,-0.0289 -0.0193,-0.007 -0.0386,-0.0111 -0.0574,-0.019 -0.008,-0.003 -0.0175,-0.006 -0.0249,-0.01 -0.0432,-0.0188 -0.0861,-0.0403 -0.1266,-0.0646 -0.0153,-0.009 -0.0291,-0.0198 -0.0439,-0.0289 -0.0135,-0.009 -0.0262,-0.0193 -0.0403,-0.0274 -0.0127,-0.009 -0.0246,-0.0185 -0.0362,-0.0279 -0.14634,-0.11737 -0.25733,-0.27022 -0.32504,-0.44286 -0.0351,-0.0901 -0.0597,-0.18484 -0.0692,-0.28318 l -0.0786,-0.79841 -0.90847,-9.27955 c -0.0236,-0.23651 0.0331,-0.46688 0.15142,-0.65989 0.11816,-0.19283 0.2981,-0.34801 0.52088,-0.43667 l 9.478,-3.77547 c 0.11808,-0.047 0.2419,-0.0723 0.36586,-0.0765 h -0.003 z m 88.043202,0.50747 c 1.98665,0 2.35154,0.0854 3.55743,0.83095 1.55908,0.9639 3.21196,3.02162 3.84524,4.78679 0.60463,1.68537 0.82656,6.49253 0.39016,8.45532 -0.18921,0.85084 -0.63969,2.13248 -1.00097,2.84839 -0.36132,0.71591 -0.79124,1.30173 -0.95552,1.30173 -0.17926,0 -0.21751,-0.19183 -0.0956,-0.47956 0.95911,-2.26298 1.05802,-2.8257 1.07177,-6.0973 0.0132,-3.12914 -0.0473,-3.5557 -0.69453,-4.93252 -0.94734,-2.01517 -1.8479,-3.02784 -3.48453,-3.91861 -1.85211,-1.00806 -3.42482,-1.18742 -5.39401,-0.61497 -1.7031,0.49512 -2.28566,0.26794 -1.7725,-0.69091 0.49808,-0.93064 2.19798,-1.48931 4.53306,-1.48931 z m -168.238313,14.29422 v 0 c 0.1547,-0.004 0.30991,0.034 0.44598,0.11263 l 0.003,0.003 c 0.19727,0.11549 0.33205,0.30612 0.37518,0.52245 2e-5,0.005 -8e-5,0.009 0.003,0.014 0.004,0.0209 0.008,0.0422 0.0103,0.0636 l 0.58187,5.49526 -1.56993,0.60772 -0.51985,-4.9046 -0.003,-0.013 -5.56606,2.15749 0.10284,0.0177 c 1.89638,0.50834 4.11165,1.45132 6.02702,3.18738 0.10031,0.0908 0.20037,0.18452 0.29972,0.27959 l 7.412465,-2.87063 c 0.237517,-0.0918 0.506889,-0.071 0.72607,0.0574 0.218413,0.12784 0.361394,0.34769 0.38653,0.59322 l 0.74414,7.37735 c 0.0056,0.0579 0.0032,0.11501 -0.0037,0.17103 l 0.0026,-0.003 c -0.01402,0.11155 -0.05239,0.21757 -0.111628,0.31163 -0.08901,0.14147 -0.223837,0.25535 -0.391186,0.32039 l -7.137031,2.76315 c -0.2369,0.0922 -0.50482,0.0717 -0.72347,-0.0563 h -0.003 c -0.21796,-0.12764 -0.36113,-0.34571 -0.38706,-0.58965 l -0.58653,-5.51543 0.76431,-0.2961 0.11419,-0.0439 0.68471,-0.26511 0.39378,3.64008 0.0532,0.49457 0.0842,0.79065 5.569165,-2.15699 -0.0403,-0.003 c -2.033561,-0.29255 -4.467465,-1.38959 -6.420805,-3.47213 l -1.38131,0.53536 c -0.0894,0.0188 -0.17238,0.0525 -0.24805,0.0961 l -5.75416,2.22829 c -0.0521,0.0201 -0.10562,0.0341 -0.1597,0.0434 -0.0114,0.003 -0.023,0.003 -0.0341,0.006 -0.022,0.003 -0.0447,0.003 -0.0666,0.005 -0.0114,0.003 -0.0217,0.003 -0.0326,0.003 -0.0172,0 -0.0342,-0.003 -0.0511,-0.003 -0.0135,0 -0.0271,8e-5 -0.0403,-0.003 -0.007,0 -0.0145,-0.003 -0.0222,-0.003 -0.0306,-0.004 -0.0612,-0.009 -0.0909,-0.0164 -0.0241,-0.006 -0.0478,-0.0135 -0.0708,-0.0212 -0.0146,-0.005 -0.0294,-0.008 -0.0434,-0.014 -0.006,-0.003 -0.013,-0.005 -0.0185,-0.008 -0.0325,-0.0138 -0.064,-0.0293 -0.0946,-0.047 -0.0116,-0.007 -0.023,-0.014 -0.0341,-0.0206 -0.0103,-0.007 -0.0193,-0.014 -0.03,-0.0201 -0.009,-0.007 -0.0185,-0.0132 -0.0274,-0.0201 -0.11019,-0.0859 -0.19343,-0.19818 -0.24442,-0.32454 -0.0265,-0.0659 -0.0451,-0.13523 -0.0522,-0.20722 l -0.0594,-0.58447 -0.68418,-6.79233 c -0.0177,-0.17314 0.0251,-0.34139 0.11419,-0.48268 0.089,-0.14115 0.22448,-0.25498 0.39222,-0.31985 l 7.136,-2.76368 c 0.0889,-0.0344 0.18261,-0.0526 0.27596,-0.0558 z m 76.933801,9.91722 h 0.003 c 0.20609,-0.006 0.41302,0.0458 0.59428,0.15348 l 0.003,0.003 c 0.26202,0.15777 0.44136,0.41862 0.49866,0.71416 0,0.007 -5e-5,0.0114 0.003,0.018 0.005,0.0284 0.0101,0.057 0.0135,0.0863 l 0.77259,7.50756 -2.08516,0.83045 -0.68987,-6.70037 -0.003,-0.0175 -7.39284,2.94865 0.13592,0.0227 c 2.51859,0.69448 5.46034,1.98356 8.00416,4.35531 0.13324,0.12411 0.26648,0.25148 0.39843,0.38137 l 9.84591,-3.92121 c 0.31547,-0.12536 0.67265,-0.0973 0.96378,0.078 0.29006,0.17468 0.48043,0.47536 0.51366,0.81079 l 0.98753,10.07796 c 0.007,0.0791 0.005,0.15756 -0.004,0.23407 l 0.003,-0.003 c -0.0185,0.1524 -0.0696,0.29684 -0.1483,0.42532 -0.11819,0.19328 -0.2976,0.34885 -0.51988,0.43768 l -9.47849,3.77496 c -0.31464,0.12592 -0.67027,0.0984 -0.96065,-0.0765 h -0.003 c -0.28948,-0.17436 -0.47963,-0.4723 -0.51416,-0.80565 l -0.77877,-7.53494 1.01544,-0.40463 0.15192,-0.0605 0.90901,-0.36173 0.52294,4.97281 0.0703,0.67543 0.11214,1.08056 7.39645,-2.94661 -0.0538,-0.003 c -2.70079,-0.39968 -5.93289,-1.89876 -8.52713,-4.7439 l -1.83451,0.73123 c -0.11877,0.0257 -0.22868,0.0722 -0.32917,0.13176 l -7.64295,3.04374 c -0.0691,0.0276 -0.13956,0.0467 -0.21137,0.0594 -0.0151,0.003 -0.0312,0.004 -0.046,0.007 -0.0293,0.004 -0.0594,0.006 -0.0884,0.008 -0.0151,0.003 -0.0288,0.003 -0.0434,0.003 -0.0227,0 -0.0452,-0.003 -0.0677,-0.003 -0.018,-0.003 -0.0358,-0.003 -0.0532,-0.005 -0.01,0 -0.0198,-0.003 -0.0299,-0.003 -0.0407,-0.005 -0.081,-0.0145 -0.12041,-0.0243 -0.0321,-0.008 -0.0635,-0.018 -0.0941,-0.0284 -0.0193,-0.007 -0.0391,-0.0111 -0.0579,-0.019 -0.008,-0.003 -0.0175,-0.006 -0.0249,-0.0103 -0.0432,-0.0185 -0.0856,-0.0397 -0.12608,-0.0641 -0.0153,-0.009 -0.0296,-0.0198 -0.0444,-0.029 -0.0135,-0.009 -0.0262,-0.0193 -0.0403,-0.0274 -0.0127,-0.009 -0.0241,-0.0185 -0.0356,-0.0279 -0.14634,-0.11737 -0.25733,-0.27022 -0.32504,-0.44286 -0.0351,-0.0901 -0.0597,-0.18484 -0.0693,-0.28318 l -0.0785,-0.79841 -0.909,-9.27955 c -0.0236,-0.23651 0.0336,-0.46688 0.15192,-0.65989 0.11817,-0.19283 0.29761,-0.34801 0.52039,-0.43667 l 9.47799,-3.77548 c 0.1176,-0.0468 0.24087,-0.0721 0.3643,-0.0765 z m 17.44237,33.26103969 c -1.57382,-0.0193 -3.02458,0.24511 -5.6038,0.90485001 -3.02268,0.77319 -8.45544,2.80948 -8.32715,3.12126 0.0455,0.11039 1.37753,1.32167 2.96003,2.69129 3.20987,2.7780703 6.28605,5.8677203 8.56538,8.6031103 1.95977,2.35194 4.37719,5.93752 4.2535,6.30865 -0.053,0.15912 -0.7038,-0.43326 -1.44593,-1.3162 -4.3013,-5.11738 -12.51005,-12.5699003 -16.69303,-15.1551503 -1.01227,-0.6256 -1.17105,-0.64442 -3.07942,-0.36949 -1.63486,0.23553 -2.35826,0.51406 -3.85712,1.48675 -2.05251,1.33194 -4.7361,3.8529903 -6.05854,5.6916403 -1.26079,1.75302 -1.11826,3.41132 0.30541,3.5574 0.11724,0.0122 0.95801,1.12445 1.86862,2.47219 3.87649,5.73719 10.98866,14.03829 17.40824,20.31814 5.55967,5.43867 8.04225,7.0725 12.41785,8.17314 2.74355,0.69014 4.52096,0.72684 7.76026,0.16021 4.84634,-0.84775 7.69297,-2.01727 10.61588,-4.3615 3.54737,-2.84509 4.4551,-3.4163 6.52674,-4.1062 2.75,-0.91583 4.01989,-0.89493 6.21821,0.10181 7.97483,3.61598 13.777652,11.92911 16.009882,22.93554 4.43357,21.86064 -5.44226,47.698367 -30.361442,79.432887 -7.90839,10.07131 -32.85225,37.91553 -37.20137,41.52717 -1.18771,0.98629 -3.1576,2.6148 -4.37751,3.61889 -1.21991,1.00409 -2.64798,2.30241 -3.17397,2.88459 l -0.95652,1.05834 -0.18243,14.8921 c -0.44924,36.66704 0.0167,49.94537 2.42829,69.19682 1.89336,15.11371 4.15954,25.22048 6.86936,30.6374 0.51308,1.02563 0.93274,2.1472 0.93274,2.49235 0,0.79835 0.72797,1.45534 1.7813,1.60766 4.35587,0.62992 19.9612,-1.16083 42.61136,-4.88963 23.697462,-3.90115 38.791682,-7.58127 47.752642,-11.6427 1.69373,-0.76766 3.47707,-1.51448 3.96306,-1.65933 1.16893,-0.34843 2.92857,-2.10902 6.26525,-6.26989 9.09765,-11.34488 14.68644,-20.10492 21.46639,-33.64706 11.38875,-22.74753 18.17822,-44.69516 21.39921,-69.17407 0.31178,-2.36934 0.93633,-6.31545 1.38803,-8.76898 2.06399,-11.21179 2.86081,-20.57373 2.83911,-33.37107 -0.0169,-10.09716 -0.2931,-14.22876 -1.51,-22.6074 -3.03731,-20.912057 -10.93118,-43.528537 -17.63509,-50.526637 -2.99183,-3.12308 -6.58003,-5.18424 -12.21475,-7.01558 -7.80013,-2.53511 -14.46925,-6.61133 -22.60741,-13.81829 -3.88612,-3.44143 -6.35889,-4.1575 -10.61228,-3.07268 -2.87837,0.73411 -10.31091,1.45489 -12.89534,1.25057 -1.08733,-0.086 -3.25054,-0.54136 -4.80695,-1.01234 -3.31605,-1.00341 -4.93596,-2.2074 -5.97585,-4.44056 -0.79137,-1.69947 -0.86775,-4.12372 -0.17571,-5.5821 0.7244,-1.52659 3.93139,-4.73268 6.66213,-6.66004 1.35091,-0.95348 2.45618,-1.88703 2.45618,-2.07481 0,-0.18775 -0.28485,-0.52789 -0.63304,-0.75602 -0.58582,-0.38386 -0.79529,-0.34655 -2.80861,0.50022 -1.19666,0.50329 -2.7309,1.17497 -3.4091,1.49294 -2.1068,0.98777 -6.920922,2.98725 -8.357612,3.4711 -4.29088,1.44505 -8.9068,1.84928 -12.51915,1.09656 -5.6515,-1.17761 -8.2586,-2.79683 -10.07018,-6.25491 -1.31733,-2.51468 -1.02891,-5.99284 0.79322,-9.56323 1.04529,-2.04819 1.06254,-2.12402 0.47906,-2.13064 -3.04702,-0.0342 -4.82669,-0.21518 -5.43584,-0.55292 -2.51177,-1.39258 -4.8451,-3.3184103 -5.01367,-4.1377403 -0.0421,-0.20471 -0.32803,-0.92684 -0.63508,-1.60507 -0.30702,-0.67821 -0.63868,-1.8025 -0.73692,-2.49804 -0.26863,-1.90179 -0.52541,-2.09335 -3.28662,-2.45358001 -0.88361,-0.11528 -1.62452,-0.18296 -2.3399,-0.19172 z M 262.77305,1.4703127 c 0.019,0 0.0403,0 0.0635,0.003 0.11176,0.0172 0.2721,0.0903 0.47699,0.22016 0.29737,0.18849 0.28914,0.26122 -0.0455,0.38963 -0.22624,0.0868 -0.47963,-0.0196 -0.56274,-0.23617 -0.0927,-0.24149 -0.0654,-0.36796 0.0677,-0.37671 z m -297.419593,12.9997203 -4.52117,2.09188 c -2.48682,1.15067 -7.41976,3.29229 -10.96158,4.75887 -3.54182,1.46659 -8.22743,3.44588 -10.41281,4.3987 -11.95266,5.21123 -17.98759,7.41421 -32.94269,12.0251 -4.12872,1.27296 -8.071957,3.2634 -13.332007,6.73034 -8.86328,5.84187 -14.34698,8.60817 -28.43599,14.3428 -6.69843,2.72645 -11.73371,5.70629 -19.16628,11.34298 -16.24947,12.32315 -29.66564,26.27468 -46.31862,48.166037 -3.32489,4.37073 -7.83434,10.47435 -10.02057,13.56403 -2.18625,3.08967 -5.69933,7.97829 -7.80727,10.86342 -2.10793,2.88515 -5.0392,7.1103 -6.51383,9.38911 -2.39241,3.69699 -2.66189,4.23862 -2.50216,5.03018 0.0985,0.48789 0.28646,1.68891 0.41806,2.66856 0.13161,0.97964 0.67641,4.30884 1.21026,7.39851 0.53385,3.08968 1.2247,7.46736 1.53583,9.72809 3.14986,22.88834 9.96302,44.57269 18.10173,57.6125 6.33661,10.15248 13.53135,16.65761 26.23251,23.72 7.3075,4.06331 13.66232,6.23347 19.9099,6.79907 1.82041,0.16479 3.67406,0.46268 4.11914,0.66197 1.51998,0.6804 2.22784,-0.0309 4.52117,-4.54544 1.75591,-3.45654 3.00027,-6.49912 4.81261,-11.76777 1.47971,-4.30167 4.89784,-13.9256 7.7375,-21.78523 5.59388,-15.48281 10.93928,-31.21599 13.91854,-40.967 2.07367,-6.78709 4.22871,-11.95049 10.09862,-24.19387 0.99634,-2.07817 1.98583,-4.19539 2.19882,-4.70514 l 0.38706,-0.92657 -2.33733,-2.55696 c -3.74237,-4.09284 -7.77177,-8.90055 -10.15132,-12.11294 -2.17707,-2.93904 -6.09883,-9.21335 -6.09883,-9.75704 0,-0.64651 0.63092,-0.14015 2.8117,2.25568 13.60979,14.95205 21.12388,22.69165 26.34464,27.13479 2.042127,1.73797 8.483727,5.86611 11.570887,7.41556 3.1382,1.57509 8.78406,2.87686 19.22156,4.43073 2.60286,0.38751 8.58379,1.39153 13.29065,2.23139 14.31026,2.5535 14.06073,2.53183 32.809366,2.82774 9.118283,0.14391 19.4148336,0.40486 22.8812986,0.57981 8.909286,0.44963 16.4167864,0.19978 20.1703564,-0.67128 2.93158,-0.68032 5.94722,-1.97188 7.8455,-3.35999 0.56708,-0.41463 1.70942,-1.24995 2.53836,-1.85624 4.01143,-2.93375 6.00623,-4.84542 6.84506,-6.56031 1.24003,-2.53514 1.46095,-4.17187 0.95599,-7.08224 -0.23214,-1.33792 -0.548,-2.70838 -0.70175,-3.04583 -0.27297,-0.59907 -2.69444,-1.84243 -5.45394,-2.80035 -2.72727,-0.9467 -8.23735,-1.59171 -17.56894,-2.05671 -5.3114804,-0.26469 -12.08642943,-0.80817 -16.8227614,-1.34927 -1.205733,-0.13777 -4.658599,-0.45127 -7.6729166,-0.6966 -3.014292,-0.24534 -7.145152,-0.63978 -9.179798,-0.87643 -2.034673,-0.23667 -5.549133,-0.48699 -7.809865,-0.55655 -2.260733,-0.0696 -4.227619,-0.23852 -4.370785,-0.37518 -0.143192,-0.13663 -0.513212,-0.2581 -0.822166,-0.26974 -0.396899,-0.0154 -0.440819,-0.0666 -0.150389,-0.17468 0.22606,-0.0841 0.647039,-0.39984 0.935858,-0.70125 0.490431,-0.51176 0.762158,-0.53687 4.110355,-0.37931 1.971913,0.0928 6.791325,0.30195 10.709936,0.46459 6.948276,0.28834 10.6336036,0.50908 27.2660316,1.63142 4.4461104,0.30001 12.5230204,0.66751 17.9487704,0.817 5.42576,0.14944 10.59745,0.40778 11.49235,0.57412 2.74277,0.5098 6.37868,-0.27961 7.70443,-1.67275 0.44394,-0.46648 1.22515,-1.2405 1.73582,-1.72032 0.51067,-0.47982 1.28138,-1.61234 1.71254,-2.51663 1.50212,-3.1504 0.8931,-7.27867 -1.64227,-11.13214 -2.51735,-3.82606 -5.82686,-6.94938 -10.25829,-9.68158 -3.31637,-2.04467 -2.20425,-2.67517 1.52498,-0.86455 2.14585,1.04188 5.83658,3.8449 8.73538,6.63371 2.08439,2.00533 2.92809,2.21732 4.28397,1.07641 1.11115,-0.93499 2.70709,-4.08131 3.35484,-6.61406 0.9852,-3.85204 0.63492,-6.92814 -1.25471,-11.01793 -0.99242,-2.14797 -1.87603,-3.33883 -2.47737,-3.33883 -0.18725,0 -0.38312,-0.12722 -0.43511,-0.28319 -0.052,-0.15597 -0.61981,-0.46482 -1.26246,-0.68625 -1.10638,-0.38118 -1.23751,-0.36795 -2.4634,0.24855 -0.71202,0.35809 -2.00044,0.85392 -2.86287,1.10228 -1.43658,0.4137 -8.01294,1.76006 -10.85208,2.22155 -2.6562,0.43175 -8.96477,3.55245 -11.62873,5.75212 l -1.70688,1.4092 -2.34198,-0.75343 c -2.92167,-0.93953 -6.06227,-1.49048 -11.5052304,-2.01848 -2.332853,-0.2263 -4.981147,-0.53176 -5.88544003,-0.67903 -0.904293,-0.14729 -4.91196297,-0.5802 -8.90590197,-0.9617 -8.2357116,-0.78669 -8.4951086,-0.82886 -8.4951086,-1.37822 0,-0.22032 0.277416,-0.4567 0.616506,-0.52554 0.339116,-0.0688 6.3505816,-0.1992 13.3588646,-0.2894 12.48437,-0.16074 14.9164704,-0.30636 22.8818304,-1.37253 1.80858,-0.24206 5.19933,-0.68315 7.53544,-0.98028 5.11336,-0.65037 6.51817,-0.8817 10.93992,-1.80144 4.01143,-0.83439 5.00078,-1.22698 7.95869,-3.15846 1.87955,-1.22735 2.32235,-1.66569 2.88407,-2.85306 0.7993,-1.6896 1.30574,-4.602607 1.07899,-6.207887 -0.48082,-3.40434 -2.26912,-6.83652 -4.65862,-8.9421 -1.83534,-1.61726 -3.34563,-2.46343 -5.97742,-3.34811 -2.16672,-0.72835 -2.20442,-0.7564 -1.48259,-1.08675 1.0278,-0.47041 3.7048,0.0758 5.7862,1.18028 2.20798,1.1716 4.76681,4.00936 6.30349,6.99132 1.84819,3.5864 2.2066,5.08982 1.97921,8.29715 -0.10768,1.519207 -0.0829,2.733507 0.0579,2.820507 0.67085,0.4146 9.4343,-6.756447 10.84379,-8.873357 0.34809,-0.52282 1.30273,-3.29314 2.12132,-6.15675 l 1.48829,-5.20689 0.13695,-5.41518 c 0.0941,-3.71845 0.0469,-5.38114 -0.15039,-5.3051 -4.64476,1.79027 -14.59905,4.11175 -24.23832,5.65237 -2.72688,0.43585 -15.60717,1.52416 -21.1,1.78282 -1.88394,0.0887 -5.02838,0.27995 -6.9877,0.42531 -1.95929,0.14534 -5.7201104,0.3823 -8.3576304,0.52658 -2.637526,0.1443 -6.50174003,0.39584 -8.587053,0.55861 -4.096253,0.31972 -4.566656,0.21961 -4.566656,-0.97202 0,-0.80966 1.151732,-1.22518 3.397727,-1.22783 1.69082,-0.003 8.023436,-0.52462 21.2648524,-1.75649 3.99397,-0.37155 9.54331,-0.81388 12.33154,-0.98287 15.32343,-0.92872 31.36369,-4.13507 38.34599,-7.66467 1.86164,-0.94107 4.42389,-2.81487 5.94641,-4.34855 2.18125,-2.19726 3.49279,-7.53685 2.87372,-11.69903 -0.48043,-3.23038 -0.47877,-3.22906 -2.69182,-2.13167 -3.63138,1.80065 -9.42311,2.46195 -13.9609,1.59372 -6.09354,-1.16589 -10.75801,-3.58334 -16.31683,-8.45582 l -2.38178,-2.08772 -2.13992,0.25423 c -1.17665,0.13973 -4.54378,0.39246 -7.48274,0.56171 -2.93894,0.16928 -7.00821,0.47911 -9.04288,0.68885 -9.39842,0.96893 -25.5480594,1.27555 -26.3229444,0.49972 -0.61386,-0.61463 0.720699,-0.89207 5.664253,-1.17822 5.088841,-0.29456 8.7858314,-0.60201 15.3148514,-1.27331 5.58562,-0.57433 15.14613,-1.40372 18.70273,-1.62263 1.69554,-0.10438 3.08249,-0.28914 3.08249,-0.41032 0,-0.12118 -1.63703,-2.1731 -3.63803,-4.55994 -2.00094,-2.38683 -4.57544,-5.57302 -5.72109,-7.08017 -3.31102,-4.3558 -2.43498,-3.95882 -10.01231,-4.53874 -3.58812,-0.27461 -9.00107,-0.81449 -12.0287204,-1.19994 -7.85214803,-0.99967 -12.38491,-0.91871 -15.532393,0.277 -2.379504,0.90395 -4.0108456,0.48463 -10.7254406,-2.7554 -5.81914,-2.80797 -7.416165,-3.22006 -12.63023,-3.26025 z m 97.155331,11.36417 v 0 c 0.1547,-0.004 0.3099,0.0335 0.44598,0.11216 l 0.003,0.003 c 0.19727,0.11549 0.33202,0.30716 0.37518,0.5235 0,0.005 -1.3e-4,0.009 0.003,0.0135 0.004,0.0209 0.008,0.0416 0.0103,0.063 l 0.58187,5.49527 -1.56993,0.60772 -0.51986,-4.90408 -0.003,-0.014 -5.56606,2.15853 0.10231,0.0164 c 1.89638,0.50834 4.11165,1.45187 6.02702,3.18793 0.10031,0.0908 0.19987,0.18397 0.29922,0.27903 l 7.41349,-2.87062 c 0.23752,-0.0918 0.50687,-0.0705 0.72605,0.0579 0.21841,0.12785 0.36142,0.34822 0.38655,0.59375 l 0.74362,7.37682 c 0.006,0.0579 0.003,0.11504 -0.004,0.17106 l 0.003,-0.003 c -0.014,0.11154 -0.0524,0.21703 -0.11163,0.31109 -0.089,0.14148 -0.22384,0.25535 -0.39119,0.32039 l -7.13703,2.76315 c -0.23691,0.0922 -0.50482,0.0722 -0.72347,-0.0558 h -0.003 c -0.21797,-0.12761 -0.36113,-0.34563 -0.38706,-0.58963 l -0.58653,-5.51542 0.7643,-0.2961 0.11419,-0.0439 0.68472,-0.26561 0.39378,3.64008 0.0527,0.49453 0.0848,0.79066 5.56916,-2.15646 -0.0403,-0.003 c -2.03357,-0.29259 -4.46747,-1.38963 -6.42081,-3.47217 l -1.38131,0.53486 c -0.0894,0.0188 -0.17237,0.053 -0.24804,0.0966 l -5.75416,2.22776 c -0.0521,0.0201 -0.10562,0.0342 -0.1597,0.0434 -0.0114,0.003 -0.023,0.003 -0.0341,0.005 -0.022,0.003 -0.0447,0.004 -0.0666,0.006 -0.0114,0.003 -0.0217,0.003 -0.0326,0.003 -0.0172,0 -0.0342,-0.003 -0.0511,-0.003 -0.0135,0 -0.0271,8e-5 -0.0403,-0.003 -0.007,0 -0.0151,-0.003 -0.0228,-0.003 -0.0306,-0.004 -0.0607,-0.01 -0.0904,-0.0169 -0.0241,-0.006 -0.0478,-0.0135 -0.0708,-0.0212 -0.0146,-0.005 -0.0294,-0.008 -0.0434,-0.014 -0.006,-0.003 -0.0124,-0.004 -0.018,-0.007 -0.0326,-0.0138 -0.0646,-0.0293 -0.0951,-0.047 -0.0116,-0.007 -0.023,-0.0145 -0.0341,-0.0212 -0.0103,-0.007 -0.0193,-0.014 -0.03,-0.0201 -0.009,-0.007 -0.0185,-0.0138 -0.0274,-0.0206 -0.1102,-0.0859 -0.19396,-0.19764 -0.24495,-0.324 -0.0265,-0.0659 -0.0445,-0.13523 -0.0517,-0.20723 l -0.0594,-0.58446 -0.68418,-6.79236 c -0.0177,-0.17314 0.0251,-0.34187 0.11419,-0.48315 0.0889,-0.14116 0.22447,-0.25501 0.39222,-0.31988 l 7.13653,-2.76315 c 0.0889,-0.0344 0.18208,-0.0526 0.27543,-0.0558 z m -93.531251,19.45876 c 1.254151,0.0281 2.267558,0.51506 2.267558,1.37768 0,0.51269 -0.305858,0.79264 -2.192099,2.00351 -1.207029,0.77486 -2.5849,3.04408 -3.35743,5.5299 -0.840269,2.70372 -0.821139,6.76113 0.04239,8.97567 0.645636,1.65584 1.406736,2.40522 3.520704,3.46697 1.338951,0.67246 1.454706,1.02486 0.46146,1.4025 -1.026557,0.39031 -3.952028,0.30692 -4.985233,-0.14211 -3.09795,-1.34641 -4.99917,-4.98665 -4.99917,-9.57254 0,-4.22434 3.05621,-10.21454 6.242004,-12.23492 0.903473,-0.57298 2.024354,-0.82854 2.99982,-0.80666 z m 161.960673,4.08191 v 0 c 0.21638,-0.0119 0.43514,0.0384 0.62789,0.14936 l 9.25885,5.34387 c 0.0723,0.0424 0.13896,0.0917 0.19897,0.14676 0.11858,0.10893 0.21021,0.24051 0.27233,0.3855 0.0941,0.21923 0.11938,0.4672 0.0605,0.71107 l -2.52335,10.38852 c -0.0832,0.34525 -0.32375,0.631 -0.65061,0.77099 l -0.003,0.003 c -0.32587,0.13954 -0.69768,0.11835 -1.0051,-0.0569 l -6.94688,-3.96046 0.26977,-1.11311 0.0408,-0.16642 0.24183,-0.99682 4.59042,2.60708 0.62375,0.35448 0.99579,0.56793 1.96837,-8.10699 -0.0346,0.0439 c -1.98639,2.0547 -5.24042,3.88755 -9.26299,4.35065 l -0.48784,2.01123 c -0.0501,0.11697 -0.0778,0.23857 -0.0878,0.36071 l -2.03348,8.37676 c -0.0183,0.0758 -0.0453,0.14801 -0.078,0.21703 -0.007,0.0143 -0.0148,0.0286 -0.0217,0.0429 -0.0145,0.0273 -0.0314,0.0544 -0.047,0.0806 -0.007,0.0143 -0.0148,0.0257 -0.0238,0.0382 -0.0138,0.0193 -0.0297,0.0365 -0.0434,0.0558 -0.0124,0.0143 -0.0251,0.0286 -0.0372,0.0429 -0.005,0.01 -0.0148,0.0156 -0.0206,0.0243 -0.0293,0.0314 -0.0617,0.0597 -0.0935,0.0878 -0.0265,0.0225 -0.054,0.0429 -0.0816,0.0625 -0.0175,0.0127 -0.0334,0.0265 -0.0517,0.0372 -0.007,0.005 -0.0151,0.0119 -0.0233,0.0156 -0.0423,0.0254 -0.0867,0.0486 -0.13229,0.0682 -0.0175,0.007 -0.0353,0.0119 -0.0522,0.019 -0.0159,0.006 -0.0324,0.0106 -0.048,0.0172 -0.0154,0.006 -0.0304,0.01 -0.0455,0.014 -0.18984,0.0524 -0.38875,0.0534 -0.57827,0.005 -0.0988,-0.0254 -0.19545,-0.063 -0.28575,-0.11523 l -0.7333,-0.42272 -8.52506,-4.92165 c -0.21812,-0.12462 -0.38158,-0.31353 -0.47543,-0.53279 -0.0938,-0.21895 -0.11829,-0.468 -0.0589,-0.7121 l 2.52347,-10.38847 c 0.0314,-0.12941 0.0854,-0.25045 0.15711,-0.35864 v -0.003 c 0.11993,-0.18005 0.29125,-0.32443 0.49453,-0.41288 h 0.004 c 0.29496,-0.12629 0.62746,-0.11867 0.91623,0.014 0.007,0.003 0.0111,0.006 0.018,0.008 0.0272,0.0135 0.0548,0.0268 0.0822,0.0419 l 6.91999,3.94911 -0.55552,2.28563 -6.17638,-3.52433 -0.0156,-0.009 -1.96474,8.10493 0.10178,-0.10128 c 2.12879,-1.71865 5.02674,-3.43263 8.6119,-4.1434 0.18769,-0.0372 0.37711,-0.0728 0.56896,-0.10544 l 2.62154,-10.79159 c 0.0842,-0.34559 0.32597,-0.63224 0.65371,-0.77255 0.12245,-0.0524 0.25154,-0.0818 0.38137,-0.0889 z m -57.335522,18.2082 c -0.37018,-0.022 -2.17281,1.02532 -3.29542,1.93374 l -0.8206,0.66405 -0.16433,5.57588 c -0.2353,7.9842 -1.07815,13.45361 -2.5027,16.24602 -1.36088,2.66753 -4.23778,5.69537 -9.39271,9.885207 -1.80858,1.47 -3.33893,2.71743 -3.40082,2.77191 -0.0619,0.0544 0.10176,0.33528 0.36328,0.62425 0.69969,0.77314 2.41905,4.9194 3.53364,8.52094 2.75415,8.89936 5.5485,19.48211 6.47607,24.52563 0.16632,0.90429 0.36751,3.61709 0.44702,6.02856 0.0795,2.41143 0.19722,4.54128 0.26148,4.73305 0.17923,0.53477 0.85598,-0.0138 2.73265,-2.21486 3.12253,-3.66236 4.02494,-4.90939 12.13157,-16.76744 3.35213,-4.90339 5.01401,-7.63894 6.5324,-10.75076 1.12009,-2.29558 2.10577,-4.51831 2.19006,-4.93977 0.0916,-0.4577 -0.0655,-1.31514 -0.39015,-2.12905 -0.2989,-0.74943 -0.98986,-2.47226 -1.53533,-3.8287 -0.54546,-1.35644 -2.15254,-4.77303 -3.57134,-7.59233 -5.09117,-10.116577 -8.42719,-21.113427 -9.14882,-30.159907 -0.12946,-1.62284 -0.3057,-3.0213 -0.39169,-3.10729 -0.0114,-0.0114 -0.0296,-0.0177 -0.0543,-0.019 z m 87.749672,0.26355 c 0.21333,0.006 0.43175,0.0682 0.62735,0.1819 l 9.39583,5.4741 c 0.0735,0.0433 0.14105,0.0923 0.20307,0.14571 0.12221,0.10615 0.21878,0.23053 0.28681,0.36433 0.10308,0.20227 0.13912,0.42495 0.092,0.63717 l -2.02054,9.03975 c -0.0665,0.30044 -0.29096,0.53618 -0.60772,0.63511 h -0.003 c -0.3157,0.0986 -0.68445,0.0505 -0.99631,-0.1292 l -7.04763,-4.06384 0.21601,-0.96893 0.0331,-0.14467 0.19378,-0.86715 4.65606,2.67631 0.63251,0.36381 1.01026,0.58293 1.57615,-7.05488 -0.032,0.0362 c -1.86981,1.67193 -5.00261,3.04773 -8.95761,3.14555 l -0.39068,1.75027 c -0.0441,0.10012 -0.066,0.20587 -0.0703,0.31369 l -1.62802,7.28948 c -0.0148,0.066 -0.038,0.12822 -0.0672,0.18707 -0.006,0.0122 -0.0127,0.0249 -0.0196,0.0367 -0.013,0.0233 -0.0283,0.046 -0.0429,0.0677 -0.007,0.0122 -0.014,0.0217 -0.0222,0.032 -0.0127,0.0159 -0.0271,0.0309 -0.0398,0.047 -0.0109,0.0124 -0.0225,0.0241 -0.0341,0.0351 -0.005,0.007 -0.0148,0.0116 -0.0201,0.019 -0.0275,0.0257 -0.0576,0.0494 -0.0883,0.0713 -0.0254,0.0175 -0.0524,0.0332 -0.0786,0.0486 -0.0167,0.01 -0.0316,0.0209 -0.0491,0.0294 -0.009,0.003 -0.0138,0.0109 -0.0228,0.0109 -0.0406,0.0193 -0.0837,0.0361 -0.12764,0.0506 -0.0167,0.005 -0.0342,0.008 -0.0506,0.0135 -0.0154,0.004 -0.0317,0.007 -0.0465,0.0114 -0.0151,0.003 -0.0296,0.006 -0.0445,0.008 -0.18526,0.0319 -0.38198,0.0169 -0.57153,-0.0408 -0.0988,-0.0302 -0.19568,-0.0705 -0.28733,-0.12402 l -0.74414,-0.43357 -8.65114,-5.04105 c -0.22074,-0.12824 -0.39055,-0.3094 -0.49353,-0.51157 -0.10287,-0.20204 -0.13798,-0.42524 -0.0904,-0.6377 l 2.02005,-9.03976 c 0.0251,-0.1126 0.0725,-0.21587 0.13848,-0.30644 h 0.003 c 0.11028,-0.15081 0.27276,-0.26593 0.46974,-0.32866 l 0.004,0.003 c 0.28578,-0.0893 0.61492,-0.0567 0.90638,0.0837 0.007,0.003 0.0114,0.007 0.0185,0.009 0.0274,0.0143 0.0549,0.0281 0.0827,0.0434 l 7.02027,4.05143 -0.44495,1.98903 -6.26525,-3.61582 -0.0159,-0.009 -1.572,7.05281 0.0956,-0.0822 c 2.02597,-1.36202 4.81214,-2.66009 8.32353,-3.0122 0.18378,-0.0185 0.36989,-0.0343 0.55811,-0.0486 l 2.09804,-9.39168 c 0.0675,-0.30072 0.29432,-0.53594 0.61185,-0.6351 0.11867,-0.0372 0.24458,-0.0533 0.37259,-0.0496 z m -44.01437,11.17452 0.004,0.004 c 0.3509,0.006 0.71073,0.15478 0.99322,0.40413 0.006,0.006 0.0103,0.0106 0.0175,0.0156 0.0262,0.0246 0.0534,0.0485 0.0796,0.0744 l 6.58514,6.70967 -1.14827,1.93786 -5.87819,-5.98826 -0.0159,-0.0156 -4.06747,6.87245 0.13489,-0.0527 c 2.72494,-0.72692 6.28465,-1.12213 10.35338,-0.26871 0.21302,0.0445 0.42839,0.0923 0.64492,0.14314 l 5.42137,-9.14932 c 0.17396,-0.29287 0.5057,-0.46162 0.89556,-0.45527 0.38851,0.006 0.78949,0.18682 1.08262,0.48731 l 8.7979,9.0346 c 0.0687,0.0711 0.1284,0.14702 0.18087,0.22479 0.10306,0.15427 0.17216,0.31765 0.20516,0.48215 0.0502,0.24873 0.0177,0.49593 -0.10438,0.70278 l -5.21933,8.80671 c -0.17277,0.29292 -0.50202,0.46265 -0.8909,0.4563 h -0.003 c -0.38765,-0.006 -0.78738,-0.18433 -1.08003,-0.48215 l -6.61252,-6.7324 0.55864,-0.94411 0.0842,-0.14111 0.50075,-0.84489 4.37131,4.43849 0.59428,0.60357 0.94774,0.96583 4.07263,-6.87398 -0.0486,0.0279 c -2.65005,1.10742 -6.62552,1.46209 -11.11097,0.18656 l -1.00976,1.70532 c -0.0824,0.0899 -0.14144,0.19452 -0.18137,0.30644 l -4.20801,7.10189 c -0.038,0.0643 -0.0844,0.12137 -0.13642,0.17312 -0.0109,0.0103 -0.022,0.0212 -0.0336,0.0315 -0.0222,0.0198 -0.0467,0.0386 -0.0703,0.0563 -0.0114,0.0106 -0.023,0.0185 -0.0357,0.0265 -0.0196,0.0124 -0.0403,0.0233 -0.0599,0.0357 -0.0161,0.009 -0.0335,0.0172 -0.0501,0.0249 -0.008,0.006 -0.0204,0.008 -0.0284,0.014 -0.0393,0.0175 -0.0813,0.0315 -0.123,0.0439 -0.0343,0.01 -0.0693,0.0172 -0.10385,0.0243 -0.022,0.005 -0.0426,0.0109 -0.0651,0.0135 -0.0103,-0.003 -0.019,0.006 -0.0295,0.004 -0.052,0.006 -0.10544,0.009 -0.15968,0.009 -0.0204,0 -0.0413,-0.004 -0.0615,-0.004 -0.0188,0 -0.0381,-0.005 -0.0563,-0.005 -0.018,-0.003 -0.0352,-0.003 -0.0527,-0.006 -0.21899,-0.031 -0.43632,-0.11554 -0.63098,-0.24236 -0.10136,-0.0662 -0.19687,-0.14277 -0.28265,-0.23101 l -0.69713,-0.71519 -8.09977,-8.3194 c -0.20679,-0.21188 -0.33901,-0.46143 -0.38912,-0.71004 -0.0498,-0.24833 -0.0172,-0.49583 0.10544,-0.70278 l 5.21876,-8.80663 c 0.065,-0.10972 0.15195,-0.20211 0.2558,-0.2744 h 0.003 c 0.17327,-0.12025 0.39394,-0.18505 0.63614,-0.1824 z m -158.289053,4.6545 c 0.27432,-0.003 0.54888,0.0296 0.82217,0.0982 1.03145,0.25887 0.84063,0.85804 -0.77565,2.43602 -1.15972,1.13226 -1.58234,1.7958 -2.04227,3.20754 -0.91318,2.80305 -1.23883,5.08516 -1.23142,8.631 0.01,4.733497 0.82201,7.742897 2.68769,9.960127 0.39481,0.46919 0.63968,0.97843 0.54464,1.13224 -0.26604,0.43045 -0.7308,0.34171 -2.3001,-0.4403 -1.92564,-0.95961 -3.41471,-2.86959 -4.2106,-5.4007 -0.81886,-2.60427 -0.87183,-8.341307 -0.10388,-11.279927 1.32292,-5.06211 3.95751,-8.32196 6.60942,-8.34419 z m 198.355863,9.48314 c 0.071,0 0.14219,0.005 0.21344,0.0156 l 0.004,0.003 c 0.41201,0.063 0.7752,0.30671 1.0046,0.663 0.005,0.008 0.008,0.0148 0.014,0.0222 0.0206,0.0349 0.0427,0.0698 0.0626,0.10646 l 4.97228,9.426287 -2.16627,2.23655 -4.43847,-8.413437 -0.0124,-0.0217 -7.67654,7.933377 0.1814,-0.0445 c 3.52195,-0.47353 7.89141,-0.3991 12.3398,1.31463 0.23296,0.0896 0.46683,0.1832 0.70125,0.28112 L 172.8323,96.120773 c 0.32784,-0.33798 0.78964,-0.49583 1.24745,-0.42582 0.45617,0.0698 0.85484,0.35946 1.0754,0.78134 l 6.61302,12.681927 c 0.0513,0.0997 0.0911,0.20354 0.12042,0.309 0.0572,0.20905 0.0695,0.425 0.0398,0.63564 -0.0447,0.31858 -0.18576,0.62209 -0.41651,0.86093 l -9.84541,10.16476 c -0.32652,0.33824 -0.78666,0.49771 -1.24333,0.42786 h -0.003 c -0.45522,-0.0696 -0.85225,-0.35716 -1.07334,-0.77566 l -4.99504,-9.45885 1.0542,-1.08934 0.15865,-0.16277 0.94464,-0.97515 3.30729,6.2384 0.44855,0.84799 0.71676,1.35651 7.68223,-7.93337 -0.0687,0.0259 c -3.59262,0.96052 -8.43619,0.77089 -13.20022,-1.53635 l -1.90532,1.96836 c -0.13486,0.0991 -0.2481,0.21953 -0.34208,0.35296 l -7.93803,8.19742 c -0.0718,0.0743 -0.15108,0.13798 -0.2341,0.19431 -0.0175,0.0114 -0.035,0.0238 -0.0527,0.0346 -0.0345,0.0212 -0.0717,0.0409 -0.10697,0.0594 -0.0175,0.0111 -0.0344,0.0185 -0.0527,0.0265 -0.0283,0.0124 -0.0576,0.0225 -0.0858,0.0346 -0.0228,0.009 -0.0468,0.0164 -0.0698,0.0233 -0.0119,0.006 -0.0266,0.006 -0.0388,0.0119 -0.0538,0.0156 -0.10875,0.0262 -0.16331,0.0351 -0.0446,0.007 -0.0896,0.0109 -0.13332,0.014 -0.0279,0.003 -0.0545,0.006 -0.0822,0.006 -0.0116,-0.003 -0.0241,0.003 -0.0357,0 -0.0641,0 -0.12951,-0.005 -0.19325,-0.0146 -0.0241,-0.004 -0.0468,-0.0109 -0.0703,-0.0145 -0.0217,-0.005 -0.0434,-0.0109 -0.0651,-0.014 -0.0206,-0.005 -0.0401,-0.0111 -0.0594,-0.0172 -0.24572,-0.0735 -0.46704,-0.21322 -0.64389,-0.40253 -0.092,-0.0989 -0.17333,-0.21003 -0.2377,-0.33385 l -0.52401,-1.00354 -6.08748,-11.67837 c -0.15565,-0.29749 -0.20839,-0.63039 -0.1633,-0.94877 0.045,-0.318 0.18717,-0.62158 0.4186,-0.86042 l 9.84435,-10.164757 c 0.12261,-0.12663 0.26469,-0.22757 0.41754,-0.30126 v 0.003 c 0.19116,-0.0919 0.39997,-0.14107 0.61288,-0.14107 z m -85.291432,3.89898 v 0 c 0.1432,-0.005 0.28647,0.0306 0.41238,0.10335 l 0.003,0.003 c 0.18159,0.10628 0.30599,0.28202 0.34571,0.48112 0,0.005 -1.1e-4,0.008 0.003,0.0124 0.003,0.019 0.007,0.0385 0.009,0.0584 l 0.53589,5.058087 -1.4454,0.55914 -0.47799,-4.513947 -0.003,-0.0119 -5.12371,1.986437 0.094,0.0151 c 1.74551,0.46792 3.78444,1.33673 5.54747,2.93471 0.0923,0.0836 0.18449,0.16933 0.27596,0.25683 l 6.82387,-2.64221 c 0.21862,-0.0845 0.4664,-0.0655 0.66817,0.0527 0.20103,0.11766 0.33253,0.32073 0.35555,0.54673 l 0.68472,6.78977 c 0.005,0.0533 0.004,0.10604 -0.003,0.15761 l 0.003,-0.003 c -0.013,0.10266 -0.0483,0.20024 -0.10285,0.28681 -0.0819,0.13023 -0.20666,0.23468 -0.3607,0.29453 l -6.56911,2.54352 c -0.21804,0.0848 -0.46434,0.0661 -0.66558,-0.0517 h -0.003 c -0.20063,-0.11753 -0.33277,-0.31806 -0.35658,-0.54266 l -0.54001,-5.07669 0.70384,-0.27284 0.10541,-0.0403 0.62995,-0.24389 0.36224,3.35018 0.0491,0.45526 0.0775,0.72811 5.1263,-1.98541 -0.0372,-0.003 c -1.87179,-0.26931 -4.11175,-1.27938 -5.9097,-3.19624 l -1.27178,0.493 c -0.0823,0.0175 -0.15822,0.0482 -0.22788,0.0883 l -5.29683,2.05105 c -0.0479,0.0185 -0.097,0.0313 -0.14676,0.0398 -0.0103,0.003 -0.0212,0.003 -0.0315,0.005 -0.0204,0.003 -0.0414,0.003 -0.0615,0.006 -0.0103,0.003 -0.0198,0.003 -0.03,0.003 -0.0156,0 -0.0314,-0.003 -0.047,-0.003 -0.0127,0 -0.0251,0 -0.0372,-0.004 -0.007,0 -0.0135,-0.003 -0.0206,-0.003 -0.0282,-0.003 -0.0558,-0.01 -0.0832,-0.0159 -0.0222,-0.006 -0.0445,-0.0124 -0.0656,-0.0196 -0.0132,-0.005 -0.0268,-0.008 -0.0398,-0.013 -0.006,-0.003 -0.0124,-0.003 -0.0172,-0.006 -0.03,-0.0124 -0.0593,-0.027 -0.0873,-0.0434 -0.0109,-0.006 -0.0206,-0.0135 -0.031,-0.0196 -0.009,-0.006 -0.0175,-0.013 -0.0274,-0.0185 -0.009,-0.006 -0.0175,-0.0122 -0.0254,-0.0185 -0.10144,-0.0791 -0.17888,-0.18242 -0.22582,-0.29873 -0.0246,-0.0607 -0.0409,-0.12443 -0.0476,-0.19068 l -0.0543,-0.53796 -0.63045,-6.25181 c -0.0161,-0.15936 0.0228,-0.31438 0.10491,-0.444417 0.0819,-0.12991 0.2068,-0.23484 0.36121,-0.29456 l 6.56859,-2.54352 c 0.0815,-0.0314 0.16714,-0.0487 0.25271,-0.0517 z m 44.645852,7.905987 c 0.24066,-0.005 0.48265,0.0425 0.709,0.14108 l 0.005,0.003 c 0.43561,0.19285 0.76404,0.56229 0.9121,1.01028 0.003,0.0103 0.004,0.0183 0.008,0.0279 0.0127,0.0433 0.0266,0.0868 0.0377,0.13176 l 2.70732,11.5161 -3.04633,1.70841 -2.41639,-10.27842 -0.007,-0.0265 -10.79624,6.06319 0.21291,0.008 c 4.02154,0.57541 8.8161,1.9907 13.21522,5.16869 0.2304,0.16629 0.46086,0.33707 0.69041,0.51263 l 14.38103,-8.06826 c 0.46082,-0.25805 1.01714,-0.28406 1.50119,-0.0697 0.48226,0.21352 0.83603,0.64275 0.95499,1.15755 l 3.55793,15.46984 c 0.0271,0.12145 0.0413,0.2435 0.0413,0.36434 0.003,0.23915 -0.0484,0.47204 -0.14314,0.68625 -0.14306,0.32414 -0.38748,0.60287 -0.7121,0.78549 l -13.84416,7.76546 c -0.45948,0.25877 -1.01376,0.28713 -1.49657,0.0734 h -0.004 c -0.4813,-0.21309 -0.83391,-0.63894 -0.95446,-1.1503 l -2.72282,-11.55745 1.48259,-0.83301 0.22273,-0.12404 1.3286,-0.74517 1.8092,7.6264 0.24545,1.03664 0.39015,1.65727 10.80297,-6.06166 -0.0827,0.007 c -4.24278,-0.0807 -9.52646,-1.76347 -14.09888,-5.66735 l -2.67891,1.50429 c -0.17782,0.0638 -0.33877,0.15653 -0.48162,0.26924 l -11.16211,6.26319 c -0.10101,0.0568 -0.20711,0.10052 -0.31522,0.13486 -0.0228,0.007 -0.046,0.014 -0.0687,0.0201 -0.0443,0.0116 -0.09,0.0214 -0.13436,0.0305 -0.0225,0.006 -0.0437,0.009 -0.0662,0.0114 -0.0349,0.004 -0.0702,0.006 -0.1049,0.0103 -0.0279,0 -0.0563,0.003 -0.0837,0.003 -0.0148,0.006 -0.0312,-8e-5 -0.0465,0.003 -0.0638,0 -0.12796,-0.005 -0.19069,-0.0124 -0.0512,-0.006 -0.10176,-0.0164 -0.15089,-0.0265 -0.0313,-0.006 -0.0621,-0.01 -0.0925,-0.0185 -0.0127,-0.004 -0.0276,-0.005 -0.0398,-0.01 -0.0704,-0.0204 -0.14086,-0.0451 -0.20825,-0.0749 -0.0254,-0.0111 -0.049,-0.0257 -0.0739,-0.0367 -0.0228,-0.0114 -0.0439,-0.0246 -0.0672,-0.0346 -0.0214,-0.0114 -0.0414,-0.0236 -0.061,-0.0357 -0.24919,-0.15317 -0.45146,-0.36938 -0.59066,-0.62426 -0.0724,-0.13298 -0.12925,-0.27535 -0.1638,-0.42632 l -0.28165,-1.22473 -3.27422,-14.24461 c -0.0839,-0.36304 -0.0441,-0.73197 0.0992,-1.05574 0.14319,-0.32343 0.38878,-0.60206 0.71416,-0.78446 l 13.84361,-7.76595 c 0.17243,-0.0968 0.35864,-0.16084 0.5488,-0.19222 0.0792,-0.013 0.15904,-0.019 0.23926,-0.0217 z m -45.373982,9.85986 v 0 c 0.13451,-0.004 0.26927,0.0283 0.38759,0.0966 l 0.003,0.004 c 0.17058,0.0999 0.28723,0.26461 0.32454,0.45167 0,0.004 -1.4e-4,0.008 0.003,0.0119 0.003,0.018 0.006,0.0358 0.009,0.0543 l 0.50334,4.75215 -1.35805,0.52554 -0.44908,-4.24108 -0.003,-0.0108 -4.81364,1.86605 0.0884,0.0145 c 1.63994,0.43961 3.55571,1.25566 5.21208,2.75693 0.0867,0.0786 0.17298,0.1591 0.25889,0.24133 l 6.41099,-2.48253 c 0.20539,-0.0794 0.43831,-0.0609 0.62785,0.0501 0.18889,0.11057 0.31266,0.30083 0.33436,0.51316 l 0.64286,6.37944 c 0.005,0.0501 0.003,0.0994 -0.003,0.1478 l 0.003,-0.003 c -0.0122,0.0965 -0.0454,0.18791 -0.0967,0.26924 -0.077,0.12234 -0.19326,0.22074 -0.33796,0.27699 l -6.17172,2.38951 c -0.20489,0.0797 -0.4367,0.0621 -0.62579,-0.0486 h -0.003 c -0.18848,-0.1104 -0.31236,-0.29905 -0.33485,-0.51006 l -0.50747,-4.76922 0.66095,-0.2563 0.0992,-0.0377 0.59219,-0.22944 0.34005,3.14761 0.046,0.42789 0.0729,0.68368 4.81623,-1.86502 -0.0351,-0.003 c -1.75855,-0.25302 -3.86288,-1.20205 -5.55209,-3.00296 l -1.19478,0.46302 c -0.0773,0.0164 -0.14901,0.045 -0.21444,0.0827 l -4.97594,1.92701 c -0.045,0.0175 -0.0912,0.0293 -0.13796,0.0372 -0.01,0.003 -0.0204,0.003 -0.03,0.005 -0.019,0.003 -0.0383,0.003 -0.0574,0.005 -0.01,0.003 -0.019,0.003 -0.0284,0.003 -0.0148,0 -0.0294,-0.003 -0.0439,-0.003 -0.0116,0 -0.0233,8e-5 -0.0346,-0.003 -0.007,0 -0.013,-0.003 -0.0196,-0.003 -0.0265,-0.003 -0.0529,-0.009 -0.0785,-0.0145 -0.0209,-0.005 -0.0417,-0.0119 -0.0615,-0.0185 -0.0127,-0.004 -0.0251,-0.007 -0.0372,-0.0119 -0.005,-0.003 -0.0111,-0.003 -0.0159,-0.006 -0.0281,-0.0119 -0.0562,-0.0254 -0.0827,-0.0408 -0.0101,-0.006 -0.0188,-0.0116 -0.0284,-0.0175 -0.009,-0.006 -0.0172,-0.0122 -0.0265,-0.0175 -0.008,-0.006 -0.0161,-0.0119 -0.0238,-0.018 -0.0953,-0.0743 -0.1678,-0.17081 -0.21188,-0.28009 -0.0228,-0.057 -0.0389,-0.11705 -0.045,-0.1793 l -0.0506,-0.50536 -0.59222,-5.87404 c -0.0153,-0.14972 0.0222,-0.29538 0.0992,-0.41756 0.0769,-0.12208 0.19341,-0.22035 0.33848,-0.27647 l 6.17122,-2.3895 c 0.0769,-0.0298 0.15748,-0.0459 0.23821,-0.0486 z m -109.127691,8.00777 c 0.5861,-0.0175 1.06603,0.12787 1.34461,0.46355 0.41264,0.49718 0.46934,0.43984 -2.0655,2.09598 -1.63481,1.06809 -2.84871,3.11438 -3.76568,6.34896 -0.51416,1.81388 -0.62669,2.88854 -0.63198,6.04253 -0.006,3.6844 0.0235,3.88961 0.74723,5.17282 0.41447,0.73488 0.75343,1.44388 0.75343,1.57562 0,0.52726 -0.7902,0.18439 -1.86706,-0.80979 -2.18596,-2.01805 -3.07345,-5.46721 -2.52595,-9.81696 0.51771,-4.11287 1.67423,-6.96746 3.60651,-8.89971 1.31056,-1.31056 3.11499,-2.13482 4.40439,-2.173 z m 197.132663,8.02534 c 0.24069,-0.003 0.48217,0.0473 0.70747,0.14833 l 0.005,0.003 c 0.43354,0.19748 0.75798,0.57057 0.90125,1.0201 0.003,0.0101 0.004,0.0185 0.008,0.0284 0.0122,0.0434 0.0257,0.0868 0.0362,0.13179 l 2.58432,11.54451 -3.06388,1.67587 -2.30685,-10.30378 -0.007,-0.0265 -10.86032,5.94797 0.21291,0.0103 c 4.01521,0.61817 8.79438,2.0846 13.15942,5.30924 0.22863,0.16877 0.45701,0.34239 0.68469,0.52038 l 14.46681,-7.91471 c 0.46355,-0.25312 1.02,-0.27371 1.50172,-0.0543 0.47999,0.21863 0.8291,0.65186 0.94258,1.1679 l 3.39254,15.50705 c 0.0259,0.1217 0.0377,0.24402 0.0377,0.36483 0,0.23916 -0.0533,0.47151 -0.15039,0.68471 -0.1465,0.32258 -0.39433,0.59804 -0.72088,0.77722 l -13.92576,7.61815 c -0.4622,0.25386 -1.01656,0.27575 -1.49707,0.0569 h -0.004 c -0.47897,-0.21818 -0.82746,-0.64752 -0.94255,-1.16015 l -2.59932,-11.58586 1.49191,-0.81701 0.22323,-0.12142 1.33635,-0.73122 1.72808,7.64553 0.2346,1.0392 0.37259,1.6614 10.86704,-5.94641 -0.0832,0.006 c -4.24169,-0.12583 -9.50679,-1.86541 -14.03739,-5.81773 l -2.69544,1.4759 c -0.17851,0.062 -0.33962,0.1534 -0.48368,0.26458 l -11.22826,6.14381 c -0.1016,0.0557 -0.20833,0.0981 -0.31678,0.13126 -0.0228,0.006 -0.046,0.0138 -0.0687,0.0196 -0.0445,0.0114 -0.091,0.0204 -0.13539,0.029 -0.0228,0.006 -0.0437,0.008 -0.0661,0.0109 -0.0349,0.004 -0.0697,0.005 -0.10441,0.009 -0.028,0.003 -0.0563,0.003 -0.0837,0.003 -0.0148,0.003 -0.0317,-0.003 -0.047,0 -0.0638,0 -0.1275,-0.007 -0.19018,-0.0146 -0.0511,-0.007 -0.10136,-0.0169 -0.15036,-0.0274 -0.0312,-0.007 -0.0622,-0.0106 -0.0925,-0.0196 -0.0127,-0.004 -0.0282,-0.005 -0.0403,-0.0103 -0.0702,-0.0212 -0.13965,-0.0464 -0.20669,-0.077 -0.0254,-0.0111 -0.049,-0.0265 -0.0739,-0.0377 -0.0225,-0.0114 -0.0437,-0.0249 -0.0667,-0.0351 -0.0212,-0.0119 -0.0409,-0.0246 -0.0605,-0.0367 -0.24755,-0.15581 -0.44797,-0.37359 -0.58447,-0.62992 -0.0709,-0.13375 -0.1262,-0.27654 -0.15914,-0.42789 l -0.26925,-1.22783 -3.12229,-14.27871 c -0.08,-0.36391 -0.0357,-0.73303 0.1111,-1.05524 0.1466,-0.32189 0.39563,-0.59722 0.72295,-0.77618 l 13.92541,-7.6185 c 0.17344,-0.0949 0.35936,-0.15671 0.54983,-0.18605 v 0.003 c 0.0794,-0.0122 0.16005,-0.0191 0.2403,-0.0191 z m -53.86181,9.11934 v 0 c 0.37433,-0.0124 0.74977,0.0827 1.07899,0.28009 l 0.004,0.004 c 0.47469,0.28842 0.79889,0.76512 0.90279,1.30535 0.003,0.0122 0.003,0.0212 0.006,0.0331 0.008,0.052 0.0177,0.10504 0.0238,0.15867 l 1.40041,13.72111 -3.77857,1.51878 -1.25057,-12.24732 -0.004,-0.032 -13.394032,5.38829 0.24548,0.0419 c 4.56337,1.26937 9.893962,3.62654 14.502972,7.96179 0.24144,0.22688 0.48237,0.45918 0.72142,0.69662 l 17.83974,-7.16857 c 0.57161,-0.22913 1.21864,-0.17631 1.74614,0.14418 0.52555,0.31932 0.87048,0.86846 0.9307,1.48156 l 1.78954,18.42161 c 0.0132,0.14451 0.01,0.288 -0.007,0.42788 -0.0341,0.27673 -0.12647,0.53809 -0.26821,0.77153 -0.2141,0.3533 -0.5388,0.63807 -0.94155,0.80047 l -17.17309,6.89985 c -0.5701,0.23017 -1.21487,0.1796 -1.74099,-0.14004 h -0.004 c -0.52451,-0.31866 -0.86865,-0.86447 -0.93123,-1.47383 l -1.41232,-13.77175 1.8397,-0.74054 0.27544,-0.10954 1.64848,-0.66199 0.94618,9.08936 0.12869,1.23561 0.20154,1.97453 13.40228,-5.38519 -0.0977,-0.005 c -4.89359,-0.73056 -10.74945,-3.47022 -15.44978,-8.67076 l -3.32383,1.33636 c -0.21518,0.0471 -0.41531,0.13089 -0.5974,0.23976 l -13.846682,5.56451 c -0.1253,0.0505 -0.25434,0.085 -0.38449,0.10853 -0.0272,0.004 -0.0551,0.01 -0.0822,0.0135 -0.0531,0.007 -0.10813,0.0114 -0.16071,0.0151 -0.0271,0.004 -0.0516,0.004 -0.0781,0.004 -0.041,0 -0.0817,-0.004 -0.12247,-0.004 -0.0325,-0.003 -0.0654,-0.005 -0.0971,-0.009 -0.0177,0.003 -0.0368,-0.006 -0.0548,-0.006 -0.0738,-0.01 -0.14608,-0.0249 -0.21754,-0.0429 -0.0582,-0.0151 -0.11578,-0.0336 -0.17106,-0.0527 -0.0352,-0.0124 -0.0705,-0.0206 -0.10437,-0.0351 -0.014,-0.007 -0.0317,-0.01 -0.045,-0.0175 -0.0783,-0.0341 -0.1555,-0.0727 -0.22892,-0.11732 -0.0278,-0.0167 -0.053,-0.0371 -0.0801,-0.0537 -0.0246,-0.0164 -0.0477,-0.035 -0.0729,-0.0501 -0.023,-0.0164 -0.0437,-0.0337 -0.0646,-0.0507 -0.26511,-0.2145 -0.46641,-0.49419 -0.5891,-0.80976 -0.0637,-0.16465 -0.10837,-0.33803 -0.12557,-0.51779 l -0.14263,-1.45883 -1.6459,-16.96175 c -0.0425,-0.43233 0.0595,-0.8528 0.27387,-1.20563 0.21413,-0.35245 0.54105,-0.63735 0.94467,-0.79941 l 17.171542,-6.90036 c 0.21394,-0.086 0.43897,-0.13187 0.66355,-0.13954 z m -144.182953,12.19306 c 1.43872,0 2.40294,0.51684 2.15749,1.15652 -0.0873,0.22744 -0.93991,0.83529 -1.89447,1.35133 -1.50535,0.81386 -1.83925,1.14483 -2.5187,2.49444 -0.61008,1.21182 -0.81415,2.05835 -0.92139,3.82612 -0.26363,4.34609 0.9897,8.90365 3.08613,11.22412 0.53152,0.58833 0.89345,1.18814 0.80407,1.33273 -0.21246,0.3438 -0.0762,0.38301 -1.99469,-0.57568 -3.11994,-1.55906 -4.67016,-4.39695 -5.26894,-9.64694 -0.46604,-4.08628 0.49244,-7.53589 2.6448,-9.51984 1.44327,-1.33035 2.1862,-1.6428 3.9057,-1.6428 z m 193.545813,19.30683 c 0.37433,-0.0124 0.74978,0.0833 1.079,0.28061 l 0.004,0.004 c 0.47469,0.28842 0.79888,0.76512 0.90278,1.30535 0.003,0.0122 0.003,0.0217 0.006,0.0336 0.008,0.052 0.0177,0.10398 0.0238,0.15761 l 1.40041,13.72217 -3.77856,1.51773 -1.25058,-12.2468 -0.005,-0.032 -13.3935,5.38882 0.24495,0.0413 c 4.56337,1.26936 9.89399,3.62654 14.503,7.96179 0.24143,0.22688 0.48234,0.45916 0.72139,0.69659 l 17.84027,-7.16854 c 0.57161,-0.22913 1.21812,-0.17579 1.74562,0.1447 0.52554,0.31933 0.87047,0.86847 0.93069,1.48156 l 1.78957,18.42162 c 0.0132,0.14451 0.0108,0.28696 -0.006,0.42685 -0.0341,0.27673 -0.12698,0.53858 -0.26871,0.77203 -0.21411,0.35329 -0.5388,0.6386 -0.94155,0.801 l -17.1731,6.8993 c -0.5701,0.23016 -1.21486,0.1796 -1.74099,-0.14005 h -0.004 c -0.52451,-0.31866 -0.86865,-0.86444 -0.93122,-1.4738 l -1.4123,-13.77175 1.83968,-0.74002 0.27543,-0.11006 1.64849,-0.66146 0.94617,9.08936 0.1287,1.23505 0.20153,1.97509 13.40228,-5.38623 -0.0977,-0.004 c -4.8935,-0.7306 -10.74933,-3.47022 -15.44968,-8.67077 l -3.32383,1.33686 c -0.21521,0.0471 -0.41532,0.13089 -0.5974,0.23977 l -13.84668,5.56453 c -0.12531,0.0505 -0.25435,0.085 -0.38449,0.1085 -0.0272,0.004 -0.0551,0.009 -0.0822,0.013 -0.053,0.007 -0.10814,0.0119 -0.16071,0.0156 -0.0271,0.004 -0.0516,0.004 -0.078,0.004 -0.041,0 -0.0817,-0.003 -0.12245,-0.004 -0.0325,-0.003 -0.0654,-0.005 -0.0972,-0.009 -0.0177,0.003 -0.0363,-0.006 -0.0543,-0.006 -0.0738,-0.01 -0.14661,-0.0249 -0.21807,-0.0429 -0.0582,-0.0151 -0.11578,-0.0336 -0.17105,-0.0527 -0.0352,-0.0124 -0.0705,-0.0212 -0.10438,-0.0357 -0.014,-0.007 -0.0317,-0.009 -0.045,-0.0172 -0.0783,-0.0341 -0.15494,-0.0732 -0.22839,-0.11782 -0.0277,-0.0167 -0.0536,-0.0365 -0.0806,-0.0532 -0.0246,-0.0164 -0.0477,-0.0351 -0.0729,-0.0501 -0.023,-0.0164 -0.0437,-0.0337 -0.0646,-0.0506 -0.26511,-0.21453 -0.46641,-0.49422 -0.5891,-0.80979 -0.0637,-0.16465 -0.10837,-0.33803 -0.12557,-0.51779 l -0.1421,-1.45883 -1.64643,-16.96175 c -0.0424,-0.43233 0.0605,-0.85278 0.27493,-1.2056 0.21413,-0.35245 0.53999,-0.63738 0.94361,-0.79944 l 17.1726,-6.90036 c 0.21391,-0.086 0.43791,-0.13184 0.66249,-0.13951 z m -78.460842,2.11254 c 0.37433,-0.0124 0.74978,0.0827 1.079,0.28008 l 0.004,0.005 c 0.47471,0.28842 0.79941,0.76409 0.90331,1.30431 0.003,0.0122 0.003,0.0222 0.006,0.0341 0.008,0.052 0.0177,0.10398 0.0238,0.15761 l 1.40044,13.72214 -3.77857,1.51775 -1.25005,-12.24679 -0.005,-0.032 -13.3935,5.38882 0.24496,0.0419 c 4.5634,1.26936 9.89449,3.6255 14.5035,7.96073 0.24143,0.2269 0.48184,0.45918 0.72089,0.69662 l 17.84077,-7.16804 c 0.57161,-0.22913 1.21761,-0.17632 1.74511,0.14417 0.52555,0.31933 0.87048,0.86847 0.9307,1.48156 l 1.79007,18.42162 c 0.0132,0.14451 0.0109,0.28747 -0.006,0.42735 -0.0341,0.27673 -0.12698,0.53912 -0.26871,0.77259 -0.21411,0.35329 -0.53878,0.63754 -0.94155,0.79994 l -17.17313,6.89932 c -0.57009,0.23017 -1.21486,0.1796 -1.74098,-0.14004 h -0.004 c -0.52451,-0.31866 -0.86916,-0.86341 -0.93173,-1.47278 l -1.41232,-13.7728 1.8402,-0.74002 0.27543,-0.11006 1.64746,-0.66199 0.94671,9.08989 0.12816,1.23611 0.20256,1.97456 13.40126,-5.38626 -0.0972,-0.004 c -4.8935,-0.73059 -10.74936,-3.47025 -15.44971,-8.67079 l -3.32433,1.33688 c -0.21522,0.0471 -0.41479,0.13039 -0.59688,0.23927 l -13.8467,5.56503 c -0.12531,0.0505 -0.25432,0.0845 -0.38447,0.108 -0.0272,0.004 -0.0546,0.01 -0.0816,0.0135 -0.0531,0.007 -0.10866,0.0119 -0.16123,0.0156 -0.0271,0.004 -0.0516,0.004 -0.078,0.004 -0.041,0 -0.0817,-0.004 -0.12248,-0.004 -0.0325,-0.003 -0.0654,-0.005 -0.0971,-0.009 -0.0177,0.003 -0.0358,-0.005 -0.0537,-0.005 -0.0738,-0.01 -0.14764,-0.0254 -0.2191,-0.0434 -0.0582,-0.0151 -0.11475,-0.0336 -0.17002,-0.0527 -0.0352,-0.0124 -0.0705,-0.0206 -0.10438,-0.0351 -0.014,-0.007 -0.0323,-0.01 -0.0455,-0.0175 -0.0783,-0.0341 -0.15499,-0.0732 -0.22842,-0.11785 -0.0277,-0.0167 -0.0536,-0.0371 -0.0806,-0.0537 -0.0246,-0.0164 -0.0472,-0.0345 -0.0723,-0.0496 -0.023,-0.0164 -0.0442,-0.0342 -0.0651,-0.0512 -0.26512,-0.21452 -0.46694,-0.49421 -0.58963,-0.80978 -0.0637,-0.16465 -0.10787,-0.33803 -0.12507,-0.51779 l -0.14211,-1.45831 -1.64589,-16.96227 c -0.0425,-0.43233 0.0595,-0.85281 0.2739,-1.20561 0.21413,-0.35247 0.53999,-0.63738 0.94361,-0.79943 l 17.17257,-6.89962 c 0.21392,-0.086 0.43791,-0.13184 0.66249,-0.13952 z m 48.785652,30.44362 c 0.37433,-0.0124 0.74978,0.0832 1.079,0.28059 l 0.004,0.004 c 0.47469,0.28842 0.79938,0.76512 0.90328,1.30535 0.003,0.0122 0.003,0.0212 0.006,0.0331 0.008,0.052 0.0177,0.10398 0.0238,0.15761 l 1.40042,13.72214 -3.77857,1.51776 -1.25005,-12.2468 -0.005,-0.032 -13.39403,5.38882 0.24495,0.0419 c 4.56338,1.26937 9.89399,3.62654 14.50301,7.96179 0.24143,0.22688 0.48233,0.45916 0.72138,0.69659 l 17.84028,-7.16907 c 0.5716,-0.22913 1.21811,-0.17632 1.74561,0.14417 0.52554,0.31933 0.87048,0.869 0.9307,1.48207 l 1.78956,18.42111 c 0.0132,0.14452 0.0109,0.28747 -0.006,0.42736 -0.0341,0.27672 -0.12644,0.53861 -0.26818,0.77205 -0.2141,0.3533 -0.53933,0.63857 -0.94208,0.80097 l -17.1731,6.89986 c -0.57009,0.23016 -1.21486,0.1796 -1.74098,-0.14004 h -0.004 c -0.52451,-0.31867 -0.86865,-0.86445 -0.93123,-1.47381 l -1.41232,-13.77231 1.8397,-0.74051 0.27544,-0.10957 1.64848,-0.66196 0.94618,9.08937 0.12869,1.2361 0.20154,1.97456 13.40228,-5.38625 -0.0977,-0.004 c -4.8935,-0.73059 -10.74933,-3.47024 -15.44968,-8.67079 l -3.32383,1.33689 c -0.21521,0.0471 -0.41429,0.13089 -0.59637,0.23976 l -13.84668,5.56453 c -0.12531,0.0505 -0.25538,0.085 -0.38552,0.10851 -0.0272,0.004 -0.0551,0.01 -0.0822,0.0135 -0.0531,0.007 -0.10814,0.0114 -0.16071,0.0151 -0.0271,0.004 -0.0516,0.004 -0.0781,0.004 -0.041,0 -0.0817,-0.003 -0.12245,-0.004 -0.0326,-0.003 -0.0654,-0.005 -0.0972,-0.009 -0.0177,0.003 -0.0363,-0.006 -0.0543,-0.006 -0.0738,-0.01 -0.14661,-0.0249 -0.21807,-0.0429 -0.0582,-0.0151 -0.11578,-0.0336 -0.17105,-0.0527 -0.0352,-0.0124 -0.0695,-0.0212 -0.10335,-0.0356 -0.014,-0.007 -0.0328,-0.009 -0.046,-0.0172 -0.0783,-0.0341 -0.15547,-0.0732 -0.22892,-0.11782 -0.0277,-0.0167 -0.053,-0.0366 -0.0801,-0.0532 -0.0246,-0.0164 -0.0467,-0.035 -0.0718,-0.0501 -0.023,-0.0164 -0.0447,-0.0337 -0.0656,-0.0506 -0.26511,-0.21452 -0.4664,-0.49421 -0.58909,-0.80978 -0.0637,-0.16465 -0.10837,-0.33803 -0.12557,-0.51779 l -0.14214,-1.45883 -1.64589,-16.96175 c -0.0425,-0.43233 0.06,-0.85278 0.27443,-1.2056 0.21412,-0.35243 0.53998,-0.63738 0.94361,-0.79944 l 17.17259,-6.90036 c 0.21392,-0.086 0.43791,-0.13187 0.66249,-0.13954 z m -68.473852,5.66631 c 0.37433,-0.0124 0.74978,0.0827 1.079,0.28009 l 0.004,0.005 c 0.47469,0.28843 0.79891,0.7646 0.90278,1.30482 0.003,0.0122 0.003,0.0222 0.006,0.0341 0.008,0.052 0.0177,0.10398 0.0238,0.15761 l 1.40044,13.72216 -3.77909,1.51773 -1.25005,-12.24729 -0.005,-0.0315 -13.3935,5.38832 0.24495,0.0418 c 4.56337,1.26937 9.89449,3.62601 14.5035,7.96126 0.24144,0.22688 0.48184,0.45916 0.72089,0.6966 l 17.83974,-7.16854 c 0.57161,-0.22913 1.21865,-0.17579 1.74615,0.1447 0.52554,0.31932 0.86995,0.86847 0.93016,1.48156 l 1.7906,18.42161 c 0.0132,0.14452 0.0103,0.28747 -0.007,0.42736 -0.0341,0.27673 -0.12647,0.53861 -0.26821,0.77205 -0.2141,0.3533 -0.53874,0.63807 -0.94152,0.80047 l -17.17312,6.8993 c -0.5701,0.23016 -1.21486,0.1796 -1.74099,-0.14004 h -0.005 c -0.52451,-0.31866 -0.86812,-0.86392 -0.9307,-1.47328 l -1.41232,-13.7723 1.84021,-0.73999 0.27543,-0.11007 1.64745,-0.66198 0.94671,9.08989 0.12816,1.23558 0.20257,1.97456 13.40125,-5.38573 -0.0972,-0.005 c -4.89349,-0.7306 -10.74935,-3.47025 -15.4497,-8.6708 l -3.32434,1.33689 c -0.21521,0.0471 -0.41478,0.13039 -0.59687,0.23926 l -13.8467,5.56504 c -0.12531,0.0504 -0.25432,0.0845 -0.38447,0.108 -0.0272,0.004 -0.0546,0.01 -0.0817,0.0135 -0.053,0.007 -0.10866,0.0119 -0.16124,0.0156 -0.0271,0.004 -0.0516,0.004 -0.078,0.004 -0.041,0 -0.0817,-0.003 -0.12247,-0.004 -0.0325,-0.003 -0.0659,-0.006 -0.0977,-0.009 -0.0177,0.003 -0.0363,-0.005 -0.0543,-0.005 -0.0738,-0.01 -0.14661,-0.0249 -0.21807,-0.0429 -0.0582,-0.0151 -0.11475,-0.0342 -0.17002,-0.0532 -0.0352,-0.0124 -0.071,-0.0206 -0.10491,-0.0351 -0.014,-0.007 -0.0317,-0.009 -0.045,-0.0169 -0.0783,-0.0341 -0.15499,-0.0732 -0.22841,-0.11782 -0.0278,-0.0167 -0.0536,-0.0371 -0.0806,-0.0537 -0.0246,-0.0164 -0.0477,-0.0345 -0.0729,-0.0496 -0.023,-0.0164 -0.0437,-0.0342 -0.0646,-0.0512 -0.26512,-0.21452 -0.46694,-0.49418 -0.58963,-0.80975 -0.0637,-0.16465 -0.10787,-0.33804 -0.12507,-0.51782 l -0.1421,-1.4583 -1.6459,-16.96175 c -0.0425,-0.43233 0.059,-0.85331 0.27337,-1.20613 0.21413,-0.35245 0.54052,-0.63738 0.94414,-0.79944 l 17.17207,-6.89983 c 0.21391,-0.086 0.43844,-0.13184 0.66302,-0.13952 z m 52.147212,31.11543 c 0.37433,-0.0124 0.74977,0.0832 1.07899,0.28059 l 0.004,0.004 c 0.47469,0.28842 0.79942,0.76512 0.90332,1.30535 0.003,0.0122 0.003,0.0217 0.006,0.0336 0.008,0.052 0.0183,0.10398 0.0243,0.15761 l 1.39991,13.72217 -3.7786,1.51773 -1.25005,-12.24733 -0.005,-0.0315 -13.394032,5.38882 0.24496,0.0413 c 4.56337,1.26937 9.893962,3.62654 14.502972,7.96179 0.24143,0.22688 0.48236,0.45916 0.72142,0.69659 l 17.84024,-7.16854 c 0.57161,-0.22913 1.21867,-0.17632 1.74617,0.14417 0.52554,0.31933 0.86995,0.869 0.93017,1.48209 l 1.78954,18.42109 c 0.0132,0.14451 0.0109,0.2875 -0.006,0.42738 -0.0341,0.27673 -0.12647,0.53859 -0.26821,0.77203 -0.2141,0.3533 -0.5393,0.6386 -0.94205,0.801 l -17.17313,6.8993 c -0.57009,0.23016 -1.21483,0.17963 -1.74095,-0.14004 h -0.004 c -0.52451,-0.31867 -0.86863,-0.86445 -0.93121,-1.47381 l -1.41232,-13.77175 1.84021,-0.74054 0.27543,-0.10954 1.64796,-0.66199 0.9462,9.08937 0.12816,1.2356 0.20257,1.97506 13.40125,-5.38623 -0.0972,-0.005 c -4.89349,-0.73059 -10.74936,-3.47025 -15.44971,-8.67079 l -3.32383,1.33686 c -0.21521,0.0471 -0.41425,0.13091 -0.59634,0.23979 l -13.847212,5.5645 c -0.1253,0.0505 -0.25381,0.085 -0.38396,0.10854 -0.0272,0.004 -0.0556,0.009 -0.0827,0.013 -0.0531,0.007 -0.10866,0.0119 -0.16124,0.0156 -0.0271,0.004 -0.0516,0.004 -0.078,0.004 -0.041,0 -0.0817,-0.003 -0.12247,-0.004 -0.0325,-0.003 -0.0654,-0.005 -0.0971,-0.009 -0.0177,0.003 -0.0358,-0.006 -0.0537,-0.006 -0.0738,-0.01 -0.14764,-0.0249 -0.2191,-0.0429 -0.0582,-0.0151 -0.11475,-0.0331 -0.17003,-0.0522 -0.0352,-0.0124 -0.0705,-0.0217 -0.10437,-0.0362 -0.014,-0.007 -0.0312,-0.009 -0.0444,-0.0169 -0.0783,-0.0341 -0.15603,-0.0732 -0.22945,-0.11782 -0.0277,-0.0167 -0.0536,-0.0366 -0.0806,-0.0532 -0.0246,-0.0164 -0.0472,-0.035 -0.0723,-0.0501 -0.023,-0.0164 -0.0442,-0.0337 -0.0651,-0.0507 -0.26514,-0.21453 -0.46643,-0.49472 -0.58912,-0.81029 -0.0637,-0.16465 -0.10838,-0.3375 -0.12557,-0.51726 l -0.14213,-1.45766 -1.64589,-16.96175 c -0.0425,-0.43233 0.06,-0.85281 0.2744,-1.20563 0.21412,-0.35245 0.53948,-0.63738 0.9431,-0.79944 l 17.172602,-6.90033 c 0.21391,-0.086 0.43791,-0.13187 0.66249,-0.13954 z m -46.193052,17.28679 c 0.3743,-0.0124 0.74977,0.0827 1.07899,0.28008 l 0.004,0.004 c 0.47469,0.28842 0.79891,0.76512 0.90282,1.30535 0.003,0.0122 0.003,0.0217 0.006,0.0336 0.008,0.052 0.0177,0.10448 0.0238,0.15811 l 1.40044,13.72217 -3.77857,1.51773 -1.25057,-12.2473 -0.005,-0.032 -13.3935,5.38882 0.24495,0.0419 c 4.56337,1.26936 9.89449,3.62601 14.5035,7.96126 0.24144,0.22688 0.48184,0.45915 0.72089,0.69659 l 17.84077,-7.16854 c 0.57161,-0.22913 1.21761,-0.17632 1.74511,0.14417 0.52555,0.31933 0.87048,0.869 0.9307,1.48209 l 1.79007,18.42109 c 0.0132,0.14451 0.0109,0.288 -0.006,0.42788 -0.0341,0.27673 -0.12698,0.53808 -0.26874,0.77153 -0.21407,0.35329 -0.53877,0.63859 -0.94152,0.801 l -17.17313,6.8993 c -0.57009,0.23016 -1.21486,0.1796 -1.74098,-0.14005 h -0.004 c -0.52451,-0.31866 -0.86916,-0.86391 -0.93173,-1.47328 l -1.41232,-13.7723 1.8402,-0.73999 0.27543,-0.11009 1.64746,-0.66196 0.9467,9.08989 0.12817,1.23505 0.20256,1.97509 13.40125,-5.38573 -0.0971,-0.005 c -4.89348,-0.73019 -10.74935,-3.46985 -15.4497,-8.67039 l -3.32433,1.33636 c -0.21521,0.0471 -0.41478,0.13091 -0.59687,0.23979 l -13.8467,5.5645 c -0.12531,0.0505 -0.25432,0.085 -0.38447,0.10853 -0.0272,0.004 -0.0546,0.01 -0.0816,0.0135 -0.0531,0.007 -0.10816,0.0114 -0.16071,0.0151 -0.0271,0.004 -0.0521,0.004 -0.0786,0.004 -0.041,0 -0.0817,-0.004 -0.12247,-0.004 -0.0325,-0.003 -0.0659,-0.005 -0.0977,-0.009 -0.0177,0.003 -0.0352,-0.006 -0.0532,-0.006 -0.0738,-0.01 -0.14764,-0.0249 -0.2191,-0.0429 -0.0582,-0.0151 -0.11475,-0.0337 -0.17003,-0.0527 -0.0352,-0.0124 -0.071,-0.0206 -0.1049,-0.0351 -0.014,-0.007 -0.0317,-0.01 -0.045,-0.0175 -0.0783,-0.0341 -0.1555,-0.0727 -0.22892,-0.11731 -0.0277,-0.0167 -0.053,-0.0371 -0.0801,-0.0537 -0.0246,-0.0164 -0.0472,-0.0351 -0.0723,-0.0501 -0.023,-0.0164 -0.0442,-0.0337 -0.0651,-0.0506 -0.26511,-0.21452 -0.46694,-0.49419 -0.58963,-0.80976 -0.0637,-0.16465 -0.10787,-0.33805 -0.12506,-0.51779 l -0.14261,-1.45883 -1.64539,-16.96175 c -0.0425,-0.43233 0.059,-0.8528 0.27336,-1.20563 0.21413,-0.35245 0.54052,-0.63738 0.94414,-0.79943 l 17.1726,-6.90034 c 0.21391,-0.086 0.43791,-0.13134 0.66249,-0.13901 z m 32.03784,46.5124 c -0.0452,-0.003 -0.0898,-0.003 -0.13386,0 v 0 c -0.0504,0.004 -0.0998,0.0135 -0.14882,0.0269 -1.75385,0.46985 -11.77949,2.23531 -15.78714,2.78022 -3.72848,0.50694 -16.24195,2.68666 -18.91617,3.29488 -1.99993,0.45487 -2.08912,0.51837 -2.98122,2.11923 -2.09494,3.75939 -4.01227,11.17071 -5.25962,20.33056 -0.42199,3.09869 -0.59759,6.27256 -0.71261,12.89432 -0.25315,14.57653 0.70091,21.13664 3.7238,25.60669 0.56055,0.82894 1.55247,2.49378 2.20401,3.69951 5.14591,9.52289 16.99233,26.83886 20.60133,30.11342 0.81269,0.73737 2.00009,1.81637 2.63911,2.39779 0.63902,0.58139 1.37912,1.05627 1.64433,1.05627 1.73781,-0.004 4.59357,-3.09687 12.01891,-13.01576 9.994162,-13.35034 13.811042,-18.99573 13.811042,-20.42871 0,-0.27837 -0.30842,-0.83884 -0.68522,-1.2454 -0.37679,-0.40656 -0.68524,-0.79409 -0.68524,-0.86145 0,-0.0674 -0.55041,-2.12477 -1.22317,-4.57182 -0.67278,-2.44702 -2.03298,-7.8282 -3.02307,-11.95845 -4.209842,-17.56194 -5.790622,-27.74366 -6.083892,-39.18314 -0.13374,-5.21628 -0.0823,-6.61548 0.33179,-8.9731 l 0.49091,-2.7931 -0.76481,-0.7085 c -0.39674,-0.36767 -0.74366,-0.55872 -1.06039,-0.58084 z m -21.27261,16.75505 c 0.27464,-0.009 0.55012,0.0609 0.79169,0.20566 l 0.003,0.004 c 0.34827,0.21161 0.58679,0.56068 0.66299,0.95705 0.003,0.009 0.003,0.0161 0.005,0.0249 0.006,0.0381 0.0124,0.0764 0.0169,0.11575 l 1.02735,10.06864 -2.77193,1.11364 -0.91726,-8.98602 -0.003,-0.0238 -9.82784,3.9543 0.18037,0.0305 c 3.34822,0.93136 7.25945,2.66015 10.64119,5.84099 0.17714,0.16648 0.35375,0.3374 0.52917,0.5116 l 13.08912,-5.25962 c 0.41937,-0.16812 0.89456,-0.12976 1.28159,0.10541 0.38561,0.23429 0.63847,0.63793 0.68265,1.08778 l 1.3131,13.51597 c 0.0101,0.10605 0.007,0.21106 -0.006,0.31367 l 0.003,-0.005 c -0.0246,0.20439 -0.0928,0.3982 -0.1974,0.57049 -0.15708,0.25923 -0.39539,0.46793 -0.69091,0.58707 l -12.60078,5.06272 c -0.41825,0.16886 -0.89143,0.13171 -1.27746,-0.10281 h -0.003 c -0.38481,-0.23314 -0.63775,-0.63279 -0.68366,-1.07988 l -1.03507,-10.10535 1.34927,-0.54261 0.20206,-0.0806 1.20922,-0.48577 0.69454,6.66935 0.0935,0.90592 0.14882,1.44899 9.833,-3.9517 -0.0708,-0.003 c -3.59044,-0.53605 -7.88749,-2.54617 -11.33625,-6.36191 l -2.43862,0.98084 c -0.1579,0.0346 -0.30411,0.0963 -0.4377,0.17621 l -10.1606,4.08244 c -0.0919,0.037 -0.18617,0.0624 -0.28165,0.0796 -0.0198,0.003 -0.0406,0.007 -0.0605,0.01 -0.0389,0.005 -0.0792,0.008 -0.11782,0.0109 -0.0198,0.003 -0.038,0.003 -0.0574,0.003 -0.0301,0 -0.0605,-0.003 -0.0904,-0.003 -0.0238,-0.003 -0.0475,-0.004 -0.0708,-0.007 -0.013,0.003 -0.0266,-0.004 -0.0398,-0.004 -0.0541,-0.007 -0.10724,-0.0183 -0.15968,-0.0315 -0.0427,-0.0111 -0.085,-0.0246 -0.12557,-0.0388 -0.0259,-0.009 -0.0511,-0.0153 -0.076,-0.0259 -0.0103,-0.005 -0.0233,-0.008 -0.0331,-0.0135 -0.0575,-0.0251 -0.1146,-0.0536 -0.16846,-0.0863 -0.0204,-0.0122 -0.0391,-0.0266 -0.0589,-0.0388 -0.018,-0.0122 -0.0342,-0.0257 -0.0527,-0.0367 -0.0169,-0.0122 -0.0332,-0.0249 -0.0486,-0.0372 -0.19452,-0.1574 -0.34203,-0.36274 -0.43201,-0.59428 -0.0467,-0.12081 -0.0788,-0.24791 -0.0915,-0.37981 l -0.10491,-1.07074 -1.20819,-12.44523 c -0.0312,-0.31721 0.0442,-0.62585 0.20153,-0.88472 0.15711,-0.2586 0.39632,-0.46709 0.69247,-0.58599 l 12.59975,-5.06326 c 0.15698,-0.0631 0.3215,-0.0967 0.48628,-0.10231 z m 5.16094,37.21324 c 0.27463,-0.009 0.55012,0.0609 0.79166,0.20568 l 0.003,0.005 c 0.34829,0.21161 0.58682,0.56067 0.66302,0.95705 0.003,0.009 0.003,0.0161 0.005,0.0249 0.006,0.0381 0.0124,0.0764 0.0164,0.11575 l 1.02732,10.06864 -2.77191,1.11363 -0.91725,-8.98601 -0.003,-0.0238 -9.82782,3.95428 0.18034,0.0305 c 3.3482,0.93136 7.25948,2.66014 10.64122,5.84099 0.17714,0.16648 0.35375,0.3374 0.52917,0.51157 l 13.08912,-5.25962 c 0.41937,-0.16812 0.89453,-0.12973 1.28157,0.10543 0.3856,0.23429 0.63846,0.63794 0.68265,1.08779 l 1.3131,13.51597 c 0.0101,0.10605 0.007,0.21103 -0.006,0.31366 l 0.004,-0.004 c -0.0246,0.20439 -0.0928,0.39819 -0.19741,0.57049 -0.15711,0.25921 -0.39592,0.46792 -0.69143,0.58706 l -12.60067,5.06196 c -0.41825,0.16886 -0.89141,0.13171 -1.27743,-0.10282 h -0.003 c -0.38484,-0.23381 -0.63778,-0.63346 -0.68369,-1.08055 l -1.0356,-10.10534 1.34979,-0.54261 0.20257,-0.0806 1.20819,-0.48575 0.69506,6.66936 0.0935,0.9059 0.14883,1.44899 9.83351,-3.95168 -0.0718,-0.003 c -3.59045,-0.53604 -7.88697,-2.54616 -11.33573,-6.3619 l -2.43914,0.98084 c -0.15791,0.0346 -0.30412,0.0963 -0.4377,0.17621 l -10.15958,4.08244 c -0.0919,0.037 -0.18666,0.0624 -0.28215,0.0796 -0.0198,0.003 -0.0401,0.007 -0.06,0.01 -0.0389,0.005 -0.0792,0.008 -0.11782,0.0108 -0.0198,0.003 -0.038,0.003 -0.0574,0.003 -0.0301,0 -0.0605,-0.003 -0.0904,-0.003 -0.0238,-0.003 -0.048,-0.004 -0.0713,-0.007 -0.013,0.003 -0.0266,-0.004 -0.0398,-0.004 -0.0541,-0.007 -0.10777,-0.0182 -0.16021,-0.0315 -0.0427,-0.0111 -0.0839,-0.0249 -0.12454,-0.0388 -0.0259,-0.009 -0.0521,-0.0159 -0.077,-0.0265 -0.0103,-0.005 -0.0233,-0.008 -0.0331,-0.0135 -0.0575,-0.0249 -0.11356,-0.0536 -0.16743,-0.0863 -0.0204,-0.0122 -0.0396,-0.0266 -0.0594,-0.0388 -0.018,-0.0122 -0.0347,-0.0257 -0.0532,-0.0367 -0.0169,-0.0122 -0.0322,-0.0249 -0.0476,-0.0372 -0.19452,-0.1574 -0.342,-0.36271 -0.43201,-0.59425 -0.0467,-0.12081 -0.0798,-0.24794 -0.0925,-0.37984 l -0.10387,-1.07074 -1.20819,-12.44523 c -0.0312,-0.31721 0.0437,-0.62582 0.20103,-0.88469 0.15711,-0.2586 0.39682,-0.46712 0.69297,-0.58603 l 12.59975,-5.06325 c 0.15697,-0.0631 0.32149,-0.0968 0.48627,-0.10231 z"
       id="path6503" />
  </g>
</svg>
