<?xml version="1.0" encoding="UTF-8" standalone="no"?>
<!-- Created with Inkscape (http://www.inkscape.org/) -->

<svg
   xmlns:dc="http://purl.org/dc/elements/1.1/"
   xmlns:cc="http://creativecommons.org/ns#"
   xmlns:rdf="http://www.w3.org/1999/02/22-rdf-syntax-ns#"
   xmlns:svg="http://www.w3.org/2000/svg"
   xmlns="http://www.w3.org/2000/svg"
   xmlns:xlink="http://www.w3.org/1999/xlink"
   xmlns:sodipodi="http://sodipodi.sourceforge.net/DTD/sodipodi-0.dtd"
   xmlns:inkscape="http://www.inkscape.org/namespaces/inkscape"
   width="85.512611mm"
   height="381.93069mm"
   viewBox="0 0 85.512614 381.93069"
   version="1.1"
   id="svg5405"
   inkscape:version="0.92.2 2405546, 2018-03-11"
   sodipodi:docname="tie2.svg">
  <defs
     id="defs5399">
    <linearGradient
       inkscape:collect="always"
       xlink:href="#a-62"
       id="linearGradient5252"
       gradientUnits="userSpaceOnUse"
       gradientTransform="matrix(714.36057,385.79032,225.43613,-380.37592,-135143.58,225761.12)"
       x1="1.2438999"
       y1="594.59003"
       x2="2.2439001"
       y2="594.59003" />
    <linearGradient
       id="a-62"
       x1="1.2438999"
       x2="2.2439001"
       y1="594.59003"
       y2="594.59003"
       gradientTransform="matrix(656.07301,371.17128,207.0419,-365.96206,-120613.48,218514.46)"
       gradientUnits="userSpaceOnUse">
      <stop
         stop-color="#DF1F1B"
         offset="0"
         id="stop338-9">
        <animate
           attributeName="stop-color"
           dur="10s"
           repeatCount="indefinite"
           values="#DF1F1B;#EA7D1A;#FFCD03; #81B725; #FFCD03;#EA7D1A;#DF1F1B" />
      </stop>
      <stop
         stop-color="#EA7D1A"
         offset=".5537"
         id="stop340-1">
        <animate
           attributeName="stop-color"
           dur="10s"
           repeatCount="indefinite"
           values="#EA7D1A;#FFCD03;#81B725; #079239; #81B725;#FFCD03;#EA7D1A;" />
      </stop>
      <stop
         stop-color="#FFCD03"
         offset="1"
         id="stop342-2">
        <animate
           attributeName="stop-color"
           dur="10s"
           repeatCount="indefinite"
           values="#FFCD03;#81B725;#079239; #3F95D1; #079239;#81B725;#FFCD03" />
      </stop>
    </linearGradient>
  </defs>
  <sodipodi:namedview
     id="base"
     pagecolor="#ffffff"
     bordercolor="#666666"
     borderopacity="1.0"
     inkscape:pageopacity="0.0"
     inkscape:pageshadow="2"
     inkscape:zoom="0.70068641"
     inkscape:cx="-95.742916"
     inkscape:cy="860.01084"
     inkscape:document-units="mm"
     inkscape:current-layer="layer1"
     showgrid="false"
     fit-margin-top="0"
     fit-margin-left="0"
     fit-margin-right="0"
     fit-margin-bottom="0"
     inkscape:window-width="1899"
     inkscape:window-height="2057"
     inkscape:window-x="9603"
     inkscape:window-y="2202"
     inkscape:window-maximized="0" />
  <metadata
     id="metadata5402">
    <rdf:RDF>
      <cc:Work
         rdf:about="">
        <dc:format>image/svg+xml</dc:format>
        <dc:type
           rdf:resource="http://purl.org/dc/dcmitype/StillImage" />
        <dc:title></dc:title>
      </cc:Work>
    </rdf:RDF>
  </metadata>
  <g
     inkscape:label="Layer 1"
     inkscape:groupmode="layer"
     id="layer1"
     transform="translate(-17.20852,26.808013)">
    <path
       style="fill:url(#linearGradient5252);stroke-width:0.87398666"
       d="M 287.95117,76.123047 C 227.668,77.143225 163.52923,86.820714 154.7793,100.93945 c -4.4698,7.2467 10.93094,53.74692 34.11914,103.38672 l 8.96289,19.14063 9.42969,-3.78907 c 1.5851,-0.63539 3.38095,-0.49036 4.84375,0.39844 1.4575,0.8855 2.41317,2.41113 2.58007,4.11133 l 4.32422,44.50391 12.13282,25.91211 -5.62305,65.10156 15.34765,-6.16602 c 1.5851,-0.6354 3.379,-0.49036 4.8418,0.39844 1.4574,0.8855 2.41306,2.41113 2.58008,4.11133 l 4.96289,51.08203 c 0.037,0.40082 0.0274,0.79765 -0.0195,1.18555 -0.095,0.76743 -0.35104,1.49518 -0.74414,2.14257 -0.5937,0.9797 -1.49453,1.76846 -2.61133,2.21875 l -30.15234,12.11524 -4.30469,49.83008 23.85937,-9.58594 c 0.59331,-0.23856 1.21509,-0.36404 1.83789,-0.38672 1.038,-0.034 2.07714,0.23007 2.99024,0.77734 l 0.0117,0.0117 c 1.3164,0.79979 2.21786,2.12101 2.50586,3.61914 0.005,0.034 0.006,0.0597 0.0156,0.0937 0.023,0.14419 0.0494,0.28897 0.0664,0.4375 l 3.88281,38.05274 -10.47852,4.20898 -3.46484,-33.96289 -0.0117,-0.0879 -22.26758,8.95899 -0.92968,10.75 c 9.0603,3.86917 18.44902,9.42885 26.95312,17.42773 0.6695,0.62922 1.33515,1.27325 1.99805,1.93164 l 49.47265,-19.87891 c 1.585,-0.63541 3.38095,-0.4884 4.84376,0.40039 1.4574,0.88551 2.41122,2.4092 2.57812,4.10938 l 4.96289,51.08398 c 0.0361,0.4009 0.0274,0.79766 -0.0195,1.18555 v -0.0156 c -0.093,0.77238 -0.3507,1.50308 -0.74609,2.15429 -0.5937,0.97981 -1.49638,1.77041 -2.61329,2.22071 l -47.62304,19.13281 c -1.5809,0.63821 -3.36923,0.4977 -4.82813,-0.38867 h -0.01 c -1.4545,-0.88369 -2.40852,-2.39615 -2.58203,-4.08594 l -3.91602,-38.19141 5.10156,-2.05273 0.76367,-0.30469 4.57032,-1.83594 2.62695,25.20704 0.35352,3.42578 0.5625,5.47656 37.1621,-14.93555 -0.26953,-0.0117 c -13.5702,-2.02597 -29.80915,-9.62319 -42.84375,-24.04492 l -9.21875,3.70703 c -0.5968,0.13062 -1.1493,0.36208 -1.65429,0.66406 l -29.45703,11.83985 c -1.2497,14.37607 -2.55195,29.30387 -3.99415,45.63086 1.56261,-0.59411 3.31695,-0.44409 4.75196,0.42773 1.4574,0.88547 2.41317,2.40919 2.58008,4.10938 l 4.96289,51.08398 c 0.0354,0.39615 0.0241,0.78827 -0.0215,1.17188 -0.0932,0.77249 -0.35069,1.50312 -0.74609,2.15429 -0.5938,0.9797 -1.49443,1.77041 -2.61133,2.22071 l -14.90039,5.98632 c -2.0125,22.44182 -4.10623,45.65678 -6.26953,69.5 l 4.19336,-1.68554 c 0.5932,-0.23853 1.21509,-0.36404 1.83789,-0.38672 1.038,-0.034 2.07918,0.23003 2.99219,0.77734 l 0.0117,0.0117 c 1.31639,0.79967 2.2159,2.11714 2.5039,3.61524 0.005,0.034 0.008,0.0636 0.0176,0.0976 0.023,0.14419 0.0494,0.28897 0.0664,0.4375 l 3.88281,38.05274 -10.47852,4.20898 -3.46484,-33.96289 -0.0137,-0.0879 -2.65821,1.07031 c -0.8668,9.5362 -1.72867,19.02185 -2.60937,28.66992 3.0797,2.20324 6.10559,4.65006 9.02539,7.39649 0.6696,0.62918 1.33505,1.27321 1.99805,1.93164 l 49.47265,-19.87891 c 1.5851,-0.63541 3.3789,-0.48844 4.8418,0.40039 1.4574,0.88551 2.4131,2.40916 2.58008,4.10938 l 4.96289,51.08398 c 0.036,0.40082 0.0274,0.79762 -0.0195,1.18555 v -0.0156 c -0.093,0.77249 -0.35069,1.50308 -0.7461,2.15429 -0.59379,0.97969 -1.49648,1.77037 -2.61328,2.22071 l -47.62304,19.13281 c -1.58081,0.63817 -3.36913,0.49774 -4.82813,-0.38867 h -0.01 c -1.4545,-0.8837 -2.40855,-2.39615 -2.58203,-4.08594 l -3.91601,-38.19336 5.10156,-2.05078 0.76367,-0.30469 4.57031,-1.83594 2.625,25.20703 0.35547,3.42578 0.5625,5.47657 37.16211,-14.93555 -0.26953,-0.0117 c -13.5702,-2.0262 -29.80905,-9.62518 -42.84375,-24.04687 l -9.21875,3.70898 c -0.5968,0.13058 -1.1494,0.36208 -1.6543,0.66406 l -10.11328,4.06446 c -5.2453,57.24491 -10.57603,114.68542 -15.61523,168.21679 l 3.74805,33.20704 -7.19532,3.29296 c -0.2128,2.24234 -0.41203,4.30484 -0.62304,6.52534 0.006,0.01 0.01,0.01 0.0195,0.02 l 47.72461,-21.84572 c 1.5292,-0.69906 3.2777,-0.58355 4.71679,0.31836 1.43381,0.89847 2.39145,2.47883 2.58594,4.25781 l 5.79102,53.44525 c 0.042,0.4197 0.038,0.8367 0,1.2442 v 0.01 c -0.0759,0.8115 -0.31139,1.5827 -0.6836,2.2734 -0.55869,1.039 -1.42064,1.8861 -2.49804,2.3809 l -45.94141,21.0273 c -1.5249,0.7006 -3.26267,0.583 -4.70117,-0.3106 l -0.01,-0.01 c -1.4309,-0.8967 -2.38731,-2.4607 -2.58789,-4.2285 l -4.5293,-39.9551 4.92188,-2.2539 0.73633,-0.336 4.4082,-2.0195 3.0293,26.3692 0.41015,3.5839 0.64844,5.7286 35.85156,-16.4122 -0.26171,-0.012 c -13.2321,-1.8471 -29.16553,-9.4803 -42.11133,-24.332 l -8.75391,4.0117 c -0.9345,9.7993 -1.91308,20.1407 -2.80469,29.4102 l -19.41601,202.5507 40.4082,-16.2363 c 1.585,-0.6354 3.38095,-0.4884 4.84375,0.4004 1.4574,0.8856 2.41115,2.4112 2.57813,4.1113 l 4.96484,51.0821 c 0.0358,0.4008 0.0255,0.7976 -0.0215,1.1855 l 0.01,-0.016 c -0.0931,0.7725 -0.35069,1.5031 -0.74609,2.1543 -0.5937,0.9797 -1.49453,1.7704 -2.61133,2.2207 l -47.625,19.1328 c -1.5809,0.6382 -3.36913,0.4977 -4.82813,-0.3887 h -0.01 c -1.4545,-0.8837 -2.41051,-2.3941 -2.58399,-4.0839 l -0.0449,-0.4454 -1.73047,18.0469 30.04102,37.1582 23.71289,-9.5293 c 0.5932,-0.2382 1.21509,-0.364 1.83789,-0.3867 1.038,-0.034 2.07919,0.2281 2.99219,0.7754 l 0.01,0.012 c 1.3165,0.7998 2.21786,2.1211 2.50586,3.6192 0.005,0.034 0.006,0.06 0.0156,0.094 0.023,0.1442 0.0494,0.2886 0.0664,0.4375 l 3.88477,38.0527 -6.25391,2.5118 3.6211,4.4785 43.90234,-17.6426 c 1.5851,-0.6355 3.38085,-0.4885 4.84375,0.4004 1.4574,0.8854 2.41306,2.4092 2.58008,4.1094 l 4.96289,51.0859 c 0.0349,0.4008 0.0294,0.7976 -0.0176,1.1855 -0.095,0.7674 -0.35104,1.4934 -0.74414,2.1407 -0.5937,0.9797 -1.49443,1.7704 -2.61133,2.2207 l -13.19922,5.3027 c 31.9547,38.6849 56.89803,67.0449 59.32813,67.0449 2.7881,0 20.46388,-17.6566 42.89258,-41.8359 l -3.22461,1.2969 c -0.5968,0.1307 -1.15135,0.364 -1.65625,0.666 l -38.39844,15.4297 c -0.3474,0.1398 -0.70343,0.2357 -1.06445,0.3007 -0.075,0.011 -0.15549,0.028 -0.23047,0.039 -0.14709,0.018 -0.29755,0.028 -0.44336,0.039 -0.075,0.012 -0.14381,0.012 -0.2168,0.012 -0.1138,0 -0.22879,-0.012 -0.34179,-0.012 -0.09,-0.01 -0.18155,-0.01 -0.26954,-0.022 -0.0495,0.011 -0.0984,-0.016 -0.14843,-0.016 -0.2044,-0.026 -0.40727,-0.069 -0.60547,-0.1192 -0.16139,-0.042 -0.3212,-0.094 -0.47461,-0.1465 -0.098,-0.034 -0.19507,-0.058 -0.28906,-0.098 -0.0391,-0.019 -0.086,-0.03 -0.12305,-0.053 -0.2172,-0.094 -0.433,-0.2022 -0.63672,-0.3261 -0.077,-0.046 -0.14572,-0.1004 -0.2207,-0.1465 -0.068,-0.046 -0.13313,-0.097 -0.20313,-0.1387 -0.064,-0.046 -0.12167,-0.094 -0.17968,-0.1406 -0.73521,-0.5949 -1.29262,-1.371 -1.63282,-2.2461 -0.17646,-0.4566 -0.29965,-0.939 -0.34765,-1.4375 l -0.39649,-4.0449 -4.56445,-47.0371 c -0.1178,-1.1989 0.16526,-2.3654 0.75976,-3.3438 0.5938,-0.9774 1.49985,-1.7654 2.61915,-2.2148 l 47.62109,-19.1387 c 0.5932,-0.2384 1.21509,-0.3621 1.83789,-0.3848 1.038,-0.034 2.07724,0.2281 2.99023,0.7754 l 0.0117,0.016 c 1.3164,0.7997 2.21786,2.121 2.50586,3.6191 0.006,0.034 0.006,0.058 0.0156,0.092 0.024,0.1442 0.0494,0.289 0.0664,0.4375 l 3.88282,38.0547 -10.47657,4.209 -3.46679,-33.9629 -0.0117,-0.09 -37.14453,14.9434 0.67968,0.1172 c 12.6548,3.5201 27.43941,10.0541 40.22071,22.0761 0.6696,0.6293 1.3371,1.2752 2,1.9336 l 18.45703,-7.416 c 19.8943,-21.9963 41.27492,-46.5113 58.72851,-67.6172 l -32.56836,13.0879 c -0.34737,0.1399 -0.70546,0.2358 -1.0664,0.3008 -0.0748,0.011 -0.15368,0.026 -0.22852,0.037 -0.1471,0.018 -0.29942,0.03 -0.44531,0.041 -0.0752,0.012 -0.14385,0.012 -0.2168,0.012 -0.11376,0 -0.22683,-0.012 -0.33984,-0.012 -0.0899,-0.011 -0.18147,-0.014 -0.26953,-0.025 -0.0491,0.01 -0.1005,-0.016 -0.15039,-0.016 -0.2044,-0.026 -0.40742,-0.069 -0.60547,-0.1191 -0.16127,-0.042 -0.31921,-0.094 -0.47266,-0.1465 -0.0979,-0.035 -0.19495,-0.062 -0.28906,-0.1016 -0.0389,-0.019 -0.0872,-0.026 -0.125,-0.049 -0.21717,-0.094 -0.43105,-0.2022 -0.63477,-0.3262 -0.0767,-0.046 -0.14782,-0.1023 -0.22265,-0.1484 -0.068,-0.046 -0.13125,-0.097 -0.20117,-0.1387 -0.0639,-0.046 -0.12186,-0.094 -0.17969,-0.1406 -0.73531,-0.5949 -1.29457,-1.371 -1.63477,-2.2461 -0.1765,-0.4566 -0.29965,-0.937 -0.34765,-1.4355 l -0.39453,-4.045 -4.56446,-47.0371 c -0.1179,-1.1989 0.16537,-2.3653 0.75977,-3.3437 0.5938,-0.9774 1.49789,-1.7674 2.61719,-2.2168 l 47.62109,-19.1348 c 0.5932,-0.2385 1.21506,-0.364 1.83789,-0.3867 1.03797,-0.034 2.0792,0.23 2.99219,0.7773 l 0.0117,0.01 c 1.31641,0.7998 2.2159,2.1211 2.5039,3.6191 0.008,0.034 0.008,0.066 0.0195,0.1 0.0231,0.1442 0.0475,0.2885 0.0664,0.4375 l 3.88281,38.0527 -10.47851,4.209 -3.4668,-33.9629 -0.0117,-0.088 -37.14258,14.9414 0.67969,0.1172 c 12.65473,3.5201 27.43745,10.056 40.21875,22.0781 0.66962,0.6292 1.33707,1.2713 2,1.9297 l 4.90039,-1.9688 c 0.24011,-0.3039 0.52084,-0.646 0.75781,-0.9472 l 28.38477,-36.1035 -18.33399,-181.8868 -22.08203,8.875 c -0.34741,0.1399 -0.7035,0.2358 -1.06445,0.3008 -0.0752,0.011 -0.15563,0.026 -0.23047,0.037 -0.1471,0.019 -0.29747,0.03 -0.44336,0.041 -0.0752,0.012 -0.14385,0.012 -0.21679,0.012 -0.11377,0 -0.22879,-0.012 -0.3418,-0.012 -0.09,-0.011 -0.18147,-0.016 -0.26953,-0.027 -0.0484,0.01 -0.0985,-0.014 -0.14844,-0.014 -0.20451,-0.026 -0.40742,-0.067 -0.60547,-0.1172 -0.16127,-0.041 -0.31921,-0.095 -0.47266,-0.1484 -0.0979,-0.034 -0.19495,-0.058 -0.28906,-0.098 -0.0393,-0.019 -0.0872,-0.032 -0.125,-0.055 -0.21721,-0.094 -0.43105,-0.2022 -0.63476,-0.3262 -0.0767,-0.046 -0.14782,-0.1004 -0.22266,-0.1465 -0.068,-0.046 -0.1332,-0.097 -0.20312,-0.1387 -0.0643,-0.045 -0.12187,-0.096 -0.17969,-0.1425 -0.7352,-0.5949 -1.29266,-1.3691 -1.63281,-2.2442 -0.17651,-0.4566 -0.29966,-0.939 -0.34766,-1.4375 l -0.39648,-4.0449 -4.56446,-47.0371 c -0.11777,-1.1989 0.16731,-2.3654 0.76172,-3.3438 0.5938,-0.9773 1.49792,-1.7673 2.61719,-2.2168 l 24.81836,-9.9726 -6.48828,-64.3711 -1.35938,0.5449 c -1.58079,0.6382 -3.36911,0.4977 -4.82812,-0.3887 h -0.0117 c -1.45452,-0.8836 -2.41246,-2.3961 -2.58594,-4.0859 l -3.91406,-38.19333 5.10156,-2.05078 0.76563,-0.30469 2.2539,-0.90625 -0.5664,-5.62305 -8.7461,3.51563 c -0.59679,0.13069 -1.14939,0.36403 -1.6543,0.66601 l -38.40039,15.42969 c -0.3474,0.13984 -0.70354,0.23577 -1.06445,0.30078 -0.076,0.0113 -0.15158,0.0277 -0.22656,0.0391 -0.14702,0.0185 -0.30145,0.0297 -0.44727,0.041 -0.075,0.0116 -0.14377,0.0117 -0.21679,0.0117 -0.11369,0 -0.22684,-0.0117 -0.33985,-0.0117 -0.09,-0.0113 -0.18154,-0.0121 -0.26953,-0.0234 -0.049,0.008 -0.10039,-0.0137 -0.15039,-0.0137 -0.2045,-0.0261 -0.40727,-0.0693 -0.60547,-0.11914 -0.16138,-0.0408 -0.31729,-0.0936 -0.4707,-0.14649 -0.098,-0.034 -0.19702,-0.0576 -0.29102,-0.0977 -0.039,-0.017 -0.088,-0.0301 -0.125,-0.0527 -0.2172,-0.0941 -0.43116,-0.2022 -0.63476,-0.32617 -0.077,-0.0461 -0.14767,-0.10233 -0.22266,-0.14844 -0.068,-0.0457 -0.13117,-0.0967 -0.20117,-0.13867 -0.064,-0.0457 -0.12167,-0.0938 -0.17969,-0.14062 -0.7352,-0.5949 -1.29446,-1.37098 -1.63476,-2.2461 -0.17639,-0.4566 -0.29966,-0.93702 -0.34766,-1.43554 l -0.39258,-4.04492 -4.5664,-47.03907 c -0.1179,-1.1989 0.16526,-2.36339 0.75976,-3.34179 0.5938,-0.97743 1.49984,-1.76742 2.61914,-2.2168 l 47.6211,-19.13477 c 0.59331,-0.23852 1.21314,-0.36404 1.83593,-0.38672 0.76162,-0.025 1.52325,0.11284 2.23633,0.40235 l -10.00586,-99.28711 -4.08789,-40.48242 -5.75391,2.3125 c -0.34737,0.13984 -0.70546,0.23577 -1.0664,0.30078 -0.076,0.0113 -0.1533,0.0277 -0.22852,0.0391 -0.14706,0.0185 -0.29942,0.0297 -0.44531,0.041 -0.0752,0.0115 -0.14385,0.0117 -0.2168,0.0117 -0.11376,0 -0.22683,-0.0117 -0.33984,-0.0117 -0.0899,-0.0113 -0.18147,-0.016 -0.26953,-0.0274 -0.0491,0.008 -0.1005,-0.0137 -0.15039,-0.0137 -0.20447,-0.0261 -0.40547,-0.0673 -0.60352,-0.11719 -0.16127,-0.0412 -0.32116,-0.0955 -0.47461,-0.14843 -0.0979,-0.034 -0.19495,-0.0596 -0.28906,-0.0996 -0.0389,-0.017 -0.0872,-0.0281 -0.125,-0.0508 -0.21721,-0.0949 -0.4291,-0.20221 -0.63281,-0.32618 -0.0771,-0.0457 -0.14978,-0.10037 -0.22461,-0.14648 -0.0677,-0.0457 -0.13125,-0.0987 -0.20117,-0.14063 -0.0639,-0.0457 -0.12382,-0.0938 -0.18164,-0.14062 -0.73531,-0.5949 -1.29266,-1.37098 -1.63282,-2.24609 -0.1765,-0.45661 -0.29965,-0.93707 -0.34765,-1.43555 l -0.39453,-4.04492 -4.56446,-47.03711 c -0.11781,-1.19887 0.16529,-2.36535 0.75977,-3.34375 0.5938,-0.97743 1.49788,-1.76741 2.61719,-2.2168 l 8.48632,-3.41016 -5.6914,-56.39062 c -1.51261,0.5201 -3.18149,0.35632 -4.5586,-0.48047 h -0.0117 c -1.45452,-0.88369 -2.41051,-2.39416 -2.58399,-4.08398 l -3.91406,-38.19336 5.10156,-2.05078 0.76367,-0.30665 0.62305,-0.25 -0.56641,-5.62304 -7.11328,2.86133 c -0.59679,0.13069 -1.14941,0.36207 -1.6543,0.66406 l -38.40039,15.43164 c -0.34739,0.13984 -0.70343,0.23577 -1.06445,0.30078 -0.075,0.0113 -0.15353,0.0258 -0.22851,0.0371 -0.14701,0.0181 -0.2995,0.0297 -0.44532,0.041 -0.075,0.0113 -0.14377,0.0117 -0.21679,0.0117 -0.11377,0 -0.22879,-0.0117 -0.3418,-0.0117 -0.09,-0.0113 -0.18154,-0.0121 -0.26953,-0.0234 -0.0494,0.008 -0.0984,-0.0176 -0.14844,-0.0176 -0.2045,-0.0261 -0.40727,-0.0673 -0.60547,-0.11719 -0.16139,-0.0412 -0.31924,-0.0955 -0.47265,-0.14844 -0.098,-0.034 -0.19507,-0.0576 -0.28907,-0.0977 -0.039,-0.017 -0.088,-0.0281 -0.125,-0.0508 -0.2172,-0.0941 -0.43116,-0.20221 -0.63476,-0.32617 -0.077,-0.0461 -0.14767,-0.10038 -0.22266,-0.14649 -0.068,-0.0457 -0.13313,-0.0967 -0.20312,-0.13867 -0.064,-0.0446 -0.12168,-0.0946 -0.17969,-0.14258 -0.7352,-0.59482 -1.29262,-1.36907 -1.63281,-2.24414 -0.17651,-0.4566 -0.29966,-0.93902 -0.34766,-1.4375 l -0.39648,-4.04492 -4.56446,-47.03711 c -0.1177,-1.19891 0.16732,-2.36534 0.76172,-3.34375 0.5938,-0.97742 1.49789,-1.76741 2.61719,-2.2168 l 47.62109,-19.13476 c 0.59331,-0.23853 1.2151,-0.36782 1.83789,-0.38672 h 0.0117 c 0.16324,-0.0113 0.32539,0.008 0.48828,0.0195 l -6.55078,-64.91992 -26.43164,10.61914 c -1.5808,0.63821 -3.36912,0.4977 -4.82812,-0.38867 h -0.01 c -1.4545,-0.88373 -2.40855,-2.39615 -2.58203,-4.08594 l -3.91602,-38.19336 5.10157,-2.05078 0.76367,-0.30469 4.57031,-1.83594 2.625,25.20703 0.35547,3.42578 0.56055,5.47657 22.65625,-9.10547 -1.0293,-10.20508 c -9.4764,-3.96299 -19.18847,-10.4033 -27.57617,-19.68359 l -9.21875,3.70898 c -0.5968,0.1307 -1.1494,0.36208 -1.6543,0.66406 l -38.40039,15.42969 c -0.3474,0.13984 -0.70355,0.23773 -1.06445,0.30274 -0.076,0.0113 -0.15353,0.0219 -0.22852,0.0332 -0.14698,0.0185 -0.2995,0.0297 -0.44531,0.041 -0.075,0.0113 -0.14378,0.0117 -0.2168,0.0117 -0.11391,0 -0.22683,-0.0117 -0.33984,-0.0117 -0.09,-0.008 -0.18155,-0.0101 -0.26953,-0.0215 -0.049,0 -0.10039,-0.0156 -0.15039,-0.0156 -0.2045,-0.0261 -0.40727,-0.0693 -0.60547,-0.11914 -0.1614,-0.0423 -0.31925,-0.0936 -0.47266,-0.14648 -0.098,-0.034 -0.19506,-0.0596 -0.28906,-0.0996 -0.039,-0.0189 -0.088,-0.0262 -0.125,-0.0488 -0.2172,-0.0949 -0.43116,-0.20258 -0.63477,-0.32617 -0.077,-0.0461 -0.14767,-0.10233 -0.22265,-0.14844 -0.068,-0.0457 -0.13118,-0.0967 -0.20117,-0.13867 -0.064,-0.0446 -0.12168,-0.0938 -0.17969,-0.14062 -0.7352,-0.5949 -1.29457,-1.37099 -1.63477,-2.2461 -0.1765,-0.45656 -0.29965,-0.93702 -0.34765,-1.43554 l -0.39454,-4.04493 -4.56445,-47.03711 c -0.1179,-1.1989 0.16527,-2.36534 0.75977,-3.34375 0.5938,-0.97738 1.49788,-1.76741 2.61718,-2.21679 l 47.6211,-19.13477 c 0.5933,-0.23856 1.21509,-0.36404 1.83789,-0.38672 1.038,-0.034 2.07919,0.22808 2.99219,0.77539 l 0.01,0.0137 c 1.3164,0.79978 2.21786,2.12104 2.50586,3.61914 0.008,0.034 0.008,0.0597 0.0176,0.0937 0.023,0.14419 0.0494,0.28896 0.0664,0.4375 l 3.88281,38.05468 -10.47852,4.20899 -3.46679,-33.96289 -0.0117,-0.0899 -37.14258,14.94336 0.67969,0.11524 c 12.6547,3.5201 27.43735,10.05605 40.21875,22.07812 0.6695,0.62922 1.337,1.27325 2,1.93164 l 31.00976,-12.46093 -12.1582,-120.49415 36.84961,-84.9746 -0.58008,0.23242 c -0.5969,0.1307 -1.14939,0.36399 -1.6543,0.66601 l -38.39843,15.42969 c -0.3474,0.13992 -0.70539,0.23577 -1.06641,0.30078 -0.076,0.0121 -0.15353,0.0273 -0.22852,0.0371 -0.14709,0.0198 -0.29961,0.0312 -0.44531,0.041 -0.075,0.0121 -0.14378,0.0117 -0.2168,0.0117 -0.1138,0 -0.22683,-0.0107 -0.33984,-0.0117 -0.09,-0.01 -0.18154,-0.0156 -0.26953,-0.0254 -0.049,0.01 -0.10039,-0.0137 -0.15039,-0.0137 -0.2044,-0.0261 -0.40738,-0.0691 -0.60547,-0.11914 -0.16149,-0.042 -0.31925,-0.0935 -0.47266,-0.14648 -0.098,-0.034 -0.19506,-0.0577 -0.28906,-0.0977 -0.0391,-0.0181 -0.086,-0.0289 -0.12305,-0.0508 -0.2172,-0.094 -0.43311,-0.20235 -0.63671,-0.32617 -0.077,-0.046 -0.14767,-0.10049 -0.22266,-0.14648 -0.068,-0.0457 -0.13118,-0.0967 -0.20117,-0.13868 -0.064,-0.0446 -0.12171,-0.0936 -0.17969,-0.14062 -0.7353,-0.5949 -1.29468,-1.37099 -1.63477,-2.24609 -0.17661,-0.45661 -0.29965,-0.93705 -0.34765,-1.43555 l -0.39453,-4.04492 -4.56446,-47.03907 c -0.1178,-1.1989 0.16527,-2.36535 0.75977,-3.34375 0.5938,-0.9774 1.49789,-1.76544 2.61719,-2.21484 l 47.62109,-19.13477 c 0.5932,-0.2384 1.21702,-0.3675 1.83984,-0.38867 1.03809,-0.034 2.07726,0.23005 2.99024,0.77735 l 0.0117,0.0117 c 1.31641,0.7998 2.21786,2.12104 2.50586,3.61914 0,0.034 0.008,0.0589 0.0195,0.0918 0.0231,0.1441 0.0436,0.28882 0.0625,0.4375 l 3.84961,37.72461 c 16.52647,-39.3393 28.95703,-72.74579 28.95703,-78.43359 0,-4.9651 -12.78854,-13.501557 -30.83594,-21.285158 l 0.51758,5.333984 c 0.0352,0.4008 0.0273,0.797647 -0.0195,1.185547 -0.094,0.767399 -0.35115,1.493327 -0.74414,2.140627 -0.59369,0.9797 -1.49452,1.7704 -2.61133,2.2207 l -47.62305,19.13281 c -1.5808,0.6382 -3.36922,0.49773 -4.82812,-0.38867 h -0.01 c -1.4544,-0.8837 -2.40855,-2.39614 -2.58203,-4.08594 l -3.91601,-38.191402 3.86523,-1.554687 c -3.9671,-0.364997 -8.0794,-0.660922 -12.2793,-0.91211 l -32.83008,13.19336 c -0.34739,0.139918 -0.70538,0.235773 -1.0664,0.300781 -0.075,0.01209 -0.15353,0.02728 -0.22852,0.03711 -0.14709,0.01984 -0.2995,0.03119 -0.44531,0.04102 -0.075,0.01209 -0.14381,0.01172 -0.2168,0.01172 -0.1138,0 -0.22695,-0.01172 -0.33984,-0.01172 -0.09,-0.0098 -0.18154,-0.01361 -0.26953,-0.02344 -0.049,0 -0.10039,-0.01563 -0.15039,-0.01563 -0.2044,-0.02619 -0.40727,-0.06914 -0.60547,-0.11914 -0.16142,-0.04199 -0.31925,-0.0935 -0.47266,-0.146485 -0.098,-0.03401 -0.19506,-0.05767 -0.28906,-0.09766 -0.039,-0.01803 -0.088,-0.02691 -0.125,-0.04883 -0.2172,-0.09502 -0.43116,-0.202392 -0.63477,-0.326172 -0.077,-0.046 -0.14767,-0.102441 -0.22265,-0.148437 -0.068,-0.04569 -0.13118,-0.09668 -0.20117,-0.138672 -0.064,-0.0446 -0.12168,-0.09365 -0.17969,-0.140625 -0.7353,-0.594902 -1.29468,-1.370994 -1.63477,-2.246094 -0.1765,-0.456601 -0.29965,-0.937046 -0.34765,-1.435547 l -0.39453,-4.044922 z m 60.37891,2.400391 2.27734,21.867182 0.35547,3.42579 0.56055,5.47656 37.16406,-14.935548 -0.26953,-0.01172 c -10.35232,-1.545501 -22.25427,-6.345037 -33.10547,-14.93164 -2.2679,-0.319498 -4.59382,-0.618121 -6.98242,-0.890624 z M 242.875,96.933594 h 0.004 c 1.03799,-0.034 2.07723,0.229943 2.99023,0.777344 l 0.0137,0.0098 c 1.3164,0.799801 2.21786,2.121042 2.50586,3.619132 0.005,0.034 0.006,0.0628 0.0156,0.0957 0.023,0.14409 0.0494,0.28881 0.0664,0.4375 l 3.88282,38.05273 -10.47657,4.20899 -3.46679,-33.96289 -0.0137,-0.0898 -37.14453,14.94336 0.67969,0.11719 c 12.6547,3.5201 27.4394,10.05407 40.2207,22.07617 0.6696,0.6292 1.33515,1.27324 1.99805,1.93164 l 49.47266,-19.87891 c 1.5851,-0.6354 3.38085,-0.48841 4.84375,0.4004 1.4574,0.88549 2.41133,2.40917 2.57812,4.10937 l 4.96485,51.08398 c 0.0361,0.3961 0.0245,0.78828 -0.0215,1.17188 -0.093,0.7726 -0.35069,1.5031 -0.74609,2.1543 -0.5937,0.9797 -1.49638,1.7705 -2.61328,2.2207 l -47.62305,19.13477 c -1.5809,0.63819 -3.36913,0.49577 -4.82813,-0.39063 h -0.0117 c -1.4545,-0.8837 -2.40844,-2.39418 -2.58204,-4.08398 l -3.91406,-38.19336 5.09961,-2.05274 0.76367,-0.30469 4.57032,-1.83593 2.62695,25.20703 0.35351,3.42578 0.5625,5.47656 37.16211,-14.93554 -0.26757,-0.0117 c -13.57021,-2.026 -29.81111,-9.62323 -42.84571,-24.04493 l -9.21679,3.70704 c -0.59681,0.1307 -1.15135,0.36215 -1.65625,0.66406 l -38.39649,15.43164 c -0.3474,0.13992 -0.70343,0.23577 -1.06445,0.30078 -0.0754,0.0121 -0.15548,0.0273 -0.23047,0.0371 -0.1471,0.0198 -0.29755,0.0312 -0.44336,0.041 -0.075,0.0114 -0.14577,0.0117 -0.21875,0.0117 -0.1138,0 -0.22684,-0.0107 -0.33984,-0.0117 -0.0902,-0.01 -0.18155,-0.0156 -0.26953,-0.0254 -0.049,0 -0.10039,-0.0137 -0.1504,-0.0137 -0.20449,-0.0262 -0.40531,-0.0672 -0.60351,-0.11719 -0.16142,-0.042 -0.3212,-0.0954 -0.47461,-0.14842 -0.0977,-0.034 -0.19507,-0.0577 -0.28906,-0.0977 -0.0391,-0.018 -0.086,-0.0269 -0.12305,-0.0488 -0.2172,-0.094 -0.433,-0.20246 -0.63672,-0.32617 -0.077,-0.046 -0.14572,-0.10049 -0.2207,-0.14648 -0.068,-0.0456 -0.13313,-0.0986 -0.20313,-0.14063 -0.0637,-0.0447 -0.12167,-0.0936 -0.17968,-0.14062 -0.73521,-0.5949 -1.2927,-1.371 -1.63282,-2.2461 -0.17646,-0.45661 -0.29965,-0.93705 -0.34765,-1.43554 l -0.39649,-4.04493 -4.56445,-47.03711 c -0.1178,-1.1989 0.16526,-2.36535 0.75977,-3.34374 0.59379,-0.97741 1.49984,-1.7674 2.61914,-2.2168 l 47.62109,-19.134773 c 0.5932,-0.238416 1.21509,-0.365553 1.83789,-0.386718 z m 144.44336,65.302736 -37.14258,14.94336 0.68164,0.11719 c 12.6547,3.5201 27.4394,10.05407 40.2207,22.07617 0.66951,0.6292 1.33516,1.27324 1.99805,1.93164 l 4.96094,-1.99414 c 1.02051,-2.3995 2.04235,-4.78879 3.03516,-7.15039 l -10.27344,4.12695 -3.46485,-33.96289 z m -103.30469,71.45508 h 0.004 c 1.038,-0.034 2.08073,0.22988 2.99414,0.77734 l 0.01,0.0117 c 1.3165,0.7998 2.21775,2.11909 2.50586,3.61719 0.006,0.034 0.006,0.0628 0.0156,0.0957 0.023,0.1441 0.0494,0.28881 0.0664,0.4375 l 3.88476,38.05469 -10.47852,4.20703 -3.46679,-33.96094 -0.0137,-0.0898 -37.14258,14.94336 0.67969,0.11718 c 12.6547,3.5201 27.43745,10.05408 40.21875,22.07618 0.6696,0.6292 1.3371,1.27324 2,1.93164 l 49.4707,-19.87696 c 1.5851,-0.6354 3.38085,-0.49036 4.84375,0.39844 1.4573,0.8855 2.41306,2.41113 2.58008,4.11133 l 4.96289,51.08203 c 0.0371,0.4008 0.0255,0.79765 -0.0215,1.18555 -0.094,0.7674 -0.35114,1.49322 -0.74414,2.14062 -0.5938,0.9797 -1.49443,1.7704 -2.61133,2.22071 l -47.625,19.13476 c -1.58079,0.6382 -3.36912,0.49578 -4.82812,-0.39062 h -0.01 c -1.45449,-0.8837 -2.41046,-2.39419 -2.58398,-4.08399 l -3.91406,-38.19336 5.10156,-2.05078 0.76367,-0.30859 4.56836,-1.83203 2.62695,25.20507 0.35547,3.42578 0.56055,5.47657 37.16406,-14.93555 -0.26953,-0.0137 c -13.5702,-2.026 -29.80915,-9.62322 -42.84375,-24.04492 l -9.21875,3.70703 c -0.5969,0.1307 -1.1494,0.36215 -1.6543,0.66406 l -38.40039,15.43164 c -0.3475,0.13992 -0.70343,0.23577 -1.06445,0.30078 -0.0755,0.0121 -0.15353,0.0273 -0.22852,0.0371 -0.14709,0.0198 -0.29961,0.0312 -0.44531,0.041 -0.0751,0.0121 -0.14381,0.0117 -0.21679,0.0117 -0.11381,0 -0.22879,-0.0107 -0.3418,-0.0117 -0.0902,-0.0102 -0.17959,-0.0136 -0.26758,-0.0234 -0.049,0 -0.10039,-0.0156 -0.15039,-0.0156 -0.2045,-0.0262 -0.40738,-0.0672 -0.60547,-0.11718 -0.16151,-0.042 -0.31924,-0.0954 -0.47266,-0.14844 -0.0977,-0.034 -0.19506,-0.0557 -0.28906,-0.0957 -0.039,-0.0181 -0.088,-0.0289 -0.125,-0.0508 -0.2172,-0.094 -0.43116,-0.20236 -0.63476,-0.32618 -0.077,-0.046 -0.14767,-0.10048 -0.22266,-0.14648 -0.068,-0.0457 -0.13118,-0.0967 -0.20117,-0.13867 -0.0637,-0.0446 -0.12363,-0.0956 -0.18164,-0.14258 -0.7352,-0.5949 -1.29273,-1.36904 -1.63281,-2.24414 -0.17662,-0.4566 -0.29966,-0.939 -0.34766,-1.4375 l -0.39453,-4.04492 -4.56641,-47.03711 c -0.1179,-1.1989 0.16722,-2.36535 0.76172,-3.34375 0.5938,-0.9774 1.49789,-1.7674 2.61719,-2.2168 l 47.62109,-19.13477 c 0.5932,-0.23849 1.21509,-0.36555 1.83789,-0.38671 z m -61.92969,166.00781 -1.29492,14.97461 21.28906,-8.55469 -0.26953,-0.0117 c -6.2042,-0.92628 -12.96591,-3.03308 -19.72461,-6.4082 z m 153.07227,159.48437 -37.14453,14.94336 0.68164,0.11719 c 12.6547,3.5201 27.43733,10.0541 40.21875,22.07617 0.6695,0.62922 1.33699,1.27314 2,1.93164 l 4.30664,-1.73047 -0.57617,-5.69921 -6.00781,2.41211 -3.4668,-33.96094 z m -89.4043,74.35157 0.006,0.002 c 1.038,-0.034 2.07909,0.23007 2.99219,0.77734 l 0.01,0.0117 c 1.31639,0.79979 2.21774,2.12105 2.50585,3.61914 0.006,0.034 0.006,0.0578 0.0156,0.0918 0.023,0.14423 0.0514,0.28859 0.0684,0.4375 l 3.88281,38.05469 -10.47851,4.20898 -3.4668,-33.96289 -0.0137,-0.0918 -37.14258,14.94336 0.67969,0.11719 c 12.65469,3.5201 27.43745,10.05602 40.21875,22.07813 0.6696,0.62917 1.33709,1.27125 2,1.92968 L 336.5,665.875 c 1.5851,-0.63538 3.38085,-0.49036 4.84375,0.39844 1.4574,0.8855 2.41317,2.41114 2.58008,4.11133 l 4.96289,51.08203 c 0.037,0.40078 0.0275,0.79765 -0.0195,1.18554 -0.094,0.7674 -0.35309,1.4953 -0.7461,2.14258 -0.59379,0.97973 -1.49247,1.76846 -2.60937,2.21875 l -47.625,19.13477 c -1.5808,0.63821 -3.36923,0.49774 -4.82813,-0.38867 h -0.0117 c -1.45451,-0.8837 -2.41047,-2.3942 -2.58399,-4.08399 l -3.91406,-38.19336 5.10156,-2.05078 0.76367,-0.30469 4.56836,-1.83593 2.62696,25.20507 0.35546,3.42579 0.56055,5.47656 37.16406,-14.93555 -0.26953,-0.0117 c -13.5702,-2.02601 -29.80915,-9.62323 -42.84375,-24.04492 l -9.21875,3.70703 c -0.5968,0.1307 -1.1494,0.36208 -1.6543,0.66406 L 245.30277,714.209 c -0.34739,0.13985 -0.70354,0.23578 -1.06445,0.30079 -0.0755,0.0113 -0.15353,0.0277 -0.22851,0.0391 -0.14712,0.0185 -0.29962,0.0297 -0.44532,0.041 -0.0751,0.0113 -0.14377,0.0117 -0.21679,0.0117 -0.11381,0 -0.22684,-0.0117 -0.33985,-0.0117 -0.0902,-0.0113 -0.18154,-0.016 -0.26953,-0.0273 -0.049,0.0113 -0.10039,-0.0156 -0.15039,-0.0156 -0.2045,-0.0261 -0.40727,-0.0673 -0.60547,-0.11719 -0.16139,-0.0423 -0.31924,-0.0955 -0.47265,-0.14844 -0.0977,-0.034 -0.19507,-0.0556 -0.28907,-0.0957 -0.039,-0.017 -0.088,-0.0281 -0.125,-0.0508 -0.2172,-0.0949 -0.43105,-0.20259 -0.63476,-0.32618 -0.077,-0.0461 -0.14767,-0.10037 -0.22266,-0.14648 -0.068,-0.0457 -0.13117,-0.0967 -0.20117,-0.13867 -0.0637,-0.0457 -0.12363,-0.0938 -0.18164,-0.14063 -0.7353,-0.5949 -1.29273,-1.37098 -1.63281,-2.24609 -0.17662,-0.45661 -0.29966,-0.93707 -0.34766,-1.43555 l -0.39453,-4.04687 -4.56445,-47.03711 c -0.11771,-1.19891 0.16526,-2.36538 0.75976,-3.34375 0.5938,-0.97743 1.49789,-1.76741 2.61719,-2.2168 l 47.62109,-19.13476 c 0.5932,-0.23857 1.21499,-0.36405 1.83789,-0.38672 z m -84.69922,7.3457 c -0.10877,1.21701 -0.20113,2.27311 -0.31054,3.49609 l 5.98828,-2.40625 -0.26953,-0.0117 c -1.7613,-0.2629 -3.56981,-0.62469 -5.40821,-1.07812 z m 197.26954,85.51172 -1.78516,0.71875 0.67969,0.11523 c 0.40482,0.11263 0.81754,0.23679 1.22656,0.35547 z m -54.04297,60.125 0.004,0.004 c 1.03801,-0.034 2.07919,0.23007 2.99219,0.77735 l 0.0117,0.0117 c 1.3164,0.79978 2.21591,2.11909 2.50391,3.61718 0.008,0.034 0.008,0.0617 0.0176,0.0957 0.023,0.14422 0.0494,0.28858 0.0664,0.4375 l 3.88281,38.05273 -10.47851,4.20899 -3.46485,-33.96289 -0.0137,-0.0879 -37.14258,14.94335 0.67969,0.11719 c 12.6547,3.5201 27.4394,10.0541 40.2207,22.07617 0.6695,0.62922 1.33515,1.27325 1.99805,1.93164 l 49.47266,-19.8789 c 1.58513,-0.63542 3.37889,-0.4884 4.84179,0.40039 1.45743,0.8855 2.41303,2.40915 2.58008,4.10937 l 4.96289,51.08399 c 0.037,0.40089 0.0273,0.79765 -0.0195,1.18554 v -0.0156 c -0.093,0.77242 -0.3506,1.50312 -0.74609,2.1543 -0.59369,0.9798 -1.49651,1.77041 -2.61328,2.2207 l -47.62305,19.13281 c -1.5808,0.63821 -3.36923,0.49774 -4.82813,-0.38867 h -0.01 c -1.4545,-0.88369 -2.40851,-2.39615 -2.58203,-4.08594 l -3.91602,-38.1914 5.10156,-2.05274 0.76368,-0.30468 4.57031,-1.83594 2.625,25.20703 0.35547,3.42578 0.5625,5.47656 37.16211,-14.93554 -0.26953,-0.0117 c -13.57021,-2.02602 -29.80915,-9.62323 -42.84375,-24.04493 l -9.21875,3.70704 c -0.59681,0.13069 -1.1494,0.36207 -1.6543,0.66406 l -38.39844,15.43164 c -0.3474,0.13984 -0.70542,0.23577 -1.06641,0.30078 -0.075,0.0113 -0.15352,0.0277 -0.22851,0.0391 -0.1471,0.0185 -0.2995,0.0297 -0.44531,0.041 -0.075,0.0113 -0.14382,0.01 -0.2168,0.01 -0.1138,0 -0.22695,-0.01 -0.33984,-0.01 -0.09,-0.0113 -0.18155,-0.016 -0.26954,-0.0273 -0.049,0.008 -0.10038,-0.0156 -0.15039,-0.0156 -0.2044,-0.0261 -0.40727,-0.0673 -0.60546,-0.11719 -0.16142,-0.0419 -0.31925,-0.0955 -0.47266,-0.14844 -0.098,-0.034 -0.19507,-0.0556 -0.28906,-0.0957 -0.039,-0.0189 -0.088,-0.0301 -0.125,-0.0527 -0.2172,-0.0941 -0.43117,-0.20258 -0.63477,-0.32617 -0.077,-0.0461 -0.14767,-0.10038 -0.22266,-0.14649 -0.068,-0.0457 -0.13117,-0.0967 -0.20117,-0.13867 -0.064,-0.0453 -0.12167,-0.0957 -0.17968,-0.14258 -0.7353,-0.5949 -1.29457,-1.36903 -1.63477,-2.24414 -0.17647,-0.4566 -0.29966,-0.93898 -0.34766,-1.4375 l -0.39453,-4.04492 -4.56445,-47.03711 c -0.1179,-1.19887 0.16537,-2.36534 0.75976,-3.34375 0.59381,-0.97739 1.49789,-1.76737 2.61719,-2.2168 l 47.6211,-19.13476 c 0.5932,-0.23853 1.21508,-0.36404 1.83789,-0.38672 z m -86.33985,90.39844 0.002,0.002 c 1.03799,-0.034 2.07723,0.22992 2.99023,0.77734 l 0.0117,0.0117 c 1.3164,0.79971 2.21786,2.12101 2.50586,3.61914 0,0.0336 0.008,0.0578 0.0176,0.0918 0.024,0.14381 0.0474,0.28896 0.0645,0.4375 l 3.88281,38.05469 -10.47656,4.20898 -3.4668,-33.96289 -0.0117,-0.0898 -37.14453,14.94531 0.67969,0.11523 c 12.6548,3.5201 27.4394,10.0541 40.2207,22.07617 0.6696,0.62922 1.3371,1.27521 2,1.9336 l 49.47071,-19.87891 c 1.58499,-0.63541 3.38085,-0.49039 4.84375,0.39844 1.4574,0.88547 2.41122,2.41111 2.57812,4.11133 l 4.96485,51.08398 c 0.0362,0.40082 0.0235,0.79773 -0.0234,1.18555 -0.095,0.76588 -0.34989,1.49256 -0.74219,2.13867 -0.5937,0.97969 -1.49453,1.77041 -2.61133,2.2207 l -47.625,19.13282 c -1.5809,0.63817 -3.36912,0.49774 -4.82812,-0.38868 h -0.01 c -1.4545,-0.88369 -2.40844,-2.39419 -2.58203,-4.08398 l -3.91406,-38.19336 5.09961,-2.05078 0.76562,-0.30469 4.56836,-1.83593 2.62696,25.20703 0.35351,3.42382 0.5625,5.47657 37.16211,-14.93555 -0.26758,-0.0117 c -13.5702,-2.02598 -29.8111,-9.62323 -42.8457,-24.04492 l -9.2168,3.70703 c -0.5968,0.1307 -1.1494,0.36403 -1.6543,0.66602 l -38.40039,15.42968 c -0.34739,0.13985 -0.70347,0.23578 -1.06445,0.30078 -0.0754,0.0113 -0.15548,0.0258 -0.23047,0.0371 -0.14708,0.0185 -0.29754,0.0316 -0.44336,0.043 -0.075,0.0115 -0.14381,0.01 -0.21679,0.01 -0.11377,0 -0.22879,-0.01 -0.3418,-0.01 -0.0902,-0.0113 -0.18154,-0.0121 -0.26953,-0.0234 -0.0494,0 -0.0984,-0.0156 -0.14844,-0.0156 -0.2044,-0.0261 -0.40727,-0.0693 -0.60547,-0.11914 -0.16139,-0.042 -0.31924,-0.0936 -0.47265,-0.14648 -0.0977,-0.034 -0.19702,-0.0576 -0.29102,-0.0977 -0.039,-0.0189 -0.086,-0.0301 -0.12305,-0.0527 -0.2172,-0.0949 -0.43116,-0.20258 -0.63476,-0.32617 -0.077,-0.0461 -0.14767,-0.10037 -0.22266,-0.14648 -0.068,-0.0457 -0.13313,-0.0967 -0.20312,-0.13867 -0.0637,-0.0457 -0.12168,-0.0938 -0.17969,-0.14063 -0.7351,-0.5949 -1.29262,-1.37098 -1.63281,-2.24609 -0.17651,-0.45661 -0.29966,-0.93707 -0.34766,-1.43555 l -0.39648,-4.04492 -4.56446,-47.03906 c -0.1178,-1.19887 0.16732,-2.36535 0.76172,-3.34375 0.5938,-0.97739 1.49779,-1.76565 2.61719,-2.21485 l 47.62109,-19.13476 c 0.5932,-0.23853 1.2151,-0.366 1.83789,-0.38867 z m 152.90235,52.97851 -37.14258,14.94336 0.67969,0.11523 c 12.6547,3.52011 27.43737,10.0541 40.21875,22.07618 0.6695,0.62921 1.33699,1.2752 2,1.93359 l 5.94531,-2.38867 -0.57422,-5.70117 -7.64844,3.07226 -3.46679,-33.96289 z m -89.39844,74.34767 0.006,0.01 c 1.038,-0.034 2.07713,0.2281 2.99023,0.7754 l 0.0117,0.012 c 1.3164,0.7997 2.21786,2.1209 2.50586,3.6191 0,0.034 0.006,0.06 0.0156,0.094 0.023,0.1442 0.0494,0.2886 0.0664,0.4375 l 3.88282,38.0527 -10.47852,4.209 -3.46484,-33.9629 -0.0117,-0.088 -37.14453,14.9434 0.67968,0.1152 c 12.6547,3.5201 27.4393,10.0542 40.22071,22.0762 0.66949,0.6293 1.33514,1.2751 1.99804,1.9336 l 49.47266,-19.8789 c 1.585,-0.6355 3.3789,-0.4884 4.8418,0.4004 1.45737,0.8855 2.41302,2.4091 2.58007,4.1094 l 4.96289,51.0839 c 0.0359,0.3962 0.0266,0.7883 -0.0195,1.1719 -0.093,0.7725 -0.35068,1.5031 -0.74609,2.1543 -0.59369,0.9797 -1.49636,1.7703 -2.61328,2.2207 l -47.62305,19.1328 c -1.5809,0.6382 -3.36922,0.4977 -4.82812,-0.3886 h -0.0117 c -1.4545,-0.8837 -2.40852,-2.3962 -2.58203,-4.086 l -3.91602,-38.1933 5.10156,-2.0508 0.76368,-0.3047 4.57031,-1.8359 2.62695,25.207 0.35352,3.4238 0.5625,5.4785 37.16211,-14.9355 -0.26953,-0.016 c -13.57021,-2.0261 -29.80915,-9.6233 -42.84376,-24.045 l -9.21874,3.7071 c -0.5968,0.1307 -1.1493,0.364 -1.6543,0.666 l -38.39844,15.4297 c -0.3474,0.1398 -0.7055,0.2357 -1.06641,0.3008 -0.076,0.011 -0.15353,0.028 -0.22851,0.039 -0.14709,0.018 -0.29755,0.03 -0.44336,0.041 -0.075,0.012 -0.14573,0.012 -0.21875,0.012 -0.1138,0 -0.22684,-0.012 -0.33984,-0.012 -0.09,-0.011 -0.18155,-0.016 -0.26954,-0.027 -0.049,0.01 -0.10038,-0.014 -0.15039,-0.014 -0.2045,-0.026 -0.40727,-0.069 -0.60546,-0.1191 -0.16139,-0.042 -0.31925,-0.096 -0.47266,-0.1485 -0.098,-0.034 -0.19507,-0.06 -0.28906,-0.1 -0.039,-0.019 -0.086,-0.026 -0.12305,-0.049 -0.2172,-0.094 -0.43312,-0.2022 -0.63672,-0.3262 -0.077,-0.046 -0.14767,-0.1023 -0.22266,-0.1484 -0.068,-0.046 -0.13117,-0.097 -0.20117,-0.1387 -0.064,-0.046 -0.12167,-0.094 -0.17968,-0.1406 -0.7352,-0.5949 -1.29251,-1.371 -1.63282,-2.2461 -0.17639,-0.4566 -0.29965,-0.937 -0.34765,-1.4356 l -0.39649,-4.0449 -4.56445,-47.0371 c -0.1178,-1.1989 0.16527,-2.3653 0.75976,-3.3437 0.59381,-0.9774 1.49789,-1.7674 2.61719,-2.2168 l 47.6211,-19.1348 c 0.5932,-0.2386 1.21704,-0.364 1.83984,-0.3867 z m -86.33789,90.4004 h -0.004 0.01 c 1.038,-0.034 2.07723,0.23 2.99023,0.7773 l 0.0117,0.012 c 1.3165,0.7999 2.21775,2.1211 2.50586,3.6192 0.005,0.034 0.007,0.058 0.0176,0.092 0.022,0.1442 0.0474,0.2886 0.0644,0.4375 l 3.88281,38.0547 -10.47656,4.209 -3.4668,-33.9629 -0.0117,-0.09 -37.14453,14.9434 0.68164,0.1172 c 12.65469,3.5201 27.43745,10.054 40.21875,22.0761 0.6696,0.6293 1.3371,1.2733 2,1.9317 l 49.4707,-19.877 c 1.5851,-0.6353 3.38085,-0.4903 4.84375,0.3985 1.4574,0.8855 2.41111,2.4111 2.57812,4.1113 l 4.96485,51.084 c 0.0358,0.3961 0.0235,0.7863 -0.0215,1.1699 -0.093,0.7725 -0.35069,1.505 -0.74609,2.1562 -0.5938,0.9797 -1.49443,1.7685 -2.61133,2.2188 l -47.625,19.1348 c -1.5808,0.6382 -3.36912,0.4977 -4.82812,-0.3887 h -0.01 c -1.4545,-0.8837 -2.41047,-2.3942 -2.58398,-4.084 l -3.91407,-38.1933 5.10157,-2.0508 0.76367,-0.3047 4.56836,-1.836 2.62695,25.2051 0.35352,3.4258 0.5625,5.4766 37.16406,-14.9356 -0.26953,-0.012 c -13.5702,-2.026 -29.81101,-9.6232 -42.84571,-24.0449 l -9.21679,3.707 c -0.5968,0.1307 -1.1493,0.3621 -1.6543,0.6641 l -38.40039,15.4316 c -0.3475,0.1399 -0.70355,0.2358 -1.06445,0.3008 -0.0755,0.011 -0.15549,0.028 -0.23047,0.039 -0.14699,0.018 -0.29766,0.03 -0.44336,0.041 -0.0751,0.012 -0.14382,0.01 -0.2168,0.01 -0.1138,0 -0.2289,-0.01 -0.34179,-0.01 -0.0902,-0.011 -0.18155,-0.016 -0.26954,-0.027 -0.0494,0.01 -0.0984,-0.016 -0.14843,-0.016 -0.2044,-0.026 -0.40727,-0.069 -0.60547,-0.1191 -0.1614,-0.042 -0.31925,-0.096 -0.47266,-0.1485 -0.0977,-0.034 -0.19506,-0.056 -0.28906,-0.096 -0.039,-0.019 -0.088,-0.03 -0.125,-0.053 -0.2172,-0.094 -0.43116,-0.2022 -0.63477,-0.3262 -0.077,-0.046 -0.14767,-0.1004 -0.22265,-0.1465 -0.068,-0.046 -0.13313,-0.097 -0.20313,-0.1386 -0.0638,-0.046 -0.12167,-0.094 -0.17969,-0.1407 -0.7352,-0.5949 -1.29273,-1.3709 -1.63281,-2.2461 -0.17662,-0.4566 -0.29965,-0.937 -0.34765,-1.4355 l -0.39649,-4.0469 -4.56445,-47.0371 c -0.1179,-1.1989 0.16722,-2.3653 0.76172,-3.3437 0.5938,-0.9774 1.49788,-1.7674 2.61718,-2.2168 l 47.6211,-19.1348 c 0.5932,-0.2386 1.21509,-0.364 1.83789,-0.3867 z m 201.33398,9.8008 -18.11523,7.2871 0.68164,0.1172 c 5.97471,1.6619 12.42334,4.0074 18.91211,7.2734 z m -70.36914,66.6894 c 1.038,-0.034 2.07909,0.23 2.99219,0.7774 l 0.01,0.012 c 1.3164,0.7998 2.21774,2.121 2.50585,3.6191 0.006,0.034 0.006,0.062 0.0156,0.096 0.023,0.1442 0.0494,0.289 0.0664,0.4375 l 3.88476,38.0547 -10.47851,4.207 -3.4668,-33.9609 -0.0117,-0.092 -37.14258,14.9434 0.67969,0.1172 c 12.6547,3.52 27.43745,10.054 40.21875,22.0761 0.6696,0.6292 1.3371,1.2733 2,1.9317 l 49.4707,-19.877 c 1.5851,-0.6354 3.38089,-0.4903 4.84375,0.3984 1.45743,0.8856 2.41303,2.4112 2.58008,4.1114 l 4.96289,51.082 c 0.0363,0.4008 0.0234,0.7978 -0.0234,1.1856 -0.094,0.7673 -0.35114,1.4933 -0.74414,2.1406 -0.5938,0.9797 -1.4944,1.7704 -2.61132,2.2207 l -47.625,19.1347 c -1.5808,0.6382 -3.36923,0.4958 -4.82813,-0.3906 h -0.01 c -1.45451,-0.8837 -2.41047,-2.3942 -2.58399,-4.084 l -3.91406,-38.1933 5.10156,-2.0508 0.76367,-0.3066 4.56836,-1.834 2.62696,25.2051 0.35546,3.4257 0.56055,5.4766 37.16406,-14.9356 -0.26953,-0.012 c -13.5702,-2.026 -29.80913,-9.6232 -42.84375,-24.0449 l -9.21875,3.707 c -0.5968,0.1307 -1.1494,0.3621 -1.6543,0.6641 l -38.40039,15.4316 c -0.34739,0.1399 -0.70354,0.2358 -1.06445,0.3008 -0.075,0.011 -0.15353,0.026 -0.22851,0.037 -0.14712,0.019 -0.29962,0.03 -0.44532,0.041 -0.075,0.011 -0.14381,0.012 -0.21679,0.012 -0.11381,0 -0.22891,-0.012 -0.3418,-0.012 -0.09,-0.011 -0.17959,-0.01 -0.26758,-0.021 -0.049,0 -0.10039,-0.016 -0.15039,-0.016 -0.2045,-0.026 -0.40727,-0.067 -0.60547,-0.1172 -0.16139,-0.041 -0.31924,-0.095 -0.47265,-0.1484 -0.098,-0.034 -0.19507,-0.056 -0.28907,-0.096 -0.039,-0.019 -0.088,-0.03 -0.125,-0.053 -0.2172,-0.095 -0.43105,-0.2022 -0.63476,-0.3262 -0.077,-0.046 -0.14767,-0.1004 -0.22266,-0.1465 -0.068,-0.046 -0.13117,-0.097 -0.20117,-0.1387 -0.064,-0.045 -0.12366,-0.096 -0.18164,-0.1425 -0.7353,-0.5949 -1.29273,-1.3691 -1.63281,-2.2442 -0.17662,-0.4566 -0.29966,-0.939 -0.34766,-1.4375 l -0.39453,-4.0449 -4.56641,-47.0371 c -0.1179,-1.1989 0.16722,-2.3654 0.76172,-3.3438 0.5938,-0.9773 1.49789,-1.7674 2.61719,-2.2168 l 47.62109,-19.1347 c 0.5932,-0.2386 1.21499,-0.3678 1.83789,-0.3867 z m -86.35156,90.4004 0.006,0.01 c 1.038,-0.034 2.07919,0.228 2.99219,0.7754 l 0.0117,0.01 c 1.3163,0.7998 2.2159,2.1211 2.5039,3.6192 0,0.034 0.008,0.062 0.0176,0.096 0.023,0.1439 0.0475,0.2885 0.0645,0.4375 l 3.88282,38.0527 -10.47852,4.209 -3.4668,-33.9629 -0.0117,-0.088 -37.14257,14.9434 0.67968,0.1152 c 12.6547,3.5201 27.43941,10.0541 40.22071,22.0762 0.6696,0.6292 1.33504,1.2732 1.99804,1.9316 l 49.47266,-19.8769 c 1.5851,-0.6355 3.3789,-0.4884 4.8418,0.4003 1.4574,0.8855 2.4131,2.4092 2.58007,4.1094 l 4.9629,51.086 c 0.0361,0.3962 0.0265,0.7883 -0.0195,1.1718 -0.093,0.7724 -0.35264,1.5031 -0.74804,2.1543 -0.5937,0.9797 -1.49453,1.7704 -2.61133,2.2207 l -47.62305,19.1328 c -1.5808,0.6383 -3.36912,0.4978 -4.82812,-0.3886 h -0.01 c -1.4545,-0.8837 -2.40851,-2.3961 -2.58203,-4.086 l -3.91602,-38.1933 5.10157,-2.0508 0.76367,-0.3047 4.57031,-1.8359 2.625,25.207 0.35547,3.4238 0.5625,5.4785 37.16211,-14.9355 -0.26953,-0.016 c -13.5702,-2.026 -29.80905,-9.6233 -42.84375,-24.045 l -9.21875,3.7071 c -0.5968,0.1307 -1.1494,0.364 -1.6543,0.666 l -38.39844,15.4297 c -0.34739,0.1398 -0.70538,0.2358 -1.0664,0.3008 -0.0754,0.011 -0.15353,0.028 -0.22852,0.039 -0.14709,0.018 -0.2995,0.03 -0.44531,0.041 -0.075,0.012 -0.14378,0.01 -0.2168,0.01 -0.1138,0 -0.22695,-0.01 -0.33984,-0.01 -0.0902,-0.011 -0.18154,-0.016 -0.26953,-0.027 -0.049,0.01 -0.10039,-0.016 -0.15039,-0.016 -0.2045,-0.026 -0.40727,-0.069 -0.60547,-0.1192 -0.16138,-0.041 -0.31936,-0.093 -0.47266,-0.1465 -0.0977,-0.034 -0.19506,-0.057 -0.28906,-0.098 -0.039,-0.017 -0.088,-0.028 -0.125,-0.051 -0.2172,-0.095 -0.43116,-0.2022 -0.63477,-0.3262 -0.077,-0.046 -0.14767,-0.1023 -0.22265,-0.1484 -0.0679,-0.046 -0.13118,-0.097 -0.20117,-0.1387 -0.0638,-0.046 -0.12168,-0.094 -0.17969,-0.1406 -0.7352,-0.5949 -1.29457,-1.371 -1.63477,-2.2461 -0.1765,-0.4566 -0.29965,-0.937 -0.34765,-1.4355 l -0.39453,-4.045 -4.56446,-47.039 c -0.1179,-1.1989 0.16537,-2.3634 0.75977,-3.3418 0.5938,-0.9774 1.49789,-1.7674 2.61719,-2.2168 l 47.62109,-19.1348 c 0.5932,-0.2382 1.21509,-0.3678 1.83789,-0.3867 z m -136.81836,0.4824 -0.53906,5.6289 2.64648,-1.0644 2.62696,25.207 0.35351,3.4258 0.5625,5.4766 37.16406,-14.9356 -0.26953,-0.012 c -13.4673,-2.0107 -29.56112,-9.5169 -42.54492,-23.7266 z m 44.92188,104.9453 -13.92383,5.6016 16.59375,20.5254 -2.65821,-26.0391 z m 32.89843,63.4727 c 3.6748,4.5255 7.34209,9.0449 10.89649,13.3789 l 12.625,-5.0742 -0.26953,-0.012 c -7.28481,-1.0876 -15.33756,-3.8 -23.25196,-8.293 z"
       transform="matrix(0.26458333,0,0,0.26458333,-18.963948,-46.948902)"
       id="path5248"
       inkscape:connector-curvature="0" />
  </g>
</svg>
