<?xml version="1.0" encoding="UTF-8" standalone="no"?>
<!-- Created with Inkscape (http://www.inkscape.org/) -->

<svg
   xmlns:dc="http://purl.org/dc/elements/1.1/"
   xmlns:cc="http://creativecommons.org/ns#"
   xmlns:rdf="http://www.w3.org/1999/02/22-rdf-syntax-ns#"
   xmlns:svg="http://www.w3.org/2000/svg"
   xmlns="http://www.w3.org/2000/svg"
   xmlns:xlink="http://www.w3.org/1999/xlink"
   xmlns:sodipodi="http://sodipodi.sourceforge.net/DTD/sodipodi-0.dtd"
   xmlns:inkscape="http://www.inkscape.org/namespaces/inkscape"
   width="85.442245mm"
   height="117.47662mm"
   viewBox="0 0 85.442245 117.47662"
   version="1.1"
   id="svg8"
   inkscape:version="0.92.2 2405546, 2018-03-11"
   sodipodi:docname="go-engineer.svg">
  <defs
     id="defs2">
    <linearGradient
       inkscape:collect="always"
       xlink:href="#a-62"
       id="linearGradient6505"
       gradientUnits="userSpaceOnUse"
       gradientTransform="matrix(1894.3665,1071.7321,597.8195,-1056.6908,-360253.6,625315.18)"
       x1="1.2438999"
       y1="594.59003"
       x2="2.2439001"
       y2="594.59003" />
    <linearGradient
       id="a-62"
       x1="1.2438999"
       x2="2.2439001"
       y1="594.59003"
       y2="594.59003"
       gradientTransform="matrix(656.07301,371.17128,207.0419,-365.96206,-120613.48,218514.46)"
       gradientUnits="userSpaceOnUse">
      <stop
         stop-color="#DF1F1B"
         offset="0"
         id="stop338-9">
        <animate
           attributeName="stop-color"
           dur="10s"
           repeatCount="indefinite"
           values="#DF1F1B;#EA7D1A;#FFCD03; #81B725; #FFCD03;#EA7D1A;#DF1F1B" />
      </stop>
      <stop
         stop-color="#EA7D1A"
         offset=".5537"
         id="stop340-1">
        <animate
           attributeName="stop-color"
           dur="10s"
           repeatCount="indefinite"
           values="#EA7D1A;#FFCD03;#81B725; #079239; #81B725;#FFCD03;#EA7D1A;" />
      </stop>
      <stop
         stop-color="#FFCD03"
         offset="1"
         id="stop342-2">
        <animate
           attributeName="stop-color"
           dur="10s"
           repeatCount="indefinite"
           values="#FFCD03;#81B725;#079239; #3F95D1; #079239;#81B725;#FFCD03" />
      </stop>
    </linearGradient>
    <linearGradient
       id="a"
       x1="1.2438999"
       x2="2.2439001"
       y1="594.59003"
       y2="594.59003"
       gradientTransform="matrix(42.855535,0,0,-29.768651,-286.96464,17772.096)"
       gradientUnits="userSpaceOnUse">
      <stop
         stop-color="#DF1F1B"
         offset="0"
         id="stop1665">
        <animate
           attributeName="stop-color"
           dur="10s"
           repeatCount="indefinite"
           values="#DF1F1B;#EA7D1A;#FFCD03; #81B725; #FFCD03;#EA7D1A;#DF1F1B" />
      </stop>
      <stop
         stop-color="#EA7D1A"
         offset=".5537"
         id="stop1667">
        <animate
           attributeName="stop-color"
           dur="10s"
           repeatCount="indefinite"
           values="#EA7D1A;#FFCD03;#81B725; #079239; #81B725;#FFCD03;#EA7D1A;" />
      </stop>
      <stop
         stop-color="#FFCD03"
         offset="1"
         id="stop1669">
        <animate
           attributeName="stop-color"
           dur="10s"
           repeatCount="indefinite"
           values="#FFCD03;#81B725;#079239; #3F95D1; #079239;#81B725;#FFCD03" />
      </stop>
    </linearGradient>
  </defs>
  <sodipodi:namedview
     id="base"
     pagecolor="#ffffff"
     bordercolor="#666666"
     borderopacity="1.0"
     inkscape:pageopacity="0.0"
     inkscape:pageshadow="2"
     inkscape:zoom="3.6818506"
     inkscape:cx="155.1405"
     inkscape:cy="204.89675"
     inkscape:document-units="mm"
     inkscape:current-layer="layer1"
     showgrid="false"
     fit-margin-top="0"
     fit-margin-left="0"
     fit-margin-right="0"
     fit-margin-bottom="0"
     inkscape:window-width="3840"
     inkscape:window-height="2160"
     inkscape:window-x="7680"
     inkscape:window-y="2160"
     inkscape:window-maximized="0" />
  <metadata
     id="metadata5">
    <rdf:RDF>
      <cc:Work
         rdf:about="">
        <dc:format>image/svg+xml</dc:format>
        <dc:type
           rdf:resource="http://purl.org/dc/dcmitype/StillImage" />
        <dc:title></dc:title>
      </cc:Work>
    </rdf:RDF>
  </metadata>
  <g
     inkscape:label="Layer 1"
     inkscape:groupmode="layer"
     id="layer1"
     transform="translate(250.8488,4.8973339)">
    <path
       style="fill:url(#linearGradient6505);stroke-width:2.37216854"
       d="M 158.65039 0 C 155.11041 0.034771654 152.37143 0.27987313 146.35352 0.88867188 C 128.435 2.7013257 113.29308 5.5124153 100.47852 9.4042969 C 96.864168 10.501999 93.336216 11.733334 89.921875 13.082031 C 93.336216 11.733882 96.864168 10.50395 100.47852 9.40625 C 113.29308 5.5143684 128.435 2.7032751 146.35352 0.890625 C 152.37143 0.28184139 155.11041 0.036747456 158.65039 0.001953125 L 158.65039 0 z M 162.61719 2.6933594 C 152.31446 2.6797531 150.52688 2.7985447 138.625 4.2988281 C 95.748491 9.7036659 68.750837 21.708514 50.779297 43.361328 C 36.854043 60.138996 28.526251 83.947918 26.208984 113.60156 C 24.930597 129.96098 25.35803 144.362 28.109375 177.64453 C 30.558093 207.26652 30.791195 211.55416 30.804688 226.93164 C 30.812246 234.64552 30.723759 240.42088 30.558594 242.99219 C 30.039702 251.06815 29.673771 256.09905 28.705078 268.48828 C 27.75139 280.68574 27.146461 289.36651 26.691406 297.39844 C 26.34369 303.53592 26.214881 321.6331 26.480469 327.11133 C 27.709344 352.47567 32.503466 371.21289 41.707031 386.63672 C 53.675359 406.69397 74.958904 421.43414 103.99414 429.77344 C 116.04758 433.23533 130.72831 435.67386 144.04688 436.42383 C 146.14481 436.54213 148.40194 436.66848 149.06445 436.70703 C 151.58627 436.85368 170.08533 436.64771 173.05664 436.43945 C 205.68697 434.15329 231.27437 426.56275 251.15234 413.27344 C 256.64638 409.60038 260.57734 406.34798 265.61719 401.30469 C 273.00235 393.91451 277.74094 387.22729 282.48633 377.50195 C 289.48541 363.15826 294.08521 346.67942 296.41211 327.61328 C 297.92755 315.19526 298.44073 304.30815 298.26562 288.26367 C 298.11408 274.37812 297.80203 267.50536 296.12891 241.18555 C 294.6507 217.93128 294.57964 215.93808 294.32422 190.99414 C 293.96176 155.61831 293.717 144.11186 293.10938 133.77734 C 291.37537 104.28475 286.9582 81.523815 278.86914 60.398438 C 275.33075 51.157591 266.66137 38.918114 257.99219 30.925781 C 241.87197 16.06416 221.14327 7.659087 192.33008 4.3027344 C 182.36082 3.1414405 174.35829 2.7088101 162.61719 2.6933594 z M 82.927734 16.082031 C 80.549263 17.187706 78.240263 18.352619 76.013672 19.570312 C 78.240263 18.352848 80.549263 17.187599 82.927734 16.082031 z M 276.78906 22.148438 C 274.82624 22.148324 272.83296 22.304304 271.2832 22.615234 C 267.51403 23.371386 262.64916 25.297425 259.55664 27.257812 L 258.625 27.847656 L 262.07227 31.324219 C 265.03723 34.314799 267.14316 36.656529 268.96289 38.986328 L 269.4082 39.556641 L 270.73438 39.224609 C 277.01341 37.649884 281.77514 40.275064 283.77148 46.412109 C 284.25678 47.90403 284.31717 48.359385 284.24219 49.927734 C 284.1666 51.507815 284.06496 51.915722 283.41016 53.240234 C 282.93821 54.195196 282.2384 55.181931 281.50781 55.919922 L 280.35156 57.085938 L 281.17969 59.195312 C 282.77469 63.259027 285.24181 70.613283 286.68555 75.607422 C 286.92706 76.443125 287.21677 77.0625 287.36523 77.0625 C 287.50734 77.0625 288.97172 76.39331 290.61914 75.576172 C 292.26656 74.759038 294.42323 73.517531 295.41211 72.816406 C 298.9423 70.313501 302.13437 66.660339 303.92969 63.068359 C 306.57668 57.772497 307.07279 50.881328 305.25586 44.640625 C 302.00259 33.466618 293.1201 25.012543 282.11328 22.615234 C 280.685 22.304141 278.75188 22.148546 276.78906 22.148438 z M 210.33789 23.673828 C 222.9241 23.816241 234.29585 28.911836 241.65625 38.013672 C 244.9904 42.136626 247.73552 47.852634 249.14453 53.607422 C 250.24759 58.112451 250.45039 59.895858 250.4375 64.916016 C 250.42616 69.129524 250.37891 69.756817 249.88867 72.074219 C 248.65545 77.902961 246.53039 82.514043 242.98633 87.052734 C 236.18492 95.762894 224.62761 101.75855 211.96094 103.14844 C 209.66801 103.40004 202.76018 103.38882 200.46094 103.12891 C 194.3214 102.43586 187.42701 100.11248 182.31641 97.013672 C 173.2054 91.489223 166.83091 82.289915 164.50586 71.3125 C 163.42968 66.231708 164.05883 59.05002 166.12695 52.833984 C 171.00504 38.172035 184.60014 27.224716 201.46484 24.376953 C 204.46424 23.870474 207.43336 23.640961 210.33789 23.673828 z M 39.476562 25.199219 C 37.436549 25.225731 35.417982 25.440112 33.457031 25.849609 C 31.538345 26.250281 29.62128 26.856813 27.751953 27.640625 C 29.62128 26.857361 31.538345 26.252231 33.457031 25.851562 C 41.300836 24.213573 50.061354 25.687192 57.464844 29.890625 C 58.430173 30.438683 59.274332 30.886719 59.341797 30.886719 C 59.40945 30.886719 60.155654 30.316913 61 29.619141 C 61.877776 28.893729 62.782843 28.177495 63.712891 27.472656 C 62.782843 28.17735 61.877776 28.891776 61 29.617188 C 60.155654 30.314955 59.409413 30.884766 59.341797 30.884766 C 59.274143 30.884766 58.430173 30.43673 57.464844 29.888672 C 51.912226 26.736093 45.596602 25.119682 39.476562 25.199219 z M 209.72461 26.167969 C 207.27521 26.169465 204.80529 26.295964 203.21094 26.544922 C 181.22278 29.977304 166.43164 45.867581 166.43164 66.056641 C 166.43164 68.142966 166.53709 69.152285 166.94531 70.972656 C 169.20139 81.031789 174.38159 88.779599 182.49219 94.224609 C 187.24241 97.41362 193.71257 99.749464 200.25977 100.63867 C 203.07835 101.02146 209.42666 101.02489 212.3457 100.64453 C 222.92717 99.266233 232.32548 94.821607 238.70898 88.177734 C 243.40354 83.291735 246.10566 78.218862 247.45117 71.765625 C 249.41063 62.367909 247.03087 50.374384 241.56836 42.128906 C 235.89234 33.561122 227.43372 28.380115 216.11914 26.537109 C 214.60276 26.290117 212.17405 26.166495 209.72461 26.167969 z M 40.576172 27.707031 C 36.034162 27.621009 31.580884 28.587813 27.310547 30.605469 C 18.707359 34.670354 12.1548 42.747568 9.8164062 52.167969 C 9.3989953 53.849477 9.3448094 54.538708 9.3496094 57.990234 C 9.3533889 61.587872 9.3976101 62.063329 9.8867188 63.867188 C 11.144848 68.508866 13.865378 72.742292 17.626953 75.910156 C 19.223501 77.254712 21.908741 79.074089 23.488281 79.882812 C 25.166505 80.741997 28.203539 82.060014 28.529297 82.070312 C 28.774588 82.077872 29.036323 81.439882 29.609375 79.421875 C 30.361917 76.771791 32.683456 69.872671 33.490234 67.888672 L 33.914062 66.845703 L 32.365234 65.908203 C 27.791968 63.142685 25.535458 60.204333 25.335938 56.757812 C 25.230111 54.931706 25.509404 53.588241 26.394531 51.666016 C 29.266178 45.43041 34.782684 43.851659 42.302734 47.113281 L 44.085938 47.886719 L 45.175781 46.363281 C 47.496411 43.118784 50.423916 39.679569 53.753906 36.285156 C 56.374744 33.61365 57.160826 32.698054 56.96875 32.542969 C 56.504775 32.168304 52.720534 30.353018 51.292969 29.820312 C 47.694783 28.47756 44.108821 27.773948 40.576172 27.707031 z M 104.58203 28.189453 C 106.85542 28.169422 109.0559 28.288394 111.02148 28.552734 C 126.37298 30.61729 137.99639 39.140405 143.12109 52.087891 C 146.58273 60.833673 147.00637 71.55242 144.22656 80.048828 C 139.62782 94.104713 126.64016 104.2861 109.60156 107.18945 C 106.72874 107.67897 98.83942 107.89413 96.064453 107.55859 C 79.449763 105.54953 66.948341 95.686101 62.037109 80.710938 C 60.70887 76.660955 60.348562 74.012451 60.341797 68.228516 C 60.334238 62.787183 60.59159 60.798079 61.832031 56.623047 C 63.973171 49.416532 68.726994 42.600005 74.875 37.919922 C 80.153564 33.901702 86.7099 30.881267 93.353516 29.40625 C 96.800369 28.640971 100.79309 28.222755 104.58203 28.189453 z M 104.69727 30.603516 C 102.45041 30.599736 99.840662 30.7122 98.773438 30.859375 C 81.658338 33.219505 68.895262 42.774325 64.359375 56.621094 C 63.016282 60.721178 62.736328 62.703334 62.736328 68.128906 C 62.736328 73.841813 63.027364 75.995131 64.333984 79.972656 C 66.827225 87.560644 71.31433 93.746933 77.59375 98.253906 C 82.30444 101.63498 89.499187 104.31802 96.064453 105.14258 C 98.393398 105.43508 105.07349 105.39151 107.50195 105.06836 C 124.44951 102.81315 137.65419 92.858025 142.04102 79.029297 C 144.3624 71.711557 144.21167 62.927339 141.63086 55.048828 C 137.83614 43.46461 128.73354 35.232439 116.13086 31.988281 C 112.08843 30.947683 109.31158 30.611202 104.69727 30.603516 z M 186.63867 53.3125 C 187.11149 53.317035 187.59127 53.350666 188.08008 53.410156 C 195.67111 54.333661 200.61941 63.115082 198.07031 71.140625 C 196.71433 75.409703 193.37614 78.734063 189.4082 79.767578 C 187.9758 80.140655 184.97377 80.139824 183.61719 79.767578 C 180.44197 78.895751 177.38298 76.305086 175.89453 73.226562 C 174.80709 70.977476 174.41535 69.220032 174.42578 66.623047 C 174.4409 62.872172 175.62651 59.726116 177.97266 57.208984 C 180.41593 54.587677 183.32894 53.279758 186.63867 53.3125 z M 82.560547 56.628906 C 85.549624 56.61719 88.559652 57.776607 90.960938 60.179688 C 93.650977 62.871765 94.740743 65.431683 94.900391 69.433594 C 95.021336 72.462076 94.727669 73.951569 93.517578 76.460938 C 91.962567 79.685614 88.64727 82.390077 85.273438 83.185547 C 83.718086 83.552274 81.384775 83.54441 79.832031 83.167969 C 76.609644 82.387908 73.274633 79.628358 71.730469 76.460938 C 70.576012 74.092909 70.192878 72.173012 70.3125 69.363281 C 70.429665 66.611487 71.099088 64.433206 72.474609 62.326172 C 74.910061 58.595419 78.717485 56.643998 82.560547 56.628906 z M 192.0625 66.289062 C 191.82855 66.304181 191.57559 66.37834 191.21094 66.517578 C 189.66976 67.106156 188.88638 68.838283 189.32812 70.679688 C 189.84596 72.838273 191.94909 73.842636 193.52148 72.681641 C 194.68581 71.821998 195.16544 70.40096 194.85352 68.738281 C 194.67966 67.812512 193.7097 66.712743 192.80469 66.414062 C 192.51253 66.317572 192.29664 66.273794 192.0625 66.289062 z M 88.376953 69.648438 C 87.893703 69.631808 87.396056 69.767191 86.927734 70.085938 C 85.889687 70.792417 85.468402 71.504105 85.367188 72.724609 C 85.134747 75.525568 87.664329 77.424803 89.740234 76.007812 C 90.669167 75.37373 91.144531 74.378083 91.144531 73.068359 C 91.144531 71.118766 89.826704 69.698579 88.376953 69.648438 z M 160.30664 91.046875 C 163.93914 91.050655 166.51245 91.480479 169.26758 92.542969 C 174.58363 94.593049 178.01667 99.094268 177.60742 103.47656 L 177.49414 104.69727 L 178.4375 105.15039 C 182.3608 107.03122 187.05749 110.28651 189.72852 112.97656 C 196.08557 119.37887 196.55442 125.89374 191.08008 131.77148 C 189.55099 133.41327 187.71768 134.69156 185.98242 135.32422 C 184.22691 135.96426 181.11098 136.0491 178.87891 135.51953 C 177.94049 135.29688 177.14425 135.14286 177.11133 135.17578 C 177.07731 135.20866 177.19245 137.09557 177.36328 139.36914 C 177.72612 144.19818 177.76747 150.36436 177.45312 152.76758 C 177.01169 156.14193 175.48395 157.56552 170.16797 159.55859 C 167.73554 160.47057 167.77218 160.46755 166.23047 160.06445 L 166.23047 160.0625 C 163.49284 159.34671 160.40832 157.14732 158.73438 154.7168 L 158.00195 153.65234 L 156.03906 155.56055 C 152.87397 158.636 150.69503 159.67517 147.69141 159.54297 C 145.86132 159.46243 144.72075 159.02034 143.3125 157.84375 C 140.76162 155.71257 138.69342 151.46349 137.80273 146.52539 C 137.42516 144.43169 137.30734 139.20793 137.58203 136.75391 L 137.74219 135.31445 L 136.57812 135.17383 C 131.09782 134.50579 127.21999 130.39524 126.26562 124.24414 C 125.06609 116.5129 130.98008 107.88961 139.07617 105.56836 C 140.59426 105.13311 140.73312 105.05178 140.73633 104.58008 C 140.74389 103.4676 141.36523 101.18555 142.02344 99.847656 C 143.65937 96.522776 147.33865 93.692546 151.90039 92.253906 C 154.83092 91.329683 156.83102 91.042933 160.30664 91.046875 z M 176.36914 106.93945 L 174.99414 108.25391 C 171.50836 111.58811 164.40833 113.78669 157.0957 113.79688 C 150.84157 113.80556 145.56357 112.29678 142.9707 109.75781 C 142.39395 109.19303 141.78925 108.47402 141.62695 108.16016 C 141.36881 107.66108 141.25012 107.60481 140.68164 107.71094 C 138.12997 108.18719 135.09973 109.98657 132.87109 112.35156 C 130.23185 115.15233 128.90961 118.12483 128.74414 121.63086 C 128.57671 125.18104 129.5787 127.92766 131.90039 130.28516 C 133.55023 131.96044 134.81227 132.49419 137.41992 132.62109 C 139.94699 132.74408 142.14576 132.24771 148.66602 130.08203 C 156.37769 127.52063 158.49648 127.15689 162.81641 127.65234 C 165.837 127.99878 167.83659 128.63373 174.55273 131.375 C 179.38535 133.34747 181.93111 133.80858 184.40625 133.16406 C 185.98416 132.75317 187.14076 132.05806 188.6582 130.60547 C 192.7006 126.73591 193.38977 122.56798 190.7207 118.13672 C 188.72315 114.82026 183.63596 110.66877 178.06641 107.81055 L 176.36914 106.93945 z M 161.08984 130.00391 C 160.75573 129.99446 160.5383 130.01487 160.50391 130.07031 C 160.29339 130.41119 159.58212 141.85823 159.57422 145.03516 C 159.5591 150.48708 159.69516 151.51477 160.60156 152.90625 C 161.99239 155.04137 164.19939 156.74576 166.53125 157.48633 C 166.97289 157.62662 167.39132 157.74849 167.46094 157.75586 C 167.53048 157.76304 168.45755 157.45346 169.52148 157.06836 C 172.62206 155.94599 173.95709 155.12228 174.55664 153.96289 C 175.02919 153.04903 175.32548 149.30572 175.20117 145.82422 C 175.07229 142.21846 174.69948 136.50067 174.49414 134.98828 L 174.35938 133.99219 L 170.74609 132.53906 C 168.75897 131.73947 166.37096 130.88866 165.43945 130.65039 C 164.14156 130.31843 162.09165 130.03249 161.08984 130.00391 z M 156.92969 130.26953 C 156.27893 130.2674 153.98659 130.93675 149.56836 132.41211 C 146.75265 133.35234 143.54364 134.32491 142.43945 134.57227 L 140.43359 135.02148 L 140.20312 136.30664 C 139.85542 138.25601 139.87671 143.55026 140.24219 145.64648 C 141.31833 151.84951 143.73834 155.93572 146.95898 156.99023 C 147.88259 157.2926 149.5741 157.01669 150.95703 156.33984 C 151.95985 155.84832 152.78585 155.18054 154.38281 153.56836 L 156.48828 151.44531 L 156.50391 144.91992 C 156.51524 140.44903 156.63116 137.1414 156.87305 134.41016 C 157.06731 132.21789 157.17489 130.37393 157.11328 130.3125 C 157.08682 130.28529 157.02657 130.26983 156.93359 130.26953 L 156.92969 130.26953 z M 162.82617 192.77344 C 240.2902 192.70956 261.00977 239.1649 261.00977 296.39062 C 261.00977 353.61637 217.05189 400.00586 162.82617 400.00586 C 108.60046 400.00586 64.640625 353.61638 64.640625 296.39062 C 64.640625 239.16488 85.07415 192.83754 162.82617 192.77344 z M 297.37109 217.99805 L 298.80469 218.00195 C 300.40067 218.00573 303.62496 218.4245 305.70312 218.89844 C 310.63053 220.02215 316.21499 222.64052 319.5 225.36719 C 319.7245 225.5534 319.95174 225.75671 320.17969 225.97266 C 319.9514 225.75635 319.72466 225.55172 319.5 225.36523 C 316.21499 222.63857 310.63053 220.02018 305.70312 218.89648 C 303.62496 218.42254 300.40067 218.00377 298.80469 218 L 297.37109 217.99805 z M 25.935547 219.60156 C 24.288263 219.60156 22.629299 219.7121 20.982422 219.92578 C 22.629299 219.71244 24.288263 219.60352 25.935547 219.60352 L 28.361328 219.60352 L 28.361328 219.60156 L 25.935547 219.60156 z M 297.84766 220.4375 C 297.70479 220.44204 297.61403 220.45414 297.58984 220.47852 C 297.45491 220.61337 297.68847 225.48712 298.26953 234.62695 L 298.60742 239.91211 L 299.82422 240.52539 C 300.49406 240.86309 301.53923 241.47584 302.14648 241.88672 C 305.22619 243.97031 309.21522 245.80918 311.88281 246.375 C 313.73667 246.76819 314.89548 246.77397 316.17383 246.39453 C 318.01314 245.84834 319.27908 244.10861 319.70703 241.53711 C 319.82042 240.85542 319.78895 240.68359 319.55273 240.68359 C 319.39021 240.68359 318.52804 240.31921 317.63672 239.87305 C 315.96435 239.03602 314.59375 237.75325 314.59375 237.02539 C 314.59375 236.57858 315.45523 235.66406 315.87695 235.66406 C 316.04098 235.66406 316.60942 236.04179 317.14062 236.50195 C 318.13555 237.36375 319.69221 238.18142 320.72852 238.38672 C 321.20746 238.48158 321.44033 238.38365 321.96875 237.86523 C 323.23039 236.62761 323.25153 234.89025 322.0332 232.47656 C 321.3575 231.138 319.44034 228.64928 318.34375 227.68945 C 315.17428 224.91542 309.48335 222.28326 304.35938 221.21875 C 302.45128 220.82234 298.84866 220.40577 297.84766 220.4375 z M 12.96875 221.83203 C 11.604114 222.31529 10.282939 222.87178 9.0214844 223.5 C 7.5636792 224.22598 6.2631521 224.98301 5.0996094 225.78711 C 6.2632526 224.98359 7.563945 224.2278 9.0214844 223.50195 C 10.282939 222.87373 11.604114 222.31529 12.96875 221.83203 z M 27.203125 222.04883 C 25.663119 221.94992 21.009808 222.38267 18.769531 222.83398 C 12.795156 224.03747 6.8062471 226.995 3.7246094 230.26172 C 1.3198094 232.81091 -2.9605947e-16 235.30441 0 237.29688 C 0 238.45795 0.3605504 239.1875 1.2460938 239.81641 L 1.8613281 240.25391 L 2.8886719 239.85352 C 4.3842309 239.26838 5.5173477 238.56209 5.8984375 237.98047 C 6.540995 236.99972 8.2304688 237.49518 8.2304688 238.66406 C 8.2304688 239.48524 6.6169377 240.92913 4.6953125 241.82812 L 3.0664062 242.58984 L 3.3359375 243.88477 C 3.7824887 246.03772 4.8254871 247.38818 6.5351562 248.02539 C 7.7356476 248.47278 10.535543 248.28425 12.646484 247.61328 C 14.772809 246.9374 18.098851 245.2978 20.152344 243.91211 C 21.661282 242.89389 23.914356 241.75602 25.998047 240.96094 C 26.779464 240.66277 27.081454 240.41628 27.361328 239.8457 C 27.956868 238.63162 28.17557 235.70615 28.191406 228.73828 L 28.207031 222.11328 L 27.203125 222.04883 z M 124.96875 238.41992 L 124.95117 238.42188 C 123.47712 238.42754 122.06638 238.92924 120.92969 239.81836 C 120.91079 239.83612 120.8801 239.84931 120.85742 239.86719 L 120.85938 239.87109 C 120.43728 240.21057 120.05454 240.60377 119.72266 241.04688 L 82.570312 290.6582 C 81.69675 291.82395 81.259766 293.20482 81.259766 294.58594 C 81.259766 295.96862 81.697128 297.35008 82.570312 298.51367 L 116.77734 344.20117 L 119.72266 348.12695 C 120.05828 348.5756 120.45249 348.96661 120.88086 349.30859 L 120.87695 349.31445 C 120.89585 349.32995 120.92018 349.34343 120.93945 349.35938 C 120.95079 349.37185 120.96957 349.38162 120.98242 349.39258 C 121.88233 350.08255 122.94619 350.53449 124.07812 350.6875 C 124.16694 350.69997 124.25783 350.7127 124.35156 350.71875 C 124.45096 350.7248 124.54784 350.73141 124.64648 350.73633 C 124.75193 350.74086 124.86028 350.74805 124.96875 350.74805 L 124.96875 350.75391 C 125.25637 350.75391 125.54477 350.7324 125.82812 350.69336 C 125.87764 350.68731 125.93688 350.67282 125.98828 350.66602 C 126.11036 350.6475 126.22596 350.61052 126.34766 350.58398 C 126.5389 350.54203 126.73581 350.49822 126.92773 350.43945 C 127.16358 350.36689 127.39943 350.28274 127.62695 350.18164 C 127.67646 350.15632 127.73564 350.13579 127.78516 350.10938 C 127.78663 350.10822 127.78886 350.10898 127.79688 350.10742 C 127.80065 350.10439 127.80664 350.10263 127.80664 350.09961 C 127.8331 350.08676 127.85724 350.07235 127.88672 350.05859 C 127.9521 350.02647 128.01778 349.99334 128.08203 349.95898 C 128.18257 349.90222 128.28499 349.84394 128.38477 349.7832 C 128.40366 349.77262 128.42169 349.76291 128.43945 349.75195 C 128.44267 349.74892 128.45117 349.74716 128.45117 349.74414 C 128.52449 349.69848 128.59729 349.65149 128.66797 349.60156 C 128.81688 349.50091 128.96198 349.39535 129.10156 349.28125 C 129.173 349.22384 129.24371 349.15917 129.3125 349.09961 C 129.64321 348.80753 129.94851 348.48455 130.21875 348.125 L 145.04297 328.32227 L 160.16992 308.12109 C 160.18126 308.11013 160.18189 308.09961 160.18945 308.08789 L 161.43359 306.42383 C 161.44493 306.41476 161.45338 306.40556 161.46094 306.39648 L 168.64844 296.79102 C 168.64953 296.79135 168.86916 296.85414 168.96289 296.88086 C 174.1487 298.40914 179.27987 299.45511 184.29492 300.08398 C 188.70778 300.71256 193.5015 301.11722 197.91992 300.88281 C 198.88623 300.8316 199.81792 300.76845 200.73438 300.70117 C 206.16627 300.42228 211.33728 299.66886 216.15039 298.53711 C 222.99447 297.03119 226.73811 295.33686 227.83984 294.78516 C 227.87764 294.76966 227.91212 294.75689 227.94727 294.74219 L 228.23242 294.58594 L 199.24219 333.30469 L 195.22656 328.00391 L 194.96289 327.6543 L 194.88867 327.55664 L 192.71484 324.69141 L 174.19727 300.32227 L 174.19531 300.32031 L 170.63086 305.08008 L 170.0332 305.87305 L 170.03516 305.875 L 166.05664 311.19141 L 194.04688 348.15625 C 194.38439 348.60181 194.77411 348.99437 195.20312 349.33398 L 195.20312 349.33594 C 195.2069 349.34047 195.2151 349.3435 195.22266 349.34766 C 195.50348 349.56823 195.80001 349.76612 196.11133 349.9375 C 196.26742 350.0236 196.42691 350.10284 196.58984 350.17578 C 196.59306 350.17727 196.60156 350.17863 196.60156 350.18164 C 196.92244 350.3247 197.25633 350.44115 197.59766 350.53125 C 197.60899 350.53579 197.63477 350.54076 197.64648 350.54492 C 197.81543 350.58812 197.98679 350.62654 198.16016 350.65625 C 198.16016 350.65625 198.16211 350.65625 198.16211 350.65625 C 198.16355 350.6565 198.16507 350.65598 198.16602 350.65625 C 198.33269 350.6846 198.50037 350.7049 198.66992 350.7207 C 198.69638 350.72373 198.72033 350.727 198.74414 350.72852 C 198.91875 350.74137 199.09356 350.75195 199.26953 350.75195 L 199.28125 350.75195 C 201.34291 350.74742 203.27622 349.77458 204.50781 348.125 L 241.66211 298.51367 C 242.53246 297.34851 242.96827 295.96746 242.9668 294.58398 C 242.96661 293.66389 242.77273 292.74815 242.38477 291.89258 L 242.38672 291.89258 C 242.1917 291.46281 241.95354 291.04706 241.66406 290.65625 L 204.50781 241.04492 C 203.2693 239.39475 201.32896 238.41992 199.26953 238.41992 C 198.774 238.41992 198.28585 238.47627 197.8125 238.58398 C 197.78226 238.59003 197.75674 238.59476 197.72461 238.60156 C 197.72317 238.60197 197.72218 238.60319 197.7207 238.60352 C 197.66514 238.61599 197.61189 238.63362 197.55859 238.64844 C 197.48338 238.66885 197.40882 238.68984 197.33398 238.71289 C 197.32265 238.71647 197.31577 238.71963 197.29688 238.72266 C 197.28554 238.72757 197.2592 238.73494 197.25391 238.74023 C 197.08496 238.79515 196.91568 238.85557 196.75195 238.92383 C 196.73306 238.93177 196.71503 238.93738 196.69727 238.94531 C 196.53361 239.01531 196.37403 239.09481 196.2168 239.17773 C 196.17371 239.20041 196.12984 239.22285 196.08789 239.24609 C 195.94087 239.32792 195.79643 239.41484 195.65625 239.50781 C 195.61316 239.53691 195.56804 239.56915 195.52344 239.59961 C 195.41232 239.67664 195.30347 239.75785 195.19727 239.8418 C 195.16703 239.86523 195.13495 239.88371 195.10547 239.9082 L 195.10742 239.91211 C 194.70566 240.24191 194.34141 240.6209 194.02344 241.04492 L 155.42773 292.58203 C 155.42773 292.58203 153.41029 291.97449 149.44141 291.30859 C 141.50221 289.84541 133.78591 289.37517 126.44531 289.60547 C 123.64574 289.62588 120.70039 289.85617 117.7832 290.20312 C 110.21251 291.00785 103.15029 292.48776 96.798828 294.27734 L 96.033203 294.58203 C 96.033128 294.58205 96.029297 294.58203 96.029297 294.58203 L 124.99414 255.86914 L 125.0625 255.95312 L 149.9375 288.83398 L 158.11328 277.91992 L 130.24219 241.07812 C 130.13107 240.93515 130.01296 240.80427 129.89844 240.66992 C 129.8682 240.64233 129.84954 240.61634 129.82422 240.58398 C 128.58752 239.21841 126.82907 238.41992 124.96875 238.41992 z M 196.15234 239.17773 C 196.10926 239.19814 196.07409 239.2155 196.03516 239.23633 C 196.07824 239.21592 196.11341 239.19746 196.15234 239.17773 z M 195.61523 239.48242 C 195.57215 239.50699 195.53578 239.53236 195.49609 239.55859 C 195.53918 239.53252 195.57517 239.5074 195.61523 239.48242 z M 266.99609 403.65234 L 266.99609 403.6543 L 268.05859 404.41211 C 269.89238 405.7233 271.80796 407.33151 273.64453 409.07227 C 271.80801 407.33096 269.89264 405.72155 268.05859 404.41016 L 266.99805 403.65234 L 266.99609 403.65234 z M 265.22266 405.46289 L 264.25977 406.30469 C 258.61871 411.23931 253.8865 414.75397 248.44141 418.05078 C 247.55806 418.58562 246.62316 419.15207 246.36328 419.31055 C 245.89386 419.59666 245.90071 419.60462 247.26758 420.51953 C 249.17983 421.79996 252.65643 425.24843 256.22461 429.40039 C 263.89611 438.32711 266.80759 440.51774 270.83789 440.39453 C 272.36176 440.34804 272.72489 440.25773 274.05078 439.5957 C 274.87272 439.18532 275.80664 438.63552 276.12695 438.375 L 276.70898 437.90234 L 275.34766 434.4043 C 273.64592 430.03252 272.72143 428.22133 271.32422 426.52734 C 270.71995 425.79483 270.22461 425.04065 270.22461 424.85156 C 270.22461 424.35164 271.02529 423.57812 271.54297 423.57812 C 272.10215 423.57812 273.91516 425.50112 274.92773 427.16797 C 275.68375 428.41253 276.86507 431.13107 278.05664 434.36914 C 278.43233 435.39052 278.82101 436.22656 278.91992 436.22656 C 279.32456 436.22656 281.45656 433.77834 281.9375 432.76172 C 283.91329 428.58519 282.43935 423.47707 277.28906 416.65234 C 275.76686 414.63536 270.08762 409.13244 267.57227 407.23633 L 265.22266 405.46289 z M 54.886719 407.0957 C 54.787317 407.1849 53.170147 408.3423 51.292969 409.66797 C 45.991766 413.41201 43.465786 415.43923 40.851562 418.05273 L 40.851562 418.05469 C 43.465786 415.44118 45.991766 413.41396 51.292969 409.66992 C 53.170147 408.34425 54.787431 407.1867 54.886719 407.09766 L 54.886719 407.0957 z M 57.087891 408.92188 C 56.63276 408.92188 49.37802 414.05694 46.158203 416.6582 C 42.155268 419.89219 39.174334 423.32172 37.849609 426.2168 C 36.276646 429.6542 36.424619 433.24636 38.277344 436.65039 C 38.783536 437.58049 39.653196 438.43359 40.095703 438.43359 C 40.196617 438.43359 40.441179 437.91422 40.640625 437.2793 C 41.127806 435.7272 42.197702 433.63558 43.4375 431.80859 C 43.999478 430.98042 45.056716 429.3145 45.787109 428.10547 C 46.517503 426.89644 47.260316 425.81489 47.4375 425.70312 C 47.93738 425.38792 48.845305 425.79988 49.072266 426.44531 C 49.331541 427.18277 48.732084 428.39403 46.148438 432.34961 C 43.943688 435.72473 43.260382 437.0645 42.919922 438.6875 L 42.691406 439.77734 L 43.539062 440.98633 C 45.292499 443.48599 47.56507 444.4252 50.429688 443.83594 L 50.431641 443.83594 C 53.097757 443.28749 57.661186 440.44901 62.710938 436.19727 C 67.688612 432.00619 70.58961 429.70224 72.419922 428.48438 C 74.566391 427.05605 77.530567 425.57919 79.650391 424.88281 C 80.560728 424.58385 81.252836 424.25488 81.189453 424.15234 C 81.125957 424.04992 79.737746 423.29506 78.103516 422.47656 C 71.060404 418.94913 63.26381 413.9221 58.59375 409.89648 C 57.971413 409.36006 57.294177 408.92187 57.087891 408.92188 z "
       transform="matrix(0.26458333,0,0,0.26458333,-250.8488,-4.8973339)"
       id="path6503" />
  </g>
</svg>
