<?xml version="1.0" encoding="UTF-8" standalone="no"?>
<!-- Created with Inkscape (http://www.inkscape.org/) -->

<svg
   xmlns:dc="http://purl.org/dc/elements/1.1/"
   xmlns:cc="http://creativecommons.org/ns#"
   xmlns:rdf="http://www.w3.org/1999/02/22-rdf-syntax-ns#"
   xmlns:svg="http://www.w3.org/2000/svg"
   xmlns="http://www.w3.org/2000/svg"
   xmlns:sodipodi="http://sodipodi.sourceforge.net/DTD/sodipodi-0.dtd"
   xmlns:inkscape="http://www.inkscape.org/namespaces/inkscape"
   width="42.321407mm"
   height="39.430843mm"
   viewBox="0 0 42.321407 39.430843"
   version="1.1"
   id="svg1129"
   inkscape:version="0.92.2 2405546, 2018-03-11"
   sodipodi:docname="why-choose-us.svg">
  <defs
     id="defs1123" />
  <sodipodi:namedview
     id="base"
     pagecolor="#ffffff"
     bordercolor="#666666"
     borderopacity="1.0"
     inkscape:pageopacity="0.0"
     inkscape:pageshadow="2"
     inkscape:zoom="6.6628241"
     inkscape:cx="79.86286"
     inkscape:cy="66.591701"
     inkscape:document-units="mm"
     inkscape:current-layer="layer1"
     showgrid="false"
     inkscape:pagecheckerboard="true"
     fit-margin-top="0"
     fit-margin-left="0"
     fit-margin-right="0"
     fit-margin-bottom="0"
     inkscape:window-width="1899"
     inkscape:window-height="2057"
     inkscape:window-x="9603"
     inkscape:window-y="2202"
     inkscape:window-maximized="0" />
  <metadata
     id="metadata1126">
    <rdf:RDF>
      <cc:Work
         rdf:about="">
        <dc:format>image/svg+xml</dc:format>
        <dc:type
           rdf:resource="http://purl.org/dc/dcmitype/StillImage" />
        <dc:title></dc:title>
      </cc:Work>
    </rdf:RDF>
  </metadata>
  <g
     inkscape:label="Layer 1"
     inkscape:groupmode="layer"
     id="layer1"
     transform="translate(-77.635993,-95.284419)">
    <ellipse
       style="opacity:1;fill:#00ff00;fill-opacity:0;stroke:#d40000;stroke-width:0;stroke-miterlimit:4;stroke-dasharray:none;stroke-dashoffset:0;stroke-opacity:1"
       id="path1133"
       cx="77.836334"
       cy="131.05025"
       rx="40.546772"
       ry="27.686371" />
    <ellipse
       style="opacity:1;fill:#ffd5d5;fill-opacity:0;stroke:#d40000;stroke-width:0;stroke-miterlimit:4;stroke-dasharray:none;stroke-dashoffset:0;stroke-opacity:1"
       id="path1678"
       cx="173.19426"
       cy="181.25636"
       rx="43.354725"
       ry="43.073929" />
    <g
       transform="matrix(0.01914793,0,0,0.01914793,289.51636,-96.376251)"
       id="g2379">
      <circle
         style="fill:none;stroke:#ffffff;stroke-width:63.3845787px;stroke-miterlimit:10"
         class="cls-1"
         cx="-14902.217"
         cy="709.44128"
         r="997.94495"
         transform="rotate(-45)"
         id="circle1771" />
      <path
         id="path2362"
         d="m -9654.6729,10482.372 c -5.2669,0 -10.5754,0.571 -15.8406,1.68 -0.018,0 -0.035,0 -0.061,0.02 -1.5335,0.325 -3.0539,0.786 -4.5777,1.206 -8.7158,2.551 -16.8445,6.618 -23.9236,12.023 l 42.7934,52.766 -0.1163,0.05 407.1837,495.783 -406.833,507.537 v 0.195 l -41.9904,52.103 c 12.4739,9.172 28.0253,14.342 44.3005,14.342 h 0.134 c 22.4578,-0.04 43.5293,-9.886 56.9438,-26.597 l 404.7247,-502.556 c 9.4805,-11.804 14.2174,-25.79 14.2003,-39.803 0,-9.32 -2.1053,-18.599 -6.3345,-27.267 -2.1231,-4.353 -4.7145,-8.561 -7.8658,-12.519 l -226.2285,-280.905 -179.1989,-221.405 c -1.1952,-1.441 -3.2858,-3.697 -4.5523,-5.028 -13.9985,-13.975 -33.0843,-21.605 -52.7579,-21.624 z m -20.4765,2.902 c -1.3979,0.388 -2.7895,0.798 -4.1759,1.268 1.3864,-0.453 2.778,-0.882 4.1759,-1.268 z m -4.1759,1.268 c -1.8306,0.599 -3.6523,1.253 -5.4556,2.017 1.8015,-0.766 3.6295,-1.396 5.4556,-2.017 z m -783.7427,-4.062 c -15.302,-0.02 -30.959,4.579 -44.853,14.373 l 43.255,53.32 -0.126,0.06 317.054,388.637 45.564,-56.554 -303.579,-373.183 c -1.196,-1.441 -3.286,-3.689 -4.552,-5.02 -14,-13.976 -33.085,-21.613 -52.758,-21.633 z m 775.3451,7.385 c -0.423,0.201 -0.8496,0.382 -1.2717,0.591 0.4221,-0.209 0.8487,-0.391 1.2717,-0.591 z m -5.8486,3.074 c -0.4372,0.254 -0.8708,0.514 -1.3053,0.778 0.4336,-0.263 0.869,-0.524 1.3053,-0.778 z m -11.4392,152.285 c -20.77,0.914 -40.9512,10.128 -54.3726,26.815 l -705.5957,880.252 v 0.195 l -42.727,53.015 c 9.736,6.982 22.877,12.236 35.153,13.82 1.019,0.104 1.994,0.224 2.979,0.305 1.052,0.09 2.134,0.122 3.205,0.162 1.162,0.05 2.314,0.117 3.489,0.117 v 0.07 c 3.165,0 6.267,-0.222 9.356,-0.638 0.566,-0.04 1.141,-0.173 1.716,-0.242 1.323,-0.214 2.58,-0.564 3.882,-0.84 2.115,-0.424 4.234,-0.861 6.301,-1.454 2.593,-0.77 5.139,-1.596 7.607,-2.622 0.594,-0.246 1.224,-0.456 1.808,-0.709 1.056,-0.483 2.107,-1.008 3.137,-1.526 1.302,-0.663 2.594,-1.314 3.866,-2.061 0.801,-0.466 1.606,-0.949 2.377,-1.456 1.622,-1.021 3.198,-2.081 4.719,-3.237 0.779,-0.584 1.547,-1.241 2.302,-1.843 3.606,-2.961 6.93,-6.226 9.874,-9.868 l 418.5889,-520.007 c 0,0 177.4894,48.419 318.8959,41.443 230.5341,-11.369 330.159,-63.794 330.159,-63.794 l -320.108,-392.584 c -13.9554,-9.716 -30.4632,-14.023 -46.6184,-13.314 z m -805.2073,0 c -20.765,0.914 -40.95,10.121 -54.383,26.808 l -295.185,376.965 296.407,368.507 c 45.576,52.2 82.5,37.495 134.607,-25.511 l 297.448,-361.141 c 0,0 -103.43,-29.255 -308.408,-30.201 -147.816,-0.681 -338.686,50.472 -338.686,50.472 l 315.525,-392.173 -0.728,-0.413 c -13.947,-9.716 -30.441,-14.025 -46.593,-13.314 z m 1614.143,1.152 c -2.4526,0.108 -4.8957,0.355 -7.3219,0.693 2.4266,-0.338 4.8687,-0.585 7.3219,-0.693 z m -9.8155,1.136 c -1.588,0.274 -3.1701,0.553 -4.7364,0.925 1.5646,-0.371 3.15,-0.651 4.7364,-0.925 z m -7.5812,1.703 c -1.446,0.404 -2.8822,0.829 -4.3012,1.317 1.4177,-0.488 2.8567,-0.913 4.3012,-1.317 z m 49.8232,2.825 c 0.8014,0.329 1.6093,0.639 2.4017,0.997 -0.7927,-0.358 -1.5999,-0.667 -2.4017,-0.997 z m -59.0432,0.328 c -0.2121,0.09 -0.416,0.196 -0.6276,0.288 0.2112,-0.09 0.4152,-0.199 0.6276,-0.288 z m 65.4055,2.638 c 0.6907,0.363 1.3937,0.695 2.0752,1.081 -0.6822,-0.387 -1.3838,-0.717 -2.0752,-1.081 z m -71.4293,0.255 c -0.1637,0.08 -0.3308,0.169 -0.4937,0.259 0.1628,-0.09 0.3303,-0.17 0.4937,-0.259 z m -5.8658,3.518 c -0.2284,0.152 -0.4595,0.298 -0.6862,0.452 0.2267,-0.154 0.4579,-0.3 0.6862,-0.452 z m -5.5979,4.117 c -0.2703,0.221 -0.5361,0.445 -0.8035,0.669 0.267,-0.223 0.5336,-0.449 0.8035,-0.669 z m -5.3641,4.84 c -0.1677,0.168 -0.3278,0.344 -0.4938,0.514 0.1658,-0.17 0.3266,-0.346 0.4938,-0.514 z m -981.3394,441.48 -38.827,48.216 -6.5101,8.039 212.7793,261.907 c 24.0512,29.533 73.602,38.288 105.3705,15.937 l -46.5929,-57.208 -0.8118,-0.997 -26.4926,-32.456 z"
         inkscape:connector-curvature="0"
         style="opacity:1;fill:#ffffff;stroke-width:2.06601167" />
    </g>
  </g>
</svg>
