<?xml version="1.0" encoding="UTF-8" standalone="no"?>
<!-- Created with Inkscape (http://www.inkscape.org/) -->

<svg
   xmlns:dc="http://purl.org/dc/elements/1.1/"
   xmlns:cc="http://creativecommons.org/ns#"
   xmlns:rdf="http://www.w3.org/1999/02/22-rdf-syntax-ns#"
   xmlns:svg="http://www.w3.org/2000/svg"
   xmlns="http://www.w3.org/2000/svg"
   xmlns:sodipodi="http://sodipodi.sourceforge.net/DTD/sodipodi-0.dtd"
   xmlns:inkscape="http://www.inkscape.org/namespaces/inkscape"
   width="39.574348mm"
   height="39.574352mm"
   viewBox="0 0 39.574348 39.574352"
   version="1.1"
   id="svg1129"
   inkscape:version="0.92.2 2405546, 2018-03-11"
   sodipodi:docname="your-new-cto.svg">
  <defs
     id="defs1123" />
  <sodipodi:namedview
     id="base"
     pagecolor="#ffffff"
     bordercolor="#666666"
     borderopacity="1.0"
     inkscape:pageopacity="0.0"
     inkscape:pageshadow="2"
     inkscape:zoom="6.6628241"
     inkscape:cx="79.788334"
     inkscape:cy="54.026467"
     inkscape:document-units="mm"
     inkscape:current-layer="layer1"
     showgrid="false"
     inkscape:pagecheckerboard="true"
     fit-margin-top="0"
     fit-margin-left="0"
     fit-margin-right="0"
     fit-margin-bottom="0"
     inkscape:window-width="1899"
     inkscape:window-height="2057"
     inkscape:window-x="9603"
     inkscape:window-y="2202"
     inkscape:window-maximized="0" />
  <metadata
     id="metadata1126">
    <rdf:RDF>
      <cc:Work
         rdf:about="">
        <dc:format>image/svg+xml</dc:format>
        <dc:type
           rdf:resource="http://purl.org/dc/dcmitype/StillImage" />
        <dc:title></dc:title>
      </cc:Work>
    </rdf:RDF>
  </metadata>
  <g
     inkscape:label="Layer 1"
     inkscape:groupmode="layer"
     id="layer1"
     transform="translate(-77.4702,-95.190089)">
    <ellipse
       style="opacity:1;fill:#00ff00;fill-opacity:0;stroke:#d40000;stroke-width:0;stroke-miterlimit:4;stroke-dasharray:none;stroke-dashoffset:0;stroke-opacity:1"
       id="path1133"
       cx="77.836334"
       cy="131.05025"
       rx="40.546772"
       ry="27.686371" />
    <ellipse
       style="opacity:1;fill:#ffd5d5;fill-opacity:0;stroke:#d40000;stroke-width:0;stroke-miterlimit:4;stroke-dasharray:none;stroke-dashoffset:0;stroke-opacity:1"
       id="path1678"
       cx="173.19426"
       cy="181.25636"
       rx="43.354725"
       ry="43.073929" />
    <path
       inkscape:connector-curvature="0"
       style="color:#000000;font-style:normal;font-variant:normal;font-weight:normal;font-stretch:normal;font-size:medium;line-height:normal;font-family:sans-serif;font-variant-ligatures:normal;font-variant-position:normal;font-variant-caps:normal;font-variant-numeric:normal;font-variant-alternates:normal;font-feature-settings:normal;text-indent:0;text-align:start;text-decoration:none;text-decoration-line:none;text-decoration-style:solid;text-decoration-color:#000000;letter-spacing:normal;word-spacing:normal;text-transform:none;writing-mode:lr-tb;direction:ltr;text-orientation:mixed;dominant-baseline:auto;baseline-shift:baseline;text-anchor:start;white-space:normal;shape-padding:0;clip-rule:nonzero;display:inline;overflow:visible;visibility:visible;opacity:1;isolation:auto;mix-blend-mode:normal;color-interpolation:sRGB;color-interpolation-filters:linearRGB;solid-color:#000000;solid-opacity:1;vector-effect:none;fill:#ffffff;fill-opacity:1;fill-rule:nonzero;stroke:none;stroke-width:1.21810138px;stroke-linecap:butt;stroke-linejoin:miter;stroke-miterlimit:10;stroke-dasharray:none;stroke-dashoffset:0;stroke-opacity:1;color-rendering:auto;image-rendering:auto;shape-rendering:auto;text-rendering:auto;enable-background:accumulate"
       d="m 97.257326,95.190089 c -5.247639,-1.8e-5 -10.280992,2.084861 -13.991623,5.795501 -3.71066,3.71065 -5.795503,8.74398 -5.795503,13.99164 0,5.24764 2.084843,10.28102 5.795503,13.99167 3.71065,3.71065 8.744021,5.79553 13.99166,5.79554 5.247667,0 10.280987,-2.08493 13.991647,-5.79558 3.71064,-3.71064 5.79555,-8.74396 5.79554,-13.9916 0,-5.24766 -2.08489,-10.28102 -5.79554,-13.99167 -3.71065,-3.710658 -8.74402,-5.79551 -13.991684,-5.795501 z m 0,1.218062 c 4.925064,0 9.647794,1.956239 13.130344,5.438769 3.48254,3.48256 5.43877,8.20524 5.43877,13.13031 10e-6,4.92505 -1.95623,9.64778 -5.43877,13.13033 -3.48255,3.48254 -8.20527,5.43878 -13.130344,5.43877 -4.925054,0 -9.647749,-1.95623 -13.130291,-5.43877 -3.482543,-3.48255 -5.438782,-8.20528 -5.438782,-13.13033 0,-4.92507 1.956239,-9.64776 5.438782,-13.13031 3.482542,-3.48253 8.205237,-5.438769 13.130291,-5.438769 z m 4.511834,4.760679 c -0.18251,6.5e-4 -0.31043,0.005 -0.31743,0.0113 -0.006,0.006 0.0275,0.0502 0.0749,0.0976 0.14776,0.14775 0.20739,0.42707 0.13595,0.63673 -0.034,0.0998 -0.16363,0.24949 -0.21609,0.24949 -0.0367,0 -0.0378,0.0109 0.0121,-0.11943 0.034,-0.0886 0.04,-0.13702 0.0314,-0.25366 -0.0201,-0.27358 -0.15679,-0.42012 -0.40879,-0.43815 -0.16511,-0.0118 -0.14174,-0.0233 -0.69476,0.34217 -0.505049,0.33379 -1.08418,0.6856 -2.064845,1.25429 -0.439814,0.25506 -0.50475,0.30384 -0.832665,0.62607 -0.34042,0.3345 -0.4283,0.47955 -0.29059,0.47955 0.131048,0 0.211394,0.10493 0.188946,0.24682 -0.01755,0.11107 -0.15107,0.38208 -0.249784,0.50697 -0.0883,0.11175 -0.296149,0.28513 -0.322336,0.26894 -0.0092,-0.006 0.02527,-0.061 0.07617,-0.1233 0.151419,-0.18529 0.359909,-0.65418 0.31211,-0.70197 -0.05945,-0.0594 -0.374813,0.11842 -0.682053,0.38465 -0.103574,0.0898 -0.28799,0.38071 -0.329692,0.52023 -0.03473,0.11598 -0.02692,0.16107 0.05632,0.32918 0.09179,0.18526 0.229798,0.32922 0.355792,0.37106 0.145015,0.0481 0.346549,0.0289 0.492896,-0.047 0.359845,-0.18658 0.444344,-0.24926 0.75684,-0.56159 0.708751,-0.70836 1.609934,-1.44659 2.185371,-1.7902 0.1064,-0.0636 0.25525,-0.15336 0.33079,-0.19962 0.43514,-0.26643 1.22367,-0.47525 2.03861,-0.53989 0.20905,-0.0165 0.49862,-0.0181 1.01857,-0.006 l 0.72648,0.0177 0.0617,0.0631 c 0.059,0.0604 0.0599,0.0636 0.0199,0.0743 -0.023,0.006 -0.34629,0.0114 -0.71849,0.0117 -0.74255,4.3e-4 -1.35476,0.0357 -1.72835,0.0994 -0.45399,0.0775 -0.91613,0.20498 -1.15485,0.31873 -0.3593,0.17123 -0.879105,0.53883 -1.346328,0.95211 -0.590534,0.52237 -1.450888,1.35091 -1.708464,1.64528 -0.105375,0.12042 -0.357428,0.38837 -0.560157,0.59545 -0.202728,0.20707 -0.355158,0.36901 -0.338747,0.35983 0.01645,-0.009 0.06772,-0.0423 0.113957,-0.0736 0.294376,-0.19932 0.595772,-0.247 0.692087,-0.10948 0.04116,0.0587 0.03758,0.11665 -0.01387,0.22243 -0.05816,0.11978 -0.09719,0.12117 -0.07002,0.003 0.03087,-0.13478 0.01369,-0.15779 -0.11042,-0.14747 -0.137269,0.0114 -0.320278,0.10312 -0.554202,0.27779 -0.239392,0.17874 -0.40962,0.34598 -0.437158,0.42947 -0.02977,0.09 -0.02885,0.26171 0.0018,0.3556 0.03547,0.10862 0.143949,0.27345 0.211587,0.32151 0.09855,0.07 0.211357,0.10727 0.359946,0.11891 0.188872,0.0148 0.288247,-0.0229 0.483036,-0.18312 0.56658,-0.46608 1.762889,-1.3274 2.547652,-1.83424 0.236331,-0.15263 0.569681,-0.33546 0.905621,-0.49669 0.2187,-0.10496 0.28071,-0.14549 0.40057,-0.26184 0.152,-0.14753 0.271,-0.20717 0.48514,-0.24315 0.0602,-0.0101 0.19456,-0.0363 0.29854,-0.0582 0.10401,-0.0219 0.2697,-0.0488 0.36822,-0.0598 0.0985,-0.0111 0.31247,-0.0385 0.47541,-0.0609 0.24179,-0.0333 0.40097,-0.0408 0.86581,-0.0406 0.61172,2.2e-4 0.89039,0.0212 0.97946,0.0738 0.055,0.0325 0.0552,0.0335 0.0157,0.0613 -0.0335,0.0235 -0.12595,0.0259 -0.55142,0.0142 -0.54736,-0.015 -1.19663,0.0105 -1.50629,0.0591 -0.0985,0.0154 -0.25974,0.0382 -0.35827,0.0506 -0.27826,0.0351 -0.49008,0.0787 -0.57721,0.1188 -0.0457,0.021 -0.0644,0.0373 -0.044,0.0383 0.10545,0.005 0.30484,0.15625 0.38401,0.29135 0.0933,0.15923 0.14327,0.43763 0.10735,0.59833 -0.0231,0.10329 -0.1033,0.2067 -0.16035,0.2067 -0.0313,0 -0.0311,-0.006 0.004,-0.0739 0.067,-0.13136 0.0389,-0.36756 -0.0678,-0.56988 -0.0893,-0.16942 -0.22107,-0.25661 -0.44009,-0.29124 -0.0973,-0.0153 -0.10438,-0.0131 -0.2218,0.0707 -0.0667,0.0476 -0.25946,0.15957 -0.42834,0.24882 -0.39836,0.21052 -0.55728,0.30674 -1.030687,0.62408 -0.667884,0.4477 -0.896028,0.60902 -1.977728,1.39847 l -0.372617,0.27197 0.05577,0.0339 c 0.08591,0.0523 0.113149,0.13811 0.08444,0.26641 -0.02058,0.092 -0.127731,0.30271 -0.1821,0.35804 -0.04043,0.0412 -0.03675,-0.009 0.0097,-0.13284 0.06561,-0.17427 0.0827,-0.31183 0.04493,-0.36228 -0.02821,-0.0378 -0.03216,-0.037 -0.163943,0.0299 -0.129303,0.0656 -0.137811,0.0744 -0.199733,0.20783 -0.231039,0.49773 -0.142553,0.72708 0.349645,0.90671 0.234916,0.0857 0.392979,0.0861 0.723591,0.002 0.140641,-0.0359 0.321271,-0.0915 0.401396,-0.12361 0.08013,-0.0321 0.153523,-0.0583 0.163125,-0.0583 0.0096,0 0.09318,-0.0491 0.185758,-0.10899 0.09258,-0.0599 0.239979,-0.1402 0.327556,-0.17833 0.625809,-0.27248 0.766377,-0.34135 1.025037,-0.50225 0.28799,-0.17915 0.80566,-0.47847 0.97528,-0.56392 0.0493,-0.0248 0.12538,-0.0699 0.16918,-0.10025 0.14879,-0.1031 0.58693,-0.21504 1.01507,-0.25933 0.10948,-0.0113 0.28415,-0.0375 0.38815,-0.0581 0.104,-0.0206 0.42643,-0.0833 0.71653,-0.13933 0.2901,-0.056 0.6349,-0.12355 0.76626,-0.1501 0.61657,-0.12462 0.97111,-0.16767 1.06399,-0.12919 0.0334,0.0138 0.0606,0.0319 0.0606,0.0401 0,0.029 -0.20526,0.10297 -0.38548,0.13907 -0.21489,0.043 -0.45777,0.0748 -0.75898,0.0993 -0.12041,0.01 -0.2861,0.0313 -0.36821,0.048 -0.0821,0.0166 -0.27467,0.0398 -0.42793,0.0515 -0.27301,0.0208 -0.6582,0.0893 -0.85586,0.1522 -0.36726,0.11677 -1.73602,0.89687 -2.36853,1.34989 -0.10947,0.0784 -0.2346,0.16421 -0.278056,0.19067 -0.04346,0.0265 -0.137508,0.10113 -0.208986,0.16594 -0.07149,0.0648 -0.150574,0.13139 -0.175779,0.14793 l -0.04585,0.03 0.07562,0.0421 c 0.09247,0.0514 0.145328,0.15038 0.145328,0.27224 0,0.12024 -0.04631,0.26988 -0.101755,0.32894 -0.05155,0.0549 -0.108049,0.0644 -0.08913,0.0151 0.0064,-0.0178 0.02564,-0.10799 0.04172,-0.20043 0.03777,-0.21634 0.01636,-0.26981 -0.124763,-0.31158 -0.115501,-0.0342 -0.131406,-0.027 -0.295662,0.13407 -0.147183,0.14436 -0.171809,0.22001 -0.11778,0.3615 0.04172,0.10928 0.177956,0.24883 0.301139,0.30845 0.129449,0.0627 0.394734,0.0747 0.656144,0.0299 0.26803,-0.046 0.71404,-0.14615 0.81337,-0.18257 0.0446,-0.0164 0.16614,-0.0519 0.27013,-0.0791 0.32022,-0.0836 0.65103,-0.20412 0.97432,-0.355 0.439,-0.20486 0.47232,-0.21412 0.74127,-0.20558 0.15156,0.005 0.27614,0.0214 0.38153,0.0507 0.15207,0.0424 0.57679,0.0888 0.81878,0.0895 0.1438,4.4e-4 0.2891,-0.0468 0.79059,-0.25692 0.70982,-0.29741 0.83154,-0.34383 0.83154,-0.3172 0,0.0424 -0.18078,0.1937 -0.35804,0.29979 -0.0914,0.0548 -0.19133,0.1248 -0.22194,0.15569 -0.067,0.0675 -0.0889,0.16541 -0.0581,0.25892 0.0259,0.0786 0.18172,0.23236 0.33203,0.32775 l 0.10201,0.0648 0.0414,0.17772 c 0.11377,0.48785 0.56405,1.40332 0.94061,1.91242 0.19866,0.26857 0.65569,0.6937 0.85519,0.79547 0.0942,0.0481 0.54776,0.16317 0.85469,0.21687 0.56671,0.0991 1.22285,0.16258 1.69678,0.16406 0.18336,6.5e-4 0.33339,0.008 0.33339,0.0179 0,0.0224 -0.23381,0.0907 -0.40801,0.11909 -0.18308,0.0299 -0.77477,0.029 -1.07077,-0.002 -0.12916,-0.0133 -0.23886,-0.0201 -0.24383,-0.0152 -0.005,0.005 0.0737,0.0708 0.17488,0.14635 0.10114,0.0755 0.28067,0.23082 0.39895,0.34509 0.39653,0.3831 0.61159,0.67546 1.76551,2.40025 0.92304,1.37971 1.17764,1.74469 1.4977,2.14682 0.24022,0.30184 0.63021,0.7439 0.92983,1.05412 0.16097,0.16665 0.37178,0.35804 0.58809,0.53892 a 17.447005,17.447005 0 0 0 0.87794,-5.42632 17.447005,17.447005 0 0 0 -0.87925,-5.3997 c -0.28792,-0.24515 -0.63119,-0.55456 -0.93408,-0.84453 -0.58533,-0.56034 -0.84849,-0.76074 -1.16725,-0.88877 -0.1463,-0.0588 -0.70754,-0.31826 -0.88284,-0.40819 -0.0657,-0.0337 -0.21125,-0.12979 -0.32352,-0.21358 l -0.2041,-0.15234 -0.16696,-0.3284 c -0.21519,-0.42329 -0.32959,-0.68922 -0.51779,-1.20376 -0.084,-0.22967 -0.18864,-0.49936 -0.23249,-0.59935 -0.19042,-0.43418 -0.71612,-1.19813 -1.14927,-1.67006 -0.0703,-0.0766 -0.17045,-0.2023 -0.22246,-0.27925 -0.052,-0.0769 -0.10869,-0.15161 -0.12597,-0.16594 -0.0269,-0.0223 -0.0332,-0.0191 -0.0435,0.0225 -0.017,0.0676 0.0243,0.27811 0.0784,0.4006 0.0249,0.0564 0.0606,0.1488 0.0795,0.20535 0.0187,0.0566 0.0691,0.15692 0.11181,0.223 0.0427,0.0661 0.1273,0.22735 0.18794,0.35837 0.0976,0.21085 0.11013,0.25264 0.10952,0.36375 -8.7e-4,0.14235 -0.0324,0.28166 -0.11001,0.48382 -0.0713,0.18579 -0.0766,0.43272 -0.0138,0.63692 0.0236,0.0766 0.0487,0.18415 0.0558,0.23894 0.0153,0.11833 -0.023,0.46663 -0.0621,0.56636 -0.0152,0.0388 -0.0498,0.1645 -0.0767,0.27945 -0.0547,0.23284 -0.19814,0.6725 -0.2297,0.70407 -0.0341,0.0341 -0.0246,-0.0441 0.0485,-0.39921 0.16021,-0.77789 0.17935,-1.05322 0.0898,-1.29011 -0.11671,-0.30855 -0.12672,-0.51199 -0.0392,-0.79613 0.10553,-0.34287 0.0782,-0.50246 -0.16541,-0.96532 -0.20155,-0.38291 -0.30837,-0.67388 -0.32205,-0.87729 -0.0142,-0.20991 -0.0469,-0.49217 -0.0738,-0.63538 -0.0747,-0.39792 -0.49054,-0.87928 -0.87715,-1.01516 -0.24118,-0.0848 -0.45117,-0.0941 -1.27849,-0.0566 -0.46651,0.0211 -0.59497,0.0192 -1.30369,-0.0195 -0.43241,-0.0236 -0.9877,-0.052 -1.23402,-0.0632 -0.30036,-0.0136 -0.75624,-0.0209 -1.06049,-0.0199 v 0 z m -4.776117,0.21917 c -0.05982,4.3e-4 -0.163254,0.17786 -0.564439,0.9685 l -0.314819,0.62051 0.04236,0.0861 c 0.04999,0.10146 0.119571,0.32918 0.205301,0.67209 0.04686,0.18726 0.07378,0.25874 0.110658,0.29288 0.02683,0.0248 0.06184,0.0402 0.07792,0.034 0.04567,-0.0175 1.202772,-1.41402 1.308891,-1.57968 0.0555,-0.0866 0.02527,-0.14576 -0.138775,-0.27137 -0.217256,-0.1664 -0.682302,-0.70503 -0.682302,-0.79025 0,-0.0211 -0.01617,-0.033 -0.04475,-0.0327 z m -3.481945,1.23855 c -0.150454,-8.6e-4 -0.304501,0.003 -0.462353,0.0118 -0.705383,0.0388 -1.169647,0.10985 -1.842686,0.28203 -0.282329,0.0722 -0.348111,0.0986 -0.776236,0.31041 -0.257254,0.12731 -0.483386,0.24527 -0.502544,0.26214 -0.03087,0.0272 -0.03482,0.0739 -0.03482,0.4131 0,0.41538 0.0192,0.56914 0.122071,0.97482 0.261361,1.03103 0.537075,1.75621 0.800457,2.10557 0.35356,0.46893 0.611025,0.65445 1.692204,1.21923 0.340788,0.17801 0.629357,0.32451 0.641274,0.32557 0.01194,9.2e-4 0.08058,-0.0724 0.152688,-0.16338 0.154736,-0.19528 0.467085,-0.49908 0.598418,-0.58206 0.05109,-0.0323 0.09286,-0.0632 0.09267,-0.0687 -2.21e-4,-0.006 -0.05164,-0.0315 -0.114408,-0.058 -0.265431,-0.1117 -0.729071,-0.39386 -0.97414,-0.59286 -0.135349,-0.10989 -0.575622,-0.50433 -0.76521,-0.68552 -0.366378,-0.35014 -0.653725,-0.83472 -0.653743,-1.10246 0,-0.23487 0.207745,-0.34639 0.404033,-0.21692 0.236303,0.15586 0.658456,0.64649 0.90382,1.05041 0.09423,0.15511 0.206128,0.4128 0.190333,0.43836 -0.01332,0.0216 -0.04741,-0.0153 -0.402783,-0.43529 -0.252191,-0.29815 -0.635375,-0.68669 -0.677146,-0.68669 -0.04218,0 -0.0092,0.13446 0.07369,0.29855 0.104098,0.20648 0.270679,0.42161 0.550886,0.7115 0.395175,0.40882 0.632664,0.58889 1.216187,0.92203 0.568767,0.32472 0.641008,0.34146 0.972892,0.22558 0.374169,-0.13063 0.772707,-0.19343 1.067258,-0.16818 0.220463,0.0189 0.20113,0.0306 0.344527,-0.2081 0.05265,-0.0876 0.149728,-0.22639 0.21584,-0.30849 0.06607,-0.0821 0.128962,-0.17168 0.139722,-0.19904 0.01075,-0.0274 0.02472,-0.18186 0.03097,-0.34334 0.0095,-0.24393 0.0064,-0.29358 -0.01645,-0.29377 -0.05899,-4.5e-4 -0.23872,-0.10016 -0.326774,-0.18133 -0.188679,-0.17392 -0.258953,-0.39345 -0.200532,-0.62608 0.04429,-0.17629 0.147376,-0.37597 0.257244,-0.49816 0.08049,-0.0896 0.08913,-0.10845 0.08187,-0.17843 -0.0046,-0.0431 -0.01801,-0.17231 -0.03005,-0.28726 -0.03923,-0.37462 -0.174059,-0.9426 -0.245215,-1.03351 -0.03437,-0.0439 -0.515767,-0.26853 -0.747164,-0.34866 -0.539905,-0.18693 -1.124788,-0.28099 -1.776767,-0.28485 z m -4.298446,0.11457 c -0.12401,0 -0.237103,0.065 -0.38391,0.22062 -0.129311,0.13708 -0.282982,0.3623 -0.847071,1.24152 -0.158743,0.24741 -0.426463,0.6354 -0.594927,0.86221 -0.168482,0.22681 -0.318468,0.4412 -0.333363,0.47642 -0.06496,0.15369 -0.0159,0.2633 0.145088,0.32351 0.440457,0.1648 1.827874,0.50283 2.723811,0.66365 0.179941,0.0324 0.256978,0.0387 0.273141,0.0225 0.0064,-0.006 -0.01544,-0.08 -0.04787,-0.16422 -0.0849,-0.22035 -0.187971,-0.56728 -0.267361,-0.89951 -0.19796,-0.82831 -0.240889,-1.27871 -0.198732,-2.0835 l 0.01792,-0.34197 -0.128107,-0.12998 c -0.140908,-0.14299 -0.231398,-0.19124 -0.358605,-0.19124 z m 3.212342,0.5314 h 2.21e-4 2.11e-4 c 0.01498,-4.3e-4 0.03005,0.004 0.04319,0.0111 l 2.12e-4,2.1e-4 c 0.01902,0.0115 0.03207,0.0304 0.0362,0.0518 0,4.4e-4 0,8.8e-4 2.11e-4,9.2e-4 4.32e-4,0.002 8.73e-4,0.005 8.73e-4,0.006 l 0.05614,0.54529 -0.151456,0.0603 -0.05008,-0.48667 -2.12e-4,-9.2e-4 -0.536983,0.21417 0.0098,0.002 c 0.182946,0.0504 0.396609,0.14407 0.581373,0.31635 0.0096,0.009 0.01939,0.0183 0.02894,0.0277 l 0.71515,-0.28485 c 0.02288,-0.009 0.04879,-0.007 0.07002,0.006 0.02104,0.0127 0.03492,0.0345 0.03731,0.0589 l 0.07167,0.73199 c 6.53e-4,0.006 4.32e-4,0.0114 -4.32e-4,0.017 v -2.1e-4 c -9.18e-4,0.011 -0.0046,0.0215 -0.01075,0.0309 -0.0083,0.014 -0.02169,0.0254 -0.03777,0.0318 l -0.688412,0.27419 c -0.02288,0.009 -0.04879,0.007 -0.06983,-0.006 h -2.2e-4 c -0.02104,-0.0127 -0.03482,-0.0343 -0.03731,-0.0585 l -0.0566,-0.54728 0.07369,-0.0294 0.01112,-0.005 0.06597,-0.0263 0.03804,0.36119 0.0046,0.0491 0.0083,0.0785 0.537221,-0.21403 -0.0037,-2.2e-4 c -0.196168,-0.029 -0.430882,-0.13791 -0.619304,-0.34456 l -0.13329,0.0531 c -0.0083,0.002 -0.01654,0.006 -0.02389,0.01 l -0.555177,0.22107 c -0.0046,0.002 -0.0102,0.004 -0.01544,0.005 -9.19e-4,2.2e-4 -0.0018,2.2e-4 -0.0037,4.3e-4 -0.0018,2.2e-4 -0.0046,4.3e-4 -0.0064,6.5e-4 -9.19e-4,2.2e-4 -0.0018,2.2e-4 -0.0028,2.2e-4 -0.0018,0 -0.0037,-2.2e-4 -0.0046,-2.2e-4 -9.19e-4,-2.2e-4 -0.0028,-2.2e-4 -0.0037,-4.3e-4 -8.63e-4,0 -9.19e-4,-2.2e-4 -0.0018,-2.2e-4 -0.0028,-4.3e-4 -0.0055,-9.2e-4 -0.0092,-0.002 -0.0028,-6.5e-4 -0.0046,-9.2e-4 -0.0064,-0.002 -9.19e-4,-4.3e-4 -0.0028,-8.6e-4 -0.0046,-0.002 -6.53e-4,-2.2e-4 -9.19e-4,-4.3e-4 -0.0018,-6.6e-4 -0.0028,-9.1e-4 -0.0064,-0.003 -0.0092,-0.005 -9.19e-4,-6.5e-4 -0.0018,-0.002 -0.0028,-0.002 -8.64e-4,-6.5e-4 -0.0018,-9.2e-4 -0.0028,-0.002 -8.64e-4,-6.6e-4 -0.0018,-9.2e-4 -0.0028,-0.002 -0.01066,-0.008 -0.01865,-0.0197 -0.02362,-0.0323 -0.0028,-0.006 -0.0046,-0.0134 -0.0046,-0.0206 l -0.0055,-0.058 -0.06607,-0.674 c -0.0018,-0.0172 0.0028,-0.0339 0.01103,-0.048 0.0083,-0.014 0.02169,-0.0253 0.03786,-0.0317 l 0.68842,-0.27422 c 0.0083,-0.004 0.01746,-0.006 0.02646,-0.006 z m 2.190292,0.11839 v 0 c 0.01498,-4.3e-4 0.02996,0.004 0.04319,0.0111 l 2.21e-4,2.2e-4 c 0.01902,0.0115 0.03207,0.0304 0.03629,0.0519 0,4.3e-4 0,8.7e-4 2.11e-4,9.2e-4 4.32e-4,0.002 8.64e-4,0.005 8.64e-4,0.006 l 0.05614,0.5453 -0.151456,0.0603 -0.05008,-0.48667 -2.11e-4,-9.2e-4 -0.53702,0.21418 0.0098,0.002 c 0.182936,0.0504 0.396691,0.14408 0.581447,0.31634 0.0096,0.009 0.0193,0.0183 0.02894,0.0277 l 0.715141,-0.28484 c 0.02288,-0.009 0.04888,-0.007 0.07002,0.006 0.02104,0.0127 0.03492,0.0345 0.0373,0.0589 l 0.07176,0.73199 c 6.52e-4,0.006 4.41e-4,0.0115 -4.32e-4,0.017 v -2.2e-4 c -9.19e-4,0.011 -0.0046,0.0216 -0.01075,0.0309 -0.0083,0.0141 -0.02159,0.0254 -0.03776,0.0318 l -0.688449,0.27418 c -0.02288,0.009 -0.0487,0.007 -0.06983,-0.006 h -2.11e-4 c -0.02104,-0.0127 -0.03482,-0.0343 -0.03731,-0.0585 l -0.0566,-0.54728 0.07379,-0.0294 0.01103,-0.005 0.06607,-0.0263 0.03795,0.36119 0.0055,0.0491 0.0083,0.0785 0.537222,-0.21402 -0.0037,-2.1e-4 c -0.196178,-0.029 -0.430919,-0.13791 -0.61935,-0.34457 l -0.133217,0.0531 c -0.0083,0.002 -0.01663,0.006 -0.02398,0.01 l -0.555103,0.22108 c -0.0046,0.002 -0.0102,0.004 -0.01544,0.005 -9.19e-4,2.2e-4 -0.0018,4.4e-4 -0.0037,4.4e-4 -0.0018,2.1e-4 -0.0046,4.3e-4 -0.0064,6.5e-4 -9.19e-4,2.1e-4 -0.0018,2.1e-4 -0.0028,2.1e-4 -0.0018,0 -0.0037,-2.1e-4 -0.0046,-2.1e-4 -9.18e-4,-2.2e-4 -0.0028,-2.2e-4 -0.0037,-4.4e-4 -8.64e-4,0 -9.19e-4,-2.1e-4 -0.0018,-2.1e-4 -0.0028,-4.4e-4 -0.0055,-9.2e-4 -0.0092,-0.002 -0.0028,-6.4e-4 -0.0046,-9.2e-4 -0.0064,-0.002 -9.19e-4,-4.3e-4 -0.0028,-8.6e-4 -0.0046,-9.2e-4 -6.43e-4,-2.2e-4 -9.19e-4,-4.3e-4 -0.0018,-6.5e-4 -0.0028,-9.2e-4 -0.0064,-0.003 -0.0092,-0.005 -9.19e-4,-6.6e-4 -0.0018,-0.002 -0.0028,-0.002 -8.63e-4,-6.5e-4 -0.0018,-9.2e-4 -0.0028,-0.002 -8.64e-4,-6.5e-4 -0.0018,-9.2e-4 -0.0028,-0.002 -0.01066,-0.008 -0.01865,-0.0197 -0.02361,-0.0322 -0.0028,-0.006 -0.0046,-0.0134 -0.0046,-0.0206 l -0.0055,-0.058 -0.06597,-0.674 c -0.0018,-0.0172 0.0028,-0.0339 0.01103,-0.048 0.0083,-0.014 0.02168,-0.0253 0.03786,-0.0317 l 0.688412,-0.27423 c 0.0083,-0.004 0.01755,-0.006 0.02646,-0.006 z m 6.394884,0.0368 c 0.1443,0 0.1708,0.006 0.25839,0.0604 0.11325,0.07 0.23329,0.21947 0.27929,0.34768 0.0439,0.12242 0.06,0.47158 0.0283,0.61414 -0.0137,0.0618 -0.0465,0.15489 -0.0727,0.20689 -0.0263,0.052 -0.0574,0.0945 -0.0694,0.0945 -0.0131,0 -0.0158,-0.014 -0.007,-0.0348 0.0696,-0.16437 0.0768,-0.20525 0.0778,-0.44287 8.7e-4,-0.22728 -0.004,-0.25827 -0.0504,-0.35827 -0.0688,-0.14636 -0.13423,-0.21992 -0.2531,-0.28462 -0.13452,-0.0732 -0.24876,-0.0863 -0.39179,-0.0446 -0.12369,0.0359 -0.16601,0.0195 -0.12874,-0.0502 0.0362,-0.0676 0.15965,-0.10818 0.32926,-0.10818 z m -12.219597,1.03821 v 0 c 0.01121,-4.3e-4 0.02251,0.003 0.03244,0.008 v 2.2e-4 c 0.01434,0.008 0.02407,0.0222 0.02729,0.0379 0,4.3e-4 0,6.5e-4 2.2e-4,9.2e-4 2.12e-4,0.002 6.53e-4,0.003 8.64e-4,0.005 l 0.04227,0.39914 -0.113994,0.0441 -0.03777,-0.35624 -2.2e-4,-8.8e-4 -0.404281,0.15675 0.0074,9.2e-4 c 0.137746,0.0369 0.298621,0.10542 0.437755,0.23152 0.0074,0.006 0.01452,0.0134 0.02178,0.0203 l 0.538398,-0.20851 c 0.01727,-0.006 0.03685,-0.006 0.05274,0.005 0.0159,0.009 0.02628,0.0253 0.02812,0.0431 l 0.05403,0.53584 c 4.32e-4,0.005 2.11e-4,0.008 -2.21e-4,0.0124 l 2.21e-4,-2.1e-4 c -8.64e-4,0.008 -0.0037,0.0158 -0.0083,0.0226 -0.0064,0.0103 -0.01626,0.0186 -0.02839,0.0232 l -0.518394,0.20069 c -0.01718,0.006 -0.03666,0.006 -0.05256,-0.004 h -2.21e-4 c -0.0158,-0.009 -0.02619,-0.0251 -0.02812,-0.0428 l -0.04264,-0.40061 0.0555,-0.0215 0.0083,-0.003 0.04971,-0.0193 0.02858,0.26439 0.0037,0.0359 0.0064,0.0574 0.40451,-0.15667 -0.0028,-2.2e-4 c -0.147707,-0.0212 -0.324506,-0.10093 -0.466369,-0.25219 l -0.100321,0.0389 c -0.0064,9.2e-4 -0.0125,0.004 -0.01801,0.007 l -0.417944,0.16185 c -0.0037,0.002 -0.0074,0.003 -0.01158,0.003 -8.64e-4,0 -0.0018,2.2e-4 -0.0028,4.4e-4 -0.0018,2.2e-4 -0.0037,2.2e-4 -0.0046,4.3e-4 -8.73e-4,2.2e-4 -0.0018,2.2e-4 -0.0028,2.2e-4 -9.19e-4,0 -0.0028,-2.2e-4 -0.0037,-2.2e-4 -8.64e-4,0 -0.0018,0 -0.0028,-2.1e-4 -6.53e-4,0 -9.19e-4,-2.2e-4 -0.0018,-2.2e-4 -0.0018,-2.2e-4 -0.0046,-6.6e-4 -0.0064,-9.2e-4 -0.0018,-4.3e-4 -0.0037,-9.2e-4 -0.0055,-0.002 -9.19e-4,-4.3e-4 -0.0018,-6.5e-4 -0.0028,-9.2e-4 -4.32e-4,-2.1e-4 -8.64e-4,-2.1e-4 -9.19e-4,-4.3e-4 -0.0028,-9.2e-4 -0.0046,-0.002 -0.0064,-0.004 -8.64e-4,-4.4e-4 -0.0018,-9.2e-4 -0.0028,-0.002 -8.64e-4,-4.4e-4 -9.19e-4,-9.2e-4 -0.0018,-0.002 -6.53e-4,-4.4e-4 -9.19e-4,-8.7e-4 -0.0018,-0.002 -0.0083,-0.006 -0.01406,-0.0144 -0.01783,-0.0236 -0.0018,-0.005 -0.0037,-0.01 -0.0037,-0.0151 l -0.0046,-0.0425 -0.04971,-0.49336 c -9.19e-4,-0.0126 0.0018,-0.0248 0.0083,-0.0351 0.0064,-0.0102 0.01626,-0.0186 0.02839,-0.0233 l 0.518321,-0.20072 c 0.0064,-0.003 0.01323,-0.004 0.02003,-0.004 z m 5.587793,0.72032 v 0 c 0.01498,-4.3e-4 0.02996,0.004 0.04319,0.0111 v 2.2e-4 c 0.01902,0.0115 0.03207,0.0304 0.0362,0.0519 0,4.3e-4 0,8.6e-4 2.21e-4,9.1e-4 4.32e-4,0.002 8.63e-4,0.005 8.63e-4,0.006 l 0.05614,0.5453 -0.151456,0.0603 -0.05008,-0.48666 v -9.2e-4 l -0.53702,0.21417 0.0099,0.002 c 0.182927,0.0504 0.39659,0.14408 0.581373,0.31635 0.0096,0.009 0.01939,0.0183 0.02894,0.0277 l 0.715141,-0.28485 c 0.02288,-0.009 0.04879,-0.007 0.06993,0.006 0.02104,0.0127 0.03492,0.0345 0.0374,0.0589 l 0.07167,0.732 c 6.52e-4,0.006 4.32e-4,0.0115 -4.32e-4,0.017 v -2.2e-4 c -9.19e-4,0.0111 -0.0046,0.0216 -0.01075,0.0309 -0.0083,0.0141 -0.02159,0.0254 -0.03777,0.0318 l -0.688494,0.27419 c -0.02288,0.009 -0.0487,0.007 -0.06974,-0.006 h -2.11e-4 c -0.02104,-0.0127 -0.03482,-0.0343 -0.03731,-0.0585 l -0.0566,-0.54729 0.07379,-0.0294 0.01103,-0.005 0.06607,-0.0263 0.03795,0.3612 0.0055,0.0491 0.0083,0.0785 0.537195,-0.21402 -0.0037,-2.2e-4 c -0.196168,-0.029 -0.430974,-0.13792 -0.619405,-0.34457 l -0.133235,0.0531 c -0.0083,0.002 -0.01663,0.006 -0.02389,0.01 l -0.555094,0.22108 c -0.0046,0.002 -0.0102,0.004 -0.01544,0.005 -9.19e-4,2.2e-4 -0.0018,2.2e-4 -0.0037,4.3e-4 -0.0018,2.2e-4 -0.0046,4.3e-4 -0.0064,6.5e-4 -9.18e-4,2.3e-4 -0.0018,2.3e-4 -0.0028,2.3e-4 -0.0018,0 -0.0037,-2.3e-4 -0.0046,-2.3e-4 -9.19e-4,-2.2e-4 -0.0028,-2.2e-4 -0.0037,-4.3e-4 -8.73e-4,0 -0.0018,-2.2e-4 -0.0018,-2.2e-4 -0.0028,-4.3e-4 -0.0055,-9.2e-4 -0.0092,-0.002 -0.0028,-6.5e-4 -0.0046,-9.1e-4 -0.0064,-0.002 -9.19e-4,-4.3e-4 -0.0028,-8.7e-4 -0.0046,-9.2e-4 -6.43e-4,-2.1e-4 -9.18e-4,-4.3e-4 -0.0018,-6.5e-4 -0.0028,-9.1e-4 -0.0064,-0.003 -0.0092,-0.005 -9.19e-4,-6.5e-4 -0.0018,-0.002 -0.0037,-0.002 -8.64e-4,-6.5e-4 -0.0018,-9.2e-4 -0.0028,-0.002 -8.64e-4,-6.6e-4 -0.0018,-9.2e-4 -0.0028,-0.002 -0.01066,-0.008 -0.01865,-0.0197 -0.02361,-0.0322 -0.0028,-0.006 -0.0046,-0.0134 -0.0046,-0.0206 l -0.0055,-0.058 -0.06597,-0.674 c -0.0018,-0.0172 0.0028,-0.0339 0.01103,-0.048 0.0083,-0.0141 0.02159,-0.0253 0.03777,-0.0317 l 0.68842,-0.27423 c 0.0083,-0.004 0.01746,-0.006 0.02646,-0.006 z m 1.266946,2.41591 c -0.114307,-9.2e-4 -0.219672,0.0178 -0.407028,0.0657 -0.219544,0.0561 -0.614159,0.20406 -0.604841,0.22671 0.0037,0.008 0.100073,0.096 0.215013,0.19548 0.233143,0.20178 0.456574,0.42619 0.622134,0.62487 0.142341,0.17084 0.317936,0.43127 0.30894,0.45822 -0.0037,0.0116 -0.05109,-0.0315 -0.105026,-0.0956 -0.312422,-0.3717 -0.908644,-0.913 -1.212475,-1.10077 -0.07351,-0.0455 -0.085,-0.0468 -0.22366,-0.0268 -0.118745,0.0171 -0.171304,0.0373 -0.280171,0.10799 -0.149076,0.0967 -0.343994,0.27985 -0.440052,0.4134 -0.09161,0.12733 -0.08123,0.24778 0.02214,0.25838 0.0083,8.8e-4 0.06956,0.0817 0.135734,0.17958 0.281576,0.41671 0.798151,1.01964 1.264428,1.47577 0.403821,0.39503 0.58412,0.5137 0.901937,0.59365 0.199273,0.0502 0.328373,0.0527 0.563656,0.0116 0.352007,-0.0616 0.558769,-0.14651 0.771063,-0.31679 0.257659,-0.20665 0.323587,-0.24814 0.47406,-0.29824 0.199751,-0.0665 0.291996,-0.065 0.451666,0.007 0.579243,0.26264 1.000716,0.86645 1.162849,1.66589 0.322034,1.58781 -0.395285,3.46449 -2.205261,5.76949 -0.574417,0.73151 -2.386155,2.75394 -2.702051,3.01626 -0.08628,0.0717 -0.229348,0.18992 -0.317963,0.26285 -0.08858,0.073 -0.192327,0.16724 -0.230533,0.20952 l -0.06947,0.0769 -0.01323,1.08167 c -0.03262,2.66325 9.19e-4,3.62771 0.176376,5.02601 0.137526,1.09776 0.302121,1.83185 0.498951,2.22531 0.03721,0.0745 0.06772,0.15595 0.06772,0.18102 0,0.058 0.05284,0.10571 0.129376,0.11677 0.316382,0.0458 1.449854,-0.0844 3.095021,-0.35515 1.721232,-0.28336 2.817575,-0.55065 3.468445,-0.84565 0.12302,-0.0558 0.25255,-0.11 0.28785,-0.12052 0.0849,-0.0253 0.21271,-0.15319 0.45507,-0.45541 0.66079,-0.82402 1.06672,-1.46029 1.55918,-2.4439 0.8272,-1.65224 1.32035,-3.24637 1.5543,-5.02436 0.0226,-0.1721 0.068,-0.45872 0.10082,-0.63692 0.14991,-0.81435 0.20778,-1.49435 0.20621,-2.42387 -9.2e-4,-0.73339 -0.0213,-1.03348 -0.10968,-1.64205 -0.22061,-1.51892 -0.79397,-3.16163 -1.2809,-3.66993 -0.2173,-0.22684 -0.47793,-0.37655 -0.8872,-0.50957 -0.56655,-0.18413 -1.05095,-0.4802 -1.64205,-1.00366 -0.28227,-0.24997 -0.46188,-0.30198 -0.77082,-0.22319 -0.20906,0.0533 -0.748902,0.10567 -0.936625,0.0908 -0.07893,-0.006 -0.236093,-0.0393 -0.349141,-0.0735 -0.240861,-0.0729 -0.358521,-0.16033 -0.434052,-0.32253 -0.05743,-0.12344 -0.06303,-0.29952 -0.01277,-0.40545 0.05265,-0.11089 0.285546,-0.34376 0.483891,-0.48374 0.09813,-0.0693 0.178397,-0.13707 0.178397,-0.15071 0,-0.0136 -0.02067,-0.0383 -0.04594,-0.0549 -0.04254,-0.0279 -0.0578,-0.0252 -0.204005,0.0363 -0.08692,0.0366 -0.198355,0.0854 -0.247615,0.10844 -0.153028,0.0718 -0.502691,0.21698 -0.607047,0.25211 -0.311661,0.10496 -0.646925,0.13432 -0.909307,0.0797 -0.410483,-0.0855 -0.599851,-0.20314 -0.731441,-0.45431 -0.09568,-0.18266 -0.0747,-0.43529 0.05761,-0.69462 0.0759,-0.14876 0.07719,-0.15427 0.03482,-0.15475 -0.221308,-0.003 -0.350564,-0.0156 -0.394826,-0.0402 -0.182431,-0.10115 -0.351901,-0.24102 -0.364149,-0.30053 -0.0028,-0.0149 -0.0238,-0.0673 -0.04613,-0.11658 -0.02233,-0.0493 -0.0464,-0.13092 -0.05357,-0.18144 -0.01948,-0.13814 -0.03813,-0.15206 -0.23872,-0.17822 -0.06423,-0.008 -0.117982,-0.0133 -0.169944,-0.014 z m 15.023748,0.0563 c 9.2e-4,0 0.003,0 0.005,2.2e-4 0.008,9.2e-4 0.0198,0.006 0.0346,0.016 0.0216,0.0137 0.021,0.019 -0.004,0.0283 -0.0165,0.006 -0.0348,-0.002 -0.0409,-0.0172 -0.006,-0.0175 -0.005,-0.0267 0.005,-0.0274 z m -21.602636,0.94425 -0.328392,0.15194 c -0.180621,0.0836 -0.538931,0.23913 -0.796185,0.34565 -0.257263,0.10652 -0.597573,0.25029 -0.756306,0.3195 -0.868159,0.3785 -1.306512,0.53851 -2.392754,0.87342 -0.299871,0.0925 -0.586307,0.23703 -0.968352,0.48885 -0.643773,0.42432 -1.042082,0.62524 -2.065418,1.04177 -0.486529,0.19804 -0.852263,0.41446 -1.392104,0.82388 -0.146917,0.11142 -0.290664,0.22469 -0.432049,0.34066 a 17.447005,17.447005 0 0 0 -0.124515,1.98884 17.447005,17.447005 0 0 0 2.024308,8.1339 c 0.27101,-0.77663 0.511154,-1.49739 0.664393,-1.99897 0.150611,-0.49298 0.307139,-0.86801 0.7335,-1.75729 0.07231,-0.15095 0.144252,-0.30473 0.159717,-0.34175 l 0.02812,-0.0674 -0.169769,-0.18571 c -0.271818,-0.29728 -0.564476,-0.64649 -0.737323,-0.87981 -0.158127,-0.21347 -0.442983,-0.6692 -0.442983,-0.70869 0,-0.047 0.04585,-0.0102 0.204226,0.16384 0.98853,1.08601 1.534298,1.64817 1.913494,1.97089 0.148323,0.12624 0.616198,0.42608 0.840428,0.53862 0.227942,0.1144 0.638049,0.20895 1.396137,0.32182 0.189066,0.0281 0.623467,0.10107 0.965339,0.16207 1.039407,0.18548 1.021287,0.1839 2.383069,0.20539 0.662297,0.0105 1.410187,0.0294 1.661955,0.0421 0.647118,0.0326 1.192398,0.0145 1.465043,-0.0488 0.212928,-0.0494 0.431948,-0.14322 0.569841,-0.24404 0.04116,-0.0301 0.124166,-0.0908 0.18437,-0.13482 0.291362,-0.2131 0.436239,-0.35195 0.497178,-0.47651 0.09005,-0.18413 0.106138,-0.30301 0.06947,-0.51441 -0.01691,-0.0972 -0.03979,-0.19671 -0.051,-0.22123 -0.01985,-0.0435 -0.19569,-0.13381 -0.39613,-0.20339 -0.19808,-0.0687 -0.598308,-0.11562 -1.276089,-0.14939 -0.385793,-0.0192 -0.877899,-0.0587 -1.221893,-0.098 -0.08757,-0.01 -0.338371,-0.0328 -0.557318,-0.0506 -0.218983,-0.0178 -0.518992,-0.0465 -0.666772,-0.0637 -0.147781,-0.0172 -0.403031,-0.0354 -0.567251,-0.0404 -0.164191,-0.005 -0.307074,-0.0174 -0.317476,-0.0273 -0.01038,-0.01 -0.03721,-0.0187 -0.05973,-0.0196 -0.02885,-9.2e-4 -0.03207,-0.005 -0.01093,-0.0127 0.01645,-0.006 0.04695,-0.029 0.068,-0.0509 0.03565,-0.0372 0.05541,-0.039 0.298566,-0.0276 0.143232,0.006 0.493263,0.022 0.77789,0.0337 0.504676,0.0209 0.772377,0.0369 1.980442,0.1185 0.322943,0.0218 0.909582,0.0485 1.303682,0.0594 0.3941,0.0108 0.769703,0.0296 0.834712,0.0417 0.199219,0.037 0.463309,-0.0203 0.559606,-0.12149 0.03225,-0.0339 0.08904,-0.0901 0.126086,-0.12496 0.03712,-0.0348 0.09309,-0.11711 0.124396,-0.18279 0.109096,-0.22882 0.06487,-0.52867 -0.119287,-0.80857 -0.182835,-0.2779 -0.423246,-0.50476 -0.745105,-0.7032 -0.240889,-0.14852 -0.160085,-0.19432 0.110768,-0.0628 0.155876,0.0757 0.423927,0.27927 0.634475,0.48182 0.151391,0.14566 0.212698,0.16106 0.311172,0.0782 0.08068,-0.0679 0.196609,-0.29644 0.243655,-0.4804 0.07158,-0.27979 0.04613,-0.50322 -0.09115,-0.80028 -0.07213,-0.15601 -0.136277,-0.2425 -0.179941,-0.2425 -0.0136,0 -0.02784,-0.009 -0.03161,-0.0206 -0.0037,-0.0113 -0.04502,-0.0337 -0.0917,-0.0498 -0.0804,-0.0277 -0.08987,-0.0267 -0.178939,0.018 -0.05173,0.026 -0.145309,0.062 -0.207939,0.08 -0.104346,0.03 -0.582007,0.12784 -0.788227,0.16136 -0.192925,0.0313 -0.651152,0.25802 -0.844637,0.41779 l -0.123973,0.10237 -0.17009,-0.0548 c -0.212202,-0.0683 -0.440337,-0.10826 -0.835678,-0.14661 -0.169447,-0.0165 -0.361811,-0.0386 -0.427482,-0.0494 -0.0657,-0.0108 -0.356758,-0.0422 -0.646861,-0.0698 -0.598188,-0.0571 -0.617043,-0.0602 -0.617043,-0.10011 0,-0.016 0.02021,-0.0332 0.04484,-0.0381 0.02463,-0.005 0.461269,-0.0144 0.9703,-0.021 0.906789,-0.0117 1.083412,-0.0222 1.661983,-0.0997 0.131351,-0.0175 0.377662,-0.0496 0.547329,-0.0712 0.371405,-0.0472 0.473435,-0.064 0.794596,-0.13085 0.291362,-0.0606 0.363217,-0.0891 0.578065,-0.22941 0.136525,-0.0891 0.168694,-0.12099 0.209491,-0.20723 0.05807,-0.12272 0.09485,-0.3343 0.07838,-0.4509 -0.03492,-0.24727 -0.164807,-0.49656 -0.338361,-0.64949 -0.133318,-0.11747 -0.243012,-0.17893 -0.434172,-0.24319 -0.157364,-0.0529 -0.160121,-0.055 -0.107691,-0.0789 0.07461,-0.0342 0.269089,0.006 0.42027,0.0857 0.160369,0.0851 0.346245,0.29121 0.457859,0.50781 0.134237,0.26049 0.160259,0.36968 0.143747,0.60264 -0.0083,0.11035 -0.0064,0.19855 0.0046,0.20487 0.0487,0.0301 0.685223,-0.49074 0.787611,-0.64451 0.02527,-0.0379 0.09463,-0.23918 0.154093,-0.44718 l 0.108095,-0.37819 0.0099,-0.39333 c 0.0064,-0.27008 0.0037,-0.39085 -0.01093,-0.38533 -0.337359,0.13003 -1.060366,0.29865 -1.760502,0.41055 -0.198061,0.0317 -1.13361,0.11072 -1.532571,0.1295 -0.136827,0.006 -0.365247,0.0203 -0.507561,0.0309 -0.142304,0.0106 -0.415463,0.0277 -0.607046,0.0382 -0.191555,0.0105 -0.472249,0.0288 -0.623705,0.0406 -0.297528,0.0233 -0.331682,0.0159 -0.331682,-0.0706 0,-0.0588 0.08362,-0.0889 0.246779,-0.0891 0.122797,-2.2e-4 0.582797,-0.0381 1.544561,-0.12758 0.290085,-0.027 0.693162,-0.0591 0.89567,-0.0714 1.113009,-0.0674 2.278062,-0.30035 2.785218,-0.55671 0.13521,-0.0684 0.321298,-0.20446 0.431892,-0.31585 0.158431,-0.1596 0.253708,-0.54743 0.208748,-0.84974 -0.03492,-0.23464 -0.03473,-0.23454 -0.195525,-0.15483 -0.263759,0.13078 -0.684451,0.17882 -1.014037,0.11576 -0.442598,-0.0847 -0.781391,-0.26027 -1.185148,-0.61418 l -0.173004,-0.15164 -0.155425,0.0185 c -0.08545,0.0102 -0.330028,0.0285 -0.543498,0.0408 -0.21347,0.0123 -0.509041,0.0348 -0.656821,0.0501 -0.68265,0.0704 -1.855652,0.0926 -1.911923,0.0363 -0.04456,-0.0447 0.05237,-0.0648 0.411412,-0.0855 0.369612,-0.0214 0.63814,-0.0437 1.112374,-0.0925 0.405705,-0.0417 1.100136,-0.10196 1.358455,-0.11786 0.123146,-0.007 0.22389,-0.0209 0.22389,-0.0298 0,-0.009 -0.118919,-0.15785 -0.264246,-0.33121 -0.145346,-0.17337 -0.332334,-0.40479 -0.415546,-0.51426 -0.240485,-0.31638 -0.176881,-0.28755 -0.727234,-0.32967 -0.260626,-0.0199 -0.653779,-0.0592 -0.873691,-0.0872 -0.570338,-0.0726 -0.899557,-0.0667 -1.12817,0.0201 -0.172838,0.0657 -0.291316,0.0352 -0.77902,-0.20013 -0.422677,-0.20396 -0.538655,-0.23389 -0.917374,-0.23681 z m 7.056623,0.82546 c 0.0113,-4.4e-4 0.0226,0.003 0.03253,0.008 l 2.12e-4,2.2e-4 c 0.01433,0.008 0.02407,0.0222 0.02729,0.038 0,4.3e-4 0,6.5e-4 2.11e-4,9.1e-4 2.21e-4,0.002 6.53e-4,0.003 8.73e-4,0.005 l 0.04227,0.39914 -0.114076,0.0441 -0.03777,-0.35621 -2.11e-4,-9.2e-4 -0.404281,0.15679 0.0074,9.2e-4 c 0.137738,0.0369 0.298667,0.10545 0.437783,0.23155 0.0074,0.006 0.01452,0.0133 0.02178,0.0203 l 0.538462,-0.2085 c 0.01727,-0.006 0.03685,-0.006 0.05274,0.005 0.0159,0.009 0.02628,0.0253 0.02812,0.0431 l 0.05403,0.53581 c 4.41e-4,0.005 2.2e-4,0.008 -2.12e-4,0.0124 l 2.12e-4,-2.1e-4 c -8.64e-4,0.008 -0.0037,0.0158 -0.0083,0.0226 -0.0064,0.0103 -0.01626,0.0186 -0.02839,0.0233 l -0.518376,0.20069 c -0.01718,0.006 -0.03666,0.006 -0.05256,-0.004 v 0 c -0.0158,-0.009 -0.02619,-0.0251 -0.02812,-0.0428 l -0.04263,-0.4006 0.0555,-0.0215 0.0083,-0.003 0.04971,-0.0193 0.02858,0.26439 0.0037,0.0359 0.0064,0.0574 0.404511,-0.15663 -0.0028,-2.2e-4 c -0.147707,-0.0212 -0.324468,-0.10093 -0.46635,-0.2522 l -0.100339,0.0389 c -0.0064,9.2e-4 -0.0125,0.004 -0.01801,0.007 l -0.417945,0.16181 c -0.0037,0.002 -0.0074,0.003 -0.01158,0.003 -8.73e-4,2.1e-4 -0.0018,2.1e-4 -0.0028,4.3e-4 -0.0018,2.2e-4 -0.0037,2.2e-4 -0.0046,4.4e-4 -8.73e-4,2.2e-4 -0.0018,2.2e-4 -0.0028,2.2e-4 -9.19e-4,0 -0.0028,-2.2e-4 -0.0037,-2.2e-4 -8.73e-4,0 -0.0018,0 -0.0028,-2.2e-4 -6.52e-4,0 -9.19e-4,-2.2e-4 -0.0018,-2.2e-4 -0.0018,-2.2e-4 -0.0046,-6.5e-4 -0.0064,-9.2e-4 -0.0018,-4.4e-4 -0.0037,-9.1e-4 -0.0055,-0.002 -9.19e-4,-4.4e-4 -0.0018,-6.5e-4 -0.0028,-9.2e-4 -4.32e-4,-2.2e-4 -8.64e-4,-2.2e-4 -9.19e-4,-4.4e-4 -0.0028,-9.2e-4 -0.0046,-0.002 -0.0074,-0.004 -8.64e-4,-4.3e-4 -0.0018,-9.2e-4 -0.0028,-0.002 -8.73e-4,-4.3e-4 -9.19e-4,-9.2e-4 -0.0018,-0.002 -6.43e-4,-4.4e-4 -9.18e-4,-9.2e-4 -0.0018,-0.002 -0.0083,-0.006 -0.01406,-0.0143 -0.01773,-0.0235 -0.0018,-0.005 -0.0037,-0.01 -0.0037,-0.0151 l -0.0046,-0.0425 -0.04971,-0.49334 c -9.19e-4,-0.0126 0.0018,-0.0248 0.0083,-0.0351 0.0064,-0.0103 0.01626,-0.0186 0.02849,-0.0233 l 0.518358,-0.20073 c 0.0064,-0.003 0.01323,-0.004 0.01994,-0.004 z m -6.793396,1.41332 c 0.09115,0.002 0.164697,0.0374 0.164697,0.10007 0,0.0372 -0.02224,0.0576 -0.159221,0.14551 -0.08766,0.0563 -0.187733,0.22111 -0.243848,0.40166 -0.06101,0.19638 -0.05963,0.49109 0.0028,0.65194 0.04686,0.12027 0.102168,0.1747 0.25571,0.25182 0.09724,0.0488 0.105679,0.0744 0.03354,0.10186 -0.07452,0.0284 -0.287053,0.0223 -0.362096,-0.0103 -0.22502,-0.0978 -0.363116,-0.36219 -0.363116,-0.69529 0,-0.30683 0.221978,-0.74191 0.453376,-0.88866 0.06561,-0.0416 0.147054,-0.0602 0.217889,-0.0586 z m 11.763739,0.29644 v 0 c 0.0157,-8.6e-4 0.0316,0.003 0.0456,0.0108 l 0.6725,0.38814 c 0.006,0.003 0.0101,0.006 0.0144,0.0107 0.008,0.008 0.0152,0.0175 0.0198,0.028 0.006,0.0159 0.008,0.0339 0.005,0.0516 l -0.18328,0.75456 c -0.006,0.0251 -0.0235,0.0459 -0.0472,0.056 l -2.2e-4,2.2e-4 c -0.0237,0.0101 -0.0506,0.008 -0.073,-0.004 l -0.50457,-0.28767 0.0196,-0.0809 0.003,-0.0121 0.0175,-0.0724 0.33342,0.18937 0.0453,0.0257 0.0723,0.0413 0.14297,-0.58885 -0.003,0.003 c -0.14427,0.14924 -0.38063,0.28237 -0.6728,0.31601 l -0.0355,0.14608 c -0.004,0.008 -0.006,0.0174 -0.006,0.0262 l -0.1477,0.60844 c -9.2e-4,0.006 -0.004,0.0108 -0.006,0.0158 -4.3e-4,9.2e-4 -9.2e-4,0.002 -0.002,0.003 -9.2e-4,0.002 -0.002,0.004 -0.004,0.006 -4.4e-4,9.2e-4 -9.2e-4,0.002 -0.002,0.003 -9.2e-4,9.2e-4 -0.002,0.003 -0.003,0.004 -8.7e-4,9.2e-4 -0.002,0.002 -0.003,0.003 -4.3e-4,6.4e-4 -9.1e-4,9.2e-4 -0.002,0.002 -0.002,0.002 -0.005,0.005 -0.006,0.006 -0.002,0.002 -0.004,0.003 -0.006,0.005 -9.2e-4,8.7e-4 -0.003,0.002 -0.004,0.003 -4.4e-4,4.3e-4 -9.2e-4,8.7e-4 -0.002,9.2e-4 -0.003,0.002 -0.006,0.004 -0.01,0.005 -9.2e-4,4.3e-4 -0.003,8.6e-4 -0.004,9.1e-4 -9.2e-4,4.4e-4 -0.003,8.7e-4 -0.004,9.2e-4 -9.2e-4,4.3e-4 -0.002,6.5e-4 -0.004,9.2e-4 -0.0138,0.004 -0.0282,0.004 -0.042,4.3e-4 -0.007,-0.002 -0.0142,-0.005 -0.0208,-0.008 l -0.0533,-0.0307 -0.6192,-0.35747 c -0.0158,-0.009 -0.02775,-0.0228 -0.03455,-0.0387 -0.0064,-0.0159 -0.0083,-0.034 -0.0046,-0.0517 l 0.18324,-0.75451 c 0.002,-0.009 0.006,-0.0182 0.0114,-0.026 v -2.2e-4 c 0.008,-0.013 0.0211,-0.0235 0.0359,-0.0299 h 2.1e-4 c 0.0214,-0.009 0.0456,-0.008 0.0665,9.2e-4 4.3e-4,2.1e-4 8.7e-4,4.3e-4 9.2e-4,6.4e-4 0.002,9.2e-4 0.004,0.002 0.006,0.003 l 0.50263,0.28684 -0.0403,0.16602 -0.4486,-0.25599 -9.2e-4,-6.5e-4 -0.14271,0.58869 0.007,-0.007 c 0.15462,-0.12484 0.36511,-0.24934 0.62551,-0.30096 0.0136,-0.003 0.0274,-0.006 0.0413,-0.007 l 0.19041,-0.78383 c 0.006,-0.0251 0.0237,-0.046 0.0475,-0.0562 0.009,-0.004 0.0183,-0.006 0.0276,-0.006 z m -4.164456,1.32256 c -0.02692,-0.002 -0.157815,0.0745 -0.239355,0.14046 l -0.05963,0.0482 -0.01195,0.405 c -0.01709,0.57992 -0.07829,0.97718 -0.181778,1.18 -0.09883,0.19375 -0.307809,0.41368 -0.682227,0.718 -0.131351,0.10677 -0.242525,0.19738 -0.247018,0.20133 -0.0046,0.004 0.0074,0.0243 0.02637,0.0453 0.05081,0.0562 0.175732,0.35731 0.256675,0.61891 0.200054,0.64639 0.402994,1.41505 0.470364,1.78138 0.01204,0.0657 0.02674,0.26272 0.03244,0.43788 0.0055,0.17515 0.01433,0.32985 0.01902,0.34378 0.01305,0.0389 0.06221,-9.2e-4 0.198484,-0.16088 0.226784,-0.26601 0.292363,-0.35659 0.88117,-1.21787 0.24348,-0.35615 0.364173,-0.55485 0.474464,-0.78087 0.08132,-0.16674 0.152953,-0.32818 0.159072,-0.35879 0.0064,-0.0333 -0.0046,-0.0955 -0.0283,-0.15464 -0.02169,-0.0544 -0.07195,-0.17958 -0.111522,-0.2781 -0.0396,-0.0985 -0.156353,-0.34667 -0.259395,-0.55145 -0.369805,-0.73481 -0.6121,-1.53355 -0.664512,-2.19062 -0.0094,-0.11788 -0.02224,-0.21946 -0.02839,-0.2257 -8.73e-4,-8.7e-4 -0.0018,-9.1e-4 -0.0037,-9.1e-4 z m 6.373576,0.0191 c 0.0155,4.4e-4 0.0313,0.005 0.0456,0.0132 l 0.68245,0.39761 c 0.006,0.003 0.0103,0.006 0.0148,0.0106 0.009,0.007 0.0159,0.0167 0.0209,0.0265 0.007,0.0147 0.0101,0.0309 0.006,0.0463 l -0.14676,0.65659 c -0.005,0.0219 -0.0211,0.039 -0.0441,0.0461 h -2.2e-4 c -0.0229,0.007 -0.0497,0.004 -0.0723,-0.009 l -0.5119,-0.29517 0.0157,-0.0704 0.003,-0.0105 0.0141,-0.0629 0.33818,0.19438 0.0459,0.0265 0.0734,0.0424 0.11448,-0.51243 -0.003,0.003 c -0.13582,0.12145 -0.36335,0.22137 -0.65062,0.22847 l -0.0284,0.12714 c -0.003,0.007 -0.005,0.015 -0.006,0.0228 l -0.11828,0.52945 c -9.2e-4,0.005 -0.003,0.009 -0.005,0.0136 -4.3e-4,8.8e-4 -8.6e-4,0.002 -0.002,0.003 -8.7e-4,0.002 -0.002,0.004 -0.003,0.005 -4.3e-4,8.7e-4 -9.2e-4,0.002 -0.002,0.003 -8.6e-4,9.2e-4 -0.002,0.002 -0.003,0.004 -8.8e-4,8.7e-4 -0.002,0.002 -0.003,0.003 -4.3e-4,4.3e-4 -9.2e-4,8.7e-4 -0.002,9.2e-4 -0.002,0.002 -0.005,0.004 -0.006,0.006 -0.002,9.2e-4 -0.004,0.003 -0.006,0.004 -9.2e-4,6.4e-4 -0.002,0.002 -0.004,0.002 -6.5e-4,2.2e-4 -9.2e-4,8.7e-4 -0.002,8.7e-4 -0.003,9.2e-4 -0.006,0.003 -0.009,0.004 -9.2e-4,4.4e-4 -0.003,6.5e-4 -0.004,9.2e-4 -9.2e-4,2.2e-4 -0.002,4.4e-4 -0.004,8.7e-4 -9.2e-4,2.1e-4 -0.002,4.3e-4 -0.004,6.4e-4 -0.0134,0.003 -0.0278,9.2e-4 -0.0415,-0.003 -0.007,-0.002 -0.0142,-0.006 -0.0208,-0.009 l -0.054,-0.0315 -0.62837,-0.36616 c -0.016,-0.009 -0.0284,-0.0225 -0.0358,-0.0371 -0.007,-0.0147 -0.01,-0.0309 -0.006,-0.0463 l 0.14671,-0.65659 c 0.002,-0.008 0.006,-0.0157 0.01,-0.0222 h 2.2e-4 c 0.008,-0.0109 0.0198,-0.0193 0.0341,-0.0239 l 2.1e-4,2.1e-4 c 0.0208,-0.006 0.0447,-0.004 0.0659,0.006 4.3e-4,2.2e-4 8.7e-4,4.4e-4 9.2e-4,6.5e-4 0.002,9.2e-4 0.004,0.002 0.006,0.003 l 0.5099,0.29427 -0.0323,0.14447 -0.45507,-0.26263 -9.1e-4,-6.5e-4 -0.11418,0.51228 0.007,-0.006 c 0.14715,-0.0989 0.34952,-0.19321 0.60456,-0.21879 0.0133,-9.2e-4 0.0268,-0.003 0.0405,-0.004 l 0.15238,-0.68216 c 0.005,-0.0219 0.0214,-0.039 0.0445,-0.0461 0.008,-0.003 0.0177,-0.004 0.027,-0.004 z m -3.19691,0.81165 2.1e-4,2.2e-4 c 0.0254,4.3e-4 0.0516,0.0112 0.0721,0.0293 4.4e-4,4.3e-4 8.7e-4,8.6e-4 9.2e-4,9.2e-4 0.002,0.002 0.004,0.004 0.006,0.006 l 0.47831,0.48735 -0.0834,0.14075 -0.42695,-0.43495 -9.1e-4,-9.1e-4 -0.295437,0.49917 0.0098,-0.004 c 0.197927,-0.0528 0.456477,-0.0815 0.751997,-0.0195 0.0154,0.004 0.0312,0.006 0.0469,0.0104 l 0.39378,-0.66455 c 0.0126,-0.0212 0.0368,-0.0335 0.0651,-0.0331 0.0282,4.4e-4 0.0573,0.0136 0.0786,0.0354 l 0.63903,0.65622 c 0.005,0.006 0.009,0.0107 0.0131,0.0163 0.007,0.0112 0.0125,0.0231 0.0149,0.035 0.004,0.0181 9.2e-4,0.036 -0.007,0.0511 l -0.3791,0.63966 c -0.0126,0.0213 -0.0365,0.0336 -0.0647,0.0332 h -2.3e-4 c -0.0281,-4.3e-4 -0.0572,-0.0134 -0.0785,-0.035 l -0.48029,-0.489 0.0406,-0.0686 0.006,-0.0103 0.0364,-0.0614 0.3175,0.32238 0.0432,0.0438 0.0688,0.0701 0.29581,-0.49928 -0.004,0.002 c -0.19248,0.0804 -0.48123,0.1062 -0.80702,0.0135 l -0.0733,0.12386 c -0.006,0.006 -0.0103,0.0142 -0.0131,0.0222 l -0.30564,0.51584 c -0.003,0.005 -0.006,0.009 -0.01,0.0126 -8.7e-4,6.6e-4 -0.002,0.002 -0.003,0.002 -0.002,0.002 -0.004,0.003 -0.006,0.004 -8.7e-4,8.6e-4 -0.002,9.2e-4 -0.003,0.002 -0.002,8.6e-4 -0.003,0.002 -0.005,0.003 -9.2e-4,6.5e-4 -0.003,9.2e-4 -0.004,0.002 -6.4e-4,4.3e-4 -0.002,4.3e-4 -0.002,9.2e-4 -0.003,9.2e-4 -0.006,0.002 -0.009,0.003 -0.003,6.6e-4 -0.005,9.2e-4 -0.007,0.002 -0.002,4.3e-4 -0.003,8.7e-4 -0.005,9.2e-4 -8.6e-4,-2.1e-4 -9.2e-4,4.4e-4 -0.002,2.2e-4 -0.004,4.3e-4 -0.007,6.5e-4 -0.0116,6.5e-4 -0.002,0 -0.003,-2.2e-4 -0.005,-2.2e-4 -9.2e-4,0 -0.003,-2.1e-4 -0.004,-2.1e-4 -9.1e-4,-2.2e-4 -0.003,-2.2e-4 -0.004,-4.4e-4 -0.0159,-0.002 -0.0317,-0.008 -0.0459,-0.0176 -0.007,-0.005 -0.0143,-0.0104 -0.0206,-0.0168 l -0.0506,-0.0519 -0.588326,-0.60426 c -0.01498,-0.0153 -0.02463,-0.0335 -0.0283,-0.0516 -0.0037,-0.018 -9.19e-4,-0.036 0.0074,-0.051 l 0.379056,-0.63966 c 0.005,-0.008 0.011,-0.0147 0.0186,-0.0199 h 2.2e-4 c 0.0126,-0.009 0.0286,-0.0134 0.0462,-0.0132 z m -11.497109,0.33806 c 0.01994,-2.1e-4 0.03988,0.002 0.05973,0.007 0.07489,0.0188 0.0611,0.0623 -0.05633,0.17694 -0.08426,0.0822 -0.114922,0.13044 -0.148323,0.23298 -0.06634,0.20359 -0.08996,0.36935 -0.0895,0.6269 8.73e-4,0.34381 0.05973,0.56239 0.195212,0.72344 0.02867,0.0341 0.0465,0.071 0.0396,0.0822 -0.0193,0.0312 -0.05311,0.0248 -0.167058,-0.032 -0.139869,-0.0697 -0.248029,-0.20842 -0.305834,-0.39227 -0.05945,-0.18916 -0.06331,-0.60586 -0.0074,-0.81929 0.09609,-0.36769 0.287438,-0.60446 0.480059,-0.60608 z m 14.407299,0.6888 c 0.006,0 0.0104,4.3e-4 0.0155,9.2e-4 l 4.3e-4,2.1e-4 c 0.03,0.005 0.0563,0.0222 0.073,0.0481 4.3e-4,6.4e-4 6.5e-4,9.2e-4 9.2e-4,0.002 0.002,0.003 0.003,0.006 0.005,0.007 l 0.36116,0.68467 -0.15735,0.16245 -0.32238,-0.6111 -8.6e-4,-0.002 -0.55758,0.57623 0.0131,-0.004 c 0.25582,-0.0344 0.57319,-0.029 0.89629,0.0955 0.0169,0.006 0.0339,0.0133 0.0509,0.0204 l 0.74288,-0.76706 c 0.0238,-0.0245 0.0573,-0.036 0.0906,-0.031 0.0331,0.006 0.0621,0.0261 0.0781,0.0568 l 0.48033,0.92113 c 0.004,0.007 0.006,0.0148 0.009,0.0224 0.005,0.0152 0.005,0.0309 0.003,0.0462 -0.004,0.0232 -0.0135,0.0452 -0.0302,0.0625 l -0.7151,0.7383 c -0.0237,0.0245 -0.0572,0.0361 -0.0903,0.0311 h -2.2e-4 c -0.0331,-0.005 -0.0619,-0.0259 -0.0779,-0.0563 l -0.3628,-0.68703 0.0765,-0.0791 0.0115,-0.0119 0.0686,-0.0708 0.24022,0.45312 0.0326,0.0616 0.0521,0.0985 0.55799,-0.57623 -0.005,0.002 c -0.26094,0.0697 -0.61275,0.056 -0.95878,-0.1116 l -0.13839,0.14298 c -0.01,0.007 -0.018,0.016 -0.0248,0.0256 l -0.57657,0.5954 c -0.006,0.006 -0.011,0.01 -0.017,0.0142 -9.2e-4,8.6e-4 -0.003,0.002 -0.004,0.003 -0.003,0.002 -0.006,0.003 -0.007,0.005 -9.2e-4,8.7e-4 -0.003,9.2e-4 -0.004,0.002 -0.002,8.6e-4 -0.005,0.002 -0.006,0.003 -0.002,6.5e-4 -0.004,9.1e-4 -0.006,0.002 -8.7e-4,4.4e-4 -0.002,4.4e-4 -0.003,8.7e-4 -0.004,9.2e-4 -0.008,0.002 -0.0118,0.003 -0.004,4.4e-4 -0.006,8.7e-4 -0.01,9.2e-4 -0.002,2.2e-4 -0.004,4.4e-4 -0.006,4.4e-4 -8.7e-4,-2.2e-4 -0.002,2.1e-4 -0.003,0 -0.005,0 -0.009,-4.4e-4 -0.0141,-9.2e-4 -0.002,-2.2e-4 -0.004,-8.7e-4 -0.006,-9.1e-4 -0.002,-4.4e-4 -0.003,-8.8e-4 -0.005,-9.2e-4 -0.002,-4.3e-4 -0.003,-8.7e-4 -0.005,-9.2e-4 -0.0178,-0.006 -0.0339,-0.0155 -0.0468,-0.0292 -0.006,-0.007 -0.0126,-0.0152 -0.0173,-0.0243 l -0.038,-0.0729 -0.44215,-0.84823 c -0.0113,-0.0216 -0.0152,-0.0458 -0.0119,-0.0689 0.004,-0.0231 0.0136,-0.0451 0.0304,-0.0625 l 0.71503,-0.7383 c 0.009,-0.009 0.0192,-0.0165 0.0303,-0.0219 v 2.2e-4 c 0.0139,-0.006 0.029,-0.0102 0.0446,-0.0102 z m -6.195015,0.28308 v 2.2e-4 c 0.01038,-4.3e-4 0.02077,0.002 0.02996,0.007 l 2.11e-4,2.1e-4 c 0.01323,0.007 0.02224,0.0205 0.02508,0.0349 0,4.4e-4 0,6.6e-4 0,8.8e-4 2.11e-4,9.2e-4 4.32e-4,0.003 6.52e-4,0.005 l 0.03896,0.36738 -0.105026,0.0406 -0.03473,-0.32785 v -8.7e-4 l -0.372167,0.14428 0.0064,9.2e-4 c 0.126794,0.034 0.274887,0.0971 0.402931,0.21316 0.0064,0.006 0.01342,0.0123 0.02003,0.0187 l 0.495643,-0.19191 c 0.0159,-0.006 0.03391,-0.005 0.04852,0.004 0.01461,0.008 0.02417,0.0233 0.02582,0.0397 l 0.04971,0.49316 c 4.31e-4,0.004 2.2e-4,0.007 -2.12e-4,0.0115 l 2.12e-4,-2.2e-4 c -8.64e-4,0.007 -0.0037,0.0145 -0.0074,0.0209 -0.0055,0.009 -0.01498,0.0171 -0.02619,0.0214 l -0.477137,0.18475 c -0.01581,0.006 -0.03372,0.005 -0.04833,-0.004 h -2.11e-4 c -0.01461,-0.008 -0.02417,-0.0231 -0.02591,-0.0394 l -0.03924,-0.36874 0.05109,-0.0198 0.0074,-0.003 0.04576,-0.0177 0.02628,0.24333 0.0037,0.0331 0.0055,0.0529 0.372341,-0.1442 -0.0028,-2.2e-4 c -0.135955,-0.0196 -0.298649,-0.0929 -0.429247,-0.23215 l -0.09235,0.0358 c -0.0055,9.2e-4 -0.01149,0.004 -0.01654,0.006 l -0.384719,0.14897 c -0.0037,9.2e-4 -0.0074,0.002 -0.01066,0.003 -8.64e-4,2.1e-4 -0.0018,2.1e-4 -0.0018,4.3e-4 -0.0018,2.1e-4 -0.0028,2.1e-4 -0.0046,4.3e-4 -8.63e-4,2.2e-4 -0.0018,2.2e-4 -0.0018,2.2e-4 -9.19e-4,0 -0.0018,-2.2e-4 -0.0037,-2.2e-4 -8.63e-4,0 -0.0018,1e-5 -0.0028,-2.2e-4 -6.53e-4,0 -8.73e-4,-2.1e-4 -0.0018,-2.1e-4 -0.0018,-2.2e-4 -0.0037,-6.5e-4 -0.0064,-9.2e-4 -0.0018,-4.3e-4 -0.0037,-8.6e-4 -0.0046,-0.002 -8.64e-4,-4.3e-4 -0.0018,-6.5e-4 -0.0028,-8.6e-4 -4.32e-4,-2.2e-4 -8.73e-4,-2.2e-4 -9.19e-4,-4.3e-4 -0.0018,-8.8e-4 -0.0046,-0.002 -0.0064,-0.003 -8.64e-4,-4.3e-4 -0.0018,-8.7e-4 -0.0018,-9.2e-4 -6.52e-4,-4.3e-4 -9.18e-4,-8.6e-4 -0.0018,-9.2e-4 -6.53e-4,-4.3e-4 -9.19e-4,-8.7e-4 -0.0018,-9.2e-4 -0.0074,-0.006 -0.01305,-0.0132 -0.01645,-0.0217 -0.0018,-0.005 -0.0028,-0.009 -0.0037,-0.0139 l -0.0037,-0.0391 -0.04576,-0.45408 c -9.19e-4,-0.0116 0.0018,-0.0228 0.0074,-0.0323 0.0055,-0.009 0.01507,-0.0171 0.02628,-0.0214 l 0.4771,-0.18475 c 0.0055,-0.002 0.01222,-0.004 0.01847,-0.004 z m 3.242735,0.57436 v 0 c 0.0175,-4.3e-4 0.0351,0.003 0.0515,0.0103 l 2.2e-4,2.2e-4 c 0.0316,0.0141 0.0555,0.0408 0.0662,0.0734 2.1e-4,6.5e-4 2.1e-4,9.2e-4 6.4e-4,0.002 8.8e-4,0.003 0.002,0.006 0.003,0.01 l 0.19665,0.83646 -0.22127,0.12408 -0.175508,-0.74656 -4.41e-4,-0.002 -0.784166,0.44039 0.01544,6.5e-4 c 0.292097,0.0418 0.640346,0.14458 0.959865,0.37542 0.0167,0.012 0.0335,0.0244 0.0502,0.0372 l 1.04456,-0.58603 c 0.0334,-0.0187 0.0739,-0.0207 0.10903,-0.006 0.035,0.0155 0.0607,0.0467 0.0694,0.0841 l 0.25842,1.12363 c 0.002,0.009 0.003,0.0176 0.003,0.0265 2.1e-4,0.0174 -0.004,0.0343 -0.0104,0.0498 -0.0104,0.0235 -0.0281,0.0438 -0.0517,0.0571 l -1.00554,0.56403 c -0.0334,0.0188 -0.0736,0.0209 -0.1087,0.006 h -2.2e-4 c -0.0349,-0.0154 -0.0606,-0.0464 -0.0693,-0.0835 l -0.19776,-0.83946 0.10768,-0.0606 0.0162,-0.009 0.0965,-0.0541 0.13141,0.55394 0.0178,0.0753 0.0283,0.12037 0.78465,-0.44028 -0.006,4.3e-4 c -0.30817,-0.006 -0.69194,-0.12808 -1.02404,-0.41163 l -0.19458,0.10926 c -0.0129,0.005 -0.0246,0.0114 -0.035,0.0196 l -0.810746,0.45492 c -0.0074,0.004 -0.01507,0.007 -0.02288,0.01 -0.0018,4.4e-4 -0.0037,9.2e-4 -0.0046,0.002 -0.0037,8.7e-4 -0.0064,0.002 -0.0097,0.002 -0.0018,4.4e-4 -0.0028,6.5e-4 -0.0046,8.7e-4 -0.0028,2.1e-4 -0.0055,4.3e-4 -0.0074,6.5e-4 -0.0018,0 -0.0037,2.2e-4 -0.0064,2.2e-4 -9.19e-4,4.3e-4 -0.0018,-10e-6 -0.0037,2.2e-4 -0.0046,0 -0.0093,-4.4e-4 -0.01388,-8.8e-4 -0.0037,-4.3e-4 -0.0074,-9.1e-4 -0.01093,-0.002 -0.0018,-4.4e-4 -0.0046,-6.6e-4 -0.0064,-9.2e-4 -8.64e-4,-2.2e-4 -0.0018,-4.4e-4 -0.0028,-6.5e-4 -0.0055,-0.002 -0.0102,-0.004 -0.01507,-0.006 -0.0018,-8.6e-4 -0.0037,-0.002 -0.0055,-0.003 -0.0018,-8.7e-4 -0.0028,-0.002 -0.0046,-0.003 -0.0018,-8.7e-4 -0.0028,-0.002 -0.0046,-0.003 -0.0181,-0.0111 -0.0328,-0.0268 -0.04291,-0.0454 -0.0055,-0.01 -0.0094,-0.02 -0.01195,-0.031 l -0.0204,-0.0889 -0.23782,-1.03464 c -0.0064,-0.0264 -0.0028,-0.0532 0.0074,-0.0766 0.01038,-0.0235 0.02821,-0.0437 0.05191,-0.057 l 1.005516,-0.56406 c 0.0125,-0.007 0.026,-0.0117 0.0399,-0.014 0.006,-8.6e-4 0.0116,-9.2e-4 0.0174,-0.002 z m -3.295662,0.71616 v 0 c 0.0098,-2.2e-4 0.01957,0.002 0.02812,0.007 v 2.2e-4 c 0.01241,0.007 0.02086,0.0192 0.02362,0.0328 0,2.2e-4 0,6.6e-4 2.11e-4,8.7e-4 2.21e-4,9.2e-4 4.32e-4,0.003 6.53e-4,0.004 l 0.03648,0.34517 -0.09865,0.0382 -0.03262,-0.30805 -2.2e-4,-8.7e-4 -0.349618,0.13554 0.0064,9.2e-4 c 0.11913,0.032 0.258246,0.0912 0.378571,0.20024 0.0064,0.006 0.01259,0.0116 0.01884,0.0175 l 0.465642,-0.18031 c 0.01489,-0.006 0.03179,-0.005 0.04558,0.004 0.01369,0.008 0.0227,0.0219 0.02426,0.0373 l 0.04668,0.46337 c 4.32e-4,0.004 2.2e-4,0.007 -2.11e-4,0.0108 l 2.11e-4,-2.2e-4 c -8.64e-4,0.007 -0.0037,0.0136 -0.0074,0.0196 -0.0055,0.009 -0.01406,0.016 -0.02453,0.0201 l -0.448267,0.17355 c -0.01489,0.006 -0.0317,0.005 -0.04548,-0.004 h -2.12e-4 c -0.01369,-0.008 -0.0227,-0.0217 -0.02435,-0.037 l -0.03685,-0.34641 0.04797,-0.0186 0.0074,-0.003 0.043,-0.0166 0.02472,0.22862 0.0037,0.0311 0.0055,0.0496 0.34982,-0.13546 -0.0028,-2.2e-4 c -0.127713,-0.0184 -0.280575,-0.0873 -0.403261,-0.21811 l -0.08674,0.0336 c -0.0055,9.2e-4 -0.01084,0.004 -0.01553,0.006 l -0.361426,0.13996 c -0.0037,9.2e-4 -0.0064,0.002 -0.01002,0.003 -8.64e-4,0 -0.0018,2.1e-4 -0.0018,4.3e-4 -9.19e-4,2.2e-4 -0.0028,2.2e-4 -0.0046,4.4e-4 -8.73e-4,2.2e-4 -9.19e-4,2.2e-4 -0.0018,2.2e-4 -9.19e-4,0 -0.0018,-2.2e-4 -0.0028,-2.2e-4 -8.63e-4,0 -0.0018,0 -0.0028,-2.2e-4 -4.32e-4,0 -8.73e-4,-2.2e-4 -9.19e-4,-2.2e-4 -0.0018,-2.2e-4 -0.0037,-6.5e-4 -0.0055,-9.2e-4 -0.0018,-4.3e-4 -0.0028,-8.6e-4 -0.0046,-9.1e-4 -8.73e-4,-2.2e-4 -0.0018,-4.4e-4 -0.0028,-8.8e-4 -4.32e-4,-2.1e-4 -8.64e-4,-2.1e-4 -9.19e-4,-4.3e-4 -0.0018,-8.6e-4 -0.0037,-0.002 -0.0064,-0.003 -8.64e-4,-4.3e-4 -9.19e-4,-8.6e-4 -0.0018,-9.1e-4 -6.43e-4,-4.4e-4 -9.19e-4,-8.7e-4 -0.0018,-9.2e-4 -6.52e-4,-4.4e-4 -9.18e-4,-8.7e-4 -0.0018,-9.2e-4 -0.0074,-0.006 -0.01222,-0.0124 -0.01544,-0.0203 -0.0018,-0.005 -0.0028,-0.008 -0.0037,-0.013 l -0.0037,-0.0367 -0.043,-0.42665 c -9.19e-4,-0.0108 0.0018,-0.0214 0.0074,-0.0303 0.0055,-0.009 0.01406,-0.016 0.02453,-0.0201 l 0.448239,-0.17357 c 0.0055,-0.002 0.01149,-0.004 0.01727,-0.004 z m -7.926306,0.58163 c 0.04254,-9.2e-4 0.07746,0.009 0.09767,0.0336 0.02996,0.0361 0.03409,0.032 -0.150014,0.15224 -0.118726,0.0776 -0.206918,0.22621 -0.273527,0.46115 -0.0373,0.13174 -0.04548,0.2098 -0.04585,0.43889 -4.32e-4,0.26761 0.0018,0.28251 0.0543,0.37571 0.03014,0.0534 0.05476,0.10488 0.05476,0.11445 0,0.0383 -0.05743,0.0134 -0.135624,-0.0588 -0.158761,-0.14658 -0.223256,-0.3971 -0.183469,-0.71304 0.03758,-0.29874 0.121611,-0.50607 0.261949,-0.64642 0.09521,-0.0952 0.226252,-0.15505 0.319902,-0.15783 z m 14.318458,0.583 c 0.0174,-2.1e-4 0.035,0.004 0.0514,0.0108 l 4.3e-4,2.1e-4 c 0.0315,0.0143 0.055,0.0414 0.0654,0.0741 2.1e-4,6.5e-4 2.1e-4,9.2e-4 6.4e-4,0.002 8.7e-4,0.003 0.002,0.006 0.003,0.01 l 0.1877,0.83852 -0.22254,0.12172 -0.16755,-0.74839 -4.3e-4,-0.002 -0.78883,0.43202 0.0154,6.4e-4 c 0.29163,0.0449 0.63876,0.15142 0.95582,0.38564 0.0166,0.0122 0.0332,0.0249 0.0497,0.0378 l 1.05077,-0.57488 c 0.0336,-0.0184 0.0741,-0.0198 0.10908,-0.004 0.0348,0.0159 0.0602,0.0473 0.0684,0.0848 l 0.24641,1.12634 c 0.002,0.009 0.003,0.0177 0.003,0.0265 0,0.0174 -0.004,0.0343 -0.0109,0.0497 -0.0107,0.0234 -0.0287,0.0435 -0.0524,0.0564 l -1.01148,0.55333 c -0.0335,0.0185 -0.0739,0.02 -0.10874,0.005 h -2.1e-4 c -0.0348,-0.0158 -0.0601,-0.047 -0.0685,-0.0843 l -0.18879,-0.84152 0.10836,-0.0594 0.0162,-0.009 0.0971,-0.0531 0.12551,0.55533 0.0171,0.0754 0.0271,0.12067 0.7893,-0.4319 -0.006,4.3e-4 c -0.30809,-0.009 -0.69051,-0.1355 -1.01959,-0.42257 l -0.19578,0.10721 c -0.013,0.005 -0.0247,0.0111 -0.0351,0.0192 l -0.81555,0.44625 c -0.007,0.004 -0.0152,0.007 -0.023,0.01 -0.002,4.4e-4 -0.004,8.8e-4 -0.005,9.2e-4 -0.004,8.7e-4 -0.006,0.002 -0.01,0.002 -0.002,4.4e-4 -0.003,6.5e-4 -0.005,6.5e-4 -0.003,2.2e-4 -0.006,4.3e-4 -0.007,6.5e-4 -0.002,2.2e-4 -0.004,2.2e-4 -0.006,2.2e-4 -9.2e-4,2.2e-4 -0.002,-2.2e-4 -0.004,0 -0.005,0 -0.009,-4.4e-4 -0.0138,-9.2e-4 -0.004,-4.4e-4 -0.007,-9.2e-4 -0.0109,-0.002 -0.002,-4.3e-4 -0.005,-8.6e-4 -0.006,-0.002 -8.7e-4,-2.1e-4 -0.002,-4.3e-4 -0.003,-6.4e-4 -0.006,-0.002 -0.0101,-0.004 -0.015,-0.006 -0.002,-8.7e-4 -0.004,-0.002 -0.006,-0.003 -0.002,-8.6e-4 -0.003,-0.002 -0.005,-0.003 -0.002,-8.6e-4 -0.003,-0.002 -0.005,-0.003 -0.018,-0.0113 -0.0325,-0.0271 -0.0425,-0.0458 -0.006,-0.01 -0.009,-0.0201 -0.0116,-0.0311 l -0.0196,-0.0891 -0.22678,-1.03712 c -0.006,-0.0265 -0.003,-0.0532 0.008,-0.0766 0.0107,-0.0233 0.0288,-0.0434 0.0526,-0.0563 l 1.01144,-0.55338 c 0.0126,-0.006 0.0261,-0.0114 0.04,-0.0135 v 2.2e-4 c 0.006,-8.8e-4 0.0117,-9.2e-4 0.0175,-9.2e-4 z m -3.912179,0.66233 v 0 c 0.0272,-8.6e-4 0.05449,0.006 0.07838,0.0203 l 2.21e-4,2.1e-4 c 0.03446,0.0209 0.05798,0.0556 0.06561,0.0948 2.11e-4,8.6e-4 2.11e-4,0.002 4.31e-4,0.003 6.53e-4,0.004 9.19e-4,0.007 0.0018,0.0115 l 0.101718,0.99665 -0.274455,0.11028 -0.09078,-0.88956 -2.21e-4,-0.003 -0.972856,0.39141 0.01783,0.003 c 0.331452,0.0922 0.718633,0.26338 1.053402,0.57826 0.01755,0.0165 0.03501,0.0334 0.05237,0.0506 l 1.295759,-0.52067 c 0.0415,-0.0166 0.0885,-0.0128 0.12683,0.0105 0.0381,0.0232 0.0632,0.0631 0.0676,0.10766 l 0.12998,1.33798 c 8.7e-4,0.0105 6.5e-4,0.0209 -4.3e-4,0.0311 -0.003,0.0201 -0.009,0.0391 -0.0195,0.056 -0.0155,0.0256 -0.0391,0.0464 -0.0684,0.0582 l -1.247348,0.50112 c -0.04144,0.0167 -0.08821,0.013 -0.126454,-0.0102 h -2.21e-4 c -0.03813,-0.0232 -0.06313,-0.0628 -0.06763,-0.10701 l -0.102573,-1.00033 0.133649,-0.0537 0.02003,-0.008 0.119728,-0.0481 0.06873,0.66023 0.0094,0.0897 0.01461,0.14347 0.973459,-0.39119 -0.007,-2.2e-4 c -0.35544,-0.053 -0.780728,-0.25206 -1.122123,-0.62979 l -0.241458,0.0971 c -0.01562,0.004 -0.03014,0.01 -0.04337,0.0175 l -1.005695,0.40417 c -0.0092,0.004 -0.01847,0.006 -0.02793,0.008 -0.0018,2.1e-4 -0.0037,6.5e-4 -0.0055,9.2e-4 -0.0037,4.3e-4 -0.0083,8.6e-4 -0.01167,9.2e-4 -0.0018,2.1e-4 -0.0037,2.1e-4 -0.0055,2.1e-4 -0.0028,0 -0.0055,-2.1e-4 -0.0092,-2.1e-4 -0.0028,-2.2e-4 -0.0046,-4.5e-4 -0.0074,-6.6e-4 -9.19e-4,2.1e-4 -0.0028,-4.3e-4 -0.0037,-4.3e-4 -0.0055,-6.5e-4 -0.01057,-0.002 -0.01581,-0.003 -0.0046,-9.2e-4 -0.0083,-0.003 -0.0124,-0.004 -0.0028,-8.6e-4 -0.0055,-0.002 -0.0074,-0.003 -9.19e-4,-4.3e-4 -0.0018,-6.5e-4 -0.0037,-9.2e-4 -0.0055,-0.003 -0.0113,-0.006 -0.01663,-0.008 -0.0018,-9.1e-4 -0.0037,-0.003 -0.0055,-0.004 -0.0018,-9.2e-4 -0.0037,-0.003 -0.0055,-0.004 -0.0018,-9.2e-4 -0.0028,-0.003 -0.0046,-0.004 -0.0193,-0.0155 -0.03391,-0.0359 -0.04282,-0.0588 -0.0046,-0.0119 -0.0083,-0.0245 -0.0092,-0.0376 l -0.01038,-0.10596 -0.119553,-1.232 c -0.0028,-0.0314 0.0046,-0.0619 0.01985,-0.0876 0.01553,-0.0256 0.03933,-0.0463 0.06864,-0.0581 l 1.247237,-0.5012 c 0.01553,-0.006 0.03189,-0.01 0.04824,-0.0101 z m -10.47252,0.88567 c 0.104484,0 0.174529,0.0376 0.156694,0.084 -0.0064,0.0165 -0.06827,0.0606 -0.137591,0.0982 -0.109353,0.0591 -0.133584,0.0832 -0.182936,0.18118 -0.04429,0.088 -0.05917,0.1495 -0.06689,0.2779 -0.01911,0.31568 0.07185,0.64671 0.224156,0.81525 0.03859,0.0427 0.06487,0.0863 0.05844,0.0968 -0.01544,0.025 -0.0055,0.0278 -0.144877,-0.0418 -0.226619,-0.11324 -0.339216,-0.31937 -0.382706,-0.7007 -0.03391,-0.2968 0.03574,-0.54735 0.192106,-0.69145 0.104833,-0.0966 0.158789,-0.11932 0.28369,-0.11932 z m 14.057879,1.40232 v 0 c 0.0272,-8.7e-4 0.0545,0.006 0.0784,0.0204 l 2.2e-4,2.2e-4 c 0.0345,0.0209 0.058,0.0556 0.0656,0.0948 2.2e-4,8.8e-4 2.2e-4,0.002 4.3e-4,0.003 6.6e-4,0.004 9.2e-4,0.007 0.002,0.0115 l 0.10172,0.99669 -0.27446,0.11023 -0.0908,-0.88952 -4.3e-4,-0.003 -0.97282,0.39142 0.0178,0.003 c 0.33145,0.0922 0.71863,0.26341 1.05341,0.57829 0.0175,0.0165 0.035,0.0334 0.0524,0.0506 l 1.2958,-0.52068 c 0.0415,-0.0166 0.0885,-0.0128 0.12679,0.0105 0.0381,0.0232 0.0632,0.0631 0.0676,0.10765 l 0.12998,1.33799 c 8.7e-4,0.0105 8.7e-4,0.0209 -4.3e-4,0.0311 -0.003,0.0201 -0.009,0.0391 -0.0195,0.056 -0.0155,0.0256 -0.0391,0.0464 -0.0684,0.0582 l -1.24735,0.50112 c -0.0414,0.0167 -0.0882,0.013 -0.12645,-0.0102 h -2.1e-4 c -0.0381,-0.0232 -0.0631,-0.0628 -0.0676,-0.10705 l -0.10258,-1.00029 0.13362,-0.0537 0.02,-0.008 0.11974,-0.0481 0.0687,0.6602 0.009,0.0898 0.0146,0.14345 0.97345,-0.39121 -0.007,-2.2e-4 c -0.35543,-0.053 -0.78076,-0.25206 -1.12217,-0.62979 l -0.24141,0.0971 c -0.0156,0.004 -0.0301,0.009 -0.0434,0.0174 l -1.00573,0.40417 c -0.009,0.004 -0.0185,0.006 -0.0279,0.008 -0.002,2.2e-4 -0.004,6.5e-4 -0.006,8.6e-4 -0.004,4.5e-4 -0.008,8.8e-4 -0.0117,9.2e-4 -0.002,2.2e-4 -0.004,2.2e-4 -0.006,2.2e-4 -0.003,0 -0.006,-2.2e-4 -0.009,-2.2e-4 -0.003,-2.1e-4 -0.005,-4.3e-4 -0.007,-6.4e-4 -9.2e-4,2.1e-4 -0.003,-4.4e-4 -0.004,-4.4e-4 -0.006,-6.4e-4 -0.0106,-0.002 -0.0158,-0.003 -0.005,-9.2e-4 -0.008,-0.003 -0.0124,-0.004 -0.003,-8.8e-4 -0.006,-0.002 -0.007,-0.003 -9.1e-4,-4.3e-4 -0.002,-6.5e-4 -0.004,-9.2e-4 -0.006,-0.003 -0.0113,-0.006 -0.0166,-0.008 -0.002,-9.2e-4 -0.004,-0.003 -0.006,-0.004 -0.002,-9.2e-4 -0.004,-0.003 -0.006,-0.004 -0.002,-9.2e-4 -0.003,-0.003 -0.005,-0.004 -0.0193,-0.0156 -0.0339,-0.0359 -0.0428,-0.0588 -0.005,-0.0119 -0.008,-0.0245 -0.009,-0.0376 l -0.0103,-0.10597 -0.11958,-1.23199 c -0.003,-0.0314 0.005,-0.0619 0.0199,-0.0876 0.0155,-0.0256 0.0392,-0.0463 0.0685,-0.0581 l 1.24731,-0.5012 c 0.0155,-0.006 0.0318,-0.01 0.0481,-0.0101 z m -5.698844,0.15344 c 0.0272,-8.7e-4 0.0544,0.006 0.07838,0.0203 l 4.32e-4,2.2e-4 c 0.03446,0.0209 0.05807,0.0556 0.06561,0.0948 2.11e-4,8.6e-4 0,0.002 4.32e-4,0.003 6.52e-4,0.004 9.19e-4,0.007 0.0018,0.0115 l 0.101718,0.99669 -0.274446,0.11023 -0.09078,-0.88956 -4.32e-4,-0.002 -0.972816,0.39137 0.01783,0.003 c 0.331461,0.0922 0.718678,0.26338 1.053447,0.57826 0.01755,0.0164 0.03501,0.0334 0.05238,0.0506 l 1.295844,-0.52068 c 0.04153,-0.0166 0.08839,-0.0128 0.126748,0.0105 0.03813,0.0232 0.06322,0.0631 0.06763,0.10761 l 0.130019,1.33803 c 8.64e-4,0.0105 6.53e-4,0.0209 -4.32e-4,0.0311 -0.0028,0.0201 -0.0092,0.0391 -0.01948,0.0561 -0.01553,0.0256 -0.03914,0.0463 -0.06836,0.0582 l -1.247347,0.50112 c -0.04144,0.0167 -0.08821,0.0131 -0.126454,-0.0102 h -2.11e-4 c -0.03804,-0.0232 -0.06313,-0.0627 -0.06763,-0.10701 l -0.102582,-1.00033 0.133658,-0.0538 0.02003,-0.008 0.119663,-0.048 0.06873,0.66023 0.0093,0.0898 0.0147,0.14341 0.97337,-0.39117 -0.0073,-2.2e-4 c -0.355437,-0.053 -0.780777,-0.25206 -1.12218,-0.62979 l -0.24145,0.0971 c -0.01562,0.004 -0.03014,0.009 -0.04337,0.0174 l -1.00573,0.40421 c -0.0092,0.004 -0.01847,0.006 -0.02793,0.008 -0.0018,2.2e-4 -0.0037,6.5e-4 -0.0055,9.2e-4 -0.0037,4.3e-4 -0.0083,8.6e-4 -0.01167,9.1e-4 -0.0018,2.3e-4 -0.0037,2.3e-4 -0.0055,2.3e-4 -0.0028,0 -0.0055,-2.3e-4 -0.0092,-2.3e-4 -0.0028,-2.2e-4 -0.0046,-4.3e-4 -0.0074,-6.5e-4 -9.19e-4,2.2e-4 -0.0028,-2.1e-4 -0.0037,-2.1e-4 -0.0055,-6.5e-4 -0.01075,-0.002 -0.0159,-0.003 -0.0046,-9.1e-4 -0.0083,-0.003 -0.01231,-0.004 -0.0028,-8.6e-4 -0.0055,-0.002 -0.0074,-0.003 -8.73e-4,-4.3e-4 -0.0028,-6.5e-4 -0.0037,-9.2e-4 -0.0055,-0.003 -0.0113,-0.006 -0.01663,-0.008 -0.0018,-9.2e-4 -0.0037,-0.003 -0.0055,-0.004 -0.0018,-9.2e-4 -0.0037,-0.003 -0.0055,-0.004 -0.0018,-9.2e-4 -0.0028,-0.003 -0.0046,-0.004 -0.0193,-0.0155 -0.03391,-0.0359 -0.04282,-0.0588 -0.0046,-0.0119 -0.0083,-0.0245 -0.0092,-0.0376 l -0.01029,-0.10592 -0.119553,-1.23203 c -0.0028,-0.0314 0.0046,-0.0619 0.01985,-0.0876 0.01553,-0.0256 0.03924,-0.0463 0.06855,-0.0581 l 1.2473,-0.50115 c 0.01553,-0.006 0.03179,-0.01 0.04815,-0.0101 z m 3.543404,2.21123 v 0 c 0.0272,-8.7e-4 0.0545,0.006 0.0784,0.0204 l 2.1e-4,2.1e-4 c 0.0344,0.0209 0.0581,0.0556 0.0656,0.0948 2.2e-4,8.6e-4 2.2e-4,0.002 4.4e-4,0.003 6.5e-4,0.004 9.1e-4,0.007 0.002,0.0115 l 0.10172,0.99669 -0.27445,0.11024 -0.0908,-0.88953 -4.3e-4,-0.003 -0.972891,0.3914 0.01783,0.003 c 0.331452,0.0922 0.718661,0.26341 1.053431,0.5783 0.0175,0.0164 0.035,0.0333 0.0524,0.0506 l 1.29583,-0.52067 c 0.0415,-0.0166 0.0885,-0.0128 0.12676,0.0105 0.0381,0.0232 0.0632,0.0631 0.0676,0.10765 l 0.13002,1.33799 c 8.6e-4,0.0105 8.6e-4,0.0209 -4.3e-4,0.0311 -0.003,0.0201 -0.009,0.0391 -0.0195,0.056 -0.0155,0.0256 -0.0391,0.0464 -0.0685,0.0582 l -1.24734,0.50112 c -0.0414,0.0167 -0.0882,0.0131 -0.12645,-0.0102 h -2.2e-4 c -0.0381,-0.0232 -0.0631,-0.0627 -0.0676,-0.10704 l -0.10259,-1.00029 0.13363,-0.0538 0.02,-0.008 0.11974,-0.0481 0.0687,0.66019 0.009,0.0898 0.0146,0.14346 0.97345,-0.39122 -0.007,-2.1e-4 c -0.35543,-0.053 -0.78076,-0.25206 -1.12217,-0.62979 l -0.24142,0.0971 c -0.0156,0.004 -0.0301,0.009 -0.0433,0.0175 l -1.005725,0.40417 c -0.0092,0.004 -0.01856,0.006 -0.02802,0.008 -0.0018,2.1e-4 -0.0037,6.5e-4 -0.0064,9.1e-4 -0.0037,4.4e-4 -0.0083,8.7e-4 -0.01167,9.2e-4 -0.0018,2.1e-4 -0.0037,2.1e-4 -0.0055,2.1e-4 -0.0028,0 -0.0055,-2.1e-4 -0.0092,-2.1e-4 -0.0028,-2.2e-4 -0.0046,-4.4e-4 -0.0074,-6.5e-4 -9.19e-4,2.1e-4 -0.0028,-4.3e-4 -0.0037,-4.3e-4 -0.0055,-6.5e-4 -0.01066,-0.002 -0.0158,-0.003 -0.0046,-9.2e-4 -0.0083,-0.003 -0.01241,-0.004 -0.0028,-8.7e-4 -0.0046,-0.002 -0.0074,-0.003 -9.18e-4,-4.3e-4 -0.0028,-6.4e-4 -0.0037,-9.2e-4 -0.0055,-0.003 -0.0113,-0.006 -0.01663,-0.008 -0.0018,-9.2e-4 -0.0037,-0.003 -0.0055,-0.004 -0.0018,-9.2e-4 -0.0037,-0.003 -0.0055,-0.004 -0.0018,-9.2e-4 -0.0037,-0.003 -0.0046,-0.004 -0.0193,-0.0156 -0.03391,-0.0359 -0.04282,-0.0588 -0.0046,-0.0119 -0.0083,-0.0245 -0.0092,-0.0376 l -0.01029,-0.10596 -0.119544,-1.23199 c -0.0028,-0.0314 0.0046,-0.0619 0.01994,-0.0876 0.01553,-0.0256 0.03924,-0.0463 0.06855,-0.0581 l 1.247299,-0.50119 c 0.0155,-0.006 0.0318,-0.01 0.0482,-0.0101 z m -4.973658,0.41156 h 2.12e-4 c 0.0272,-8.7e-4 0.0544,0.006 0.07838,0.0203 l 4.32e-4,2.1e-4 c 0.03446,0.021 0.05798,0.0556 0.06561,0.0948 2.21e-4,8.6e-4 0,0.002 4.41e-4,0.003 6.44e-4,0.004 9.19e-4,0.007 0.0018,0.0115 l 0.101718,0.99668 -0.274519,0.11025 -0.09078,-0.88957 -4.32e-4,-0.003 -0.972817,0.39137 0.01783,0.003 c 0.33147,0.0922 0.718688,0.26337 1.053457,0.57826 0.01755,0.0164 0.03501,0.0333 0.05237,0.0506 l 1.295769,-0.52067 c 0.04153,-0.0166 0.08849,-0.0128 0.126831,0.0105 0.03813,0.0232 0.06322,0.0631 0.06754,0.10761 l 0.130065,1.33802 c 8.64e-4,0.0105 8.64e-4,0.0209 -6.52e-4,0.0311 -0.0028,0.0201 -0.0092,0.0391 -0.01948,0.056 -0.01553,0.0256 -0.03914,0.0463 -0.06836,0.0582 l -1.247336,0.50112 c -0.04144,0.0167 -0.0883,0.013 -0.12649,-0.0102 h -4.41e-4 c -0.03804,-0.0232 -0.06303,-0.0628 -0.06754,-0.10701 l -0.102618,-1.00033 0.133657,-0.0538 0.02003,-0.008 0.119709,-0.0481 0.06873,0.66023 0.0093,0.0898 0.01479,0.14342 0.973341,-0.39119 -0.0074,-2.1e-4 c -0.355425,-0.053 -0.780757,-0.25206 -1.122169,-0.62979 l -0.241459,0.0971 c -0.01562,0.004 -0.03014,0.009 -0.04337,0.0174 l -1.005731,0.40421 c -0.0092,0.004 -0.01847,0.006 -0.02793,0.008 -0.0018,2.1e-4 -0.0037,6.4e-4 -0.0055,9.2e-4 -0.0037,4.4e-4 -0.0083,8.7e-4 -0.01167,9.2e-4 -0.0018,2.2e-4 -0.0037,2.2e-4 -0.0055,2.2e-4 -0.0028,0 -0.0055,-2.2e-4 -0.0092,-2.2e-4 -0.0028,-2.1e-4 -0.0046,-4.3e-4 -0.0074,-6.5e-4 -9.19e-4,2.2e-4 -0.0028,-4.4e-4 -0.0037,-4.4e-4 -0.0055,-6.4e-4 -0.01057,-0.002 -0.01581,-0.003 -0.0046,-9.2e-4 -0.0083,-0.003 -0.01241,-0.004 -0.0028,-8.6e-4 -0.0055,-0.002 -0.0074,-0.003 -8.64e-4,-4.3e-4 -0.0018,-6.5e-4 -0.0037,-9.1e-4 -0.0055,-0.003 -0.0113,-0.006 -0.01663,-0.008 -0.0018,-9.2e-4 -0.0037,-0.003 -0.0055,-0.004 -0.0018,-9.2e-4 -0.0037,-0.003 -0.0055,-0.004 -0.0018,-9.1e-4 -0.0028,-0.003 -0.0046,-0.004 -0.0193,-0.0156 -0.03391,-0.0359 -0.04282,-0.0588 -0.0046,-0.0119 -0.0083,-0.0245 -0.0092,-0.0376 l -0.01029,-0.10593 -0.119553,-1.23199 c -0.0028,-0.0314 0.0046,-0.062 0.01994,-0.0876 0.01553,-0.0256 0.03924,-0.0463 0.06855,-0.0581 l 1.247227,-0.50115 c 0.01553,-0.006 0.03179,-0.01 0.04815,-0.0101 z m 3.787863,2.26002 c 0.0272,-8.6e-4 0.05449,0.006 0.07838,0.0204 l 2.2e-4,2.1e-4 c 0.03446,0.0209 0.05807,0.0556 0.06561,0.0948 2.2e-4,8.6e-4 2.2e-4,0.002 4.32e-4,0.003 6.52e-4,0.004 9.19e-4,0.007 0.0018,0.0115 l 0.101682,0.99669 -0.274455,0.11024 -0.09078,-0.88956 -4.32e-4,-0.002 -0.972854,0.39141 0.01783,0.003 c 0.331452,0.0922 0.718633,0.26342 1.053402,0.5783 0.01755,0.0164 0.03501,0.0333 0.05238,0.0506 l 1.2958,-0.52067 c 0.0415,-0.0166 0.0885,-0.0128 0.12683,0.0105 0.0381,0.0232 0.0632,0.0631 0.0675,0.10765 l 0.12999,1.33799 c 8.6e-4,0.0105 8.6e-4,0.0209 -4.4e-4,0.0311 -0.003,0.0201 -0.009,0.0391 -0.0195,0.056 -0.0155,0.0256 -0.0392,0.0464 -0.0685,0.0582 l -1.247356,0.50113 c -0.04144,0.0167 -0.08821,0.013 -0.126444,-0.0102 h -2.21e-4 c -0.03813,-0.0232 -0.06313,-0.0628 -0.06763,-0.10705 l -0.102582,-1.0003 0.133658,-0.0538 0.02003,-0.008 0.1197,-0.0481 0.06873,0.66019 0.0093,0.0898 0.0147,0.14346 0.973375,-0.39122 -0.007,-2.2e-4 c -0.35544,-0.0531 -0.78077,-0.25206 -1.122168,-0.62979 l -0.241422,0.0971 c -0.01562,0.004 -0.03005,0.009 -0.04328,0.0174 l -1.005768,0.40417 c -0.0092,0.004 -0.01847,0.006 -0.02793,0.008 -0.0018,2.2e-4 -0.0037,6.5e-4 -0.0064,8.7e-4 -0.0037,4.3e-4 -0.0083,8.7e-4 -0.01176,9.2e-4 -0.0018,2.1e-4 -0.0037,2.1e-4 -0.0055,2.1e-4 -0.0028,0 -0.0055,-2.1e-4 -0.0092,-2.1e-4 -0.0028,-2.2e-4 -0.0046,-4.4e-4 -0.0074,-6.5e-4 -9.19e-4,2.1e-4 -0.0028,-4.3e-4 -0.0037,-4.3e-4 -0.0055,-6.6e-4 -0.01075,-0.002 -0.0159,-0.003 -0.0046,-9.2e-4 -0.0083,-0.003 -0.01231,-0.004 -0.0028,-8.6e-4 -0.0055,-0.002 -0.0074,-0.003 -9.19e-4,-4.3e-4 -0.0018,-6.5e-4 -0.0037,-9.2e-4 -0.0055,-0.003 -0.0113,-0.006 -0.01663,-0.008 -0.0018,-9.2e-4 -0.0037,-0.003 -0.0055,-0.004 -0.0018,-9.1e-4 -0.0037,-0.003 -0.0055,-0.004 -0.0018,-9.2e-4 -0.0028,-0.003 -0.0046,-0.004 -0.0193,-0.0156 -0.03391,-0.0359 -0.04282,-0.0589 -0.0046,-0.0119 -0.0083,-0.0245 -0.0092,-0.0376 l -0.01029,-0.10596 -0.119555,-1.23199 c -0.0028,-0.0314 0.0046,-0.0619 0.01994,-0.0876 0.01553,-0.0256 0.03914,-0.0463 0.06846,-0.0581 l 1.24731,-0.5012 c 0.01553,-0.006 0.03179,-0.01 0.04815,-0.0101 z m -3.355272,1.25561 v 0 c 0.0272,-8.7e-4 0.05449,0.006 0.07838,0.0203 l 4.41e-4,2.2e-4 c 0.03446,0.0209 0.05807,0.0556 0.06561,0.0948 2.12e-4,8.8e-4 0,0.002 4.32e-4,0.003 6.53e-4,0.004 9.19e-4,0.007 0.0018,0.0115 l 0.101718,0.99669 -0.274491,0.11023 -0.09087,-0.88956 -4.32e-4,-0.003 -0.972836,0.3914 0.01783,0.003 c 0.331461,0.0922 0.718678,0.26337 1.053447,0.57825 0.01755,0.0165 0.03501,0.0333 0.05238,0.0506 l 1.295842,-0.52068 c 0.04153,-0.0166 0.08839,-0.0128 0.126767,0.0105 0.03813,0.0232 0.06322,0.0631 0.06763,0.10766 l 0.130028,1.33799 c 8.64e-4,0.0105 8.64e-4,0.0209 -6.52e-4,0.0311 -0.0028,0.0201 -0.0092,0.0391 -0.01948,0.056 -0.01553,0.0256 -0.03914,0.0464 -0.06836,0.0582 l -1.247382,0.50112 c -0.04144,0.0167 -0.08821,0.0131 -0.126445,-0.0102 h -2.21e-4 c -0.03804,-0.0231 -0.06313,-0.0628 -0.06763,-0.10701 l -0.102581,-1.00033 0.133657,-0.0538 0.02003,-0.008 0.119673,-0.0481 0.06873,0.66023 0.0093,0.0897 0.01479,0.14346 0.973332,-0.39118 -0.0074,-2.2e-4 c -0.355434,-0.053 -0.780812,-0.25206 -1.122215,-0.62979 l -0.241412,0.0971 c -0.01562,0.004 -0.03014,0.01 -0.04337,0.0175 l -1.005732,0.40417 c -0.0092,0.004 -0.01847,0.006 -0.02793,0.008 -0.0018,2.1e-4 -0.0037,6.5e-4 -0.0064,9.2e-4 -0.0037,4.3e-4 -0.0083,8.6e-4 -0.01167,9.1e-4 -0.0018,2.2e-4 -0.0037,2.2e-4 -0.0055,2.2e-4 -0.0028,0 -0.0064,-2.2e-4 -0.0092,-2.2e-4 -0.0028,-2.2e-4 -0.0046,-4.4e-4 -0.0074,-6.5e-4 -9.19e-4,2.1e-4 -0.0028,-4.3e-4 -0.0037,-4.3e-4 -0.0055,-6.5e-4 -0.01075,-0.002 -0.0159,-0.003 -0.0046,-9.2e-4 -0.0083,-0.003 -0.01241,-0.004 -0.0028,-8.7e-4 -0.0055,-0.002 -0.0074,-0.003 -8.63e-4,-4.3e-4 -0.0018,-6.5e-4 -0.0037,-9.2e-4 -0.0055,-0.003 -0.0113,-0.006 -0.01672,-0.008 -0.0018,-9.2e-4 -0.0037,-0.003 -0.0055,-0.004 -0.0018,-9.2e-4 -0.0037,-0.003 -0.0055,-0.004 -0.0018,-9.2e-4 -0.0028,-0.003 -0.0046,-0.004 -0.0193,-0.0155 -0.03391,-0.0359 -0.04282,-0.0588 -0.0046,-0.0119 -0.0083,-0.0245 -0.0092,-0.0376 l -0.01038,-0.10597 -0.119553,-1.23199 c -0.0028,-0.0314 0.0046,-0.0619 0.01985,-0.0876 0.01562,-0.0256 0.03933,-0.0463 0.06864,-0.0581 l 1.247263,-0.5012 c 0.01553,-0.006 0.03189,-0.01 0.04815,-0.0101 z m 2.327129,3.37836 c -0.0037,-2.2e-4 -0.0064,-2.2e-4 -0.0097,0 -0.0037,2.1e-4 -0.0074,8.7e-4 -0.01084,0.002 -0.127391,0.0341 -0.855591,0.16235 -1.146686,0.20193 -0.270816,0.0368 -1.179708,0.19515 -1.373937,0.23933 -0.145272,0.033 -0.151723,0.0377 -0.21653,0.15392 -0.152163,0.27306 -0.291417,0.81137 -0.382026,1.47668 -0.02104,0.1542 -0.03354,0.31301 -0.04208,0.55112 a 17.447005,17.447005 0 0 0 0.717356,0.0594 c 0,-9.2e-4 -6.53e-4,-0.003 -6.53e-4,-0.004 l -0.0074,-0.0777 -0.08775,-0.90394 c -0.0018,-0.0231 0.0028,-0.0455 0.01461,-0.0642 0.01139,-0.0187 0.02876,-0.0339 0.05026,-0.0425 l 0.915158,-0.36776 c 0.01139,-0.005 0.02334,-0.007 0.03528,-0.007 v 0 c 0.01994,-6.4e-4 0.03997,0.005 0.05752,0.015 l 2.21e-4,2.2e-4 c 0.02527,0.0154 0.04264,0.0408 0.04815,0.0696 2.11e-4,6.5e-4 2.11e-4,9.2e-4 4.32e-4,0.002 4.32e-4,0.003 8.64e-4,0.006 9.19e-4,0.008 l 0.07461,0.73132 -0.201341,0.0809 -0.06662,-0.65269 -2.21e-4,-0.002 -0.713835,0.2872 0.01314,0.002 c 0.243204,0.0676 0.527298,0.19321 0.772919,0.42425 0.01286,0.0121 0.02573,0.0245 0.03841,0.0371 l 0.950701,-0.38202 c 0.03051,-0.0122 0.06496,-0.009 0.09305,0.007 0.02802,0.017 0.0464,0.0463 0.04962,0.079 l 0.07691,0.7919 a 17.447005,17.447005 0 0 0 0.61959,-0.0427 c -0.126123,-0.65833 -0.182265,-1.17237 -0.196462,-1.72613 -0.0097,-0.37889 -0.0064,-0.48051 0.02407,-0.65175 l 0.03565,-0.20288 -0.05559,-0.0514 c -0.02885,-0.0267 -0.05403,-0.0405 -0.077,-0.0422 z m -1.375418,2.38677 -0.177111,0.0712 c -0.01148,0.003 -0.02214,0.007 -0.03179,0.0128 l -0.570228,0.22911 a 17.447005,17.447005 0 0 0 0.642404,0.0322 l -0.01746,-0.17086 0.09801,-0.0394 0.0147,-0.006 0.08784,-0.0353 0.02729,0.26196 a 17.447005,17.447005 0 0 0 0.09541,0.005 17.447005,17.447005 0 0 0 0.297739,-0.0106 c -0.161683,-0.0772 -0.324166,-0.19232 -0.466718,-0.35005 z"
       id="circle296" />
  </g>
</svg>
