<?xml version="1.0" encoding="UTF-8" standalone="no"?>
<!-- Created with Inkscape (http://www.inkscape.org/) -->

<svg
   xmlns:dc="http://purl.org/dc/elements/1.1/"
   xmlns:cc="http://creativecommons.org/ns#"
   xmlns:rdf="http://www.w3.org/1999/02/22-rdf-syntax-ns#"
   xmlns:svg="http://www.w3.org/2000/svg"
   xmlns="http://www.w3.org/2000/svg"
   xmlns:sodipodi="http://sodipodi.sourceforge.net/DTD/sodipodi-0.dtd"
   xmlns:inkscape="http://www.inkscape.org/namespaces/inkscape"
   width="39.574348mm"
   height="39.574352mm"
   viewBox="0 0 39.574348 39.574352"
   version="1.1"
   id="svg1129"
   inkscape:version="0.92.2 2405546, 2018-03-11"
   sodipodi:docname="your-new-cto.svg">
  <defs
     id="defs1123" />
  <sodipodi:namedview
     id="base"
     pagecolor="#ffffff"
     bordercolor="#666666"
     borderopacity="1.0"
     inkscape:pageopacity="0.0"
     inkscape:pageshadow="2"
     inkscape:zoom="6.8874741"
     inkscape:cx="83.582163"
     inkscape:cy="83.526685"
     inkscape:document-units="mm"
     inkscape:current-layer="layer1"
     showgrid="false"
     inkscape:pagecheckerboard="true"
     fit-margin-top="0"
     fit-margin-left="0"
     fit-margin-right="0"
     fit-margin-bottom="0"
     inkscape:window-width="3840"
     inkscape:window-height="2160"
     inkscape:window-x="7680"
     inkscape:window-y="2160"
     inkscape:window-maximized="0"
     inkscape:snap-object-midpoints="true" />
  <metadata
     id="metadata1126">
    <rdf:RDF>
      <cc:Work
         rdf:about="">
        <dc:format>image/svg+xml</dc:format>
        <dc:type
           rdf:resource="http://purl.org/dc/dcmitype/StillImage" />
        <dc:title></dc:title>
      </cc:Work>
    </rdf:RDF>
  </metadata>
  <g
     inkscape:label="Layer 1"
     inkscape:groupmode="layer"
     id="layer1"
     transform="translate(-77.4702,-95.190089)">
    <ellipse
       style="opacity:1;fill:#00ff00;fill-opacity:0;stroke:#d40000;stroke-width:0;stroke-miterlimit:4;stroke-dasharray:none;stroke-dashoffset:0;stroke-opacity:1"
       id="path1133"
       cx="79.411827"
       cy="132.68007"
       rx="40.546772"
       ry="27.686371" />
    <ellipse
       style="opacity:1;fill:#ffd5d5;fill-opacity:0;stroke:#d40000;stroke-width:0;stroke-miterlimit:4;stroke-dasharray:none;stroke-dashoffset:0;stroke-opacity:1"
       id="path1678"
       cx="173.19426"
       cy="181.25636"
       rx="43.354725"
       ry="43.073929" />
    <path
       style="color:#000000;font-style:normal;font-variant:normal;font-weight:normal;font-stretch:normal;font-size:medium;line-height:normal;font-family:sans-serif;font-variant-ligatures:normal;font-variant-position:normal;font-variant-caps:normal;font-variant-numeric:normal;font-variant-alternates:normal;font-feature-settings:normal;text-indent:0;text-align:start;text-decoration:none;text-decoration-line:none;text-decoration-style:solid;text-decoration-color:#000000;letter-spacing:normal;word-spacing:normal;text-transform:none;writing-mode:lr-tb;direction:ltr;text-orientation:mixed;dominant-baseline:auto;baseline-shift:baseline;text-anchor:start;white-space:normal;shape-padding:0;clip-rule:nonzero;display:inline;overflow:visible;visibility:visible;opacity:1;isolation:auto;mix-blend-mode:normal;color-interpolation:sRGB;color-interpolation-filters:linearRGB;solid-color:#000000;solid-opacity:1;vector-effect:none;fill:#ffffff;fill-opacity:1;fill-rule:nonzero;stroke:none;stroke-width:4.60384798px;stroke-linecap:butt;stroke-linejoin:miter;stroke-miterlimit:10;stroke-dasharray:none;stroke-dashoffset:0;stroke-opacity:1;color-rendering:auto;image-rendering:auto;shape-rendering:auto;text-rendering:auto;enable-background:accumulate"
       d="M 74.785156 0 C 54.95156 -6.8031495e-05 35.928729 7.8798308 21.904297 21.904297 C 7.8797552 35.928801 -4.7369516e-15 54.951481 0 74.785156 C 0 94.618756 7.8797552 113.64346 21.904297 127.66797 C 35.928801 141.69247 54.95156 149.57223 74.785156 149.57227 C 94.618858 149.57227 113.64343 141.69247 127.66797 127.66797 C 141.69243 113.6435 149.5723 94.620709 149.57227 74.787109 C 149.57227 54.953435 141.69247 35.928801 127.66797 21.904297 C 113.64346 7.8797628 94.618847 -3.4015748e-05 74.785156 0 z M 74.785156 4.6035156 C 93.399571 4.6035156 111.24972 11.997838 124.41211 25.160156 C 137.57447 38.322588 144.96875 56.170718 144.96875 74.785156 C 144.96879 93.399518 137.57447 111.24972 124.41211 124.41211 C 111.24972 137.57447 93.399609 144.96879 74.785156 144.96875 C 56.170779 144.96875 38.32252 137.57447 25.160156 124.41211 C 11.997789 111.24972 4.6035156 93.399518 4.6035156 74.785156 C 4.6035156 56.170718 11.997789 38.32255 25.160156 25.160156 C 38.32252 11.997838 56.170779 4.6035156 74.785156 4.6035156 z M 76.710938 23.287109 C 76.178682 23.290662 75.756089 23.314272 75.658203 23.355469 C 75.517454 23.414429 75.507296 23.452322 75.439453 24.136719 C 75.362162 24.915717 75.173931 25.896372 74.947266 26.699219 C 74.789848 27.256699 74.506802 27.768655 73.931641 28.53125 L 73.564453 29.019531 L 73.730469 29.232422 C 74.06027 29.654935 74.618085 30.525642 74.853516 30.986328 C 74.98527 31.244092 75.103468 31.455078 75.117188 31.455078 C 75.130794 31.455078 75.265137 31.391178 75.416016 31.314453 C 75.769061 31.13417 77.145345 30.14911 78.501953 29.105469 C 80.335311 27.694949 81.131974 27.099281 81.902344 26.560547 C 83.471898 25.462972 83.769472 25.186404 83.667969 24.921875 C 83.627717 24.817182 82.720705 24.350947 82.054688 24.09375 C 81.367157 23.828427 80.179876 23.527608 79.294922 23.394531 C 78.790276 23.318563 77.598034 23.279172 76.710938 23.287109 z M 93.228516 23.789062 C 91.130953 23.792653 88.949885 23.9405 88.076172 24.146484 C 87.653847 24.246264 87.519867 24.311131 86.494141 24.935547 C 85.545366 25.512945 85.147146 25.78907 84.326172 26.427734 C 83.99021 26.689278 83.16449 27.26731 82.492188 27.714844 C 80.480704 29.053855 78.75472 30.314608 77.533203 31.333984 C 76.850738 31.903521 74.740951 33.459708 74.703125 33.421875 C 74.692542 33.406757 74.625428 33.257779 74.556641 33.082031 C 74.200345 32.171656 73.185473 30.431062 72.585938 29.703125 C 72.336715 29.400763 72.292761 29.373981 71.96875 29.314453 C 71.362941 29.203335 70.669699 29.130905 69.351562 29.039062 C 68.647966 28.989929 67.849975 28.924831 67.578125 28.896484 C 66.359004 28.768358 63.642901 28.85576 62.429688 29.0625 C 62.047086 29.127886 61.251819 29.250457 60.660156 29.333984 C 60.068501 29.417134 59.161396 29.573609 58.646484 29.683594 C 57.358172 29.959121 55.106878 30.671758 54.525391 30.986328 C 54.365479 31.072879 54.143181 31.177994 54.03125 31.220703 C 53.682589 31.35412 53.399457 31.672568 53.275391 32.074219 C 52.849578 33.452839 52.879487 35.04889 53.363281 36.710938 C 53.84694 38.372607 54.8913 40.343025 56.046875 41.775391 C 57.211793 43.219246 58.919025 44.541427 60.878906 45.519531 C 62.235708 46.196634 62.935903 46.42321 64.5 46.685547 L 65.519531 46.855469 L 67.029297 46.771484 C 69.166438 46.653563 70.989281 46.457654 72.160156 46.21875 C 72.558715 46.13749 72.766703 46.18931 73.021484 46.429688 C 73.197913 46.595987 73.223457 46.650985 73.191406 46.796875 C 73.169863 46.895521 73.179694 46.984316 73.214844 47.005859 C 73.253282 47.032316 73.23392 47.089291 73.162109 47.166016 C 73.075331 47.25937 72.853246 47.324368 72.21875 47.445312 C 71.761869 47.532242 71.059924 47.674348 70.660156 47.759766 C 69.3368 48.043986 68.081158 48.205878 66.939453 48.240234 L 65.863281 48.271484 L 64.583984 47.974609 C 60.141505 46.941891 56.462556 46.456855 53.060547 46.455078 C 52.192473 46.454625 50.696684 46.525539 49.087891 46.646484 C 48.890032 46.661602 48.614887 46.784192 47.958984 47.150391 C 46.045357 48.218334 43.571812 49.340989 41.673828 50.001953 C 41.194096 50.16863 40.500598 50.421587 40.132812 50.564453 C 37.728077 51.498374 34.70502 52.520804 32.777344 53.052734 C 31.235319 53.478158 30.747794 53.645461 30.101562 53.966797 C 28.866764 54.580743 27.221307 55.901295 24.636719 58.351562 C 19.842388 62.896747 14.856545 69.879539 12.304688 75.626953 C 12.08865 76.11353 11.894428 76.501472 11.873047 76.488281 C 11.827126 76.458045 11.383763 77.535512 10.857422 78.951172 L 10.482422 79.962891 L 10.535156 80.378906 C 10.718274 81.823177 11.399728 85.447003 11.552734 85.791016 C 11.595405 85.887016 11.65884 86.0826 11.695312 86.226562 C 11.833757 86.774103 12.482737 88.679181 12.84375 89.599609 C 13.317427 90.807282 14.210636 92.647056 14.822266 93.671875 C 16.323214 96.186621 17.953491 97.895963 19.910156 99.005859 C 21.292458 99.789998 23.443508 100.4983 25.138672 100.72852 C 25.903399 100.83245 26.799111 100.84178 28.125 100.75977 C 28.700667 100.72197 29.195847 100.67023 29.224609 100.64453 C 29.283608 100.59162 29.550119 99.07364 29.511719 99.009766 C 29.415605 98.849892 30.556772 93.912934 31.238281 91.541016 C 32.130594 88.435567 33.270111 85.472641 34.857422 82.125 C 35.524267 80.718676 36.283055 79.229734 36.34375 79.208984 C 36.364915 79.201425 36.487335 79.342713 36.615234 79.521484 C 36.743134 79.700256 37.061988 80.050249 37.324219 80.298828 C 38.103134 81.037008 38.753175 81.313651 42.123047 82.335938 C 45.698779 83.420624 48.881539 83.951144 52.902344 84.136719 C 56.153221 84.287144 59.696544 83.853359 61.966797 83.027344 C 62.708197 82.757485 64.525765 81.818046 65.1875 81.361328 C 66.104678 80.728371 67.071399 79.669766 67.488281 78.84375 C 67.799866 78.226478 68.321265 76.219282 68.476562 75.035156 C 68.587265 74.191415 68.602991 74.153403 68.992188 73.892578 C 69.478987 73.566405 70.399022 72.632598 70.757812 72.099609 C 71.286088 71.314942 71.530508 70.745376 71.824219 69.617188 C 72.006165 68.918202 72.403371 66.645234 72.404297 66.296875 C 72.404958 66.135111 72.485498 66.018539 72.914062 65.568359 C 73.515245 64.936876 73.996854 64.280117 74.492188 63.417969 C 74.946736 62.6268 74.976139 62.556629 75.582031 60.826172 L 76.083984 59.394531 L 76.457031 59.052734 C 77.299367 58.279556 77.897303 57.106678 78.130859 55.771484 C 78.341114 54.569746 78.201464 54.00801 77.369141 52.720703 C 77.098678 52.302536 76.948151 52.128792 76.796875 52.056641 C 76.684018 52.002971 76.591721 51.943923 76.591797 51.925781 C 76.591797 51.883073 77.087141 51.554146 77.347656 51.423828 C 77.459568 51.367891 77.738495 51.309662 77.966797 51.294922 C 78.321128 51.272245 78.427362 51.286629 78.697266 51.412109 C 78.965159 51.534566 79.034671 51.60031 79.146484 51.837891 C 79.331681 52.231906 79.973692 52.832404 80.320312 52.935547 C 80.46813 52.979767 80.671391 53.057218 80.771484 53.109375 C 81.089154 53.273784 82.071714 53.391381 83.132812 53.390625 C 84.895781 53.388395 86.206938 53.163098 87.779297 52.59375 C 89.047593 52.134651 89.808194 51.734323 90.560547 51.126953 L 91.025391 50.75 L 91.556641 50.818359 C 92.336848 50.917383 93.192028 51.08557 94.214844 51.34375 C 95.441036 51.652915 96.10667 51.749841 97.193359 51.775391 L 98.113281 51.798828 L 98.501953 52.0625 C 98.716252 52.208012 99.072093 52.426157 99.292969 52.546875 L 99.695312 52.765625 L 99.798828 53.285156 C 100.17262 55.144117 101.40711 57.696121 102.74219 59.371094 C 103.73783 60.620076 104.59482 61.330177 105.89648 61.984375 C 107.50105 62.790813 108.78553 63.051986 110.04102 62.828125 C 110.71827 62.70718 111.36161 62.473717 111.89648 62.152344 C 112.16105 61.993982 112.40824 61.87431 112.44531 61.888672 C 112.48311 61.90379 112.60536 62.027685 112.71875 62.166016 C 113.2983 62.873846 114.07213 64.349491 115.11328 66.722656 C 117.87128 73.009031 120.43924 77.631334 123.49219 81.810547 C 123.90106 82.370257 124.37522 83.033414 124.54492 83.283203 C 124.91229 83.823751 125.70947 84.777344 125.79492 84.777344 C 125.8947 84.777344 127.38195 83.559466 127.42383 83.443359 C 127.43895 83.413123 127.56272 83.26358 127.70898 83.109375 C 128.45079 82.326862 129.81203 80.593043 130.73828 79.251953 C 133.65351 75.031204 135.28728 70.046159 135.67578 64.191406 C 135.82129 62.0034 135.61952 57.837692 135.30469 56.517578 L 135.17188 55.964844 L 133.95117 55.150391 C 132.6786 54.302038 132.38319 54.083422 131.18164 53.105469 C 128.76339 51.137242 127.39735 49.807747 124.55469 46.660156 C 123.47129 45.460572 123.10327 45.129571 121.59766 43.978516 C 119.73673 42.555901 118.09283 41.577617 114.94531 40.023438 C 114.34051 39.724855 113.79635 39.435209 113.73633 39.380859 C 113.67623 39.326812 113.38456 38.941567 113.08594 38.523438 C 110.86138 35.408351 109.02747 31.825181 108.30664 29.183594 C 108.18948 28.754239 108.0359 28.270194 107.96484 28.109375 C 107.31779 26.64341 103.84145 25.039295 99.792969 24.337891 C 97.621933 23.961828 96.310019 23.836711 94.119141 23.796875 C 93.826983 23.793322 93.528157 23.789062 93.228516 23.789062 z M 93.373047 26.289062 L 93.373047 26.292969 C 94.115573 26.294065 94.691536 26.307842 95.111328 26.332031 C 99.330604 26.583748 102.63258 27.319899 104.98242 28.533203 C 105.86925 28.991131 105.93402 29.066949 106.24023 30.005859 C 106.87905 31.964373 107.7294 33.768579 109.0293 35.931641 C 109.92236 37.417789 110.52237 38.284305 111.69531 39.779297 C 113.36167 41.903165 113.06603 41.620435 114.21875 42.203125 C 116.62865 43.421342 118.23776 44.447863 120.60938 46.277344 C 121.54031 46.995492 121.93566 47.357942 123.54688 48.976562 C 126.05418 51.495504 127.43319 52.733414 129.27344 54.113281 C 130.22089 54.823757 131.93236 55.973713 132.52344 56.298828 C 133.24348 56.694847 133.21213 56.637564 133.29883 57.708984 C 133.41448 59.143277 133.39419 63.389739 133.26758 64.570312 C 132.73897 69.451005 131.43463 73.439834 129.14258 77.1875 C 128.23753 78.667298 126.15948 81.522605 125.99023 81.517578 C 125.96 81.516709 125.85545 81.405658 125.76172 81.271484 C 123.85272 78.524562 122.90356 77.020798 121.58594 74.65625 C 120.39913 72.526524 119.5976 70.917936 117.54297 66.546875 C 116.80502 64.977199 115.84156 63.111236 115.45117 62.492188 C 114.27033 60.619583 113.14938 59.714844 112.00781 59.714844 C 111.60926 59.714844 111.28562 59.826249 110.87891 60.103516 C 110.72319 60.20972 110.56634 60.296875 110.5293 60.296875 C 110.4915 60.296875 110.25305 60.377539 109.99805 60.476562 C 109.56484 60.645129 109.49853 60.654039 109.00977 60.623047 C 108.30806 60.57807 107.91318 60.466374 107.13672 60.09375 C 105.92534 59.512496 104.94152 58.72654 103.94531 57.541016 C 103.38447 56.873551 102.41227 55.4395 101.92188 54.556641 C 101.49868 53.794726 100.95876 52.675281 100.95898 52.5625 C 100.95898 52.514878 100.87593 52.262325 100.77539 52.001953 L 100.5918 51.529297 L 99.886719 51.121094 C 99.499393 50.89659 98.999252 50.606465 98.775391 50.476562 L 98.369141 50.240234 L 97.177734 50.148438 C 96.502938 50.09628 95.467728 49.967594 94.792969 49.851562 C 92.021781 49.373981 91.379822 49.30135 91.160156 49.445312 C 91.08192 49.496714 90.972772 49.539062 90.917969 49.539062 C 90.79778 49.539062 90.695711 49.5864 88.802734 50.501953 C 87.986621 50.896763 87.071478 51.312534 86.769531 51.427734 C 85.361241 51.965145 83.900113 52.271484 82.744141 52.271484 C 82.131392 52.271484 82.004055 52.252558 81.662109 52.119141 C 80.854696 51.80166 80.520159 51.209126 80.859375 50.691406 C 80.911192 50.612414 81.341011 50.303195 81.8125 50.005859 C 82.732993 49.425324 83.124766 49.148672 83.628906 48.724609 C 83.804919 48.576452 84.284308 48.247936 84.695312 47.994141 C 85.106313 47.740534 85.630751 47.374623 85.859375 47.181641 C 86.088036 46.988507 86.613511 46.625141 87.029297 46.373047 C 87.445045 46.12133 88.048297 45.739954 88.369141 45.525391 C 89.459232 44.796206 91.371314 44.212206 94.269531 43.724609 C 96.141418 43.409775 97.990234 42.990088 97.990234 42.880859 C 97.990234 42.611757 95.18367 42.634063 93.251953 42.916016 C 91.493112 43.173779 89.196187 43.909589 88.488281 44.441406 C 88.390391 44.515107 88.034992 44.719791 87.699219 44.896484 C 87.363219 45.073366 86.329764 45.616511 85.402344 46.105469 C 83.437382 47.141286 81.254299 48.23275 80.34375 48.632812 C 79.281227 49.099546 78.04944 49.477201 77.453125 49.519531 C 76.959572 49.553547 76.930497 49.549621 76.779297 49.410156 C 76.692519 49.33003 76.500592 49.183008 76.353516 49.083984 C 76.046542 48.877622 75.943502 48.738792 75.779297 48.306641 C 75.637754 47.934357 75.630958 47.628034 75.753906 47.212891 C 75.879349 46.790377 76.440151 46.243907 77.470703 45.539062 C 77.903467 45.243125 78.952458 44.482503 79.802734 43.847656 C 80.653015 43.212809 81.750717 42.441739 82.242188 42.134766 C 83.212536 41.528718 84.977397 40.357618 86.767578 39.130859 C 88.319792 38.067187 88.685374 37.824361 88.90625 37.710938 C 89.155699 37.582812 90.924687 37.180089 91.867188 37.037109 C 93.146671 36.842842 95.586409 36.616714 96.814453 36.578125 C 97.520431 36.555448 97.997469 36.517194 98.005859 36.482422 C 98.061796 36.251115 93.828634 36.161579 92.056641 36.355469 C 90.840464 36.488886 90.195331 36.603333 89.359375 36.837891 C 88.455577 37.091497 88.234888 37.207664 86.214844 38.488281 C 85.287385 39.076262 84.149242 39.778252 83.685547 40.048828 C 81.645082 41.239342 80.852654 41.735291 78.773438 43.115234 C 75.058778 45.580582 74.358845 45.91607 73.748047 45.539062 C 73.4636 45.363314 73.208795 45.08902 73.060547 44.798828 C 72.92146 44.526324 72.915442 44.472852 72.947266 43.910156 C 72.986762 43.211813 73.07728 42.975989 73.597656 42.210938 C 74.059129 41.532437 77.067685 38.527963 77.941406 37.873047 C 78.283378 37.616417 78.92752 37.061929 79.373047 36.640625 C 79.818559 36.219245 80.326635 35.776779 80.503906 35.65625 C 80.681166 35.535683 81.323896 35.010486 81.931641 34.490234 C 84.02568 32.697529 84.708485 32.208531 86.791016 31.007812 C 86.979614 30.89934 87.228437 30.787356 87.34375 30.759766 C 87.459026 30.729529 87.707206 30.667833 87.896484 30.617188 C 88.901839 30.345817 91.358148 30.167673 94.53125 30.136719 C 97.007105 30.110262 97.563932 30.086173 97.40625 30 C 97.002596 29.779654 92.359043 29.625846 90.402344 29.767578 C 88.109078 29.933877 87.102648 30.102234 86.3125 30.453125 C 85.357716 30.876886 82.833681 32.447151 80.970703 33.775391 C 80.676505 33.985154 80.113585 34.367173 79.720703 34.623047 C 78.338983 35.522801 77.125939 36.476434 75.429688 37.994141 C 74.579188 38.755111 74.402465 38.880505 73.919922 39.070312 C 73.628067 39.18521 73.572531 39.189567 73.222656 39.123047 C 72.792418 39.041409 72.640652 38.932737 72.490234 38.599609 C 72.395482 38.389468 72.391129 38.315874 72.455078 37.833984 C 72.62561 36.552838 73.27622 35.829476 75.5 34.441406 C 75.892553 34.196115 76.65944 33.662902 77.203125 33.257812 C 78.58839 32.225775 79.265675 31.755749 81.359375 30.373047 C 83.441078 28.998282 84.973587 27.933034 86.15625 27.039062 L 86.970703 26.423828 L 88.220703 26.384766 C 90.434561 26.319002 92.135441 26.287929 93.373047 26.289062 z M 52.730469 28.933594 L 52.730469 28.935547 C 52.525127 28.933317 52.284415 29.013026 51.648438 29.261719 C 50.913214 29.548963 50.825533 29.630452 49.898438 30.873047 C 48.790885 32.357645 48.149027 33.305553 47.634766 34.216797 C 47.472322 34.504797 47.25717 34.8713 47.158203 35.03125 C 46.958417 35.354022 46.646798 36.084478 46.646484 36.228516 C 46.646265 36.330941 46.758682 36.435322 47.023438 36.580078 C 47.285548 36.723322 48.91023 37.177109 50.214844 37.470703 C 50.850798 37.613569 51.385336 37.744711 51.402344 37.761719 C 51.473512 37.833152 51.809198 37.787786 51.841797 37.703125 C 51.878458 37.607125 51.817355 37.269022 51.634766 36.572266 C 51.483887 35.99653 51.435161 34.768818 51.527344 33.863281 C 51.66129 32.547854 51.863864 31.859804 52.333984 31.126953 C 52.669682 30.60364 52.801769 30.512672 53.841797 30.087891 C 54.13762 29.966946 54.378906 29.846391 54.378906 29.820312 C 54.378906 29.659683 53.370672 29.059949 52.9375 28.962891 C 52.863572 28.943993 52.798878 28.937373 52.730469 28.933594 z M 49.326172 48.957031 L 50.09375 48.957031 C 52.03425 48.957258 55.839626 49.215109 57.925781 49.486328 C 60.605274 49.834801 62.56525 50.237329 67.230469 51.398438 C 69.976677 52.081927 71.34898 52.387699 73.103516 52.707031 C 74.452036 52.952701 74.82585 53.059463 75.025391 53.257812 C 75.275331 53.506127 75.482009 53.916262 75.609375 54.419922 C 75.725595 54.879286 75.727919 54.916235 75.636719 55.279297 C 75.498917 55.827858 75.179734 56.583457 74.886719 57.060547 C 74.746574 57.28883 74.617335 57.517865 74.599609 57.568359 C 74.539742 57.739572 72.256157 58.509642 70.195312 59.054688 C 69.574072 59.219097 65.913028 60.073489 65.224609 60.214844 C 64.303584 60.40382 61.676542 60.612469 58.101562 60.779297 C 56.769332 60.841281 56.617101 60.859707 56.599609 60.951172 C 56.559357 61.161314 56.817137 61.183587 58.884766 61.148438 C 59.972136 61.12954 61.254655 61.085931 61.734375 61.050781 C 62.214103 61.016766 63.536528 60.97864 64.671875 60.970703 C 66.974628 60.951805 67.654302 60.887124 69.599609 60.496094 C 71.340471 60.145732 73.58492 59.520864 74.109375 59.240234 C 74.206736 59.188077 74.213627 59.19817 74.173828 59.318359 C 74.149261 59.392816 74.12268 59.557421 74.115234 59.685547 C 74.100872 59.934618 73.782926 60.909028 73.421875 61.808594 C 73.003141 62.851706 72.342681 64.002594 71.861328 64.527344 C 71.682481 64.722367 71.554456 64.796766 71.25 64.886719 C 69.014636 65.546246 64.454595 66.596633 62.431641 66.917969 C 61.231391 67.108457 56.804685 67.39036 55.003906 67.390625 C 54.023039 67.390701 53.727076 67.460134 54.365234 67.541016 C 54.793787 67.594685 59.189881 67.526007 60.107422 67.451172 C 60.491191 67.420936 61.418351 67.382306 62.169922 67.367188 C 64.444729 67.321077 66.94166 66.945453 69.783203 66.222656 C 70.276144 66.097176 70.694156 66.008383 70.710938 66.025391 C 70.746087 66.059406 70.190302 68.040058 69.976562 68.640625 C 69.622194 69.636342 68.498477 71.596288 67.919922 72.226562 C 67.727242 72.436326 67.712837 72.44187 66.910156 72.560547 C 65.102881 72.827382 63.216068 73.016046 60.746094 73.177734 C 58.783816 73.306238 54.810345 73.394079 53.720703 73.333984 C 53.214923 73.303748 52.738026 73.29379 52.660156 73.306641 C 52.418229 73.353129 52.498758 73.478208 52.794922 73.515625 C 53.384978 73.590082 59.460521 73.756552 61.501953 73.753906 C 63.593672 73.751676 64.202931 73.719278 65.996094 73.513672 C 66.452483 73.461514 66.835214 73.429312 66.847656 73.441406 C 66.873735 73.467863 66.835741 73.686974 66.529297 75.238281 C 65.950235 78.171573 65.833296 78.529633 65.353516 78.84375 C 64.922234 79.126081 62.245311 80.419779 61.583984 80.666016 C 57.936721 82.024113 52.208221 82.125052 46.375 80.933594 C 44.051071 80.458809 40.411033 79.412043 39.398438 78.927734 C 38.836751 78.65901 38.567087 78.367414 37.960938 77.365234 C 36.857043 75.540025 35.797503 74.425781 35.166016 74.425781 C 34.541649 74.425781 34.209427 75.093645 34.480469 75.804688 C 34.544192 75.971365 34.746992 76.347976 34.931641 76.640625 C 35.164384 77.009507 35.251808 77.195247 35.214844 77.248047 C 34.399301 78.412822 33.362114 80.195323 32.458984 81.986328 C 30.427454 86.01504 29.112424 89.660166 28.009766 94.3125 C 27.795277 95.217394 27.213003 97.999184 27.082031 98.746094 C 27.045748 98.953968 27.033467 98.962637 26.828125 98.955078 C 26.709637 98.951903 26.546734 98.93712 26.466797 98.925781 C 24.234052 98.56597 22.598331 98.049975 21.150391 97.25 C 17.550149 95.260759 14.622088 90.148678 12.771484 82.619141 L 12.548828 81.710938 L 12.800781 80.990234 C 14.294696 76.716647 15.941686 73.418956 18.501953 69.578125 C 20.329529 66.836418 22.578857 63.960585 24.353516 62.097656 C 24.642952 61.793782 25.007212 61.405777 25.164062 61.234375 C 25.320951 61.062784 25.973638 60.432182 26.613281 59.832031 C 29.144026 57.457656 30.348876 56.497043 31.435547 55.988281 C 31.897983 55.772092 32.14522 55.69381 34.115234 55.144531 C 37.675897 54.151423 43.898694 51.671439 48.117188 49.5625 L 49.326172 48.957031 z M 81.089844 54.691406 C 81.080773 54.691671 81.076486 54.692263 81.074219 54.693359 C 81.06099 54.708477 81.093382 54.905147 81.146484 55.136719 C 81.377602 56.128089 81.430136 56.729346 81.400391 58.056641 C 81.377336 59.089283 81.34277 59.493244 81.222656 60.150391 C 80.862203 62.118958 80.207401 64.00014 79.138672 66.138672 C 78.914924 66.586395 78.667298 67.057648 78.587891 67.185547 C 78.508445 67.313673 78.27485 67.726621 78.068359 68.103516 C 77.861846 68.480712 77.506193 69.082767 77.279297 69.441406 C 77.052412 69.800083 76.540582 70.61625 76.140625 71.255859 C 74.608824 73.70556 73.885386 74.714134 72.482422 76.361328 C 71.992021 76.937177 71.311126 77.764157 70.96875 78.199219 C 69.577408 79.967168 69.114912 80.523321 67.558594 82.304688 C 66.664482 83.328108 65.867893 84.236685 65.787109 84.324219 C 65.587286 84.540786 65.491816 85.134062 65.460938 86.345703 C 65.342903 90.981331 65.366635 92.857471 65.576172 95.185547 C 65.98568 99.736816 66.991974 104.97103 68.064453 108.12305 C 68.455264 109.27165 68.963311 110.58059 69.035156 110.625 C 69.161884 110.70324 69.610638 110.73935 69.990234 110.70117 C 70.215532 110.67849 70.647339 110.64226 70.951172 110.62109 C 71.657101 110.57158 73.670965 110.17306 75.458984 109.72852 C 79.606411 108.69731 83.179299 107.47829 85.896484 106.16797 C 86.552119 105.852 87.124353 105.59371 87.167969 105.59375 C 87.340315 105.59375 90.122801 104.038 91.623047 103.10352 C 92.930234 102.28933 92.93031 102.29029 93.089844 101.90039 C 93.691734 100.43004 93.935319 99.808993 94.394531 98.585938 C 97.086084 91.417156 98.982201 83.436511 99.615234 76.605469 C 99.95577 72.92848 99.924572 69.331793 99.527344 66.605469 C 99.177359 64.201387 98.475479 61.930276 97.478516 59.976562 C 96.890346 58.824033 96.139158 57.82492 95.644531 57.537109 C 95.359555 57.371566 93.953052 56.989211 92.099609 56.574219 C 90.384498 56.190219 88.915721 55.706257 87.755859 55.142578 L 86.855469 54.705078 L 86.302734 54.78125 C 85.510734 54.891612 82.326777 54.877687 81.621094 54.759766 C 81.369226 54.717813 81.150207 54.689516 81.089844 54.691406 z M 76.587891 62.365234 L 76.375 62.828125 C 75.891409 63.870934 74.899003 65.332421 74.089844 66.193359 C 73.636444 66.675778 73.585848 66.751623 73.517578 67.070312 C 73.389036 67.670426 73.107201 68.667609 72.830078 69.498047 L 72.564453 70.294922 L 72.773438 71.125 C 72.88894 71.581227 73.049902 72.268571 73.130859 72.652344 C 73.339414 73.64069 73.33276 73.619777 73.390625 73.583984 C 73.419349 73.565087 73.652186 73.25753 73.90625 72.898438 C 74.878016 71.52473 75.444634 70.602564 76.361328 68.902344 C 76.98642 67.742974 77.988281 65.692051 77.988281 65.570312 C 77.988281 65.410816 77.563796 64.394669 77.048828 63.322266 L 76.587891 62.365234 z M 80.626953 110.07031 C 80.617504 110.07031 80.480918 110.12199 80.324219 110.18359 C 79.803778 110.38882 77.915168 110.94626 76.765625 111.23438 C 75.056938 111.66263 73.304457 111.97528 71.449219 112.18164 L 70.8125 112.25195 L 70.769531 112.42578 C 70.511125 113.44081 70.19899 117.14829 70.195312 119.25977 C 70.194111 120.18688 70.295095 122.64395 70.345703 122.90625 C 70.388374 123.12735 72.22755 125.51894 73.533203 127.05078 C 74.84914 128.59468 77.403337 131.29655 77.544922 131.29492 C 77.580071 131.29424 77.740479 131.09388 77.900391 130.84961 C 78.060302 130.60507 78.208434 130.35909 78.230469 130.30273 C 78.25239 130.24642 78.546548 129.76827 78.882812 129.24023 C 79.219077 128.71216 80.070683 127.30712 80.775391 126.11914 L 82.056641 123.95898 L 81.908203 123.13672 C 81.827094 122.68348 81.736512 122.25926 81.707031 122.19531 C 81.63454 122.03846 81.33272 120.15409 81.189453 118.96875 C 80.898127 116.55798 80.729935 114.21595 80.681641 111.88867 C 80.660853 110.88929 80.636591 110.07227 80.626953 110.07227 L 80.626953 110.07031 z "
       transform="matrix(0.26458333,0,0,0.26458333,77.4702,95.190089)"
       id="circle296" />
  </g>
</svg>
